<svg width="64" height="64" viewBox="0 0 64 64" xmlns="http://www.w3.org/2000/svg" xmlns:xlink="http://www.w3.org/1999/xlink">
    <defs>
        <filter x="-3%" y="-3%" width="106%" height="111.9%" filterUnits="objectBoundingBox" id="a">
            <feOffset dy="2" in="SourceAlpha" result="shadowOffsetOuter1"/>
            <feColorMatrix values="0 0 0 0 0 0 0 0 0 0 0 0 0 0 0 0 0 0 0.1 0" in="shadowOffsetOuter1"/>
        </filter>
        <filter x="-3%" y="-3%" width="106%" height="111.9%" filterUnits="objectBoundingBox" id="d">
            <feOffset dy="2" in="SourceAlpha" result="shadowOffsetInner1"/>
            <feComposite in="shadowOffsetInner1" in2="SourceAlpha" operator="arithmetic" k2="-1" k3="1" result="shadowInnerInner1"/>
            <feColorMatrix values="0 0 0 0 1 0 0 0 0 1 0 0 0 0 1 0 0 0 0.19263549 0" in="shadowInnerInner1"/>
        </filter>
        <linearGradient x1="81.607%" y1="-82.62%" x2="37.311%" y2="50%" id="c">
            <stop stop-color="#9CB3FF" offset="0%"/>
            <stop stop-color="#637CFF" offset="100%"/>
        </linearGradient>
        <path d="M12 25.6a2.4 2.4 0 0 1 2.4 2.4v6.4a2.4 2.4 0 0 1-2.4 2.4H5.6a2.4 2.4 0 0 1-2.4-2.4V28a2.4 2.4 0 0 1 2.4-2.4H12zm22.4 0a2.4 2.4 0 0 1 2.4 2.4v6.4a2.4 2.4 0 0 1-2.4 2.4H28a2.4 2.4 0 0 1-2.4-2.4V28a2.4 2.4 0 0 1 2.4-2.4h6.4zM12 3.2a2.4 2.4 0 0 1 2.4 2.4V12a2.4 2.4 0 0 1-2.4 2.4H5.6A2.4 2.4 0 0 1 3.2 12V5.6a2.4 2.4 0 0 1 2.4-2.4H12zm22.4 0a2.4 2.4 0 0 1 2.4 2.4V12a2.4 2.4 0 0 1-2.4 2.4H28a2.4 2.4 0 0 1-2.4-2.4V5.6A2.4 2.4 0 0 1 28 3.2h6.4z" id="b"/>
    </defs>
    <g fill="none" fill-rule="evenodd">
        <rect fill="#3DE2CB" opacity=".2" width="64" height="64" rx="16"/>
        <path d="M12 12h40v40H12z"/>
        <path d="m31.697 44.4 1.152 1.151a1.2 1.2 0 1 1-1.698 1.698l-3.2-3.2a1.2 1.2 0 0 1 0-1.698l3.2-3.2a1.2 1.2 0 1 1 1.698 1.698L31.697 42H39.6v2.4h-7.903zM44.4 32.303l1.151-1.152a1.2 1.2 0 1 1 1.698 1.698l-3.2 3.2a1.196 1.196 0 0 1-1.698 0l-3.2-3.2a1.2 1.2 0 1 1 1.698-1.698L42 32.303V24.4h2.4v7.903zM32.303 22H24.4v-2.4h7.903l-1.152-1.151a1.2 1.2 0 1 1 1.698-1.698l3.2 3.2a1.2 1.2 0 0 1 0 1.698l-3.2 3.2a1.2 1.2 0 1 1-1.698-1.698L32.303 22zM19.6 31.697l-1.151 1.152a1.2 1.2 0 1 1-1.698-1.698l3.2-3.2a1.2 1.2 0 0 1 1.698 0l3.2 3.2a1.2 1.2 0 1 1-1.698 1.698L22 31.697V39.6h-2.4v-7.903z" fill="#44D5E9" fill-rule="nonzero"/>
        <g fill-rule="nonzero" transform="translate(12 12)">
            <use fill="#000" filter="url(#a)" xlink:href="#b"/>
            <use fill="url(#c)" xlink:href="#b"/>
            <use fill="#000" filter="url(#d)" xlink:href="#b"/>
        </g>
    </g>
</svg>
