<svg width="15" height="16" xmlns="http://www.w3.org/2000/svg">
    <path d="M13.75 16c.416 0 .75-.334.75-.75v-.5a.756.756 0 0 0-.278-.584c-.131-.482-.131-1.854 0-2.335a.745.745 0 0 0 .278-.581V.75a.748.748 0 0 0-.75-.75H3.5a3 3 0 0 0-3 3v10a3 3 0 0 0 3 3h10.25zM11.312 5H4.687a.188.188 0 0 1-.187-.187v-.625c0-.104.084-.188.187-.188h6.625c.104 0 .188.084.188.188v.625a.188.188 0 0 1-.188.187zm0 2H4.687a.188.188 0 0 1-.187-.187v-.625c0-.104.084-.188.187-.188h6.625c.104 0 .188.084.188.188v.625a.188.188 0 0 1-.188.187zm1.107 7H3.5a.999.999 0 1 1 0-2h8.919a11.25 11.25 0 0 0 0 2z" fill="#183B56" fill-rule="nonzero"/>
</svg>
