<svg width="64" height="64" viewBox="0 0 64 64" xmlns="http://www.w3.org/2000/svg" xmlns:xlink="http://www.w3.org/1999/xlink">
    <defs>
        <filter x="-3.5%" y="-3.1%" width="106.9%" height="112.5%" filterUnits="objectBoundingBox" id="a">
            <feOffset dy="2" in="SourceAlpha" result="shadowOffsetOuter1"/>
            <feColorMatrix values="0 0 0 0 0 0 0 0 0 0 0 0 0 0 0 0 0 0 0.1 0" in="shadowOffsetOuter1"/>
        </filter>
        <filter x="-3.5%" y="-3.1%" width="106.9%" height="112.5%" filterUnits="objectBoundingBox" id="d">
            <feOffset dy="2" in="SourceAlpha" result="shadowOffsetInner1"/>
            <feComposite in="shadowOffsetInner1" in2="SourceAlpha" operator="arithmetic" k2="-1" k3="1" result="shadowInnerInner1"/>
            <feColorMatrix values="0 0 0 0 1 0 0 0 0 1 0 0 0 0 1 0 0 0 0.19263549 0" in="shadowInnerInner1"/>
        </filter>
        <filter x="-7%" y="-10%" width="114.1%" height="140%" filterUnits="objectBoundingBox" id="e">
            <feOffset dy="2" in="SourceAlpha" result="shadowOffsetOuter1"/>
            <feColorMatrix values="0 0 0 0 1 0 0 0 0 1 0 0 0 0 1 0 0 0 0.137347028 0" in="shadowOffsetOuter1"/>
        </filter>
        <path d="m19.018 3.845 13.68 4.94a.76.76 0 0 1 .502.715v10.26c0 7.99-4.81 13.334-14.238 15.933a.76.76 0 0 1-.399.001C9.132 33.164 4.32 27.817 4.32 19.76V9.5c0-.32.2-.606.502-.715l13.68-4.94a.76.76 0 0 1 .516 0z" id="b"/>
        <path d="M13.757 20.429a.79.79 0 1 0-1.106 1.127l4.314 4.231a.79.79 0 0 0 1.115-.008l8.317-8.421a.79.79 0 1 0-1.123-1.11l-7.765 7.861-3.752-3.68z" id="f"/>
        <linearGradient x1="75.873%" y1="-82.62%" x2="39.613%" y2="50%" id="c">
            <stop stop-color="#9CB3FF" offset="0%"/>
            <stop stop-color="#637CFF" offset="100%"/>
        </linearGradient>
    </defs>
    <g fill="none" fill-rule="evenodd">
        <rect fill="#3DE2CB" opacity=".2" width="64" height="64" rx="16"/>
        <path d="M13 13h38v38H13z"/>
        <g fill-rule="nonzero" transform="translate(13 13)">
            <use fill="#000" filter="url(#a)" xlink:href="#b"/>
            <use fill="#637CFF" xlink:href="#b"/>
            <use fill="url(#c)" xlink:href="#b"/>
            <use fill="#000" filter="url(#d)" xlink:href="#b"/>
        </g>
        <g fill-rule="nonzero" transform="translate(13 13)">
            <use fill="#000" filter="url(#e)" xlink:href="#f"/>
            <use fill="#D8F9F5" xlink:href="#f"/>
        </g>
    </g>
</svg>
