<svg width="64" height="64" viewBox="0 0 64 64" xmlns="http://www.w3.org/2000/svg" xmlns:xlink="http://www.w3.org/1999/xlink">
    <defs>
        <filter x="-6.6%" y="-3.1%" width="113.2%" height="112.5%" filterUnits="objectBoundingBox" id="a">
            <feOffset dy="2" in="SourceAlpha" result="shadowOffsetOuter1"/>
            <feColorMatrix values="0 0 0 0 0 0 0 0 0 0 0 0 0 0 0 0 0 0 0.1 0" in="shadowOffsetOuter1"/>
        </filter>
        <filter x="-6.6%" y="-3.1%" width="113.2%" height="112.5%" filterUnits="objectBoundingBox" id="d">
            <feOffset dy="2" in="SourceAlpha" result="shadowOffsetInner1"/>
            <feComposite in="shadowOffsetInner1" in2="SourceAlpha" operator="arithmetic" k2="-1" k3="1" result="shadowInnerInner1"/>
            <feColorMatrix values="0 0 0 0 1 0 0 0 0 1 0 0 0 0 1 0 0 0 0.19263549 0" in="shadowInnerInner1"/>
        </filter>
        <linearGradient x1="57.092%" y1="-82.62%" x2="47.153%" y2="50%" id="c">
            <stop stop-color="#9CB3FF" offset="0%"/>
            <stop stop-color="#637CFF" offset="100%"/>
        </linearGradient>
        <path d="M8.568 29.86c.23-2.864 1.777-4.598 4.493-4.994a.84.84 0 1 1 .242 1.662c-1.922.28-2.892 1.367-3.06 3.467a.836.836 0 0 1-.127.381c.053.11.082.233.082.363 0 2.349 1.791 4.221 3.981 4.221s3.981-1.872 3.981-4.2V7.24c0-2.328-1.79-4.2-3.98-4.2-2.104 0-3.838 1.726-3.973 3.924.018.06.03.121.036.186.168 2.1 1.138 3.186 3.06 3.467a.84.84 0 0 1-.242 1.662c-2.451-.358-3.951-1.806-4.389-4.191-2.075.135-3.733 1.953-3.733 4.192 0 .693.159 1.36.458 1.957.027.055.048.111.063.168a.846.846 0 0 1 .067.112c.942 1.883 2.248 2.527 4.136 2.067a.84.84 0 1 1 .398 1.633c-2.445.595-4.402-.22-5.7-2.342A4.298 4.298 0 0 0 3.04 19c0 1.539.79 2.926 2.034 3.664a.84.84 0 0 1 .323 1.099 4.362 4.362 0 0 0-.458 1.957c0 2.2 1.601 3.995 3.627 4.184l.002-.043z" id="b"/>
    </defs>
    <g fill="none" fill-rule="evenodd">
        <rect fill="#3DE2CB" opacity=".2" width="64" height="64" rx="16"/>
        <path d="M13 14h38v38H13z"/>
        <path d="M40.904 44.338a.837.837 0 0 1-.105-.343c-.168-2.1-1.137-3.186-3.06-3.467a.84.84 0 0 1 .243-1.662c2.715.396 4.263 2.13 4.492 4.995a.854.854 0 0 1 .002.038c2.006-.21 3.585-1.993 3.585-4.179 0-.693-.159-1.36-.458-1.957a.842.842 0 0 1-.063-.168.845.845 0 0 1-.075-.124c-.943-1.883-2.249-2.527-4.136-2.067a.84.84 0 0 1-.398-1.633c2.45-.596 4.409.223 5.708 2.354A4.298 4.298 0 0 0 47.96 33c0-1.539-.79-2.926-2.034-3.664a.84.84 0 0 1-.323-1.099c.3-.597.458-1.264.458-1.957 0-2.224-1.636-4.033-3.692-4.19-.438 2.384-1.938 3.831-4.387 4.189a.84.84 0 0 1-.243-1.662c1.923-.281 2.892-1.368 3.06-3.467l.002-.014c-.053-2.28-1.823-4.096-3.98-4.096-2.19 0-3.981 1.872-3.981 4.2v23.52c0 2.328 1.79 4.2 3.98 4.2s3.982-1.872 3.982-4.22c0-.146.037-.283.102-.402z" fill="#44D5E9" fill-rule="nonzero"/>
        <g fill-rule="nonzero" transform="translate(13 14)">
            <use fill="#000" filter="url(#a)" xlink:href="#b"/>
            <use fill="url(#c)" xlink:href="#b"/>
            <use fill="#000" filter="url(#d)" xlink:href="#b"/>
        </g>
    </g>
</svg>
