<svg width="64" height="64" viewBox="0 0 64 64" xmlns="http://www.w3.org/2000/svg" xmlns:xlink="http://www.w3.org/1999/xlink">
    <defs>
        <filter x="-3%" y="-3.1%" width="106%" height="112.5%" filterUnits="objectBoundingBox" id="a">
            <feOffset dy="2" in="SourceAlpha" result="shadowOffsetOuter1"/>
            <feColorMatrix values="0 0 0 0 0 0 0 0 0 0 0 0 0 0 0 0 0 0 0.1 0" in="shadowOffsetOuter1"/>
        </filter>
        <filter x="-3%" y="-3.1%" width="106%" height="112.5%" filterUnits="objectBoundingBox" id="d">
            <feOffset dy="2" in="SourceAlpha" result="shadowOffsetInner1"/>
            <feComposite in="shadowOffsetInner1" in2="SourceAlpha" operator="arithmetic" k2="-1" k3="1" result="shadowInnerInner1"/>
            <feColorMatrix values="0 0 0 0 1 0 0 0 0 1 0 0 0 0 1 0 0 0 0.19263549 0" in="shadowInnerInner1"/>
        </filter>
        <linearGradient x1="81.607%" y1="-70.29%" x2="37.311%" y2="50%" id="c">
            <stop stop-color="#9CB3FF" offset="0%"/>
            <stop stop-color="#637CFF" offset="100%"/>
        </linearGradient>
        <path d="M27.2 18.55v3.85h2.4a4.001 4.001 0 0 1 3.92 3.2H19.28a4.001 4.001 0 0 1 3.92-3.2h2.4v-4.633l-.014-.008c-4.137-2.484-5.97-7.363-3.98-10.947a.776.776 0 0 1 1.082-.302l13.716 8.235a.842.842 0 0 1 .29 1.125c-1.737 3.127-5.75 4.126-9.494 2.68zM5.6 38.4a.8.8 0 0 1-.8-.8v-3.2a.8.8 0 0 1 .8-.8h32a.8.8 0 0 1 .8.8v3.2a.8.8 0 0 1-.8.8h-32z" id="b"/>
    </defs>
    <g fill="none" fill-rule="evenodd">
        <rect fill="#3DE2CB" opacity=".2" width="64" height="64" rx="16"/>
        <path d="M10 12h40v40H10z"/>
        <path d="M14.727 34.578a1.334 1.334 0 1 1 0-2.666h3.53c.737 0 1.334.597 1.334 1.333v14.222a1.334 1.334 0 0 1-2.667 0V34.578h-2.197zm7.532-7.111h-7.532a1.334 1.334 0 1 1 0-2.667h8.865c.737 0 1.334.597 1.334 1.333v21.334a1.334 1.334 0 0 1-2.667 0v-20zm6.122 16.416a.78.78 0 0 1-.781-.78V39.98c0-.432.35-.781.78-.781h16.04c.43 0 .78.35.78.78v3.123a.78.78 0 0 1-.78.78H28.38zM41.49 22.14l-2.01-1.207 2.407-3.61a1.171 1.171 0 0 1 1.949 1.298l-2.345 3.519z" fill="#44D5E9" fill-rule="nonzero"/>
        <g fill-rule="nonzero" transform="translate(10 12)">
            <use fill="#000" filter="url(#a)" xlink:href="#b"/>
            <use fill="url(#c)" xlink:href="#b"/>
            <use fill="#000" filter="url(#d)" xlink:href="#b"/>
        </g>
    </g>
</svg>
