<svg width="64" height="64" viewBox="0 0 64 64" xmlns="http://www.w3.org/2000/svg" xmlns:xlink="http://www.w3.org/1999/xlink">
    <defs>
        <filter x="-3.2%" y="-4.1%" width="106.3%" height="116.2%" filterUnits="objectBoundingBox" id="a">
            <feOffset dy="2" in="SourceAlpha" result="shadowOffsetOuter1"/>
            <feColorMatrix values="0 0 0 0 0 0 0 0 0 0 0 0 0 0 0 0 0 0 0.1 0" in="shadowOffsetOuter1"/>
        </filter>
        <filter x="-3.2%" y="-4.1%" width="106.3%" height="116.2%" filterUnits="objectBoundingBox" id="d">
            <feOffset dy="2" in="SourceAlpha" result="shadowOffsetInner1"/>
            <feComposite in="shadowOffsetInner1" in2="SourceAlpha" operator="arithmetic" k2="-1" k3="1" result="shadowInnerInner1"/>
            <feColorMatrix values="0 0 0 0 1 0 0 0 0 1 0 0 0 0 1 0 0 0 0.19263549 0" in="shadowInnerInner1"/>
        </filter>
        <linearGradient x1="81.607%" y1="-30.229%" x2="37.311%" y2="50%" id="c">
            <stop stop-color="#9CB3FF" offset="0%"/>
            <stop stop-color="#637CFF" offset="100%"/>
        </linearGradient>
        <path d="m15.84 9.838 3.139-.339 9.181-2.94v8.401a.88.88 0 1 0 1.76 0V5.994l1.835-.587A2.64 2.64 0 0 1 35.2 7.92v19.36a2.64 2.64 0 0 1-3.442 2.514l-12.691-4.067-3.227-.352V9.838zm-1.76.19v15.155l-5.069-.553a6.16 6.16 0 0 1-5.491-6.124v-1.808a6.16 6.16 0 0 1 5.5-6.124l5.06-.546z" id="b"/>
    </defs>
    <g fill="none" fill-rule="evenodd">
        <rect fill="#3DE2CB" opacity=".2" width="64" height="64" rx="16"/>
        <path d="M10 14h44v44H10z"/>
        <g fill-rule="nonzero" transform="translate(10 14)">
            <use fill="#000" filter="url(#a)" xlink:href="#b"/>
            <use fill="url(#c)" xlink:href="#b"/>
            <use fill="#000" filter="url(#d)" xlink:href="#b"/>
        </g>
        <path d="M17.941 40.234c.287.064.58.113.88.146l7.498.818 1.199 6.657a2.64 2.64 0 0 1-2.599 3.108h-.984a2.64 2.64 0 0 1-2.46-1.68l-3.534-9.05zm29.019-12.97c1.59.947 2.64 2.523 2.64 4.336 0 1.813-1.05 3.389-2.64 4.336v-8.672z" fill="#44D5E9" fill-rule="nonzero"/>
    </g>
</svg>
