<svg width="64" height="64" viewBox="0 0 64 64" xmlns="http://www.w3.org/2000/svg" xmlns:xlink="http://www.w3.org/1999/xlink">
    <defs>
        <filter x="-3%" y="-2.8%" width="106%" height="111.4%" filterUnits="objectBoundingBox" id="a">
            <feOffset dy="2" in="SourceAlpha" result="shadowOffsetOuter1"/>
            <feColorMatrix values="0 0 0 0 0 0 0 0 0 0 0 0 0 0 0 0 0 0 0.1 0" in="shadowOffsetOuter1"/>
        </filter>
        <filter x="-3%" y="-2.8%" width="106%" height="111.4%" filterUnits="objectBoundingBox" id="d">
            <feOffset dy="2" in="SourceAlpha" result="shadowOffsetInner1"/>
            <feComposite in="shadowOffsetInner1" in2="SourceAlpha" operator="arithmetic" k2="-1" k3="1" result="shadowInnerInner1"/>
            <feColorMatrix values="0 0 0 0 1 0 0 0 0 1 0 0 0 0 1 0 0 0 0.19263549 0" in="shadowInnerInner1"/>
        </filter>
        <linearGradient x1="78.525%" y1="-82.62%" x2="38.548%" y2="50%" id="c">
            <stop stop-color="#9CB3FF" offset="0%"/>
            <stop stop-color="#637CFF" offset="100%"/>
        </linearGradient>
        <path d="M32.56 31.68a4.4 4.4 0 1 1 0 8.8 4.4 4.4 0 0 1 0-8.8zm-21.12 0a4.4 4.4 0 1 1 0 8.8 4.4 4.4 0 0 1 0-8.8zm11.44-26.4c4.281 0 7.892 3.077 8.653 7.203 4.117.763 7.187 4.38 7.187 8.669 0 4.504-3.388 8.271-7.92 8.768H13.2c-4.532-.497-7.92-4.264-7.92-8.768 0-4.87 3.94-8.817 8.8-8.817l.175.002c.819-4.052 4.394-7.057 8.625-7.057z" id="b"/>
    </defs>
    <g fill="none" fill-rule="evenodd">
        <rect fill="#3DE2CB" opacity=".2" width="64" height="64" rx="16"/>
        <path d="M10 10h44v44H10z"/>
        <path fill="#44D5E9" fill-rule="nonzero" d="M33.32 44.769h7.026v2.64H23.688v-2.64h6.992V37.72h2.64z"/>
        <g fill-rule="nonzero" transform="translate(10 10)">
            <use fill="#000" filter="url(#a)" xlink:href="#b"/>
            <use fill="url(#c)" xlink:href="#b"/>
            <use fill="#000" filter="url(#d)" xlink:href="#b"/>
        </g>
    </g>
</svg>
