<svg width="64" height="64" viewBox="0 0 64 64" xmlns="http://www.w3.org/2000/svg" xmlns:xlink="http://www.w3.org/1999/xlink">
    <defs>
        <filter x="-2.6%" y="-2.6%" width="105.3%" height="110.5%" filterUnits="objectBoundingBox" id="a">
            <feOffset dy="2" in="SourceAlpha" result="shadowOffsetOuter1"/>
            <feColorMatrix values="0 0 0 0 0 0 0 0 0 0 0 0 0 0 0 0 0 0 0.1 0" in="shadowOffsetOuter1"/>
        </filter>
        <filter x="-2.6%" y="-2.6%" width="105.3%" height="110.5%" filterUnits="objectBoundingBox" id="d">
            <feOffset dy="2" in="SourceAlpha" result="shadowOffsetInner1"/>
            <feComposite in="shadowOffsetInner1" in2="SourceAlpha" operator="arithmetic" k2="-1" k3="1" result="shadowInnerInner1"/>
            <feColorMatrix values="0 0 0 0 1 0 0 0 0 1 0 0 0 0 1 0 0 0 0.19263549 0" in="shadowInnerInner1"/>
        </filter>
        <linearGradient x1="81.607%" y1="-82.62%" x2="37.311%" y2="50%" id="c">
            <stop stop-color="#9CB3FF" offset="0%"/>
            <stop stop-color="#637CFF" offset="100%"/>
        </linearGradient>
        <path d="M35.415 16.417h-2.054a14.432 14.432 0 0 0-2.246-5.876l1.32-1.32a2.585 2.585 0 0 0-3.655-3.656l-1.236 1.236a14.44 14.44 0 0 0-5.959-2.549V2.584a2.584 2.584 0 1 0-5.169 0v1.668a14.434 14.434 0 0 0-5.96 2.55L9.22 5.564A2.584 2.584 0 1 0 5.566 9.22l1.32 1.32a14.42 14.42 0 0 0-2.246 5.876H2.585a2.584 2.584 0 1 0 0 5.168h2.224a14.45 14.45 0 0 0 2.46 5.493L5.566 28.78a2.585 2.585 0 0 0 3.655 3.654l1.787-1.786a14.44 14.44 0 0 0 5.409 2.166v2.602a2.585 2.585 0 0 0 5.169 0v-2.602a14.415 14.415 0 0 0 5.41-2.166l1.786 1.786a2.583 2.583 0 1 0 3.655-3.655l-1.703-1.702a14.415 14.415 0 0 0 2.46-5.493h2.224A2.581 2.581 0 0 0 38 19.002a2.585 2.585 0 0 0-2.585-2.585zM19 28.845c-5.695 0-10.31-4.617-10.31-10.31 0-5.695 4.616-10.311 10.31-10.311 5.694 0 10.31 4.616 10.31 10.31 0 5.694-4.616 10.31-10.31 10.31z" id="b"/>
    </defs>
    <g fill="none" fill-rule="evenodd">
        <rect fill="#3DE2CB" opacity=".2" width="64" height="64" rx="16"/>
        <g fill-rule="nonzero">
            <g transform="translate(13 14)">
                <use fill="#000" filter="url(#a)" xlink:href="#b"/>
                <use fill="url(#c)" xlink:href="#b"/>
                <use fill="#000" filter="url(#d)" xlink:href="#b"/>
            </g>
            <path d="M32 25.5a7 7 0 1 0 0 14 7 7 0 0 0 0-14zm0 9.898a2.898 2.898 0 1 1 0-5.796 2.898 2.898 0 0 1 0 5.796z" fill="#44D5E9"/>
        </g>
    </g>
</svg>
