<svg width="64" height="64" viewBox="0 0 64 64" xmlns="http://www.w3.org/2000/svg" xmlns:xlink="http://www.w3.org/1999/xlink">
    <defs>
        <filter x="-6.7%" y="-2.6%" width="113.4%" height="110.5%" filterUnits="objectBoundingBox" id="a">
            <feOffset dy="2" in="SourceAlpha" result="shadowOffsetOuter1"/>
            <feColorMatrix values="0 0 0 0 0 0 0 0 0 0 0 0 0 0 0 0 0 0 0.1 0" in="shadowOffsetOuter1"/>
        </filter>
        <filter x="-6.7%" y="-2.6%" width="113.4%" height="110.5%" filterUnits="objectBoundingBox" id="d">
            <feOffset dy="2" in="SourceAlpha" result="shadowOffsetInner1"/>
            <feComposite in="shadowOffsetInner1" in2="SourceAlpha" operator="arithmetic" k2="-1" k3="1" result="shadowInnerInner1"/>
            <feColorMatrix values="0 0 0 0 1 0 0 0 0 1 0 0 0 0 1 0 0 0 0.19263549 0" in="shadowInnerInner1"/>
        </filter>
        <linearGradient x1="54.881%" y1="-82.62%" x2="48.04%" y2="50%" id="c">
            <stop stop-color="#9CB3FF" offset="0%"/>
            <stop stop-color="#637CFF" offset="100%"/>
        </linearGradient>
        <path d="M6.643 18.145C5.943 11.448 8.628 4.814 14 0c5.372 4.814 8.058 11.448 7.357 18.145l-1.01 9.66H7.653l-1.01-9.66zM14 19.463c2.577 0 4.667-2.074 4.667-4.634 0-2.56-2.09-4.634-4.667-4.634S9.333 12.27 9.333 14.83c0 2.56 2.09 4.634 4.667 4.634zm-3.733 11.122h7.466c.516 0 .934.437.934.975 0 2.593-1.62 4.964-4.25 6.337a.898.898 0 0 1-.834 0c-2.63-1.373-4.25-3.744-4.25-6.337 0-.538.418-.975.934-.975z" id="b"/>
    </defs>
    <g fill="none" fill-rule="evenodd">
        <rect fill="#3DE2CB" opacity=".2" width="64" height="64" rx="16"/>
        <path d="M11 11h43v43H11z"/>
        <g fill-rule="nonzero" transform="translate(18 14)">
            <use fill="#000" filter="url(#a)" xlink:href="#b"/>
            <use fill="url(#c)" xlink:href="#b"/>
            <use fill="#000" filter="url(#d)" xlink:href="#b"/>
        </g>
        <path d="M32 31.61a2.79 2.79 0 0 1-2.8-2.78 2.79 2.79 0 0 1 2.8-2.781 2.79 2.79 0 0 1 2.8 2.78 2.79 2.79 0 0 1-2.8 2.78z" fill="#637CFF" fill-rule="nonzero"/>
        <path d="m41.023 34.164 1.158.614C44.548 36.03 46 38.186 46 40.53v1.274a.93.93 0 0 1-.933.927h-5.104c.128-.22.212-.469.24-.736l.82-7.832zm-16.986 8.568h-5.104a.93.93 0 0 1-.933-.927v-1.274c0-2.345 1.452-4.5 3.819-5.753l1.158-.614.82 7.832c.028.267.112.516.24.736z" fill="#44D5E9"/>
    </g>
</svg>
