<svg width="64" height="64" viewBox="0 0 64 64" xmlns="http://www.w3.org/2000/svg" xmlns:xlink="http://www.w3.org/1999/xlink">
    <defs>
        <filter x="-3.9%" y="-3.1%" width="107.7%" height="112.5%" filterUnits="objectBoundingBox" id="a">
            <feOffset dy="2" in="SourceAlpha" result="shadowOffsetOuter1"/>
            <feColorMatrix values="0 0 0 0 0 0 0 0 0 0 0 0 0 0 0 0 0 0 0.1 0" in="shadowOffsetOuter1"/>
        </filter>
        <filter x="-3.9%" y="-3.1%" width="107.7%" height="112.5%" filterUnits="objectBoundingBox" id="d">
            <feOffset dy="2" in="SourceAlpha" result="shadowOffsetInner1"/>
            <feComposite in="shadowOffsetInner1" in2="SourceAlpha" operator="arithmetic" k2="-1" k3="1" result="shadowInnerInner1"/>
            <feColorMatrix values="0 0 0 0 1 0 0 0 0 1 0 0 0 0 1 0 0 0 0.19263549 0" in="shadowInnerInner1"/>
        </filter>
        <filter x="-8.5%" y="-8.5%" width="116.9%" height="133.8%" filterUnits="objectBoundingBox" id="e">
            <feOffset dy="1.8" in="SourceAlpha" result="shadowOffsetOuter1"/>
            <feColorMatrix values="0 0 0 0 1 0 0 0 0 1 0 0 0 0 1 0 0 0 0.203644012 0" in="shadowOffsetOuter1"/>
        </filter>
        <path d="M22.8 3.04v8.36a2.28 2.28 0 0 0 2.28 2.28h6.84v15.96a5.32 5.32 0 0 1-5.32 5.32H11.4a5.32 5.32 0 0 1-5.32-5.32V8.36a5.32 5.32 0 0 1 5.32-5.32h11.4z" id="b"/>
        <path d="M23.022 16.942 19 20.964l-4.022-4.022a.763.763 0 0 0-1.076 0 .76.76 0 0 0 0 1.075l4.022 4.022-4.022 4.022a.76.76 0 0 0 1.076 1.074L19 23.113l4.022 4.022a.76.76 0 0 0 1.075-1.074l-4.022-4.022 4.022-4.022a.76.76 0 0 0-1.075-1.075z" id="f"/>
        <linearGradient x1="70.713%" y1="-82.62%" x2="41.684%" y2="50%" id="c">
            <stop stop-color="#9CB3FF" offset="0%"/>
            <stop stop-color="#637CFF" offset="100%"/>
        </linearGradient>
    </defs>
    <g fill="none" fill-rule="evenodd">
        <rect fill="#3DE2CB" opacity=".2" width="64" height="64" rx="16"/>
        <path d="M13 13h38v38H13z"/>
        <g fill-rule="nonzero" transform="translate(13 13)">
            <use fill="#000" filter="url(#a)" xlink:href="#b"/>
            <use fill="url(#c)" xlink:href="#b"/>
            <use fill="#000" filter="url(#d)" xlink:href="#b"/>
        </g>
        <g fill-rule="nonzero" transform="translate(13 13)">
            <use fill="#000" filter="url(#e)" xlink:href="#f"/>
            <use fill="#D8F9F5" xlink:href="#f"/>
        </g>
        <path d="M37.32 16.579c.1.085.194.179.28.281l6.792 8.15c.04.049.078.099.114.15H38.08a.76.76 0 0 1-.76-.76v-7.821z" fill="#44D5E9"/>
    </g>
</svg>
