<svg width="64" height="64" viewBox="0 0 64 64" xmlns="http://www.w3.org/2000/svg" xmlns:xlink="http://www.w3.org/1999/xlink">
    <defs>
        <filter x="-3.5%" y="-3.1%" width="106.9%" height="112.5%" filterUnits="objectBoundingBox" id="a">
            <feOffset dy="2" in="SourceAlpha" result="shadowOffsetOuter1"/>
            <feColorMatrix values="0 0 0 0 0 0 0 0 0 0 0 0 0 0 0 0 0 0 0.1 0" in="shadowOffsetOuter1"/>
        </filter>
        <filter x="-3.5%" y="-3.1%" width="106.9%" height="112.5%" filterUnits="objectBoundingBox" id="d">
            <feOffset dy="2" in="SourceAlpha" result="shadowOffsetInner1"/>
            <feComposite in="shadowOffsetInner1" in2="SourceAlpha" operator="arithmetic" k2="-1" k3="1" result="shadowInnerInner1"/>
            <feColorMatrix values="0 0 0 0 1 0 0 0 0 1 0 0 0 0 1 0 0 0 0.19263549 0" in="shadowInnerInner1"/>
        </filter>
        <linearGradient x1="75.873%" y1="-82.62%" x2="39.613%" y2="50%" id="c">
            <stop stop-color="#9CB3FF" offset="0%"/>
            <stop stop-color="#637CFF" offset="100%"/>
        </linearGradient>
        <path d="M24.32 15.2H13.68v-2.28a.76.76 0 0 0-1.52 0v2.28h-3.8a3.8 3.8 0 0 1-3.8-3.8V5.32a2.28 2.28 0 0 1 2.28-2.28h24.32a2.28 2.28 0 0 1 2.28 2.28v6.08a3.8 3.8 0 0 1-3.8 3.8h-3.8v-2.28a.76.76 0 0 0-1.52 0v2.28zm1.52 1.52h3.8c.258 0 .512-.018.76-.054V29.64a5.32 5.32 0 0 1-5.32 5.32H12.92a5.32 5.32 0 0 1-5.32-5.32V16.666c.248.036.502.054.76.054h3.8V19a.76.76 0 0 0 1.52 0v-2.28h10.64V19a.76.76 0 0 0 1.52 0v-2.28zM12.92 22.8a.76.76 0 0 0-.76.76v3.04a3.8 3.8 0 0 0 3.8 3.8h6.08a3.8 3.8 0 0 0 3.8-3.8v-3.04a.76.76 0 0 0-.76-.76H12.92z" id="b"/>
    </defs>
    <g fill="none" fill-rule="evenodd">
        <rect fill="#3DE2CB" opacity=".2" width="64" height="64" rx="16"/>
        <path d="M13 14h38v38H13z"/>
        <path d="M19.08 33.76v9.895c0 .794.135 1.556.383 2.265a3.804 3.804 0 0 1-3.423-3.787v-6.09a2.282 2.282 0 0 1 2.28-2.283h.76zm26.6 0c1.26 0 2.28 1.022 2.28 2.283v6.09a3.804 3.804 0 0 1-3.423 3.787 6.85 6.85 0 0 0 .383-2.265V33.76zm-8.36 4.567v2.283a2.282 2.282 0 0 1-2.28 2.284h-6.08a2.282 2.282 0 0 1-2.28-2.284v-2.283h10.64z" fill="#44D5E9"/>
        <g fill-rule="nonzero" transform="translate(13 14)">
            <use fill="#000" filter="url(#a)" xlink:href="#b"/>
            <use fill="url(#c)" xlink:href="#b"/>
            <use fill="#000" filter="url(#d)" xlink:href="#b"/>
        </g>
    </g>
</svg>
