<svg width="64" height="64" viewBox="0 0 64 64" xmlns="http://www.w3.org/2000/svg" xmlns:xlink="http://www.w3.org/1999/xlink">
    <defs>
        <filter x="-7.9%" y="-8.6%" width="110.5%" height="117.1%" filterUnits="objectBoundingBox" id="a">
            <feOffset dx="-2" in="SourceAlpha" result="shadowOffsetOuter1"/>
            <feColorMatrix values="0 0 0 0 0 0 0 0 0 0 0 0 0 0 0 0 0 0 0.1 0" in="shadowOffsetOuter1"/>
        </filter>
        <filter x="-7.9%" y="-8.6%" width="110.5%" height="117.1%" filterUnits="objectBoundingBox" id="c">
            <feOffset dx="-2" in="SourceAlpha" result="shadowOffsetInner1"/>
            <feComposite in="shadowOffsetInner1" in2="SourceAlpha" operator="arithmetic" k2="-1" k3="1" result="shadowInnerInner1"/>
            <feColorMatrix values="0 0 0 0 1 0 0 0 0 1 0 0 0 0 1 0 0 0 0.236451049 0" in="shadowInnerInner1"/>
        </filter>
        <filter x="-26.5%" y="-8.8%" width="135.3%" height="117.6%" filterUnits="objectBoundingBox" id="d">
            <feOffset dx="-2" in="SourceAlpha" result="shadowOffsetOuter1"/>
            <feColorMatrix values="0 0 0 0 0 0 0 0 0 0 0 0 0 0 0 0 0 0 0.1 0" in="shadowOffsetOuter1"/>
        </filter>
        <filter x="-26.5%" y="-8.8%" width="135.3%" height="117.6%" filterUnits="objectBoundingBox" id="f">
            <feOffset dx="-2" in="SourceAlpha" result="shadowOffsetInner1"/>
            <feComposite in="shadowOffsetInner1" in2="SourceAlpha" operator="arithmetic" k2="-1" k3="1" result="shadowInnerInner1"/>
            <feColorMatrix values="0 0 0 0 1 0 0 0 0 1 0 0 0 0 1 0 0 0 0.261227054 0" in="shadowInnerInner1"/>
        </filter>
        <path d="M-7.5 13.5a5.667 5.667 0 1 1 0 11.333 5.667 5.667 0 0 1 0-11.333zm26.667-.333a5.667 5.667 0 1 1 0 11.333 5.667 5.667 0 0 1 0-11.333z" id="b"/>
        <path d="M25.333 19.333a5.667 5.667 0 1 1 0-11.333 5.667 5.667 0 0 1 0 11.333z" id="e"/>
    </defs>
    <g fill="none" fill-rule="evenodd">
        <rect fill="#3DE2CB" opacity=".15" width="64" height="64" rx="16"/>
        <path stroke="#44D5E9" stroke-width="3" stroke-linecap="square" d="M24.5 44.5v-28"/>
        <path d="M25 41a6 6 0 0 1 6-6h5.917A7.18 7.18 0 0 0 44 29a1.65 1.65 0 0 0-2.894-1.327" stroke="#44D5E9" stroke-width="3"/>
        <g fill-rule="nonzero" transform="rotate(-90 21.833 16)">
            <use fill="#000" filter="url(#a)" xlink:href="#b"/>
            <use fill="#637CFF" xlink:href="#b"/>
            <use fill="#000" filter="url(#c)" xlink:href="#b"/>
        </g>
        <g fill-rule="nonzero" transform="rotate(-90 41.333 10.667)">
            <use fill="#000" filter="url(#d)" xlink:href="#e"/>
            <use fill="#677EFD" xlink:href="#e"/>
            <use fill="#000" filter="url(#f)" xlink:href="#e"/>
        </g>
    </g>
</svg>
