<svg width="64" height="64" viewBox="0 0 64 64" xmlns="http://www.w3.org/2000/svg" xmlns:xlink="http://www.w3.org/1999/xlink">
    <defs>
        <filter x="-3.3%" y="-3%" width="106.6%" height="111.9%" filterUnits="objectBoundingBox" id="a">
            <feOffset dy="2" in="SourceAlpha" result="shadowOffsetOuter1"/>
            <feColorMatrix values="0 0 0 0 0 0 0 0 0 0 0 0 0 0 0 0 0 0 0.1 0" in="shadowOffsetOuter1"/>
        </filter>
        <filter x="-3.3%" y="-3%" width="106.6%" height="111.9%" filterUnits="objectBoundingBox" id="d">
            <feOffset dy="2" in="SourceAlpha" result="shadowOffsetInner1"/>
            <feComposite in="shadowOffsetInner1" in2="SourceAlpha" operator="arithmetic" k2="-1" k3="1" result="shadowInnerInner1"/>
            <feColorMatrix values="0 0 0 0 1 0 0 0 0 1 0 0 0 0 1 0 0 0 0.19263549 0" in="shadowInnerInner1"/>
        </filter>
        <linearGradient x1="75.874%" y1="-82.62%" x2="39.612%" y2="50%" id="c">
            <stop stop-color="#9CB3FF" offset="0%"/>
            <stop stop-color="#637CFF" offset="100%"/>
        </linearGradient>
        <path d="M10.534 14.19c7.087 1 12.631-1.583 16.492-7.715.02-.03.037-.062.053-.094a9.431 9.431 0 0 1 2.388 6.286v3.466a9.467 9.467 0 0 1-4.9 8.295 2.4 2.4 0 1 0 .346 3.653C24.266 30.118 22.31 31.6 20 31.6c-2.838 0-5.14-2.235-5.143-4.994l.759-2.08a9.467 9.467 0 0 1-5.082-8.393v-1.942zm.018-2.124C10.862 7.117 14.974 3.2 20 3.2c2.119 0 4.075.696 5.652 1.872-.048.05-.093.106-.132.169-3.475 5.519-8.386 7.785-14.874 6.833a.825.825 0 0 0-.094-.008zm2.329 15.588C13.404 31.02 16.391 33.6 20 33.6s6.598-2.581 7.12-5.949l3.836.774a4 4 0 0 1 3.114 2.956l1.107 4.425a.8.8 0 0 1-.777.994H5.6a.8.8 0 0 1-.776-.994l1.105-4.42a3.997 3.997 0 0 1 3.117-2.956l3.835-.776z" id="b"/>
    </defs>
    <g fill="none" fill-rule="evenodd">
        <rect fill="#3DE2CB" opacity=".15" width="64" height="64" rx="16"/>
        <path d="M12 12h40v40H12z"/>
        <g fill-rule="nonzero" transform="translate(12 12)">
            <use fill="#000" filter="url(#a)" xlink:href="#b"/>
            <use fill="url(#c)" xlink:href="#b"/>
            <use fill="#000" filter="url(#d)" xlink:href="#b"/>
        </g>
        <path d="M35.2 39.2a.8.8 0 1 0 0-1.6.8.8 0 0 0 0 1.6zM42.97 23.2h.23a2.4 2.4 0 0 1 2.4 2.4v3.2a2.4 2.4 0 0 1-2.4 2.4h-.565c.283-.982.432-2.012.432-3.067v-3.466c0-.498-.033-.987-.096-1.467zM21.366 31.2H20.8a2.4 2.4 0 0 1-2.4-2.4v-3.2a2.4 2.4 0 0 1 2.4-2.4h.23c-.063.48-.096.97-.096 1.467v3.466c0 1.055.15 2.085.432 3.067z" fill="#44D5E9"/>
    </g>
</svg>
