<svg width="64" height="64" viewBox="0 0 64 64" xmlns="http://www.w3.org/2000/svg" xmlns:xlink="http://www.w3.org/1999/xlink">
    <defs>
        <filter x="-3.2%" y="-2.9%" width="106.4%" height="111.6%" filterUnits="objectBoundingBox" id="a">
            <feOffset dy="2" in="SourceAlpha" result="shadowOffsetOuter1"/>
            <feColorMatrix values="0 0 0 0 0 0 0 0 0 0 0 0 0 0 0 0 0 0 0.1 0" in="shadowOffsetOuter1"/>
        </filter>
        <filter x="-3.2%" y="-2.9%" width="106.4%" height="111.6%" filterUnits="objectBoundingBox" id="d">
            <feOffset dy="2" in="SourceAlpha" result="shadowOffsetInner1"/>
            <feComposite in="shadowOffsetInner1" in2="SourceAlpha" operator="arithmetic" k2="-1" k3="1" result="shadowInnerInner1"/>
            <feColorMatrix values="0 0 0 0 1 0 0 0 0 1 0 0 0 0 1 0 0 0 0.19263549 0" in="shadowInnerInner1"/>
        </filter>
        <linearGradient x1="75.873%" y1="-82.62%" x2="39.613%" y2="50%" id="c">
            <stop stop-color="#9CB3FF" offset="0%"/>
            <stop stop-color="#637CFF" offset="100%"/>
        </linearGradient>
        <path d="M16.4 9.443V7.38a4.1 4.1 0 1 1 8.2 0v2.063A7.346 7.346 0 0 0 20.5 8.2a7.346 7.346 0 0 0-4.1 1.243zm.822 12.75c-2.083 3.79-7.983 14.594-8.26 15.1a.82.82 0 0 1-1.128.318c-2.785-1.598-3.74-5.141-2.135-7.904l7.48-13.192a7.386 7.386 0 0 0 4.043 5.679zm10.6-5.684L35.3 29.701a5.776 5.776 0 0 1-2.128 7.91.82.82 0 0 1-1.129-.318 5241.446 5241.446 0 0 0-8.257-15.103 7.386 7.386 0 0 0 4.036-5.681z" id="b"/>
    </defs>
    <g fill="none" fill-rule="evenodd">
        <rect fill="#3DE2CB" opacity=".15" width="64" height="64" rx="16"/>
        <path d="M12 12h41v41H12z"/>
        <path d="M18.148 39.885a1.23 1.23 0 1 1 0-2.46H46.85a1.23 1.23 0 0 1 0 2.46H18.148zm14.355-6.565a5.74 5.74 0 1 1 0-11.48 5.74 5.74 0 0 1 0 11.48zm0-4.92a.82.82 0 1 0 0-1.64.82.82 0 0 0 0 1.64z" fill="#44D5E9" fill-rule="nonzero"/>
        <g fill-rule="nonzero" transform="translate(12 12)">
            <use fill="#000" filter="url(#a)" xlink:href="#b"/>
            <use fill="url(#c)" xlink:href="#b"/>
            <use fill="#000" filter="url(#d)" xlink:href="#b"/>
        </g>
    </g>
</svg>
