<svg width="64" height="64" viewBox="0 0 64 64" xmlns="http://www.w3.org/2000/svg" xmlns:xlink="http://www.w3.org/1999/xlink">
    <defs>
        <filter x="-3.1%" y="-3.1%" width="106.1%" height="112.2%" filterUnits="objectBoundingBox" id="a">
            <feOffset dy="2" in="SourceAlpha" result="shadowOffsetOuter1"/>
            <feColorMatrix values="0 0 0 0 0 0 0 0 0 0 0 0 0 0 0 0 0 0 0.1 0" in="shadowOffsetOuter1"/>
        </filter>
        <filter x="-3.1%" y="-3.1%" width="106.1%" height="112.2%" filterUnits="objectBoundingBox" id="d">
            <feOffset dy="2" in="SourceAlpha" result="shadowOffsetInner1"/>
            <feComposite in="shadowOffsetInner1" in2="SourceAlpha" operator="arithmetic" k2="-1" k3="1" result="shadowInnerInner1"/>
            <feColorMatrix values="0 0 0 0 1 0 0 0 0 1 0 0 0 0 1 0 0 0 0.19263549 0" in="shadowInnerInner1"/>
        </filter>
        <filter x="-4.9%" y="-4.6%" width="109.9%" height="118.3%" filterUnits="objectBoundingBox" id="e">
            <feOffset dy="2" in="SourceAlpha" result="shadowOffsetOuter1"/>
            <feColorMatrix values="0 0 0 0 1 0 0 0 0 1 0 0 0 0 1 0 0 0 0.212057474 0" in="shadowOffsetOuter1"/>
        </filter>
        <path d="M19.5 35.88c-9.046 0-16.38-7.334-16.38-16.38S10.454 3.12 19.5 3.12s16.38 7.334 16.38 16.38-7.334 16.38-16.38 16.38z" id="b"/>
        <path d="M21.079 23.4H23.4a3.12 3.12 0 0 1 0 6.24h-7.8a3.12 3.12 0 0 1 0-6.24h3.881l3.008-13.537a9.107 9.107 0 0 0-2.988-.503c-3.73 0-7.078 2.276-8.65 5.78a.78.78 0 0 1-1.423-.64c1.818-4.051 5.714-6.7 10.073-6.7 4.358 0 8.252 2.646 10.07 6.695a.78.78 0 0 1-1.422.64c-.904-2.013-2.394-3.62-4.206-4.623L21.079 23.4z" id="f"/>
        <linearGradient x1="81.607%" y1="-82.62%" x2="37.311%" y2="50%" id="c">
            <stop stop-color="#9CB3FF" offset="0%"/>
            <stop stop-color="#637CFF" offset="100%"/>
        </linearGradient>
    </defs>
    <g fill="none" fill-rule="evenodd">
        <rect fill="#3DE2CB" opacity=".15" width="64" height="64" rx="16"/>
        <path d="M13 13h39v39H13z"/>
        <g fill-rule="nonzero" transform="translate(13 13)">
            <use fill="#000" filter="url(#a)" xlink:href="#b"/>
            <use fill="url(#c)" xlink:href="#b"/>
            <use fill="#000" filter="url(#d)" xlink:href="#b"/>
        </g>
        <g fill-rule="nonzero" transform="translate(13 13)">
            <use fill="#000" filter="url(#e)" xlink:href="#f"/>
            <use fill="#DEF8F6" xlink:href="#f"/>
        </g>
        <path d="M28.6 37.96a1.56 1.56 0 0 0 0 3.12h7.8a1.56 1.56 0 0 0 0-3.12h-7.8z" fill="#44D5E9"/>
    </g>
</svg>
