<svg width="64" height="64" viewBox="0 0 64 64" xmlns="http://www.w3.org/2000/svg" xmlns:xlink="http://www.w3.org/1999/xlink">
    <defs>
        <filter x="-3.5%" y="-3.1%" width="107%" height="112.5%" filterUnits="objectBoundingBox" id="a">
            <feOffset dy="2" in="SourceAlpha" result="shadowOffsetOuter1"/>
            <feColorMatrix values="0 0 0 0 0 0 0 0 0 0 0 0 0 0 0 0 0 0 0.1 0" in="shadowOffsetOuter1"/>
        </filter>
        <filter x="-3.5%" y="-3.1%" width="107%" height="112.5%" filterUnits="objectBoundingBox" id="d">
            <feOffset dy="2" in="SourceAlpha" result="shadowOffsetInner1"/>
            <feComposite in="shadowOffsetInner1" in2="SourceAlpha" operator="arithmetic" k2="-1" k3="1" result="shadowInnerInner1"/>
            <feColorMatrix values="0 0 0 0 1 0 0 0 0 1 0 0 0 0 1 0 0 0 0.19263549 0" in="shadowInnerInner1"/>
        </filter>
        <filter x="-8.5%" y="-89.3%" width="117%" height="219%" filterUnits="objectBoundingBox" id="e">
            <feOffset dy="-2" in="SourceAlpha" result="shadowOffsetOuter1"/>
            <feColorMatrix values="0 0 0 0 1 0 0 0 0 1 0 0 0 0 1 0 0 0 0.165401005 0" in="shadowOffsetOuter1"/>
        </filter>
        <path d="M21 8.4c6.031 0 10.92 4.89 10.92 10.92v9.195a12.6 12.6 0 0 0 1.35 5.672l1.92 3.81a.84.84 0 0 1-.545 1.194l-3.203.805a10.685 10.685 0 0 1-7.517-.874 6.407 6.407 0 0 0-5.862-.015 10.843 10.843 0 0 1-7.626.868l-3.084-.785a.84.84 0 0 1-.543-1.192l1.922-3.811a12.6 12.6 0 0 0 1.348-5.672V19.32C10.08 13.29 14.97 8.4 21 8.4zm0 18.48a5.88 5.88 0 1 0 0-11.76 5.88 5.88 0 0 0 0 11.76z" id="b"/>
        <path d="M15.431 31.733C16.97 32.978 18.836 33.6 21 33.6s4.031-.622 5.569-1.867a.84.84 0 1 0-1.058-1.306c-1.229.995-2.722 1.493-4.511 1.493-1.79 0-3.282-.498-4.511-1.493a.84.84 0 0 0-1.058 1.306z" id="f"/>
        <linearGradient x1="75.307%" y1="-82.62%" x2="39.84%" y2="50%" id="c">
            <stop stop-color="#9CB3FF" offset="0%"/>
            <stop stop-color="#637CFF" offset="100%"/>
        </linearGradient>
    </defs>
    <g fill="none" fill-rule="evenodd">
        <rect fill="#3DE2CB" opacity=".15" width="64" height="64" rx="16"/>
        <path d="M11 9h42v42H11z"/>
        <path d="M39.415 23.146a1.26 1.26 0 0 1-.563-1.691l3.364-6.719a1.26 1.26 0 1 1 2.252 1.129l-3.363 6.718a1.26 1.26 0 0 1-1.69.563zM19.53 15.865a1.26 1.26 0 0 1 2.253-1.129l3.363 6.719a1.26 1.26 0 0 1-2.252 1.128l-3.364-6.718zm2.81 13.294a1.26 1.26 0 0 1 0 2.52h-1.685a4.618 4.618 0 0 1-4.617-4.619 1.26 1.26 0 1 1 2.52 0c0 1.16.939 2.1 2.098 2.1l1.684-.001zm23.1-2.099a1.26 1.26 0 1 1 2.519 0 4.618 4.618 0 0 1-4.619 4.62l-1.684-.001a1.26 1.26 0 0 1 0-2.52h1.686c1.159 0 2.098-.94 2.098-2.099zm-3.783 10.489a1.26 1.26 0 0 1 0-2.52h1.685a6.298 6.298 0 0 1 6.296 6.299 1.26 1.26 0 1 1-2.519 0 3.778 3.778 0 0 0-3.778-3.78l-1.684.001zm-24.78 3.779a1.26 1.26 0 1 1-2.518 0 6.298 6.298 0 0 1 6.298-6.3l1.684.001a1.26 1.26 0 0 1 0 2.52h-1.686a3.778 3.778 0 0 0-3.777 3.779z" fill="#44D5E9" fill-rule="nonzero"/>
        <g fill-rule="nonzero" transform="translate(11 9)">
            <use fill="#000" filter="url(#a)" xlink:href="#b"/>
            <use fill="url(#c)" xlink:href="#b"/>
            <use fill="#000" filter="url(#d)" xlink:href="#b"/>
        </g>
        <g fill-rule="nonzero" transform="rotate(-180 26.5 36.42)">
            <use fill="#000" filter="url(#e)" xlink:href="#f"/>
            <use fill="#DDF8F6" xlink:href="#f"/>
        </g>
        <path d="M32 25.8a4.2 4.2 0 1 1 0 8.4 4.2 4.2 0 0 1 0-8.4zm0 2.1a2.1 2.1 0 1 0 0 4.2 2.1 2.1 0 0 0 0-4.2z" fill="#637CFF" fill-rule="nonzero"/>
    </g>
</svg>
