<svg width="545" height="161" viewBox="0 0 545 161" xmlns="http://www.w3.org/2000/svg" xmlns:xlink="http://www.w3.org/1999/xlink">
    <defs>
        <filter x="-8.6%" y="-29.3%" width="117.2%" height="176.6%" filterUnits="objectBoundingBox" id="b">
            <feOffset dy="10" in="SourceAlpha" result="shadowOffsetOuter1"/>
            <feGaussianBlur stdDeviation="12.5" in="shadowOffsetOuter1" result="shadowBlurOuter1"/>
            <feColorMatrix values="0 0 0 0 0.192156863 0 0 0 0 0.250980392 0 0 0 0 0.466666667 0 0 0 0.365903628 0" in="shadowBlurOuter1"/>
        </filter>
        <rect id="a" x="0" y="0" width="495" height="111" rx="7"/>
    </defs>
    <g transform="translate(25 15)" fill="none" fill-rule="evenodd">
        <mask id="c" fill="#fff">
            <use xlink:href="#a"/>
        </mask>
        <use fill="#000" filter="url(#b)" xlink:href="#a"/>
        <use fill="#111A3D" xlink:href="#a"/>
        <g mask="url(#c)" fill-rule="nonzero">
            <path d="M79.46 57.753c-.963.324-1.88.487-2.75.487-.865 0-1.634-.2-2.306-.6a4.229 4.229 0 0 1-1.573-1.622c-.376-.682-.564-1.459-.564-2.33 0-1.308.426-2.395 1.279-3.26.852-.865 1.881-1.298 3.087-1.298.89 0 1.833.167 2.828.502v1.383c-1.005-.458-1.904-.687-2.697-.687-.525 0-1.02.13-1.483.39-.464.26-.822.665-1.074 1.217a4.041 4.041 0 0 0-.38 1.7c0 .777.244 1.519.731 2.225.487.705 1.25 1.058 2.291 1.058.314 0 .623-.022.927-.065.304-.044.866-.205 1.685-.483v1.383zM88.794 49.37V58h-1.437v-1.893c-.463.71-.979 1.244-1.545 1.6-.567.355-1.133.533-1.7.533-.505 0-.967-.136-1.387-.406a2.14 2.14 0 0 1-.877-1.066c-.165-.44-.247-1.3-.247-2.577v-4.822h1.437v5c0 .829.04 1.376.12 1.641.08.266.226.483.44.653.214.17.444.255.692.255.504 0 1.047-.238 1.626-.714a5.772 5.772 0 0 0 1.441-1.805v-5.03h1.437zM91.924 58v-8.63h1.437v1.885c.448-.711.962-1.243 1.541-1.596a3.649 3.649 0 0 1 1.936-.53c.52 0 1.04.08 1.56.24v3.114h-1.383v-1.97a3.622 3.622 0 0 0-.571-.062c-.536 0-1.062.211-1.577.634-.515.422-1.017 1.056-1.506 1.9V58h-1.437zM103.003 58V46.735h-2.58v-1.206h4.018v11.273h2.696V58zM120.234 53.743v-1.198h5.995v1.198zM129.274 57.544v-1.522c.577.376 1.187.64 1.83.792.645.152 1.19.228 1.639.228.726 0 1.25-.117 1.568-.352.32-.234.48-.526.48-.877a.855.855 0 0 0-.225-.595c-.149-.164-.52-.368-1.112-.61l-.495-.2-.996-.395c-1.072-.417-1.747-.803-2.025-1.159-.283-.35-.425-.778-.425-1.282 0-.711.275-1.296.823-1.754.549-.459 1.439-.688 2.67-.688.922 0 1.795.134 2.619.402v1.305c-.948-.34-1.839-.51-2.673-.51-.608 0-1.083.107-1.426.321-.343.214-.514.48-.514.8 0 .309.15.556.448.742.294.185.773.399 1.437.64l.974.356c.891.325 1.517.678 1.878 1.059.36.381.54.858.54 1.43 0 .746-.287 1.36-.861 1.842-.574.482-1.493.723-2.755.723-1.102 0-2.235-.232-3.4-.696zM145.639 56.679V58h-6.475V46.008h1.56v10.67z" fill="#88F7B7"/>
            <path d="M157.661 58V45.53h1.437v5.725c.412-.665.91-1.185 1.491-1.561.583-.376 1.165-.564 1.747-.564a2.5 2.5 0 0 1 1.34.375c.405.25.687.552.846.908.13.273.217.562.263.869.046.306.07.939.07 1.897V58h-1.438v-5c0-.828-.04-1.376-.12-1.641a1.289 1.289 0 0 0-.44-.653 1.1 1.1 0 0 0-.699-.255c-.505 0-1.047.24-1.626.719a5.75 5.75 0 0 0-1.434 1.8V58h-1.437zM174.374 57.652c-.675.284-1.164.452-1.468.506a5.026 5.026 0 0 1-.881.082 3.881 3.881 0 0 1-1.654-.348 2.433 2.433 0 0 1-1.132-1.028c-.255-.453-.382-1.154-.382-2.101v-3.477H166.7v-1.198h2.156v-3.477h1.437v3.477h3.84v1.198h-3.84v3.453c0 .696.082 1.186.247 1.472.165.286.385.496.66.63.277.134.602.2.978.2.696 0 1.427-.218 2.195-.656v1.267zM183.87 57.652c-.675.284-1.165.452-1.468.506a5.026 5.026 0 0 1-.881.082 3.881 3.881 0 0 1-1.654-.348 2.433 2.433 0 0 1-1.132-1.028c-.255-.453-.382-1.154-.382-2.101v-3.477h-2.156v-1.198h2.156v-3.477h1.437v3.477h3.84v1.198h-3.84v3.453c0 .696.082 1.186.247 1.472.165.286.385.496.66.63.276.134.602.2.978.2.696 0 1.427-.218 2.195-.656v1.267zM187.478 51.309c.443-.721.97-1.265 1.584-1.63.613-.366 1.177-.55 1.692-.55.721 0 1.37.313 1.947.936s.865 1.568.865 2.835c0 1-.191 1.892-.575 2.678-.384.785-.895 1.406-1.534 1.862-.639.456-1.43.684-2.372.684-.268 0-.68-.029-1.236-.085-.083-.01-.206-.024-.371-.039v3.353h-1.437V49.37h1.437v1.94zm0 1.707v3.701c.52.134 1 .201 1.437.201.87 0 1.603-.341 2.198-1.023.595-.683.893-1.617.893-2.801 0-.86-.163-1.507-.487-1.94-.325-.432-.693-.649-1.105-.649-.448 0-.941.227-1.48.68-.538.453-1.023 1.064-1.456 1.831zM195.745 57.544v-1.522c.577.376 1.188.64 1.832.792.643.152 1.19.228 1.638.228.726 0 1.249-.117 1.568-.352.32-.234.48-.526.48-.877a.855.855 0 0 0-.225-.595c-.15-.164-.52-.368-1.113-.61l-.494-.2-.997-.395c-1.071-.417-1.746-.803-2.024-1.159-.283-.35-.425-.778-.425-1.282 0-.711.274-1.296.823-1.754.548-.459 1.438-.688 2.67-.688.921 0 1.794.134 2.619.402v1.305c-.948-.34-1.84-.51-2.674-.51-.608 0-1.083.107-1.425.321-.343.214-.514.48-.514.8 0 .309.15.556.448.742.294.185.773.399 1.437.64l.974.356c.89.325 1.517.678 1.877 1.059.36.381.541.858.541 1.43 0 .746-.287 1.36-.861 1.842-.575.482-1.493.723-2.755.723-1.102 0-2.236-.232-3.4-.696zM208.687 58.363c-.345 0-.641-.123-.888-.37a1.212 1.212 0 0 1-.371-.89c0-.35.125-.647.375-.892.25-.244.544-.367.884-.367.34 0 .635.123.885.367.25.245.375.542.375.893 0 .345-.124.641-.371.888-.247.248-.544.371-.889.371zm0-6.714c-.345 0-.641-.124-.888-.371a1.212 1.212 0 0 1-.371-.889c0-.35.125-.647.375-.892s.544-.367.884-.367c.34 0 .635.122.885.367s.375.542.375.892c0 .345-.124.642-.371.889s-.544.37-.889.37zM215.108 58.363h-1.414l7.626-12.71h1.368zM224.604 58.363h-1.414l7.626-12.71h1.368zM240.892 57.753c-.964.324-1.88.487-2.751.487-.865 0-1.634-.2-2.306-.6a4.229 4.229 0 0 1-1.573-1.622c-.376-.682-.564-1.459-.564-2.33 0-1.308.426-2.395 1.279-3.26.852-.865 1.881-1.298 3.087-1.298.89 0 1.834.167 2.828.502v1.383c-1.005-.458-1.904-.687-2.697-.687-.525 0-1.02.13-1.483.39-.464.26-.822.665-1.074 1.217a4.041 4.041 0 0 0-.379 1.7c0 .777.243 1.519.73 2.225.487.705 1.25 1.058 2.291 1.058.314 0 .623-.022.927-.065.304-.044.866-.205 1.685-.483v1.383zM245.443 58V46.735h-2.581v-1.206h4.018v11.273h2.696V58zM255.039 58v-7.433h-2.395v-1.198h3.832v7.433h2.403V58h-3.84zm-.24-11.744c0-.325.111-.567.333-.727.221-.16.43-.24.626-.24.2 0 .412.08.633.24.222.16.332.402.332.727 0 .319-.11.559-.332.718-.221.16-.433.24-.633.24-.196 0-.405-.08-.626-.24-.222-.16-.333-.399-.333-.718zM265.663 58.363c-.345 0-.641-.123-.889-.37a1.212 1.212 0 0 1-.37-.89c0-.35.124-.647.374-.892.25-.244.545-.367.885-.367.34 0 .635.123.885.367.25.245.374.542.374.893 0 .345-.123.641-.37.888-.248.248-.544.371-.889.371zM278.713 49.37V58h-1.437v-1.893c-.464.71-.979 1.244-1.545 1.6-.567.355-1.134.533-1.7.533-.505 0-.967-.136-1.387-.406a2.14 2.14 0 0 1-.877-1.066c-.165-.44-.247-1.3-.247-2.577v-4.822h1.437v5c0 .829.04 1.376.12 1.641.08.266.226.483.44.653.214.17.444.255.692.255.504 0 1.047-.238 1.626-.714a5.772 5.772 0 0 0 1.441-1.805v-5.03h1.437zM282.437 51.309c.443-.721.971-1.265 1.584-1.63.613-.366 1.177-.55 1.692-.55.722 0 1.37.313 1.948.936.576.623.865 1.568.865 2.835 0 1-.192 1.892-.576 2.678-.383.785-.895 1.406-1.533 1.862-.64.456-1.43.684-2.372.684-.268 0-.68-.029-1.237-.085-.082-.01-.206-.024-.37-.039v3.353H281V49.37h1.437v1.94zm0 1.707v3.701c.52.134 1 .201 1.438.201.87 0 1.603-.341 2.198-1.023.595-.683.892-1.617.892-2.801 0-.86-.162-1.507-.487-1.94-.324-.432-.692-.649-1.105-.649-.448 0-.94.227-1.48.68-.537.453-1.023 1.064-1.456 1.831zM291.933 51.309c.443-.721.971-1.265 1.584-1.63.613-.366 1.177-.55 1.692-.55.722 0 1.37.313 1.947.936s.866 1.568.866 2.835c0 1-.192 1.892-.576 2.678-.384.785-.895 1.406-1.533 1.862-.64.456-1.43.684-2.373.684-.267 0-.68-.029-1.236-.085-.082-.01-.206-.024-.37-.039h-1.438V45.53h1.437v5.779zm0 1.707v3.701c.52.134 1 .201 1.437.201.871 0 1.604-.341 2.199-1.023.595-.683.892-1.617.892-2.801 0-.86-.162-1.507-.487-1.94-.324-.432-.692-.649-1.105-.649-.448 0-.94.227-1.48.68-.537.453-1.023 1.064-1.456 1.831zM303.655 58.24c-1.237 0-2.226-.432-2.967-1.295-.742-.862-1.113-1.95-1.113-3.264 0-1.314.37-2.4 1.113-3.26.741-.861 1.73-1.291 2.967-1.291 1.23 0 2.217.43 2.959 1.29.742.86 1.112 1.947 1.112 3.26 0 1.314-.37 2.403-1.112 3.265-.742.863-1.728 1.295-2.96 1.295zm0-1.198c.767 0 1.377-.299 1.83-.896.454-.598.68-1.42.68-2.465 0-1.04-.226-1.86-.68-2.457-.453-.598-1.063-.896-1.83-.896-.773 0-1.386.298-1.84.896-.453.597-.68 1.416-.68 2.457 0 1.046.227 1.867.68 2.465.454.597 1.067.896 1.84.896zM316.697 49.37V58h-1.437v-1.893c-.464.71-.979 1.244-1.545 1.6-.567.355-1.134.533-1.7.533-.505 0-.967-.136-1.387-.406a2.14 2.14 0 0 1-.877-1.066c-.165-.44-.247-1.3-.247-2.577v-4.822h1.437v5c0 .829.04 1.376.12 1.641.08.266.226.483.44.653.214.17.444.255.691.255.505 0 1.047-.238 1.627-.714a5.772 5.772 0 0 0 1.44-1.805v-5.03h1.438zM319.092 58v-8.63h1.437v1.885c.412-.665.91-1.185 1.492-1.561.582-.376 1.164-.564 1.746-.564.51 0 .973.135 1.39.406.418.27.71.624.878 1.062.167.438.25 1.298.25 2.58V58h-1.437v-5c0-.828-.04-1.376-.12-1.641a1.289 1.289 0 0 0-.44-.653 1.1 1.1 0 0 0-.699-.255c-.505 0-1.047.24-1.626.719a5.75 5.75 0 0 0-1.434 1.8V58h-1.437zM334.352 56.06c-.438.722-.964 1.265-1.58 1.63-.615.367-1.18.55-1.696.55-.721 0-1.369-.312-1.943-.935-.574-.624-.862-1.569-.862-2.836 0-1 .19-1.892.572-2.677.381-.786.891-1.407 1.53-1.862.639-.456 1.43-.684 2.372-.684.273 0 .685.028 1.236.085.083.01.206.023.371.038v-3.84h1.445V58h-1.445v-1.94zm0-1.707v-3.701a5.62 5.62 0 0 0-1.422-.2c-.886 0-1.623.342-2.213 1.027-.59.685-.885 1.617-.885 2.797 0 .855.161 1.5.483 1.935.322.436.689.653 1.101.653.448 0 .943-.226 1.484-.68.54-.453 1.025-1.063 1.452-1.83zM341.63 58.363c-.345 0-.64-.123-.888-.37a1.212 1.212 0 0 1-.37-.89c0-.35.124-.647.374-.892.25-.244.545-.367.885-.367.34 0 .634.123.884.367.25.245.375.542.375.893 0 .345-.124.641-.37.888-.248.248-.544.371-.89.371zM349.998 58v-7.433h-2.395v-1.198h3.833v7.433h2.403V58h-3.84zm-.24-11.744c0-.325.112-.567.333-.727.222-.16.43-.24.626-.24.2 0 .412.08.634.24.221.16.332.402.332.727 0 .319-.11.559-.332.718-.222.16-.433.24-.634.24-.196 0-.404-.08-.626-.24-.221-.16-.332-.399-.332-.718zM360.63 58.24c-1.236 0-2.225-.432-2.967-1.295-.742-.862-1.112-1.95-1.112-3.264 0-1.314.37-2.4 1.112-3.26.742-.861 1.73-1.291 2.967-1.291 1.231 0 2.218.43 2.96 1.29.741.86 1.112 1.947 1.112 3.26 0 1.314-.37 2.403-1.113 3.265-.741.863-1.728 1.295-2.959 1.295zm0-1.198c.768 0 1.378-.299 1.831-.896.454-.598.68-1.42.68-2.465 0-1.04-.226-1.86-.68-2.457-.453-.598-1.063-.896-1.83-.896-.773 0-1.386.298-1.84.896-.453.597-.68 1.416-.68 2.457 0 1.046.227 1.867.68 2.465.454.597 1.067.896 1.84.896z" fill="#8FACFF"/>
            <path fill="#88F7B7" d="M378.989 58.363v-12.71h1.259v12.71zM395.16 57.544v-1.522c.577.376 1.188.64 1.831.792.644.152 1.19.228 1.638.228.727 0 1.25-.117 1.569-.352.32-.234.479-.526.479-.877a.855.855 0 0 0-.224-.595c-.15-.164-.52-.368-1.113-.61l-.494-.2-.997-.395c-1.071-.417-1.746-.803-2.024-1.159-.284-.35-.425-.778-.425-1.282 0-.711.274-1.296.823-1.754.548-.459 1.438-.688 2.67-.688.921 0 1.794.134 2.618.402v1.305c-.947-.34-1.838-.51-2.673-.51-.608 0-1.083.107-1.426.321-.342.214-.513.48-.513.8 0 .309.15.556.448.742.293.185.772.399 1.437.64l.974.356c.89.325 1.516.678 1.877 1.059.36.381.54.858.54 1.43 0 .746-.286 1.36-.86 1.842-.575.482-1.493.723-2.755.723-1.102 0-2.236-.232-3.4-.696zM404.556 58V45.53h1.437v5.725c.412-.665.909-1.185 1.491-1.561.582-.376 1.164-.564 1.746-.564a2.5 2.5 0 0 1 1.34.375c.405.25.687.552.847.908.129.273.216.562.263.869.046.306.07.939.07 1.897V58h-1.438v-5c0-.828-.04-1.376-.12-1.641a1.289 1.289 0 0 0-.44-.653 1.1 1.1 0 0 0-.7-.255c-.504 0-1.046.24-1.626.719a5.75 5.75 0 0 0-1.433 1.8V58h-1.437z"/>
        </g>
        <path d="M35 111H7a7 7 0 0 1-7-7V7a7 7 0 0 1 7-7h28v111z" fill="#090C2A"/>
        <path d="M12.5 77.5v-47a5 5 0 0 1 10 0v47a5 5 0 0 1-10 0z" fill="#3F4E97"/>
    </g>
</svg>
