<svg width="545" height="228" viewBox="0 0 545 228" xmlns="http://www.w3.org/2000/svg" xmlns:xlink="http://www.w3.org/1999/xlink">
    <defs>
        <filter x="-8.6%" y="-29.3%" width="117.2%" height="176.6%" filterUnits="objectBoundingBox" id="b">
            <feOffset dy="10" in="SourceAlpha" result="shadowOffsetOuter1"/>
            <feGaussianBlur stdDeviation="12.5" in="shadowOffsetOuter1" result="shadowBlurOuter1"/>
            <feColorMatrix values="0 0 0 0 0.192156863 0 0 0 0 0.250980392 0 0 0 0 0.466666667 0 0 0 0.365903628 0" in="shadowBlurOuter1"/>
        </filter>
        <rect id="a" x="0" y="0" width="495" height="111" rx="7"/>
    </defs>
    <g fill="none" fill-rule="evenodd">
        <g transform="translate(25 82)">
            <use fill="#000" filter="url(#b)" xlink:href="#a"/>
            <use fill="#111A3D" xlink:href="#a"/>
        </g>
        <text font-family="Monaco" font-size="15.824" fill="#88F7B7" transform="translate(25 82)">
                        <tspan x="71" y="58">up uxp install</tspan>
                    </text>
        <path d="M60 193H32a7 7 0 0 1-7-7V89a7 7 0 0 1 7-7h28v111z" fill="#090C2A"/>
        <path d="M37.5 159.5v-47a5 5 0 0 1 10 0v47a5 5 0 0 1-10 0z" fill="#3F4E97"/>
        <g opacity=".277" transform="translate(176)" fill="#6C72FC">
            <circle cx="77.5" cy="2.5" r="2.5"/>
            <circle cx="77.5" cy="17.5" r="2.5"/>
            <circle cx="77.5" cy="32.5" r="2.5"/>
            <circle cx="77.5" cy="47.5" r="2.5"/>
            <circle cx="77.5" cy="62.5" r="2.5"/>
            <circle cx="107.5" cy="2.5" r="2.5"/>
            <circle cx="107.5" cy="17.5" r="2.5"/>
            <circle cx="107.5" cy="32.5" r="2.5"/>
            <circle cx="107.5" cy="47.5" r="2.5"/>
            <circle cx="107.5" cy="62.5" r="2.5"/>
            <circle cx="137.5" cy="2.5" r="2.5"/>
            <circle cx="137.5" cy="17.5" r="2.5"/>
            <circle cx="137.5" cy="32.5" r="2.5"/>
            <circle cx="137.5" cy="47.5" r="2.5"/>
            <circle cx="137.5" cy="62.5" r="2.5"/>
            <circle cx="92.5" cy="2.5" r="2.5"/>
            <circle cx="92.5" cy="17.5" r="2.5"/>
            <circle cx="92.5" cy="32.5" r="2.5"/>
            <circle cx="92.5" cy="47.5" r="2.5"/>
            <circle cx="92.5" cy="62.5" r="2.5"/>
            <circle cx="122.5" cy="2.5" r="2.5"/>
            <circle cx="122.5" cy="17.5" r="2.5"/>
            <circle cx="122.5" cy="32.5" r="2.5"/>
            <circle cx="122.5" cy="47.5" r="2.5"/>
            <circle cx="122.5" cy="62.5" r="2.5"/>
            <circle cx="152.5" cy="2.5" r="2.5"/>
            <circle cx="152.5" cy="17.5" r="2.5"/>
            <circle cx="152.5" cy="32.5" r="2.5"/>
            <circle cx="152.5" cy="47.5" r="2.5"/>
            <circle cx="152.5" cy="62.5" r="2.5"/>
            <circle cx="182.5" cy="2.5" r="2.5"/>
            <circle cx="182.5" cy="17.5" r="2.5"/>
            <circle cx="182.5" cy="32.5" r="2.5"/>
            <circle cx="182.5" cy="47.5" r="2.5"/>
            <circle cx="182.5" cy="62.5" r="2.5"/>
            <circle cx="212.5" cy="2.5" r="2.5"/>
            <circle cx="212.5" cy="17.5" r="2.5"/>
            <circle cx="212.5" cy="32.5" r="2.5"/>
            <circle cx="212.5" cy="47.5" r="2.5"/>
            <circle cx="212.5" cy="62.5" r="2.5"/>
            <circle cx="167.5" cy="2.5" r="2.5"/>
            <circle cx="167.5" cy="17.5" r="2.5"/>
            <circle cx="167.5" cy="32.5" r="2.5"/>
            <circle cx="167.5" cy="47.5" r="2.5"/>
            <circle cx="167.5" cy="62.5" r="2.5"/>
            <circle cx="197.5" cy="2.5" r="2.5"/>
            <circle cx="197.5" cy="17.5" r="2.5"/>
            <circle cx="197.5" cy="32.5" r="2.5"/>
            <circle cx="197.5" cy="47.5" r="2.5"/>
            <circle cx="197.5" cy="62.5" r="2.5"/>
            <circle cx="2.5" cy="2.5" r="2.5"/>
            <circle cx="2.5" cy="17.5" r="2.5"/>
            <circle cx="2.5" cy="32.5" r="2.5"/>
            <circle cx="2.5" cy="47.5" r="2.5"/>
            <circle cx="2.5" cy="62.5" r="2.5"/>
            <circle cx="32.5" cy="2.5" r="2.5"/>
            <circle cx="32.5" cy="17.5" r="2.5"/>
            <circle cx="32.5" cy="32.5" r="2.5"/>
            <circle cx="32.5" cy="47.5" r="2.5"/>
            <circle cx="32.5" cy="62.5" r="2.5"/>
            <circle cx="62.5" cy="2.5" r="2.5"/>
            <circle cx="62.5" cy="17.5" r="2.5"/>
            <circle cx="62.5" cy="32.5" r="2.5"/>
            <circle cx="62.5" cy="47.5" r="2.5"/>
            <circle cx="62.5" cy="62.5" r="2.5"/>
            <circle cx="17.5" cy="2.5" r="2.5"/>
            <circle cx="17.5" cy="17.5" r="2.5"/>
            <circle cx="17.5" cy="32.5" r="2.5"/>
            <circle cx="17.5" cy="47.5" r="2.5"/>
            <circle cx="17.5" cy="62.5" r="2.5"/>
            <circle cx="47.5" cy="2.5" r="2.5"/>
            <circle cx="47.5" cy="17.5" r="2.5"/>
            <circle cx="47.5" cy="32.5" r="2.5"/>
            <circle cx="47.5" cy="47.5" r="2.5"/>
            <circle cx="47.5" cy="62.5" r="2.5"/>
        </g>
    </g>
</svg>
