<svg width="269" height="68" viewBox="0 0 269 68" xmlns="http://www.w3.org/2000/svg" xmlns:xlink="http://www.w3.org/1999/xlink">
    <defs>
        <filter x="-3.3%" y="-11.2%" width="106.6%" height="129.3%" filterUnits="objectBoundingBox" id="b">
            <feOffset dy="2" in="SourceAlpha" result="shadowOffsetOuter1"/>
            <feGaussianBlur stdDeviation="2.5" in="shadowOffsetOuter1" result="shadowBlurOuter1"/>
            <feColorMatrix values="0 0 0 0 0.192156863 0 0 0 0 0.250980392 0 0 0 0 0.466666667 0 0 0 0.365903628 0" in="shadowBlurOuter1"/>
        </filter>
        <rect id="a" x="0" y="0" width="259" height="58" rx="3.658"/>
    </defs>
    <g transform="translate(5 3)" fill="none" fill-rule="evenodd">
        <mask id="c" fill="#fff">
            <use xlink:href="#a"/>
        </mask>
        <use fill="#000" filter="url(#b)" xlink:href="#a"/>
        <use fill="#111A3D" xlink:href="#a"/>
        <g mask="url(#c)" fill-rule="nonzero">
            <path d="M41.57 29.817c-.503.17-.982.254-1.437.254-.452 0-.854-.104-1.205-.313a2.21 2.21 0 0 1-.822-.848 2.48 2.48 0 0 1-.294-1.217c0-.684.222-1.251.668-1.704a2.181 2.181 0 0 1 1.613-.678c.465 0 .958.088 1.477.263v.722c-.525-.24-.994-.36-1.409-.36a1.56 1.56 0 0 0-.775.205 1.34 1.34 0 0 0-.561.636 2.016 2.016 0 0 0 .184 2.05c.254.37.653.554 1.197.554.164 0 .325-.012.484-.035.159-.022.452-.107.88-.252v.723zM46.447 25.436v4.51h-.75v-.99c-.243.372-.512.65-.808.837a1.66 1.66 0 0 1-.888.278c-.264 0-.506-.07-.725-.212a1.118 1.118 0 0 1-.458-.557c-.086-.23-.13-.679-.13-1.346v-2.52h.752v2.612c0 .434.02.72.062.858a.674.674 0 0 0 .23.341.57.57 0 0 0 .362.134c.263 0 .547-.125.85-.374.302-.249.553-.563.752-.942v-2.629h.751zM48.083 29.946v-4.51h.75v.985c.235-.371.503-.649.806-.833.303-.185.64-.277 1.011-.277.272 0 .544.042.816.125v1.627h-.723v-1.03a1.892 1.892 0 0 0-.299-.031c-.28 0-.554.11-.823.33-.27.221-.532.552-.788.994v2.62h-.75zM53.872 29.946V24.06h-1.348v-.63h2.099v5.89h1.409v.626zM62.875 27.721v-.625h3.133v.625zM67.599 29.708v-.796c.301.197.62.335.957.414.336.08.621.12.856.12.38 0 .652-.062.82-.184.166-.123.25-.276.25-.459a.447.447 0 0 0-.118-.31c-.078-.087-.271-.193-.581-.32l-.258-.104-.521-.206c-.56-.218-.913-.42-1.058-.606a1.032 1.032 0 0 1-.222-.67c0-.372.143-.677.43-.917.287-.24.752-.359 1.395-.359a4.4 4.4 0 0 1 1.368.21v.682a4.147 4.147 0 0 0-1.396-.266c-.318 0-.566.056-.745.167-.18.112-.269.251-.269.418 0 .162.078.291.234.388.154.097.404.208.751.335l.509.186c.466.17.793.354.981.553.189.199.283.448.283.747 0 .39-.15.711-.45.963-.3.251-.78.377-1.44.377a4.785 4.785 0 0 1-1.776-.363zM76.15 29.256v.69h-3.383V23.68h.815v5.576z" fill="#88F7B7"/>
            <path d="M82.432 29.946V23.43h.75v2.991c.216-.347.476-.619.78-.815.304-.197.608-.295.912-.295.256 0 .49.065.7.196.212.13.36.289.443.474.067.143.113.294.137.455.025.16.037.49.037.99v2.52h-.751v-2.612c0-.434-.021-.72-.063-.858a.674.674 0 0 0-.23-.341.575.575 0 0 0-.365-.133c-.264 0-.547.125-.85.375-.303.25-.553.564-.75.94v2.629h-.75zM91.165 29.764c-.353.148-.609.236-.768.265a2.626 2.626 0 0 1-.46.042c-.315 0-.603-.06-.864-.182a1.271 1.271 0 0 1-.591-.537c-.133-.236-.2-.602-.2-1.098v-1.816h-1.126v-.626h1.126v-1.817h.75v1.817h2.007v.626h-2.006v1.804c0 .364.043.62.13.77.085.149.2.258.344.328.144.07.314.105.511.105.363 0 .746-.114 1.147-.343v.662zM96.126 29.764c-.352.148-.608.236-.767.265a2.626 2.626 0 0 1-.46.042c-.315 0-.603-.06-.864-.182a1.271 1.271 0 0 1-.591-.537c-.134-.236-.2-.602-.2-1.098v-1.816h-1.127v-.626h1.127v-1.817h.75v1.817h2.007v.626h-2.006v1.804c0 .364.043.62.129.77.086.149.201.258.345.328.144.07.314.105.51.105.364 0 .746-.114 1.147-.343v.662zM98.012 26.45c.231-.377.507-.661.827-.852.32-.191.615-.287.885-.287.376 0 .716.163 1.017.489.302.325.452.82.452 1.481 0 .522-.1.989-.3 1.4-.201.41-.468.734-.802.972s-.747.358-1.24.358c-.14 0-.355-.015-.645-.045a6.895 6.895 0 0 0-.194-.02v1.752h-.751v-6.262h.75v1.014zm0 .892v1.934c.272.07.522.105.75.105.456 0 .839-.179 1.15-.535.31-.357.466-.845.466-1.464 0-.45-.085-.787-.255-1.013-.17-.226-.362-.34-.577-.34-.234 0-.492.12-.773.356a3.443 3.443 0 0 0-.761.957zM102.332 29.708v-.796c.301.197.62.335.957.414.336.08.621.12.856.12.379 0 .652-.062.82-.184.166-.123.25-.276.25-.459a.447.447 0 0 0-.118-.31c-.078-.087-.272-.193-.581-.32l-.258-.104-.521-.206c-.56-.218-.913-.42-1.058-.606a1.032 1.032 0 0 1-.222-.67c0-.372.143-.677.43-.917.287-.24.751-.359 1.395-.359a4.4 4.4 0 0 1 1.368.21v.682a4.147 4.147 0 0 0-1.396-.266c-.318 0-.566.056-.745.167-.18.112-.269.251-.269.418 0 .162.078.291.234.388.154.097.404.208.751.335l.509.186c.466.17.793.354.981.553.188.199.283.448.283.747 0 .39-.15.711-.45.963-.3.251-.78.377-1.44.377a4.785 4.785 0 0 1-1.776-.363zM109.094 30.136a.633.633 0 0 1-.464-.194.633.633 0 0 1-.194-.464c0-.183.065-.339.196-.467a.639.639 0 0 1 .462-.191c.178 0 .332.063.463.191.13.128.195.284.195.467 0 .18-.064.335-.193.464a.633.633 0 0 1-.465.194zm0-3.509a.633.633 0 0 1-.464-.194.633.633 0 0 1-.194-.464c0-.183.065-.338.196-.466a.639.639 0 0 1 .462-.192c.178 0 .332.064.463.192.13.128.195.283.195.466 0 .18-.064.335-.193.464a.633.633 0 0 1-.465.194zM112.45 30.136h-.74l3.985-6.642h.715zM117.411 30.136h-.739l3.985-6.642h.715zM125.922 29.817c-.504.17-.983.254-1.438.254-.452 0-.853-.104-1.205-.313a2.21 2.21 0 0 1-.821-.848 2.48 2.48 0 0 1-.295-1.217c0-.684.223-1.251.668-1.704a2.181 2.181 0 0 1 1.613-.678c.466 0 .958.088 1.478.263v.722c-.525-.24-.995-.36-1.41-.36a1.56 1.56 0 0 0-.774.205 1.34 1.34 0 0 0-.562.636 2.016 2.016 0 0 0 .184 2.05c.254.37.653.554 1.197.554.164 0 .326-.012.485-.035.158-.022.452-.107.88-.252v.723zM128.3 29.946V24.06h-1.349v-.63h2.1v5.89h1.409v.626zM133.314 29.946v-3.884h-1.252v-.626h2.003v3.884h1.256v.626h-2.007zm-.125-6.137c0-.17.058-.296.173-.38a.568.568 0 0 1 .327-.124c.105 0 .216.041.332.125.115.083.173.21.173.38 0 .166-.058.291-.173.375a.573.573 0 0 1-.332.125.568.568 0 0 1-.327-.125c-.115-.084-.173-.209-.173-.376zM138.865 30.136a.633.633 0 0 1-.464-.194.633.633 0 0 1-.194-.464c0-.183.065-.339.196-.467a.639.639 0 0 1 .462-.191c.178 0 .332.063.463.191.13.128.195.284.195.467 0 .18-.064.335-.193.464a.633.633 0 0 1-.465.194zM145.684 25.436v4.51h-.75v-.99c-.243.372-.512.65-.808.837a1.66 1.66 0 0 1-.888.278c-.264 0-.506-.07-.725-.212a1.118 1.118 0 0 1-.458-.557c-.086-.23-.13-.679-.13-1.346v-2.52h.752v2.612c0 .434.02.72.062.858a.674.674 0 0 0 .23.341.57.57 0 0 0 .362.134c.263 0 .547-.125.85-.374.302-.249.553-.563.752-.942v-2.629h.751zM147.63 26.45c.232-.377.508-.661.828-.852.32-.191.615-.287.884-.287.377 0 .716.163 1.018.489.301.325.452.82.452 1.481 0 .522-.1.989-.301 1.4-.2.41-.468.734-.801.972-.334.238-.747.358-1.24.358-.14 0-.355-.015-.646-.045a6.895 6.895 0 0 0-.194-.02v1.752h-.75v-6.262h.75v1.014zm0 .892v1.934c.272.07.522.105.751.105.455 0 .838-.179 1.149-.535.31-.357.466-.845.466-1.464 0-.45-.085-.787-.254-1.013-.17-.226-.362-.34-.578-.34-.234 0-.491.12-.773.356a3.443 3.443 0 0 0-.76.957zM152.592 26.45c.232-.377.507-.661.828-.852.32-.191.615-.287.884-.287.377 0 .716.163 1.017.489.302.325.453.82.453 1.481 0 .522-.1.989-.301 1.4-.2.41-.468.734-.802.972-.333.238-.747.358-1.24.358-.14 0-.354-.015-.645-.045a6.896 6.896 0 0 0-.194-.02h-.75V23.43h.75v3.02zm0 .892v1.934c.272.07.522.105.751.105.455 0 .838-.179 1.149-.535.31-.357.466-.845.466-1.464 0-.45-.085-.787-.254-1.013-.17-.226-.362-.34-.578-.34-.234 0-.492.12-.773.356a3.443 3.443 0 0 0-.76.957zM158.717 30.071c-.646 0-1.163-.225-1.55-.676-.388-.451-.582-1.02-.582-1.706 0-.686.194-1.254.581-1.704.388-.45.905-.674 1.55-.674.644 0 1.16.225 1.547.674.388.45.581 1.018.581 1.704 0 .686-.193 1.255-.581 1.706-.388.45-.903.676-1.546.676zm0-.626c.4 0 .72-.156.957-.468.236-.312.355-.742.355-1.288 0-.544-.119-.972-.355-1.284a1.139 1.139 0 0 0-.957-.468c-.404 0-.724.156-.961.468-.237.312-.355.74-.355 1.284 0 .546.118.976.355 1.288.237.312.557.468.96.468zM165.532 25.436v4.51h-.751v-.99c-.242.372-.512.65-.808.837a1.66 1.66 0 0 1-.888.278c-.264 0-.505-.07-.725-.212a1.118 1.118 0 0 1-.458-.557c-.086-.23-.129-.679-.129-1.346v-2.52h.75v2.612c0 .434.022.72.063.858a.674.674 0 0 0 .23.341.57.57 0 0 0 .362.134c.264 0 .547-.125.85-.374.303-.249.554-.563.753-.942v-2.629h.75zM166.783 29.946v-4.51h.751v.985c.216-.347.475-.619.78-.815.304-.197.608-.295.912-.295.266 0 .509.07.727.212.218.141.37.326.458.555.087.229.131.678.131 1.349v2.519h-.751v-2.612c0-.434-.02-.72-.063-.858a.674.674 0 0 0-.23-.341.575.575 0 0 0-.365-.133c-.264 0-.547.125-.85.375-.303.25-.552.564-.749.94v2.629h-.75zM174.757 28.933c-.229.376-.504.66-.826.851-.321.192-.617.287-.886.287-.377 0-.715-.163-1.015-.488-.3-.326-.45-.82-.45-1.482 0-.522.1-.989.298-1.399.2-.41.466-.735.8-.973.333-.238.747-.357 1.24-.357.142 0 .357.014.645.044l.194.02V23.43h.755v6.516h-.755v-1.013zm0-.893v-1.934a2.936 2.936 0 0 0-.743-.104c-.463 0-.848.178-1.157.536-.308.358-.462.846-.462 1.462 0 .447.084.784.252 1.011.169.228.36.341.576.341.234 0 .492-.118.775-.355.283-.237.536-.556.759-.957zM178.56 30.136a.633.633 0 0 1-.464-.194.633.633 0 0 1-.194-.464c0-.183.065-.339.196-.467a.639.639 0 0 1 .462-.191c.178 0 .332.063.462.191s.196.284.196.467c0 .18-.064.335-.194.464a.633.633 0 0 1-.464.194zM182.932 29.946v-3.884h-1.251v-.626h2.002v3.884h1.256v.626h-2.007zm-.125-6.137c0-.17.058-.296.174-.38a.568.568 0 0 1 .327-.124c.105 0 .215.041.331.125.116.083.174.21.174.38 0 .166-.058.291-.174.375a.573.573 0 0 1-.331.125.568.568 0 0 1-.327-.125c-.116-.084-.174-.209-.174-.376zM188.488 30.071c-.646 0-1.163-.225-1.55-.676-.388-.451-.582-1.02-.582-1.706 0-.686.194-1.254.581-1.704.388-.45.905-.674 1.55-.674.644 0 1.16.225 1.547.674.388.45.581 1.018.581 1.704 0 .686-.193 1.255-.58 1.706-.388.45-.904.676-1.547.676zm0-.626c.4 0 .72-.156.957-.468.236-.312.355-.742.355-1.288 0-.544-.119-.972-.355-1.284a1.139 1.139 0 0 0-.957-.468c-.404 0-.724.156-.961.468-.237.312-.355.74-.355 1.284 0 .546.118.976.355 1.288.237.312.557.468.96.468z" fill="#8FACFF"/>
            <path fill="#88F7B7" d="M198.08 30.136v-6.642h.659v6.642zM206.53 29.708v-.796c.302.197.62.335.957.414.337.08.622.12.856.12.38 0 .653-.062.82-.184.167-.123.25-.276.25-.459a.447.447 0 0 0-.117-.31c-.078-.087-.272-.193-.581-.32l-.259-.104-.52-.206c-.56-.218-.913-.42-1.058-.606a1.032 1.032 0 0 1-.222-.67c0-.372.143-.677.43-.917.286-.24.751-.359 1.395-.359a4.4 4.4 0 0 1 1.368.21v.682a4.147 4.147 0 0 0-1.397-.266c-.317 0-.566.056-.745.167-.179.112-.268.251-.268.418 0 .162.078.291.234.388.153.097.404.208.751.335l.509.186c.465.17.792.354.98.553.19.199.283.448.283.747 0 .39-.15.711-.45.963-.3.251-.78.377-1.44.377a4.785 4.785 0 0 1-1.775-.363zM211.44 29.946V23.43h.75v2.991c.216-.347.476-.619.78-.815.304-.197.608-.295.912-.295.256 0 .49.065.7.196.212.13.36.289.443.474.067.143.113.294.137.455.024.16.037.49.037.99v2.52h-.751v-2.612c0-.434-.021-.72-.063-.858a.674.674 0 0 0-.23-.341.575.575 0 0 0-.365-.133c-.264 0-.547.125-.85.375-.303.25-.553.564-.75.94v2.629h-.75z"/>
        </g>
        <path d="M18.313 58H4a4 4 0 0 1-4-4V4a4 4 0 0 1 4-4h14.313v58z" fill="#090C2A"/>
        <path d="M6.54 40.492V15.94a2.616 2.616 0 0 1 5.233 0v24.552a2.616 2.616 0 1 1-5.233 0z" fill="#3F4E97"/>
    </g>
</svg>
