<svg width="272" height="148" viewBox="0 0 272 148" xmlns="http://www.w3.org/2000/svg" xmlns:xlink="http://www.w3.org/1999/xlink">
    <defs>
        <path id="d" d="M0 0h4.177v5.515H0z"/>
        <path id="f" d="M0 0h1.673v1.674H0z"/>
        <filter x="-5.9%" y="-7.7%" width="111.9%" height="123.1%" filterUnits="objectBoundingBox" id="b">
            <feMorphology radius=".5" operator="dilate" in="SourceAlpha" result="shadowSpreadOuter1"/>
            <feOffset dy="5" in="shadowSpreadOuter1" result="shadowOffsetOuter1"/>
            <feGaussianBlur stdDeviation="4" in="shadowOffsetOuter1" result="shadowBlurOuter1"/>
            <feComposite in="shadowBlurOuter1" in2="SourceAlpha" operator="out" result="shadowBlurOuter1"/>
            <feColorMatrix values="0 0 0 0 0.0666666667 0 0 0 0 0.101960784 0 0 0 0 0.239215686 0 0 0 0.126830201 0" in="shadowBlurOuter1"/>
        </filter>
        <rect id="a" x="0" y="0" width="252.385" height="130" rx="5.129"/>
    </defs>
    <g fill="none" fill-rule="evenodd">
        <g transform="translate(9 4)">
            <mask id="c" fill="#fff">
                <use xlink:href="#a"/>
            </mask>
            <use fill="#000" filter="url(#b)" xlink:href="#a"/>
            <rect stroke="#D2DCEA" stroke-width=".5" fill="#FFF" x="-.25" y="-.25" width="252.885" height="130.5" rx="5.129"/>
            <g mask="url(#c)">
                <path fill="#263B67" d="M0 0h27.07v514.08H0z"/>
                <path fill="#DCE0E6" d="M27.07 0h-.246v514.08h.246z"/>
                <text font-family="Avenir-Roman, Avenir" font-size="3.419" fill="#505A72" transform="translate(2.137 35.904)">
                                    <tspan x=".213" y="12.579">Control Planes</tspan>
                                </text>
                <g stroke="#FFF" stroke-linecap="round" stroke-linejoin="round" stroke-width=".57">
                    <path d="m13.452 36.189-3.051 1.335 3.051 1.335 3.052-1.335zM10.4 41.033l3.052 1.335 3.052-1.335M10.4 39.323l3.052 1.335 3.052-1.335"/>
                </g>
                <text font-family="Avenir-Roman, Avenir" font-size="3.419" fill="#505A72" transform="translate(2.137 58.415)">
                                    <tspan x="4.395" y="12.579">Consoles</tspan>
                                </text>
                <g transform="translate(10.116 58.415)" stroke="#A6AEC1" stroke-linecap="round" stroke-linejoin="round" stroke-width=".57">
                    <rect x=".427" y=".427" width="5.984" height="5.984" rx=".57"/>
                    <path d="M.427 2.565h5.984M2.565 6.411V2.565"/>
                </g>
                <text font-family="Avenir-Roman, Avenir" font-size="3.419" fill="#505A72" transform="translate(2.137 80.926)">
                                    <tspan x="1.895" y="12.579">Repositories</tspan>
                                </text>
                <g stroke="#A6AEC1" stroke-width=".57">
                    <path d="M11.825 85.628H16.1v1.71h-4.275a.855.855 0 0 1 0-1.71z"/>
                    <path d="M11.772 81.353H16.1v5.984h-4.328c-.443 0-.801-.334-.801-.748v-4.488c0-.413.358-.748.801-.748z" stroke-linecap="round" stroke-linejoin="round"/>
                </g>
                <g>
                    <text font-family="Avenir-Roman, Avenir" font-size="3.419" fill="#505A72" transform="translate(2.137 103.437)">
                                    <tspan x="4.684" y="12.579">All Users</tspan>
                                </text>
                    <g transform="translate(10.4 104.007)" stroke="#A6AEC1" stroke-linecap="round" stroke-linejoin="round" stroke-width=".57">
                        <path d="M4.145 5.803V4.715a1.036 1.036 0 0 0-1.036-1.037H1.036C.464 3.678 0 4.142 0 4.715v1.088M6.269 5.803V4.715c0-.473-.32-.885-.777-1.003"/>
                        <circle cx="2.092" cy="1.295" r="1.295"/>
                        <path d="M4.643.042a1.295 1.295 0 0 1 0 2.51"/>
                    </g>
                </g>
                <g>
                    <text font-family="Avenir-Roman, Avenir" font-size="3.419" fill="#505A72" transform="translate(2.137 125.948)">
                                    <tspan x="6.584" y="12.579">Teams</tspan>
                                </text>
                    <g stroke="#A6AEC1" stroke-linecap="round" stroke-linejoin="round" stroke-width=".57">
                        <path d="M13.583 126.518a2.897 2.897 0 1 1 0 5.794 2.897 2.897 0 0 1 0-5.794z"/>
                        <path d="M15.31 127.373a2.842 2.842 0 0 0-.92 2.097c0 .807.335 1.535.873 2.053M11.88 131.425a2.84 2.84 0 0 0 .819-2c0-.805-.335-1.534-.874-2.052"/>
                    </g>
                </g>
                <g transform="translate(6.02 8.549)">
                    <rect fill="#6553C0" width="15.957" height="15.957" rx="2.85"/>
                    <path d="m7.86 7.17-.015 1.552c0 1.492-1.437 1.795-1.937 1.795-1.04 0-1.918-.634-1.918-1.795v-1.64c0-.364.21-.581.549-.581.346 0 .556.217.556.58v1.516c0 .59.297.911.813.911.549 0 .848-.274.848-.91V7.17c0-.363.21-.58.556-.58.34 0 .549.217.549.58" fill="#FFF"/>
                    <g transform="translate(8.619 6.453)">
                        <mask id="e" fill="#fff">
                            <use xlink:href="#d"/>
                        </mask>
                        <path d="M3.048 2.032c0-.613-.395-1.024-.96-1.024-.572 0-.984.427-.984 1.024s.412 1.024.984 1.024c.565 0 .96-.42.96-1.024m1.129 0c0 1.234-.742 2.032-1.863 2.032-.508 0-.92-.177-1.193-.484h-.017v1.347c0 .363-.21.589-.556.589C.21 5.516 0 5.29 0 4.926V.63c0-.363.21-.58.548-.58.298 0 .5.16.548.443h.016C1.387.177 1.798 0 2.314 0c1.12 0 1.863.798 1.863 2.032" fill="#FFF" mask="url(#e)"/>
                    </g>
                    <g transform="translate(3.704 3.99)">
                        <mask id="g" fill="#fff">
                            <use xlink:href="#f"/>
                        </mask>
                        <path d="M1.673.837A.837.837 0 1 1 0 .837a.837.837 0 0 1 1.673 0" fill="#FFF" mask="url(#g)"/>
                    </g>
                </g>
            </g>
        </g>
        <rect x=".25" y=".25" width="190.824" height="44.695" rx="1.425" fill="#FFF" stroke="#DCDCDE" stroke-width=".5" transform="translate(53.778 55.29)"/>
        <g font-family="Avenir-Roman, Avenir">
            <text font-size="5.699" fill="#505A72" transform="translate(64.972 64.448)">
                                <tspan x="0" y="14.549">UXP Instance</tspan>
                            </text>
            <text font-size="4.987" fill="#929394" transform="translate(64.972 64.448)">
                                <tspan x="0" y="5">Name</tspan>
                            </text>
        </g>
        <g font-family="Avenir-Roman, Avenir">
            <text font-size="5.699" fill="#505A72" transform="translate(164.705 64.957)">
                                <tspan x="0" y="14.65">Self-Hosted UXP</tspan>
                            </text>
            <text font-size="4.987" fill="#929394" transform="translate(164.705 64.957)">
                                <tspan x="0" y="5">Type</tspan>
                            </text>
        </g>
        <text font-family="Avenir-Roman, Avenir" font-size="4.787" fill="#929394" transform="translate(124.507 64.957)">
                                <tspan x="0" y="5">Status</tspan>
                            </text>
        <text font-family="Avenir-Roman, Avenir" font-size="5.471" fill="#505A72" transform="translate(124.507 73.252)">
                                    <tspan x="8" y="5">Health</tspan>
                                    <tspan x="8" y="13.549">y</tspan>
                                </text>
        <path d="M126.007 75.542a1.5 1.5 0 0 1 1.5 1.5v.42a1.5 1.5 0 1 1-3 0v-.42a1.5 1.5 0 0 1 1.5-1.5z" fill="#3DC47E"/>
        <g stroke="#929394" stroke-linecap="round" stroke-linejoin="round" stroke-width=".855">
            <g transform="translate(219.711 72.938)">
                <circle cx="4.488" cy=".898" r="1"/>
                <circle cx="8.078" cy=".898" r="1"/>
                <circle cx=".898" cy=".898" r="1"/>
            </g>
        </g>
        <g>
            <text font-family="Avenir-Black, Avenir" font-size="9.617" font-weight="700" fill="#505A72" transform="translate(52.76 29.767)">
                            <tspan x="0" y="10">Control Planes</tspan>
                        </text>
            <g transform="translate(173.76 29.767)">
                <rect fill="#6553C0" width="70" height="13" rx="6.5"/>
                <text font-family="Avenir-Roman, Avenir" font-size="5.386" fill="#FFF">
                                <tspan x="10.147" y="8">Create Control Plane</tspan>
                            </text>
            </g>
        </g>
        <g transform="translate(107 90)">
            <rect stroke="#2FD3BC" stroke-width=".5" fill="#2FD3BC" width="164" height="27" rx="13.5"/>
            <text font-family="AvenirNext-DemiBold, Avenir Next" font-size="9.415" font-weight="500" fill="#FFF">
                        <tspan x="14.509" y="15.871">UXP Successfully Connected</tspan>
                    </text>
            <path d="M141.088 6.557h14.135v14.087h-14.135z"/>
            <path stroke="#FFF" stroke-width="1.224" stroke-linecap="round" stroke-linejoin="round" d="m144.161 13.906 2.868 3.063 5.736-6.125"/>
        </g>
    </g>
</svg>
