<?xml version="1.0" encoding="utf-8"?>
<!-- Generator: Adobe Illustrator 25.2.1, SVG Export Plug-In . SVG Version: 6.00 Build 0)  -->
<svg version="1.1" id="Layer_1" xmlns="http://www.w3.org/2000/svg" xmlns:xlink="http://www.w3.org/1999/xlink" x="0px" y="0px"
	 viewBox="0 0 64.2 64.6" style="enable-background:new 0 0 64.2 64.6;" xml:space="preserve">
<style type="text/css">
	.st0{opacity:0.2;fill:#2DE5C9;}
	.st1{fill:none;}
	.st2{fill:#3B5AFB;}
	.st3{fill:#44D5E9;}
	.st4{fill-rule:evenodd;clip-rule:evenodd;fill:#44D5E9;}
</style>
<path class="st0" d="M49.3,63H14.8C7.4,63,1.4,57,1.4,49.6V15c0-7.4,6-13.5,13.5-13.5h34.5c7.4,0,13.5,6,13.5,13.5v34.5
	C62.8,57,56.8,63,49.3,63z"/>
<g id="Page-1_3_">
	<g id="Fitness-Solid-Color" transform="translate(-77.000000, -29.000000)">
		<g id="iconspace_Dumbell_25px" transform="translate(75.000000, 25.000000)">
			<polygon id="Path_15_" class="st1" points="11.1,13.3 57.1,13.3 57.1,59.3 11.1,59.3 			"/>
			<path id="Path_14_" class="st2" d="M46.1,37.2c4.1,0,7.4,3.3,7.4,7.4S50.1,52,46.1,52c-2.7,0-5.1-1.4-6.4-3.7H28.5
				c-1.3,2.3-3.7,3.7-6.4,3.7c-4.1,0-7.4-3.3-7.4-7.4s3.3-7.4,7.4-7.4c2.7,0,5.1,1.4,6.4,3.7h11.2C41,38.7,43.4,37.2,46.1,37.2z"/>
			<path id="Path_13_" class="st3" d="M29,39.1c-1.7-2-4.2-3.2-6.9-3.2c-2.6,0-4.9,1.1-6.6,2.8c-0.2-0.5-0.4-1-0.6-1.5
				c-1.1-4.2,1.3-8.5,5.3-9.6c2.6-0.7,5.4,0.1,7.3,2l11.1-3.1c0.7-2.7,2.7-4.8,5.3-5.6c4-1.1,8.1,1.4,9.2,5.6
				c1.1,4.2-1.3,8.4-5.2,9.6c-0.6-0.1-1.3-0.2-1.9-0.2c-0.7,0-1.4,0.1-2.1,0.2c-1.3-0.4-2.5-1.1-3.4-2.1l-11.1,3.1
				C29.4,37.9,29.2,38.5,29,39.1z"/>
		</g>
	</g>
</g>
</svg>
