<?xml version="1.0" encoding="utf-8"?>
<!-- Generator: Adobe Illustrator 25.2.1, SVG Export Plug-In . SVG Version: 6.00 Build 0)  -->
<svg version="1.1" id="Layer_1" xmlns="http://www.w3.org/2000/svg" xmlns:xlink="http://www.w3.org/1999/xlink" x="0px" y="0px"
	 viewBox="0 0 64.2 64.6" style="enable-background:new 0 0 64.2 64.6;" xml:space="preserve">
<style type="text/css">
	.st0{opacity:0.2;fill:#2DE5C9;}
	.st1{fill:none;}
	.st2{fill:#3B5AFB;}
	.st3{fill:#44D5E9;}
	.st4{fill-rule:evenodd;clip-rule:evenodd;fill:#44D5E9;}
</style>
<path class="st0" d="M49.3,63H14.8C7.4,63,1.4,57,1.4,49.6V15c0-7.4,6-13.5,13.5-13.5h34.5c7.4,0,13.5,6,13.5,13.5v34.5
	C62.8,57,56.8,63,49.3,63z"/>
<g id="Page-1_5_">
	<g id="Business-Icon-Solid-Color" transform="translate(-277.000000, -228.000000)">
		<g id="iconspace_Combo-Chart_25px" transform="translate(275.000000, 225.000000)">
			<polygon id="path" class="st1" points="9.8,11 58.4,11 58.4,59.6 9.8,59.6 			"/>
			<path id="path_1_" class="st3" d="M45.8,20.7v3.2l-10.7,4.6v-3.2L45.8,20.7z M31.5,26.7l0.7-0.2v3.1l-12.6,4.7v-3.1l0.3-0.1
				C21.3,30.6,23.1,29.9,31.5,26.7z M47.7,30.4h3.9c1.6,0,2.9,1.3,2.9,2.9v19.4c0,1.6-1.3,2.9-2.9,2.9h-3.9c-1.6,0-2.9-1.3-2.9-2.9
				V33.4C44.8,31.7,46.1,30.4,47.7,30.4z"/>
			<path id="path_2_" class="st2" d="M32.1,36.3H36c1.6,0,2.9,1.3,2.9,2.9v13.6c0,1.6-1.3,2.9-2.9,2.9h-3.9c-1.6,0-2.9-1.3-2.9-2.9
				V39.2C29.2,37.6,30.5,36.3,32.1,36.3z M16.6,42.1h3.9c1.6,0,2.9,1.3,2.9,2.9v7.8c0,1.6-1.3,2.9-2.9,2.9h-3.9
				c-1.6,0-2.9-1.3-2.9-2.9V45C13.7,43.4,15,42.1,16.6,42.1z M48.7,24.6c-2.1,0-3.9-1.7-3.9-3.9s1.7-3.9,3.9-3.9s3.9,1.7,3.9,3.9
				S50.8,24.6,48.7,24.6z M19.5,36.3c-2.1,0-3.9-1.7-3.9-3.9c0-2.1,1.7-3.9,3.9-3.9s3.9,1.7,3.9,3.9C23.4,34.5,21.7,36.3,19.5,36.3z
				 M35.1,30.4c-2.1,0-3.9-1.7-3.9-3.9s1.7-3.9,3.9-3.9s3.9,1.7,3.9,3.9S37.2,30.4,35.1,30.4z"/>
		</g>
	</g>
</g>
</svg>
