<?xml version="1.0" encoding="utf-8"?>
<!-- Generator: Adobe Illustrator 25.2.1, SVG Export Plug-In . SVG Version: 6.00 Build 0)  -->
<svg version="1.1" id="Layer_1" xmlns="http://www.w3.org/2000/svg" xmlns:xlink="http://www.w3.org/1999/xlink" x="0px" y="0px"
	 viewBox="0 0 64.2 64.6" style="enable-background:new 0 0 64.2 64.6;" xml:space="preserve">
<style type="text/css">
	.st0{opacity:0.2;fill:#2DE5C9;}
	.st1{fill:none;}
	.st2{fill:#3B5AFB;}
	.st3{fill:#44D5E9;}
	.st4{fill-rule:evenodd;clip-rule:evenodd;fill:#44D5E9;}
</style>
<path class="st0" d="M49.3,63H14.8C7.4,63,1.4,57,1.4,49.6V15c0-7.4,6-13.5,13.5-13.5h34.5c7.4,0,13.5,6,13.5,13.5v34.5
	C62.8,57,56.8,63,49.3,63z"/>
<g id="Page-1_1_">
	<g id="Comunications-Solid-Color_1_" transform="translate(-228.000000, -227.000000)">
		<g id="CS-Men_1_" transform="translate(225.000000, 225.000000)">
			<polygon id="Path_9_" class="st1" points="10.7,9.9 59.5,9.9 59.5,58.7 10.7,58.7 			"/>
			<path id="Path_8_" class="st2" d="M23.5,27.2c8.7,1.2,15.4-1.9,20.1-9.4c0,0,0-0.1,0.1-0.1c1.8,2,2.9,4.7,2.9,7.7v4.2
				c0,4.3-2.3,8.1-6,10.1c-0.5-0.3-1-0.5-1.7-0.5c-1.6,0-2.9,1.3-2.9,2.9c0,1.6,1.3,2.9,2.9,2.9c0.8,0,1.6-0.3,2.1-0.9
				c-0.8,2.5-3.2,4.3-6,4.3c-3.5,0-6.3-2.7-6.3-6.1l0.9-2.5c-3.8-2-6.2-5.9-6.2-10.3V27.2z M23.5,24.6c0.4-6,5.4-10.8,11.5-10.8
				c2.6,0,5,0.9,6.9,2.3c-0.1,0.1-0.1,0.1-0.2,0.2c-4.2,6.7-10.2,9.5-18.2,8.3C23.6,24.6,23.6,24.6,23.5,24.6z M26.4,43.6
				c0.6,4.1,4.3,7.3,8.7,7.3c4.4,0,8.1-3.2,8.7-7.3l4.7,0.9c1.9,0.4,3.3,1.8,3.8,3.6l1.4,5.4c0.2,0.6-0.3,1.2-0.9,1.2H17.5
				c-0.6,0-1.1-0.6-0.9-1.2l1.3-5.4c0.5-1.8,2-3.3,3.8-3.6L26.4,43.6z"/>
			<path id="Path_7_" class="st3" d="M39,43.1c0.5,0,1-0.4,1-1c0-0.5-0.4-1-1-1s-1,0.4-1,1C38,42.7,38.5,43.1,39,43.1z"/>
			<path id="Path_6_" class="st3" d="M48.5,23.5h0.3c1.6,0,2.9,1.3,2.9,2.9v3.9c0,1.6-1.3,2.9-2.9,2.9h-0.7c0.3-1.2,0.5-2.5,0.5-3.7
				v-4.2C48.6,24.7,48.6,24.1,48.5,23.5z"/>
			<path id="Path_5_" class="st3" d="M22.1,33.3h-0.7c-1.6,0-2.9-1.3-2.9-2.9v-3.9c0-1.6,1.3-2.9,2.9-2.9h0.3
				c-0.1,0.6-0.1,1.2-0.1,1.8v4.2C21.6,30.9,21.8,32.1,22.1,33.3z"/>
		</g>
	</g>
</g>
</svg>
