<?xml version="1.0" encoding="utf-8"?>
<!-- Generator: Adobe Illustrator 25.2.1, SVG Export Plug-In . SVG Version: 6.00 Build 0)  -->
<svg version="1.1" id="Layer_1" xmlns="http://www.w3.org/2000/svg" xmlns:xlink="http://www.w3.org/1999/xlink" x="0px" y="0px"
	 viewBox="0 0 64.2 64.6" style="enable-background:new 0 0 64.2 64.6;" xml:space="preserve">
<style type="text/css">
	.st0{opacity:0.2;fill:#2DE5C9;}
	.st1{fill:none;}
	.st2{fill:#3B5AFB;}
	.st3{fill:#44D5E9;}
	.st4{fill-rule:evenodd;clip-rule:evenodd;fill:#44D5E9;}
</style>
<path class="st0" d="M49.3,63H14.8C7.4,63,1.4,57,1.4,49.6V15c0-7.4,6-13.5,13.5-13.5h34.5c7.4,0,13.5,6,13.5,13.5v34.5
	C62.8,57,56.8,63,49.3,63z"/>
<g id="Page-1_2_">
	<g id="Education-Solid-Color" transform="translate(-328.000000, -77.000000)">
		<g id="iconspace_Chemist-Glass-1_25px" transform="translate(325.000000, 75.000000)">
			<polygon id="Path_12_" class="st1" points="10.1,9.3 60.1,9.3 60.1,59.3 10.1,59.3 			"/>
			<path id="Path_11_" class="st2" d="M28.7,21.3c-2,0-3.7-1.8-3.7-4s1.6-4,3.7-4h12.8c2,0,3.7,1.8,3.7,4c0,2.2-1.6,4-3.7,4V32
				l4.6,7.3h-22l4.6-7.3L28.7,21.3L28.7,21.3z"/>
			<path id="Path_10_" class="st4" d="M53.6,48.6c0.3,0.5,0.5,1.1,0.5,1.7c0,1.7-1.3,3-3,3H19.1c-0.6,0-1.2-0.2-1.7-0.5
				c-1.3-1-1.7-2.8-0.7-4.2l5.5-7.3h26L53.6,48.6z M24.7,48.7c0.8,0.8,2.1,0.8,2.8,0c0.8-0.8,0.8-2.1,0-2.8c-0.8-0.8-2.1-0.8-2.8,0
				C23.9,46.7,23.9,47.9,24.7,48.7z M30.7,46.7c0.8,0.8,2.1,0.8,2.8,0c0.8-0.8,0.8-2.1,0-2.8c-0.8-0.8-2.1-0.8-2.8,0
				C29.9,44.7,29.9,45.9,30.7,46.7z"/>
		</g>
	</g>
</g>
</svg>
