<?xml version="1.0" encoding="utf-8"?>
<!-- Generator: Adobe Illustrator 25.2.1, SVG Export Plug-In . SVG Version: 6.00 Build 0)  -->
<svg version="1.1" id="Layer_1" xmlns="http://www.w3.org/2000/svg" xmlns:xlink="http://www.w3.org/1999/xlink" x="0px" y="0px"
	 viewBox="0 0 64.2 64.6" style="enable-background:new 0 0 64.2 64.6;" xml:space="preserve">
<style type="text/css">
	.st0{opacity:0.2;fill:#2DE5C9;}
	.st1{fill:none;}
	.st2{fill:#3B5AFB;}
	.st3{fill:#44D5E9;}
	.st4{fill-rule:evenodd;clip-rule:evenodd;fill:#44D5E9;}
</style>
<path class="st0" d="M49.3,63H14.8C7.4,63,1.4,57,1.4,49.6V15c0-7.4,6-13.5,13.5-13.5h34.5c7.4,0,13.5,6,13.5,13.5v34.5
	C62.8,57,56.8,63,49.3,63z"/>
<g id="Page-1_4_">
	<g id="Space-Solid-Color" transform="translate(-227.000000, -128.000000)">
		<g id="iconspace_Alien-2_25px" transform="translate(225.000000, 125.000000)">
			<polygon id="Path_18_" class="st1" points="11.7,12.9 56.5,12.9 56.5,57.7 11.7,57.7 			"/>
			<path id="Path_17_" class="st3" d="M42,28c-0.7-0.3-0.9-1.1-0.6-1.8L45,19c0.3-0.7,1.1-0.9,1.8-0.6c0.7,0.3,0.9,1.1,0.6,1.8
				l-3.6,7.2C43.5,28.1,42.6,28.3,42,28z M20.8,20.2c-0.3-0.7-0.1-1.5,0.6-1.8c0.7-0.3,1.5-0.1,1.8,0.6l3.6,7.2
				c0.3,0.7,0.1,1.5-0.6,1.8s-1.5,0.1-1.8-0.6L20.8,20.2z M23.8,34.4c0.7,0,1.3,0.6,1.3,1.3c0,0.7-0.6,1.3-1.3,1.3l-1.8,0
				c-2.7,0-4.9-2.2-4.9-4.9c0-0.7,0.6-1.3,1.3-1.3c0.7,0,1.3,0.6,1.3,1.3c0,1.2,1,2.2,2.2,2.2L23.8,34.4z M48.4,32.2
				c0-0.7,0.6-1.3,1.3-1.3c0.7,0,1.3,0.6,1.3,1.3c0,2.7-2.2,4.9-4.9,4.9l-1.8,0c-0.7,0-1.3-0.6-1.3-1.3s0.6-1.3,1.3-1.3l1.8,0
				C47.4,34.4,48.4,33.4,48.4,32.2z M44.4,43.3c-0.7,0-1.3-0.6-1.3-1.3c0-0.7,0.6-1.3,1.3-1.3l1.8,0c3.7,0,6.7,3,6.7,6.7
				c0,0.7-0.6,1.3-1.3,1.3s-1.3-0.6-1.3-1.3c0-2.2-1.8-4-4-4L44.4,43.3z M18,47.4c0,0.7-0.6,1.3-1.3,1.3c-0.7,0-1.3-0.6-1.3-1.3
				c0-3.7,3-6.7,6.7-6.7l1.8,0c0.7,0,1.3,0.6,1.3,1.3c0,0.7-0.6,1.3-1.3,1.3l-1.8,0C19.8,43.3,18,45.1,18,47.4z"/>
			<path id="Path_16_" class="st2" d="M34.1,21.9c6.4,0,11.6,5.2,11.6,11.6v9.8c0,2.1,0.5,4.2,1.4,6l2,4.1c0.3,0.5,0,1.1-0.6,1.3
				l-3.4,0.9c-2.7,0.7-5.5,0.3-8-0.9c-2-1-4.3-1-6.2,0c-2.5,1.3-5.4,1.6-8.1,0.9l-3.3-0.8c-0.6-0.1-0.8-0.8-0.6-1.3l2-4.1
				c0.9-1.9,1.4-3.9,1.4-6v-9.8C22.5,27.1,27.7,21.9,34.1,21.9z M34.1,41.6c3.5,0,6.3-2.8,6.3-6.3S37.5,29,34.1,29s-6.3,2.8-6.3,6.3
				S30.6,41.6,34.1,41.6z M34.1,39.8c-2.5,0-4.5-2-4.5-4.5s2-4.5,4.5-4.5s4.5,2,4.5,4.5S36.6,39.8,34.1,39.8z M34.1,36.2
				c0.5,0,0.9-0.4,0.9-0.9c0-0.5-0.4-0.9-0.9-0.9c-0.5,0-0.9,0.4-0.9,0.9C33.2,35.8,33.6,36.2,34.1,36.2z M28.2,46.7
				c1.6,1.3,3.6,2,5.9,2s4.3-0.7,5.9-2c0.4-0.3,0.4-0.9,0.1-1.3s-0.9-0.4-1.3-0.1c-1.3,1.1-2.9,1.6-4.8,1.6s-3.5-0.5-4.8-1.6
				c-0.4-0.3-0.9-0.3-1.3,0.1S27.8,46.4,28.2,46.7z"/>
		</g>
	</g>
</g>
</svg>
