<svg width="1103" height="469" viewBox="0 0 1103 469" xmlns="http://www.w3.org/2000/svg" xmlns:xlink="http://www.w3.org/1999/xlink">
  <defs>
    <path d="M708 164h256c5.523 0 10 4.477 10 10v18.192a10 10 0 0 1-2.982 7.124l-34.32 33.808A10 10 0 0 1 929.68 236H708c-5.523 0-10-4.477-10-10v-52c0-5.523 4.477-10 10-10Z" id="c"/>
    <path id="d" d="M0 0h17v23H0z"/>
    <path id="g" d="M0 0h17v23H0z"/>
    <path id="i" d="M0 0h17v23H0z"/>
    <path id="k" d="M0 0h17v23H0z"/>
    <linearGradient x1="100%" y1="50%" x2="88.821%" y2="50%" id="a">
      <stop stop-color="#1B3549" stop-opacity="0" offset="0%"/>
      <stop stop-color="#1B3549" offset="100%"/>
    </linearGradient>
    <linearGradient x1="100%" y1="50%" x2="40.83%" y2="50%" id="f">
      <stop stop-color="#1B3549" stop-opacity="0" offset="0%"/>
      <stop stop-color="#1B3549" offset="100%"/>
    </linearGradient>
    <filter x="-3.8%" y="-14.6%" width="107.6%" height="129.2%" filterUnits="objectBoundingBox" id="b">
      <feMorphology radius="1.5" operator="dilate" in="SourceAlpha" result="shadowSpreadOuter1"/>
      <feOffset in="shadowSpreadOuter1" result="shadowOffsetOuter1"/>
      <feGaussianBlur stdDeviation="2" in="shadowOffsetOuter1" result="shadowBlurOuter1"/>
      <feComposite in="shadowBlurOuter1" in2="SourceAlpha" operator="out" result="shadowBlurOuter1"/>
      <feColorMatrix values="0 0 0 0 0.42745098 0 0 0 0 0.392156863 0 0 0 0 0.960784314 0 0 0 0.5 0" in="shadowBlurOuter1"/>
    </filter>
  </defs>
  <g fill="none" fill-rule="evenodd">
    <path d="M20 145h1073c5.523 0 10 4.477 10 10v90c0 5.523-4.477 10-10 10H10c-5.523 0-10-4.477-10-10v-80c0-11.046 8.954-20 20-20Z" fill="url(#a)"/>
    <use fill="#000" filter="url(#b)" xlink:href="#c"/>
    <path stroke="#C8C3FF" stroke-width="2" d="M964 165H708a8.972 8.972 0 0 0-6.364 2.636A8.972 8.972 0 0 0 699 174v52a8.972 8.972 0 0 0 2.636 6.364A8.972 8.972 0 0 0 708 235h221.68a9 9 0 0 0 6.316-2.588l34.32-33.809a9 9 0 0 0 2.684-6.411V174a8.972 8.972 0 0 0-2.636-6.364A8.972 8.972 0 0 0 964 165Z" stroke-linejoin="square" fill="#0D2436"/>
    <rect fill="#6D64F5" opacity=".602" x="722" y="186" width="23" height="23" rx="11.5"/>
    <g opacity=".603" transform="rotate(-90 472.5 -256.5)">
      <mask id="e" fill="#fff">
        <use xlink:href="#d"/>
      </mask>
      <path d="M17 1.794v19.412c0 1.332-1.037 2.199-1.918 1.602l-14.35-9.72c-.976-.66-.976-2.545.001-3.205L15.083.191C15.965-.404 17 .463 17 1.794" fill="#4AC0D6" mask="url(#e)"/>
    </g>
    <rect stroke-opacity=".35" stroke="#C8C3FF" stroke-width="2" fill="#0B1C28" x="699" y="83" width="274" height="70" rx="10"/>
    <rect stroke-opacity=".1" stroke="#C8C3FF" stroke-width="2" fill="#0B1C28" x="699" y="1" width="274" height="70" rx="10"/>
    <path d="M381 165H168a8.972 8.972 0 0 0-6.364 2.636A8.972 8.972 0 0 0 159 174v52a8.972 8.972 0 0 0 2.636 6.364A8.972 8.972 0 0 0 168 235h213a8.972 8.972 0 0 0 6.364-2.636A8.972 8.972 0 0 0 390 226v-52a8.972 8.972 0 0 0-2.636-6.364A8.972 8.972 0 0 0 381 165Z" stroke="#49C2D6" stroke-width="2" fill-opacity=".5" fill="#49C2D6"/>
    <rect stroke="#FAAD13" stroke-width="2" fill-opacity=".4" fill="#FAAD13" x="416" y="165" width="231" height="70" rx="10"/>
    <path d="M-86 241h283c5.523 0 10 4.477 10 10v90c0 5.523-4.477 10-10 10H-76c-11.046 0-20-8.954-20-20v-80c0-5.523 4.477-10 10-10Z" fill="url(#f)" transform="rotate(90 55.5 296)"/>
    <path d="M672.5 283.5v150.739a10 10 0 0 1-3.15 7.285l-25.8 24.261a10 10 0 0 1-6.85 2.715H144.5c-5.523 0-10-4.477-10-10v-175c0-5.523 4.477-10 10-10h518c5.523 0 10 4.477 10 10Z" fill="#0D2232"/>
    <g opacity=".603" transform="rotate(180 357.5 156)">
      <mask id="h" fill="#fff">
        <use xlink:href="#g"/>
      </mask>
      <path d="M17 1.794v19.412c0 1.332-1.037 2.199-1.918 1.602l-14.35-9.72c-.976-.66-.976-2.545.001-3.205L15.083.191C15.965-.404 17 .463 17 1.794" fill="#6D64F5" mask="url(#h)"/>
    </g>
    <text font-family="Avenir-Book, Avenir" font-size="16" letter-spacing="-.16" fill="#D3E7F7">
                    <tspan x="740" y="302">Control planes running in </tspan>
                    <tspan x="740" y="330">Upbound are designed to be </tspan>
                    <tspan x="740" y="358">high performance, scalable, </tspan>
                    <tspan x="740" y="386">multitenant, and secure for </tspan>
                    <tspan x="740" y="414">enterprise scenarios</tspan>
                </text>
    <path d="M647.5 428V310a9.47 9.47 0 0 0-2.782-6.718A9.47 9.47 0 0 0 638 300.5H506a9.47 9.47 0 0 0-6.718 2.782A9.47 9.47 0 0 0 496.5 310v118a9.47 9.47 0 0 0 2.782 6.718A9.47 9.47 0 0 0 506 437.5h132a9.47 9.47 0 0 0 6.718-2.782A9.47 9.47 0 0 0 647.5 428ZM478.5 428V310a9.47 9.47 0 0 0-2.782-6.718A9.47 9.47 0 0 0 469 300.5H337a9.47 9.47 0 0 0-6.718 2.782A9.47 9.47 0 0 0 327.5 310v118a9.47 9.47 0 0 0 2.782 6.718A9.47 9.47 0 0 0 337 437.5h132a9.47 9.47 0 0 0 6.718-2.782A9.47 9.47 0 0 0 478.5 428Z" stroke="#1B3549" fill="#1B3549"/>
    <path d="M310 310v118c0 5.523-4.477 10-10 10H168c-5.523 0-10-4.477-10-10V310c0-5.523 4.477-10 10-10h132c5.523 0 10 4.477 10 10Z" fill="#1B3549"/>
    <text font-family="Avenir-Heavy, Avenir" font-size="16" font-weight="600" fill="#FFF">
                    <tspan x="767" y="194">Fully managed control </tspan>
                    <tspan x="767" y="216">planes</tspan>
                </text>
    <text font-family="Avenir-Book, Avenir" font-size="16" fill="#FFF">
                    <tspan x="470.596" y="204.96">App Developers</tspan>
                </text>
    <text font-family="Avenir-Book, Avenir" font-size="16" fill="#FFF">
                    <tspan x="203.276" y="204.96">Platform Operators</tspan>
                </text>
    <text font-family="Avenir-Black, Avenir" font-size="18" font-weight="700" fill="#D3E7F7">
                    <tspan x="175.347" y="373">Google Cloud</tspan>
                </text>
    <text font-family="Avenir-Black, Avenir" font-size="18" font-weight="700" fill="#D3E7F7">
                    <tspan x="377.998" y="373">Azure</tspan>
                </text>
    <text font-family="Avenir-Black, Avenir" font-size="18" font-weight="700" fill="#D3E7F7">
                    <tspan x="534.515" y="373">On-prem</tspan>
                </text>
    <text opacity=".354" font-family="Avenir-Book, Avenir" font-size="16" fill="#D3E7F7">
                    <tspan x="767" y="114">Enterprise-ready </tspan>
                    <tspan x="767" y="134">architecture</tspan>
                </text>
    <text opacity=".147" font-family="Avenir-Book, Avenir" font-size="16" fill="#D3E7F7">
                    <tspan x="767" y="31">Streamlined development </tspan>
                    <tspan x="767" y="53">processes</tspan>
                </text>
    <g opacity=".353" transform="translate(722 103)">
      <rect fill="#6D64F5" opacity=".602" width="23" height="23" rx="11.5"/>
      <g opacity=".603" transform="rotate(-90 18.5 11.5)">
        <mask id="j" fill="#fff">
          <use xlink:href="#i"/>
        </mask>
        <path d="M17 1.794v19.412c0 1.332-1.037 2.199-1.918 1.602l-14.35-9.72c-.976-.66-.976-2.545.001-3.205L15.083.191C15.965-.404 17 .463 17 1.794" fill="#4AC0D6" mask="url(#j)"/>
      </g>
    </g>
    <g opacity=".151" transform="translate(722 22)">
      <rect fill="#6D64F5" opacity=".602" width="23" height="23" rx="11.5"/>
      <g opacity=".603" transform="rotate(-90 18.5 11.5)">
        <mask id="l" fill="#fff">
          <use xlink:href="#k"/>
        </mask>
        <path d="M17 1.794v19.412c0 1.332-1.037 2.199-1.918 1.602l-14.35-9.72c-.976-.66-.976-2.545.001-3.205L15.083.191C15.965-.404 17 .463 17 1.794" fill="#4AC0D6" mask="url(#l)"/>
      </g>
    </g>
  </g>
</svg>
