<?xml version="1.0" encoding="UTF-8"?>
<svg width="1128px" height="410px" viewBox="0 0 1128 410" version="1.1" xmlns="http://www.w3.org/2000/svg" xmlns:xlink="http://www.w3.org/1999/xlink">
    <!-- Generator: Sketch 62 (91390) - https://sketch.com -->
    <title>Group 22</title>
    <desc>Created with Sketch.</desc>
    <defs>
        <linearGradient x1="100%" y1="50%" x2="88.8211237%" y2="50%" id="linearGradient-1">
            <stop stop-color="#1B3549" stop-opacity="0" offset="0%"></stop>
            <stop stop-color="#1B3549" offset="100%"></stop>
        </linearGradient>
        <linearGradient x1="100%" y1="50%" x2="40.8296472%" y2="50%" id="linearGradient-2">
            <stop stop-color="#1B3549" stop-opacity="0" offset="0%"></stop>
            <stop stop-color="#1B3549" stop-opacity="0.0151823106" offset="1.51823106%"></stop>
            <stop stop-color="#0D2232" stop-opacity="0" offset="1.51823106%"></stop>
            <stop stop-color="#1B3549" offset="100%"></stop>
        </linearGradient>
        <path d="M583,261 L665,261 C670.522847,261 675,265.477153 675,271 L675,426 C675,431.522847 670.522847,436 665,436 L583,436 C577.477153,436 573,431.522847 573,426 L573,271 C573,265.477153 577.477153,261 583,261 Z" id="path-3"></path>
        <filter x="-16.2%" y="-9.4%" width="132.4%" height="118.9%" filterUnits="objectBoundingBox" id="filter-4">
            <feMorphology radius="2" operator="dilate" in="SourceAlpha" result="shadowSpreadOuter1"></feMorphology>
            <feOffset dx="0" dy="0" in="shadowSpreadOuter1" result="shadowOffsetOuter1"></feOffset>
            <feGaussianBlur stdDeviation="3.5" in="shadowOffsetOuter1" result="shadowBlurOuter1"></feGaussianBlur>
            <feComposite in="shadowBlurOuter1" in2="SourceAlpha" operator="out" result="shadowBlurOuter1"></feComposite>
            <feColorMatrix values="0 0 0 0 0.42745098   0 0 0 0 0.392156863   0 0 0 0 0.960784314  0 0 0 0.5 0" type="matrix" in="shadowBlurOuter1"></feColorMatrix>
        </filter>
        <polygon id="path-5" points="0.0366388657 0.0705754796 28.3561551 0.0705754796 28.3561551 26.8557131 0.0366388657 26.8557131"></polygon>
        <polygon id="path-7" points="0.00573280704 0.0629133837 10.2512093 0.0629133837 10.2512093 12.7271345 0.00573280704 12.7271345"></polygon>
        <polygon id="path-9" points="6.0405535e-05 0.262070642 60.4041436 0.262070642 60.4041436 13.8461538 6.0405535e-05 13.8461538"></polygon>
        <linearGradient x1="100%" y1="0%" x2="0%" y2="0%" id="linearGradient-11">
            <stop stop-color="#46CBD3" offset="0%"></stop>
            <stop stop-color="#696FF1" offset="100%"></stop>
        </linearGradient>
        <linearGradient x1="100%" y1="50%" x2="-177.100958%" y2="50%" id="linearGradient-12">
            <stop stop-color="#46CBD3" offset="0%"></stop>
            <stop stop-color="#696FF1" offset="100%"></stop>
        </linearGradient>
        <polygon id="path-13" points="0 0.1558 17.7444931 0.1558 17.7444931 25.8898984 0 25.8898984"></polygon>
        <polygon id="path-15" points="0.000182068966 0.154491803 15.5988621 0.154491803 15.5988621 18.9171787 0.000182068966 18.9171787"></polygon>
        <polygon id="path-17" points="0.0119688413 0.139779944 4.47026897 0.139779944 4.47026897 8.40983607 0.0119688413 8.40983607"></polygon>
        <path d="M798,164 L1054,164 C1059.52285,164 1064,168.477153 1064,174 L1064,192.191738 C1064,194.869923 1062.92572,197.436188 1061.01779,199.315682 L1026.69815,233.123944 C1024.82728,234.966932 1022.30652,236 1019.68035,236 L798,236 C792.477153,236 788,231.522847 788,226 L788,174 C788,168.477153 792.477153,164 798,164 Z" id="path-19"></path>
        <filter x="-6.0%" y="-22.9%" width="112.0%" height="145.8%" filterUnits="objectBoundingBox" id="filter-20">
            <feMorphology radius="2" operator="dilate" in="SourceAlpha" result="shadowSpreadOuter1"></feMorphology>
            <feOffset dx="0" dy="0" in="shadowSpreadOuter1" result="shadowOffsetOuter1"></feOffset>
            <feGaussianBlur stdDeviation="3.5" in="shadowOffsetOuter1" result="shadowBlurOuter1"></feGaussianBlur>
            <feComposite in="shadowBlurOuter1" in2="SourceAlpha" operator="out" result="shadowBlurOuter1"></feComposite>
            <feColorMatrix values="0 0 0 0 0.42745098   0 0 0 0 0.392156863   0 0 0 0 0.960784314  0 0 0 0.5 0" type="matrix" in="shadowBlurOuter1"></feColorMatrix>
        </filter>
        <polygon id="path-21" points="0 0 18.066667 0 18.066667 24.6363641 0 24.6363641"></polygon>
        <polygon id="path-23" points="0 0 18.066667 0 18.066667 24.6363641 0 24.6363641"></polygon>
        <linearGradient x1="277.326868%" y1="50%" x2="0%" y2="50%" id="linearGradient-25">
            <stop stop-color="#46CBD3" offset="0%"></stop>
            <stop stop-color="#696FF1" offset="100%"></stop>
        </linearGradient>
        <linearGradient x1="290.249591%" y1="50%" x2="-192.7739%" y2="50%" id="linearGradient-26">
            <stop stop-color="#46CBD3" offset="0%"></stop>
            <stop stop-color="#696FF1" offset="100%"></stop>
        </linearGradient>
        <polygon id="path-27" points="0.16856 0.24028563 15.3846933 0.24028563 15.3846933 20.077037 0.16856 20.077037"></polygon>
        <filter x="-102.6%" y="-78.0%" width="300.4%" height="254.5%" filterUnits="objectBoundingBox" id="filter-29">
            <feMorphology radius="2" operator="dilate" in="SourceAlpha" result="shadowSpreadOuter1"></feMorphology>
            <feOffset dx="0" dy="0" in="shadowSpreadOuter1" result="shadowOffsetOuter1"></feOffset>
            <feGaussianBlur stdDeviation="3.5" in="shadowOffsetOuter1" result="shadowBlurOuter1"></feGaussianBlur>
            <feColorMatrix values="0 0 0 0 0.42745098   0 0 0 0 0.392156863   0 0 0 0 0.960784314  0 0 0 0.5 0" type="matrix" in="shadowBlurOuter1" result="shadowMatrixOuter1"></feColorMatrix>
            <feMerge>
                <feMergeNode in="shadowMatrixOuter1"></feMergeNode>
                <feMergeNode in="SourceGraphic"></feMergeNode>
            </feMerge>
        </filter>
        <polygon id="path-30" points="0 0 18.066667 0 18.066667 24.6363641 0 24.6363641"></polygon>
        <filter x="-102.6%" y="-78.0%" width="300.4%" height="254.5%" filterUnits="objectBoundingBox" id="filter-32">
            <feMorphology radius="2" operator="dilate" in="SourceAlpha" result="shadowSpreadOuter1"></feMorphology>
            <feOffset dx="0" dy="0" in="shadowSpreadOuter1" result="shadowOffsetOuter1"></feOffset>
            <feGaussianBlur stdDeviation="3.5" in="shadowOffsetOuter1" result="shadowBlurOuter1"></feGaussianBlur>
            <feColorMatrix values="0 0 0 0 0.42745098   0 0 0 0 0.392156863   0 0 0 0 0.960784314  0 0 0 0.5 0" type="matrix" in="shadowBlurOuter1" result="shadowMatrixOuter1"></feColorMatrix>
            <feMerge>
                <feMergeNode in="shadowMatrixOuter1"></feMergeNode>
                <feMergeNode in="SourceGraphic"></feMergeNode>
            </feMerge>
        </filter>
        <polygon id="path-33" points="0 0 18.066667 0 18.066667 24.6363641 0 24.6363641"></polygon>
        <polygon id="path-35" points="0 0.0158621091 8.06472153 0.0158621091 8.06472153 8.29953059 0 8.29953059"></polygon>
        <polygon id="path-37" points="0.0201819986 0.0209575441 5.12033852 0.0209575441 5.12033852 7.74951076 0.0201819986 7.74951076"></polygon>
        <polygon id="path-39" points="0.0097238602 0.00687760723 7.51338552 0.00687760723 7.51338552 5.13842267 0.0097238602 5.13842267"></polygon>
        <polygon id="path-41" points="0.0214011742 0.0111937378 29.9403053 0.0111937378 29.9403053 17.3347554 0.0214011742 17.3347554"></polygon>
    </defs>
    <g id="Home" stroke="none" stroke-width="1" fill="none" fill-rule="evenodd">
        <g id="Home-v2" transform="translate(-170.000000, -876.000000)">
            <g id="Group-22" transform="translate(170.000000, 876.000000)">
                <path d="M122,145 L1118,145 C1123.52285,145 1128,149.477153 1128,155 L1128,245 C1128,250.522847 1123.52285,255 1118,255 L112,255 C106.477153,255 102,250.522847 102,245 L102,165 C102,153.954305 110.954305,145 122,145 Z" id="Rectangle" fill="url(#linearGradient-1)"></path>
                <path d="M392,-52 L460,-52 C465.522847,-52 470,-47.5228475 470,-42 L470,586 C470,591.522847 465.522847,596 460,596 L402,596 C390.954305,596 382,587.045695 382,576 L382,-42 C382,-47.5228475 386.477153,-52 392,-52 Z" id="Rectangle-Copy-25" fill="url(#linearGradient-2)" transform="translate(426.000000, 272.000000) rotate(90.000000) translate(-426.000000, -272.000000) "></path>
                <g id="Rectangle-Copy-30" transform="translate(624.000000, 348.500000) rotate(90.000000) translate(-624.000000, -348.500000) ">
                    <use fill="black" fill-opacity="1" filter="url(#filter-4)" xlink:href="#path-3"></use>
                    <path stroke="#C8C3FF" stroke-width="2" d="M671.363961,432.363961 C669.735281,433.992641 667.485281,435 665,435 L583,435 C580.514719,435 578.264719,433.992641 576.636039,432.363961 C575.007359,430.735281 574,428.485281 574,426 L574,271 C574,268.514719 575.007359,266.264719 576.636039,264.636039 C578.264719,263.007359 580.514719,262 583,262 L665,262 C667.485281,262 669.735281,263.007359 671.363961,264.636039 C672.992641,266.264719 674,268.514719 674,271 L674,426 C674,428.485281 672.992641,430.735281 671.363961,432.363961 Z" stroke-linejoin="square" fill="#1B3549" fill-rule="evenodd"></path>
                </g>
                <path d="M476.717514,433.717514 C474.998353,435.436676 472.623353,436.5 470,436.5 L388,436.5 C385.376647,436.5 383.001647,435.436676 381.282486,433.717514 C379.563324,431.998353 378.5,429.623353 378.5,427 L378.5,271 C378.5,268.376647 379.563324,266.001647 381.282486,264.282486 C383.001647,262.563324 385.376647,261.5 388,261.5 L470,261.5 C472.623353,261.5 474.998353,262.563324 476.717514,264.282486 C478.436676,266.001647 479.5,268.376647 479.5,271 L479.5,427 C479.5,429.623353 478.436676,431.998353 476.717514,433.717514 Z" id="Rectangle-Copy-36" stroke="#49C2D6" fill="#1B3549" transform="translate(429.000000, 349.000000) rotate(90.000000) translate(-429.000000, -349.000000) "></path>
                <g id="Group-17" transform="translate(379.000000, 331.000000)">
                    <path d="M0,25.4547123 C0.587823186,24.6007506 1.05996664,23.6784821 1.57806505,22.7837364 C4.15095913,18.3400334 6.71492911,13.8911593 9.2793995,9.44253545 C9.39849875,9.23594662 9.53794829,9.05629691 9.72285238,8.90175146 C13.1909091,6.00191827 16.6559633,3.09849875 20.1224354,0.196747289 C20.2025021,0.129774812 20.2916597,0.0736447039 20.3938282,0 C20.435196,0.201000834 20.322769,0.320683903 20.2618849,0.451209341 C16.4222686,8.68623853 12.5782319,16.9192661 8.74578816,25.1576314 C8.6058382,25.4584654 8.43986656,25.5428691 8.12176814,25.5415501 C5.41451209,25.530025 2.70725605,25.5366138 0,25.5377815 L0,25.4547123 Z" id="Fill-1" fill="#0187D8"></path>
                    <g id="Group-5" transform="translate(8.924103, 1.828524)">
                        <mask id="mask-6" fill="white">
                            <use xlink:href="#path-5"></use>
                        </mask>
                        <g id="Clip-4"></g>
                        <path d="M28.3561551,26.8557298 L0.0441451209,26.8557298 L0.0366388657,26.8026856 C5.73355296,25.7956797 11.4305505,24.7886739 17.1282986,23.7815013 C17.1267139,23.602352 16.9959383,23.5247873 16.9108674,23.4233695 C14.0694996,20.0352961 11.2278816,16.6474729 8.37817348,13.2664053 C8.21637198,13.0745788 8.17100083,12.9232027 8.25957465,12.6813344 C9.75598832,8.59226022 11.2429775,4.49968307 12.7326355,0.408106756 C12.7654962,0.317781485 12.805196,0.229958299 12.8705838,0.0705754796 C18.0408924,9.01361134 23.1835947,17.9088574 28.3561551,26.8557298" id="Fill-3" fill="#0187D8" mask="url(#mask-6)"></path>
                    </g>
                    <path d="M48.1720183,10.8862135 C48.0352377,11.3936364 47.9416597,11.8218265 47.7892827,12.2344204 C46.9950375,14.3855463 46.2150542,16.5419266 45.4184737,18.6922185 C45.3085488,18.9889658 45.3223103,19.0913845 45.6836947,19.0888824 C47.38995,19.077206 49.0964554,19.0885488 50.802794,19.1008426 C51.0479149,19.1025605 51.0781068,19.0360884 50.9937865,18.8164053 C50.6625104,17.9521852 50.3379066,17.0851293 50.0281485,16.2130692 C49.4089658,14.4702002 48.6792744,12.7655296 48.1720183,10.8862135 M54.5690158,25.5800417 C53.514387,25.5905505 53.5145538,25.5904671 53.1421601,24.6047289 C52.7123019,23.4666972 52.2751043,22.3313344 51.8580067,21.1886322 C51.7725188,20.9546038 51.6591743,20.8793745 51.4106339,20.8805421 C49.2584237,20.8907173 47.1062135,20.8910509 44.9540033,20.8802919 C44.7008757,20.8789575 44.5912844,20.9621935 44.5104671,21.1951376 C44.0389908,22.5532694 43.5458299,23.9039783 43.0760217,25.2626105 C42.9890325,25.5141535 42.8661802,25.6073144 42.5997915,25.5941368 C42.1287323,25.570784 41.655171,25.5651126 41.1841952,25.5859633 C40.8454962,25.6008924 40.7837781,25.5181568 40.908799,25.1946372 C41.7561718,23.0025605 42.5863636,20.8038949 43.4233111,18.6078148 C44.614804,15.4816264 45.8138032,12.3582736 46.990367,9.22649708 C47.1210592,8.87837364 47.2884487,8.76044204 47.6497498,8.79046706 C48.0634279,8.82491243 48.4825271,8.80839867 48.8986239,8.79447039 C49.1198082,8.78704754 49.2425771,8.84201001 49.3303169,9.07036697 C51.4026272,14.464779 53.4815263,19.8566889 55.5705171,25.2447623 C55.6937865,25.5626105 55.578774,25.5923853 55.3185571,25.5822102 C55.0690992,25.5723686 54.8188907,25.5800417 54.5690158,25.5800417" id="Fill-6" fill="#0187D8"></path>
                    <g id="Group-10" transform="translate(89.741451, 13.171309)">
                        <mask id="mask-8" fill="white">
                            <use xlink:href="#path-7"></use>
                        </mask>
                        <g id="Clip-9"></g>
                        <path d="M5.26032527,5.28212677 C6.2317181,5.28212677 7.20311093,5.28329441 8.17450375,5.28095913 C8.3316347,5.28054212 8.49835696,5.33083403 8.52170976,5.05910759 C8.70019183,2.98362802 6.83455379,1.37962469 4.79176814,1.84592994 C3.24889908,2.19805671 2.28959967,3.74109258 2.07533778,5.04851543 C2.02779817,5.33900751 2.23313595,5.28029191 2.3877648,5.28070892 C3.34522936,5.28346122 4.30286072,5.28212677 5.26032527,5.28212677 M9.66799833,9.771201 C9.66799833,10.354854 9.6611593,10.8640284 9.67183486,11.3728691 C9.67542118,11.5457631 9.5757548,11.617156 9.45331943,11.688799 C7.69093411,12.7209091 5.79969141,12.9781234 3.83847373,12.4847957 C2.40569641,12.124412 1.31787323,11.2246622 0.740141785,9.86252711 C-0.316321935,7.37236864 -0.279207673,4.88921601 1.15373645,2.54242702 C2.6964387,0.0159883236 6.22271059,-0.719207673 8.4966055,0.987381151 C9.61161802,1.8242452 10.2910175,2.92649708 10.2453962,4.38638032 C10.2237114,5.07820684 10.2222102,5.77195163 10.2498999,6.46327773 C10.2634112,6.80231026 10.1795913,6.90214345 9.82421184,6.90014178 C7.38109258,6.88604671 4.9376397,6.90714762 2.49443703,6.89121768 C2.08217681,6.88854879 1.98567973,6.98796497 2.03096747,7.40080901 C2.25632193,9.45402002 3.4581568,10.8500167 5.24956631,11.0271643 C6.68851543,11.1694495 8.03572143,10.8666138 9.24923269,10.0530192 C9.36307756,9.97670559 9.47675563,9.89989158 9.66799833,9.771201" id="Fill-8" fill="#0187D8" mask="url(#mask-8)"></path>
                    </g>
                    <path d="M76.5013344,23.8378482 C75.7650542,24.8973978 74.8590492,25.6376814 73.5905755,25.8074896 C70.9088407,26.1667056 68.9625521,25.0330942 68.5680567,22.1121601 C68.4637198,21.3394329 68.4909925,20.5647873 68.4869892,19.7905588 C68.476814,17.8523603 68.4849875,15.9140784 68.4671492,13.9759633 C68.464387,13.6657048 68.5427023,13.5594495 68.8595496,13.5823019 C69.2462052,13.6101585 69.6380317,13.6112427 70.024437,13.5820517 C70.3457048,13.5576981 70.4134279,13.6712093 70.4119266,13.9766305 C70.4016681,16.1224187 70.4131776,18.2683736 70.4138449,20.4142452 C70.4140951,20.9555296 70.4446205,21.4921435 70.5700584,22.0211676 C70.8286906,23.1124937 71.3969975,23.9435196 72.5623853,24.1643703 C73.7698916,24.3931443 74.8622185,24.1516097 75.6573812,23.1250042 C76.1973311,22.4278399 76.4870726,21.638849 76.4842369,20.7431026 C76.4771476,18.5003169 76.4899917,16.2574479 76.4810676,14.0146622 C76.4798999,13.7370142 76.5310259,13.6194162 76.8386155,13.6392661 C77.2670559,13.6668724 77.6994162,13.6622018 78.1286072,13.6404337 C78.4014178,13.6266722 78.4839867,13.7108257 78.4798165,13.986055 C78.4641368,14.996397 78.4735613,16.007156 78.4735613,17.0178315 C78.4735613,19.7313428 78.4674729,22.444854 78.481261,25.1583653 C78.4829858,25.4989825 78.3988324,25.6225021 78.0470392,25.5954796 C77.6468724,25.5647873 77.2418682,25.573628 76.840367,25.5933945 C76.5591326,25.6072394 76.4845705,25.4991493 76.4959133,25.232844 C76.5155963,24.7685405 76.5013344,24.3029024 76.5013344,23.8378482" id="Fill-11" fill="#0187D8"></path>
                    <path d="M59.2783987,23.9523186 L62.5557131,23.9523186 C63.6522936,23.9523186 64.7488741,23.9599917 65.8452043,23.946814 C66.1079233,23.9436447 66.2257715,24.0018599 66.2005004,24.2865138 C66.1638866,24.6977731 66.3649708,25.2257965 66.1266055,25.4939366 C65.8808173,25.770417 65.3417848,25.5821768 64.9328607,25.5835947 C62.2402002,25.5928524 59.5474562,25.5901001 56.8547123,25.5842619 C56.687573,25.5839283 56.4388657,25.6872644 56.3672227,25.492352 C56.2852377,25.269166 56.298749,25.011618 56.4726439,24.7868474 C56.7945788,24.3707506 57.0951626,23.9382235 57.4050042,23.5127857 C59.3130108,20.8932694 61.2211009,18.2739199 63.128774,15.6541535 C63.2100917,15.5425605 63.2877398,15.4282152 63.370809,15.3098666 C63.2543786,15.1741701 63.1075063,15.2423103 62.983653,15.2417264 C61.1376147,15.2332193 59.2914929,15.2186239 57.4457048,15.239558 C57.0603003,15.2438949 56.9628023,15.1266305 56.998749,14.7745038 C57.0253545,14.5142869 57.0260217,14.2458966 56.9939116,13.9865972 C56.9507089,13.6373895 57.1033361,13.5814262 57.4146789,13.5825938 C60.2045038,13.5933528 62.9944954,13.5868474 65.7843203,13.5943536 C65.9449541,13.5947706 66.1817348,13.4746706 66.259216,13.7056964 C66.3286072,13.912452 66.2990826,14.1344704 66.1505421,14.3337198 C65.6872394,14.9556547 65.236447,15.5868474 64.7818182,16.2152043 C63.01201,18.6612427 61.242035,21.1071143 59.4748123,23.5549875 C59.3979983,23.6614095 59.2775646,23.7494829 59.2783987,23.9523186" id="Fill-13" fill="#0187D8"></path>
                    <path d="M84.2453378,15.8808173 C84.5223186,15.4098415 84.7681902,14.9517932 85.0951293,14.5374479 C85.9150626,13.4983319 87.0028023,13.2341952 88.2554295,13.4243536 C88.4968807,13.4609675 88.6011343,13.5689741 88.5898749,13.8341952 C88.5671059,14.3718098 88.5831193,14.9110092 88.5831193,15.5000834 C87.9445872,15.2095913 87.3255713,15.0608841 86.6609341,15.2102585 C86.0354962,15.3507923 85.5254045,15.6670559 85.1741118,16.193995 C84.6432527,16.9903253 84.3061384,17.8679733 84.2930442,18.8335279 C84.264437,20.9504587 84.25201,23.0676397 84.2538449,25.1847373 C84.2540117,25.5160967 84.1616013,25.6207673 83.8364137,25.593995 C83.4639366,25.5634696 83.0862886,25.5509591 82.7141451,25.5767306 C82.3628524,25.6010008 82.3183153,25.4453711 82.3188157,25.1442035 C82.3255713,21.4354462 82.3246539,17.7266889 82.3101246,14.018015 C82.3088073,13.6800667 82.3846205,13.5527106 82.74,13.5814846 C83.1396664,13.6138449 83.5445872,13.6013344 83.9460884,13.5843203 C84.187206,13.5741451 84.2543453,13.6620517 84.2499249,13.8937448 C84.2369141,14.5558799 84.2453378,15.218432 84.2453378,15.8808173" id="Fill-15" fill="#0187D8"></path>
                </g>
                <path d="M280.717514,432.717514 C278.998353,434.436676 276.623353,435.5 274,435.5 L192,435.5 C189.376647,435.5 187.001647,434.436676 185.282486,432.717514 C183.563324,430.998353 182.5,428.623353 182.5,426 L182.5,271 C182.5,268.376647 183.563324,266.001647 185.282486,264.282486 C187.001647,262.563324 189.376647,261.5 192,261.5 L274,261.5 C276.623353,261.5 278.998353,262.563324 280.717514,264.282486 C282.436676,266.001647 283.5,268.376647 283.5,271 L283.5,426 C283.5,428.623353 282.436676,430.998353 280.717514,432.717514 Z" id="Rectangle-Copy-37" stroke="#FAAD13" fill="#1B3549" transform="translate(233.000000, 348.500000) rotate(90.000000) translate(-233.000000, -348.500000) "></path>
                <g id="Group-12" transform="translate(200.000000, 329.000000)">
                    <path d="M28.4431538,16.1271538 C29.3223846,12.3994615 30.1993077,8.67715385 31.0785385,4.95561538 C31.3539231,3.78715385 31.6246923,2.61792308 31.9185385,1.45484615 C32.0877692,0.784076923 32.3539231,0.582538462 33.0523846,0.568692308 C33.7408462,0.554846154 34.4300769,0.558692308 35.1185385,0.573307692 C35.7146923,0.586384615 35.9939231,0.795615385 36.1500769,1.38023077 C36.3600769,2.16946154 36.5377692,2.96792308 36.7262308,3.76330769 C37.7093077,7.92638462 38.6916154,12.0902308 39.677,16.2648462 C39.7954615,16.2186923 39.7731538,16.1048462 39.7939231,16.0271538 C40.8146923,12.0886923 41.8323846,8.14946154 42.8493077,4.21023077 C43.0623846,3.38561538 43.2708462,2.55946154 43.4877692,1.73561538 C43.747,0.746384615 43.9877692,0.563307692 45.0039231,0.563307692 C45.597,0.563307692 46.1900769,0.561769231 46.7831538,0.564076923 C47.2823846,0.566384615 47.4385385,0.737153846 47.4016154,1.23792308 C47.3746923,1.60638462 47.237,1.94792308 47.1285385,2.29638462 C45.4054615,7.82176923 43.6800769,13.3463846 41.9539231,18.871 C41.8923846,19.0694615 41.8208462,19.2663846 41.7439231,19.4602308 C41.5846923,19.8602308 41.2716154,20.0625385 40.8562308,20.0794615 C40.0285385,20.1125385 39.1993077,20.1125385 38.3716154,20.0779231 C37.9254615,20.0586923 37.6416154,19.7948462 37.5239231,19.3817692 C37.3639231,18.8225385 37.2331538,18.2548462 37.097,17.6879231 C36.0823846,13.4702308 35.0693077,9.25176923 34.0546923,5.03330769 C34.0446923,4.99253846 34.0262308,4.95561538 33.9885385,4.85407692 C33.7939231,5.66484615 33.6123846,6.41638462 33.4323846,7.16792308 C32.4923846,11.0902308 31.5554615,15.0140769 30.6108462,18.9356154 C30.3762308,19.911 30.1477692,20.0786923 29.1439231,20.0786923 C28.5862308,20.0786923 28.0277692,20.0802308 27.4693077,20.0786923 C26.6800769,20.0756154 26.407,19.8979231 26.1662308,19.1417692 C25.7562308,17.8586923 25.3708462,16.5679231 24.9793077,15.2786923 C23.6208462,10.8140769 22.2639231,6.34869231 20.9062308,1.88330769 C20.8354615,1.65023077 20.7677692,1.41561538 20.7423846,1.17330769 C20.7023846,0.788692308 20.8877692,0.567923077 21.2739231,0.566384615 C22.067,0.561769231 22.8608462,0.570230769 23.6539231,0.571769231 C24.1085385,0.572538462 24.4108462,0.788692308 24.5693077,1.211 C24.8585385,1.97869231 25.0123846,2.78330769 25.2139231,3.57484615 C26.2662308,7.69330769 27.3100769,11.8148462 28.3562308,15.9348462 C28.3731538,16.0017692 28.3831538,16.071 28.4431538,16.1271538" id="Fill-1" fill="#FFFFFF"></path>
                    <g id="Group-5" transform="translate(0.000000, 25.702846)">
                        <mask id="mask-10" fill="white">
                            <use xlink:href="#path-9"></use>
                        </mask>
                        <g id="Clip-4"></g>
                        <path d="M33.4401538,13.8453077 C27.2109231,13.8376154 21.6247692,12.8822308 16.2170769,10.9283846 C11.1278462,9.08915385 6.47938462,6.463 2.27169231,3.05915385 C1.61476923,2.52684615 0.974769231,1.97453846 0.341692308,1.41530769 C0.321692308,1.39761538 0.301692308,1.38069231 0.283230769,1.36223077 C-0.0167692308,1.06992308 -0.0836923077,0.732230769 0.107846154,0.477615385 C0.288615385,0.236846154 0.635538462,0.189153846 0.987076923,0.378384615 C1.72246154,0.776076923 2.44630769,1.19453846 3.18553846,1.58376923 C7.65476923,3.93684615 12.3455385,5.71992308 17.2355385,6.97992308 C19.6901538,7.61146154 22.174,8.09915385 24.6847692,8.453 C28.1786154,8.94453846 31.6886154,9.14992308 35.2155385,9.07530769 C37.5701538,9.02530769 39.9124615,8.82684615 42.2455385,8.50838462 C47.4516923,7.79838462 52.5016923,6.48915385 57.394,4.57376923 C57.8878462,4.37992308 58.3763077,4.17223077 58.8686154,3.97376923 C59.1147692,3.87376923 59.3670769,3.83069231 59.6347692,3.88992308 C60.3824615,4.053 60.6516923,4.84684615 60.1432308,5.41992308 C59.8624615,5.73530769 59.4947692,5.94530769 59.1516923,6.183 C55.8463077,8.46915385 52.2332308,10.123 48.4232308,11.3645385 C45.3863077,12.3545385 42.2801538,13.043 39.1132308,13.4514615 C37.0716923,13.7145385 35.0209231,13.8614615 33.4401538,13.8453077" id="Fill-3" fill="#FE9A01" mask="url(#mask-10)"></path>
                    </g>
                    <path d="M11.5914615,11.1526923 C10.6837692,11.1296154 9.97915385,11.1496154 9.28530769,11.3003846 C8.09992308,11.5588462 7.17069231,12.1442308 6.76761538,13.3542308 C6.55915385,13.9765385 6.56146154,14.6188462 6.64069231,15.2657692 C6.78992308,16.4796154 7.59530769,17.4019231 8.79838462,17.605 C10.3399231,17.8642308 11.803,17.5842308 13.1214615,16.7311538 C14.0606923,16.1234615 14.7091538,15.2857692 14.9099231,14.1480769 C15.0476154,13.3711538 15.063,12.5903846 15.0606923,11.8065385 C15.0599231,11.6680769 14.9983846,11.635 14.8799231,11.6073077 C13.7314615,11.3396154 12.5683846,11.1888462 11.5914615,11.1526923 M15.253,17.555 C14.8568462,17.985 14.4676154,18.3934615 14.0283846,18.7526923 C12.3960769,20.0888462 10.5114615,20.6465385 8.42146154,20.5734615 C7.39915385,20.5373077 6.413,20.3434615 5.513,19.8380769 C3.83069231,18.8934615 2.96530769,17.4173077 2.77684615,15.5273077 C2.64915385,14.255 2.793,13.0165385 3.41453846,11.8773077 C4.263,10.3234615 5.61223077,9.39269231 7.28069231,8.89961538 C8.71607692,8.47576923 10.1837692,8.46038462 11.6606923,8.605 C12.7199231,8.70884615 13.763,8.90269231 14.7991538,9.13807692 C14.8806923,9.15653846 15.0153077,9.24115385 15.0122308,9.03961538 C14.9953077,8.02192308 15.0714615,7.00038462 14.8722308,5.99038462 C14.5176154,4.19653846 13.613,3.38346154 11.7953077,3.13346154 C9.77607692,2.85576923 7.863,3.255 5.98453846,3.94192308 C5.593,4.085 5.20761538,4.24961538 4.80992308,4.37269231 C4.29992308,4.53038462 4.05915385,4.35423077 4.03992308,3.82115385 C4.02453846,3.38576923 4.04146154,2.95038462 4.03761538,2.515 C4.03376923,2.04576923 4.25761538,1.73115385 4.66530769,1.515 C5.34453846,1.15423077 6.05915385,0.886538462 6.79223077,0.661923077 C8.93684615,0.00576923077 11.1176154,-0.142692308 13.3291538,0.217307692 C14.433,0.397307692 15.473,0.758076923 16.3691538,1.45269231 C17.6206923,2.42038462 18.1953077,3.765 18.4645385,5.27269231 C18.5899231,5.97730769 18.6253077,6.69038462 18.6245385,7.40653846 C18.6214615,9.62884615 18.6153077,11.8503846 18.6291538,14.0726923 C18.6322308,14.5919231 18.6906923,15.1119231 18.7568462,15.6280769 C18.8606923,16.435 19.2337692,17.1488462 19.5960769,17.8626923 C19.8799231,18.4203846 19.8022308,18.7519231 19.283,19.1065385 C18.8653077,19.3911538 18.4445385,19.6703846 18.0214615,19.9473077 C17.4568462,20.3157692 17.0683846,20.2596154 16.6199231,19.7596154 C16.1799231,19.2696154 15.8368462,18.7173077 15.543,18.1311538 C15.4499231,17.9457692 15.3568462,17.7611538 15.253,17.555" id="Fill-6" fill="#FFFFFF"></path>
                    <path d="M56.5054615,0.00561538462 C57.9816154,-0.00130769231 59.4146923,0.256384615 60.807,0.739461538 C61.0362308,0.819461538 61.2554615,0.927923077 61.4739231,1.03330769 C62.1308462,1.34792308 62.467,1.85023077 62.4016154,2.59946154 C62.3723846,2.92869231 62.4231538,3.261 62.3723846,3.591 C62.3123846,3.98869231 62.0831538,4.13792308 61.687,4.04715385 C61.3531538,3.971 61.0546923,3.80484615 60.7393077,3.68176923 C58.8762308,2.95561538 56.9608462,2.77023077 54.9946923,3.14484615 C54.7293077,3.19484615 54.477,3.29023077 54.2293077,3.39869231 C53.3946923,3.76407692 52.9293077,4.39330769 52.8631538,5.30484615 C52.8016154,6.15407692 53.1077692,6.83561538 53.8116154,7.32869231 C54.5708462,7.86023077 55.4423846,8.13561538 56.3100769,8.42253846 C57.5723846,8.83946154 58.8662308,9.16330769 60.0946923,9.67946154 C61.3046923,10.1879231 62.3223846,10.9263846 62.9416154,12.1302308 C64.0808462,14.3456154 63.4477692,17.2102308 61.457,18.8640769 C60.367,19.7694615 59.087,20.2517692 57.717,20.4879231 C55.1816154,20.9263846 52.7231538,20.5625385 50.3339231,19.6571538 C50.0646923,19.5556154 49.817,19.4094615 49.5723846,19.2571538 C49.1739231,19.0094615 48.9885385,18.6456154 48.9785385,18.1894615 C48.9693077,17.7971538 48.9685385,17.4048462 48.9777692,17.0133077 C48.9916154,16.4494615 49.2800769,16.2379231 49.8216154,16.4133077 C50.4746923,16.6248462 51.0885385,16.9425385 51.7500769,17.1340769 C53.4346923,17.621 55.1446923,17.8186923 56.8908462,17.5733077 C57.5600769,17.4794615 58.1916154,17.2763846 58.767,16.9048462 C60.1454615,16.0140769 60.3131538,13.7394615 58.6000769,12.8363846 C57.9416154,12.4894615 57.2439231,12.2548462 56.5408462,12.0263846 C55.2677692,11.6133077 53.9600769,11.3033077 52.7277692,10.7717692 C51.0808462,10.0625385 49.9077692,8.89946154 49.3985385,7.15176923 C48.8016154,5.10792308 49.5231538,2.96561538 51.2031538,1.63715385 C52.537,0.581769231 54.0754615,0.111 55.7477692,0.00792307692 C55.9993077,-0.00823076923 56.2523846,0.00561538462 56.5054615,0.00561538462" id="Fill-8" fill="#FFFFFF"></path>
                    <path d="M61.5866154,24.645 C62.7435385,24.6703846 63.862,24.7434615 64.9543077,25.0465385 C65.9966154,25.3365385 66.2343077,25.6226923 66.2320166,26.7011538 C66.2281538,28.6103846 65.7335385,30.4157692 64.9981538,32.1611538 C64.3081538,33.7996154 63.3758462,35.2773077 62.0366154,36.4734615 C61.8804615,36.6126923 61.7243077,36.7503846 61.5204615,36.8211538 C61.3466154,36.8811538 61.1758462,36.905 61.0304615,36.7673077 C60.8943077,36.6373077 60.8896923,36.4680769 60.9504615,36.305 C61.1304615,35.825 61.3212308,35.3496154 61.5050769,34.8711538 C62.0804615,33.3780769 62.6343077,31.8765385 62.9666154,30.3057692 C63.0943077,29.7019231 63.2050769,29.0942308 63.1081538,28.4688462 C63.0435385,28.0526923 62.8296923,27.7696154 62.4443077,27.6034615 C61.8404615,27.3419231 61.1981538,27.2819231 60.5543077,27.2534615 C58.992,27.1842308 57.4373846,27.3096154 55.8858462,27.4796154 C55.3927692,27.5334615 54.9004615,27.5973077 54.4073846,27.6503846 C54.192,27.6742308 53.9666154,27.6588462 53.862,27.4373077 C53.7596923,27.2226923 53.8650769,27.0265385 54.0158462,26.8680769 C54.3204615,26.5480769 54.7104615,26.345 55.0912308,26.1365385 C56.4535385,25.3919231 57.9258462,24.9980769 59.4550769,24.7903846 C60.1727692,24.6926923 60.8950769,24.6642308 61.5866154,24.645" id="Fill-10" fill="#FE9A01"></path>
                </g>
                <rect id="Rectangle" fill="url(#linearGradient-11)" x="146" y="197" width="565" height="5"></rect>
                <path d="M687.78196,234 L517,234 C514.790861,234 512.790861,233.104569 511.343146,231.656854 C509.895431,230.209139 509,228.209139 509,226 L509,174 C509,171.790861 509.895431,169.790861 511.343146,168.343146 C512.790861,166.895431 514.790861,166 517,166 L701,166 C703.209139,166 705.209139,166.895431 706.656854,168.343146 C708.104569,169.790861 709,171.790861 709,174 L709,216.460938 L709,226 C709,228.209139 708.104569,230.209139 706.656854,231.656854 C705.209139,233.104569 703.209139,234 701,234 L687.78196,234 Z" id="Rectangle-Copy-21" stroke="url(#linearGradient-12)" stroke-width="4" fill="#1B3549"></path>
                <g id="Group-23" transform="translate(544.000000, 181.000000)">
                    <text id="Crossplane-Copy" font-family="Avenir-Black, Avenir" font-size="18" font-weight="700" line-spacing="22" fill="#FFFFFF">
                        <tspan x="33" y="24">Crossplane</tspan>
                    </text>
                    <g id="Crossplane-Icon-Copy">
                        <g id="Group-3" transform="translate(0.000000, 3.271738)">
                            <mask id="mask-14" fill="white">
                                <use xlink:href="#path-13"></use>
                            </mask>
                            <g id="Clip-2"></g>
                            <path d="M3.08535517,25.8898984 C2.85073448,25.8160787 2.64001034,25.6918 2.43456207,25.5619148 C1.22421724,24.7975541 0.444010345,23.7210951 0.118458621,22.3197672 C0.0365275862,21.9665541 -9.31034483e-05,21.6077344 -9.31034483e-05,21.2445541 C0.00114827586,19.472882 0.000527586207,17.7015213 0.000837931034,15.9295377 C0.000837931034,15.8874885 0.00549310345,15.8451279 0.00797586207,15.8024557 C0.0511137931,15.7632098 0.0958034483,15.7255213 0.13707931,15.6844066 C5.25187241,10.5516033 10.3663552,5.41817705 15.4808379,0.28475082 C15.5221138,0.24332459 15.5596655,0.198783607 15.598769,0.1558 C15.7762862,0.324931148 15.9159414,0.525521311 16.0583897,0.722996721 C16.8649759,1.84368525 17.3817,3.08771803 17.616631,4.44917705 C17.7007345,4.93663607 17.7389069,5.42907869 17.7401483,5.92307869 C17.7441828,7.61220984 17.7438724,9.30102951 17.7444931,10.9901607 C17.7444931,11.0589967 17.7382862,11.1275213 17.7351828,11.1966689 C17.6845966,11.2433902 17.6324586,11.2882426 17.5837345,11.3371443 C12.7954241,16.1422754 8.00742414,20.9480295 3.21942414,25.7537836 C3.17442414,25.7986361 3.13004483,25.844423 3.08535517,25.8898984" id="Fill-1" fill="#FFCE24" mask="url(#mask-14)"></path>
                        </g>
                        <g id="Group-6" transform="translate(0.000000, 0.156984)">
                            <mask id="mask-16" fill="white">
                                <use xlink:href="#path-15"></use>
                            </mask>
                            <g id="Clip-5"></g>
                            <path d="M15.5988621,3.27052295 C15.5597586,3.31350656 15.5218966,3.35804754 15.480931,3.39947377 C10.3664483,8.53321148 5.25196552,13.6663262 0.136862069,18.7991295 C0.0958965517,18.8402443 0.0512068966,18.8779328 0.00806896552,18.9171787 C0.00589655172,18.8536377 0.00124137931,18.7900967 0.00124137931,18.7265557 C0.000931034483,15.7641131 0.000931034483,12.8022934 0.00124137931,9.8401623 C0.00124137931,9.50532623 -0.00248275862,9.16986721 0.00403448276,8.83503115 C0.0254482759,7.70655574 0.260068966,6.62324426 0.697965517,5.58447377 C1.18148276,4.43730984 1.8747931,3.43404754 2.77851724,2.58185082 C4.0077931,1.42191639 5.44903448,0.667834426 7.10472414,0.330195082 C7.54634483,0.240178689 7.99168966,0.18847377 8.44168966,0.166047541 C10.0722414,0.0844409836 11.6056552,0.434227869 13.0459655,1.19858852 C13.9878621,1.69819508 14.804069,2.36008033 15.5147586,3.15527705 C15.5461034,3.19047377 15.570931,3.2319 15.5988621,3.27052295" id="Fill-4" fill="#F57F78" mask="url(#mask-16)"></path>
                        </g>
                        <path d="M3.08535517,29.1616361 C3.13004483,29.1161607 3.17442414,29.0703738 3.21942414,29.0255213 C8.00742414,24.2197672 12.7954241,19.4140131 17.5837345,14.608882 C17.6324586,14.5599803 17.6845966,14.5151279 17.7351828,14.4684066 C17.7382862,14.5266525 17.7444931,14.5845869 17.7444931,14.6431443 C17.7448034,17.9292098 17.7507,21.2155869 17.7429414,24.5019639 C17.7370448,27.0040459 15.951631,29.0519967 13.6035621,29.5002098 C13.3171138,29.5550295 13.0272517,29.5811934 12.7349069,29.5796361 C12.2104241,29.5774557 11.685631,29.5787016 11.1611483,29.5796361 C11.1034241,29.5796361 11.0444586,29.5712262 10.9876655,29.5902262 C10.9364586,29.5706033 10.8830793,29.5780787 10.830631,29.5777672 C9.61407931,29.5774557 8.39752759,29.5762098 7.18097586,29.5787016 C6.96466552,29.5793246 6.74804483,29.5656197 6.53173448,29.5902262 C6.47494138,29.5715377 6.41628621,29.5796361 6.35825172,29.5793246 C5.90235517,29.5787016 5.44645862,29.5783902 4.99056207,29.5793246 C4.37918276,29.580259 3.7917,29.4562918 3.22314828,29.2357672 C3.17473448,29.2170787 3.12104483,29.2058656 3.08535517,29.1616361" id="Fill-7" fill="#28D1BA"></path>
                        <g id="Group-11" transform="translate(6.517241, 29.435672)">
                            <mask id="mask-18" fill="white">
                                <use xlink:href="#path-17"></use>
                            </mask>
                            <g id="Clip-10"></g>
                            <path d="M0.0146482759,0.154554098 C0.230648276,0.129947541 0.44757931,0.143652459 0.663889655,0.143029508 C1.88044138,0.140537705 3.09668276,0.141783607 4.31323448,0.142095082 C4.3659931,0.142406557 4.41906207,0.135242623 4.47026897,0.154554098 C4.46933793,0.218406557 4.46747586,0.282259016 4.46747586,0.3458 C4.46592414,2.29719344 4.45909655,4.24858689 4.46561379,6.19935738 C4.46933793,7.21663607 3.71768276,8.18657049 2.63861379,8.37532459 C1.46116552,8.58152131 0.378062069,7.84519344 0.0869586207,6.73416066 C0.0400965517,6.55412787 0.014337931,6.36848852 0.0140275862,6.18347213 C0.0109241379,4.19002951 0.0121655172,2.19627541 0.0124758621,0.202209836 C0.0124758621,0.186636066 0.0140275862,0.17075082 0.0146482759,0.154554098" id="Fill-9" fill="#F8D281" mask="url(#mask-18)"></path>
                        </g>
                    </g>
                </g>
                <g id="Rectangle">
                    <use fill="black" fill-opacity="1" filter="url(#filter-20)" xlink:href="#path-19"></use>
                    <path stroke="#C8C3FF" stroke-width="2" d="M1019.68035,235 L798,235 C795.514719,235 793.264719,233.992641 791.636039,232.363961 C790.007359,230.735281 789,228.485281 789,226 L789,174 C789,171.514719 790.007359,169.264719 791.636039,167.636039 C793.264719,166.007359 795.514719,165 798,165 L1054,165 C1056.48528,165 1058.73528,166.007359 1060.36396,167.636039 C1061.99264,169.264719 1063,171.514719 1063,174 L1063,192.191738 C1063,194.602105 1062.03315,196.911743 1060.31601,198.603288 L1025.99637,232.41155 C1024.31259,234.070239 1022.0439,235 1019.68035,235 Z" stroke-linejoin="square" fill="#0D2436" fill-rule="evenodd"></path>
                </g>
                <rect id="Rectangle-Copy-20" stroke-opacity="0.35" stroke="#49C2D6" stroke-width="2" fill="#0B1C28" x="789" y="83" width="274" height="70" rx="10"></rect>
                <rect id="Rectangle-Copy-43" stroke-opacity="0.35" stroke="#FAAD13" stroke-width="2" fill="#0B1C28" x="789" y="247" width="274" height="70" rx="10"></rect>
                <g id="Group-21" opacity="0.596028646" transform="translate(788.000000, 0.000000)">
                    <rect id="Rectangle-Copy-21" stroke-opacity="0.1" stroke="#C8C3FF" stroke-width="2" fill="#0B1C28" x="1" y="1" width="274" height="70" rx="10"></rect>
                    <text id="Application-A" opacity="0.14734468" font-family="Avenir-Book, Avenir" font-size="16" font-weight="normal" line-spacing="22" fill="#D3E7F7">
                        <tspan x="77" y="40">Application A</tspan>
                    </text>
                    <g id="Group-6-Copy-3" opacity="0.0615234375" transform="translate(29.000000, 18.000000)">
                        <polygon id="Fill-1" fill="#FFFFFF" points="9.26193171 0 0.365443902 4.08458537 9.26193171 8.17053659 18.1584195 4.08458537"></polygon>
                        <polygon id="Fill-2" fill="#FFFFFF" points="10.0886049 20.1685854 18.9844098 24.2538537 27.8802146 20.1685854 18.9844098 16.084"></polygon>
                        <polygon id="Fill-3" fill="#43C5AE" points="19.1581463 25.2540585 19.1581463 35.3210829 27.8804878 31.2542537 27.8804878 21.1687902"></polygon>
                        <polygon id="Fill-4" fill="#EA595B" points="10.2991512 9.14786341 19.0214927 5.06259512 19.0214927 15.1480585 10.2991512 19.2148878"></polygon>
                        <polygon id="Fill-5" fill="#6553C0" points="0 27.4882634 17.7916098 35.6868 17.7916098 25.6197756 8.8964878 21.6280683 8.8964878 9.53645854 0 5.45050732"></polygon>
                    </g>
                </g>
                <g id="Group-20" opacity="0.602213542" transform="translate(788.000000, 328.000000)">
                    <rect id="Rectangle-Copy-44" stroke-opacity="0.1" stroke="#49C2D6" stroke-width="2" fill="#0B1C28" x="1" y="1" width="274" height="70" rx="10"></rect>
                    <text id="Application-B" opacity="0.14734468" font-family="Avenir-Book, Avenir" font-size="16" font-weight="normal" line-spacing="22" fill="#D3E7F7">
                        <tspan x="77" y="40">Application B</tspan>
                    </text>
                    <g id="Group-6-Copy-5" opacity="0.0615234375" transform="translate(29.000000, 18.000000)">
                        <polygon id="Fill-1" fill="#FFFFFF" points="9.26193171 0 0.365443902 4.08458537 9.26193171 8.17053659 18.1584195 4.08458537"></polygon>
                        <polygon id="Fill-2" fill="#FFFFFF" points="10.0886049 20.1685854 18.9844098 24.2538537 27.8802146 20.1685854 18.9844098 16.084"></polygon>
                        <polygon id="Fill-3" fill="#43C5AE" points="19.1581463 25.2540585 19.1581463 35.3210829 27.8804878 31.2542537 27.8804878 21.1687902"></polygon>
                        <polygon id="Fill-4" fill="#EA595B" points="10.2991512 9.14786341 19.0214927 5.06259512 19.0214927 15.1480585 10.2991512 19.2148878"></polygon>
                        <polygon id="Fill-5" fill="#49C2D6" points="0 27.4882634 17.7916098 35.6868 17.7916098 25.6197756 8.8964878 21.6280683 8.8964878 9.53645854 0 5.45050732"></polygon>
                    </g>
                </g>
                <text id="Application-C" font-family="Avenir-Heavy, Avenir" font-size="16" font-weight="600" line-spacing="22" fill="#FFFFFF">
                    <tspan x="865" y="203">Application C</tspan>
                </text>
                <text id="Application-B" opacity="0.353864397" font-family="Avenir-Book, Avenir" font-size="16" font-weight="normal" line-spacing="20" fill="#D3E7F7">
                    <tspan x="865" y="123">Application B</tspan>
                </text>
                <text id="Application-A" opacity="0.353864397" font-family="Avenir-Book, Avenir" font-size="16" font-weight="normal" line-spacing="20" fill="#D3E7F7">
                    <tspan x="865" y="287">Application A</tspan>
                </text>
                <g id="Group-6" transform="translate(817.000000, 182.000000)">
                    <polygon id="Fill-1" fill="#FFFFFF" points="9.26193171 0 0.365443902 4.08458537 9.26193171 8.17053659 18.1584195 4.08458537"></polygon>
                    <polygon id="Fill-2" fill="#FFFFFF" points="10.0886049 20.1685854 18.9844098 24.2538537 27.8802146 20.1685854 18.9844098 16.084"></polygon>
                    <polygon id="Fill-3" fill="#43C5AE" points="19.1581463 25.2540585 19.1581463 35.3210829 27.8804878 31.2542537 27.8804878 21.1687902"></polygon>
                    <polygon id="Fill-4" fill="#EA595B" points="10.2991512 9.14786341 19.0214927 5.06259512 19.0214927 15.1480585 10.2991512 19.2148878"></polygon>
                    <polygon id="Fill-5" fill="#6553C0" points="0 27.4882634 17.7916098 35.6868 17.7916098 25.6197756 8.8964878 21.6280683 8.8964878 9.53645854 0 5.45050732"></polygon>
                </g>
                <g id="Group-6-Copy-2" opacity="0.178269159" transform="translate(817.000000, 100.000000)">
                    <polygon id="Fill-1" fill="#FFFFFF" points="9.26193171 0 0.365443902 4.08458537 9.26193171 8.17053659 18.1584195 4.08458537"></polygon>
                    <polygon id="Fill-2" fill="#FFFFFF" points="10.0886049 20.1685854 18.9844098 24.2538537 27.8802146 20.1685854 18.9844098 16.084"></polygon>
                    <polygon id="Fill-3" fill="#43C5AE" points="19.1581463 25.2540585 19.1581463 35.3210829 27.8804878 31.2542537 27.8804878 21.1687902"></polygon>
                    <polygon id="Fill-4" fill="#EA595B" points="10.2991512 9.14786341 19.0214927 5.06259512 19.0214927 15.1480585 10.2991512 19.2148878"></polygon>
                    <polygon id="Fill-5" fill="#49C2D6" points="0 27.4882634 17.7916098 35.6868 17.7916098 25.6197756 8.8964878 21.6280683 8.8964878 9.53645854 0 5.45050732"></polygon>
                </g>
                <g id="Group-6-Copy-4" opacity="0.178269159" transform="translate(817.000000, 264.000000)">
                    <polygon id="Fill-1" fill="#FFFFFF" points="9.26193171 0 0.365443902 4.08458537 9.26193171 8.17053659 18.1584195 4.08458537"></polygon>
                    <polygon id="Fill-2" fill="#FFFFFF" points="10.0886049 20.1685854 18.9844098 24.2538537 27.8802146 20.1685854 18.9844098 16.084"></polygon>
                    <polygon id="Fill-3" fill="#43C5AE" points="19.1581463 25.2540585 19.1581463 35.3210829 27.8804878 31.2542537 27.8804878 21.1687902"></polygon>
                    <polygon id="Fill-4" fill="#EA595B" points="10.2991512 9.14786341 19.0214927 5.06259512 19.0214927 15.1480585 10.2991512 19.2148878"></polygon>
                    <polygon id="Fill-5" fill="#FAAD13" points="0 27.4882634 17.7916098 35.6868 17.7916098 25.6197756 8.8964878 21.6280683 8.8964878 9.53645854 0 5.45050732"></polygon>
                </g>
                <g id="Group-5-Copy-12" opacity="0.603376116" transform="translate(429.500000, 263.500000) rotate(-90.000000) translate(-429.500000, -263.500000) translate(420.000000, 251.000000)">
                    <mask id="mask-22" fill="white">
                        <use xlink:href="#path-21"></use>
                    </mask>
                    <g id="Clip-4"></g>
                    <path d="M18.066667,1.92187601 L18.066667,22.7146305 C18.066667,24.1417696 16.9647044,25.0698098 16.0283162,24.4307598 L0.777613029,14.0198421 C-0.259826195,13.3117252 -0.259026319,11.2927924 0.778946155,10.5864931 L16.029916,0.204656218 C16.9660376,-0.432576276 18.066667,0.495463973 18.066667,1.92187601" id="Fill-3" fill="#0B1C28" mask="url(#mask-22)"></path>
                </g>
                <g id="Group-5-Copy-13" opacity="0.603376116" transform="translate(233.500000, 263.500000) rotate(-90.000000) translate(-233.500000, -263.500000) translate(224.000000, 251.000000)">
                    <mask id="mask-24" fill="white">
                        <use xlink:href="#path-23"></use>
                    </mask>
                    <g id="Clip-4"></g>
                    <path d="M18.066667,1.92187601 L18.066667,22.7146305 C18.066667,24.1417696 16.9647044,25.0698098 16.0283162,24.4307598 L0.777613029,14.0198421 C-0.259826195,13.3117252 -0.259026319,11.2927924 0.778946155,10.5864931 L16.029916,0.204656218 C16.9660376,-0.432576276 18.066667,0.495463973 18.066667,1.92187601" id="Fill-3" fill="#0B1C28" mask="url(#mask-24)"></path>
                </g>
                <path d="M325.78196,234 L155,234 C152.790861,234 150.790861,233.104569 149.343146,231.656854 C147.895431,230.209139 147,228.209139 147,226 L147,174 C147,171.790861 147.895431,169.790861 149.343146,168.343146 C150.790861,166.895431 152.790861,166 155,166 L339,166 C341.209139,166 343.209139,166.895431 344.656854,168.343146 C346.104569,169.790861 347,171.790861 347,174 L347,216.460938 L347,226 C347,228.209139 346.104569,230.209139 344.656854,231.656854 C343.209139,233.104569 341.209139,234 339,234 L325.78196,234 Z" id="Rectangle-Copy-20" stroke="url(#linearGradient-25)" stroke-width="4" fill="#1B3549"></path>
                <path d="M473.797585,234 L381,234 C378.790861,234 376.790861,233.104569 375.343146,231.656854 C373.895431,230.209139 373,228.209139 373,226 L373,174 C373,171.790861 373.895431,169.790861 375.343146,168.343146 C376.790861,166.895431 378.790861,166 381,166 L477,166 C479.209139,166 481.209139,166.895431 482.656854,168.343146 C484.104569,169.790861 485,171.790861 485,174 L485,216.460938 L485,226 C485,228.209139 484.104569,230.209139 482.656854,231.656854 C481.209139,233.104569 479.209139,234 477,234 L473.797585,234 Z" id="Rectangle-Copy-45" stroke="url(#linearGradient-26)" stroke-width="4" fill="#1B3549"></path>
                <text id="Internal-Cloud-Platf" font-family="Avenir-Black, Avenir" font-size="13" font-weight="700" line-spacing="15" fill="#D3E7F7">
                    <tspan x="386" y="198">Internal Cloud </tspan>
                    <tspan x="402.8545" y="213">Platform</tspan>
                </text>
                <g id="Logo-white-Copy" transform="translate(189.000000, 185.000000)">
                    <path d="M14.9333333,11.3539829 L14.8758727,17.1268967 C14.8758727,22.6752348 9.6793945,23.8 7.87031202,23.8 C4.10849552,23.8 0.933333333,21.4447871 0.933333333,17.1268967 L0.933333333,11.0265555 C0.933333333,9.67721471 1.69051591,8.86666667 2.91572444,8.86666667 C4.17059005,8.86666667 4.92869941,9.67721471 4.92869941,11.0265555 L4.92869941,16.6635916 C4.92869941,18.8527318 6.00469571,20.0510974 7.87031202,20.0510974 C9.85548347,20.0510974 10.9370405,19.0320148 10.9370405,16.6635916 L10.9370405,11.3539829 C10.9370405,10.0046422 11.6951498,9.1959813 12.9490887,9.1959813 C14.175224,9.1959813 14.9333333,10.0046422 14.9333333,11.3539829" id="Fill-1" fill="#FFFFFF"></path>
                    <path d="M83.0666667,11.0248046 L83.0092061,17.1274186 C83.0092061,22.6751638 77.8127278,23.8 76.0054989,23.8 C72.2427556,23.8 69.0666667,21.4446382 69.0666667,17.1274186 L69.0666667,11.0248046 C69.0666667,9.67537862 69.8238492,8.86666667 71.0499846,8.86666667 C72.3048502,8.86666667 73.0620327,9.67537862 73.0620327,11.0248046 L73.0620327,16.6631406 C73.0620327,18.8524192 74.138029,20.0508605 76.0054989,20.0508605 C77.9888168,20.0508605 79.0703738,19.0317135 79.0703738,16.6631406 L79.0703738,11.0248046 C79.0703738,9.67537862 79.8294099,8.86666667 81.0833488,8.86666667 C82.3094841,8.86666667 83.0666667,9.67537862 83.0666667,11.0248046" id="Fill-3" fill="#FFFFFF"></path>
                    <g id="Group-7" transform="translate(17.266667, 9.333333)">
                        <mask id="mask-28" fill="white">
                            <use xlink:href="#path-27"></use>
                        </mask>
                        <g id="Clip-6"></g>
                        <path d="M15.3846933,7.54832711 C15.3846933,11.9862649 12.68176,14.8572812 8.59842667,14.8572812 C6.74856,14.8572812 5.25056,14.219379 4.25096,13.1169671 L4.19309333,13.1169671 L4.19309333,17.9591834 C4.19309333,19.2641908 3.42869333,20.0773108 2.16682667,20.0773108 C0.93296,20.0773108 0.16856,19.2641908 0.16856,17.9591834 L0.16856,2.50260267 C0.16856,1.19668267 0.93296,0.415503407 2.16682667,0.415503407 C3.25229333,0.415503407 3.98776,0.994999704 4.16322667,2.00980267 L4.22202667,2.00980267 C5.21976,0.878187852 6.71869333,0.24028563 8.59842667,0.24028563 C12.68176,0.24028563 15.3846933,3.11130193 15.3846933,7.54832711 M11.2724267,7.54832711 C11.2724267,5.344416 9.83229333,3.866016 7.77616,3.866016 C5.69016,3.866016 4.19309333,5.40282193 4.19309333,7.54832711 C4.19309333,9.69474489 5.69016,11.2315508 7.77616,11.2315508 C9.83229333,11.2315508 11.2724267,9.72394785 11.2724267,7.54832711" id="Fill-5" fill="#FFFFFF" mask="url(#mask-28)"></path>
                    </g>
                    <path d="M49.9333333,16.4287856 C49.9333333,20.9045273 47.2804727,23.8 43.2737006,23.8 C41.4287899,23.8 39.9585409,23.1566639 38.9783748,21.9868782 L38.9206641,21.9868782 C38.747532,23.0094053 38.0256901,23.6232897 36.9887294,23.6232897 C35.7493232,23.6232897 35,22.8050839 35,21.48896 L35,4.93525003 C35,3.61820572 35.7493232,2.8 36.9887294,2.8 C38.1997383,2.8 38.9499775,3.61820572 38.9499775,4.93525003 L38.9499775,10.8430819 L39.0067722,10.8430819 C39.9585409,9.70182758 41.4287899,9.05849148 43.2737006,9.05849148 C47.2804727,9.05849148 49.9333333,11.9539641 49.9333333,16.4287856 M45.8972478,16.4287856 C45.8972478,14.2061007 44.4837934,12.7151072 42.4675827,12.7151072 C40.4202266,12.7151072 38.9499775,14.2650042 38.9499775,16.4287856 C38.9499775,18.5934873 40.4202266,20.1433843 42.4675827,20.1433843 C44.4837934,20.1433843 45.8972478,18.622939 45.8972478,16.4287856" id="Fill-8" fill="#FFFFFF"></path>
                    <path d="M58.7849729,8.86666667 C63.2275416,8.86666667 66.2666667,11.8885781 66.2666667,16.3333333 C66.2666667,20.7482517 63.2275416,23.8 58.7849729,23.8 C54.3706369,23.8 51.3333333,20.7482517 51.3333333,16.3333333 C51.3333333,11.8885781 54.3706369,8.86666667 58.7849729,8.86666667 M58.7849729,20.0965035 C60.8487,20.0965035 62.2530544,18.5571096 62.2530544,16.3333333 C62.2530544,14.0825175 60.8487,12.5701632 58.7849729,12.5701632 C56.7494786,12.5701632 55.3451241,14.0825175 55.3451241,16.3333333 C55.3451241,18.5571096 56.7494786,20.0965035 58.7849729,20.0965035" id="Fill-10" fill="#FFFFFF"></path>
                    <path d="M99.4,15.5237289 L99.4,21.6108598 C99.4,22.9602005 98.6474505,23.8 97.4002632,23.8 C96.1825515,23.8 95.4290809,22.9602005 95.4290809,21.6108598 L95.4290809,16.0040187 C95.4290809,13.7846834 94.4425686,12.6155693 92.5303375,12.6155693 C90.5296796,12.6155693 89.369998,14.0243565 89.369998,16.3937234 L89.369998,21.6108598 C89.369998,22.9602005 88.6174485,23.8 87.3702612,23.8 C86.1525495,23.8 85.4,22.9602005 85.4,21.6108598 L85.4,11.2350899 C85.4,9.88669278 86.1525495,9.04783689 87.3702612,9.04783689 C88.4129614,9.04783689 89.1378775,9.64701967 89.3423646,10.6670458 L89.3994736,10.6670458 C90.3565103,9.49604448 91.7473913,8.86666667 93.5748799,8.86666667 C97.3717087,8.86666667 99.4,11.2058385 99.4,15.5237289" id="Fill-12" fill="#FFFFFF"></path>
                    <path d="M116.2,4.93442321 L116.2,21.4888587 C116.2,22.8050403 115.450769,23.6242023 114.210599,23.6242023 C113.171933,23.6242023 112.451096,23.010291 112.278901,21.9867987 L112.222113,21.9867987 C111.242067,23.1566357 109.771083,23.8 107.926398,23.8 C103.919202,23.8 101.266667,20.9053208 101.266667,16.4284625 C101.266667,11.953445 103.919202,9.05784537 107.926398,9.05784537 C109.771083,9.05784537 111.242067,9.70213008 112.190972,10.842514 L112.250507,10.842514 L112.250507,4.93442321 C112.250507,3.61732118 112.999738,2.8 114.210599,2.8 C115.450769,2.8 116.2,3.61732118 116.2,4.93442321 M112.250507,16.4284625 C112.250507,14.2655067 110.780438,12.7146213 108.733333,12.7146213 C106.715538,12.7146213 105.304089,14.2056802 105.304089,16.4284625 C105.304089,18.6227121 106.715538,20.1432241 108.733333,20.1432241 C110.780438,20.1432241 112.250507,18.5932591 112.250507,16.4284625" id="Fill-14" fill="#FFFFFF"></path>
                    <path d="M6.53333333,3.26617149 C6.53333333,5.06959729 5.07181136,6.53333333 3.26516613,6.53333333 C1.46152197,6.53333333 0,5.06959729 0,3.26617149 C0,1.46274569 1.46152197,0 3.26516613,0 C5.07181136,0 6.53333333,1.46274569 6.53333333,3.26617149" id="Fill-16" fill="#FFFFFF"></path>
                </g>
                <rect id="Rectangle-Copy-29" stroke-opacity="0.35" stroke="#C8C3FF" stroke-width="2" fill-opacity="0.7" fill="#1B3549" x="1" y="205" width="126" height="38" rx="10"></rect>
                <text id="Operators" font-family="Avenir-Book, Avenir" font-size="13" font-weight="normal" line-spacing="13" fill="#FFFFFF">
                    <tspan x="36.8515" y="226.779968">Operators</tspan>
                </text>
                <g id="Group-22-Copy" transform="translate(0.000000, 156.000000)">
                    <rect id="Rectangle-Copy-29" stroke-opacity="0.35" stroke="#C8C3FF" stroke-width="2" fill-opacity="0.7" fill="#1B3549" x="1" y="1" width="126" height="38" rx="10"></rect>
                    <text id="Developers" font-family="Avenir-Book, Avenir" font-size="13" font-weight="normal" line-spacing="13" fill="#FFFFFF">
                        <tspan x="33.2245" y="23.7799683">Developers</tspan>
                    </text>
                </g>
                <g id="Group-24" transform="translate(624.500000, 263.500000) rotate(-90.000000) translate(-624.500000, -263.500000) translate(615.000000, 251.000000)">
                    <g id="Group-5-Copy-8" filter="url(#filter-29)" opacity="0.603376116">
                        <mask id="mask-31" fill="white">
                            <use xlink:href="#path-30"></use>
                        </mask>
                        <g id="Clip-4"></g>
                        <path d="M16.5478147,1.66666988 L16.566667,22.7146305 C16.566667,22.8012716 16.563023,22.8895679 16.5479343,22.9692924 L1.62324748,12.7809304 C1.4789028,12.6824061 1.49993909,12.4601631 1.50000009,12.3030763 C1.50006086,12.1465707 1.47871212,11.9246645 1.6230325,11.8264601 L16.5478147,1.66666988 Z" id="Fill-3" stroke="#C8C3FF" stroke-width="3" fill="#0B1C28" mask="url(#mask-31)"></path>
                    </g>
                    <path d="M14.6153846,17.5639527 C14.6153846,18.2590905 14.0523609,18.7111248 13.5739338,18.3998532 L5.78191979,13.3288529 C5.25186286,12.9839399 5.25227154,12.0005482 5.78260092,11.6565205 L13.5747511,6.59968495 C14.053042,6.28929864 14.6153846,6.741333 14.6153846,7.43611671 L14.6153846,17.5639527 Z" id="Fill-3" fill="#C8C3FF"></path>
                </g>
                <g id="Group-24-Copy" transform="translate(740.000000, 187.000000)">
                    <g id="Group-5-Copy-8" filter="url(#filter-32)" opacity="0.603376116">
                        <mask id="mask-34" fill="white">
                            <use xlink:href="#path-33"></use>
                        </mask>
                        <g id="Clip-4"></g>
                        <path d="M16.5478147,1.66666988 L16.566667,22.7146305 C16.566667,22.8012716 16.563023,22.8895679 16.5479343,22.9692924 L1.62324748,12.7809304 C1.4789028,12.6824061 1.49993909,12.4601631 1.50000009,12.3030763 C1.50006086,12.1465707 1.47871212,11.9246645 1.6230325,11.8264601 L16.5478147,1.66666988 Z" id="Fill-3" stroke="#C8C3FF" stroke-width="3" fill="#0B1C28" mask="url(#mask-34)"></path>
                    </g>
                    <path d="M14.6153846,17.5639527 C14.6153846,18.2590905 14.0523609,18.7111248 13.5739338,18.3998532 L5.78191979,13.3288529 C5.25186286,12.9839399 5.25227154,12.0005482 5.78260092,11.6565205 L13.5747511,6.59968495 C14.053042,6.28929864 14.6153846,6.741333 14.6153846,7.43611671 L14.6153846,17.5639527 Z" id="Fill-3" fill="#C8C3FF"></path>
                </g>
                <g id="Group-52" transform="translate(574.000000, 321.000000)">
                    <g id="Group-51" transform="translate(0.000000, -0.000000)">
                        <g id="Group-3" transform="translate(0.000000, 43.589432)">
                            <mask id="mask-36" fill="white">
                                <use xlink:href="#path-35"></use>
                            </mask>
                            <g id="Clip-2"></g>
                            <path d="M6.8603953,4.92404305 C6.13585519,4.92404305 5.4329589,4.92764384 4.73010176,4.92294716 C4.13264579,4.91895499 4.20740117,5.00372994 4.20348728,4.41347554 C4.19926027,3.7794638 4.20235225,3.77942466 4.84407436,3.77942466 C5.7961683,3.77942466 6.74822309,3.77781996 7.70027789,3.78036399 C8.02387867,3.78126419 8.02775342,3.78580431 8.04951468,4.09907241 C8.07761644,4.50314286 8.0687319,4.90615656 8.00634442,5.30783953 C7.75965166,6.89629354 6.43319374,8.08071624 4.79460274,8.26537378 C3.19256751,8.44588258 1.86767515,7.91155773 0.858868885,6.64768297 C-0.279174168,5.22196869 -0.28390998,3.1569589 0.830649706,1.70944423 C2.27745988,-0.169577299 4.89323288,-0.540497065 6.70931898,0.876058708 C6.77096282,0.92416047 6.82787084,0.97860274 6.89123679,1.02423875 C7.0368728,1.12917025 7.02055186,1.22936595 6.89041487,1.33269276 C6.85996477,1.35684149 6.8352681,1.38815264 6.80708806,1.41527593 C6.62892759,1.58678278 6.47538552,1.84416047 6.26505284,1.90490411 C6.06047358,1.96400391 5.89291977,1.67104892 5.6885362,1.56220352 C4.67432877,1.02220352 3.65428963,0.999933464 2.67472016,1.60322114 C1.68419178,2.2132407 1.22063014,3.14142074 1.25659883,4.30502153 C1.31010176,6.03418004 2.93820352,7.63578474 5.13381996,7.01742857 C5.94693151,6.78846575 6.79147162,6.13977691 6.8603953,4.92404305" id="Fill-1" fill="#FFFFFF" mask="url(#mask-36)"></path>
                        </g>
                        <g id="Group-6" transform="translate(20.078278, 46.524853)">
                            <mask id="mask-38" fill="white">
                                <use xlink:href="#path-37"></use>
                            </mask>
                            <g id="Clip-5"></g>
                            <path d="M4.08510763,2.70432094 C4.09688845,2.45880235 4.04068493,2.20584736 3.93618395,1.96389041 C3.51645793,0.991835616 2.34166341,0.79132681 1.62322896,1.56788258 C1.08694716,2.14753033 1.04863014,3.10209002 1.53645793,3.72929159 C2.20240705,4.58553425 3.44753425,4.4570411 3.91861057,3.48068102 C4.0330137,3.24353816 4.09003914,2.98964384 4.08510763,2.70432094 M3.99062622,4.79214873 C3.20103718,5.48396869 2.36283757,5.52666928 1.51473581,5.10827397 C0.593287671,4.65371429 0.0694520548,3.88643444 0.023111546,2.84381213 C-0.0373972603,1.48103327 0.845381605,0.32874364 2.11966732,0.0710919765 C2.7760274,-0.061667319 3.24612524,0.0602113503 3.94534247,0.545221135 C4.03540117,0.521502935 4.00819961,0.443420744 4.00600783,0.388626223 C3.9997456,0.233753425 4.07187867,0.184986301 4.21872798,0.190309198 C4.44001957,0.19837182 4.6625636,0.203499022 4.88322896,0.188978474 C5.08636008,0.175671233 5.12350294,0.2761409 5.12013699,0.447530333 C5.11324853,0.799272016 5.11821918,1.15124853 5.11821918,1.50318591 C5.11821918,2.65003523 5.11919765,3.79692368 5.1174364,4.94381213 C5.11704501,5.21715851 5.10761252,5.48905675 5.06088063,5.76107241 C4.83156556,7.09598434 3.77066536,7.7777456 2.50831703,7.74862622 C1.53457926,7.72616047 0.835988258,7.2377456 0.34816047,6.42044618 C0.20667319,6.18353816 0.217162427,6.17238356 0.476966732,6.05798043 C0.512739726,6.04220744 0.549412916,6.02866536 0.585499022,6.0138317 C0.7781409,5.93449706 0.967847358,5.80028963 1.16412916,5.78991781 C1.40084149,5.77739335 1.42401174,6.07187476 1.56060665,6.21531898 C1.97176125,6.64721722 2.4558317,6.77340117 3.0204501,6.62702153 C3.57645793,6.4828728 3.86322896,6.09888063 3.9662818,5.55140509 C4.01,5.31923288 4.01626223,5.08803914 3.99062622,4.79214873" id="Fill-4" fill="#FFFFFF" mask="url(#mask-38)"></path>
                        </g>
                        <g id="Group-9" transform="translate(92.485323, 46.603131)">
                            <mask id="mask-40" fill="white">
                                <use xlink:href="#path-39"></use>
                            </mask>
                            <g id="Clip-8"></g>
                            <path d="M4.02515851,0.911499022 C4.11063796,0.809855186 4.16852446,0.740774951 4.22664579,0.671890411 C4.8376047,-0.0516320939 5.8099726,-0.103217221 6.48226223,0.132790607 C6.87236008,0.269776908 7.12742857,0.563671233 7.29658708,0.933651663 C7.43948337,1.24617613 7.51055969,1.57619569 7.5113816,1.91924853 C7.51376908,2.88410176 7.51423875,3.84899413 7.51169472,4.81384736 C7.51095108,5.11063796 7.50535421,5.11920939 7.20836791,5.11639139 C6.45173386,5.10907241 6.58684149,5.21463014 6.57893542,4.514591 C6.57071624,3.78449315 6.57838748,3.05423875 6.57607828,2.32406262 C6.57537378,2.11592172 6.57486497,1.90828963 6.52832877,1.7018317 C6.34531507,0.889737769 5.43251663,0.579796477 4.79490411,1.12476712 C4.40468885,1.45823092 4.23525636,1.90100978 4.23314286,2.40821135 C4.22985519,3.20355382 4.23372994,3.99897456 4.23114677,4.79431703 C4.23009002,5.11181213 4.22594129,5.11181213 3.90891585,5.11783953 C3.29032485,5.12954207 3.29032485,5.12954207 3.29032485,4.50194912 C3.29028571,3.74570646 3.2922818,2.9894638 3.28864188,2.23322114 C3.28778082,2.06441487 3.28034442,1.89349511 3.25255577,1.72746771 C3.18813307,1.34284932 3.0115773,1.03095108 2.60719374,0.925041096 C2.18124462,0.813495108 1.77568689,0.851733855 1.44421918,1.18230137 C1.09200783,1.53365166 0.947585127,1.96981605 0.946058708,2.45838748 C0.94378865,3.1885636 0.945393346,3.91873973 0.945236791,4.64891585 C0.945197652,4.74018787 0.942066536,4.83153816 0.944727984,4.92269276 C0.948367906,5.04656751 0.906136986,5.12457143 0.767389432,5.11658708 C0.754434442,5.11584344 0.741283757,5.11666536 0.728289628,5.11764384 C0.0099334638,5.17189041 0.0099334638,5.17189041 0.0099334638,4.44472798 C0.0099334638,3.14085323 0.00922896282,1.83697847 0.0104031311,0.533064579 C0.0107553816,0.177017613 0.0134168297,0.177017613 0.376704501,0.173534247 C0.891303327,0.168524462 0.891303327,0.168524462 0.941792564,0.712477495 C1.08570646,0.726019569 1.12868102,0.592203523 1.20840705,0.521401174 C1.70147945,0.0836712329 2.27427789,-0.0683444227 2.91556947,0.0474285714 C3.40868102,0.136469667 3.76590215,0.424571429 4.02515851,0.911499022" id="Fill-7" fill="#FFFFFF" mask="url(#mask-40)"></path>
                        </g>
                        <path d="M59.2212877,49.2118982 C59.2484501,49.0281018 59.2014051,48.8088063 59.1333033,48.5996477 C58.9418748,48.0114677 58.558,47.6060665 57.9341252,47.5001957 C57.2632838,47.3863014 56.714908,47.6318591 56.3696634,48.2146771 C55.9747906,48.8812524 55.9780783,49.5906849 56.3614834,50.2589824 C56.6695851,50.796047 57.1674325,51.0679452 57.8005049,51.0090411 C58.4131468,50.9520157 58.8298982,50.6074755 59.0745949,50.0527202 C59.1860235,49.8000783 59.2318552,49.5307632 59.2212877,49.2118982 M59.209272,51.0979648 C59.0243405,51.2583953 58.8889589,51.3970254 58.7333816,51.5071624 C58.0053973,52.0223875 56.9693112,52.0044618 56.2387045,51.4728376 C54.8057104,50.4301761 54.7776086,48.1378474 56.1845362,47.0593738 C56.972638,46.4552642 58.0496634,46.4535812 58.8369041,47.0556164 C58.878274,47.0872798 58.9152603,47.124775 58.9573346,47.1553425 C59.0070802,47.191546 59.0501722,47.2556164 59.1245753,47.2234442 C59.2169041,47.1835225 59.1967476,47.0963601 59.1961213,47.0217221 C59.190681,46.330998 59.1836751,45.6402348 59.1774912,44.9495108 C59.1766693,44.8582779 59.1797221,44.7669667 59.1779609,44.675773 C59.1758082,44.5661448 59.2200352,44.5030112 59.3367084,44.5032485 C59.545319,44.5037965 59.7539687,44.5038748 59.9625793,44.5030112 C60.0724423,44.5026223 60.1336947,44.5488845 60.1311115,44.6654795 C60.1293894,44.7436399 60.1324423,44.8218787 60.1324423,44.9001174 C60.1325597,47.0252838 60.1325597,49.1504501 60.1324814,51.2756556 C60.1324814,51.3538552 60.1281761,51.4322505 60.132364,51.5102544 C60.1401918,51.6563209 60.0807397,51.7321331 59.928137,51.7208611 C59.9021879,51.7189432 59.8759648,51.720274 59.8499374,51.7210959 C59.2385479,51.7406654 59.2385479,51.7407045 59.209272,51.0979648" id="Fill-10" fill="#FFFFFF"></path>
                        <path d="M41.6115147,50.6098943 C41.1272094,51.1801487 40.5140587,51.5474677 39.7921409,51.7463327 C38.0770724,52.2187006 36.2973855,51.513456 35.4702231,49.9772133 C34.3364462,47.871499 35.2715538,44.9527906 37.982317,44.4107162 C39.1342153,44.1804227 40.2145284,44.3874677 41.1198513,45.2051194 C41.4464266,45.5000705 41.4452524,45.501362 41.1441174,45.7953346 C41.1347632,45.804454 41.1254873,45.8135734 41.1161331,45.8226536 C40.7959374,46.1324775 40.7925714,46.1361566 40.4747241,45.8485636 C39.2115538,44.7056282 36.6223953,45.1239843 36.0758982,47.2815186 C35.8432172,48.2003053 35.9346458,49.1010881 36.526818,49.8874286 C37.5179335,51.2035147 39.447092,51.3559217 40.679499,50.2271546 C40.9934325,49.9395616 40.9955068,49.9375656 41.294411,50.2428493 C41.4022387,50.3529863 41.5339413,50.4437104 41.6115147,50.6098943" id="Fill-12" fill="#FFFFFF"></path>
                        <path d="M12.6145675,49.2326145 C12.6197339,48.393593 12.1019256,47.7437691 11.3600861,47.6394247 C10.3269746,47.4941409 9.5588728,48.3325753 9.64466536,49.3588376 C9.70623092,50.0957456 10.19582,50.6681135 10.8259569,50.7869393 C11.8007906,50.970775 12.6081487,50.2691311 12.6145675,49.2326145 M11.1514364,51.882705 C9.6249002,51.8896399 8.46090802,50.7516751 8.44834442,49.2400117 C8.43581996,47.7359413 9.59930333,46.5631429 11.1122192,46.5548397 C12.6322192,46.5465871 13.8017299,47.6912446 13.815546,49.2008337 C13.829362,50.7064697 12.6678356,51.8757456 11.1514364,51.882705" id="Fill-14" fill="#FFFFFF"></path>
                        <path d="M15.4675616,49.2539413 C15.4695577,49.293863 15.4683444,49.3985597 15.480908,49.5016517 C15.5900665,50.3948415 16.462317,50.9946067 17.3290489,50.7745675 C18.0820822,50.5833738 18.5793033,49.7267397 18.4187162,48.897229 C18.288775,48.2259569 17.7991859,47.7243131 17.1943327,47.642591 C16.2281487,47.5121018 15.4774247,48.1849785 15.4675616,49.2539413 M16.9628258,51.8827418 C15.4323757,51.8898317 14.2841174,50.7573464 14.2749849,49.2319452 C14.2660352,47.7182857 15.4204775,46.5587945 16.9401252,46.5551455 C18.4677182,46.5514364 19.6221996,47.6917495 19.6272259,49.2090881 C19.6322192,50.7335499 18.4940587,51.8756243 16.9628258,51.8827418" id="Fill-16" fill="#FFFFFF"></path>
                        <path d="M28.913683,49.0598904 C28.9804149,49.0598904 29.0226849,49.0713581 29.054818,49.0581683 C29.7289863,48.7815734 30.4011585,48.5002035 31.0757573,48.2247828 C31.2267945,48.1631389 31.2464814,48.0851742 31.144407,47.9633738 C31.0590059,47.8614951 30.9543875,47.7858004 30.8365793,47.7278356 C30.3830763,47.5046654 29.9536438,47.5648219 29.5450333,47.842865 C29.117636,48.1337456 28.8987319,48.529362 28.913683,49.0598904 M29.1370881,50.0265049 C29.4501213,50.8933151 30.6953268,51.0659178 31.3687515,50.4455656 C31.482137,50.3411037 31.5483992,50.1426301 31.7014325,50.1382074 C31.8634677,50.1335108 31.9912172,50.2928845 32.1306693,50.3849002 C32.6611585,50.7350763 32.6469902,50.723726 32.1923914,51.174998 C30.9242114,52.4339413 28.3600626,52.0481096 27.8243288,49.9479139 C27.5518434,48.8796947 27.7689472,47.9012994 28.6324697,47.1409472 C29.6481252,46.2466223 31.1862466,46.3787554 32.041863,47.425683 C32.1321957,47.5362505 32.2170881,47.6528063 32.2914129,47.7745675 C32.7474207,48.5216517 32.7460509,48.5221213 31.9563836,48.8476791 C31.1385362,49.1849002 30.3207671,49.522317 29.5035068,49.8609863 C29.3838982,49.9104971 29.2673816,49.9674051 29.1370881,50.0265049" id="Fill-18" fill="#FFFFFF"></path>
                        <path d="M64.5537573,46.6235303 C64.5537573,46.9490489 64.5508219,47.2746067 64.5546184,47.600047 C64.5580235,47.8898317 64.561272,47.8938239 64.8636595,47.8958591 C65.2803327,47.8986771 65.6973581,47.8843914 66.1137182,47.8957417 C66.8969276,47.9171115 67.3811155,47.1856438 67.376771,46.6677573 C67.3710959,45.9901057 66.8571624,45.4288924 66.1546967,45.3961722 C65.699863,45.374998 65.2430724,45.3983249 64.7876125,45.3866614 C64.586908,45.3815734 64.5472211,45.4743718 64.5515264,45.647092 C64.5596673,45.9723757 64.5538748,46.2980509 64.5537573,46.6235303 M63.611683,48.0866223 C63.611683,47.017816 63.6110176,45.9490489 63.6120352,44.8802427 C63.6123875,44.5119843 63.6143444,44.5092446 63.96409,44.5083836 C64.6941096,44.5066223 65.4242857,44.5003992 66.1542661,44.5097143 C67.5685519,44.5277965 68.5294521,45.6798121 68.3011937,47.0730802 C68.1703523,47.8714755 67.446908,48.5753503 66.5870254,48.7488532 C66.1343444,48.8402035 65.6772407,48.7891663 65.2222896,48.8067789 C65.0161057,48.8147632 64.7570841,48.7189119 64.6169667,48.8529628 C64.4597847,49.0033346 64.5597847,49.2730802 64.5568102,49.4897534 C64.5480431,50.1283444 64.5555186,50.767092 64.5524658,51.4057613 C64.5510176,51.7128063 64.5465949,51.7223953 64.261272,51.719225 C63.4759883,51.7105362 63.6206849,51.8279922 63.613953,51.0975029 C63.6047554,50.0939413 63.611683,49.0902231 63.611683,48.0866223" id="Fill-20" fill="#FFFFFF"></path>
                        <path d="M73.2931311,49.2834129 C72.8658904,49.2708885 72.4704305,49.3184031 72.1575538,49.6266614 C71.7090607,50.0685793 71.8244423,50.6771115 72.4005675,50.9200078 C73.1896869,51.252728 74.2510568,50.6635303 74.3912133,49.8194599 C74.4184932,49.655272 74.3763405,49.5472094 74.2233855,49.4713973 C73.9240509,49.3229432 73.6077299,49.2728063 73.2931311,49.2834129 M74.3872603,51.1435695 C74.2728963,51.1350372 74.2427593,51.2197339 74.1963405,51.2740196 C73.5532485,52.0261918 72.3709785,52.0024344 71.7141487,51.6256047 C70.6463992,51.013002 70.6017417,49.526818 71.645773,48.8738239 C72.4037769,48.399773 73.2254599,48.4064658 74.0605675,48.6366419 C74.1597847,48.6639609 74.2555186,48.7038434 74.3550489,48.7387162 C74.4600587,48.1339804 74.0503131,47.5959765 73.401546,47.5002035 C72.8508219,47.4189511 72.3576712,47.5286575 72.0318787,48.0333151 C71.9616634,48.1420822 71.8964188,48.1737065 71.7791977,48.1188728 C71.6141487,48.0416517 71.4480822,47.9643131 71.2766536,47.9031781 C71.0972798,47.8392642 71.1055773,47.7431781 71.1920744,47.6067006 C71.5155186,47.0962114 71.9625245,46.7508493 72.562407,46.6562505 C73.2199804,46.5525323 73.8645205,46.5969941 74.4436595,46.9820822 C74.9160665,47.2962114 75.188317,47.7353112 75.2732094,48.2949198 C75.334227,48.6971115 75.3119961,49.1015734 75.3137573,49.5052916 C75.3165362,50.1441174 75.3171624,50.7829432 75.3132877,51.4217691 C75.3115264,51.7143718 75.3055382,51.7240783 75.0033072,51.7175029 C74.8126223,51.7133542 74.5676125,51.8115147 74.4460078,51.6568767 C74.3550098,51.541182 74.4017025,51.317229 74.3872603,51.1435695" id="Fill-22" fill="#FFFFFF"></path>
                        <path d="M48.2998252,49.1744031 C48.2973933,49.1409785 48.2932446,49.0369863 48.2820117,48.9338552 C48.1982544,48.1638356 47.6013855,47.5474755 46.8813855,47.485636 C46.080681,47.4168297 45.3955147,47.8891585 45.177863,48.6672798 C45.0853386,48.9980431 45.0896438,49.3370646 45.1430294,49.6727202 C45.2535577,50.3676712 45.8526967,50.9392564 46.5317573,51.0104892 C47.2344579,51.0841487 47.9053777,50.6751076 48.1749667,50.0089237 C48.2742231,49.7636008 48.3002505,49.5064188 48.2998252,49.1744031 M46.7186458,46.6145454 C48.1962975,46.6190607 49.2633425,47.730998 49.2546536,49.2573386 C49.2460039,50.7871624 48.1762975,51.8816438 46.6941057,51.8772345 C45.220955,51.8727984 44.1455734,50.752407 44.1557495,49.2326419 C44.1659648,47.703092 45.2360235,46.6099804 46.7186458,46.6145454" id="Fill-24" fill="#FFFFFF"></path>
                        <path d="M87.1652564,49.1438278 C87.1653346,49.1448063 87.1656477,49.053456 87.1557065,48.9632407 C87.0776634,48.2544344 86.5694442,47.6544344 85.9267828,47.5094638 C85.271636,47.3616751 84.5909706,47.628407 84.2438865,48.2178787 C83.8422818,48.9000313 83.8393464,49.6122035 84.2549237,50.2879374 C84.7232211,51.0495812 85.7252955,51.25009 86.4369589,50.7480157 C86.9564501,50.3815186 87.1804031,49.8637886 87.1652564,49.1438278 M88.1081918,49.3286027 C88.101499,50.5226536 87.3515186,51.5389354 86.2402466,51.8014403 C84.2616556,52.2688376 82.6781331,50.6865284 83.0846693,48.6390137 C83.2659217,47.7260978 83.7887006,47.0593268 84.6727319,46.7621448 C85.5905401,46.4536908 86.4830646,46.5516164 87.2422427,47.2142387 C87.8595812,47.7531037 88.1233386,48.4565088 88.1081918,49.3286027" id="Fill-26" fill="#FFFFFF"></path>
                        <path d="M53.4249589,51.1700705 C53.2860939,51.2185636 53.2359569,51.3166067 53.1582661,51.382047 C52.5326301,51.9088963 51.8268376,52.0250607 51.0752916,51.7346888 C50.3239804,51.4443953 50.0620626,50.7999726 50.0029628,50.0589159 C49.9699295,49.644591 49.9904384,49.2258826 49.989499,48.8091703 C49.9881292,48.2230646 49.9947045,47.6368806 49.9862505,47.0508924 C49.9834716,46.8595812 50.0285597,46.754728 50.2439804,46.774454 C50.3860939,46.7875264 50.5312603,46.7873307 50.6734521,46.7746888 C50.8844501,46.7559413 50.9364266,46.8518708 50.934274,47.0476438 C50.9258591,47.8160196 50.9293425,48.5844736 50.9316517,49.3529276 C50.9324736,49.6126536 50.9206145,49.8718317 50.9829628,50.1299922 C51.1933738,51.001225 52.2554481,51.3287789 52.9193229,50.7157065 C53.2727476,50.3892877 53.431456,49.9708532 53.4316517,49.4914795 C53.4319648,48.696998 53.4304384,47.9025166 53.4329041,47.1079961 C53.4338826,46.7835734 53.4378356,46.7751977 53.7469159,46.7785636 C54.5040587,46.7868611 54.3675029,46.6780157 54.3719256,47.3809511 C54.380184,48.696411 54.3743131,50.0119491 54.3742348,51.3274481 C54.3742348,51.756411 54.3953307,51.7197378 53.9647632,51.7213425 C53.5082857,51.7230646 53.5082857,51.7231037 53.4249589,51.1700705" id="Fill-28" fill="#FFFFFF"></path>
                        <path d="M27.1865049,47.8471585 C27.186544,48.9812094 27.1872094,50.1152211 27.1862701,51.249272 C27.1858004,51.7952994 27.2221605,51.7145558 26.6959374,51.721092 C26.539499,51.7230098 26.3823953,51.712364 26.2267789,51.7234795 C26.0342153,51.7372172 25.9669354,51.6502114 25.9838826,51.4697417 C25.9899883,51.4051233 25.9846654,51.3394873 25.9846654,51.2742818 C25.9847045,48.9670802 25.9847436,46.6599178 25.9848219,44.3527554 C25.9848219,44.2745558 25.9897143,44.1959648 25.9840391,44.1181957 C25.971319,43.9430098 26.0614168,43.8933033 26.2210646,43.8985479 C26.4424344,43.9059061 26.6643131,43.8973738 26.8859178,43.9009354 C27.1787554,43.9056712 27.1845479,43.9079022 27.1853699,44.210407 C27.1881096,45.2531859 27.1864658,46.2959648 27.1864658,47.3387828 C27.1864658,47.5082544 27.1864658,47.6776869 27.1865049,47.8471585" id="Fill-30" fill="#FFFFFF"></path>
                        <path d="M81.4509706,49.699225 C81.4508924,50.2858004 81.4437691,50.8725714 81.454728,51.4589119 C81.4585636,51.6661918 81.3826732,51.7290098 81.183182,51.7239609 C80.3607162,51.7032564 80.5195029,51.8291663 80.5119491,51.0829824 C80.5016164,50.0663483 80.5101096,49.0495186 80.5090137,48.0328063 C80.508544,47.6321409 80.5532407,47.6462701 80.139229,47.6371115 C79.9622035,47.6331585 79.7180939,47.7297926 79.622047,47.5779335 C79.5004814,47.3856438 79.5798552,47.122865 79.5847867,46.8905753 C79.5870176,46.7858004 79.6774677,46.7798121 79.7566849,46.7785988 C79.9391507,46.7758591 80.1218121,46.7720626 80.3041996,46.7767202 C80.4557456,46.7805949 80.5138278,46.7103796 80.5096399,46.564274 C80.5047867,46.394998 80.5060783,46.2253307 80.5100313,46.0559765 C80.5286614,45.2520235 81.0059217,44.679773 81.7922231,44.5054873 C82.1301096,44.4306145 82.4631429,44.439499 82.7991507,44.5149198 C82.956998,44.5503405 83.0410685,44.608501 82.9464697,44.7784031 C82.9212642,44.8236477 82.906,44.8742935 82.8853738,44.9220822 C82.8288571,45.0533542 82.7955499,45.2033738 82.7091703,45.310771 C82.597546,45.449636 82.444865,45.3087358 82.3096791,45.3081487 C81.8048258,45.3058004 81.4587593,45.607953 81.4553151,46.1187162 C81.4499139,46.9180509 81.3634168,46.7578552 82.0705401,46.7767984 C82.0966067,46.7775029 82.1226732,46.7768767 82.1487789,46.7768767 C82.7838082,46.776955 82.8106575,46.8121409 82.7356673,47.4627867 C82.7205597,47.5943327 82.6698748,47.6438826 82.5405597,47.641456 C82.2798943,47.6364462 82.0190333,47.6375812 81.7583288,47.6411429 C81.4582114,47.6452133 81.4536321,47.6475225 81.4520274,47.939499 C81.4487789,48.5260352 81.4510489,49.1126888 81.4509706,49.699225" id="Fill-32" fill="#FFFFFF"></path>
                        <path d="M76.7734795,49.0780078 C76.7734795,48.6738982 76.7683131,48.2697104 76.7759061,47.8657182 C76.7791155,47.6983209 76.7193112,47.6212955 76.5496047,47.640591 C76.536728,47.6420783 76.5233033,47.642274 76.510544,47.6404344 C76.3220509,47.613272 76.0708963,47.7379687 75.9566106,47.5725284 C75.8358278,47.3976947 75.9236556,47.1430568 75.9162192,46.9234481 C75.9130098,46.8292407 75.9628728,46.7800431 76.0557495,46.7747202 C76.1077652,46.7717847 76.1599374,46.7719022 76.2120313,46.7704149 C76.7731663,46.7541722 76.7731663,46.7541722 76.773362,46.2101409 C76.7734403,45.9624305 76.7781761,45.7146419 76.7719922,45.4671272 C76.7681957,45.3173425 76.8324618,45.2672838 76.9786067,45.2538982 C77.7259256,45.1854442 77.7255734,45.1819217 77.7257691,45.9435264 C77.7258082,46.0999648 77.7236164,46.2564031 77.7264344,46.4128023 C77.7326184,46.7630959 77.7335969,46.7647006 78.0706614,46.7699452 C78.2922661,46.7733894 78.5140274,46.7757769 78.7355538,46.7702975 C78.8876086,46.7665401 78.9290176,46.8344853 78.9379804,46.9807084 C78.9782153,47.6403562 78.9829119,47.6400822 78.3197025,47.6402387 C77.7257691,47.6403953 77.7257691,47.6403953 77.7257691,48.2445049 C77.7257691,48.8180861 77.725456,49.3916673 77.7261213,49.9652094 C77.7262779,50.0693973 77.7231468,50.1743288 77.7337926,50.2776164 C77.7845166,50.7690059 78.0308963,50.9726458 78.5163366,50.9302192 C78.828,50.9029785 78.8279609,50.9029785 78.9470607,51.1968728 C78.9617378,51.2330763 78.9770802,51.2689667 78.9916791,51.3052094 C79.1485479,51.6947593 79.1301135,51.73382 78.7017769,51.7808258 C78.5085479,51.802 78.3100352,51.8037221 78.1163757,51.7865401 C77.378998,51.7212564 76.9289393,51.2942114 76.8085479,50.5616086 C76.7979804,50.4973816 76.7812681,50.4328415 76.7808767,50.3683405 C76.778411,49.9382427 76.7795851,49.5081057 76.7795851,49.0780078 L76.7734795,49.0780078 Z" id="Fill-34" fill="#FFFFFF"></path>
                        <path d="M42.4305088,48.0814951 C42.4305479,46.987953 42.4292955,45.8943327 42.431409,44.8007906 C42.4319569,44.5073268 42.4366536,44.5073268 42.7334442,44.5012603 C43.3858904,44.487953 43.3856947,44.487953 43.3856556,45.1546849 C43.3855382,47.1856047 43.3856164,49.2165245 43.3855773,51.2474834 C43.3855773,51.3385988 43.3808415,51.4299883 43.3859687,51.5207906 C43.3943444,51.6692055 43.330274,51.7192642 43.1808023,51.7306145 C42.4304305,51.7876008 42.4305871,51.7919452 42.4305088,51.0497926 C42.4303523,50.0603992 42.4304697,49.0709276 42.4305088,48.0814951" id="Fill-36" fill="#FFFFFF"></path>
                        <path d="M89.7957456,47.4473973 C90.1005205,47.014364 90.4795421,46.7798826 90.941773,46.6749902 C91.2166067,46.6126419 91.4856869,46.6520548 91.7541409,46.7159295 C91.8714403,46.7437965 91.8983288,46.8121722 91.8548454,46.9181213 C91.8054521,47.038591 91.7562153,47.1591389 91.7072916,47.2798043 C91.5720665,47.6133072 91.5721448,47.6133464 91.2199335,47.5897456 C90.4573112,47.538591 89.8537886,48.0534638 89.8055695,48.8344031 C89.7742975,49.3409002 89.7939452,49.8505675 89.792184,50.358865 C89.7908924,50.7368689 89.7880352,51.1149119 89.793593,51.4928376 C89.7960196,51.6561644 89.7379765,51.7330724 89.5663523,51.7228963 C89.4104227,51.7136204 89.2524971,51.7096673 89.0973503,51.723953 C88.8826341,51.7436791 88.8328885,51.6421135 88.8343366,51.4491194 C88.840638,50.5758513 88.8370763,49.7024658 88.8370763,48.8291194 C88.8370372,48.242544 88.8346888,47.6559687 88.8379765,47.0694325 C88.8395812,46.7804697 88.8444344,46.7700587 89.1065088,46.773816 C89.3105793,46.7767123 89.56009,46.6857143 89.7072524,46.8272016 C89.8363327,46.9513112 89.7023601,47.1989432 89.7957456,47.4473973" id="Fill-38" fill="#FFFFFF"></path>
                        <path d="M70.1159609,48.1358826 C70.1159217,49.2307945 70.1174481,50.3257065 70.1149432,51.4206575 C70.1142387,51.7148258 70.1084462,51.7232407 69.8101683,51.7195616 C69.0446497,51.7102466 69.179092,51.8283288 69.1765088,51.083319 C69.1693464,49.0498943 69.1740822,47.0164305 69.1741996,44.9829667 C69.1741996,44.8787006 69.1763914,44.7743953 69.1752172,44.6701683 C69.1739256,44.5533777 69.2365088,44.5074286 69.3460196,44.5093855 C69.372047,44.509816 69.3981526,44.5091507 69.42418,44.5078591 C70.1160783,44.4734951 70.1160391,44.4734951 70.1160391,45.1639061 C70.116,46.1545519 70.1160391,47.1451977 70.1159609,48.1358826" id="Fill-40" fill="#FFFFFF"></path>
                        <g id="Group-44" transform="translate(33.972603, 0.027789)">
                            <mask id="mask-42" fill="white">
                                <use xlink:href="#path-41"></use>
                            </mask>
                            <g id="Clip-43"></g>
                            <path d="M0.0214011742,10.5931507 C0.34304501,9.75874755 0.857643836,9.02806262 1.2936908,8.25636008 C2.55858317,6.01792564 3.85611742,3.79796477 5.12621526,1.56246575 C5.71419961,0.527514677 6.56320157,0.0118982387 7.76922896,0.0145596869 C13.251225,0.0265753425 18.7332603,0.0244618395 24.2152172,0.0111806296 C25.3788571,0.0084148728 26.2569393,0.447318982 26.8383875,1.46684932 C27.8383092,3.22011742 28.8456282,4.96923679 29.8468023,6.72176125 C29.8930254,6.80262231 29.9096986,6.90035225 29.9403053,6.99037182 C29.6309511,7.00093933 29.3215969,7.01902153 29.0121644,7.02062622 C26.7225362,7.03268102 24.4328689,7.04152642 22.1432407,7.05135029 C22.0003053,7.03604697 21.8574481,7.00755382 21.7145127,7.0074364 C17.9882896,7.00454012 14.2620274,7.00947162 10.5358043,6.99671233 C10.1525166,6.99542074 9.93005088,7.11221135 9.73603914,7.45369863 C8.31239922,9.95988258 6.87635225,12.4592564 5.42320157,14.9484149 C4.95326027,15.7534247 4.58335812,16.6219178 3.96187084,17.3347554 C3.88261448,17.2164775 3.79646967,17.1021526 3.72511937,16.9792564 C2.4894638,14.8511937 1.25564775,12.7220744 0.0214011742,10.5931507" id="Fill-42" fill="#4A89F6" mask="url(#mask-42)"></path>
                        </g>
                        <path d="M33.9940039,10.6209393 C35.2282505,12.749863 36.4620665,14.8789824 37.6977221,17.007045 C37.7690724,17.1299413 37.8552172,17.2442661 37.9345127,17.3624658 C37.9671155,17.4517808 37.9873112,17.5483366 38.0340822,17.6295108 C39.9036712,20.8751468 41.7815969,24.1160861 43.6401096,27.3680626 C43.8767436,27.7821526 44.1693072,27.9054012 44.6296595,27.8985519 C46.3831233,27.872407 48.1371742,27.8797652 49.8910294,27.884775 C51.8845714,27.8904501 53.8781135,27.907045 55.8716947,27.9189432 C55.8552172,28.012407 55.8632016,28.1200391 55.8187006,28.1973777 C55.0675851,29.5030528 54.2949824,30.7966341 53.5589746,32.1106458 C53.0578787,33.0052055 52.4682896,33.8519374 52.0766654,34.8066536 C51.8673894,34.8870059 51.6486419,34.855499 51.4338865,34.8556164 C48.236,34.8572994 45.0381526,34.8559687 41.8402661,34.8565558 C41.3563914,34.8566341 40.8792485,34.8248924 40.4296986,34.6204305 C39.8615969,34.3620352 39.4525949,33.9450098 39.1437104,33.4049315 C36.3884462,28.5870841 33.632047,23.769863 30.8633581,18.959726 C30.2643757,17.9192172 30.2823405,16.9308023 30.8945127,15.9004305 C31.7779569,14.4133464 32.6184658,12.9008219 33.476274,11.3985519 C33.6311468,11.127319 33.7780744,10.8513112 33.9940039,10.6209393" id="Fill-45" fill="#FCC003"></path>
                        <path d="M52.0766732,34.8066654 C52.4682975,33.85191 53.0578865,33.0052172 53.5589824,32.1106575 C54.2949902,30.7966458 55.0675538,29.5030646 55.8186693,28.1973894 C55.8632094,28.1200117 55.855225,28.0124188 55.8716634,27.918955 C56.166771,27.7562935 56.268454,27.4426341 56.4207436,27.1791898 C58.1627397,24.1666654 59.8776908,21.1383679 61.6436008,18.1400117 C61.9493151,17.6209511 61.9097847,17.2652172 61.6228963,16.7757847 C59.9965949,14.0015382 58.3994912,11.2100313 56.8036791,8.41805479 C56.555225,7.98333855 56.2466536,7.57566732 56.1158513,7.07915068 C58.4054795,7.06932681 60.6951468,7.06048141 62.984775,7.04838748 C63.2942074,7.04678278 63.6035616,7.02870059 63.9129159,7.01817221 C64.6237182,8.04682192 65.1852838,9.16392564 65.8127593,10.2418904 C66.9120939,12.1306184 67.9902544,14.0316751 69.082544,15.9245127 C69.2885323,16.2815773 69.4480235,16.6506967 69.5322896,17.056137 C69.7020352,17.8728493 69.3263405,18.5783679 68.9253229,19.1872524 C68.6008611,19.679816 68.321683,20.1995421 68.0155773,20.6990724 C67.1922505,22.0427123 66.4019569,23.4089746 65.6556556,24.7969198 C64.2884932,27.3395029 62.8546771,29.8438082 61.4196869,32.3478787 C61.2048141,32.7228297 60.9863014,33.0957847 60.776908,33.4737495 C60.3082975,34.3195029 59.558591,34.8009119 58.6296673,34.8258826 C56.4464971,34.8846301 54.2606262,34.915589 52.0766732,34.8066654" id="Fill-47" fill="#ED4936"></path>
                        <path d="M55.1475695,17.5891977 C55.3141448,14.6019961 52.841229,12.3089628 50.0510528,12.2314286 C47.2651037,12.1540509 44.7490176,14.6500196 44.7489002,17.4525245 C44.7487828,20.4307632 47.3871389,22.6635225 49.9905832,22.6707029 C52.7839687,22.678317 55.2684697,20.2529159 55.1475695,17.5891977 M56.1158278,7.07913894 C56.2466693,7.57565558 56.5552407,7.98332681 56.8036947,8.41804305 C58.3995068,11.2100587 59.9965714,14.0015264 61.6228728,16.7758121 C61.9097613,17.2652446 61.9492916,17.6209785 61.6436164,18.14 C59.8776673,21.1383953 58.1627162,24.1666928 56.4207593,27.1791781 C56.2684305,27.4426223 56.1667867,27.7563209 55.8716791,27.9189432 C53.878137,27.907045 51.8845949,27.8904501 49.8910137,27.884775 C48.1371977,27.8797652 46.3831076,27.872407 44.6296438,27.8985519 C44.1692916,27.9054012 43.876728,27.7821526 43.6400939,27.3680626 C41.7815812,24.1160861 39.9036947,20.8751468 38.0340665,17.6295108 C37.9872955,17.5483366 37.9671389,17.4517808 37.9345362,17.3624658 C38.5559843,16.6497065 38.9258865,15.7812133 39.3958278,14.9762035 C40.8489785,12.487045 42.2849863,9.98767123 43.7086654,7.48148728 C43.902638,7.14 44.1251037,7.02320939 44.5083914,7.0244904 C48.2346145,7.03726027 51.9608767,7.03232877 55.6871389,7.03522505 C55.8300352,7.03534247 55.9729315,7.06383562 56.1158278,7.07913894" id="Fill-49" fill="#FFFFFF"></path>
                    </g>
                </g>
            </g>
        </g>
    </g>
</svg>