<?xml version="1.0" encoding="UTF-8"?>
<svg width="292px" height="335px" viewBox="0 0 292 335" version="1.1" xmlns="http://www.w3.org/2000/svg" xmlns:xlink="http://www.w3.org/1999/xlink">
    <!-- Generator: Sketch 62 (91390) - https://sketch.com -->
    <title>Group 40</title>
    <desc>Created with Sketch.</desc>
    <defs>
        <linearGradient x1="100%" y1="50%" x2="0%" y2="50%" id="linearGradient-1">
            <stop stop-color="#1B3549" stop-opacity="0" offset="0%"></stop>
            <stop stop-color="#1B3549" offset="32.6324805%"></stop>
            <stop stop-color="#1B3549" offset="63.3445998%"></stop>
            <stop stop-color="#1B3549" stop-opacity="0" offset="100%"></stop>
        </linearGradient>
        <linearGradient x1="1.8485583%" y1="50.0167593%" x2="100%" y2="49.9832407%" id="linearGradient-2">
            <stop stop-color="#325066" stop-opacity="0" offset="0%"></stop>
            <stop stop-color="#325066" offset="30.2074535%"></stop>
            <stop stop-color="#325066" offset="71.373522%"></stop>
            <stop stop-color="#325066" stop-opacity="0" offset="100%"></stop>
        </linearGradient>
        <linearGradient x1="1.8485583%" y1="50.0052209%" x2="100%" y2="49.9947791%" id="linearGradient-3">
            <stop stop-color="#325066" stop-opacity="0" offset="0%"></stop>
            <stop stop-color="#325066" offset="30.2074535%"></stop>
            <stop stop-color="#325066" offset="71.373522%"></stop>
            <stop stop-color="#325066" stop-opacity="0" offset="100%"></stop>
        </linearGradient>
        <linearGradient x1="100%" y1="50%" x2="0%" y2="50%" id="linearGradient-4">
            <stop stop-color="#1B3549" stop-opacity="0" offset="0%"></stop>
            <stop stop-color="#1B3549" offset="32.6324805%"></stop>
            <stop stop-color="#1B3549" offset="63.3445998%"></stop>
            <stop stop-color="#1B3549" stop-opacity="0" offset="100%"></stop>
        </linearGradient>
        <linearGradient x1="1.8485583%" y1="50.0168336%" x2="100%" y2="49.9831664%" id="linearGradient-5">
            <stop stop-color="#325066" stop-opacity="0" offset="0%"></stop>
            <stop stop-color="#325066" offset="30.2074535%"></stop>
            <stop stop-color="#325066" offset="71.373522%"></stop>
            <stop stop-color="#325066" stop-opacity="0" offset="100%"></stop>
        </linearGradient>
        <linearGradient x1="1.8485583%" y1="50.0052062%" x2="100%" y2="49.9947938%" id="linearGradient-6">
            <stop stop-color="#325066" stop-opacity="0" offset="0%"></stop>
            <stop stop-color="#325066" offset="30.2074535%"></stop>
            <stop stop-color="#325066" offset="71.373522%"></stop>
            <stop stop-color="#325066" stop-opacity="0" offset="100%"></stop>
        </linearGradient>
        <linearGradient x1="-10.7106886%" y1="17.3103843%" x2="133.335201%" y2="88.1495863%" id="linearGradient-7">
            <stop stop-color="#3DE2CB" offset="0%"></stop>
            <stop stop-color="#6D64F5" offset="100%"></stop>
        </linearGradient>
        <linearGradient x1="0%" y1="36.4640499%" x2="100%" y2="68.1615874%" id="linearGradient-8">
            <stop stop-color="#C9C3FF" offset="0%"></stop>
            <stop stop-color="#6D64F5" offset="100%"></stop>
        </linearGradient>
        <polygon id="path-9" points="0.105727599 0.149281395 9.64989725 0.149281395 9.64989725 12.4731891 0.105727599 12.4731891"></polygon>
        <filter x="-100.0%" y="-73.3%" width="298.9%" height="245.6%" filterUnits="objectBoundingBox" id="filter-11">
            <feMorphology radius="1" operator="dilate" in="SourceAlpha" result="shadowSpreadOuter1"></feMorphology>
            <feOffset dx="0" dy="0" in="shadowSpreadOuter1" result="shadowOffsetOuter1"></feOffset>
            <feGaussianBlur stdDeviation="2" in="shadowOffsetOuter1" result="shadowBlurOuter1"></feGaussianBlur>
            <feColorMatrix values="0 0 0 0 0.42745098   0 0 0 0 0.392156863   0 0 0 0 0.960784314  0 0 0 0.5 0" type="matrix" in="shadowBlurOuter1" result="shadowMatrixOuter1"></feColorMatrix>
            <feMerge>
                <feMergeNode in="shadowMatrixOuter1"></feMergeNode>
                <feMergeNode in="SourceGraphic"></feMergeNode>
            </feMerge>
        </filter>
        <polygon id="path-12" points="0 0 10.8788532 0 10.8788532 14.8347999 0 14.8347999"></polygon>
        <filter x="-100.0%" y="-73.3%" width="298.9%" height="245.6%" filterUnits="objectBoundingBox" id="filter-14">
            <feMorphology radius="1" operator="dilate" in="SourceAlpha" result="shadowSpreadOuter1"></feMorphology>
            <feOffset dx="0" dy="0" in="shadowSpreadOuter1" result="shadowOffsetOuter1"></feOffset>
            <feGaussianBlur stdDeviation="2" in="shadowOffsetOuter1" result="shadowBlurOuter1"></feGaussianBlur>
            <feColorMatrix values="0 0 0 0 0.42745098   0 0 0 0 0.392156863   0 0 0 0 0.960784314  0 0 0 0.5 0" type="matrix" in="shadowBlurOuter1" result="shadowMatrixOuter1"></feColorMatrix>
            <feMerge>
                <feMergeNode in="shadowMatrixOuter1"></feMergeNode>
                <feMergeNode in="SourceGraphic"></feMergeNode>
            </feMerge>
        </filter>
        <polygon id="path-15" points="0 0 10.8788532 0 10.8788532 14.8347999 0 14.8347999"></polygon>
        <path d="M216.172043,135.483871 L273.509668,135.483871 C276.835253,135.483871 279.531173,138.179791 279.531173,141.505376 L279.531173,180.131763 C279.531173,181.760173 278.871642,183.319157 277.702994,184.453168 L269.106866,192.794523 C267.983265,193.884823 266.479181,194.494624 264.91354,194.494624 L216.172043,194.494624 C212.846457,194.494624 210.150538,191.798704 210.150538,188.473118 L210.150538,141.505376 C210.150538,138.179791 212.846457,135.483871 216.172043,135.483871 Z" id="path-17"></path>
        <filter x="-13.0%" y="-15.3%" width="125.9%" height="130.5%" filterUnits="objectBoundingBox" id="filter-18">
            <feMorphology radius="1" operator="dilate" in="SourceAlpha" result="shadowSpreadOuter1"></feMorphology>
            <feOffset dx="0" dy="0" in="shadowSpreadOuter1" result="shadowOffsetOuter1"></feOffset>
            <feGaussianBlur stdDeviation="2" in="shadowOffsetOuter1" result="shadowBlurOuter1"></feGaussianBlur>
            <feComposite in="shadowBlurOuter1" in2="SourceAlpha" operator="out" result="shadowBlurOuter1"></feComposite>
            <feColorMatrix values="0 0 0 0 0.42745098   0 0 0 0 0.392156863   0 0 0 0 0.960784314  0 0 0 0.5 0" type="matrix" in="shadowBlurOuter1"></feColorMatrix>
        </filter>
        <path d="M6.02150538,135.483871 L63.3591299,135.483871 C66.6847155,135.483871 69.3806353,138.179791 69.3806353,141.505376 L69.3806353,180.131763 C69.3806353,181.760173 68.7211043,183.319157 67.5524565,184.453168 L58.9563284,192.794523 C57.8327269,193.884823 56.3286437,194.494624 54.7630019,194.494624 L6.02150538,194.494624 C2.69591979,194.494624 3.17907176e-13,191.798704 3.16611731e-13,188.473118 L3.16611731e-13,141.505376 C3.15316286e-13,138.179791 2.69591979,135.483871 6.02150538,135.483871 Z" id="path-19"></path>
        <filter x="-13.0%" y="-15.3%" width="125.9%" height="130.5%" filterUnits="objectBoundingBox" id="filter-20">
            <feMorphology radius="1" operator="dilate" in="SourceAlpha" result="shadowSpreadOuter1"></feMorphology>
            <feOffset dx="0" dy="0" in="shadowSpreadOuter1" result="shadowOffsetOuter1"></feOffset>
            <feGaussianBlur stdDeviation="2" in="shadowOffsetOuter1" result="shadowBlurOuter1"></feGaussianBlur>
            <feComposite in="shadowBlurOuter1" in2="SourceAlpha" operator="out" result="shadowBlurOuter1"></feComposite>
            <feColorMatrix values="0 0 0 0 0.42745098   0 0 0 0 0.392156863   0 0 0 0 0.960784314  0 0 0 0.5 0" type="matrix" in="shadowBlurOuter1"></feColorMatrix>
        </filter>
        <polygon id="path-21" points="0.0158059478 0.00826719288 22.1125672 0.00826719288 22.1125672 12.8026732 0.0158059478 12.8026732"></polygon>
        <linearGradient x1="50%" y1="0%" x2="50%" y2="50%" id="linearGradient-23">
            <stop stop-color="#0B1C28" stop-opacity="0" offset="0%"></stop>
            <stop stop-color="#0B1C28" offset="100%"></stop>
        </linearGradient>
        <polygon id="path-24" points="6.75382999e-05 0.403070306 22.0740941 0.403070306 22.0740941 22.4416873 6.75382999e-05 22.4416873"></polygon>
        <polygon id="path-26" points="0 0.000135247424 17.703642 0.000135247424 17.703642 11.1886506 0 11.1886506"></polygon>
        <polygon id="path-28" points="0.0529923999 0.0130944097 11.5031008 0.0130944097 11.5031008 8.92023773 0.0529923999 8.92023773"></polygon>
        <polygon id="path-30" points="0 23.4707766 17.703642 23.4707766 17.703642 0.061476102 0 0.061476102"></polygon>
        <polygon id="path-32" points="0 0.000145592435 19.057785 0.000145592435 19.057785 12.0444651 0 12.0444651"></polygon>
        <polygon id="path-34" points="0.0166919839 0.0552589469 8.84176132 0.0552589469 8.84176132 8.44692233 0.0166919839 8.44692233"></polygon>
        <polygon id="path-36" points="0 23.0409955 19.057785 23.0409955 19.057785 0.0661783795 0 0.0661783795"></polygon>
        <polygon id="path-38" points="0 -4.63458887e-05 24.0507271 -4.63458887e-05 24.0507271 5.4193207 0 5.4193207"></polygon>
        <polygon id="path-40" points="0.140785604 0.468387097 5.92143946 0.468387097 5.92143946 8.71913166 0.140785604 8.71913166"></polygon>
        <linearGradient x1="290.249591%" y1="50%" x2="-192.7739%" y2="50%" id="linearGradient-42">
            <stop stop-color="#46CBD3" offset="0%"></stop>
            <stop stop-color="#696FF1" offset="100%"></stop>
        </linearGradient>
        <polygon id="path-43" points="0 0.0346222222 3.94322069 0.0346222222 3.94322069 5.75331075 0 5.75331075"></polygon>
        <polygon id="path-45" points="4.04597701e-05 0.0343315118 3.46641379 0.0343315118 3.46641379 4.20381749 4.04597701e-05 4.20381749"></polygon>
        <polygon id="path-47" points="0.00265974251 0.0310622099 0.993393103 0.0310622099 0.993393103 1.86885246 0.00265974251 1.86885246"></polygon>
    </defs>
    <g id="Home" stroke="none" stroke-width="1" fill="none" fill-rule="evenodd">
        <g id="Mobile" transform="translate(-15.000000, -563.000000)">
            <g id="Group-40" transform="translate(21.000000, 563.000000)">
                <g id="Group-27-Copy-2" transform="translate(210.150538, 22.881720)">
                    <path d="M6.99740452,224.228402 L52.7608454,224.228402 C56.086431,224.228402 58.7823508,226.924322 58.7823508,230.249907 L58.7823508,283.986652 C58.7823508,287.312237 56.086431,290.008157 52.7608454,290.008157 L6.99740452,290.008157 L6.99740452,290.008157 L6.99740452,224.228402 Z" id="Rectangle-Copy-46" fill="url(#linearGradient-1)" opacity="0.602120536" transform="translate(32.889878, 257.118280) rotate(90.000000) translate(-32.889878, -257.118280) "></path>
                    <path d="M6.99740452,167.024101 L52.7608454,167.024101 C56.086431,167.024101 58.7823508,169.720021 58.7823508,173.045606 L58.7823508,226.782351 C58.7823508,230.107936 56.086431,232.803856 52.7608454,232.803856 L6.99740452,232.803856 L6.99740452,232.803856 L6.99740452,167.024101 Z" id="Rectangle-Copy-47" fill="url(#linearGradient-1)" transform="translate(32.889878, 199.913978) rotate(90.000000) translate(-32.889878, -199.913978) "></path>
                    <path d="M6.99740452,50.8090471 L52.7608454,50.8090471 C56.086431,50.8090471 58.7823508,53.5049669 58.7823508,56.8305525 L58.7823508,110.567297 C58.7823508,113.892883 56.086431,116.588802 52.7608454,116.588802 L6.99740452,116.588802 L6.99740452,116.588802 L6.99740452,50.8090471 Z" id="Rectangle-Copy-48" fill="url(#linearGradient-1)" transform="translate(32.889878, 83.698925) rotate(90.000000) translate(-32.889878, -83.698925) "></path>
                    <path d="M6.99740452,-6.99740452 L52.7608454,-6.99740452 C56.086431,-6.99740452 58.7823508,-4.30148474 58.7823508,-0.975899147 L58.7823508,52.7608454 C58.7823508,56.086431 56.086431,58.7823508 52.7608454,58.7823508 L6.99740452,58.7823508 L6.99740452,58.7823508 L6.99740452,-6.99740452 Z" id="Rectangle-Copy-49" fill="url(#linearGradient-1)" opacity="0.604678199" transform="translate(32.889878, 25.892473) rotate(90.000000) translate(-32.889878, -25.892473) "></path>
                    <line x1="66.1034017" y1="227.612903" x2="0.589961255" y2="227.612903" id="Line" stroke="url(#linearGradient-2)" stroke-width="0.602150538" opacity="0.700099" stroke-linecap="square"></line>
                    <line x1="62.0244208" y1="54.4946237" x2="3.29853058" y2="54.4946237" id="Line-Copy" stroke="url(#linearGradient-3)" stroke-width="0.602150538" opacity="0.700099" stroke-linecap="square"></line>
                </g>
                <g id="Group-27-Copy-4" transform="translate(3.010753, 22.279570)">
                    <path d="M7.22580645,224.602151 L52.9892473,224.602151 C56.3148329,224.602151 59.0107527,227.29807 59.0107527,230.623656 L59.0107527,284.215054 C59.0107527,287.540639 56.3148329,290.236559 52.9892473,290.236559 L7.22580645,290.236559 L7.22580645,290.236559 L7.22580645,224.602151 Z" id="Rectangle-Copy-46" fill="url(#linearGradient-4)" opacity="0.602120536" transform="translate(33.118280, 257.419355) rotate(90.000000) translate(-33.118280, -257.419355) "></path>
                    <path d="M7.22580645,167.397849 L52.9892473,167.397849 C56.3148329,167.397849 59.0107527,170.093769 59.0107527,173.419355 L59.0107527,227.010753 C59.0107527,230.336338 56.3148329,233.032258 52.9892473,233.032258 L7.22580645,233.032258 L7.22580645,233.032258 L7.22580645,167.397849 Z" id="Rectangle-Copy-47" fill="url(#linearGradient-4)" transform="translate(33.118280, 200.215054) rotate(90.000000) translate(-33.118280, -200.215054) "></path>
                    <path d="M7.22580645,51.1827957 L52.9892473,51.1827957 C56.3148329,51.1827957 59.0107527,53.8787155 59.0107527,57.2043011 L59.0107527,110.795699 C59.0107527,114.121285 56.3148329,116.817204 52.9892473,116.817204 L7.22580645,116.817204 L7.22580645,116.817204 L7.22580645,51.1827957 Z" id="Rectangle-Copy-48" fill="url(#linearGradient-4)" transform="translate(33.118280, 84.000000) rotate(90.000000) translate(-33.118280, -84.000000) "></path>
                    <path d="M7.22580645,-6.62365591 L52.9892473,-6.62365591 C56.3148329,-6.62365591 59.0107527,-3.92773613 59.0107527,-0.602150538 L59.0107527,52.9892473 C59.0107527,56.3148329 56.3148329,59.0107527 52.9892473,59.0107527 L7.22580645,59.0107527 L7.22580645,59.0107527 L7.22580645,-6.62365591 Z" id="Rectangle-Copy-49" fill="url(#linearGradient-4)" opacity="0.604678199" transform="translate(33.118280, 26.193548) rotate(90.000000) translate(-33.118280, -26.193548) "></path>
                    <line x1="66.103696" y1="228.215054" x2="0.735013713" y2="228.215054" id="Line" stroke="url(#linearGradient-5)" stroke-width="0.602150538" opacity="0.700099" stroke-linecap="square"></line>
                    <line x1="62.5226101" y1="55.0967742" x2="3.71394904" y2="55.0967742" id="Line-Copy" stroke="url(#linearGradient-6)" stroke-width="0.602150538" opacity="0.700099" stroke-linecap="square"></line>
                </g>
                <rect id="Rectangle-Copy-19" stroke="url(#linearGradient-8)" stroke-width="1.80645161" fill="url(#linearGradient-7)" x="90.6236559" y="122.537634" width="98.1505376" height="85.5053763" rx="9.03225806"></rect>
                <g id="Logo-white-Copy-2" transform="translate(104.172043, 144.516129)">
                    <path d="M9.03225806,7.0241384 L8.99724622,10.5158201 C8.99724622,13.8716698 5.83093333,14.5519713 4.728625,14.5519713 C2.43647875,14.5519713 0.501792115,13.1274474 0.501792115,10.5158201 L0.501792115,6.82609761 C0.501792115,6.00996409 0.963157842,5.51971326 1.70970067,5.51971326 C2.47431413,5.51971326 2.93624456,6.00996409 2.93624456,6.82609761 L2.93624456,10.2355953 C2.93624456,11.559672 3.59186955,12.2844899 4.728625,12.2844899 C5.93822768,12.2844899 6.59724091,11.6681093 6.59724091,10.2355953 L6.59724091,7.0241384 C6.59724091,6.20800488 7.05917134,5.7188955 7.82322009,5.7188955 C8.57032763,5.7188955 9.03225806,6.20800488 9.03225806,7.0241384" id="Fill-1" fill="#FFFFFF"></path>
                    <path d="M50.6810036,6.82503865 L50.6459917,10.5161358 C50.6459917,13.8716268 47.4796788,14.5519713 46.3784999,14.5519713 C44.085789,14.5519713 42.1505376,13.1273574 42.1505376,10.5161358 L42.1505376,6.82503865 C42.1505376,6.00885356 42.6119034,5.51971326 43.3590109,5.51971326 C44.1236244,5.51971326 44.5849901,6.00885356 44.5849901,6.82503865 L44.5849901,10.2353225 C44.5849901,11.5594829 45.2406151,12.2843466 46.3784999,12.2843466 C47.5869732,12.2843466 48.2459864,11.6679271 48.2459864,10.2353225 L48.2459864,6.82503865 C48.2459864,6.00885356 48.7084816,5.51971326 49.4725303,5.51971326 C50.2196379,5.51971326 50.6810036,6.00885356 50.6810036,6.82503865" id="Fill-3" fill="#FFFFFF"></path>
                    <g id="Group-7" transform="translate(10.537634, 5.519713)">
                        <mask id="mask-10" fill="white">
                            <use xlink:href="#path-9"></use>
                        </mask>
                        <g id="Clip-6"></g>
                        <path d="M9.64989725,4.68952222 C9.64989725,7.44666397 7.95450896,9.23033001 5.39327838,9.23033001 C4.23296774,9.23033001 3.29336201,8.83402277 2.66637276,8.1491313 L2.63007646,8.1491313 L2.63007646,11.1574377 C2.63007646,11.968195 2.1506141,12.4733592 1.35912067,12.4733592 C0.585189964,12.4733592 0.105727599,11.968195 0.105727599,11.1574377 L0.105727599,1.55478302 C0.105727599,0.743458765 0.585189964,0.258138318 1.35912067,0.258138318 C2.03996894,0.258138318 2.50128315,0.618159912 2.61134289,1.24862292 L2.64822461,1.24862292 C3.27404301,0.54558863 4.21423417,0.149281395 5.39327838,0.149281395 C7.95450896,0.149281395 9.64989725,1.93294743 9.64989725,4.68952222 M7.07051852,4.68952222 C7.07051852,3.32030624 6.16720908,2.40182595 4.87751971,2.40182595 C3.56909677,2.40182595 2.63007646,3.35659188 2.63007646,4.68952222 C2.63007646,6.02301952 3.56909677,6.97778545 4.87751971,6.97778545 C6.16720908,6.97778545 7.07051852,6.04116235 7.07051852,4.68952222" id="Fill-5" fill="#FFFFFF" mask="url(#mask-10)"></path>
                    </g>
                    <path d="M30.609319,9.97248326 C30.609319,12.7531114 29.0047662,14.5519713 26.5813153,14.5519713 C25.4654419,14.5519713 24.5761784,14.1522882 23.983336,13.4255396 L23.9484304,13.4255396 C23.8437134,14.0608014 23.4071154,14.4421871 22.7799215,14.4421871 C22.0302806,14.4421871 21.5770609,13.9338634 21.5770609,13.1161998 L21.5770609,2.8319355 C21.5770609,2.01370009 22.0302806,1.50537634 22.7799215,1.50537634 C23.5123865,1.50537634 23.9661602,2.01370009 23.9661602,2.8319355 L23.9661602,6.50227311 L24.0005118,6.50227311 C24.5761784,5.79325011 25.4654419,5.39356699 26.5813153,5.39356699 C29.0047662,5.39356699 30.609319,7.19242695 30.609319,9.97248326 M28.1681382,9.97248326 C28.1681382,8.59160379 27.3132263,7.66529955 26.093744,7.66529955 C24.8554238,7.66529955 23.9661602,8.62819852 23.9661602,9.97248326 C23.9661602,11.3173398 24.8554238,12.2802388 26.093744,12.2802388 C27.3132263,12.2802388 28.1681382,11.3356372 28.1681382,9.97248326" id="Fill-8" fill="#FFFFFF"></path>
                    <path d="M36.1199433,5.51971326 C38.8069808,5.51971326 40.6451613,7.34748227 40.6451613,10.0358423 C40.6451613,12.7061559 38.8069808,14.5519713 36.1199433,14.5519713 C33.449982,14.5519713 31.6129032,12.7061559 31.6129032,10.0358423 C31.6129032,7.34748227 33.449982,5.51971326 36.1199433,5.51971326 M36.1199433,12.3119533 C37.3681653,12.3119533 38.2175732,11.3808682 38.2175732,10.0358423 C38.2175732,8.67446174 37.3681653,7.75973131 36.1199433,7.75973131 C34.8887975,7.75973131 34.0393896,8.67446174 34.0393896,10.0358423 C34.0393896,11.3808682 34.8887975,12.3119533 36.1199433,12.3119533" id="Fill-10" fill="#FFFFFF"></path>
                    <path d="M60.7168459,9.54616218 L60.7168459,13.2278946 C60.7168459,14.0440281 60.2583032,14.5519713 59.4983682,14.5519713 C58.7563934,14.5519713 58.2972894,14.0440281 58.2972894,13.2278946 L58.2972894,9.83666006 C58.2972894,8.49432018 57.6961887,7.7871947 56.53103,7.7871947 C55.3119911,7.7871947 54.6053751,8.63928375 54.6053751,10.0723685 L54.6053751,13.2278946 C54.6053751,14.0440281 54.1468324,14.5519713 53.3868975,14.5519713 C52.6449226,14.5519713 52.1863799,14.0440281 52.1863799,13.2278946 L52.1863799,6.95222734 C52.1863799,6.13666454 52.6449226,5.62929203 53.3868975,5.62929203 C54.0222345,5.62929203 54.4639397,5.99170097 54.5885376,6.60865225 L54.6233352,6.60865225 C55.2064758,5.90038533 56.053966,5.51971326 57.1674896,5.51971326 C59.4809694,5.51971326 60.7168459,6.93453493 60.7168459,9.54616218" id="Fill-12" fill="#FFFFFF"></path>
                    <path d="M71.2544803,2.83142183 L71.2544803,13.1161368 C71.2544803,13.9338363 70.8013162,14.4427541 70.0512133,14.4427541 C69.4229883,14.4427541 68.9869979,14.0613517 68.8828478,13.4254903 L68.8485004,13.4254903 C68.2557307,14.1522707 67.3660223,14.5519713 66.2502858,14.5519713 C63.8265782,14.5519713 62.2222222,12.7536043 62.2222222,9.97228255 C62.2222222,7.19210439 63.8265782,5.39316558 66.2502858,5.39316558 C67.3660223,5.39316558 68.2557307,5.79343805 68.8296647,6.5019203 L68.8656741,6.5019203 L68.8656741,2.83142183 C68.8656741,2.01315055 69.3188381,1.50537634 70.0512133,1.50537634 C70.8013162,1.50537634 71.2544803,2.01315055 71.2544803,2.83142183 M68.8656741,9.97228255 C68.8656741,8.62851071 67.9765196,7.66499771 66.7383513,7.66499771 C65.5179106,7.66499771 64.6642115,8.59134255 64.6642115,9.97228255 C64.6642115,11.3354962 65.5179106,12.2801392 66.7383513,12.2801392 C67.9765196,12.2801392 68.8656741,11.317198 68.8656741,9.97228255" id="Fill-14" fill="#FFFFFF"></path>
                    <path d="M4.01433692,2.0068642 C4.01433692,3.11495993 3.11632034,4.01433692 2.00624647,4.01433692 C0.898016573,4.01433692 0,3.11495993 0,2.0068642 C0,0.898768475 0.898016573,0 2.00624647,0 C3.11632034,0 4.01433692,0.898768475 4.01433692,2.0068642" id="Fill-16" fill="#FFFFFF"></path>
                </g>
                <rect id="Rectangle-Copy-31" stroke="#D3E7F7" stroke-width="0.602150538" x="90.6236559" y="212.860215" width="99.3548387" height="32.516129" rx="9.03225806"></rect>
                <g id="Group-5-Copy-9" filter="url(#filter-11)" opacity="0.603376116" transform="translate(74.064516, 157.763441)">
                    <mask id="mask-13" fill="white">
                        <use xlink:href="#path-12"></use>
                    </mask>
                    <g id="Clip-4"></g>
                    <path d="M0.977309894,7.12130931 L9.88685845,1.05628652 L9.97286265,13.2845235 L0.969071356,7.6898641 C0.891352963,7.62783522 0.903190357,7.4997393 0.90322586,7.40830401 C0.903262452,7.31406407 0.890407299,7.18044312 0.977309894,7.12130931 Z" id="Fill-3" stroke="#C8C3FF" stroke-width="1.80645161" fill="#0B1C28" mask="url(#mask-13)"></path>
                </g>
                <path d="M82.6335815,168.038509 C82.6335815,168.457087 82.2945564,168.729279 82.0064713,168.541847 L77.3145059,165.488342 C76.9953318,165.280652 76.9955779,164.688502 77.314916,164.481346 L82.0069635,161.436369 C82.2949666,161.24947 82.6335815,161.521663 82.6335815,161.940027 L82.6335815,168.038509 Z" id="Fill-3-Copy" fill="#C8C3FF"></path>
                <g id="Group-26-Copy-2" transform="translate(200.435484, 165.317204) rotate(180.000000) translate(-200.435484, -165.317204) translate(194.935484, 157.817204)">
                    <g id="Group-5-Copy-8" filter="url(#filter-14)" opacity="0.603376116">
                        <mask id="mask-16" fill="white">
                            <use xlink:href="#path-15"></use>
                        </mask>
                        <g id="Clip-4"></g>
                        <path d="M0.977309894,7.12130931 L9.88685845,1.05628652 L9.97286265,13.2845235 L0.969071356,7.6898641 C0.891352963,7.62783522 0.903190357,7.4997393 0.90322586,7.40830401 C0.903262452,7.31406407 0.890407299,7.18044312 0.977309894,7.12130931 Z" id="Fill-3" stroke="#C8C3FF" stroke-width="1.80645161" fill="#0B1C28" mask="url(#mask-16)"></path>
                    </g>
                    <path d="M8.8006617,10.5761435 C8.8006617,10.9947212 8.46163667,11.2669139 8.17355152,11.0794815 L3.48158611,8.02597592 C3.16241205,7.81828636 3.16265813,7.22613657 3.48199626,7.0189801 L8.17404369,3.97400384 C8.46204681,3.78710456 8.8006617,4.05929729 8.8006617,4.47766168 L8.8006617,10.5761435 Z" id="Fill-3" fill="#C8C3FF"></path>
                </g>
                <rect id="Rectangle-Copy-50" stroke="#2FA596" stroke-width="0.602150538" fill-opacity="0.2" fill="#2FA596" x="90.0215054" y="64.1290323" width="46.9677419" height="53.5913978" rx="9.03225806"></rect>
                <rect id="Rectangle-Copy-51" stroke="#E7A015" stroke-width="0.602150538" fill-opacity="0.2" fill="#E7A015" x="140.602151" y="64.1290323" width="48.7741935" height="53.5913978" rx="9.03225806"></rect>
                <g id="Rectangle-Copy-53">
                    <use fill="black" fill-opacity="1" filter="url(#filter-18)" xlink:href="#path-17"></use>
                    <path stroke="#C8C3FF" stroke-width="1.20430108" d="M264.91354,193.892473 L216.172043,193.892473 C214.675529,193.892473 213.320691,193.285891 212.33998,192.305181 C211.35927,191.324471 210.752688,189.969632 210.752688,188.473118 L210.752688,141.505376 C210.752688,140.008863 211.35927,138.654024 212.33998,137.673314 C213.320691,136.692603 214.675529,136.086022 216.172043,136.086022 L273.509668,136.086022 C275.006181,136.086022 276.36102,136.692603 277.34173,137.673314 C278.32244,138.654024 278.929022,140.008863 278.929022,141.505376 L278.929022,180.131763 C278.929022,181.597332 278.335445,183.000417 277.283661,184.021027 L268.687533,192.362383 C267.676292,193.343653 266.322617,193.892473 264.91354,193.892473 Z" stroke-linejoin="square" fill="#0D2436" fill-rule="evenodd"></path>
                </g>
                <g id="Rectangle-Copy-56" transform="translate(34.690318, 164.989247) scale(-1, 1) translate(-34.690318, -164.989247) ">
                    <use fill="black" fill-opacity="1" filter="url(#filter-20)" xlink:href="#path-19"></use>
                    <path stroke="#C8C3FF" stroke-width="1.20430108" d="M54.7630019,193.892473 L6.02150538,193.892473 C4.52499186,193.892473 3.17015315,193.285891 2.18944282,192.305181 C1.20873249,191.324471 0.602150538,189.969632 0.602150538,188.473118 L0.602150538,141.505376 C0.602150538,140.008863 1.20873249,138.654024 2.18944282,137.673314 C3.17015315,136.692603 4.52499186,136.086022 6.02150538,136.086022 L63.3591299,136.086022 C64.8556434,136.086022 66.2104822,136.692603 67.1911925,137.673314 C68.1719028,138.654024 68.7784848,140.008863 68.7784848,141.505376 L68.7784848,180.131763 C68.7784848,181.597332 68.1849069,183.000417 67.1331238,184.021027 L58.5369958,192.362383 C57.5257544,193.343653 56.1720796,193.892473 54.7630019,193.892473 Z" stroke-linejoin="square" fill="#0D2436" fill-rule="evenodd"></path>
                </g>
                <g id="Group-35" transform="translate(221.591398, 96.946237)">
                    <text id="App" opacity="0.15734282" font-family="'Avenir-Roman', 'Arial', sans-serif" font-size="10.8387097" font-weight="normal" fill="#FFFFFF">
                        <tspan x="22.8817204" y="13.4086022">App</tspan>
                    </text>
                    <g id="Group-6-Copy-10" opacity="0.163109189">
                        <polygon id="Fill-1" fill="#FFFFFF" points="5.57707716 0 0.220052242 2.45953527 5.57707716 4.919893 10.9341021 2.45953527"></polygon>
                        <polygon id="Fill-2" fill="#FFFFFF" points="6.07485885 12.1445245 11.4314725 14.604471 16.7880862 12.1445245 11.4314725 9.68498925"></polygon>
                        <polygon id="Fill-3" fill="#6553C0" points="11.5360881 15.2067449 11.5360881 21.2686091 16.7882507 18.8197656 16.7882507 12.7467984"></polygon>
                        <polygon id="Fill-4" fill="#EA595B" points="6.20163944 5.50839087 11.453802 3.04844437 11.453802 9.12141159 6.20163944 11.570255"></polygon>
                        <polygon id="Fill-5" fill="#E7A015" points="0 16.5520726 10.7132274 21.4888258 10.7132274 15.4269617 5.35702491 13.023353 5.35702491 5.74238363 0 3.28202591"></polygon>
                    </g>
                </g>
                <g id="Group-36" transform="translate(224.000000, 38.537634)">
                    <text id="App" opacity="0.084841" font-family="'Avenir-Roman', 'Arial', sans-serif" font-size="10.8387097" font-weight="normal" fill="#FFFFFF">
                        <tspan x="23.1827957" y="14.0107527">App</tspan>
                    </text>
                    <g id="Group-28" opacity="0.080167">
                        <polygon id="Fill-1" fill="#FFFFFF" points="5.57707716 7.48743958e-15 0.220052242 2.45953527 5.57707716 4.919893 10.9341021 2.45953527"></polygon>
                        <polygon id="Fill-2" fill="#FFFFFF" points="6.07485885 12.1445245 11.4314725 14.604471 16.7880862 12.1445245 11.4314725 9.68498925"></polygon>
                        <polygon id="Fill-3" fill="#EA595B" points="11.5360881 15.2067449 11.5360881 21.2686091 16.7882507 18.8197656 16.7882507 12.7467984"></polygon>
                        <polygon id="Fill-5" fill="#196564" points="4.92031744e-13 16.5520726 10.7132274 21.4888258 10.7132274 15.4269617 5.35702491 13.023353 5.35702491 5.74238363 4.92031744e-13 3.28202591"></polygon>
                    </g>
                    <polygon id="Fill-4" fill="#6553C0" opacity="0.100167411" points="6.20163944 5.50839087 11.453802 3.04844437 11.453802 9.12141159 6.20163944 11.570255"></polygon>
                </g>
                <g id="Group-38" transform="translate(220.989247, 211.956989)">
                    <text id="App" opacity="0.162016369" font-family="'Avenir-Roman', 'Arial', sans-serif" font-size="10.8387097" font-weight="normal" fill="#FFFFFF">
                        <tspan x="23.1827957" y="14.0107527">App</tspan>
                    </text>
                    <g id="Group-6-Copy-11" opacity="0.159295945">
                        <polygon id="Fill-1" fill="#FFFFFF" points="5.57707716 0 0.220052242 2.45953527 5.57707716 4.919893 10.9341021 2.45953527"></polygon>
                        <polygon id="Fill-2" fill="#FFFFFF" points="6.07485885 12.1445245 11.4314725 14.604471 16.7880862 12.1445245 11.4314725 9.68498925"></polygon>
                        <polygon id="Fill-3" fill="#FAAD13" points="11.5360881 15.2067449 11.5360881 21.2686091 16.7882507 18.8197656 16.7882507 12.7467984"></polygon>
                        <polygon id="Fill-4" fill="#6553C0" points="6.20163944 5.50839087 11.453802 3.04844437 11.453802 9.12141159 6.20163944 11.570255"></polygon>
                        <polygon id="Fill-5" fill="#2FD3BC" points="0 16.5520726 10.7132274 21.4888258 10.7132274 15.4269617 5.35702491 13.023353 5.35702491 5.74238363 0 3.28202591"></polygon>
                    </g>
                </g>
                <g id="Group-33" transform="translate(220.989247, 270.365591)" opacity="0.08">
                    <text id="App" font-family="'Avenir-Roman', 'Arial', sans-serif" font-size="10.8387097" font-weight="normal" fill="#FFFFFF">
                        <tspan x="23.1827957" y="13.4086022">App</tspan>
                    </text>
                    <g id="Group-6-Copy-12">
                        <polygon id="Fill-1" fill="#FFFFFF" points="5.57707716 0 0.220052242 2.45953527 5.57707716 4.919893 10.9341021 2.45953527"></polygon>
                        <polygon id="Fill-2" fill="#FFFFFF" points="6.07485885 12.1445245 11.4314725 14.604471 16.7880862 12.1445245 11.4314725 9.68498925"></polygon>
                        <polygon id="Fill-3" fill="#2FD3BC" points="11.5360881 15.2067449 11.5360881 21.2686091 16.7882507 18.8197656 16.7882507 12.7467984"></polygon>
                        <polygon id="Fill-4" fill="#FAAD13" points="6.20163944 5.50839087 11.453802 3.04844437 11.453802 9.12141159 6.20163944 11.570255"></polygon>
                        <polygon id="Fill-5" fill="#EA595B" points="0 16.5520726 10.7132274 21.4888258 10.7132274 15.4269617 5.35702491 13.023353 5.35702491 5.74238363 0 3.28202591"></polygon>
                    </g>
                </g>
                <text id="Your-internal-cloud-Copy" font-family="'Avenir-Roman', 'Arial', sans-serif" font-size="9.03225806" font-weight="400" fill="#FFFFFF">
                    <tspan x="101.46086" y="175.795699">Your internal cloud </tspan>
                    <tspan x="122.135699" y="187.795699">platform</tspan>
                </text>
                <g id="Group-39" transform="translate(220.989247, 154.150538)">
                    <text id="App" font-family="'Avenir-Roman', 'Arial', sans-serif" font-size="10.8387097" font-weight="normal" fill="#FFFFFF">
                        <tspan x="23.483871" y="14.6129032">App</tspan>
                    </text>
                    <g id="Group-6-Copy-9">
                        <polygon id="Fill-1" fill="#FFFFFF" points="5.57707716 0 0.220052242 2.45953527 5.57707716 4.919893 10.9341021 2.45953527"></polygon>
                        <polygon id="Fill-2" fill="#FFFFFF" points="6.07485885 12.1445245 11.4314725 14.604471 16.7880862 12.1445245 11.4314725 9.68498925"></polygon>
                        <polygon id="Fill-3" fill="#43C5AE" points="11.5360881 15.2067449 11.5360881 21.2686091 16.7882507 18.8197656 16.7882507 12.7467984"></polygon>
                        <polygon id="Fill-4" fill="#EA595B" points="6.20163944 5.50839087 11.453802 3.04844437 11.453802 9.12141159 6.20163944 11.570255"></polygon>
                        <polygon id="Fill-5" fill="#6553C0" points="0 16.5520726 10.7132274 21.4888258 10.7132274 15.4269617 5.35702491 13.023353 5.35702491 5.74238363 0 3.28202591"></polygon>
                    </g>
                </g>
                <g id="Group-52-Copy" transform="translate(21.075269, 151.139785)">
                    <g id="Group-51">
                        <g id="Group-26" transform="translate(0.175652, 0.032685)">
                            <g id="Group-44" transform="translate(2.620421, 0.000000)">
                                <mask id="mask-22" fill="white">
                                    <use xlink:href="#path-21"></use>
                                </mask>
                                <g id="Clip-43"></g>
                                <path d="M0.0158059478,7.82362619 C0.253357665,7.20737344 0.633417287,6.66772231 0.955462028,6.09777741 C1.88965482,4.44457008 2.84795545,2.80500651 3.78599278,1.15396716 C4.22025165,0.389598691 4.84728644,0.00878750572 5.7380042,0.010753132 C9.78676074,0.0196273565 13.8355462,0.018066418 17.8842738,0.00825751177 C18.7436861,0.0062148478 19.3921982,0.330369746 19.8216298,1.08334914 C20.5601271,2.37823436 21.3040878,3.67005551 22.0435101,4.96439151 C22.0776484,5.02411186 22.0899625,5.09629082 22.1125672,5.16277524 C21.8840921,5.17057993 21.6556169,5.18393462 21.4270839,5.18511978 C19.7360672,5.19402291 18.0450216,5.20055573 16.3540049,5.2078112 C16.2484392,5.19650885 16.1429313,5.17546509 16.0373656,5.17537837 C13.2853443,5.1732393 10.533294,5.17688149 7.78127272,5.16745805 C7.49819363,5.16650414 7.3338904,5.25276045 7.19060202,5.50496765 C6.1391654,7.35592276 5.07856549,9.20184818 4.00533354,11.0402291 C3.65825597,11.6347732 3.38506283,12.2762033 2.92606019,12.8026732 C2.86752499,12.7153184 2.80390229,12.6308832 2.75120617,12.5401175 C1.83860635,10.9684259 0.927365135,9.39595377 0.0158059478,7.82362619" id="Fill-42" fill="#4A89F6" mask="url(#mask-22)"></path>
                            </g>
                            <path d="M2.63622703,7.82362619 C3.54778622,9.39595377 4.45902744,10.9684259 5.37162725,12.5401175 C5.42432338,12.6308832 5.48794607,12.7153184 5.54651018,12.8026154 C5.5705891,12.8685795 5.58550473,12.9398912 5.62004772,12.9998428 C7.00084237,15.3969241 8.38779406,17.7905366 9.76040823,20.1923006 C9.93517553,20.498129 10.1512499,20.5891548 10.4912454,20.5840962 C11.7862752,20.5647868 13.0817385,20.5702212 14.3770573,20.5739212 C15.8493981,20.5781126 17.3217389,20.5903689 18.7941086,20.5991564 C18.7819391,20.6681845 18.787836,20.7476768 18.7549696,20.8047956 C18.2002293,21.7691087 17.6296196,22.7244898 17.0860372,23.69496 C16.7159503,24.3556416 16.2805062,24.9809999 15.9912701,25.6861105 C15.8367083,25.745455 15.6751511,25.7221855 15.5165424,25.7222722 C13.1547268,25.7235152 10.7929402,25.7225324 8.43112455,25.722966 C8.07375635,25.7230238 7.72136003,25.6995808 7.38934262,25.5485744 C6.96976813,25.3577353 6.66769762,25.049739 6.43956935,24.6508614 C4.40465474,21.0926153 2.36890186,17.5348317 0.324072401,13.9822802 C-0.118309137,13.213807 -0.105041159,12.4838081 0.347081791,11.7228217 C0.999554091,10.624528 1.62031621,9.50744525 2.25385491,8.39793593 C2.36823701,8.19761549 2.47675115,7.99376848 2.63622703,7.82362619" id="Fill-45" fill="#FCC003"></path>
                            <path d="M15.9912759,25.6861191 C16.280512,24.9809796 16.715956,24.3556503 17.086043,23.6949686 C17.6296254,22.7244985 18.2002062,21.7691174 18.7549464,20.8048042 C18.7878418,20.7476566 18.7819449,20.6681932 18.7940855,20.599165 C19.0120388,20.4790306 19.0871373,20.2473758 19.1996116,20.0528077 C20.4861718,17.8278922 21.7527578,15.5913274 23.0569797,13.376876 C23.2827666,12.993521 23.2535712,12.730792 23.0416883,12.3693191 C21.840575,10.3203849 20.6610258,8.25870311 19.4824305,6.19667442 C19.2989335,5.8756125 19.0710365,5.5745248 18.9744317,5.20781987 C20.6654485,5.2005644 22.3564941,5.19403158 24.0475108,5.18509955 C24.2760438,5.18391439 24.5045189,5.17055969 24.7329941,5.16278391 C25.2579608,5.92249846 25.672708,6.74754119 26.1361333,7.54367764 C26.9480525,8.93860746 27.7443335,10.3426427 28.5510497,11.7406077 C28.7031834,12.0043196 28.8209764,12.2769346 28.8832116,12.5763747 C29.0085781,13.1795618 28.7311068,13.7006262 28.4349332,14.150321 C28.1953002,14.5141064 27.9891118,14.8979527 27.7630359,15.2668835 C27.1549636,16.2592357 26.5712882,17.2682957 26.0201035,18.2933698 C25.0103786,20.1712077 23.9514264,22.0207753 22.8916069,23.8701695 C22.7329115,24.1470916 22.5715278,24.4225394 22.4168793,24.7016872 C22.0707845,25.3263228 21.5170849,25.6818699 20.8310236,25.7003121 C19.2186319,25.7437004 17.6042457,25.7665653 15.9912759,25.6861191" id="Fill-47" fill="#ED4936"></path>
                            <path d="M18.2593022,12.9700694 C18.3823273,10.7638562 16.5559425,9.07032465 14.4952435,9.01306134 C12.4376664,8.95591364 10.579398,10.7993242 10.5793113,12.8691287 C10.5792245,15.0687223 12.5277961,16.7177382 14.4505833,16.7230413 C16.5136526,16.7286648 18.3485937,14.9373722 18.2593022,12.9700694 M18.9744144,5.2078112 C19.071048,5.57451613 19.2989451,5.87560382 19.4824421,6.19666575 C20.6610374,8.25872334 21.8405577,10.3203762 23.0416709,12.3693393 C23.2535539,12.7308122 23.2827492,12.9935413 23.0569913,13.3768673 C21.7527404,15.5913476 20.4861544,17.8279124 19.1996231,20.052799 C19.0871199,20.2473671 19.0120503,20.4790508 18.7940971,20.5991564 C17.3217563,20.5903689 15.8494155,20.5781126 14.3770458,20.5739212 C13.0817559,20.5702212 11.7862636,20.5647868 10.4912339,20.5840962 C10.1512383,20.5891548 9.93516397,20.498129 9.76039667,20.1923006 C8.38778249,17.7905366 7.00085972,15.3969241 5.62003616,12.9998428 C5.58549317,12.9398912 5.57060644,12.8685795 5.54652752,12.8026154 C6.00550126,12.2762033 6.2786944,11.6347732 6.62577197,11.0402291 C7.69900392,9.20184818 8.75957492,7.35592276 9.81104045,5.50496765 C9.95429992,5.25276045 10.1186032,5.16650414 10.4016822,5.16745024 C13.1537036,5.17688149 15.9057538,5.1732393 18.657804,5.17537837 C18.7633408,5.17546509 18.8688776,5.19650885 18.9744144,5.2078112" id="Fill-49" fill="#FFFFFF"></path>
                        </g>
                    </g>
                </g>
                <text id="Identity,-policy,-mo-Copy" font-family="'Avenir-Roman', 'Arial', sans-serif" font-size="7.22580645" font-weight="400" line-spacing="9.03225806" fill="#FFFFFF">
                    <tspan x="95.1397849" y="227.387097">Identity, policy, monitoring, </tspan>
                    <tspan x="112.615398" y="236.419355">alerting, security</tspan>
                </text>
                <g id="Group-30" opacity="0.0811941964" transform="translate(16.860215, 270.365591)" fill="#D3E7F7">
                    <path d="M3.82560683,16.2290371 C4.56169718,16.7264381 5.39215808,16.9436698 6.26165897,17.0249074 C8.52131353,17.2358238 10.7292257,16.8584851 12.9288133,16.4121088 C13.6155295,16.2727418 14.2959305,16.1019418 15.0079079,16.0118771 C14.5127316,16.2534371 14.0219329,16.5043264 13.5216613,16.7349063 C11.2300715,17.7911389 8.83506872,18.4590528 6.31354484,18.666381 C4.91721942,18.7812045 3.5460834,18.7157551 2.24161676,18.1569235 C0.444772649,17.387319 -0.316363572,15.8115819 0.120468049,13.9035743 C0.462354996,12.4100077 1.29001708,11.1755834 2.16202973,9.96685088 C4.54648307,6.66165667 7.66745734,4.26076923 11.347335,2.55485096 C13.4846307,1.56399599 15.69771,0.795180952 18.0140586,0.357344625 C20.3940626,-0.0925481681 22.7773677,-0.201128132 25.1316798,0.525991629 C26.1795877,0.849506817 27.113031,1.36980076 27.7396802,2.30640163 C28.423167,3.32797189 28.4843823,4.44936681 28.1545518,5.59982643 C27.800106,6.83618838 27.0746368,7.87577157 26.3278536,8.89834653 C25.1529939,10.5071672 23.8066885,11.9776255 22.5711877,13.5375744 C22.2234161,13.9767025 21.8678939,14.4125294 21.6423375,14.9321775 C21.3821187,15.5317714 21.558301,15.8402878 22.2135126,15.8966948 C22.8344924,15.9500877 23.450951,15.8502631 24.0662614,15.7808666 C28.2906176,15.3048515 32.3065692,14.053706 36.2395609,12.4977042 C36.8706595,12.2480348 37.4964475,11.9850173 38.1250344,11.7291762 C38.1332873,11.7258032 38.1468509,11.7353479 38.2234955,11.7596762 C37.7667851,12.031162 37.3561476,12.2941795 36.9285736,12.5262665 C33.1494454,14.5783776 29.2437244,16.3368276 25.1097198,17.5536696 C23.6422039,17.9856212 22.1540914,18.3145187 20.6063425,18.2489258 C20.0734897,18.2263917 19.5619511,18.1259211 19.1038771,17.8482636 C18.4685444,17.4632461 18.2226786,16.690484 18.4272079,15.8285901 C18.6480996,14.8975869 19.1933677,14.1455648 19.7604522,13.4082545 C20.6328954,12.2741572 21.624468,11.2413916 22.554323,10.1560226 C23.7311921,8.78223127 24.9218399,7.41733878 25.8331078,5.84253459 C26.0783995,5.41862061 26.2486971,4.961049 26.2797712,4.4632174 C26.4100959,3.9759352 26.2629065,3.54771534 25.984029,3.15638253 C25.6829761,2.73397561 25.2472927,2.47669922 24.7863482,2.27575811 C23.6244062,1.76924299 22.3825902,1.50278072 21.1839047,1.10570673 C21.100227,1.07800557 21.0185588,1.07262321 20.9419859,1.11661496 C20.5737613,1.32846431 20.2068285,1.54268188 19.8456369,1.75252181 C20.0205274,2.0725923 20.3853073,2.17880403 20.5345061,2.50755804 C18.9821642,2.78629206 17.4612553,3.0767955 15.9619476,3.47178831 C13.5733319,4.10109281 11.2477256,4.92624313 8.91027811,5.71522404 C8.70904994,5.7831852 8.69785465,5.87547458 8.77579109,6.05187217 C8.91530163,6.36756501 9.01742278,6.70019431 9.16317685,7.01265773 C9.27333563,7.24869178 9.26580034,7.41238702 9.05438159,7.59825754 C8.71392993,7.89751627 8.40684886,8.23481027 8.08555838,8.55595723 C7.45481858,9.1863382 7.45489035,9.1861229 6.63713179,8.84129361 C6.6173965,8.8329689 6.5912024,8.84021713 6.54835888,8.84021713 C6.54835888,9.68818862 6.53285771,10.5356578 6.55646829,11.3820504 C6.56529535,11.6955186 6.45190715,11.8227573 6.17511077,11.9565267 C5.18368168,12.4357712 4.23968905,12.9926652 3.55821163,13.8971155 C2.91742478,14.7474552 3.02421063,15.6929549 3.82560683,16.2290371" id="Fill-1"></path>
                    <path d="M3.82560683,16.2290371 C3.02421063,15.6929549 2.91742478,14.7474552 3.55821163,13.8971155 C4.23968905,12.9926652 5.18368168,12.4357712 6.17511077,11.9565267 C6.45190715,11.8227573 6.56529535,11.6955186 6.55646829,11.3820504 C6.53285771,10.5356578 6.54835888,9.68818862 6.54835888,8.84021713 C6.5912024,8.84021713 6.6173965,8.8329689 6.63713179,8.84129361 C7.45489035,9.1861229 7.45481858,9.1863382 8.08555838,8.55595723 C8.40684886,8.23481027 8.71392993,7.89751627 9.05438159,7.59825754 C9.26580034,7.41238702 9.27333563,7.24869178 9.16317685,7.01265773 C9.01742278,6.70019431 8.91530163,6.36756501 8.77579109,6.05187217 C8.69785465,5.87547458 8.70904994,5.7831852 8.91027811,5.71522404 C11.2477256,4.92624313 13.5733319,4.10109281 15.9619476,3.47178831 C17.4612553,3.0767955 18.9821642,2.78629206 20.5345061,2.50755804 C20.3853073,2.17880403 20.0205274,2.0725923 19.8456369,1.75252181 C20.2068285,1.54268188 20.5737613,1.32846431 20.9419859,1.11661496 C21.0185588,1.07262321 21.100227,1.07800557 21.1839047,1.10570673 C22.3825902,1.50278072 23.6244062,1.76924299 24.7863482,2.27575811 C25.2472927,2.47669922 25.6829761,2.73397561 25.984029,3.15638253 C26.2629065,3.54771534 26.4100959,3.9759352 26.2797712,4.4632174 C26.1619336,3.69368471 25.6548444,3.2358978 25.011474,2.89286262 C23.8464461,2.27166753 22.5744171,1.95324763 21.3160234,1.59686422 C21.0392988,1.51849719 20.886153,1.74319241 20.6935366,1.85643707 C20.5779237,1.92439823 20.6948284,1.98468056 20.7551107,2.03434172 C21.0741765,2.29707222 21.3921658,2.56116625 21.7653421,2.87025674 C20.9818871,3.01952728 20.2647426,3.15229194 19.549177,3.29330954 C16.3108674,3.93136933 13.1476955,4.83983845 10.0368401,5.93690515 C9.49092615,6.12944979 9.44779558,6.14351567 9.70995196,6.66804373 C9.99650834,7.24115648 10.001173,7.65129164 9.42217558,8.06573268 C8.94537103,8.40697375 8.56839116,8.88751006 8.11282896,9.3405605 C8.98835808,9.61269218 9.82578016,9.70412038 10.6718858,9.66795098 C12.2150417,9.602071 13.6356236,9.13473939 14.932555,8.29337026 C15.2985548,8.05590092 15.3008513,8.05396328 14.984082,7.77723866 C14.8862667,7.69176692 14.7913938,7.60285048 14.6513809,7.47575523 C15.0886431,7.43800701 15.4061301,7.60292225 15.6733818,7.8444104 C16.0613416,8.19490911 16.2652969,8.63662073 16.2424039,9.17715232 C16.2347251,9.35792755 16.1718593,9.40450283 16.0096711,9.39158519 C15.8728158,9.38053343 15.7404817,9.43012282 15.7256265,9.19272525 C15.6845053,8.53256194 15.6640524,8.52395018 15.1214396,8.87064536 C13.4443707,9.94194854 11.614156,10.4438707 9.62670493,10.3543802 C8.88853341,10.3211531 8.16392541,10.1889626 7.45611035,9.97187441 C7.3566445,9.94137442 7.25559982,9.91604149 7.12369634,9.87958503 C7.12369634,10.562426 7.11034811,11.2169916 7.13044222,11.8706244 C7.13812104,12.1201502 7.04174107,12.2102866 6.82493997,12.3055901 C5.69349798,12.8031347 4.64071009,13.418445 3.89543387,14.4463306 C3.5048187,14.9850681 3.38640698,15.5416032 3.81383743,16.1236147 C3.83199389,16.1483736 3.82230566,16.1934418 3.82560683,16.2290371" id="Fill-14"></path>
                </g>
                <polygon id="Rectangle-Copy-54" fill="url(#linearGradient-23)" points="0 263.139785 279.397849 263.139785 279.397849 334.193548 0 334.193548"></polygon>
                <g id="Group-25" opacity="0.0829148065" transform="translate(24.688172, 37.333333)">
                    <g id="Group-3" transform="translate(0.000000, -0.000000)">
                        <mask id="mask-25" fill="white">
                            <use xlink:href="#path-24"></use>
                        </mask>
                        <g id="Clip-2"></g>
                        <path d="M6.7590402,18.1651378 C6.7603603,16.8423983 6.76740083,15.5192189 6.7577201,14.1964794 C6.75595997,13.978223 6.81448437,13.9236589 7.03054061,13.9258591 C8.27803441,13.9364199 9.52596824,13.9364199 10.773462,13.9258591 C10.9943586,13.9236589 11.0665241,13.965022 11.0634438,14.20484 C11.0493628,15.4404529 11.0612437,16.6765059 11.052003,17.9125588 C11.0506829,18.1079335 11.0995266,18.167338 11.2979815,18.1558971 C14.4935017,17.9759236 17.0725356,15.7022726 17.6370981,12.7047672 C18.0150865,10.6977763 17.5772536,8.84435699 16.3478012,7.20963408 C15.4004099,5.95069942 14.1093529,5.19032225 12.5771577,4.84445624 C8.74402945,3.9793512 5.0341105,6.48313945 4.3916622,10.3642313 C4.34633879,10.6383719 4.31773664,10.9160328 4.30409562,11.1932536 C4.29705509,11.3428648 4.2706531,11.4057896 4.1003603,11.4049095 C2.80050256,11.397869 1.50064483,11.3965489 0.200787097,11.4057896 C0.00233217535,11.4071097 -0.00250818859,11.3160228 0.000572043011,11.1699318 C0.0375348222,9.20342399 0.569974855,7.37816675 1.61373333,5.71308156 C3.31842151,2.99279702 5.76324533,1.30483011 8.90200132,0.630699421 C9.73674409,0.451605955 10.5895282,0.367559636 11.4489128,0.427404136 C11.4893959,0.430044334 11.531639,0.411562945 11.5730022,0.402762283 L11.8871858,0.402762283 C12.2845356,0.532572043 12.7038872,0.527291646 13.1109178,0.599897105 C17.6238971,1.40295749 20.9509873,4.63324036 21.838094,9.15414028 C22.5122246,12.5907987 21.7430468,15.7079931 19.5186796,18.4194769 C17.7233446,20.6077615 15.3762081,21.8869376 12.5758376,22.3247706 C12.129644,22.3942958 11.67729,22.436979 11.2222958,22.4418577 C11.0344017,22.4435795 10.9921585,22.3850551 10.9930385,22.2064017 C11.0005191,20.9443868 10.9912784,19.6823719 11.0022792,18.420797 C11.0040394,18.2056208 10.9529955,18.1457763 10.732539,18.1479765 C9.40671927,18.1616175 8.08045955,18.1580973 6.75463987,18.1607375 L6.7590402,18.1651378 Z" id="Fill-1" fill="#D3E7F7" mask="url(#mask-25)"></path>
                    </g>
                    <path d="M3.50433548,18.167514 C4.58901704,18.1424321 5.67413863,18.1468324 6.75882018,18.1653138 L6.75485988,18.1604734 C6.75750008,19.2024718 6.75794012,20.2444701 6.7654508,21.2860285 C6.76674078,21.4228787 6.72493763,21.4642419 6.58808734,21.4633618 C5.62177469,21.4585214 4.65590207,21.4554412 3.68958941,21.4651439 C3.49509479,21.4668821 3.51137601,21.3625942 3.51181605,21.2367447 C3.51181605,20.2119077 3.51049595,19.1875107 3.50917585,18.1626736 L3.50433548,18.167514 Z" id="Fill-29" fill="#D3E7F7"></path>
                    <path d="M3.50926385,18.1627616 C2.68904218,18.1596814 1.86882051,18.1478005 1.04947891,18.1592414 C0.824622002,18.1627616 0.777978495,18.0927964 0.781498759,17.8820205 C0.794699752,17.1339643 0.791179487,16.385028 0.783258892,15.6365317 C0.781498759,15.4723993 0.817581472,15.4099146 0.996674938,15.4121148 C1.76409264,15.4217955 2.53239041,15.4191553 3.29980811,15.4138749 C3.44589909,15.4125548 3.51850455,15.4327964 3.51630438,15.6088096 C3.50442349,16.4615937 3.50706369,17.3143778 3.50442349,18.167602 L3.50926385,18.1627616 Z" id="Fill-31" fill="#D3E7F7"></path>
                </g>
                <polygon id="Rectangle-Copy-55" fill="url(#linearGradient-23)" transform="translate(139.698925, 35.526882) scale(1, -1) translate(-139.698925, -35.526882) " points="0 9.58241849e-14 279.397849 1.03219703e-13 279.397849 71.0537634 0 71.0537634"></polygon>
                <g id="Group-32-Copy" transform="translate(155.956989, 71.655914)">
                    <path d="M14.5768998,8.68829454 C14.5768998,12.8076237 12.0137152,15.8396251 8.85181483,15.8396251 C5.68997595,15.8396251 3.12679135,12.8076237 3.12679135,8.68829454 C3.12679135,4.5689039 5.68997595,1.22952204 8.85181483,1.22952204 C12.0137152,1.22952204 14.5768998,4.5689039 14.5768998,8.68829454" id="Fill-1" fill="#263B67"></path>
                    <path d="M12.9074425,9.77955683 C12.9074425,9.77955683 13.6545615,7.05733356 12.5869675,4.91925621 L11.4921396,4.70568823 L12.0529246,8.35085222 L12.9074425,9.77955683 Z" id="Fill-3" fill="#2FD3BC"></path>
                    <g id="Group-7" transform="translate(0.000000, 12.282126)">
                        <mask id="mask-27" fill="white">
                            <use xlink:href="#path-26"></use>
                        </mask>
                        <g id="Clip-6"></g>
                        <path d="M17.5418614,6.59781199 C17.0932088,4.47375119 15.4176162,0.0672056747 9.24375572,0.00216395879 L9.24615328,0.000135247424 L9.10641811,0.000135247424 L8.59727303,0.000135247424 L8.45753785,0.000135247424 L8.45999689,0.00216395879 C2.28601344,0.0672056747 0.610482283,4.47375119 0.161768215,6.59781199 C0.0574432697,6.94945529 -3.68856612e-05,7.32624232 -3.68856612e-05,7.71858281 L-3.68856612e-05,7.72743537 C-3.68856612e-05,9.63903476 1.3435848,11.1886629 3.00091903,11.1886629 L14.7027106,11.1886629 C16.3601063,11.1886629 17.7036665,9.63903476 17.7036665,7.72743537 L17.7036665,7.71858281 C17.7036665,7.32624232 17.6461864,6.94945529 17.5418614,6.59781199" id="Fill-5" fill="#6553C0" mask="url(#mask-27)"></path>
                    </g>
                    <polygon id="Fill-8" fill="#BC821B" points="6.59863577 13.044153 6.41838784 15.8681807 11.2852664 15.8681807 11.0449563 13.1643388"></polygon>
                    <path d="M15.3683431,16.0882406 C15.4152494,15.9848378 15.4419915,15.8703693 15.4419915,15.7493843 C15.4419915,15.2951989 15.0737496,14.926957 14.6195027,14.926957 L3.08412694,14.926957 C2.62988002,14.926957 2.26163817,15.2951989 2.26163817,15.7493843 C2.26163817,15.8703693 2.28838027,15.9848378 2.33528654,16.0882406 L3.59431711,21.8815025 L3.61921493,21.8815025 C3.70786347,22.2400311 4.03079743,22.5061612 4.41668293,22.5061612 L13.443096,22.5061612 L13.443096,22.4941119 C13.7675054,22.4402588 14.027242,22.1970593 14.1052551,21.8815025 L14.109374,21.8815025 L15.3683431,16.0882406 Z" id="Fill-10" fill="#E6E9EE"></path>
                    <path d="M10.6944196,18.3516923 C10.6944196,18.8383986 9.86947178,19.2329522 8.85179639,19.2329522 C7.83418247,19.2329522 7.00923466,18.8383986 7.00923466,18.3516923 C7.00923466,17.864986 7.83418247,17.4704324 8.85179639,17.4704324 C9.86947178,17.4704324 10.6944196,17.864986 10.6944196,18.3516923" id="Fill-12" fill="#CED5E1"></path>
                    <path d="M4.06826712,6.59504557 C3.36725513,8.21733842 4.54888728,10.5406433 4.26855626,11.82242 C3.98810228,13.1042582 2.86653227,14.4261173 2.86653227,14.4261173 C2.86653227,14.4261173 4.66907306,14.5062207 6.0310761,12.9039691" id="Fill-14" fill="#2FD3BC"></path>
                    <path d="M12.7557317,7.19617733 C12.5391514,6.92746529 12.4061171,6.5873795 12.3968343,6.24120757 C12.3963424,6.2251623 12.3951744,6.20960885 12.3944367,6.19374802 C12.3277351,5.84530147 12.2440661,5.50681405 12.2098854,5.14625671 C12.1986968,5.02852998 12.2114223,4.91055734 12.2412382,4.79559703 C12.1923033,4.46872859 12.200664,4.13645026 12.2767714,3.7998686 C12.304866,3.67568688 12.3495591,3.56127985 12.4075311,3.45683195 C11.5282999,2.37018037 10.2609086,1.68804155 8.85181483,1.68804155 C6.19709232,1.68804155 4.04505989,4.10915487 4.04505989,7.09572538 C4.04505989,10.0822959 6.19709232,12.5034092 8.85181483,12.5034092 C10.2361337,12.5034092 11.4833609,11.8446928 12.3603174,10.7911768 C12.3125505,10.6481219 12.2835953,10.4966448 12.2766485,10.3403726 C12.2561155,9.88145347 12.488741,9.46126431 12.8368802,9.18326938 C12.8338679,8.67941125 12.8086627,8.17653673 12.7810599,7.67347779 C12.7723303,7.51437764 12.7637851,7.35527749 12.7557317,7.19617733" id="Fill-16" fill="#2FD3BC"></path>
                    <path d="M12.9563098,9.1788431 C12.9563098,11.9978298 11.1186662,14.2831424 8.85179639,14.2831424 C6.58498808,14.2831424 4.74734444,11.9978298 4.74734444,9.1788431 C4.74734444,6.35979497 6.58498808,4.07454383 8.85179639,4.07454383 C11.1186662,4.07454383 12.9563098,6.35979497 12.9563098,9.1788431" id="Fill-18" fill="#FAAD13"></path>
                    <path d="M12.61339,6.13433751 C12.61339,6.13433751 11.8923368,6.77528735 11.8523158,7.57638244 C11.8523158,7.57638244 11.3315518,6.25452329 10.2901466,6.13433751 C10.2901466,6.13433751 10.2500642,7.41623719 9.32872184,7.45625813 C9.32872184,7.45625813 9.24867995,5.17297423 6.84527174,5.41334579 C6.84527174,5.41334579 7.12560277,7.65654727 5.44324776,7.61646485 C5.44324776,7.61646485 5.84382604,6.93549407 5.40322682,6.41479149 C5.40322682,6.41479149 4.96256612,6.65510157 4.88246276,7.61646485 L4.32167776,7.53636149 L4.24151292,5.33324243 L7.5373697,2.68952413 L11.7433187,3.53064016 L12.61339,6.13433751 Z" id="Fill-20" fill="#2FD3BC"></path>
                    <g id="Group-24" transform="translate(3.073805, 0.048382)">
                        <mask id="mask-29" fill="white">
                            <use xlink:href="#path-28"></use>
                        </mask>
                        <g id="Clip-23"></g>
                        <path d="M5.77801588,3.65554731 C8.55372336,3.65554731 10.8803479,5.90016274 11.501318,8.92023773 C11.5024246,8.85058531 11.5031008,8.78074845 11.5031008,8.71072717 C11.5031008,3.90716899 8.93991623,0.0130882621 5.77801588,0.0130882621 C2.616177,0.0130882621 0.0529923999,3.90716899 0.0529923999,8.71072717 C0.0529923999,8.78074845 0.0536686371,8.85058531 0.0547137308,8.92023773 C0.675745313,5.90016274 3.00236987,3.65554731 5.77801588,3.65554731" id="Fill-22" fill="#6553C0" mask="url(#mask-29)"></path>
                    </g>
                    <path d="M7.22156082,8.35125796 C6.6991369,8.35125796 6.27415261,8.77624226 6.27415261,9.2986047 C6.27415261,9.82096713 6.6991369,10.2459514 7.22156082,10.2459514 C7.74392326,10.2459514 8.16890755,9.82096713 8.16890755,9.2986047 C8.16890755,8.77624226 7.74392326,8.35125796 7.22156082,8.35125796 M7.22156082,10.5533319 C6.52964729,10.5533319 5.9667721,9.99045675 5.9667721,9.2986047 C5.9667721,8.60675264 6.52964729,8.04387745 7.22156082,8.04387745 C7.91341287,8.04387745 8.47628806,8.60675264 8.47628806,9.2986047 C8.47628806,9.99045675 7.91341287,10.5533319 7.22156082,10.5533319" id="Fill-25" fill="#263B67"></path>
                    <path d="M10.4821365,8.35125796 C9.95977402,8.35125796 9.53478973,8.77624226 9.53478973,9.2986047 C9.53478973,9.82096713 9.95977402,10.2459514 10.4821365,10.2459514 C11.0044989,10.2459514 11.4294832,9.82096713 11.4294832,9.2986047 C11.4294832,8.77624226 11.0044989,8.35125796 10.4821365,8.35125796 M10.4821365,10.5533319 C9.79028441,10.5533319 9.22740922,9.99045675 9.22740922,9.2986047 C9.22740922,8.60675264 9.79028441,8.04387745 10.4821365,8.04387745 C11.1739885,8.04387745 11.7368637,8.60675264 11.7368637,9.2986047 C11.7368637,9.99045675 11.1739885,10.5533319 10.4821365,10.5533319" id="Fill-27" fill="#263B67"></path>
                    <mask id="mask-31" fill="white">
                        <use xlink:href="#path-30"></use>
                    </mask>
                    <g id="Clip-30"></g>
                    <polygon id="Fill-29" fill="#263B67" mask="url(#mask-31)" points="8.32257321 9.45231954 9.38106874 9.45231954 9.38106874 9.14493903 8.32257321 9.14493903"></polygon>
                    <path d="M4.12049721,8.69765736 C4.12049721,8.69765736 4.06750481,10.8437881 3.21968789,11.6651703 C3.21968789,11.6651703 4.27947441,11.1882387 4.67691741,10.2873679 C5.07436041,9.38655855 4.12049721,8.69765736 4.12049721,8.69765736" id="Fill-31" fill="#2FD3BC" mask="url(#mask-31)"></path>
                </g>
                <text id="Operators-Copy" font-family="'Avenir-Roman', 'Arial', sans-serif" font-size="7.22580645" font-weight="normal" fill="#FFFFFF">
                    <tspan x="96.9004731" y="106.354839">Operators</tspan>
                </text>
                <text id="Developers" font-family="'Avenir-Roman', 'Arial', sans-serif" font-size="7.22580645" font-weight="normal" fill="#FFFFFF">
                    <tspan x="146.813935" y="106.354839">Developers</tspan>
                </text>
                <g id="Group-30-Copy" transform="translate(104.172043, 72.258065)">
                    <path d="M4.38992295,8.42487831 C4.38992295,8.42487831 4.12904778,10.1156036 2.51317029,10.4089723 C2.51317029,10.4089723 4.13070224,12.6362057 8.13237649,12.7356056 L8.07486748,9.24423283 L4.38992295,8.42487831 Z" id="Fill-1" fill="#6553C0"></path>
                    <path d="M14.8398398,8.42487831 C14.8398398,8.42487831 15.100715,10.1156036 16.7165925,10.4089723 C16.7165925,10.4089723 15.0989944,12.6362057 11.0973863,12.7356056 L11.1548291,9.24423283 L14.8398398,8.42487831 Z" id="Fill-3" fill="#6553C0"></path>
                    <g id="Group-7" transform="translate(0.000000, 10.996530)">
                        <mask id="mask-33" fill="white">
                            <use xlink:href="#path-32"></use>
                        </mask>
                        <g id="Clip-6"></g>
                        <path d="M18.8836366,7.10247546 C18.4006668,4.81594627 16.5969089,0.0723462045 9.95081277,0.00232947896 L9.95339373,0.000145592435 L9.80290409,0.000145592435 L9.25488093,0.000145592435 L9.10445747,0.000145592435 L9.10710461,0.00232947896 C2.46087613,0.0723462045 0.657184398,4.81594627 0.174148406,7.10247546 C0.0618436957,7.48101579 -3.30891898e-05,7.88662308 -3.30891898e-05,8.3089735 L-3.30891898e-05,8.31850319 C-3.30891898e-05,10.3763199 1.44636157,12.0444783 3.23046451,12.0444783 L15.8273205,12.0444783 C17.6114896,12.0444783 19.0578181,10.3763199 19.0578181,8.31850319 L19.0578181,8.3089735 C19.0578181,7.88662308 18.9959413,7.48101579 18.8836366,7.10247546" id="Fill-5" fill="#2FD3BC" mask="url(#mask-33)"></path>
                    </g>
                    <polygon id="Fill-8" fill="#BC821B" points="7.10336887 11.8168445 6.90933386 14.8568808 12.1484776 14.8568808 11.8897202 11.9462233"></polygon>
                    <path d="M13.9473383,7.07597764 C13.9473383,10.4308906 11.9478248,13.1506235 9.48142276,13.1506235 C7.01488838,13.1506235 5.01537482,10.4308906 5.01537482,7.07597764 C5.01537482,3.72113087 7.01488838,1.001398 9.48142276,1.001398 C11.9478248,1.001398 13.9473383,3.72113087 13.9473383,7.07597764" id="Fill-10" fill="#FAAD13"></path>
                    <g id="Group-14" transform="translate(5.095735, 0.010919)">
                        <mask id="mask-35" fill="white">
                            <use xlink:href="#path-34"></use>
                        </mask>
                        <g id="Clip-13"></g>
                        <path d="M7.65663998,1.60017336 C7.65663998,1.60017336 6.87017611,0.077673564 4.45373876,0.0570259096 L4.45373876,0.0552390934 C4.43858391,0.0552390934 4.42428938,0.0560332339 4.40933307,0.0560994123 C4.40774479,0.0560994123 4.40635504,0.0560332339 4.40470058,0.0560332339 L4.40470058,0.0562317691 C1.98826323,0.0768794235 1.20186555,1.59937922 1.20186555,1.59937922 C-1.05461866,3.49982375 0.604539497,8.44612819 0.604539497,8.44612819 C0.604539497,8.44612819 0.803604063,3.91549015 1.86543616,3.32167155 C2.16707722,3.15298286 2.43106277,3.10440793 2.67598895,3.12082017 C2.20678424,4.10727509 2.08005265,5.70468882 2.08005265,5.70468882 C2.08005265,5.70468882 2.82972133,3.7059694 3.29819808,3.4439692 C3.37139137,3.40300478 3.43922421,3.37944528 3.50388048,3.36640813 C3.73914462,3.46554335 3.97751914,3.5639506 4.23925464,3.60140756 L4.43501028,0.990471953 L4.59820617,3.60537826 C4.86854485,3.5703699 5.11353721,3.46878609 5.35535301,3.36693756 C5.41967839,3.3799747 5.4873127,3.40346803 5.56024127,3.44430009 C6.02871802,3.70630029 6.7783867,5.70508589 6.7783867,5.70508589 C6.7783867,5.70508589 6.65152275,4.10806923 6.18264893,3.12154813 C6.42750893,3.10520207 6.69142831,3.15384318 6.99300319,3.32239951 C8.05483529,3.91635047 8.25389985,8.44692233 8.25389985,8.44692233 C8.25389985,8.44692233 9.913058,3.50061789 7.65663998,1.60017336" id="Fill-12" fill="#6553C0" mask="url(#mask-35)"></path>
                    </g>
                    <path d="M16.5438669,15.0937729 C16.594361,14.9824609 16.6231486,14.8592367 16.6231486,14.7289977 C16.6231486,14.2400718 16.2267401,13.8436633 15.7377481,13.8436633 L3.32003694,13.8436633 C2.8310449,13.8436633 2.4346364,14.2400718 2.4346364,14.7289977 C2.4346364,14.8592367 2.463424,14.9824609 2.5139181,15.0937729 L3.86925132,21.3301587 L3.89605356,21.3301587 C3.99148278,21.716111 4.33911781,22.0025972 4.7545195,22.0025972 L14.4713586,22.0025972 L14.4713586,21.9896262 C14.8205819,21.9316539 15.1001856,21.6698523 15.1841659,21.3301587 L15.1885999,21.3301587 L16.5438669,15.0937729 Z" id="Fill-15" fill="#0D2436"></path>
                    <path d="M11.8642018,10.9915538 C11.7984867,10.9915538 11.7414409,10.9425818 11.7331024,10.8756093 L11.5750023,9.61094047 C11.5706345,9.57619682 11.5802304,9.54125463 11.6015398,9.51359207 L12.4973303,8.35427922 C12.5421993,8.29637314 12.6252532,8.28585077 12.6830269,8.330455 C12.7408668,8.37519159 12.7515215,8.45831163 12.7068511,8.51615153 L11.8444145,9.6322499 L11.9956982,10.8427848 C12.0047647,10.9153163 11.9533441,10.9814947 11.8808126,10.990495 C11.8752536,10.9912229 11.8696946,10.9915538 11.8642018,10.9915538" id="Fill-17" fill="#BC821B"></path>
                    <path d="M9.52889913,16.5816879 C8.43338223,16.5816879 7.54533456,17.0064207 7.54533456,17.5303549 C7.54533456,18.0542892 8.43338223,18.479022 9.52889913,18.479022 C10.624416,18.479022 11.5124637,18.0542892 11.5124637,17.5303549 C11.5124637,17.0064207 10.624416,16.5816879 9.52889913,16.5816879 M9.52889913,17.0449365 C9.97361784,17.0449365 10.4050347,17.1264021 10.7125656,17.2684871 C10.9836323,17.3937628 11.0478253,17.5122882 11.049215,17.5302888 C11.0478253,17.5484216 10.9836984,17.6668809 10.7126318,17.7921566 C10.4050347,17.9342416 9.97361784,18.0157733 9.52889913,18.0157733 C9.08418042,18.0157733 8.65276356,17.9342416 8.34523263,17.7921566 C8.07416599,17.6668809 8.00997296,17.5484216 8.00858322,17.5303549 C8.00997296,17.5122882 8.07416599,17.3937628 8.34523263,17.2684871 C8.65276356,17.1264021 9.08418042,17.0449365 9.52889913,17.0449365" id="Fill-19" fill="#D3E7F7"></path>
                    <path d="M13.4182951,11.0236106 L10.9538123,11.0236106 L10.9538123,10.560362 L13.2362384,10.560362 L13.8399838,8.07536382 L14.2901953,8.18475668 L13.6433678,10.8466496 C13.6181538,10.9505497 13.525107,11.0236106 13.4182951,11.0236106" id="Fill-21" fill="#1A826E"></path>
                    <mask id="mask-37" fill="white">
                        <use xlink:href="#path-36"></use>
                    </mask>
                    <g id="Clip-24"></g>
                    <polygon id="Fill-23" fill="#2FD3BC" mask="url(#mask-37)" points="8.77240745 11.1656824 10.953316 11.1656824 10.953316 10.4583679 8.77240745 10.4583679"></polygon>
                    <path d="M8.9378534,11.0002364 L10.78787,11.0002364 L10.78787,10.6238138 L8.9378534,10.6238138 L8.9378534,11.0002364 Z M10.953316,11.3311283 L8.77240745,11.3311283 C8.68108129,11.3311283 8.60696151,11.2570747 8.60696151,11.1656824 L8.60696151,10.4583017 C8.60696151,10.3669093 8.68108129,10.2928557 8.77240745,10.2928557 L10.953316,10.2928557 C11.0447083,10.2928557 11.1187619,10.3669093 11.1187619,10.4583017 L11.1187619,11.1656824 C11.1187619,11.2570747 11.0447083,11.3311283 10.953316,11.3311283 L10.953316,11.3311283 Z" id="Fill-25" fill="#2FD3BC" mask="url(#mask-37)"></path>
                    <path d="M14.6562345,7.68689673 L13.9308533,7.62488759 C13.9329048,7.60046777 14.1205205,5.12784497 12.7023841,3.58694758 C11.9370973,2.75541625 10.8290065,2.33385997 9.40875228,2.33385997 C7.99101286,2.33385997 6.9094596,2.75032051 6.1941375,3.5715942 C4.86937869,5.09263808 5.19041001,7.53746595 5.19385129,7.56195195 L4.47290402,7.66320487 C4.45695503,7.55010602 4.09992268,4.871867 5.64201128,3.0971614 C6.50180078,2.10759609 7.76911675,1.60589779 9.40875228,1.60589779 C11.0430935,1.60589779 12.3326454,2.1078608 13.2415393,3.09782318 C14.8758144,4.87788923 14.6658966,7.57300374 14.6562345,7.68689673" id="Fill-26" fill="#2FD3BC" mask="url(#mask-37)"></path>
                    <path d="M14.2813936,6.22813333 C14.954163,6.22813333 15.499539,6.84789385 15.499539,7.61238649 C15.499539,8.37694531 14.954163,8.99670584 14.2813936,8.99670584 L13.8384617,8.99670584 L13.8384617,6.22813333 L14.2813936,6.22813333 Z" id="Fill-27" fill="#1A826E" mask="url(#mask-37)"></path>
                    <path d="M4.75771591,6.22813333 C4.08494651,6.22813333 3.53957048,6.84789385 3.53957048,7.61238649 C3.53957048,8.37694531 4.08494651,8.99670584 4.75771591,8.99670584 L5.20064781,8.99670584 L5.20064781,6.22813333 L4.75771591,6.22813333 Z" id="Fill-28" fill="#209E89" mask="url(#mask-37)"></path>
                    <path d="M7.25194595,10.9915538 C7.24645314,10.9915538 7.24089416,10.9912229 7.23533518,10.990495 C7.16280367,10.9814947 7.11138307,10.9153163 7.12044951,10.8427848 L7.27173328,9.6322499 L6.40929664,8.51615153 C6.36462624,8.45831163 6.37528096,8.37519159 6.43312086,8.330455 C6.49089458,8.28585077 6.57401463,8.29637314 6.61881739,8.35427922 L7.51460794,9.51359207 C7.53591738,9.54125463 7.54551324,9.57619682 7.54114547,9.61094047 L7.38304532,10.8756093 C7.37470684,10.9425818 7.31766108,10.9915538 7.25194595,10.9915538" id="Fill-29" fill="#BC821B" mask="url(#mask-37)"></path>
                </g>
                <g id="Group-27" opacity="0.155924479" transform="translate(22.881720, 212.559140)" fill="#D3E7F7">
                    <path d="M6.47119939,20.4053761 C10.502035,19.6949868 14.5328707,18.9845976 18.6395944,18.2607841 C18.1456369,17.6698433 17.6914043,17.1243805 17.2355278,16.5811094 C15.6070844,14.6406208 13.9813807,12.6979405 12.3444445,10.7648489 C12.1962298,10.5897858 12.2233523,10.4533516 12.2888297,10.273905 C13.1589401,7.89507366 14.025215,5.51514643 14.8912159,3.1352192 C15.1010725,2.55825054 15.3065457,1.97991206 15.5465383,1.31089142 C15.9454302,1.9903227 16.3007618,2.58729075 16.6484224,3.18919015 C18.4198751,6.25293209 20.1891361,9.31776988 21.958671,12.3823337 C23.4435571,14.9543099 24.9281693,17.526012 26.4116856,20.0985361 C26.6237339,20.4664701 26.6204463,20.4686618 26.2059384,20.4686618 C20.6633682,20.4689358 15.120524,20.4683878 9.57795371,20.4694837 C8.65661202,20.4697577 7.73499636,20.4782505 6.81365467,20.4807343 C6.70598673,20.4812641 6.59859275,20.4692097 6.49119878,20.4631825 C6.48462364,20.444005 6.47777453,20.4245536 6.47119939,20.4053761" id="Fill-1"></path>
                    <path d="M3.20890268e-15,18.1780743 C0.587105336,17.1613931 1.14818407,16.1877242 1.71063262,15.2148772 C3.34181562,12.3941416 4.97710809,9.57587158 6.5989763,6.74965663 C6.75732763,6.47350069 6.98471793,6.28638312 7.21347806,6.09378627 C9.59587097,4.08919003 11.9820994,2.08897722 14.3680538,0.0884904449 C14.4217508,0.0435603119 14.4828448,0.00739703409 14.5927045,-9.62670803e-15 C14.3368219,0.554777557 14.083131,1.11065097 13.8247828,1.66433267 C11.6070423,6.41679009 9.38793212,11.1686996 7.17019171,15.921431 C6.8578725,16.5909995 6.55021067,17.2627598 6.24282281,17.9345201 C6.16994833,18.0934194 6.10556673,18.2219086 5.88228589,18.2208197 C3.97933038,18.2114979 2.07637487,18.2147855 0.173145391,18.2131417 C0.138351934,18.2131417 0.103832442,18.1997175 3.20890268e-15,18.1780743" id="Fill-3"></path>
                </g>
                <g id="Group-13" opacity="0.161202567" transform="translate(22.881720, 98.150538)">
                    <path d="M15.8195613,7.25790968 C15.9294968,6.8352 16.0394323,6.41171613 16.1485935,5.98900645 C16.5356903,4.49094194 16.9212387,2.99210323 17.3098839,1.4948129 C17.4205935,1.06668387 17.5049806,1.00629677 17.9470452,1.00552258 C18.1692387,1.00552258 18.3914323,1.00397419 18.6128516,1.00629677 C18.8327226,1.00784516 18.9101419,1.09532903 18.8652387,1.30900645 C18.7769806,1.72242581 18.6291097,2.11803871 18.5052387,2.52061935 C17.9114323,4.43752258 17.3122065,6.35287742 16.714529,8.26900645 C16.7036903,8.30616774 16.6928516,8.34255484 16.6796903,8.37971613 C16.5682065,8.72190968 16.474529,8.79468387 16.1160774,8.79932903 C15.8551742,8.80242581 15.5934968,8.80242581 15.3325935,8.7915871 C15.0802065,8.78152258 14.9818839,8.69868387 14.9168516,8.44242581 C14.8007226,7.97945806 14.6915613,7.51494194 14.5808516,7.0512 C14.2471742,5.65997419 13.9134968,4.26797419 13.5790452,2.87674839 C13.5689806,2.83571613 13.5527226,2.79545806 13.5294968,2.72423226 C13.3762065,3.36294194 13.2306581,3.97223226 13.0843355,4.58074839 C12.7854968,5.83261935 12.4874323,7.08449032 12.186271,8.3355871 C12.0925935,8.72268387 12.0058839,8.78694194 11.6118194,8.78926452 C11.3787871,8.79003871 11.1457548,8.7908129 10.9127226,8.78849032 C10.6216258,8.78461935 10.5132387,8.71416774 10.4218839,8.43390968 C10.2755613,7.98100645 10.1408516,7.52345806 10.002271,7.06668387 C9.43633548,5.19932903 8.8704,3.3312 8.30523871,1.46384516 C8.28743226,1.40500645 8.2704,1.34616774 8.26033548,1.28655484 C8.23014194,1.10461935 8.30756129,1.00861935 8.48949677,1.00629677 C8.77285161,1.0032 9.05620645,1.0032 9.33956129,1.00707097 C9.63143226,1.01094194 9.73052903,1.07132903 9.81259355,1.35236129 C9.93569032,1.77816774 10.0402065,2.20939355 10.1493677,2.63984516 C10.5194323,4.10152258 10.8887226,5.56474839 11.2587871,7.0272 C11.2704,7.07287742 11.2874323,7.11700645 11.3307871,7.16655484 C11.3485935,7.09532903 11.3679484,7.02332903 11.3842065,6.95132903 C11.8162065,5.12190968 12.2466581,3.29094194 12.6802065,1.46152258 C12.7723355,1.07287742 12.858271,1.00861935 13.2531097,1.00552258 C13.4691097,1.00474839 13.6858839,1.0032 13.9026581,1.00629677 C14.2316903,1.01094194 14.3377548,1.09223226 14.4144,1.4112 C14.5715613,2.06384516 14.7248516,2.71726452 14.8789161,3.37068387 C15.1839484,4.66668387 15.4874323,5.96268387 15.7916903,7.25868387 C15.8009806,7.25790968 15.810271,7.25790968 15.8195613,7.25790968" id="Fill-1" fill="#D3E7F7"></path>
                    <g id="Group-5" transform="translate(0.000000, 11.144826)">
                        <mask id="mask-39" fill="white">
                            <use xlink:href="#path-38"></use>
                        </mask>
                        <g id="Clip-4"></g>
                        <path d="M12.8464258,5.41734194 C8.39171613,5.30895484 4.39842581,3.91463226 0.910683871,1.11437419 C0.655974194,0.909987097 0.411329032,0.691664516 0.163587097,0.477212903 C0.117909677,0.437729032 0.0737806452,0.392825806 0.0412645161,0.341729032 C-0.00983225806,0.261987097 -0.0168,0.174503226 0.0381677419,0.0908903226 C0.0892645161,0.0126967742 0.169006452,-0.00510967742 0.257264516,0.00108387097 C0.362554839,0.0080516129 0.443845161,0.0684387097 0.529780645,0.117212903 C2.42655484,1.20263226 4.43403871,2.01863226 6.54061935,2.59153548 C8.19971613,3.04134194 9.88513548,3.32934194 11.5999742,3.45089032 C15.6567484,3.73889032 19.5563613,3.06843871 23.3135226,1.52624516 C23.4265548,1.47979355 23.5372645,1.42947097 23.6642323,1.43643871 C23.8283613,1.44650323 23.9514581,1.51618065 24.0195871,1.66869677 C24.0869419,1.8212129 24.0397161,1.95979355 23.9290065,2.06430968 C23.8128774,2.17424516 23.6797161,2.26714839 23.547329,2.35850323 C21.9122323,3.48805161 20.1075871,4.23747097 18.1968774,4.74301935 C16.4448774,5.20676129 14.6626839,5.44366452 12.8464258,5.41734194" id="Fill-3" fill="#D3E7F7" mask="url(#mask-39)"></path>
                    </g>
                    <path d="M5.98978065,5.8251871 C5.98978065,5.7531871 5.98049032,5.67963871 5.99132903,5.6084129 C6.01455484,5.46286452 5.95107097,5.40944516 5.81326452,5.38312258 C5.20087742,5.26621935 4.58771613,5.19344516 3.96216774,5.24609032 C3.08268387,5.3204129 2.58797419,5.84686452 2.62513548,6.68454194 C2.65532903,7.3611871 3.00836129,7.76376774 3.68190968,7.82725161 C4.27184516,7.88299355 4.82849032,7.75138065 5.31468387,7.39138065 C5.65378065,7.14054194 5.87597419,6.81150968 5.94255484,6.3888 C5.97197419,6.20221935 5.99674839,6.01486452 5.98978065,5.8251871 M6.07184516,7.78699355 C5.87132903,8.00531613 5.67003871,8.21202581 5.43390968,8.37925161 C4.58307097,8.98157419 3.64474839,9.1364129 2.6475871,8.87783226 C1.71390968,8.63550968 1.12165161,7.8171871 1.08990968,6.79370323 C1.04887742,5.4651871 1.89816774,4.46957419 3.25068387,4.24583226 C4.09455484,4.10647742 4.92061935,4.21873548 5.7435871,4.39447742 C5.97816774,4.4448 5.97739355,4.44712258 5.97739355,4.20867097 C5.97816774,3.86415484 5.98049032,3.51963871 5.92242581,3.17821935 C5.80861935,2.51009032 5.44397419,2.1531871 4.77507097,2.04557419 C3.87313548,1.90002581 3.02384516,2.09744516 2.19236129,2.42570323 C2.08939355,2.46596129 1.98565161,2.50699355 1.8788129,2.53486452 C1.71778065,2.57667097 1.62487742,2.51473548 1.61790968,2.35138065 C1.60861935,2.13538065 1.61249032,1.91783226 1.61945806,1.70183226 C1.62487742,1.51060645 1.77042581,1.42699355 1.91597419,1.35421935 C2.34952258,1.13512258 2.81016774,0.993445161 3.28397419,0.899767742 C4.02797419,0.753445161 4.77274839,0.744929032 5.51442581,0.910606452 C6.56500645,1.14596129 7.19132903,1.82570323 7.35236129,2.89176774 C7.39494194,3.1728 7.41661935,3.45383226 7.41584516,3.73873548 C7.41429677,4.52763871 7.4228129,5.31731613 7.41352258,6.10621935 C7.40578065,6.75421935 7.47932903,7.37821935 7.81842581,7.94957419 C7.91597419,8.11370323 7.88500645,8.24299355 7.72861935,8.35912258 C7.52423226,8.51163871 7.31132903,8.65254194 7.09300645,8.78415484 C6.93739355,8.87783226 6.78487742,8.83989677 6.64397419,8.69357419 C6.45274839,8.49538065 6.31339355,8.26157419 6.18952258,8.01925161 C6.1515871,7.94492903 6.11442581,7.87138065 6.07184516,7.78699355" id="Fill-6" fill="#D3E7F7"></path>
                    <g id="Group-10" transform="translate(19.354839, 0.306116)">
                        <mask id="mask-41" fill="white">
                            <use xlink:href="#path-40"></use>
                        </mask>
                        <g id="Clip-9"></g>
                        <path d="M2.46170323,8.71904516 C2.08157419,8.71904516 1.40492903,8.58588387 0.748412903,8.34356129 C0.623767742,8.29710968 0.506090323,8.23672258 0.391509677,8.16627097 C0.2328,8.06794839 0.148412903,7.92627097 0.144541935,7.73969032 C0.141445161,7.57865806 0.137574194,7.41685161 0.145316129,7.25659355 C0.156154839,7.03285161 0.262219355,6.95698065 0.477445161,7.0220129 C0.604412903,7.05994839 0.724412903,7.12033548 0.848283871,7.16833548 C1.70996129,7.50046452 2.59409032,7.62510968 3.5084129,7.4424 C3.71589677,7.40059355 3.90867097,7.31620645 4.08054194,7.18691613 C4.63563871,6.76807742 4.59228387,5.95827097 3.99150968,5.60910968 C3.56492903,5.36214194 3.08415484,5.25917419 2.6211871,5.10898065 C2.17370323,4.96420645 1.71770323,4.84498065 1.30660645,4.60343226 C-0.0389419355,3.80988387 -0.141909677,2.0067871 1.10686452,1.06923871 C1.60234839,0.696851613 2.16905806,0.523432258 2.7768,0.480851613 C3.52312258,0.428980645 4.25009032,0.538916129 4.94763871,0.808335484 C5.19150968,0.90356129 5.44234839,1.01814194 5.4764129,1.32627097 C5.49654194,1.50743226 5.49344516,1.69323871 5.47950968,1.87517419 C5.46634839,2.06949677 5.35796129,2.13917419 5.17138065,2.0780129 C4.85628387,1.97427097 4.55821935,1.82175484 4.2291871,1.75594839 C3.64621935,1.63981935 3.06170323,1.60033548 2.47950968,1.74433548 C1.86170323,1.89685161 1.56209032,2.38227097 1.72389677,2.93659355 C1.80286452,3.20756129 1.99796129,3.37246452 2.23176774,3.50330323 C2.56854194,3.69065806 2.93860645,3.79052903 3.30170323,3.91052903 C3.70583226,4.04369032 4.12002581,4.15285161 4.51486452,4.31310968 C5.32544516,4.64136774 5.85654194,5.20188387 5.91538065,6.10614194 C5.97576774,7.02588387 5.58325161,7.73504516 4.8051871,8.21581935 C4.18815484,8.59749677 3.49912258,8.72291613 2.46170323,8.71904516" id="Fill-8" fill="#D3E7F7" mask="url(#mask-41)"></path>
                    </g>
                    <path d="M23.8245677,11.6478968 C23.0302452,11.6533161 22.3853419,11.7284129 21.7404387,11.8027355 C21.629729,11.8158968 21.5019871,11.8522839 21.4462452,11.7237677 C21.3850839,11.5844129 21.4911484,11.4930581 21.5910194,11.4218323 C22.0501161,11.096671 22.5641806,10.8938323 23.1107613,10.7738323 C24.0003097,10.5771871 24.8921806,10.5508645 25.7832774,10.7560258 C26.2756645,10.8698323 26.3972129,11.0045419 26.3646968,11.5038968 C26.2671484,12.9764129 25.7840516,14.2871226 24.6970839,15.3315097 C24.6846968,15.3423484 24.6730839,15.3539613 24.6599226,15.3648 C24.5585032,15.4422194 24.4516645,15.5467355 24.3200516,15.4623484 C24.1783742,15.3709935 24.2712774,15.2424774 24.3138581,15.1333161 C24.5995355,14.3993806 24.8945032,13.6677677 25.0601806,12.8943484 C25.0965677,12.7271226 25.117471,12.5552516 25.1329548,12.3841548 C25.1693419,12.0024774 25.0299871,11.8112516 24.6568258,11.7260903 C24.3355355,11.6517677 24.0080516,11.6440258 23.8245677,11.6478968" id="Fill-11" fill="#D3E7F7"></path>
                </g>
                <rect id="Rectangle-Copy-26" stroke="url(#linearGradient-42)" stroke-width="1.80645161" x="90.6236559" y="250.193548" width="98.1505376" height="31.311828" rx="9.03225806"></rect>
                <g id="Group-23" transform="translate(95.000000, 260.000000)">
                    <text id="Powered-by" font-family="'Avenir-Roman', 'Arial', sans-serif" font-size="7.5" font-weight="normal" fill="#FFFFFF">
                        <tspan x="0" y="8">Powered by</tspan>
                    </text>
                    <g id="Crossplane-Icon-Copy-2" transform="translate(44.500000, 1.000000)">
                        <g id="Group-3" transform="translate(0.000000, 0.727053)">
                            <mask id="mask-44" fill="white">
                                <use xlink:href="#path-43"></use>
                            </mask>
                            <g id="Clip-2"></g>
                            <path d="M0.685634483,5.75331075 C0.633496552,5.73690638 0.586668966,5.70928889 0.541013793,5.6804255 C0.272048276,5.51056758 0.0986689655,5.27135446 0.0263241379,4.95994827 C0.00811724138,4.88145647 -2.06896552e-05,4.80171876 -2.06896552e-05,4.72101202 C0.000255172414,4.3273071 0.000117241379,3.9336714 0.000186206897,3.53989727 C0.000186206897,3.53055301 0.00122068966,3.52113953 0.00177241379,3.51165683 C0.0113586207,3.50293552 0.0212896552,3.49456029 0.030462069,3.48542368 C1.16708276,2.34480073 2.30363448,1.20403934 3.44018621,0.0632779599 C3.44935862,0.0540721311 3.45770345,0.0441741348 3.4663931,0.0346222222 C3.50584138,0.0722069217 3.53687586,0.116782514 3.56853103,0.160665938 C3.74777241,0.409707832 3.8626,0.686159563 3.9148069,0.988706011 C3.93349655,1.09703024 3.94197931,1.20646193 3.94225517,1.31623971 C3.94315172,1.69160219 3.94308276,2.06689545 3.94322069,2.44225792 C3.94322069,2.45755483 3.94184138,2.47278251 3.94115172,2.48814863 C3.92991034,2.49853115 3.91832414,2.50849836 3.90749655,2.51936539 C2.84342759,3.58717231 1.77942759,4.65511767 0.715427586,5.72306302 C0.705427586,5.73303024 0.695565517,5.7432051 0.685634483,5.75331075" id="Fill-1" fill="#FFCE24" mask="url(#mask-44)"></path>
                        </g>
                        <g id="Group-6" transform="translate(0.000000, 0.034885)">
                            <mask id="mask-46" fill="white">
                                <use xlink:href="#path-45"></use>
                            </mask>
                            <g id="Clip-5"></g>
                            <path d="M3.46641379,0.726782878 C3.45772414,0.736334791 3.44931034,0.746232787 3.4402069,0.755438616 C2.30365517,1.89626922 1.16710345,3.03696138 0.0304137931,4.17758434 C0.0213103448,4.18672095 0.0113793103,4.19509617 0.00179310345,4.20381749 C0.00131034483,4.18969727 0.000275862069,4.17557705 0.000275862069,4.16145683 C0.000206896552,3.50313625 0.000206896552,2.8449541 0.000275862069,2.18670273 C0.000275862069,2.11229472 -0.000551724138,2.03774827 0.000896551724,1.96334026 C0.00565517241,1.71256794 0.0577931034,1.47183206 0.155103448,1.24099417 C0.262551724,0.986068852 0.41662069,0.763121676 0.617448276,0.573744627 C0.89062069,0.315981421 1.21089655,0.14840765 1.57882759,0.0733766849 C1.67696552,0.0533730419 1.77593103,0.0418830601 1.87593103,0.0368994536 C2.23827586,0.018764663 2.57903448,0.096495082 2.89910345,0.266353005 C3.10841379,0.377376685 3.2897931,0.524462295 3.44772414,0.701172678 C3.45468966,0.708994171 3.4602069,0.7182 3.46641379,0.726782878" id="Fill-4" fill="#F57F78" mask="url(#mask-46)"></path>
                        </g>
                        <path d="M0.685634483,6.48036357 C0.695565517,6.47025792 0.705427586,6.46008306 0.715427586,6.45011585 C1.77942759,5.38217049 2.84342759,4.31422514 3.90749655,3.24641821 C3.91832414,3.23555118 3.92991034,3.22558397 3.94115172,3.21520146 C3.94184138,3.22814499 3.94322069,3.24101931 3.94322069,3.25403206 C3.94328966,3.98426885 3.9446,4.71457486 3.94287586,5.44488087 C3.94156552,6.00089909 3.5448069,6.45599927 3.02301379,6.55560219 C2.95935862,6.56778434 2.89494483,6.57359854 2.82997931,6.57325246 C2.71342759,6.57276794 2.5968069,6.57304481 2.48025517,6.57325246 C2.46742759,6.57325246 2.45432414,6.57138361 2.44170345,6.57560583 C2.43032414,6.57124517 2.41846207,6.57290638 2.4068069,6.57283716 C2.13646207,6.57276794 1.86611724,6.57249107 1.59577241,6.57304481 C1.54770345,6.57318324 1.49956552,6.5701377 1.45149655,6.57560583 C1.43887586,6.57145282 1.42584138,6.57325246 1.41294483,6.57318324 C1.31163448,6.57304481 1.21032414,6.57297559 1.10901379,6.57318324 C0.973151724,6.57339089 0.8426,6.54584262 0.716255172,6.49683716 C0.705496552,6.49268415 0.693565517,6.49019235 0.685634483,6.48036357" id="Fill-7" fill="#28D1BA"></path>
                        <g id="Group-11" transform="translate(1.448276, 6.541260)">
                            <mask id="mask-48" fill="white">
                                <use xlink:href="#path-47"></use>
                            </mask>
                            <g id="Clip-10"></g>
                            <path d="M0.00325517241,0.0343453552 C0.0512551724,0.0288772313 0.099462069,0.0319227687 0.147531034,0.0317843352 C0.417875862,0.0312306011 0.688151724,0.0315074681 0.958496552,0.0315766849 C0.97022069,0.0316459016 0.982013793,0.0300539162 0.993393103,0.0343453552 C0.993186207,0.0485347905 0.992772414,0.0627242259 0.992772414,0.0768444444 C0.992427586,0.510487432 0.990910345,0.944130419 0.992358621,1.37763497 C0.993186207,1.6036969 0.826151724,1.81923789 0.586358621,1.86118324 C0.324703448,1.90700474 0.0840137931,1.74337632 0.0193241379,1.49648015 C0.00891034483,1.45647286 0.0031862069,1.41521967 0.00311724138,1.37410492 C0.00242758621,0.931117668 0.00270344828,0.488061202 0.00277241379,0.0449355191 C0.00277241379,0.0414746812 0.00311724138,0.0379446266 0.00325517241,0.0343453552" id="Fill-9" fill="#F8D281" mask="url(#mask-48)"></path>
                        </g>
                    </g>
                    <text id="Crossplane" font-family="'Avenir-Roman', 'Arial', sans-serif" font-size="7.5" font-weight="normal" fill="#FFFFFF">
                        <tspan x="51" y="8">Crossplane</tspan>
                    </text>
                </g>
            </g>
        </g>
    </g>
</svg>