<?xml version="1.0" encoding="UTF-8"?>
<svg width="1128px" height="410px" viewBox="0 0 1128 410" version="1.1" xmlns="http://www.w3.org/2000/svg" xmlns:xlink="http://www.w3.org/1999/xlink">
    <!-- Generator: Sketch 63 (92445) - https://sketch.com -->
    <title>Group 25</title>
    <desc>Created with Sketch.</desc>
    <defs>
        <linearGradient x1="100%" y1="50%" x2="88.8211237%" y2="50%" id="linearGradient-1">
            <stop stop-color="#1B3549" stop-opacity="0" offset="0%"></stop>
            <stop stop-color="#1B3549" offset="100%"></stop>
        </linearGradient>
        <linearGradient x1="100%" y1="50%" x2="40.8296472%" y2="50%" id="linearGradient-2">
            <stop stop-color="#1B3549" stop-opacity="0" offset="0%"></stop>
            <stop stop-color="#1B3549" stop-opacity="0.0151823106" offset="1.51823106%"></stop>
            <stop stop-color="#0D2232" stop-opacity="0" offset="1.51823106%"></stop>
            <stop stop-color="#1B3549" offset="100%"></stop>
        </linearGradient>
        <path d="M583,261 L665,261 C670.522847,261 675,265.477153 675,271 L675,426 C675,431.522847 670.522847,436 665,436 L583,436 C577.477153,436 573,431.522847 573,426 L573,271 C573,265.477153 577.477153,261 583,261 Z" id="path-3"></path>
        <filter x="-16.2%" y="-9.4%" width="132.4%" height="118.9%" filterUnits="objectBoundingBox" id="filter-4">
            <feMorphology radius="2" operator="dilate" in="SourceAlpha" result="shadowSpreadOuter1"></feMorphology>
            <feOffset dx="0" dy="0" in="shadowSpreadOuter1" result="shadowOffsetOuter1"></feOffset>
            <feGaussianBlur stdDeviation="3.5" in="shadowOffsetOuter1" result="shadowBlurOuter1"></feGaussianBlur>
            <feComposite in="shadowBlurOuter1" in2="SourceAlpha" operator="out" result="shadowBlurOuter1"></feComposite>
            <feColorMatrix values="0 0 0 0 0.42745098   0 0 0 0 0.392156863   0 0 0 0 0.960784314  0 0 0 0.5 0" type="matrix" in="shadowBlurOuter1"></feColorMatrix>
        </filter>
        <linearGradient x1="100%" y1="0%" x2="0%" y2="0%" id="linearGradient-5">
            <stop stop-color="#46CBD3" offset="0%"></stop>
            <stop stop-color="#696FF1" offset="100%"></stop>
        </linearGradient>
        <linearGradient x1="100%" y1="50%" x2="-177.100958%" y2="50%" id="linearGradient-6">
            <stop stop-color="#46CBD3" offset="0%"></stop>
            <stop stop-color="#696FF1" offset="100%"></stop>
        </linearGradient>
        <polygon id="path-7" points="0 0.1558 17.7444931 0.1558 17.7444931 25.8898984 0 25.8898984"></polygon>
        <polygon id="path-9" points="0.000182068966 0.154491803 15.5988621 0.154491803 15.5988621 18.9171787 0.000182068966 18.9171787"></polygon>
        <polygon id="path-11" points="0.0119688413 0.139779944 4.47026897 0.139779944 4.47026897 8.40983607 0.0119688413 8.40983607"></polygon>
        <path d="M798,164 L1054,164 C1059.52285,164 1064,168.477153 1064,174 L1064,192.191738 C1064,194.869923 1062.92572,197.436188 1061.01779,199.315682 L1026.69815,233.123944 C1024.82728,234.966932 1022.30652,236 1019.68035,236 L798,236 C792.477153,236 788,231.522847 788,226 L788,174 C788,168.477153 792.477153,164 798,164 Z" id="path-13"></path>
        <filter x="-6.0%" y="-22.9%" width="112.0%" height="145.8%" filterUnits="objectBoundingBox" id="filter-14">
            <feMorphology radius="2" operator="dilate" in="SourceAlpha" result="shadowSpreadOuter1"></feMorphology>
            <feOffset dx="0" dy="0" in="shadowSpreadOuter1" result="shadowOffsetOuter1"></feOffset>
            <feGaussianBlur stdDeviation="3.5" in="shadowOffsetOuter1" result="shadowBlurOuter1"></feGaussianBlur>
            <feComposite in="shadowBlurOuter1" in2="SourceAlpha" operator="out" result="shadowBlurOuter1"></feComposite>
            <feColorMatrix values="0 0 0 0 0.42745098   0 0 0 0 0.392156863   0 0 0 0 0.960784314  0 0 0 0.5 0" type="matrix" in="shadowBlurOuter1"></feColorMatrix>
        </filter>
        <polygon id="path-15" points="0 0 18.066667 0 18.066667 24.6363641 0 24.6363641"></polygon>
        <polygon id="path-17" points="0 0 18.066667 0 18.066667 24.6363641 0 24.6363641"></polygon>
        <linearGradient x1="277.326868%" y1="50%" x2="0%" y2="50%" id="linearGradient-19">
            <stop stop-color="#46CBD3" offset="0%"></stop>
            <stop stop-color="#696FF1" offset="100%"></stop>
        </linearGradient>
        <linearGradient x1="290.249591%" y1="50%" x2="-192.7739%" y2="50%" id="linearGradient-20">
            <stop stop-color="#46CBD3" offset="0%"></stop>
            <stop stop-color="#696FF1" offset="100%"></stop>
        </linearGradient>
        <polygon id="path-21" points="0.16856 0.24028563 15.3846933 0.24028563 15.3846933 20.077037 0.16856 20.077037"></polygon>
        <filter x="-102.6%" y="-78.0%" width="300.4%" height="254.5%" filterUnits="objectBoundingBox" id="filter-23">
            <feMorphology radius="2" operator="dilate" in="SourceAlpha" result="shadowSpreadOuter1"></feMorphology>
            <feOffset dx="0" dy="0" in="shadowSpreadOuter1" result="shadowOffsetOuter1"></feOffset>
            <feGaussianBlur stdDeviation="3.5" in="shadowOffsetOuter1" result="shadowBlurOuter1"></feGaussianBlur>
            <feColorMatrix values="0 0 0 0 0.42745098   0 0 0 0 0.392156863   0 0 0 0 0.960784314  0 0 0 0.5 0" type="matrix" in="shadowBlurOuter1" result="shadowMatrixOuter1"></feColorMatrix>
            <feMerge>
                <feMergeNode in="shadowMatrixOuter1"></feMergeNode>
                <feMergeNode in="SourceGraphic"></feMergeNode>
            </feMerge>
        </filter>
        <polygon id="path-24" points="0 0 18.066667 0 18.066667 24.6363641 0 24.6363641"></polygon>
        <filter x="-102.6%" y="-78.0%" width="300.4%" height="254.5%" filterUnits="objectBoundingBox" id="filter-26">
            <feMorphology radius="2" operator="dilate" in="SourceAlpha" result="shadowSpreadOuter1"></feMorphology>
            <feOffset dx="0" dy="0" in="shadowSpreadOuter1" result="shadowOffsetOuter1"></feOffset>
            <feGaussianBlur stdDeviation="3.5" in="shadowOffsetOuter1" result="shadowBlurOuter1"></feGaussianBlur>
            <feColorMatrix values="0 0 0 0 0.42745098   0 0 0 0 0.392156863   0 0 0 0 0.960784314  0 0 0 0.5 0" type="matrix" in="shadowBlurOuter1" result="shadowMatrixOuter1"></feColorMatrix>
            <feMerge>
                <feMergeNode in="shadowMatrixOuter1"></feMergeNode>
                <feMergeNode in="SourceGraphic"></feMergeNode>
            </feMerge>
        </filter>
        <polygon id="path-27" points="0 0 18.066667 0 18.066667 24.6363641 0 24.6363641"></polygon>
    </defs>
    <g id="Home" stroke="none" stroke-width="1" fill="none" fill-rule="evenodd">
        <g id="Home-v2" transform="translate(-170.000000, -876.000000)">
            <g id="Group-25" transform="translate(170.000000, 876.000000)">
                <path d="M122,145 L1118,145 C1123.52285,145 1128,149.477153 1128,155 L1128,245 C1128,250.522847 1123.52285,255 1118,255 L112,255 C106.477153,255 102,250.522847 102,245 L102,165 C102,153.954305 110.954305,145 122,145 Z" id="Rectangle" fill="url(#linearGradient-1)"></path>
                <path d="M392,-52 L460,-52 C465.522847,-52 470,-47.5228475 470,-42 L470,586 C470,591.522847 465.522847,596 460,596 L402,596 C390.954305,596 382,587.045695 382,576 L382,-42 C382,-47.5228475 386.477153,-52 392,-52 Z" id="Rectangle-Copy-25" fill="url(#linearGradient-2)" transform="translate(426.000000, 272.000000) rotate(90.000000) translate(-426.000000, -272.000000) "></path>
                <g id="Rectangle-Copy-30" transform="translate(624.000000, 348.500000) rotate(90.000000) translate(-624.000000, -348.500000) ">
                    <use fill="black" fill-opacity="1" filter="url(#filter-4)" xlink:href="#path-3"></use>
                    <path stroke="#C8C3FF" stroke-width="2" d="M665,262 L583,262 C580.514719,262 578.264719,263.007359 576.636039,264.636039 C575.007359,266.264719 574,268.514719 574,271 L574,426 C574,428.485281 575.007359,430.735281 576.636039,432.363961 C578.264719,433.992641 580.514719,435 583,435 L665,435 C667.485281,435 669.735281,433.992641 671.363961,432.363961 C672.992641,430.735281 674,428.485281 674,426 L674,271 C674,268.514719 672.992641,266.264719 671.363961,264.636039 C669.735281,263.007359 667.485281,262 665,262 Z" stroke-linejoin="square" fill="#1B3549" fill-rule="evenodd"></path>
                </g>
                <path d="M470,261.5 L388,261.5 C385.376647,261.5 383.001647,262.563324 381.282486,264.282486 C379.563324,266.001647 378.5,268.376647 378.5,271 L378.5,427 C378.5,429.623353 379.563324,431.998353 381.282486,433.717514 C383.001647,435.436676 385.376647,436.5 388,436.5 L470,436.5 C472.623353,436.5 474.998353,435.436676 476.717514,433.717514 C478.436676,431.998353 479.5,429.623353 479.5,427 L479.5,271 C479.5,268.376647 478.436676,266.001647 476.717514,264.282486 C474.998353,262.563324 472.623353,261.5 470,261.5 Z" id="Rectangle-Copy-36" stroke="#49C2D6" fill="#1B3549" transform="translate(429.000000, 349.000000) rotate(90.000000) translate(-429.000000, -349.000000) "></path>
                <path d="M274,261.5 L192,261.5 C189.376647,261.5 187.001647,262.563324 185.282486,264.282486 C183.563324,266.001647 182.5,268.376647 182.5,271 L182.5,426 C182.5,428.623353 183.563324,430.998353 185.282486,432.717514 C187.001647,434.436676 189.376647,435.5 192,435.5 L274,435.5 C276.623353,435.5 278.998353,434.436676 280.717514,432.717514 C282.436676,430.998353 283.5,428.623353 283.5,426 L283.5,271 C283.5,268.376647 282.436676,266.001647 280.717514,264.282486 C278.998353,262.563324 276.623353,261.5 274,261.5 Z" id="Rectangle-Copy-37" stroke="#FAAD13" fill="#1B3549" transform="translate(233.000000, 348.500000) rotate(90.000000) translate(-233.000000, -348.500000) "></path>
                <text id="AWS" font-family="Avenir-Black, Avenir" font-size="18" font-weight="700" line-spacing="32" fill="#D3E7F7">
                    <tspan x="212.89" y="348">AWS</tspan>
                </text>
                <text id="Azure" font-family="Avenir-Black, Avenir" font-size="18" font-weight="700" line-spacing="32" fill="#D3E7F7">
                    <tspan x="403.998" y="348">Azure</tspan>
                </text>
                <text id="On-prem" font-family="Avenir-Black, Avenir" font-size="18" font-weight="700" line-spacing="32" fill="#D3E7F7">
                    <tspan x="587.015" y="348">On-prem</tspan>
                </text>
                <rect id="Rectangle" fill="url(#linearGradient-5)" x="146" y="197" width="565" height="5"></rect>
                <path d="M701,166 L517,166 C514.790861,166 512.790861,166.895431 511.343146,168.343146 C509.895431,169.790861 509,171.790861 509,174 L509,226 C509,228.209139 509.895431,230.209139 511.343146,231.656854 C512.790861,233.104569 514.790861,234 517,234 L701,234 C703.209139,234 705.209139,233.104569 706.656854,231.656854 C708.104569,230.209139 709,228.209139 709,226 L709,174 C709,171.790861 708.104569,169.790861 706.656854,168.343146 C705.209139,166.895431 703.209139,166 701,166 Z" id="Rectangle-Copy-21" stroke="url(#linearGradient-6)" stroke-width="4" fill="#1B3549"></path>
                <g id="Group-23" transform="translate(544.000000, 181.000000)">
                    <text id="Crossplane-Copy" font-family="Avenir-Black, Avenir" font-size="18" font-weight="700" line-spacing="22" fill="#FFFFFF">
                        <tspan x="33" y="24">Crossplane</tspan>
                    </text>
                    <g id="Crossplane-Icon-Copy">
                        <g id="Group-3" transform="translate(0.000000, 3.271738)">
                            <mask id="mask-8" fill="white">
                                <use xlink:href="#path-7"></use>
                            </mask>
                            <g id="Clip-2"></g>
                            <path d="M3.08535517,25.8898984 C2.85073448,25.8160787 2.64001034,25.6918 2.43456207,25.5619148 C1.22421724,24.7975541 0.444010345,23.7210951 0.118458621,22.3197672 C0.0365275862,21.9665541 -9.31034483e-05,21.6077344 -9.31034483e-05,21.2445541 C0.00114827586,19.472882 0.000527586207,17.7015213 0.000837931034,15.9295377 C0.000837931034,15.8874885 0.00549310345,15.8451279 0.00797586207,15.8024557 C0.0511137931,15.7632098 0.0958034483,15.7255213 0.13707931,15.6844066 C5.25187241,10.5516033 10.3663552,5.41817705 15.4808379,0.28475082 C15.5221138,0.24332459 15.5596655,0.198783607 15.598769,0.1558 C15.7762862,0.324931148 15.9159414,0.525521311 16.0583897,0.722996721 C16.8649759,1.84368525 17.3817,3.08771803 17.616631,4.44917705 C17.7007345,4.93663607 17.7389069,5.42907869 17.7401483,5.92307869 C17.7441828,7.61220984 17.7438724,9.30102951 17.7444931,10.9901607 C17.7444931,11.0589967 17.7382862,11.1275213 17.7351828,11.1966689 C17.6845966,11.2433902 17.6324586,11.2882426 17.5837345,11.3371443 C12.7954241,16.1422754 8.00742414,20.9480295 3.21942414,25.7537836 C3.17442414,25.7986361 3.13004483,25.844423 3.08535517,25.8898984" id="Fill-1" fill="#FFCE24" mask="url(#mask-8)"></path>
                        </g>
                        <g id="Group-6" transform="translate(0.000000, 0.156984)">
                            <mask id="mask-10" fill="white">
                                <use xlink:href="#path-9"></use>
                            </mask>
                            <g id="Clip-5"></g>
                            <path d="M15.5988621,3.27052295 C15.5597586,3.31350656 15.5218966,3.35804754 15.480931,3.39947377 C10.3664483,8.53321148 5.25196552,13.6663262 0.136862069,18.7991295 C0.0958965517,18.8402443 0.0512068966,18.8779328 0.00806896552,18.9171787 C0.00589655172,18.8536377 0.00124137931,18.7900967 0.00124137931,18.7265557 C0.000931034483,15.7641131 0.000931034483,12.8022934 0.00124137931,9.8401623 C0.00124137931,9.50532623 -0.00248275862,9.16986721 0.00403448276,8.83503115 C0.0254482759,7.70655574 0.260068966,6.62324426 0.697965517,5.58447377 C1.18148276,4.43730984 1.8747931,3.43404754 2.77851724,2.58185082 C4.0077931,1.42191639 5.44903448,0.667834426 7.10472414,0.330195082 C7.54634483,0.240178689 7.99168966,0.18847377 8.44168966,0.166047541 C10.0722414,0.0844409836 11.6056552,0.434227869 13.0459655,1.19858852 C13.9878621,1.69819508 14.804069,2.36008033 15.5147586,3.15527705 C15.5461034,3.19047377 15.570931,3.2319 15.5988621,3.27052295" id="Fill-4" fill="#F57F78" mask="url(#mask-10)"></path>
                        </g>
                        <path d="M3.08535517,29.1616361 C3.13004483,29.1161607 3.17442414,29.0703738 3.21942414,29.0255213 C8.00742414,24.2197672 12.7954241,19.4140131 17.5837345,14.608882 C17.6324586,14.5599803 17.6845966,14.5151279 17.7351828,14.4684066 C17.7382862,14.5266525 17.7444931,14.5845869 17.7444931,14.6431443 C17.7448034,17.9292098 17.7507,21.2155869 17.7429414,24.5019639 C17.7370448,27.0040459 15.951631,29.0519967 13.6035621,29.5002098 C13.3171138,29.5550295 13.0272517,29.5811934 12.7349069,29.5796361 C12.2104241,29.5774557 11.685631,29.5787016 11.1611483,29.5796361 C11.1034241,29.5796361 11.0444586,29.5712262 10.9876655,29.5902262 C10.9364586,29.5706033 10.8830793,29.5780787 10.830631,29.5777672 C9.61407931,29.5774557 8.39752759,29.5762098 7.18097586,29.5787016 C6.96466552,29.5793246 6.74804483,29.5656197 6.53173448,29.5902262 C6.47494138,29.5715377 6.41628621,29.5796361 6.35825172,29.5793246 C5.90235517,29.5787016 5.44645862,29.5783902 4.99056207,29.5793246 C4.37918276,29.580259 3.7917,29.4562918 3.22314828,29.2357672 C3.17473448,29.2170787 3.12104483,29.2058656 3.08535517,29.1616361" id="Fill-7" fill="#28D1BA"></path>
                        <g id="Group-11" transform="translate(6.517241, 29.435672)">
                            <mask id="mask-12" fill="white">
                                <use xlink:href="#path-11"></use>
                            </mask>
                            <g id="Clip-10"></g>
                            <path d="M0.0146482759,0.154554098 C0.230648276,0.129947541 0.44757931,0.143652459 0.663889655,0.143029508 C1.88044138,0.140537705 3.09668276,0.141783607 4.31323448,0.142095082 C4.3659931,0.142406557 4.41906207,0.135242623 4.47026897,0.154554098 C4.46933793,0.218406557 4.46747586,0.282259016 4.46747586,0.3458 C4.46592414,2.29719344 4.45909655,4.24858689 4.46561379,6.19935738 C4.46933793,7.21663607 3.71768276,8.18657049 2.63861379,8.37532459 C1.46116552,8.58152131 0.378062069,7.84519344 0.0869586207,6.73416066 C0.0400965517,6.55412787 0.014337931,6.36848852 0.0140275862,6.18347213 C0.0109241379,4.19002951 0.0121655172,2.19627541 0.0124758621,0.202209836 C0.0124758621,0.186636066 0.0140275862,0.17075082 0.0146482759,0.154554098" id="Fill-9" fill="#F8D281" mask="url(#mask-12)"></path>
                        </g>
                    </g>
                </g>
                <g id="Rectangle">
                    <use fill="black" fill-opacity="1" filter="url(#filter-14)" xlink:href="#path-13"></use>
                    <path stroke="#C8C3FF" stroke-width="2" d="M1054,165 L798,165 C795.514719,165 793.264719,166.007359 791.636039,167.636039 C790.007359,169.264719 789,171.514719 789,174 L789,226 C789,228.485281 790.007359,230.735281 791.636039,232.363961 C793.264719,233.992641 795.514719,235 798,235 L1019.68035,235 C1022.0439,235 1024.31259,234.070239 1025.99637,232.41155 L1060.31601,198.603288 C1062.03315,196.911743 1063,194.602105 1063,192.191738 L1063,174 C1063,171.514719 1061.99264,169.264719 1060.36396,167.636039 C1058.73528,166.007359 1056.48528,165 1054,165 Z" stroke-linejoin="square" fill="#0D2436" fill-rule="evenodd"></path>
                </g>
                <rect id="Rectangle-Copy-20" stroke-opacity="0.35" stroke="#49C2D6" stroke-width="2" fill="#0B1C28" x="789" y="83" width="274" height="70" rx="10"></rect>
                <rect id="Rectangle-Copy-43" stroke-opacity="0.35" stroke="#FAAD13" stroke-width="2" fill="#0B1C28" x="789" y="247" width="274" height="70" rx="10"></rect>
                <g id="Group-21" opacity="0.596028646" transform="translate(788.000000, 0.000000)">
                    <rect id="Rectangle-Copy-21" stroke-opacity="0.1" stroke="#C8C3FF" stroke-width="2" fill="#0B1C28" x="1" y="1" width="274" height="70" rx="10"></rect>
                    <text id="Application-A" opacity="0.14734468" font-family="Avenir-Book, Avenir" font-size="16" font-weight="normal" line-spacing="22" fill="#D3E7F7">
                        <tspan x="77" y="40">Application A</tspan>
                    </text>
                    <g id="Group-6-Copy-3" opacity="0.0615234375" transform="translate(29.000000, 18.000000)">
                        <polygon id="Fill-1" fill="#FFFFFF" points="9.26193171 0 0.365443902 4.08458537 9.26193171 8.17053659 18.1584195 4.08458537"></polygon>
                        <polygon id="Fill-2" fill="#FFFFFF" points="10.0886049 20.1685854 18.9844098 24.2538537 27.8802146 20.1685854 18.9844098 16.084"></polygon>
                        <polygon id="Fill-3" fill="#43C5AE" points="19.1581463 25.2540585 19.1581463 35.3210829 27.8804878 31.2542537 27.8804878 21.1687902"></polygon>
                        <polygon id="Fill-4" fill="#EA595B" points="10.2991512 9.14786341 19.0214927 5.06259512 19.0214927 15.1480585 10.2991512 19.2148878"></polygon>
                        <polygon id="Fill-5" fill="#6553C0" points="0 27.4882634 17.7916098 35.6868 17.7916098 25.6197756 8.8964878 21.6280683 8.8964878 9.53645854 0 5.45050732"></polygon>
                    </g>
                </g>
                <g id="Group-20" opacity="0.602213542" transform="translate(788.000000, 328.000000)">
                    <rect id="Rectangle-Copy-44" stroke-opacity="0.1" stroke="#49C2D6" stroke-width="2" fill="#0B1C28" x="1" y="1" width="274" height="70" rx="10"></rect>
                    <text id="Application-B" opacity="0.14734468" font-family="Avenir-Book, Avenir" font-size="16" font-weight="normal" line-spacing="22" fill="#D3E7F7">
                        <tspan x="77" y="40">Application B</tspan>
                    </text>
                    <g id="Group-6-Copy-5" opacity="0.0615234375" transform="translate(29.000000, 18.000000)">
                        <polygon id="Fill-1" fill="#FFFFFF" points="9.26193171 0 0.365443902 4.08458537 9.26193171 8.17053659 18.1584195 4.08458537"></polygon>
                        <polygon id="Fill-2" fill="#FFFFFF" points="10.0886049 20.1685854 18.9844098 24.2538537 27.8802146 20.1685854 18.9844098 16.084"></polygon>
                        <polygon id="Fill-3" fill="#43C5AE" points="19.1581463 25.2540585 19.1581463 35.3210829 27.8804878 31.2542537 27.8804878 21.1687902"></polygon>
                        <polygon id="Fill-4" fill="#EA595B" points="10.2991512 9.14786341 19.0214927 5.06259512 19.0214927 15.1480585 10.2991512 19.2148878"></polygon>
                        <polygon id="Fill-5" fill="#49C2D6" points="0 27.4882634 17.7916098 35.6868 17.7916098 25.6197756 8.8964878 21.6280683 8.8964878 9.53645854 0 5.45050732"></polygon>
                    </g>
                </g>
                <text id="Application-C" font-family="Avenir-Heavy, Avenir" font-size="16" font-weight="600" line-spacing="22" fill="#FFFFFF">
                    <tspan x="865" y="203">Application C</tspan>
                </text>
                <text id="Application-B" opacity="0.353864397" font-family="Avenir-Book, Avenir" font-size="16" font-weight="normal" line-spacing="20" fill="#D3E7F7">
                    <tspan x="865" y="123">Application B</tspan>
                </text>
                <text id="Application-A" opacity="0.353864397" font-family="Avenir-Book, Avenir" font-size="16" font-weight="normal" line-spacing="20" fill="#D3E7F7">
                    <tspan x="865" y="287">Application A</tspan>
                </text>
                <g id="Group-6" transform="translate(817.000000, 182.000000)">
                    <polygon id="Fill-1" fill="#FFFFFF" points="9.26193171 0 0.365443902 4.08458537 9.26193171 8.17053659 18.1584195 4.08458537"></polygon>
                    <polygon id="Fill-2" fill="#FFFFFF" points="10.0886049 20.1685854 18.9844098 24.2538537 27.8802146 20.1685854 18.9844098 16.084"></polygon>
                    <polygon id="Fill-3" fill="#43C5AE" points="19.1581463 25.2540585 19.1581463 35.3210829 27.8804878 31.2542537 27.8804878 21.1687902"></polygon>
                    <polygon id="Fill-4" fill="#EA595B" points="10.2991512 9.14786341 19.0214927 5.06259512 19.0214927 15.1480585 10.2991512 19.2148878"></polygon>
                    <polygon id="Fill-5" fill="#6553C0" points="0 27.4882634 17.7916098 35.6868 17.7916098 25.6197756 8.8964878 21.6280683 8.8964878 9.53645854 0 5.45050732"></polygon>
                </g>
                <g id="Group-6-Copy-2" opacity="0.178269159" transform="translate(817.000000, 100.000000)">
                    <polygon id="Fill-1" fill="#FFFFFF" points="9.26193171 0 0.365443902 4.08458537 9.26193171 8.17053659 18.1584195 4.08458537"></polygon>
                    <polygon id="Fill-2" fill="#FFFFFF" points="10.0886049 20.1685854 18.9844098 24.2538537 27.8802146 20.1685854 18.9844098 16.084"></polygon>
                    <polygon id="Fill-3" fill="#43C5AE" points="19.1581463 25.2540585 19.1581463 35.3210829 27.8804878 31.2542537 27.8804878 21.1687902"></polygon>
                    <polygon id="Fill-4" fill="#EA595B" points="10.2991512 9.14786341 19.0214927 5.06259512 19.0214927 15.1480585 10.2991512 19.2148878"></polygon>
                    <polygon id="Fill-5" fill="#49C2D6" points="0 27.4882634 17.7916098 35.6868 17.7916098 25.6197756 8.8964878 21.6280683 8.8964878 9.53645854 0 5.45050732"></polygon>
                </g>
                <g id="Group-6-Copy-4" opacity="0.178269159" transform="translate(817.000000, 264.000000)">
                    <polygon id="Fill-1" fill="#FFFFFF" points="9.26193171 0 0.365443902 4.08458537 9.26193171 8.17053659 18.1584195 4.08458537"></polygon>
                    <polygon id="Fill-2" fill="#FFFFFF" points="10.0886049 20.1685854 18.9844098 24.2538537 27.8802146 20.1685854 18.9844098 16.084"></polygon>
                    <polygon id="Fill-3" fill="#43C5AE" points="19.1581463 25.2540585 19.1581463 35.3210829 27.8804878 31.2542537 27.8804878 21.1687902"></polygon>
                    <polygon id="Fill-4" fill="#EA595B" points="10.2991512 9.14786341 19.0214927 5.06259512 19.0214927 15.1480585 10.2991512 19.2148878"></polygon>
                    <polygon id="Fill-5" fill="#FAAD13" points="0 27.4882634 17.7916098 35.6868 17.7916098 25.6197756 8.8964878 21.6280683 8.8964878 9.53645854 0 5.45050732"></polygon>
                </g>
                <g id="Group-5-Copy-12" opacity="0.603376116" transform="translate(429.500000, 263.500000) rotate(-90.000000) translate(-429.500000, -263.500000) translate(420.000000, 251.000000)">
                    <mask id="mask-16" fill="white">
                        <use xlink:href="#path-15"></use>
                    </mask>
                    <g id="Clip-4"></g>
                    <path d="M18.066667,1.92187601 L18.066667,22.7146305 C18.066667,24.1417696 16.9647044,25.0698098 16.0283162,24.4307598 L0.777613029,14.0198421 C-0.259826195,13.3117252 -0.259026319,11.2927924 0.778946155,10.5864931 L16.029916,0.204656218 C16.9660376,-0.432576276 18.066667,0.495463973 18.066667,1.92187601" id="Fill-3" fill="#0B1C28" mask="url(#mask-16)"></path>
                </g>
                <g id="Group-5-Copy-13" opacity="0.603376116" transform="translate(233.500000, 263.500000) rotate(-90.000000) translate(-233.500000, -263.500000) translate(224.000000, 251.000000)">
                    <mask id="mask-18" fill="white">
                        <use xlink:href="#path-17"></use>
                    </mask>
                    <g id="Clip-4"></g>
                    <path d="M18.066667,1.92187601 L18.066667,22.7146305 C18.066667,24.1417696 16.9647044,25.0698098 16.0283162,24.4307598 L0.777613029,14.0198421 C-0.259826195,13.3117252 -0.259026319,11.2927924 0.778946155,10.5864931 L16.029916,0.204656218 C16.9660376,-0.432576276 18.066667,0.495463973 18.066667,1.92187601" id="Fill-3" fill="#0B1C28" mask="url(#mask-18)"></path>
                </g>
                <path d="M339,166 L155,166 C152.790861,166 150.790861,166.895431 149.343146,168.343146 C147.895431,169.790861 147,171.790861 147,174 L147,226 C147,228.209139 147.895431,230.209139 149.343146,231.656854 C150.790861,233.104569 152.790861,234 155,234 L339,234 C341.209139,234 343.209139,233.104569 344.656854,231.656854 C346.104569,230.209139 347,228.209139 347,226 L347,174 C347,171.790861 346.104569,169.790861 344.656854,168.343146 C343.209139,166.895431 341.209139,166 339,166 Z" id="Rectangle-Copy-20" stroke="url(#linearGradient-19)" stroke-width="4" fill="#1B3549"></path>
                <path d="M477,166 L381,166 C378.790861,166 376.790861,166.895431 375.343146,168.343146 C373.895431,169.790861 373,171.790861 373,174 L373,226 C373,228.209139 373.895431,230.209139 375.343146,231.656854 C376.790861,233.104569 378.790861,234 381,234 L477,234 C479.209139,234 481.209139,233.104569 482.656854,231.656854 C484.104569,230.209139 485,228.209139 485,226 L485,174 C485,171.790861 484.104569,169.790861 482.656854,168.343146 C481.209139,166.895431 479.209139,166 477,166 Z" id="Rectangle-Copy-45" stroke="url(#linearGradient-20)" stroke-width="4" fill="#1B3549"></path>
                <text id="Internal-Cloud-Platf" font-family="Avenir-Black, Avenir" font-size="13" font-weight="700" line-spacing="15" fill="#D3E7F7">
                    <tspan x="381" y="200">Internal Cloud </tspan>
                    <tspan x="397.8545" y="215">Platform</tspan>
                </text>
                <g id="Logo-white-Copy" transform="translate(189.000000, 185.000000)">
                    <path d="M14.9333333,11.3539829 L14.8758727,17.1268967 C14.8758727,22.6752348 9.6793945,23.8 7.87031202,23.8 C4.10849552,23.8 0.933333333,21.4447871 0.933333333,17.1268967 L0.933333333,11.0265555 C0.933333333,9.67721471 1.69051591,8.86666667 2.91572444,8.86666667 C4.17059005,8.86666667 4.92869941,9.67721471 4.92869941,11.0265555 L4.92869941,16.6635916 C4.92869941,18.8527318 6.00469571,20.0510974 7.87031202,20.0510974 C9.85548347,20.0510974 10.9370405,19.0320148 10.9370405,16.6635916 L10.9370405,11.3539829 C10.9370405,10.0046422 11.6951498,9.1959813 12.9490887,9.1959813 C14.175224,9.1959813 14.9333333,10.0046422 14.9333333,11.3539829" id="Fill-1" fill="#FFFFFF"></path>
                    <path d="M83.0666667,11.0248046 L83.0092061,17.1274186 C83.0092061,22.6751638 77.8127278,23.8 76.0054989,23.8 C72.2427556,23.8 69.0666667,21.4446382 69.0666667,17.1274186 L69.0666667,11.0248046 C69.0666667,9.67537862 69.8238492,8.86666667 71.0499846,8.86666667 C72.3048502,8.86666667 73.0620327,9.67537862 73.0620327,11.0248046 L73.0620327,16.6631406 C73.0620327,18.8524192 74.138029,20.0508605 76.0054989,20.0508605 C77.9888168,20.0508605 79.0703738,19.0317135 79.0703738,16.6631406 L79.0703738,11.0248046 C79.0703738,9.67537862 79.8294099,8.86666667 81.0833488,8.86666667 C82.3094841,8.86666667 83.0666667,9.67537862 83.0666667,11.0248046" id="Fill-3" fill="#FFFFFF"></path>
                    <g id="Group-7" transform="translate(17.266667, 9.333333)">
                        <mask id="mask-22" fill="white">
                            <use xlink:href="#path-21"></use>
                        </mask>
                        <g id="Clip-6"></g>
                        <path d="M15.3846933,7.54832711 C15.3846933,11.9862649 12.68176,14.8572812 8.59842667,14.8572812 C6.74856,14.8572812 5.25056,14.219379 4.25096,13.1169671 L4.19309333,13.1169671 L4.19309333,17.9591834 C4.19309333,19.2641908 3.42869333,20.0773108 2.16682667,20.0773108 C0.93296,20.0773108 0.16856,19.2641908 0.16856,17.9591834 L0.16856,2.50260267 C0.16856,1.19668267 0.93296,0.415503407 2.16682667,0.415503407 C3.25229333,0.415503407 3.98776,0.994999704 4.16322667,2.00980267 L4.22202667,2.00980267 C5.21976,0.878187852 6.71869333,0.24028563 8.59842667,0.24028563 C12.68176,0.24028563 15.3846933,3.11130193 15.3846933,7.54832711 M11.2724267,7.54832711 C11.2724267,5.344416 9.83229333,3.866016 7.77616,3.866016 C5.69016,3.866016 4.19309333,5.40282193 4.19309333,7.54832711 C4.19309333,9.69474489 5.69016,11.2315508 7.77616,11.2315508 C9.83229333,11.2315508 11.2724267,9.72394785 11.2724267,7.54832711" id="Fill-5" fill="#FFFFFF" mask="url(#mask-22)"></path>
                    </g>
                    <path d="M49.9333333,16.4287856 C49.9333333,20.9045273 47.2804727,23.8 43.2737006,23.8 C41.4287899,23.8 39.9585409,23.1566639 38.9783748,21.9868782 L38.9206641,21.9868782 C38.747532,23.0094053 38.0256901,23.6232897 36.9887294,23.6232897 C35.7493232,23.6232897 35,22.8050839 35,21.48896 L35,4.93525003 C35,3.61820572 35.7493232,2.8 36.9887294,2.8 C38.1997383,2.8 38.9499775,3.61820572 38.9499775,4.93525003 L38.9499775,10.8430819 L39.0067722,10.8430819 C39.9585409,9.70182758 41.4287899,9.05849148 43.2737006,9.05849148 C47.2804727,9.05849148 49.9333333,11.9539641 49.9333333,16.4287856 M45.8972478,16.4287856 C45.8972478,14.2061007 44.4837934,12.7151072 42.4675827,12.7151072 C40.4202266,12.7151072 38.9499775,14.2650042 38.9499775,16.4287856 C38.9499775,18.5934873 40.4202266,20.1433843 42.4675827,20.1433843 C44.4837934,20.1433843 45.8972478,18.622939 45.8972478,16.4287856" id="Fill-8" fill="#FFFFFF"></path>
                    <path d="M58.7849729,8.86666667 C63.2275416,8.86666667 66.2666667,11.8885781 66.2666667,16.3333333 C66.2666667,20.7482517 63.2275416,23.8 58.7849729,23.8 C54.3706369,23.8 51.3333333,20.7482517 51.3333333,16.3333333 C51.3333333,11.8885781 54.3706369,8.86666667 58.7849729,8.86666667 M58.7849729,20.0965035 C60.8487,20.0965035 62.2530544,18.5571096 62.2530544,16.3333333 C62.2530544,14.0825175 60.8487,12.5701632 58.7849729,12.5701632 C56.7494786,12.5701632 55.3451241,14.0825175 55.3451241,16.3333333 C55.3451241,18.5571096 56.7494786,20.0965035 58.7849729,20.0965035" id="Fill-10" fill="#FFFFFF"></path>
                    <path d="M99.4,15.5237289 L99.4,21.6108598 C99.4,22.9602005 98.6474505,23.8 97.4002632,23.8 C96.1825515,23.8 95.4290809,22.9602005 95.4290809,21.6108598 L95.4290809,16.0040187 C95.4290809,13.7846834 94.4425686,12.6155693 92.5303375,12.6155693 C90.5296796,12.6155693 89.369998,14.0243565 89.369998,16.3937234 L89.369998,21.6108598 C89.369998,22.9602005 88.6174485,23.8 87.3702612,23.8 C86.1525495,23.8 85.4,22.9602005 85.4,21.6108598 L85.4,11.2350899 C85.4,9.88669278 86.1525495,9.04783689 87.3702612,9.04783689 C88.4129614,9.04783689 89.1378775,9.64701967 89.3423646,10.6670458 L89.3994736,10.6670458 C90.3565103,9.49604448 91.7473913,8.86666667 93.5748799,8.86666667 C97.3717087,8.86666667 99.4,11.2058385 99.4,15.5237289" id="Fill-12" fill="#FFFFFF"></path>
                    <path d="M116.2,4.93442321 L116.2,21.4888587 C116.2,22.8050403 115.450769,23.6242023 114.210599,23.6242023 C113.171933,23.6242023 112.451096,23.010291 112.278901,21.9867987 L112.222113,21.9867987 C111.242067,23.1566357 109.771083,23.8 107.926398,23.8 C103.919202,23.8 101.266667,20.9053208 101.266667,16.4284625 C101.266667,11.953445 103.919202,9.05784537 107.926398,9.05784537 C109.771083,9.05784537 111.242067,9.70213008 112.190972,10.842514 L112.250507,10.842514 L112.250507,4.93442321 C112.250507,3.61732118 112.999738,2.8 114.210599,2.8 C115.450769,2.8 116.2,3.61732118 116.2,4.93442321 M112.250507,16.4284625 C112.250507,14.2655067 110.780438,12.7146213 108.733333,12.7146213 C106.715538,12.7146213 105.304089,14.2056802 105.304089,16.4284625 C105.304089,18.6227121 106.715538,20.1432241 108.733333,20.1432241 C110.780438,20.1432241 112.250507,18.5932591 112.250507,16.4284625" id="Fill-14" fill="#FFFFFF"></path>
                    <path d="M6.53333333,3.26617149 C6.53333333,5.06959729 5.07181136,6.53333333 3.26516613,6.53333333 C1.46152197,6.53333333 0,5.06959729 0,3.26617149 C0,1.46274569 1.46152197,0 3.26516613,0 C5.07181136,0 6.53333333,1.46274569 6.53333333,3.26617149" id="Fill-16" fill="#FFFFFF"></path>
                </g>
                <g id="Group-22" transform="translate(0.000000, 204.000000)">
                    <rect id="Rectangle-Copy-29" stroke-opacity="0.35" stroke="#C8C3FF" stroke-width="2" fill-opacity="0.7" fill="#1B3549" x="1" y="1" width="126" height="38" rx="10"></rect>
                    <text id="Operators-Copy" font-family="Avenir-Book, Avenir" font-size="13" font-weight="normal" line-spacing="32" fill="#FFFFFF">
                        <tspan x="31.2155" y="17"> Operators</tspan>
                    </text>
                </g>
                <g id="Group-22-Copy" transform="translate(0.000000, 156.000000)">
                    <rect id="Rectangle-Copy-29" stroke-opacity="0.35" stroke="#C8C3FF" stroke-width="2" fill-opacity="0.7" fill="#1B3549" x="1" y="1" width="126" height="38" rx="10"></rect>
                    <text id="Developers" font-family="Avenir-Book, Avenir" font-size="13" font-weight="normal" line-spacing="32" fill="#FFFFFF">
                        <tspan x="27.5885" y="17"> Developers</tspan>
                    </text>
                </g>
                <g id="Group-24" transform="translate(624.500000, 263.500000) rotate(-90.000000) translate(-624.500000, -263.500000) translate(615.000000, 251.000000)">
                    <g id="Group-5-Copy-8" filter="url(#filter-23)" opacity="0.603376116">
                        <mask id="mask-25" fill="white">
                            <use xlink:href="#path-24"></use>
                        </mask>
                        <g id="Clip-4"></g>
                        <path d="M16.5478147,1.66666988 L1.6230325,11.8264601 C1.47871212,11.9246645 1.50006086,12.1465707 1.50000009,12.3030763 C1.49993909,12.4601631 1.4789028,12.6824061 1.62324748,12.7809304 L16.5479343,22.9692924 C16.563023,22.8895679 16.566667,22.8012716 16.566667,22.7146305 L16.5478147,1.66666988 Z" id="Fill-3" stroke="#C8C3FF" stroke-width="3" fill="#0B1C28" mask="url(#mask-25)"></path>
                    </g>
                    <path d="M14.6153846,17.5639527 C14.6153846,18.2590905 14.0523609,18.7111248 13.5739338,18.3998532 L5.78191979,13.3288529 C5.25186286,12.9839399 5.25227154,12.0005482 5.78260092,11.6565205 L13.5747511,6.59968495 C14.053042,6.28929864 14.6153846,6.741333 14.6153846,7.43611671 L14.6153846,17.5639527 Z" id="Fill-3" fill="#C8C3FF"></path>
                </g>
                <g id="Group-24-Copy" transform="translate(740.000000, 187.000000)">
                    <g id="Group-5-Copy-8" filter="url(#filter-26)" opacity="0.603376116">
                        <mask id="mask-28" fill="white">
                            <use xlink:href="#path-27"></use>
                        </mask>
                        <g id="Clip-4"></g>
                        <path d="M16.5478147,1.66666988 L1.6230325,11.8264601 C1.47871212,11.9246645 1.50006086,12.1465707 1.50000009,12.3030763 C1.49993909,12.4601631 1.4789028,12.6824061 1.62324748,12.7809304 L16.5479343,22.9692924 C16.563023,22.8895679 16.566667,22.8012716 16.566667,22.7146305 L16.5478147,1.66666988 Z" id="Fill-3" stroke="#C8C3FF" stroke-width="3" fill="#0B1C28" mask="url(#mask-28)"></path>
                    </g>
                    <path d="M14.6153846,17.5639527 C14.6153846,18.2590905 14.0523609,18.7111248 13.5739338,18.3998532 L5.78191979,13.3288529 C5.25186286,12.9839399 5.25227154,12.0005482 5.78260092,11.6565205 L13.5747511,6.59968495 C14.053042,6.28929864 14.6153846,6.741333 14.6153846,7.43611671 L14.6153846,17.5639527 Z" id="Fill-3" fill="#C8C3FF"></path>
                </g>
            </g>
        </g>
    </g>
</svg>