<?xml version="1.0" encoding="UTF-8"?>
<svg width="429px" height="393px" viewBox="0 0 429 393" version="1.1" xmlns="http://www.w3.org/2000/svg" xmlns:xlink="http://www.w3.org/1999/xlink">
    <!-- Generator: Sketch 63.1 (92452) - https://sketch.com -->
    <title>crossplane-truck</title>
    <desc>Created with Sketch.</desc>
    <g id="Crossplane" stroke="none" stroke-width="1" fill="none" fill-rule="evenodd">
        <g id="Homepage-v2.1-Copy" transform="translate(-767.000000, -1921.000000)">
            <g id="Val-prop-1" transform="translate(200.000000, 1917.000000)">
                <g id="crossplane-truck" transform="translate(569.000000, 6.000000)">
                    <g id="Group" transform="translate(0.000000, 177.314010)">
                        <path d="M129.226882,89.8412859 C129.698364,83.8797853 125.292628,78.6503989 119.313191,78.1797541 C116.795478,77.9705786 114.435973,78.6503989 112.494516,79.9054516 C110.133963,77.5522277 106.935221,75.9834118 103.316336,75.6696486 C95.1858943,74.9898283 88.0528983,81.0036228 87.3697735,89.1091718 C86.6887442,97.2147208 92.7205683,104.326686 100.85101,105.006507 C104.836603,105.32027 108.613697,104.012923 111.498118,101.659699 C111.969599,101.816581 112.442129,101.921169 112.967045,101.973462 C115.012229,102.130344 116.900251,101.241348 118.107245,99.7771201 C123.824748,99.9340017 128.754352,95.593611 129.226882,89.8412859" id="Path" fill="#FFFFFF" fill-rule="nonzero"></path>
                        <path d="M117.05846,78.1797541 C115.379985,78.3889295 113.806283,78.9641621 112.442129,79.8531578 C110.081577,77.4999338 106.882834,75.9311179 103.26395,75.6173547 C95.9716974,75.0421222 89.4683915,79.8008639 87.7375293,86.6513601" id="Path" stroke="#183D54" stroke-width="2.66879505" stroke-linecap="round" stroke-linejoin="round"></path>
                        <path d="M87.3708212,89.1091718 C86.6887442,97.2147208 92.7205683,104.326686 100.85101,105.006507 C104.836603,105.32027 108.613697,104.012923 111.498118,101.659699 C111.969599,101.816581 112.442129,101.921169 112.967045,101.973462 C115.012229,102.130344 116.900251,101.241348 118.107245,99.7771201 C123.824748,99.9340017 128.754352,95.593611 129.226882,89.8412859" id="Path" stroke="#183D54" stroke-width="2.61544007" stroke-linecap="round" stroke-linejoin="round"></path>
                        <path d="M102.685598,37.6520091 C104.312735,34.4620833 107.144769,32.1611533 110.396946,31.0629821" id="Path" fill="#FFFFFF" fill-rule="nonzero"></path>
                        <path d="M102.685598,37.6520091 C104.312735,34.4620833 107.144769,32.1611533 110.396946,31.0629821" id="Path" stroke="#183D54" stroke-width="2.66879505" stroke-linecap="round" stroke-linejoin="round"></path>
                        <path d="M127.915115,72.3751351 C128.334209,72.427429 128.754352,72.5320167 129.174495,72.6888983 C130.328054,73.0549554 131.324452,73.6824817 132.111303,74.4668897" id="Path" fill="#FFFFFF" fill-rule="nonzero"></path>
                        <path d="M127.915115,72.3751351 C128.334209,72.427429 128.754352,72.5320167 129.174495,72.6888983 C130.328054,73.0549554 131.324452,73.6824817 132.111303,74.4668897" id="Path" stroke="#183D54" stroke-width="2.66879505" stroke-linecap="round" stroke-linejoin="round"></path>
                        <path d="M109.557708,64.1127045 C109.400547,62.7007702 108.875631,61.3411297 107.93162,60.1906647 C105.309133,56.9484451 100.483255,56.4778003 97.1786908,59.1447874 C96.4452747,59.7723138 95.8155845,60.452134 95.3430549,61.236542 C95.7621499,59.8769015 96.6024353,58.6218487 97.7559941,57.6805592 C100.903397,55.1704537 105.51868,55.5888046 107.984006,58.6741426 C109.294726,60.2952524 109.819642,62.2301254 109.557708,64.1127045 L109.557708,64.1127045 Z" id="Path" fill="#DCE7F2" fill-rule="nonzero"></path>
                        <path d="M111.602891,101.502818 C110.817088,101.136761 110.133963,100.561528 109.610095,99.8817079" id="Path" stroke="#183D54" stroke-width="2.66879505" stroke-linecap="round" stroke-linejoin="round"></path>
                        <ellipse id="Oval" fill="#FFFFFF" fill-rule="nonzero" cx="33.5024518" cy="76.1402934" rx="3.67127177" ry="3.66057052"></ellipse>
                        <path d="M37.5414793,76.663232 C36.9128369,78.598105 34.8142189,79.5916884 32.8738093,78.9641621 C30.932352,78.3366357 29.9359537,76.2448811 30.5656439,74.3100081 C30.6704176,73.9962449 30.8275782,73.6824817 31.0371257,73.4210124 C30.7751914,75.1467099 31.8239765,76.8201136 33.5024518,77.3953461 C35.0761533,77.9182848 36.8070154,77.3430523 37.6986399,75.9834118 C37.6462531,76.1925872 37.5938662,76.4017627 37.5414793,76.663232 L37.5414793,76.663232 Z" id="Path" fill="#DCE7F2" fill-rule="nonzero"></path>
                        <ellipse id="Oval" stroke="#183D54" stroke-width="2.61544007" stroke-linecap="round" stroke-linejoin="round" cx="33.5024518" cy="76.1402934" rx="3.67127177" ry="3.66057052"></ellipse>
                        <path d="M62.9805429,4.39311122 C59.9379135,8.68120811 55.4274041,13.2307743 50.2872045,12.1326032 C48.031426,7.00780444 42.1567625,3.76558484 36.597468,4.49769894 C31.0371257,5.28210691 26.264682,9.98855472 25.5302181,15.5317044 C18.7115432,15.4794105 12.1548027,20.5519154 10.4763274,27.1932362 C9.74291126,30.2262803 10.0048456,33.416206 11.1584045,36.2923686 C11.0536307,36.2400747 11.0012438,36.2400747 10.8964701,36.1877809 C10.6869226,36.135487 10.4773752,36.0308993 10.2678277,35.9786054 C8.11682285,35.4556668 5.91343114,35.7694299 4.02540839,36.8676011 C2.13738564,38.0180661 0.772183836,39.7960575 0.248315148,41.940106 C-0.799422229,46.0713213 1.56008234,50.411712 5.59910993,51.7713525 C5.80865741,51.8236464 6.01820488,51.9282341 6.22775236,51.9805279 C7.53951955,52.2942911 8.90262588,52.2942911 10.1096193,52.0328218 C11.5785471,54.3860457 13.833278,56.2686248 16.6663598,57.2622083 C18.6591563,57.9420285 20.7043397,58.0989101 22.6981839,57.7851469 C23.5363738,58.5695549 24.4290461,59.2493751 25.4254443,59.8246076 C30.6180308,62.8053579 37.6986399,62.0732438 42.2101971,58.151204 C45.1993918,62.4393009 50.8645078,64.687937 55.9523205,63.5897659 C56.3190286,68.8714462 61.3544544,73.4210124 66.6518146,73.3164247 C64.9733393,80.3760964 69.7468308,88.3247638 76.82744,90.2073429 C83.8567101,92.0376282 91.9861044,87.4357681 93.9789009,80.4806841 C95.1858943,81.4219737 96.5500484,82.1017939 97.9655416,82.6247326 C98.0703153,88.3247638 101.690248,93.658738 107.406703,95.593611 C114.435973,97.9991287 122.093886,94.443146 124.872485,87.6449436 C126.866329,88.1155883 128.912561,87.8018252 130.643423,86.8082417" id="Path" fill="#FFFFFF" fill-rule="nonzero"></path>
                        <path d="M134.209921,81.9972062 C135.048111,78.6503989 133.527844,75.1990038 130.69581,73.5256001 C131.376839,72.793486 132.058916,72.0090781 132.583832,71.1200824 C135.888396,65.8906959 135.836009,58.8310242 132.531445,53.6016378 C130.643423,50.6731813 130.69581,50.8300629 131.062518,47.326374 C131.481613,42.7245139 129.698364,38.07036 126.499621,34.7758465" id="Path" stroke="#183D54" stroke-width="2.66879505" stroke-linecap="round" stroke-linejoin="round"></path>
                        <path d="M16.9282942,56.0594494 C14.3581944,55.1704537 12.2071896,53.49705 10.7916964,51.3007077 L10.4249883,50.7254752 L9.74186352,50.8823568 C8.58935241,51.1438261 7.43474582,51.0915323 6.22775236,50.8300629 C6.07059175,50.7777691 5.86104428,50.7254752 5.6514968,50.6731813 C2.03156416,49.4181286 -0.118392934,45.7052642 0.772183836,42.0969876 C1.24366566,40.2667023 2.39827225,38.6978864 4.07674752,37.7565968 C5.23030637,37.0767766 6.59446044,36.7630134 7.95756677,36.8153072 C7.69563242,37.285952 7.53847182,37.8088907 7.38131121,38.3841232 C6.33147836,42.5676323 8.79680441,47.0126108 13.0977663,48.4245452 C13.3597007,48.5291329 13.5702959,48.5814268 13.7798434,48.6337206 C14.8820631,48.8951899 16.0356219,48.9997777 17.1891808,48.8428961 C18.7628823,50.9869445 20.966274,52.6603482 23.5363738,53.49705 C25.3720097,54.1245764 27.2600325,54.3337519 29.1480552,54.1245764 C29.8825191,54.7521028 30.7217568,55.3273353 31.5609944,55.7979801 C32.2954583,56.216331 33.1346959,56.582388 33.9215467,56.8438574 C36.3344859,57.6805592 38.9569725,57.8374408 41.4222986,57.4713837 C37.8558006,60.3998401 32.6108272,61.2888358 27.9421095,59.7200199 C27.1552587,59.4585506 26.4207948,59.1447874 25.7387178,58.7264365 C24.7957542,58.2034978 23.9554688,57.5759715 23.2210049,56.8438574 L22.8542968,56.5300942 L22.382815,56.582388 C20.6509051,56.8438574 18.7104955,56.6869758 16.9272465,56.0594494 L16.9282942,56.0594494 Z M76.6178925,88.6908209 C70.4289079,86.5990663 66.4422671,79.74857 67.8588081,73.7347756 L68.1207424,72.6366044 L66.9158444,72.6366044 C65.9183985,72.6366044 64.9220002,72.4797229 63.925602,72.1659597 C60.2543302,70.9109069 57.4746829,67.5640996 57.159314,64.0604107 L57.0545402,63.0145334 L56.0057551,63.2237088 C53.9071372,63.6420597 51.7047932,63.4851781 49.5537884,62.753064 C46.9836886,61.8640683 44.7813446,60.2952524 43.3124168,58.2557917 L43.0504825,57.8897346 C44.7813446,57.4713837 46.407433,56.7392696 47.8753131,55.6933923 C49.4490146,57.5236776 51.5476326,58.9356119 53.959524,59.7723138 C55.9533683,60.452134 57.9985516,60.6613095 59.9389612,60.452134 C60.6734251,64.0604107 63.5588939,67.3026303 67.3359871,68.557683 C68.0694033,68.8191523 68.8552063,68.9760339 69.590718,69.0806217 C68.7514803,75.2512977 72.8952816,81.8926185 79.1366532,83.9843731 C79.3985875,84.0889608 79.7129088,84.1935485 79.9758908,84.2458424 C84.5387871,85.4486013 89.4170523,84.0889608 92.8263898,81.1082105 C90.7288195,86.9128295 83.5434366,90.5734 77.3534042,88.9522902 C77.0914698,88.8999963 76.8819224,88.7954086 76.619988,88.6908209 L76.6178925,88.6908209 Z" id="Shape" fill="#DCE7F2" fill-rule="nonzero"></path>
                        <path d="M130.69581,86.703654 C128.964947,87.7495313 126.866329,88.0632945 124.92592,87.5403558 C122.146273,94.3385582 114.48836,97.894541 107.460138,95.4890233 C101.742635,93.5541503 98.0703153,88.2201761 98.0179285,82.5201448 C96.6024353,82.0495001 95.2382812,81.317386 94.0323355,80.3760964 C92.0384913,87.3834742 83.909097,91.9330405 76.8808746,90.1027552 C69.8516046,88.2724699 65.0257262,80.3238025 66.7042015,73.211837 C61.3544544,73.3164247 56.3714155,68.7668585 56.0047074,63.4851781 C50.9168947,64.5833493 45.2517787,62.3347131 42.262584,58.0466162 C37.7510268,61.9686561 30.6704176,62.7007702 25.4778312,59.7200199 C24.4814329,59.1447874 23.5898084,58.4649672 22.7505708,57.6805592 C20.8091134,57.9943224 18.7639301,57.8897346 16.7187467,57.1576205 C13.8856648,56.216331 11.630934,54.281458 10.1620062,51.9282341 C8.90262588,52.2419973 7.59190642,52.2419973 6.28013923,51.8759402 C6.22775236,51.8759402 6.22775236,51.8759402 6.17536549,51.8236464 C2.29454624,50.7777691 -0.327940409,47.0649047 0.0911545413,43.090571 C0.353088885,40.4235839 1.82201669,38.1226538 4.07779526,36.8153072 C5.96581801,35.6648422 8.22159659,35.351079 10.3191668,35.9263115 C10.5287143,35.9786054 10.7382618,36.0308993 10.9478092,36.135487 C11.0536307,36.1877809 11.1060176,36.1877809 11.2107913,36.2400747 C10.1096193,33.3639122 9.79529813,30.1216926 10.529762,27.1409423 C12.2061418,20.4996215 18.7104955,15.4794105 25.5826049,15.4794105 C26.3694557,9.93626086 31.1429472,5.22981305 36.6498548,4.44540508 C42.2101971,3.66099711 48.0848606,6.95551058 50.3395914,12.0803093 C53.9584763,9.5702038 58.9415153,11.1913136 60.4104431,15.270235 L61.4068413,18.7216301 C62.4032396,22.1207313 64.3446969,25.1537754 67.0719573,27.4024116 C71.6348536,24.5785429 77.6142908,26.879473 79.0832186,32.0565656" id="Path" stroke="#183D54" stroke-width="2.61544007" stroke-linecap="round" stroke-linejoin="round"></path>
                        <path d="M27.1039196,23.8987227 C25.3206706,20.7610908 24.848141,16.9436387 26.1075213,13.2830682 C26.1599082,13.0738927 26.264682,12.8647173 26.3170688,12.7078357" id="Path" stroke="#183D54" stroke-width="2.66879505" stroke-linecap="round" stroke-linejoin="round"></path>
                        <line x1="30.6180308" y1="27.9253503" x2="29.6740194" y2="27.1409423" id="Path" fill="#FFFFFF" fill-rule="nonzero"></line>
                        <line x1="30.6180308" y1="27.9253503" x2="29.6740194" y2="27.1409423" id="Path" stroke="#183D54" stroke-width="2.66879505" stroke-linecap="round" stroke-linejoin="round"></line>
                        <path d="M128.912561,85.1348381 C127.391246,85.9715399 125.660384,86.2330092 123.981908,85.8146583 L123.195058,85.6054829 L122.933123,86.2853031 C120.467797,92.2990975 113.543301,95.2798478 107.144769,93.1357993 C102.056956,91.4101018 98.5428449,86.7559479 98.3856843,81.5788553 L98.3856843,80.9513289 L97.7559941,80.7421534 C96.3918401,80.2715087 95.1858943,79.6439823 94.1371092,78.8072805 L93.822788,78.5458111 C94.7133648,77.5522277 95.4478287,76.4017627 95.9203582,75.1467099 C96.6013875,75.5650609 97.3882383,75.9834118 98.1750891,76.297175 C98.594184,81.5788553 102.266504,86.2330092 107.511477,88.0110006 C114.120604,90.2596368 121.254648,87.3311804 124.086682,81.3696798 C125.869931,81.6311491 127.65318,81.317386 129.226882,80.4283903 C130.275667,79.8008639 131.167291,79.0164559 131.796982,78.0228725" id="Path" fill="#DCE7F2" fill-rule="nonzero"></path>
                        <path d="M93.6121928,31.481333 L93.4550322,31.0106883 C92.6681814,28.6574644 90.8325455,26.9840607 88.576767,26.2519466 C88.6815407,25.2060693 88.5243801,24.1078981 88.2100589,23.0620209 C87.2136606,20.0289767 84.6435609,17.989516 81.5485446,17.3096958 C81.810479,15.1133534 81.6533184,12.8647173 80.9199022,10.6160811 C78.2429332,2.45823823 69.3266881,-1.88215253 60.9866986,0.784834562 C52.6467091,3.50411552 48.0303782,12.2894848 50.6539126,20.4473276 C51.0730076,21.7546742 51.6492631,22.9574331 52.3847748,24.0556043" id="Path" stroke="#183D54" stroke-width="2.66879505" stroke-linecap="round" stroke-linejoin="round"></path>
                        <path d="M47.1921883,54.4383396 C49.8157227,52.346585 51.9132929,49.4704225 53.1192387,46.0713213 C56.3714155,36.501544 51.2836028,26.1473589 41.6863284,22.9051393 C39.4829367,22.1730252 37.2805927,21.859262 35.1295879,21.9638497 C38.3817647,21.0225601 42.0006496,21.074854 45.4623739,22.225319 C54.5892142,25.310657 59.4674794,35.1941974 56.3724632,44.2933299 C54.7463748,48.9474838 51.3370374,52.5034666 47.1942838,54.4383396 L47.1921883,54.4383396 Z M94.9763469,69.4989726 C94.7667994,67.1457487 93.8217403,64.7925248 92.2480387,62.8576518 C87.7899162,57.366796 79.608135,56.5300942 73.9954059,61.0796604 C72.7370733,62.1255377 71.6872405,63.3282966 70.9003897,64.6356432 C71.6348536,62.3347131 72.9990076,60.1906647 75.044191,58.5695549 C80.3949858,54.281458 88.157672,55.0135721 92.4051993,60.2952524 C94.608591,62.9622395 95.4478287,66.3090468 94.9763469,69.4989726 L94.9763469,69.4989726 Z" id="Shape" fill="#DCE7F2" fill-rule="nonzero"></path>
                    </g>
                    <g id="Group" transform="translate(49.196739, 175.286079)">
                        <path d="M35.6029342,41.1964614 C41.4252108,37.6404787 43.2095076,30.0578683 39.6419618,24.2532493 C38.1206472,21.8477316 35.9183032,20.122034 33.4529771,19.1807445 C34.0292327,15.4155862 33.2958165,11.4412525 31.1448117,7.93756359 C26.2665465,0.0934839087 15.9348082,-2.36432772 8.0663005,2.49900168 C0.1977928,7.36233108 -2.26648551,17.6642224 2.61177972,25.5083021 C5.02367116,29.3780481 8.74837753,31.9404474 12.839792,32.9340308 C12.9969526,33.4569695 13.2588869,33.9799081 13.5732082,34.5028468 C14.7802016,36.4900136 16.8777718,37.6404787 19.0811635,37.7450664 C22.7000484,43.0790406 29.9912528,44.6478565 35.603982,41.1964614 L35.6029342,41.1964614 Z" id="Path" fill="#FFFFFF" fill-rule="nonzero"></path>
                        <path d="M19.7108537,37.5881848 C19.6584668,37.4835971 19.5013062,37.4313032 19.3965325,37.4313032 C17.6122357,37.2744216 15.9337605,36.333132 14.8849753,34.7120222 C14.6754279,34.3459652 14.4658804,33.9799081 14.3611067,33.6138511 C14.3087198,33.4569695 14.2039461,33.3523818 14.0457377,33.3523818 C10.6364003,32.4633861 7.54138407,30.2670438 5.54858758,27.077118 C4.07965978,24.6716002 3.39863049,22.0046132 3.39863049,19.3899199 C3.39863049,18.8669813 4.13204665,18.7623936 4.28920726,19.2330383 C4.65696308,20.3312095 5.12949263,21.4293806 5.75813506,22.4229641 C7.75197929,25.6651837 10.8459478,27.8092321 14.2552852,28.6982278 C14.4124458,28.7505217 14.5172195,28.8551094 14.5696064,28.9596971 C14.726767,29.3257542 14.8849753,29.6918112 15.0945228,30.0578683 C16.0909211,31.6789781 17.7693963,32.6725615 19.60608,32.7771492 C19.7108537,32.7771492 19.8680143,32.8294431 19.9204012,32.9340308 C23.1201911,37.3790093 29.2557412,38.6340621 33.9768458,35.7056057 C35.7611426,34.6074345 37.071862,33.0909124 37.9110997,31.3652149 C38.1206472,30.946864 38.7503373,31.1037456 38.7503373,31.5743904 C38.6979505,35.0257854 36.9147014,38.3725928 33.7149115,40.3597596 C29.0472415,43.288216 22.9095959,41.9808694 19.7108537,37.5881848 L19.7108537,37.5881848 Z" id="Path" fill="#DCE7F2" fill-rule="nonzero"></path>
                        <path d="M40.9013422,27.0248241 C42.5798174,32.2542106 40.5346341,38.1634173 35.6029342,41.1964614 C29.9912528,44.6478565 22.7000484,43.0790406 18.9753421,37.7450664 C16.7729981,37.6404787 14.7278147,36.4900136 13.4684344,34.5028468 C13.1541132,34.032202 12.9445657,33.5092634 12.7350183,32.9340308 C8.64360379,31.9404474 4.91889742,29.3780481 2.50595824,25.5083021 C-2.37125925,17.6642224 0.0940667993,7.36233108 7.96152676,2.49900168 C7.96152676,2.49900168 16.1443557,-3.04414796 24.2213631,3.07423419" id="Path" stroke="#183D54" stroke-width="2.61544007" stroke-linecap="round" stroke-linejoin="round"></path>
                    </g>
                    <g id="Group" stroke-linecap="round" stroke-linejoin="round" transform="translate(79.979537, 218.086381)" fill-rule="nonzero" stroke="#183D54" stroke-width="2.61544007">
                        <path d="M78.4635019,48.7028571 C78.4635019,32.2302898 66.8189487,12.2017397 52.3947482,3.8870152 C45.1035438,-0.296493967 38.4954642,-0.662551018 33.7743596,2.16131767 L33.7743596,2.16131767 L18.5109215,10.528336 L18.5109215,10.528336 C13.6850431,13.1430292 10.6948006,18.9476482 10.6948006,27.3146665 C10.6948006,43.7872338 22.3404016,63.815784 36.764602,72.1305084 C44.0547587,76.3140176 50.6638861,76.6800746 55.383943,73.856206 L70.8055894,65.3845999 C70.8055894,65.3845999 70.8579763,65.3845999 70.8579763,65.332306 L70.96275,65.2800122 L70.96275,65.2800122 C75.5780332,62.6130251 78.4635019,56.8607 78.4635019,48.7028571 Z" id="Path" fill="#DCE7F2"></path>
                        <ellipse id="Oval" fill="#DCE7F2" transform="translate(36.779414, 42.308891) rotate(-30.324000) translate(-36.779414, -42.308891) " cx="36.7794137" cy="42.3088914" rx="21.1746344" ry="36.6348608"></ellipse>
                        <ellipse id="Oval" fill="#DCE7F2" transform="translate(36.779414, 42.308891) rotate(-30.324000) translate(-36.779414, -42.308891) " cx="36.7794137" cy="42.3088914" rx="14.7800394" ry="25.5916664"></ellipse>
                        <ellipse id="Oval" fill="#DCE7F2" transform="translate(39.382898, 40.594170) rotate(-28.954000) translate(-39.382898, -40.594170) " cx="39.3828977" cy="40.5941705" rx="11.2166103" ry="21.4033849"></ellipse>
                        <path d="M44.8939963,43.3688829 C45.1035438,40.4404265 43.1631342,36.4137989 40.5406475,34.3743382 C39.0193329,33.1715793 37.6038397,32.9624039 36.6587806,33.5376364 L36.6587806,33.5376364 L33.198104,35.7862726 L33.198104,35.7862726 C32.5694616,36.2046235 32.096932,36.9890315 32.0445452,38.1917903 C31.8349977,41.1202468 33.7754073,45.1468743 36.397894,47.186335 C37.9715955,48.4413878 39.3881364,48.6505632 40.3845347,47.970743 L40.3845347,47.970743 L43.846259,45.7221068 L43.846259,45.669813 C44.4225145,45.2514621 44.7902703,44.4670541 44.8950441,43.3688829 L44.8939963,43.3688829 Z" id="Path" fill="#FFFFFF"></path>
                        <ellipse id="Oval" fill="#FFFFFF" transform="translate(36.739866, 41.861398) rotate(-28.954000) translate(-36.739866, -41.861398) " cx="36.7398659" cy="41.8613982" rx="3.72106599" ry="7.11702309"></ellipse>
                    </g>
                    <g id="Group" transform="translate(168.545377, 294.274044)">
                        <path d="M57.873815,26.6393441 C60.8116706,26.0641116 64.0638474,27.6329275 65.3756146,30.2999146 C66.7376732,32.9669017 66.0566439,36.4705906 63.8532522,38.5100514 C65.9518702,41.4908016 65.6888881,45.8834863 63.2769966,48.6550611 C62.1747769,49.9101138 60.65451,50.7468157 59.0284216,51.1128727 C59.0808085,51.1128727 59.1331953,51.1651666 59.1331953,51.2174604 C59.2379691,51.2697543 59.3427428,51.374342 59.3951297,51.4266359 C60.2867542,52.2110439 60.8116706,53.2569212 60.9164443,54.45968 C61.0212181,55.6101451 60.6021231,56.7606101 59.8152724,57.6496058 C58.2939577,59.3753033 55.671471,59.6367726 53.8358351,58.2771322 C53.7310614,58.2248383 53.6786745,58.1202506 53.5739008,58.0679567 C52.9965975,57.5973119 52.6288417,57.0220794 52.3669073,56.3422592 C50.8979795,56.4468469 49.3766649,56.028496 48.0659454,55.0349126 C47.1743209,54.3550923 46.4922439,53.5183905 46.0197143,52.5771009 C45.4434588,52.4725132 44.8661555,52.2633377 44.2888522,52.0018684 C41.4044312,50.6422279 39.5687953,47.2954206 39.9355034,44.1577887 C37.1558561,44.1577887 34.4285957,42.3275035 33.3787629,39.7651041 C30.9144845,41.2293323 27.3993257,40.3926305 25.8266718,38.0394066 C23.2031375,40.9155691 18.2724854,41.2293323 15.2832906,38.7192268 C12.3464828,36.2091213 11.8739532,31.2412042 14.3927139,28.2604539 C13.6048153,27.9989846 12.8703514,27.6329275 12.241709,27.1622828 C9.67160923,28.8356864 6.26227181,28.8879803 3.63978515,26.9531073 C0.438947468,24.5998834 -0.294468696,20.1549049 1.8554884,16.9126853 C1.0172985,16.1805712 0.544768943,15.1869878 0.492382074,14.0888166 C0.439995205,12.9906455 0.754316418,11.9447682 1.48878032,11.1080663 C2.69472604,9.696132 4.68857027,9.33007494 6.31465868,10.062189 C6.41943242,9.5392504 6.57659302,9.01631176 6.7861405,8.49337311 C8.09790769,5.46032897 11.244263,3.31628052 14.4974876,3.21169279 C16.3844626,3.15939893 16.2796889,3.15939893 17.6962298,1.95664004 C20.0567821,-0.0305268093 23.5708933,-0.553465455 26.4553143,0.701587294 C29.2883961,1.95664004 31.3335795,4.83280259 31.4907401,7.9181406" id="Path" fill="#FFFFFF" fill-rule="nonzero"></path>
                        <path d="M57.873815,26.6393441 C60.8116706,26.0641116 64.0638474,27.6329275 65.3756146,30.2999146 C66.7376732,32.9669017 66.0566439,36.4705906 63.8532522,38.5100514 C65.9518702,41.4908016 65.6888881,45.8834863 63.2769966,48.6550611 C62.1747769,49.9101138 60.65451,50.7468157 59.0284216,51.1128727 C59.0808085,51.1128727 59.1331953,51.1651666 59.1331953,51.2174604 C59.2379691,51.2697543 59.3427428,51.374342 59.3951297,51.4266359 C60.2867542,52.2110439 60.8116706,53.2569212 60.9164443,54.45968 C61.0212181,55.6101451 60.6021231,56.7606101 59.8152724,57.6496058 C58.2939577,59.3753033 55.671471,59.6367726 53.8358351,58.2771322 C53.7310614,58.2248383 53.6786745,58.1202506 53.5739008,58.0679567 C52.9965975,57.5973119 52.6288417,57.0220794 52.3669073,56.3422592 C50.8979795,56.4468469 49.3766649,56.028496 48.0659454,55.0349126 C47.1743209,54.3550923 46.4922439,53.5183905 46.0197143,52.5771009 C45.4434588,52.4725132 44.8661555,52.2633377 44.2888522,52.0018684 C41.4044312,50.6422279 39.5687953,47.2954206 39.9355034,44.1577887 C37.1558561,44.1577887 34.4285957,42.3275035 33.3787629,39.7651041 C30.9144845,41.2293323 27.3993257,40.3926305 25.8266718,38.0394066 C23.2031375,40.9155691 18.2724854,41.2293323 15.2832906,38.7192268 C12.3464828,36.2091213 11.8739532,31.2412042 14.3927139,28.2604539 C13.6048153,27.9989846 12.8703514,27.6329275 12.241709,27.1622828 C9.67160923,28.8356864 6.26227181,28.8879803 3.63978515,26.9531073 C0.438947468,24.5998834 -0.294468696,20.1549049 1.8554884,16.9126853 C1.0172985,16.1805712 0.544768943,15.1869878 0.492382074,14.0888166 C0.439995205,12.9906455 0.754316418,11.9447682 1.48878032,11.1080663 C2.69472604,9.696132 4.68857027,9.33007494 6.31465868,10.062189 C6.41943242,9.5392504 6.57659302,9.01631176 6.7861405,8.49337311 C8.09790769,5.46032897 11.244263,3.31628052 14.4974876,3.21169279 C16.3844626,3.15939893 16.2796889,3.15939893 17.6962298,1.95664004 C19.5842526,0.387824107 22.2067392,-0.239702268 24.6196784,0.178648649" id="Path" stroke="#183D54" stroke-width="0.944444444" stroke-linecap="round" stroke-linejoin="round"></path>
                        <path d="M46.439857,51.792693 L46.3350833,51.5835175 L46.0731489,51.5312236 C45.5482325,51.4266359 45.0233161,51.2174604 44.4994474,51.008285 C44.1327393,50.8514034 43.7649835,50.5899341 43.4496145,50.3807586 C41.4044312,48.8642365 40.2508723,46.354131 40.4604198,44.0009071 C41.0366753,45.1513722 41.875913,46.1972494 42.9257458,46.9816574 C43.2924539,47.2431267 43.659162,47.5045961 44.0793047,47.6614777 C44.5507865,47.8706531 45.0233161,48.0798286 45.4958456,48.1844163 C45.9673274,49.0211181 46.5970176,49.8055261 47.4362552,50.3807586 C48.5374272,51.2174604 49.9015813,51.6881052 51.3181222,51.6881052 C51.5800566,52.2110439 51.9467647,52.6816887 52.4182465,53.1000396 C52.5240679,53.2046273 52.6288417,53.2569212 52.7336154,53.3615089 C54.6216382,54.7734432 57.2451726,54.5119739 58.7130526,52.8385702 C58.9226001,52.6293948 59.0797607,52.3679255 59.2369213,52.15875 C59.657064,52.7339825 59.9200461,53.4138028 59.972433,54.093623 C60.0772067,55.0872064 59.7628855,56.028496 59.0808085,56.7606101 C57.8214281,58.1725444 55.5666973,58.3817199 53.9929958,57.2312549 C53.888222,57.178961 53.8358351,57.1266671 53.7310614,57.0220794 C53.2585318,56.6037285 52.890776,56.1330837 52.6812286,55.5578512 L52.5240679,55.244088 L52.1573599,55.244088 C50.7932058,55.2963819 49.4290517,54.878031 48.2754929,54.0413291 C47.4886421,53.4138028 46.858952,52.6293948 46.439857,51.792693 L46.439857,51.792693 Z M3.11486873,17.3310362 L3.3244162,17.017273 L3.01009499,16.7558037 C2.32801796,16.1282773 1.8554884,15.2915755 1.80310153,14.4025798 C1.6983278,13.4612902 2.01264901,12.6245884 2.5899523,11.8924743 C2.95666038,11.4741234 3.42918994,11.1603602 4.00649324,10.9511847 C3.79694576,11.5264173 3.69217202,12.1539436 3.74455889,12.78147 C3.84933263,13.7227596 4.21604071,14.6117553 4.89811774,15.3438694 C3.11486873,18.4292074 4.00649324,22.4035411 6.99568797,24.6521773 C9.35624028,26.4301686 12.5560302,26.5870502 15.0213563,25.1751159 C15.3880644,25.4365852 15.8071593,25.6457607 16.227302,25.8026423 C15.808207,26.4301686 15.5462727,27.057695 15.3891121,27.7898091 L15.1795646,27.7375153 C14.4964399,27.5283398 13.8677974,27.1622828 13.2381073,26.7439318 L12.9761729,26.5347564 L12.7142386,26.691638 C10.4050254,28.20816 7.25867005,28.0512785 4.95050461,26.3778748 C2.01369675,24.1815325 1.22684598,20.2594926 3.11486873,17.3310362 Z M16.3844626,37.8302311 C13.8143628,35.6338888 13.2904941,31.3980858 15.1795646,28.7833926 C14.9165825,31.1366165 15.808207,33.646722 17.6962298,35.2678318 C17.8010035,35.3724195 17.9581641,35.4770072 18.0629379,35.5815949 C20.8436329,37.6210557 24.9874342,37.4641741 27.3993257,35.2155379 C27.66126,35.5293011 27.9766289,35.7907704 28.2909502,36.0522397 C29.9694254,37.3072925 32.2775909,37.5687618 34.0608399,36.8366477 C34.5323217,37.7256434 35.2678334,38.5623452 36.1594579,39.2421655 C37.2606298,40.0265734 38.4665756,40.5495121 39.7783428,40.6540998 C39.7783428,41.5953894 39.9355034,42.4843851 40.2498246,43.3733808 L40.0402771,43.3733808 C38.7295576,43.3733808 37.3654036,42.8504421 36.2118447,42.0137403 C35.2678334,41.2816262 34.5333694,40.3926305 34.0608399,39.3467532 L33.8512924,38.8238145 L33.3798106,39.0852839 C31.7537222,40.0265734 29.4455567,39.817398 27.8194683,38.6146391 C27.4003734,38.3008759 27.0326176,37.882525 26.7182964,37.4641741 L26.3515883,36.9412354 L25.9314456,37.4118802 C23.7280539,39.817398 19.5318657,40.1311612 16.8046053,38.0917004 C16.5950578,37.9871127 16.4902841,37.882525 16.3855103,37.8302311 L16.3844626,37.8302311 Z M19.007997,24.4952957 C20.1081212,23.8677693 21.4198884,23.5540061 22.7840425,23.6585938 C26.560088,23.9200632 29.3931699,27.2668705 29.1301878,31.0843226 C29.0778009,31.9733183 28.8682535,32.7577263 28.5015454,33.5421342 C29.2873484,32.5485508 29.8122648,31.2934981 29.9170386,29.8815637 C30.1789729,26.2209932 27.5051471,23.0310675 23.8852145,22.7695981 C22.0495786,22.6650104 20.2663296,23.2925368 19.007997,24.4952957 L19.007997,24.4952957 Z" id="Shape" fill="#DCE7F2" fill-rule="nonzero"></path>
                        <ellipse id="Oval" fill="#FFFFFF" fill-rule="nonzero" cx="34.7953038" cy="53.4138028" rx="1.94040962" ry="1.93487299"></ellipse>
                        <path d="M36.7357134,53.4138028 C36.7357134,54.5119739 35.8451366,55.3486757 34.7953038,55.3486757 C33.6941318,55.3486757 32.8548942,54.45968 32.8548942,53.4138028 C32.8548942,52.3156316 33.7454709,51.4789298 34.7953038,51.4789298 C35.8440889,51.4789298 36.7357134,52.3679255 36.7357134,53.4138028 Z" id="Path" stroke="#183D54" stroke-width="0.944444444" stroke-linecap="round" stroke-linejoin="round"></path>
                        <path d="M24.7778867,0.126354784 C22.3649476,-0.291996132 19.7414132,0.335530242 17.8533904,1.90434618 C16.3844626,3.10710506 16.4902841,3.10710506 14.6536005,3.15939893 C11.3500845,3.26398666 8.20268143,5.46032897 6.9433011,8.44107925 C6.73375363,8.96401789 6.57659302,9.48695654 6.47181928,10.0098952 C4.84573088,9.27778108 2.85293438,9.64383813 1.64594093,11.0557725 C0.912524762,11.8924743 0.544768943,12.9383516 0.649542681,14.0365228 C0.70192955,15.1346939 1.22579824,16.1282773 2.01369675,16.8603914 C-0.137308089,20.1549049 0.596108075,24.5475895 3.79694576,26.9008134 C6.41943242,28.8356864 9.82876984,28.7833926 12.3988696,27.1099889 C13.0275121,27.5806337 13.761976,27.9466907 14.5488267,28.20816 C12.0835007,31.1889103 12.5036434,36.1568275 15.4404512,38.666933 C18.3783068,41.1770385 23.3613458,40.8632753 25.9838325,37.9871127 C27.557534,40.3403366 31.0716452,41.1770385 33.5369712,39.7128102 C34.5847086,42.2752096 37.3130167,44.1054949 40.092664,44.1054949 C39.7259559,47.2954206 41.5615918,50.5899341 44.4460128,51.9495745 C44.9709292,52.2110439 45.5482325,52.4202193 46.1779227,52.5248071 C46.6494045,53.4660966 47.3304338,54.3550923 48.223106,54.9826187 C49.5338255,55.9239083 51.0551401,56.3422592 52.5240679,56.2899653 C52.7860023,56.9174917 53.1527104,57.4927242 53.7300137,58.0156628 L53.7824005,58.0679567 C55.4084889,59.4275972 57.8214281,59.479891 59.4475165,58.1202506 C60.5486885,57.178961 61.1259918,55.8193205 61.0212181,54.4073862 C60.9164443,53.2569212 60.3925756,52.15875 59.4999034,51.374342 C59.3951297,51.2697543 59.3427428,51.2174604 59.2379691,51.1651666 C59.1855822,51.1128727 59.1331953,51.1128727 59.1331953,51.0605788 C60.7592837,50.6422279 62.2795507,49.8055261 63.3817704,48.6027672 C65.7947096,45.8834863 66.0566439,41.4385078 63.9580259,38.4577575 C66.1614176,36.4182968 66.7911078,32.9146079 65.4793406,30.2476208 C64.1162343,27.5806337 60.9164443,26.0118177 57.9785887,26.5870502 L57.9785887,26.3255809 C59.5522903,11.5264173 42.5056032,2.1658155 30.8086631,11.3695357 C31.7002876,9.696132 31.8584959,7.76125901 31.3859664,5.98326761" id="Path" fill="#FFFFFF" fill-rule="nonzero"></path>
                        <path d="M46.124488,52.8385702 L46.0197143,52.6293948 L45.75778,52.5771009 C45.2339113,52.4725132 44.656608,52.2633377 44.1316916,52.0541623 C43.7649835,51.8449868 43.3982754,51.6358114 43.0305196,51.374342 C40.9319016,49.8055261 39.7259559,47.2431267 39.9355034,44.7853151 C40.5117589,45.988074 41.4044312,47.0862451 42.5056032,47.8706531 C42.8723112,48.1321224 43.2924539,48.3935918 43.7125966,48.6027672 C44.1840784,48.8119427 44.6555602,49.0211181 45.1804767,49.1257059 C45.6519585,50.0147016 46.3350833,50.7991095 47.1743209,51.4266359 C48.3278798,52.2633377 49.7444207,52.7862764 51.1599139,52.7862764 C51.4218482,53.309215 51.8419909,53.8321537 52.2621336,54.1982107 C52.3669073,54.3027985 52.4716811,54.3550923 52.5764548,54.45968 C54.5168644,55.8716144 57.2451726,55.6624389 58.7654395,53.8844475 C58.974987,53.6752721 59.1321476,53.4138028 59.2893082,53.1523334 C59.7094509,53.7275659 59.972433,54.4073862 60.0248198,55.1395003 C60.1295936,56.1853776 59.8152724,57.1266671 59.1331953,57.9110751 C57.8214281,59.3753033 55.5132627,59.5844788 53.888222,58.3817199 C53.7834483,58.329426 53.7310614,58.2248383 53.6262877,58.1725444 C53.1537581,57.7541935 52.7860023,57.2312549 52.5240679,56.6560224 L52.3669073,56.3422592 L52.0001993,56.3422592 C50.5836583,56.394553 49.1671174,55.9762021 48.0135585,55.0872064 C47.2267078,54.5642678 46.5446307,53.7275659 46.124488,52.8385702 L46.124488,52.8385702 Z M1.38400658,17.3310362 L1.59355406,16.9649792 L1.27923284,16.651216 C0.543721206,16.0236896 0.124626255,15.1346939 0.0198525173,14.1934043 C-0.0849212204,13.2521148 0.229399993,12.3108252 0.859090156,11.631005 C1.22579824,11.2126541 1.75071466,10.846597 2.32801796,10.6897154 C2.06608361,11.2649479 2.01369675,11.9447682 2.06608361,12.6245884 C2.17085735,13.6181718 2.5899523,14.5071675 3.27202934,15.2392816 C1.43639345,18.4292074 2.38040483,22.5604227 5.47542104,24.8090588 C7.94074709,26.6393441 11.1918762,26.7962257 13.7630237,25.3319975 C14.1821186,25.5934668 14.5488267,25.8026423 14.9679217,26.0118177 C14.5488267,26.6393441 14.2345055,27.3191643 14.0773449,28.0512785 L13.8677974,27.9989846 C13.1857204,27.7898091 12.5036434,27.4237521 11.8739532,26.9531073 L11.6120189,26.7439318 L11.2976976,26.9531073 C8.88475846,28.5219232 5.68496851,28.3650416 3.27202934,26.6393441 C0.229399993,24.3907079 -0.55640304,20.3117865 1.38400658,17.3310362 Z M15.12613,38.4577575 C12.4512565,36.2091213 11.9263401,31.8164367 13.8677974,29.0971557 C13.6058631,31.5549674 14.4964399,34.1173667 16.4378972,35.7907704 C16.542671,35.8953581 16.6998316,35.9999459 16.8046053,36.1045336 C19.6890263,38.248582 23.9376014,38.0394066 26.4553143,35.7384765 C26.7172486,36.0522397 27.0326176,36.313709 27.3993257,36.5751784 C29.1301878,37.882525 31.4907401,38.1439943 33.326376,37.3595863 C33.8512924,38.3008759 34.5857563,39.1375777 35.4773808,39.817398 C36.5785528,40.6540998 37.89032,41.1247446 39.2010395,41.2816262 C39.2010395,42.2229157 39.3582001,43.2164992 39.7249082,44.1054949 L39.5153607,44.1054949 C38.1533021,44.1054949 36.7357134,43.5825562 35.5821546,42.6935605 C34.5857563,41.9614464 33.7989055,41.0201569 33.3787629,39.9742796 L33.1692154,39.4513409 L32.6977336,39.7128102 C31.0192583,40.6540998 28.658706,40.4449243 26.9278438,39.1898716 C26.456362,38.8761084 26.0886062,38.4577575 25.774285,38.0394066 L25.4075769,37.5164679 L24.9874342,37.9871127 C22.7316556,40.4972182 18.3783068,40.8109814 15.545225,38.7192268 C15.3356775,38.6146391 15.2309038,38.5623452 15.12613,38.4577575 Z" id="Shape" fill="#DCE7F2" fill-rule="nonzero"></path>
                        <path d="M24.7778867,0.126354784 C22.3649476,-0.291996132 19.7414132,0.335530242 17.8533904,1.90434618 C16.3844626,3.10710506 16.4902841,3.10710506 14.6536005,3.15939893 C11.3500845,3.26398666 8.20268143,5.46032897 6.9433011,8.44107925 C6.73375363,8.96401789 6.57659302,9.48695654 6.47181928,10.0098952 C4.84573088,9.27778108 2.85293438,9.64383813 1.64594093,11.0557725 C0.912524762,11.8924743 0.544768943,12.9383516 0.649542681,14.0365228 C0.70192955,15.1346939 1.22579824,16.1282773 2.01369675,16.8603914 C-0.137308089,20.1549049 0.596108075,24.5475895 3.79694576,26.9008134 C6.41943242,28.8356864 9.82876984,28.7833926 12.3988696,27.1099889 C13.0275121,27.5806337 13.761976,27.9466907 14.5488267,28.20816 C12.0835007,31.1889103 12.5036434,36.1568275 15.4404512,38.666933 C18.3783068,41.1770385 23.3613458,40.8632753 25.9838325,37.9871127 C27.557534,40.3403366 31.0716452,41.1770385 33.5369712,39.7128102 C34.5847086,42.2752096 37.3130167,44.1054949 40.092664,44.1054949 C39.7259559,47.2954206 41.5615918,50.5899341 44.4460128,51.9495745 C44.9709292,52.2110439 45.5482325,52.4202193 46.1779227,52.5248071 C46.6494045,53.4660966 47.3304338,54.3550923 48.223106,54.9826187 C49.5338255,55.9239083 51.0551401,56.3422592 52.5240679,56.2899653 C52.7860023,56.9174917 53.1527104,57.4927242 53.7300137,58.0156628 L53.7824005,58.0679567 C55.4084889,59.4275972 57.8214281,59.479891 59.4475165,58.1202506 C60.5486885,57.178961 61.1259918,55.8193205 61.0212181,54.4073862 C60.9164443,53.2569212 60.3925756,52.15875 59.4999034,51.374342 C59.3951297,51.2697543 59.3427428,51.2174604 59.2379691,51.1651666 C59.1855822,51.1128727 59.1331953,51.1128727 59.1331953,51.0605788 C60.7592837,50.6422279 62.2795507,49.8055261 63.3817704,48.6027672 C65.7947096,45.8834863 66.0566439,41.4385078 63.9580259,38.4577575 C66.1614176,36.4182968 66.7911078,32.9146079 65.4793406,30.2476208 C64.1686212,27.5806337 60.9164443,26.0118177 57.9785887,26.5870502 L57.9785887,26.3255809 C59.5522903,11.5264173 42.5056032,2.1658155 30.8086631,11.3695357 C31.7002876,9.696132 31.8584959,7.76125901 31.3859664,5.98326761" id="Path" stroke="#183D54" stroke-width="2.61544007" stroke-linecap="round" stroke-linejoin="round"></path>
                        <path d="M19.007997,24.4952957 C20.1081212,23.8677693 21.4198884,23.5540061 22.7840425,23.6585938 C26.560088,23.9200632 29.3931699,27.2668705 29.1301878,31.0843226 C29.0778009,31.9733183 28.8682535,32.7577263 28.5015454,33.5421342 C29.2873484,32.5485508 29.8122648,31.2934981 29.9170386,29.8815637 C30.1789729,26.2209932 27.5051471,23.0310675 23.8852145,22.7695981 C22.0495786,22.6650104 20.2663296,23.2925368 19.007997,24.4952957 L19.007997,24.4952957 Z" id="Path" fill="#DCE7F2" fill-rule="nonzero"></path>
                        <ellipse id="Oval" fill="#FFFFFF" fill-rule="nonzero" cx="34.7953038" cy="53.4138028" rx="1.94040962" ry="1.93487299"></ellipse>
                        <path d="M34.7953038,51.4789298 C35.8964758,51.4789298 36.7357134,52.3679255 36.7357134,53.4138028 C36.7357134,54.5119739 35.8451366,55.3486757 34.7953038,55.3486757 C33.6941318,55.3486757 32.8548942,54.45968 32.8548942,53.4138028 C32.8025073,52.3679255 33.6930841,51.4789298 34.7953038,51.4789298 M34.7953038,48.8642365 C32.2775909,48.8642365 30.2324075,50.9036973 30.2324075,53.4138028 C30.2324075,55.9239083 32.2775909,57.963369 34.7953038,57.963369 C37.3130167,57.963369 39.3582001,55.9239083 39.3582001,53.4138028 C39.3582001,50.9036973 37.3130167,48.8642365 34.7953038,48.8642365 L34.7953038,48.8642365 Z" id="Shape" fill="#183D54" fill-rule="nonzero"></path>
                    </g>
                    <g id="Group" stroke-linecap="round" stroke-linejoin="round" transform="translate(194.251918, 283.143604)" fill-rule="nonzero" stroke="#183D54" stroke-width="2.61544007">
                        <path d="M78.4814568,48.7514955 C78.4814568,32.2789282 66.8379513,12.2503781 52.4137508,3.9356536 C45.1225464,-0.247855559 38.5134191,-0.613912611 33.7933622,2.20995607 L33.7933622,2.20995607 L18.5299241,10.5769744 L18.5299241,10.5769744 C13.7040457,13.1916676 10.7138032,18.9962866 10.7138032,27.3633049 C10.7138032,43.8358723 22.3594042,63.8644224 36.7825569,72.1791468 C44.0737613,76.362656 50.6828887,76.728713 55.4029456,73.9048444 L70.8235443,65.4332383 C70.8235443,65.4332383 70.8759312,65.4332383 70.8759312,65.3809444 L70.9807049,65.3286506 L70.9807049,65.3286506 C75.5970358,62.6093696 78.4825045,56.9093384 78.4825045,48.7514955 L78.4814568,48.7514955 Z" id="Path" fill="#DCE7F2"></path>
                        <ellipse id="Oval" fill="#DCE7F2" transform="translate(36.779414, 42.308891) rotate(-30.324000) translate(-36.779414, -42.308891) " cx="36.7794137" cy="42.3088914" rx="21.1746344" ry="36.6348608"></ellipse>
                        <ellipse id="Oval" fill="#DCE7F2" transform="translate(36.779414, 42.308891) rotate(-30.324000) translate(-36.779414, -42.308891) " cx="36.7794137" cy="42.3088914" rx="14.7800394" ry="25.5916664"></ellipse>
                        <ellipse id="Oval" fill="#DCE7F2" transform="translate(39.379898, 40.604111) rotate(-28.954000) translate(-39.379898, -40.604111) " cx="39.3798979" cy="40.6041114" rx="11.2166103" ry="21.4033849"></ellipse>
                        <path d="M44.912999,43.4175213 C45.1225464,40.4890649 43.1821368,36.4624374 40.5596502,34.4229766 C39.0383355,33.2202177 37.6217946,33.0110423 36.6777832,33.5862748 L36.6777832,33.5862748 L33.2160589,35.834911 L33.2160589,35.834911 C32.5874165,36.2532619 32.1148869,37.0376699 32.0625,38.2404287 C31.8529526,41.1688852 33.7933622,45.1955127 36.4158488,47.2349734 C37.9895504,48.4900262 39.4060913,48.6992017 40.4024896,48.0193814 L40.4024896,48.0193814 L43.8642139,45.7707452 L43.8642139,45.7184514 C44.4404694,45.3001005 44.8071775,44.5156925 44.912999,43.4175213 Z" id="Path" fill="#FFFFFF"></path>
                        <ellipse id="Oval" fill="#FFFFFF" transform="translate(36.762650, 41.917733) rotate(-28.954000) translate(-36.762650, -41.917733) " cx="36.7626499" cy="41.9177333" rx="3.72106599" ry="7.11702309"></ellipse>
                    </g>
                    <path d="M367.880501,250.421259 L345.851823,237.923025 L277.192545,298.636202 L286.056403,360.709019 L378.108514,310.402322 L378.527609,267.939704 C378.213287,260.670856 374.227694,254.029536 367.880501,250.421259 Z" id="Path" stroke="#183D54" stroke-width="2.61544007" fill="#FFFFFF" fill-rule="nonzero" stroke-linecap="round" stroke-linejoin="round"></path>
                    <g id="Group" transform="translate(116.963680, 216.389057)">
                        <path d="M35.5512607,41.1964614 C41.3735373,37.6404787 43.1567863,30.0578683 39.5902883,24.2532493 C38.0689736,21.8477316 35.8655819,20.122034 33.4002559,19.1807445 C33.9775592,15.4155862 33.2430953,11.4412525 31.0931382,7.93756359 C26.2138252,0.0934839087 15.8820869,-2.36432772 8.01357922,2.49900168 C0.146119253,7.36233108 -2.31920679,17.6642224 2.55905843,25.5083021 C4.97199761,29.3780481 8.69565625,31.9404474 12.7870707,32.9340308 C12.9442313,33.4569695 13.2061657,33.9799081 13.5204869,34.5028468 C14.7274803,36.4900136 16.8260983,37.6404787 19.0284423,37.7450664 C22.6483749,43.0790406 29.9385316,44.6478565 35.5512607,41.1964614 L35.5512607,41.1964614 Z" id="Path" fill="#FFFFFF" fill-rule="nonzero"></path>
                        <path d="M19.6581324,37.5881848 C19.6057456,37.4835971 19.4485849,37.4313032 19.3438112,37.4313032 C17.5605622,37.2744216 15.8820869,36.333132 14.8322541,34.7120222 C14.6227066,34.3459652 14.4131591,33.9799081 14.3083854,33.6138511 C14.2559985,33.4569695 14.1512248,33.3523818 13.9940642,33.3523818 C10.583679,32.4633861 7.48971053,30.2670438 5.49691404,27.077118 C4.02798623,24.6716002 3.3459092,22.0046132 3.3459092,19.3899199 C3.3459092,18.8669813 4.07932537,18.7623936 4.23753371,19.2330383 C4.60424179,20.3312095 5.07677135,21.4293806 5.70646151,22.4229641 C7.699258,25.6651837 10.7942742,27.8092321 14.2036116,28.6982278 C14.3607722,28.7505217 14.465546,28.8551094 14.5179329,28.9596971 C14.6750935,29.3257542 14.8322541,29.6918112 15.0418015,30.0578683 C16.0392475,31.6789781 17.7177228,32.6725615 19.5533587,32.7771492 C19.6581324,32.7771492 19.815293,32.8294431 19.8676799,32.9340308 C23.0674698,37.3790093 29.2040677,38.6340621 33.9251723,35.7056057 C35.7084213,34.6074345 37.0201885,33.0909124 37.8594261,31.3652149 C38.0689736,30.946864 38.697616,31.1037456 38.697616,31.5743904 C38.6452292,35.0257854 36.8619802,38.3725928 33.6632379,40.3597596 C28.9945202,43.2359222 22.8579224,41.9808694 19.6581324,37.5881848 L19.6581324,37.5881848 Z" id="Path" fill="#DCE7F2" fill-rule="nonzero"></path>
                        <path d="M7.96224008,2.49900168 C0.0937323844,7.36233108 -2.37159366,17.6642224 2.50667156,25.5083021 C4.91961074,29.3780481 8.64326938,31.9404474 12.7346838,32.9340308 C12.8918444,33.4569695 13.1537788,33.9799081 13.4681,34.5028468 C14.6750935,36.4900136 16.7737114,37.6404787 18.9760554,37.7450664 C22.7007618,43.0790406 29.9909184,44.6478565 35.6036476,41.1964614 C40.5342997,38.1634173 42.579483,32.2542106 40.9010077,27.0248241" id="Path" stroke="#183D54" stroke-width="2.61544007" stroke-linecap="round" stroke-linejoin="round"></path>
                    </g>
                    <g id="Group" transform="translate(78.558805, 211.828387)">
                        <ellipse id="Oval" fill="#FFFFFF" fill-rule="nonzero" cx="15.3153218" cy="15.2175146" rx="15.2634381" ry="15.2175146"></ellipse>
                        <path d="M0.104270555,14.5899882 C-1.04824056,6.27526375 7.5536833,-0.313763187 15.9984466,0.0522938645 C24.390823,0.418350916 30.9465157,7.47802263 30.5787599,15.8973348 C30.2120518,24.2643531 23.1314426,30.8010862 14.6866794,30.4350292 C14.6866794,30.4350292 2.36004913,31.271731 0.105318292,14.5899882 L0.104270555,14.5899882 Z" id="Path" stroke="#183D54" stroke-width="2.61544007" stroke-linecap="round" stroke-linejoin="round"></path>
                        <path d="M7.50129644,28.2909807 C6.50385045,27.7157482 5.61222594,26.9836341 4.77298831,26.1992261" id="Path" stroke="#183D54" stroke-width="2.66879505" stroke-linecap="round" stroke-linejoin="round"></path>
                    </g>
                    <path d="M260.250632,193.002596 L263.082666,201.578789 L277.140158,298.583908 C281.964989,304.02247 286.004016,311.552787 286.004016,318.821634 L286.004016,360.656725 L262.663571,347.217202 C262.873118,345.648386 262.977892,343.922689 262.977892,342.144697 C262.977892,322.482204 249.026221,298.47932 231.822373,288.59578 C214.618526,278.71224 200.665807,286.608613 200.665807,306.3234 C200.665807,308.101392 200.770581,309.879383 200.980128,311.709668 L172.709031,295.446276 L148.161592,280.856288 C148.266365,279.653529 148.318752,278.45077 148.318752,277.143424 C148.318752,257.7424 134.576629,234.105573 117.634715,224.378914 C100.692802,214.599962 86.9506786,222.444041 86.9506786,241.845065 C86.9506786,243.100118 87.0030654,244.407465 87.160226,245.767105 L74.6250961,239.125784 L74.6250961,100.180986" id="Path" stroke="#183D54" stroke-width="2.61544007" fill="#FFFFFF" fill-rule="nonzero" stroke-linecap="round" stroke-linejoin="round"></path>
                    <path d="M367.410067,249.636851 L357.338168,166.594194 C356.289383,158.122588 350.992023,150.749153 343.228289,147.036289 L178.793242,57.3000172 C176.223142,56.0972583 173.233947,56.0972583 170.715186,57.3523111 L74.6785307,100.180986 L248.607126,197.39528 C258.048288,202.729254 264.343094,212.14215 265.653813,222.862392 L277.141206,298.636202 L367.410067,249.636851 L367.410067,249.636851 Z" id="Path" stroke="#183D54" stroke-width="2.61544007" fill="#FFFFFF" fill-rule="nonzero" stroke-linecap="round" stroke-linejoin="round"></path>
                    <path d="M358.807096,228.405542 L353.037206,176.216265 C352.565724,172.503401 348.47431,170.46394 345.273472,172.346519 L274.831993,210.102689 C273.048744,211.148567 271.999959,213.135734 272.261893,215.227488 L281.335299,267.050708 C281.807828,270.763572 285.899243,272.803033 289.099033,270.920454 L356.236996,233.530341 C358.072632,232.484463 359.06903,230.497297 358.807096,228.405542 L358.807096,228.405542 Z M230.038077,244.407465 L258.886478,261.036913 C260.61734,262.030497 262.715958,260.670856 262.50641,258.68369 L260.145858,230.706472 C258.938864,219.72476 252.591671,209.998102 242.994397,204.454952 L203.655002,181.759415 C200.61342,179.981423 196.78394,182.177766 196.78394,185.681455 L196.78394,225.163322 L218.183976,237.504674 M141.658286,193.943885 L173.18156,212.14215 C175.069583,213.240321 177.377748,211.723799 177.114766,209.579751 L177.691022,177.000673 C177.691022,174.124511 178.793242,168.738243 171.450698,164.397852 L112.75645,132.132537 C109.452934,130.197664 105.256746,134.485761 105.256746,138.303213 L105.256746,172.974046 L128.649578,186.465863" id="Shape" stroke="#183D54" stroke-width="2.61544007" fill="#DCE7F2" fill-rule="nonzero" stroke-linecap="round" stroke-linejoin="round"></path>
                    <line x1="195.577994" y1="235.151451" x2="210.631885" y2="243.257" id="Path" stroke="#183D54" stroke-width="2.61544007" fill="#FFFFFF" fill-rule="nonzero" stroke-linecap="round" stroke-linejoin="round"></line>
                    <path d="M307.981356,159.848286 L161.851328,81.7735458 C156.711129,78.9496771 147.008033,69.4844876 147.008033,69.4844876 L121.516582,80.8322562 L138.353722,88.6240421 C138.353722,88.6240421 133.42307,103.423206 145.224784,111.9994 L266.702598,178.883252 C279.185342,185.315398 316.792827,183.432818 308.24329,160.528106 L307.981356,159.848286 L307.981356,159.848286 Z" id="Path" fill="#DCE7F2" fill-rule="nonzero"></path>
                    <g id="Group" stroke-linecap="round" stroke-linejoin="round" transform="translate(312.649026, 183.364099)" fill-rule="nonzero" stroke="#183D54" stroke-width="2.61544007">
                        <g transform="translate(39.285961, 0.000000)" id="Path">
                            <path d="M67.9248141,166.624678 L21.4000359,140.163982 C19.3024657,138.961223 17.6239904,136.085061 17.6239904,133.679543 L17.6239904,8.95867598 C17.6239904,5.87333797 15.4729856,2.16047359 12.7981121,0.643951516 L12.7981121,0.643951516 C11.6445532,0.0164251411 10.648155,-0.140456453 9.80891732,0.12101287 L9.80891732,0.12101287 L9.75653045,0.173306735 C9.54698298,0.225600599 9.33638777,0.382482193 9.12684029,0.487069922 L1.78324902,4.46140363 C0.682077032,4.87975454 0,5.9779257 0,7.75591709 L0,134.98689 C0,139.58875 3.25217682,145.184193 7.29120441,147.485123 L65.09278,180.482552 L73.0650137,176.194455 L67.9248141,166.624678 L67.9248141,166.624678 Z" fill="#FFFFFF"></path>
                            <path d="M60.0039196,170.912774 L13.4801891,144.452079 C11.3815711,143.24932 9.70309585,140.373158 9.70309585,137.96764 L9.70309585,13.2467729 C9.70309585,10.1614349 7.55313875,6.44857048 4.87826523,4.93204841 L4.87826523,4.93204841 C2.2033917,3.41552634 0.0523868688,4.61828522 0.0523868688,7.70362323 L0.0523868688,134.934596 C0.0523868688,139.536456 3.30456369,145.131899 7.34359127,147.432829 L65.1451669,180.430258 L60.0049673,170.912774 L60.0039196,170.912774 Z" fill="#DCE7F2"></path>
                            <line x1="60.0049673" y1="170.912774" x2="67.9248141" y2="166.624678" fill="#FFFFFF"></line>
                        </g>
                        <path d="M39.9680377,124.632704 L23.4976062,115.167515 C22.7118031,114.749164 23.0261243,113.650993 24.1272963,112.761997 L24.8093733,112.186765 C25.9115931,111.297769 27.43186,110.931712 28.2187108,111.350063 L44.6891423,120.815252 L39.9680377,124.632704 L39.9680377,124.632704 Z M14.4765873,111.0363 L10.7529287,90.1710476 L39.2859607,74.6920637 L48.9901043,81.8563232 L48.9901043,91.582982 L14.4765873,111.0363 Z" id="Shape" fill="#DCE7F2"></path>
                        <line x1="16.3646101" y1="100.106882" x2="48.9901043" y2="81.8563232" id="Path" fill="#FFFFFF"></line>
                        <polygon id="Path" fill="#DCE7F2" points="14.4242005 143.981434 14.4242005 135.300653 14.5289742 127.82263 39.5489428 116.161098 46.5771651 117.573033 46.5771651 127.247398"></polygon>
                        <line x1="15.6825331" y1="132.215315" x2="46.0522487" y2="117.67762" id="Path" fill="#FFFFFF"></line>
                        <g transform="translate(0.000000, 25.153349)" fill="#FFFFFF">
                            <path d="M67.9248141,166.624678 L21.4000359,140.216276 C19.3024657,139.013517 17.6239904,136.137355 17.6239904,133.731837 L17.6239904,8.95867598 C17.6239904,5.87333797 15.4729856,2.16047359 12.7981121,0.643951516 L12.7981121,0.643951516 C11.6445532,0.0164251411 10.648155,-0.140456453 9.80891732,0.12101287 L9.80891732,0.12101287 L9.75653045,0.173306735 C9.54698298,0.225600599 9.33638777,0.382482193 9.12684029,0.487069922 L1.78324902,4.46140363 C0.682077032,4.87975454 0,5.9779257 0,7.75591709 L0,134.98689 C0,139.58875 3.25217682,145.184193 7.29120441,147.485123 L65.09278,180.482552 L73.0650137,176.194455 L67.9248141,166.624678 Z" id="Path"></path>
                            <path d="M9.70309585,112.657409 L9.65070898,13.194479 C9.65070898,10.109141 7.50075188,6.39627662 4.82587836,4.87975454 L4.82587836,4.87975454 C2.15100483,3.36323247 0,4.56599136 0,7.65132936 L0,134.882302 C0,139.484162 3.25217682,145.079605 7.29120441,147.380535 L65.09278,180.377964 L60.0049673,170.912774 L13.4801891,144.452079 C11.3815711,143.24932 9.70309585,140.373158 9.70309585,137.96764 L9.70309585,111.193181 M9.70309585,95.1389647 L9.70309585,93.5701488 M59.9525804,170.912774 L67.9248141,166.624678" id="Shape"></path>
                        </g>
                    </g>
                    <path d="M143.809291,232.379876 L85.5865245,197.342986 C82.7544904,195.721877 83.1222462,192.845714 86.374423,190.963135 L101.374879,182.334647 L169.928336,223.280743 L154.92788,231.909231 C151.675703,233.79181 146.692664,234.000985 143.808243,232.379876 L143.809291,232.379876 Z M96.6024353,192.322775 L149.105603,223.90827" id="Shape" stroke="#183D54" stroke-width="2.61544007" fill="#FFFFFF" fill-rule="nonzero" stroke-linecap="round" stroke-linejoin="round"></path>
                    <ellipse id="Oval" stroke="#183D54" stroke-width="2.61544007" fill="#FFFFFF" fill-rule="nonzero" stroke-linecap="round" stroke-linejoin="round" transform="translate(300.660815, 333.869716) rotate(-85.747000) translate(-300.660815, -333.869716) " cx="300.660815" cy="333.869716" rx="10.563464" ry="6.24131077"></ellipse>
                    <path d="M97.4416729,138.721564 L114.802681,148.918868 L137.776419,135.793108 L119.523786,125.229747 L97.4416729,138.721564 Z M130.537601,157.756531 L147.899657,167.953835 L170.978168,155.089544 L152.935083,144.473889 L130.537601,157.756531 Z" id="Shape" fill="#DCE7F2" fill-rule="nonzero"></path>
                    <path d="M148.056818,168.110716 L165.417826,178.255726 L188.497385,165.391435 L170.400865,154.775781 L148.056818,168.110716 Z M114.01583,148.029872 L131.376839,158.174882 L154.456398,145.310591 L136.359878,134.694937 L114.01583,148.029872 Z" id="Shape" fill="#FFFFFF" fill-rule="nonzero"></path>
                    <polyline id="Path" stroke="#183D54" stroke-width="2.61544007" stroke-linecap="round" stroke-linejoin="round" points="81.0236282 129.831607 103.787818 116.33979 189.54617 164.188676 163.897559 178.674077"></polyline>
                    <g id="Group" transform="translate(81.023628, 129.831607)" fill="#FFFFFF" fill-rule="nonzero">
                        <polygon id="Path" points="2.780695 12.0798827 81.1954558 59.0397731 81.4573901 64.7920982 73.8518645 63.3801638 51.3506566 50.3066977 7.71029936 24.0028838"></polygon>
                        <polyline id="Path" stroke="#183D54" stroke-width="2.61544007" stroke-linecap="round" stroke-linejoin="round" points="0 12.9165845 0 0 82.9263179 48.1103554 82.9263179 61.8113479"></polyline>
                        <path d="M11.7493269,26.5652832 C10.5433812,27.6634543 9.07445342,28.3432746 7.55313875,28.3432746 C3.40933742,28.3432746 0,23.7414145 0,18.0413833 L0,7.73949195 M23.6558145,33.4157794 C22.4498688,34.5139506 20.980941,35.1937708 19.4596263,35.1937708 C15.315825,35.1937708 11.9064876,30.5919108 11.9064876,24.8918795" id="Shape" stroke="#183D54" stroke-width="2.61544007" stroke-linecap="round" stroke-linejoin="round"></path>
                        <path d="M35.0373856,39.6910432 C33.8324876,40.7892143 32.3625121,41.4690346 30.8422452,41.4690346 C26.6984438,41.4690346 23.2880587,36.8671745 23.2880587,31.1671433 M46.8914863,45.9663069 C45.6855406,47.0644781 44.2166128,47.7442983 42.6952981,47.7442983 C38.5525445,47.7442983 35.1432071,43.1424382 35.1432071,37.442407" id="Shape" stroke="#183D54" stroke-width="2.61544007" stroke-linecap="round" stroke-linejoin="round"></path>
                        <path d="M58.641861,53.5489173 C57.4348675,54.6470884 55.9659397,55.3269087 54.4446251,55.3269087 C50.3008237,55.3269087 46.8914863,50.7250486 46.8914863,45.0250174 M70.4425271,60.4517074 C69.2365813,61.5498786 67.7676535,62.2296988 66.2463389,62.2296988 C62.1025375,62.2296988 58.6932001,57.6278387 58.6932001,51.9278075" id="Shape" stroke="#183D54" stroke-width="2.61544007" stroke-linecap="round" stroke-linejoin="round"></path>
                        <path d="M82.9263179,59.5104179 C83.2406391,64.844392 81.509777,66.5700896 81.509777,66.5700896 C80.3038313,67.6682607 78.8872903,68.2957871 77.3659756,68.2957871 C73.2221743,68.2957871 69.8128369,63.693927 69.8128369,57.9938958" id="Path" stroke="#183D54" stroke-width="2.61544007" stroke-linecap="round" stroke-linejoin="round"></path>
                    </g>
                    <path d="M269.74418,198.545745 L340.239094,161.103338 M97.1786908,138.303213 L119.78572,125.700392 M113.806283,148.866574 L137.566871,135.583932" id="Shape" stroke="#183D54" stroke-width="2.61544007" fill="#DCE7F2" fill-rule="nonzero" stroke-linecap="round" stroke-linejoin="round"></path>
                    <path d="M130.748196,157.495062 L153.354178,144.89224 M148.529347,167.378602 L171.135329,154.775781" id="Shape" stroke="#183D54" stroke-width="2.83722939" fill="#DCE7F2" fill-rule="nonzero" stroke-linecap="round" stroke-linejoin="round"></path>
                    <g id="Group" transform="translate(123.456992, 0.000000)">
                        <path d="M45.0034635,75.2891066 L1.88907049,51.0247535 C0.838189902,50.4495209 0,50.0834639 0,48.3577664 L0,30.6301463 C0,28.9044488 0.944011377,28.3292162 1.99384423,27.8585715 L4.56394401,26.864988 C4.56394401,26.864988 5.29736018,26.6035187 5.76988973,26.8126942 C6.24137155,27.0741635 46.4200045,48.8284111 46.4200045,48.8284111" id="Path" stroke="#183D54" stroke-width="2.61544007" fill="#F9D093" fill-rule="nonzero" stroke-linecap="round" stroke-linejoin="round"></path>
                        <path d="M146.444349,165.86208 C169.523908,176.948379 191.500199,160.109755 193.231061,130.929778 C196.011756,84.8065899 174.978428,71.6285361 152.634381,59.3917718 C152.634381,59.3917718 51.0352876,1.397876 49.0424911,0.404292576 C47.0496946,-0.58929085 44.111839,0.561174169 44.111839,0.561174169 L33.3599581,4.7969772 C29.0055615,6.73185019 25.0199686,9.13736795 25.0199686,16.3539213 L25.0199686,89.8268009 C25.0199686,97.2002358 28.5351275,98.5075825 32.8360894,101.017688 L146.445396,165.86208 L146.444349,165.86208 Z" id="Path" stroke="#183D54" stroke-width="2.61544007" fill="#DCE7F2" fill-rule="nonzero" stroke-linecap="round" stroke-linejoin="round"></path>
                        <path d="M32.7826548,101.017688 L119.380244,41.8210333 L47.1020815,0.351998711 L46.1046355,1.13640668 L23.9701357,9.60801274 L25.0199686,93.8534285 C25.0199686,93.9057224 25.3866766,100.024105 32.7826548,101.017688 Z" id="Path" fill="#35D0BA" fill-rule="nonzero"></path>
                        <path d="M33.3075712,101.540627 L97.7161787,55.3651442 C98.8173507,54.5807362 99.8671836,53.7440344 100.863582,52.8550387 C101.649385,52.1752185 117.753108,41.0366253 117.753108,41.0366253 L167.424242,66.5037374 L182.267537,79.9432605 C182.267537,79.9432605 151.5835,95.6314199 146.811057,99.8672229 C135.639033,109.803057 96.4567984,137.727981 96.4567984,137.727981 L33.3075712,101.540627 Z" id="Path" fill="#FFCD3C" fill-rule="nonzero"></path>
                        <path d="M95.7768168,136.943573 L145.605111,165.705198 C145.605111,165.705198 169.996437,177.994257 185.625536,152.474851 C201.25673,126.955445 193.860751,93.0167267 177.075999,75.7597514 L95.7768168,136.943573 Z" id="Path" fill="#F3807B" fill-rule="nonzero"></path>
                        <line x1="32.5196727" y1="14.0529912" x2="123.470611" y2="66.0853864" id="Path" stroke="#183D54" stroke-width="2.61544007" stroke-linecap="round" stroke-linejoin="round"></line>
                        <line x1="0.682077032" y1="29.584269" x2="15.315825" y2="37.4806425" id="Path" stroke="#183D54" stroke-width="2.61544007" fill="#DCE7F2" fill-rule="nonzero" stroke-linecap="round" stroke-linejoin="round"></line>
                        <path d="M146.444349,165.86208 C169.523908,176.948379 191.500199,160.109755 193.231061,130.929778 C196.011756,84.8065899 174.978428,71.6285361 152.634381,59.3917718 C152.634381,59.3917718 51.0352876,1.397876 49.0424911,0.404292576 C47.0496946,-0.58929085 44.111839,0.561174169 44.111839,0.561174169 L33.3599581,4.7969772 C29.0055615,6.73185019 25.0199686,9.13736795 25.0199686,16.3539213 L25.0199686,89.8268009 C25.0199686,97.2002358 28.5351275,98.5075825 32.8360894,101.017688 L146.445396,165.86208 L146.444349,165.86208 Z" id="Path" stroke="#183D54" stroke-width="2.61544007" stroke-linecap="round" stroke-linejoin="round"></path>
                    </g>
                    <path d="M255.110432,274.162673 L255.110432,274.162673 C249.813072,275.47002 245.564497,271.80945 245.616884,266.057124 L245.774044,248.590974 C245.826431,242.786355 250.17978,236.981736 255.47714,235.674389 L255.47714,235.674389 C260.775548,234.367043 265.024123,238.027613 264.970689,243.779938 L264.813528,261.246089 C264.761141,267.050708 260.407792,272.855327 255.110432,274.162673 Z" id="Path" stroke="#183D54" stroke-width="2.61544007" fill="#DCE7F2" fill-rule="nonzero" stroke-linecap="round" stroke-linejoin="round"></path>
                    <path d="M257.575758,265.220423 L257.575758,265.220423 C255.162819,265.795655 253.222409,264.122251 253.274796,261.455264 L253.431957,253.506597 C253.484344,250.891904 255.47714,248.277211 257.890079,247.701978 L257.890079,247.701978 C260.303019,247.126745 262.243428,248.800149 262.191041,251.467136 L262.033881,259.415804 C262.033881,262.030497 259.988697,264.64519 257.575758,265.220423 Z" id="Path" stroke="#183D54" stroke-width="2.61544007" fill="#DCE7F2" fill-rule="nonzero" stroke-linecap="round" stroke-linejoin="round"></path>
                    <path d="M300.428217,144.787653 C300.428217,158.070294 290.882282,168.895124 279.132955,168.895124" id="Path" stroke="#183D54" stroke-width="2.61544007" stroke-linecap="round" stroke-linejoin="round"></path>
                    <path d="M95.4478287,138.303213 L95.4478287,145.676648 M114.01583,149.703276 L114.01583,155.298719 M130.537601,158.331763 L130.537601,163.874913" id="Shape" stroke="#183D54" stroke-width="2.61544007" fill="#FFFFFF" fill-rule="nonzero" stroke-linecap="round" stroke-linejoin="round"></path>
                    <line x1="147.584288" y1="168.895124" x2="147.584288" y2="174.438274" id="Path" stroke="#183D54" stroke-width="2.83722939" fill="#FFFFFF" fill-rule="nonzero" stroke-linecap="round" stroke-linejoin="round"></line>
                    <g id="Group" transform="translate(195.903600, 309.356444)" fill-rule="nonzero">
                        <path d="M15.3569277,22.6955372 C13.3641312,22.6955372 11.4761084,21.8065415 10.2167281,20.3423133 C9.06316924,20.1331378 8.01438413,19.4010237 7.38469396,18.4074403 C7.33230709,18.3028526 7.27992023,18.1982649 7.22753336,18.145971 C5.28712373,17.5184446 3.66103533,16.2633919 2.55881561,14.5376943 C1.35286988,12.6028214 0.932727196,10.2495975 1.45764362,8.00096128 C1.98151231,5.7523251 3.34566638,3.81745211 5.28712373,2.61469323 C6.65023006,1.72569753 8.27631847,1.30734661 9.90240688,1.30734661 C12.8916016,1.30734661 15.6722966,2.82386869 17.2459982,5.33397418 C18.1365749,6.79820239 18.6091045,8.47160606 18.5567176,10.1450097 C19.5531159,10.6679484 20.3923535,11.4523563 21.0220437,12.4459398 C21.966055,13.9624618 22.281424,15.7404532 21.8612813,17.5184446 C21.4421863,19.2441422 20.3923535,20.7606642 18.8720866,21.7019538 C17.8746406,22.3294802 16.616308,22.6955372 15.3569277,22.6955372 Z" id="Path" fill="#FFFFFF"></path>
                        <path d="M9.95479375,2.61469323 C12.4201198,2.61469323 14.7806721,3.81745211 16.1961653,6.06608829 C17.1401767,7.58261036 17.4555456,9.30830789 17.2459982,10.9817116 C18.3461224,11.4000625 19.2911815,12.1321766 19.9732585,13.1780539 C21.5469601,15.6881594 20.8114484,19.0349667 18.2423964,20.6037826 C17.3507719,21.1790151 16.3543736,21.4404845 15.3569277,21.4404845 C13.6260655,21.4404845 11.9999771,20.6560765 10.951192,19.1395544 C10.0082284,19.0872606 9.06316924,18.6166158 8.53825282,17.7276201 C8.38109221,17.5184446 8.27631847,17.2569753 8.2239316,17.0477998 C6.44068259,16.6294489 4.76220731,15.5312778 3.71342219,13.8055802 C1.56241736,10.3541852 2.61120247,5.85691283 6.0205399,3.71286438 C7.28096796,2.98075028 8.59063968,2.61469323 9.95479375,2.61469323 M9.95479375,0 C8.066771,0 6.23113511,0.522938645 4.65743357,1.51652207 C2.401655,2.92845641 0.826905721,5.12479873 0.250650164,7.73949195 C-0.326653131,10.3018913 0.0934895573,12.9688784 1.50898275,15.2175146 C2.66254161,17.0477998 4.39340375,18.4597342 6.38724798,19.1918483 C7.12066414,20.3423133 8.27527073,21.1267213 9.58703793,21.4927783 C11.1073049,23.0615943 13.2059228,24.0028838 15.4082668,24.0028838 C16.9295815,24.0028838 18.3985093,23.5845329 19.6568419,22.8001249 C21.4935255,21.6496599 22.7518581,19.8716685 23.2243876,17.8322078 C23.6958694,15.7404532 23.3291614,13.5964048 22.2269416,11.7661195 C21.6506861,10.82483 20.8638353,10.040422 19.9722108,9.41289562 C19.8674371,7.73949195 19.3959553,6.11838215 18.4508961,4.65415394 C16.5639211,1.72569753 13.416518,0 9.95479375,0 L9.95479375,0 Z" id="Shape" fill="#183D54"></path>
                        <path d="M11.1607395,18.4597342 C11.1083526,18.4074403 11.0559657,18.4074403 11.0035789,18.3551465 C10.2177758,18.3028526 9.48226419,17.8845017 9.01078237,17.1523876 C8.90600863,16.995506 8.85362177,16.8386244 8.74884803,16.6817428 C8.74884803,16.6294489 8.69646116,16.5771551 8.59168742,16.5771551 C7.07037275,16.211098 5.75860555,15.2698084 4.86698105,13.8578741 C4.18595175,12.8119968 3.92296967,11.6615318 3.92296967,10.5110668 C3.92296967,10.3018913 4.23729088,10.2495975 4.28967775,10.4587729 C4.44683836,10.9294177 4.65638583,11.4000625 4.97175478,11.8707073 C5.86337929,13.2826416 7.22753336,14.2239312 8.69646116,14.5899882 C8.74884803,14.5899882 8.8012349,14.6422821 8.85362177,14.6945759 C8.90600863,14.8514575 9.01078237,15.0083391 9.11555611,15.1652207 C9.58703793,15.8973348 10.3215018,16.3156857 11.1083526,16.3679796 C11.1607395,16.3679796 11.2131263,16.4202735 11.2655132,16.4725673 C12.6820541,18.4074403 15.3569277,18.930379 17.4555456,17.6230324 C18.2413487,17.1523876 18.818652,16.4725673 19.1864078,15.6881594 C19.2911815,15.4789839 19.5531159,15.5835716 19.5531159,15.7927471 C19.5531159,17.3092692 18.7673128,18.7734974 17.4031588,19.6624931 C15.2521539,20.9175458 12.5772804,20.3946072 11.1607395,18.4597342 Z" id="Path" fill="#DCE7F2"></path>
                    </g>
                    <path d="M203.288294,67.7587901 L213.62108,60.4899429 M184.667905,80.936844 L196.155298,72.831295 M156.239647,101.017688 L184.667905,80.936844 M219.390969,137.100454 L269.74418,99.2396966 M278.08417,80.936844 L279.657871,81.9827213 C288.259795,87.7350464 294.186845,96.6250033 296.18069,106.770013 L296.18069,106.770013" id="Shape" stroke="#183D54" stroke-width="2.61544007" stroke-linecap="round" stroke-linejoin="round"></path>
                    <g id="Group" stroke-linecap="round" stroke-linejoin="round" transform="translate(322.334680, 304.650821)" fill-rule="nonzero" stroke="#183D54" stroke-width="2.61544007">
                        <path d="M0.0184890623,27.6103356 C-0.138671544,25.6754626 0.91011357,23.8451773 3.27066588,22.4855369 L39.0949023,1.88175424 C43.9207806,-0.889820584 52.4179308,-0.576057396 58.0317076,2.66616221 L90.8133147,21.5442473 C93.855944,23.3222387 95.4296456,25.5708749 95.4296456,27.6626295 L95.4296456,27.6626295 L95.4296456,43.3507888 L95.4296456,43.3507888 C95.5344193,45.1810741 94.4321996,46.9590655 92.1774687,48.2664121 L56.3521846,68.9224886 C51.5252585,71.6940634 43.0281084,71.3803002 37.416427,68.1380806 L4.63481994,49.2599955 C1.38264313,47.3774164 -0.191058413,44.9718986 0.0184890623,42.7232624 L0.0184890623,27.6103356 Z" id="Path" fill="#35D0BA"></path>
                        <path d="M27.6085574,46.5930084 L37.416427,52.2407458 C43.0291561,55.4829654 51.4739194,55.7967286 56.3521846,53.0251538 L92.176421,32.4213711 C97.0012516,29.6497963 96.4249961,24.734173 90.8122669,21.5442473 L58.0317076,2.66616221 C52.4179308,-0.576057396 43.9731675,-0.889820584 39.0949023,1.88175424 L3.27066588,22.4855369 C-1.553117,25.2571117 -0.976861446,30.172735 4.63481994,33.3626607 L20.9470432,42.7755563" id="Path" fill="#FFFFFF"></path>
                    </g>
                    <g id="Group" stroke-linecap="round" stroke-linejoin="round" transform="translate(322.334680, 289.171837)" fill-rule="nonzero" stroke="#183D54" stroke-width="2.61544007">
                        <path d="M0.0184890623,27.6103356 C-0.138671544,25.6754626 0.91011357,23.8451773 3.27066588,22.4855369 L39.0949023,1.88175424 C43.9207806,-0.889820584 52.4179308,-0.576057396 58.0317076,2.66616221 L90.8133147,21.5442473 C93.855944,23.3222387 95.4296456,25.5708749 95.4296456,27.6626295 L95.4296456,27.6626295 L95.4296456,43.3507888 L95.4296456,43.3507888 C95.5344193,45.1810741 94.4321996,46.9590655 92.1774687,48.2664121 L56.3521846,68.8701947 C51.5263062,71.6417695 43.0291561,71.3280064 37.416427,68.0857867 L4.63481994,49.2077016 C1.38264313,47.3251225 -0.191058413,44.9196048 0.0184890623,42.6709686 L0.0184890623,27.6103356 Z" id="Path" fill="#FFCD3C"></path>
                        <path d="M27.6085574,46.5930084 L37.416427,52.2407458 C43.0291561,55.4829654 51.4739194,55.7967286 56.3521846,53.0251538 L92.176421,32.4213711 C97.0012516,29.6497963 96.4249961,24.734173 90.8122669,21.5442473 L58.0317076,2.66616221 C52.4179308,-0.576057396 43.9731675,-0.889820584 39.0949023,1.88175424 L3.27066588,22.4855369 C-1.553117,25.2571117 -0.976861446,30.172735 4.63481994,33.3626607 L20.9470432,42.7755563" id="Path" fill="#FFFFFF"></path>
                    </g>
                    <g id="Group" stroke-linecap="round" stroke-linejoin="round" transform="translate(322.334680, 273.169915)" fill-rule="nonzero" stroke="#183D54" stroke-width="2.61544007">
                        <path d="M0.0184890623,27.6626295 C-0.138671544,25.7277565 0.91011357,23.8974712 3.27066588,22.5378307 L39.0949023,1.9340481 C43.9207806,-0.837526719 52.4179308,-0.523763532 58.0306599,2.71845607 L90.8122669,21.5965412 C93.8548963,23.3745326 95.4285978,25.6231687 95.4285978,27.7149233 L95.4285978,27.7149233 L95.4285978,43.4030827 L95.4285978,43.4030827 C95.5333716,45.2333679 94.4311518,47.0113593 92.176421,48.318706 L56.3521846,68.9224886 C51.5252585,71.6940634 43.0281084,71.3803002 37.416427,68.1380806 L4.63481994,49.2599955 C1.38264313,47.3774164 -0.191058413,44.9718986 0.0184890623,42.7232624 L0.0184890623,27.6626295 Z" id="Path" fill="#F3807B"></path>
                        <path d="M27.6085574,46.5930084 L37.416427,52.2407458 C43.0291561,55.4829654 51.4739194,55.7967286 56.3521846,53.0251538 L92.176421,32.4213711 C97.0012516,29.6497963 96.4249961,24.734173 90.8122669,21.5442473 L58.0317076,2.66616221 C52.4179308,-0.576057396 43.9731675,-0.889820584 39.0949023,1.88175424 L3.27066588,22.4855369 C-1.553117,25.2571117 -0.976861446,30.172735 4.63481994,33.3626607 L20.9470432,42.7755563" id="Path" fill="#EFA0A0"></path>
                    </g>
                </g>
            </g>
        </g>
    </g>
</svg>