<?xml version="1.0" encoding="utf-8"?>
<!-- Generator: Adobe Illustrator 25.2.1, SVG Export Plug-In . SVG Version: 6.00 Build 0)  -->
<svg version="1.1" id="Layer_1" xmlns="http://www.w3.org/2000/svg" xmlns:xlink="http://www.w3.org/1999/xlink" x="0px" y="0px"
	 viewBox="0 0 40.5 27.3" style="enable-background:new 0 0 40.5 27.3;" xml:space="preserve">
<style type="text/css">
	.st0{fill:#D3E7F7;}
	.st1{fill:#0155A1;}
	.st2{fill:#FBA702;}
	.st3{fill:#FCFEFF;}
	.st4{fill:#036ED4;}
	.st5{fill:#006CD3;}
	.st6{fill:#050306;}
	.st7{fill:#03B1AE;}
	.st8{fill:#00AD39;}
	.st9{fill:#FF495C;}
	.st10{fill:#017EAE;}
	.st11{fill:#CA4929;}
	.st12{fill:#F59001;}
	.st13{fill:#CDD0D2;}
	.st14{fill:#0863FF;}
	.st15{fill:#F14D02;}
	.st16{fill:#FED853;}
	.st17{fill:#2C323B;}
	.st18{fill:#EE5B65;}
	.st19{fill:#32B3E8;}
	.st20{fill:#2A8AC6;}
	.st21{fill:#D6445D;}
	.st22{fill:#960A2C;}
	.st23{fill:#010101;}
	.st24{fill:#D72B11;}
	.st25{fill:#E41231;}
	.st26{fill:#F01523;}
	.st27{fill:#93DD01;}
	.st28{fill:#249633;}
	.st29{fill:#242424;}
	.st30{fill:#C80126;}
	.st31{fill:#020202;}
	.st32{fill:#959798;}
	.st33{fill:#EE1818;}
	.st34{fill:#242021;}
	.st35{fill:#002A3B;}
	.st36{fill:#205053;}
	.st37{fill:#235153;}
	.st38{fill:#15AA9E;}
	.st39{fill:#09AC9D;}
	.st40{fill:#05716B;}
	.st41{fill:#F49200;}
	.st42{fill:#E25100;}
	.st43{fill:#0223FE;}
	.st44{fill:#04CBFE;}
	.st45{fill:#F47264;}
	.st46{fill:#F24731;}
	.st47{fill:#F8A197;}
	.st48{fill:#233240;}
	.st49{fill:#FE6D52;}
	.st50{fill:#124FFF;}
	.st51{fill:#F56D58;}
	.st52{fill:#75C4E2;}
	.st53{fill:#E0044D;}
	.st54{fill:#3B267C;}
	.st55{fill:#DD1937;}
	.st56{fill:#01B3FE;}
	.st57{fill:#454545;}
	.st58{fill:#AB56B3;}
	.st59{fill:#031A28;}
	.st60{fill:#53CD8E;}
	.st61{fill:#1B0E65;}
	.st62{fill:#060250;}
	.st63{fill:#02AA47;}
	.st64{fill:#060605;}
	.st65{fill:#221E5D;}
	.st66{fill:#F2574D;}
	.st67{fill:#FE6F05;}
	.st68{fill:#D2D1D0;}
</style>
<g>
	<path d="M24.2,0c0.2,0.3,0.3,0.6,0.5,0.9c3.3,5.6,6.5,11.3,9.8,16.9c0,0.1,0.1,0.1,0.1,0.2c-2.7,0-5.3,0-8,0
		c-2.8-4.8-5.5-9.6-8.3-14.5c0.1,0,0.1-0.1,0.1-0.1c1.9-1.1,3.8-2.2,5.6-3.2C24,0.1,24.1,0,24.2,0C24.2,0,24.2,0,24.2,0z"/>
	<path d="M11.2,27.3c-0.1,0-0.3-0.1-0.4-0.1c-1.4-0.3-2.5-1.5-2.8-3c-0.3-1.8,0.9-3.6,2.7-4c1-0.2,1.9-0.1,2.8,0.4
		c0,0,0.1,0,0.1,0.1c0-1,0-1.9,0-2.9c0.6,0,1.1,0,1.7,0c0,0.1,0,9,0,9.2c-0.6,0-1.1,0-1.7,0c0-0.1,0-0.3,0-0.4c0,0-0.1,0-0.1,0
		c-0.5,0.3-1,0.5-1.5,0.5c0,0,0,0-0.1,0C11.6,27.3,11.4,27.3,11.2,27.3z M9.5,23.8c0,1.1,0.9,2,2,2c1.1,0,2-0.9,2-2c0-1.1-0.9-2-2-2
		C10.5,21.8,9.5,22.7,9.5,23.8z"/>
	<path d="M21.7,27.3c-0.1,0-0.3-0.1-0.4-0.1c-1.5-0.3-2.6-1.5-2.8-3c-0.3-1.9,1-3.7,2.9-4c0.9-0.2,1.8,0,2.6,0.5c0,0,0.1,0,0.1,0.1
		c0-1,0-1.9,0-2.8c0.1,0,1.4-0.1,1.7,0c0,3.1,0,6.1,0,9.2c-0.5,0-1.1,0-1.7,0c0-0.1,0-0.3,0-0.4c-0.1,0-0.1,0-0.1,0.1
		c-0.5,0.3-1,0.5-1.5,0.5c0,0-0.1,0-0.1,0C22.2,27.3,21.9,27.3,21.7,27.3z M24.1,23.8c0-1.1-0.9-2-2-2c-1,0-2,0.9-2,2
		c0,1.1,0.9,2,2,2C23.2,25.7,24.1,24.8,24.1,23.8z"/>
	<path d="M29.6,27.3c-0.2,0-0.3-0.1-0.5-0.1c-1.5-0.3-2.6-1.6-2.8-3.1c-0.2-1.8,1-3.5,2.7-3.9c1-0.2,1.9-0.1,2.8,0.5c0,0,0,0,0.1,0
		c0-0.2,0-0.4,0-0.5c0.6,0,1.1,0,1.7,0c0,2.3,0,4.6,0,6.9c-0.1,0-1.4,0-1.7,0c0-0.1,0-0.3,0-0.4c-0.1,0-0.1,0.1-0.1,0.1
		c-0.4,0.3-0.9,0.4-1.5,0.5c0,0-0.1,0-0.1,0C30,27.3,29.8,27.3,29.6,27.3z M28,23.8c0,1.1,0.9,2,2,2c1.1,0,2-0.9,2-1.9
		c0-1.1-0.9-2-2-2C28.9,21.8,28,22.7,28,23.8z"/>
	<path d="M3.3,27.3c-0.2,0-0.3-0.1-0.5-0.1c-1.4-0.3-2.6-1.6-2.7-3c-0.3-1.9,1.1-3.6,2.9-4c0.9-0.2,1.8,0,2.6,0.5c0,0,0.1,0,0.1,0.1
		c0-0.1,0-0.2,0-0.3c0-0.1,0-0.2,0-0.2c0.1,0,1.4-0.1,1.7,0c0,2.3,0,4.6,0,6.9c-0.5,0-1.1,0-1.7,0c0-0.2,0-0.3,0-0.4
		c0,0-0.1,0-0.1,0c-0.5,0.3-1,0.5-1.5,0.5c0,0,0,0-0.1,0C3.7,27.3,3.5,27.3,3.3,27.3z M5.6,23.8c0-0.1,0-0.2,0-0.3
		c-0.2-1.3-1.7-2.1-3-1.4c-0.8,0.4-1.1,1.3-1,2.1c0.2,1,1.2,1.7,2.3,1.5C4.9,25.5,5.6,24.7,5.6,23.8z"/>
	<path d="M37,27.3c-0.2,0-0.4-0.1-0.6-0.1c-0.5-0.1-1-0.3-1.4-0.6c-0.5-0.4-0.7-0.9-0.8-1.6c0,0,0,0,0-0.1c0.6,0,1.2,0,1.8,0
		c0,0,0,0.1,0,0.1c0,0.3,0.2,0.6,0.5,0.7c0.5,0.3,1,0.3,1.5,0.1c0.2-0.1,0.4-0.2,0.5-0.4c0.2-0.3,0.1-0.6-0.2-0.7
		c-0.1-0.1-0.3-0.1-0.5-0.2c-0.4-0.1-0.9-0.1-1.3-0.2c-0.3-0.1-0.6-0.1-0.9-0.2c-1.4-0.4-1.7-2.2-0.7-3.2c0.3-0.3,0.7-0.5,1.1-0.6
		c0.8-0.2,1.6-0.2,2.5,0c0.6,0.2,1.1,0.6,1.4,1.2c0.1,0.3,0.2,0.5,0.2,0.8c-0.6,0-1.1,0-1.7,0c0-0.1,0-0.2,0-0.2
		c-0.1-0.3-0.2-0.5-0.5-0.6c-0.1,0-0.1,0-0.2-0.1c-0.4-0.1-0.7-0.1-1.1,0c-0.1,0-0.2,0.1-0.3,0.1c-0.3,0.2-0.3,0.6,0,0.8
		c0.2,0.1,0.4,0.2,0.6,0.2c0.4,0.1,0.8,0.1,1.2,0.2c0.4,0.1,0.7,0.2,1.1,0.3c0.3,0.1,0.6,0.3,0.8,0.6c0.2,0.2,0.3,0.5,0.3,0.8
		c0,0,0,0.1,0,0.1c0,0.1,0,0.3,0,0.4c0,0.1,0,0.2,0,0.3c-0.1,0.6-0.5,1.1-1.1,1.4c-0.3,0.2-0.7,0.3-1.1,0.3c-0.1,0-0.3,0-0.4,0.1
		C37.6,27.3,37.3,27.3,37,27.3z"/>
	<path d="M24.1,17.9c-2.1,0-4.2,0-6.3,0c0,0.6,0,1.1,0,1.7c-0.6,0-1.1,0-1.7,0c0-0.1,0-0.1,0-0.2c0-0.4,0-0.9,0-1.3
		c0-0.1,0-0.3-0.1-0.4c-1.5-2.6-3-5.2-4.5-7.8c0,0-0.1-0.1-0.1-0.2c2-1.2,4-2.3,6-3.5C19.6,10.2,21.8,14,24.1,17.9z"/>
	<path d="M5.5,17.9c-0.4-0.7-0.8-1.3-1.2-2c2-1.2,4-2.3,6-3.4c0.1,0.1,3.1,5.3,3.2,5.5C10.8,17.9,8.2,17.9,5.5,17.9z"/>
	<path d="M17.8,27.2c-0.6,0-1.1,0-1.7,0c0-2.3,0-4.6,0-6.9c0.6,0,1.1,0,1.7,0C17.8,22.6,17.8,24.9,17.8,27.2z"/>
</g>
</svg>
