<svg width="24" height="24" xmlns="http://www.w3.org/2000/svg">
    <g fill="#36B37E" fill-rule="evenodd">
        <circle opacity=".15" cx="12" cy="12" r="12"/>
        <path d="m10.398 15.824-3.261-3.242A.476.476 0 0 1 7 12.23c0-.143.046-.26.137-.351l.722-.703a.435.435 0 0 1 .342-.156c.137 0 .257.052.361.156l2.188 2.187 4.687-4.687a.496.496 0 0 1 .362-.156c.137 0 .25.052.342.156l.722.703A.476.476 0 0 1 17 9.73c0 .144-.046.26-.137.352l-5.761 5.742a.446.446 0 0 1-.352.156.446.446 0 0 1-.352-.156z" fill-rule="nonzero"/>
    </g>
</svg>
