<svg width="32" height="32" viewBox="0 0 32 32" xmlns="http://www.w3.org/2000/svg">
    <g fill="none" fill-rule="evenodd">
        <g>
            <rect width="32" height="32" rx="16"/>
            <rect stroke="#B3BAC5" stroke-width="2" x="1" y="1" width="30" height="30" rx="15"/>
        </g>
        <path d="m16.353 22.603.694-.694a.745.745 0 0 0-.013-1.072L13.27 17.25h8.981c.416 0 .75-.334.75-.75v-1a.748.748 0 0 0-.75-.75h-8.981l3.765-3.587a.75.75 0 0 0 .013-1.072l-.694-.694a.747.747 0 0 0-1.06 0L9.22 15.472a.747.747 0 0 0 0 1.06l6.075 6.071a.747.747 0 0 0 1.06 0z" fill="#959EAD" fill-rule="nonzero"/>
    </g>
</svg>
