<svg width="32" height="32" viewBox="0 0 32 32" xmlns="http://www.w3.org/2000/svg">
    <g fill="none" fill-rule="evenodd">
        <g>
            <rect width="32" height="32" rx="16"/>
            <rect stroke="#183B56" stroke-width="2" x="1" y="1" width="30" height="30" rx="15"/>
        </g>
        <path d="m16.706 22.603 6.075-6.075a.747.747 0 0 0 0-1.06l-6.075-6.071a.747.747 0 0 0-1.06 0l-.693.694a.745.745 0 0 0 .013 1.072l3.765 3.587H9.75a.748.748 0 0 0-.75.75v1c0 .416.334.75.75.75h8.981l-3.765 3.587a.75.75 0 0 0-.013 1.072l.694.694a.747.747 0 0 0 1.06 0z" fill="#183B56" fill-rule="nonzero"/>
    </g>
</svg>
