<svg viewbox="0 0 25 24" width="25px" height="24px" xmlns="http://www.w3.org/2000/svg">
    <g fill="none" fill-rule="evenodd">
        <path d="M0 .067h24v24H0z"/>
        <path d="M21.91 18.563c.602 0 1.09.493 1.09 1.1 0 .608-.488 1.1-1.09 1.1H2.09c-.602 0-1.09-.492-1.09-1.1 0-.607.488-1.1 1.09-1.1zm0-7.748c.602 0 1.09.493 1.09 1.1 0 .608-.488 1.1-1.09 1.1H2.09c-.602 0-1.09-.492-1.09-1.1 0-.607.488-1.1 1.09-1.1zm0-7.748c.602 0 1.09.492 1.09 1.1 0 .607-.488 1.1-1.09 1.1H2.09c-.602 0-1.09-.493-1.09-1.1 0-.608.488-1.1 1.09-1.1z" fill="#FFF" fill-rule="nonzero"/>
    </g>
</svg>
