<svg width="173" height="137" viewBox="0 0 173 137" xmlns="http://www.w3.org/2000/svg" xmlns:xlink="http://www.w3.org/1999/xlink">
  <defs>
    <path id="a" d="M.13066054.12965722H74.8902524V136.79693H.13066054z"/>
  </defs>
  <g fill="none" fill-rule="evenodd">
    <g transform="translate(98)">
      <mask id="b" fill="#fff">
        <use xlink:href="#a"/>
      </mask>
      <path d="M74.8809953.12962866c-.2135415 5.2908143.469682 10.33944944-.6933271 15.31868664-1.262407 5.4047641-4.4051805 9.0280266-9.3616912 11.0317162-9.6656191 3.906852-17.5565502 10.1341113-22.9071022 19.560534-2.1971288 3.8711534-3.6304782 8.0618805-4.3969884 12.6892725h37.3435438c0 1.4305132.0005462 2.7053807 0 3.9802482-.0062806 17.9883688-.007919 35.9767376-.0207534 53.9651068-.0070998 10.220073-6.2197368 18.054054-15.797154 19.901812-.9319912.179635-1.9000277.210479-2.8514068.21105-18.1556678.011709-36.3116087.008875-54.46754962.008875H.19472689v-1.500504c.0046422-13.181913-.17831533-26.366967.05406805-39.5443106.42599067-24.1236686 6.9534785-46.2993373 20.27715596-66.1063343 6.0348679-8.9717657 13.8001863-16.0840641 23.0190613-21.27577913 5.1318223-2.88987099 10.7524415-4.67137264 16.5068655-5.76746167C64.8740375 1.68380179 69.7333349.97925473 74.8809953.12962866" fill="#0D2436" mask="url(#b)"/>
    </g>
    <path d="M.0102682 136c0-4.251386-.0102682-8.2711.0022513-12.29053.03489517-10.466721-.12438438-20.939411.16856618-31.399025.4651751-16.601326 4.47502381-32.3851216 11.63697552-47.3323413 4.1454896-8.652292 9.0530447-16.8042873 15.8939046-23.6105979 5.202194-5.1760821 10.9472331-9.71457 17.2866157-13.31386434 4.7775424-2.71240459 10.1170658-4.28265432 15.5148417-5.34351095C65.8847463 1.65439056 71.3101006.8797833 76.6040352 0c.1969888.25469655.3028.327467.3011115.39796337-.1128465 5.32702389.6782044 10.70805713-.9503305 15.94440223-1.4408327 4.6331463-4.3652729 7.9223135-8.8574629 9.627018-7.7033896 2.9230409-14.3306573 7.4220168-19.7864042 13.622286-4.519487 5.13657-7.3513424 11.1569029-8.6793286 17.8964125-.0441818.2251335-.0393978.4605005-.0697904.8470934h38.4055088v9.2020501c0 16.2462858.0258899 32.4922874-.0090052 48.7382894-.0242015 11.268616-8.4798071 19.718231-19.6544217 19.721643C38.7818948 136.002274 20.260159 136 1.73870464 136H.0102682Z" fill="#0D2436"/>
  </g>
</svg>
