<?xml version="1.0" encoding="UTF-8"?>
<svg width="34px" height="35px" viewBox="0 0 34 35" version="1.1" xmlns="http://www.w3.org/2000/svg" xmlns:xlink="http://www.w3.org/1999/xlink">
    <!-- Generator: Sketch 63 (92445) - https://sketch.com -->
    <title>Group 11</title>
    <desc>Created with Sketch.</desc>
    <defs>
        <polygon id="path-1" points="0.396695 0.435455 12.3335 0.435455 12.3335 12.372005 0.396695 12.372005"></polygon>
        <polygon id="path-3" points="0.35071 0.4981 15.06251 0.4981 15.06251 15.049335 0.35071 15.049335"></polygon>
    </defs>
    <g id="Home" stroke="none" stroke-width="1" fill="none" fill-rule="evenodd">
        <g id="Home-v2" transform="translate(-782.000000, -3291.000000)">
            <g id="Group-11" transform="translate(782.000000, 3291.000000)">
                <path d="M26.661185,26.429305 L15.609485,15.274755 C14.851285,15.414155 14.083735,15.501705 13.309385,15.501705 C7.961185,15.501705 3.578585,12.471455 1.275935,8.130505 C0.579785,8.938855 0.142035,9.975855 0.136085,11.122505 L0.135235,11.369005 L2.04910877e-05,11.369005 L2.04910877e-05,29.711155 C-0.006715,31.008255 0.524535,32.182955 1.380485,33.030405 C2.044335,33.707855 2.914735,34.179605 3.887135,34.352155 L24.244635,34.352155 C25.464385,34.092055 26.509885,33.355105 27.171185,32.339355 C28.420685,30.537355 28.260885,28.040905 26.661185,26.429305" id="Fill-1" fill-opacity="0.6" fill="#2FD3BC"></path>
                <g id="Group-5" transform="translate(21.250000, 7.552240)">
                    <mask id="mask-2" fill="white">
                        <use xlink:href="#path-1"></use>
                    </mask>
                    <g id="Clip-4"></g>
                    <path d="M12.334095,6.404155 C12.334095,9.700455 9.660845,12.372005 6.365395,12.372005 C3.069095,12.372005 0.396695,9.700455 0.396695,6.404155 C0.396695,3.107855 3.069095,0.435455 6.365395,0.435455 C9.660845,0.435455 12.334095,3.107855 12.334095,6.404155" id="Fill-3" fill="#FAAD13" mask="url(#mask-2)"></path>
                </g>
                <path d="M5.38968,17.60554 L11.38048,17.60554 C13.16293,17.60554 14.73798,16.73599 15.71718,15.40149 L2.04493,2.01909 C0.80478,3.00509 0.00748,4.52404 0.00748,6.23254 L0.00748,12.22334 C0.00748,15.19579 2.41723,17.60554 5.38968,17.60554" id="Fill-6" fill="#2FD3BC"></path>
                <g id="Group-10" opacity="0.699428013" transform="translate(1.700000, 0.352240)">
                    <mask id="mask-4" fill="white">
                        <use xlink:href="#path-3"></use>
                    </mask>
                    <g id="Clip-9"></g>
                    <path d="M9.68031,0.497335 L3.68951,0.497335 C2.42471,0.497335 1.26871,0.941885 0.35071,1.672885 L14.01786,15.049335 C14.67151,14.157685 15.06251,13.061185 15.06251,11.871185 L15.06251,5.880385 C15.06251,2.907935 12.65276,0.497335 9.68031,0.497335" id="Fill-8" fill="#6553C0" mask="url(#mask-4)"></path>
                </g>
            </g>
        </g>
    </g>
</svg>