<?xml version="1.0" encoding="UTF-8"?>
<svg width="36px" height="36px" viewBox="0 0 36 36" version="1.1" xmlns="http://www.w3.org/2000/svg" xmlns:xlink="http://www.w3.org/1999/xlink">
    <!-- Generator: Sketch 63 (92445) - https://sketch.com -->
    <title>Group 10</title>
    <desc>Created with Sketch.</desc>
    <defs>
        <polygon id="path-1" points="0 0.0990705128 22.4172253 0.0990705128 22.4172253 22.5160256 0 22.5160256"></polygon>
    </defs>
    <g id="Home" stroke="none" stroke-width="1" fill="none" fill-rule="evenodd">
        <g id="Home-v2" transform="translate(-169.000000, -4029.000000)">
            <g id="Group-10" transform="translate(169.000000, 4029.000000)">
                <path d="M33.8915721,18.6984785 L27.606899,12.3552638 L26.8260433,11.5572958 L26.8287452,11.539283 L25.208492,9.93434071 L23.5990465,8.30958429 C23.592742,8.31048494 23.5873381,8.31138558 23.5819343,8.31228622 L22.7803638,7.52872853 L16.439851,1.24675737 C14.9384824,-0.242902885 12.6139279,-0.392409295 10.9360337,0.77121891 C9.98945994,1.38725737 9.30317147,2.36085032 9.06089904,3.49745929 L9.06089904,16.8647734 C9.34189904,16.8062317 9.62560096,16.7666035 9.9075016,16.7666035 L14.0441458,16.7666035 C16.577649,16.7666035 18.4545849,18.8380779 18.5635625,21.2878215 C18.6004888,22.102001 18.369024,22.8738503 17.9619343,23.5439272 C18.0691106,23.740267 18.1816907,23.9330042 18.2780593,24.1347478 C18.5860785,24.7769048 18.7508958,25.4325715 18.803133,26.0774304 L31.6417708,26.0774304 C32.7774792,25.835158 33.7510721,25.1488696 34.3671106,24.2022958 C35.5307388,22.5244016 35.3812324,20.1998471 33.8915721,18.6984785" id="Fill-1" fill="#6553C0" opacity="0.597284226"></path>
                <g id="Group-5" transform="translate(0.000000, 12.588710)">
                    <mask id="mask-2" fill="white">
                        <use xlink:href="#path-1"></use>
                    </mask>
                    <g id="Clip-4"></g>
                    <path d="M17.0133792,16.7996571 C17.0133792,16.9716795 16.8728792,17.1121795 16.7008567,17.1121795 L5.71663878,17.1121795 C5.54461635,17.1121795 5.40321571,16.9716795 5.40321571,16.7996571 L5.40321571,5.8154391 C5.40321571,5.64251603 5.54461635,5.50291667 5.71663878,5.50291667 L16.7008567,5.50291667 C16.8728792,5.50291667 17.0133792,5.64251603 17.0133792,5.8154391 L17.0133792,16.7996571 Z M20.3214337,6.70437179 C18.9101292,5.77851282 17.8734913,4.47078205 17.2079176,2.98202244 C17.1133503,2.99192949 17.0133792,2.99283013 16.9170106,2.99823397 C16.188392,3.84663782 15.0968151,4.41314103 13.6413792,4.41314103 C10.8160683,4.41314103 9.3678375,2.28852885 9.2822766,0.0990705128 L5.71663878,0.0990705128 C2.55899135,0.0990705128 -0.000630448718,2.65869231 -0.000630448718,5.8154391 L-0.000630448718,16.7996571 C-0.000630448718,19.9573045 2.55899135,22.5160256 5.71663878,22.5160256 L16.7008567,22.5160256 C19.8576035,22.5160256 22.4172253,19.9573045 22.4172253,16.7996571 L22.4172253,13.3718173 C20.9329689,11.5273045 20.2358728,9.09917628 20.3214337,6.70437179 L20.3214337,6.70437179 Z" id="Fill-3" fill="#FAAD13" opacity="0.595889137" mask="url(#mask-2)"></path>
                </g>
                <path d="M15.5726237,23.8965282 C15.5726237,26.3066436 13.6191333,28.2610346 11.2081173,28.2610346 C8.79890256,28.2610346 6.84451154,26.3066436 6.84451154,23.8965282 C6.84451154,21.4855122 8.79890256,19.5320218 11.2081173,19.5320218 C13.6191333,19.5320218 15.5726237,21.4855122 15.5726237,23.8965282" id="Fill-6" fill="#2FD3BC"></path>
                <path d="M16.7011269,12.6877804 L9.06459167,12.6877804 L9.06459167,18.0916266 L16.7011269,18.0916266 C16.8722487,18.0916266 17.0136494,18.231226 17.0136494,18.404149 L17.0136494,26.0550946 L22.4174955,26.0550946 L22.4174955,18.404149 C22.4174955,15.2474022 19.8578737,12.6877804 16.7011269,12.6877804" id="Fill-8" fill="#6553C0"></path>
            </g>
        </g>
    </g>
</svg>