<?xml version="1.0" encoding="UTF-8"?>
<svg width="523px" height="396px" viewBox="0 0 523 396" version="1.1" xmlns="http://www.w3.org/2000/svg" xmlns:xlink="http://www.w3.org/1999/xlink">
    <!-- Generator: Sketch 63 (92445) - https://sketch.com -->
    <title>Group 27</title>
    <desc>Created with Sketch.</desc>
    <defs>
        <rect id="path-1" x="0" y="0" width="473" height="336" rx="8"></rect>
        <filter x="-9.1%" y="-9.8%" width="118.2%" height="125.6%" filterUnits="objectBoundingBox" id="filter-3">
            <feMorphology radius="0.53164557" operator="dilate" in="SourceAlpha" result="shadowSpreadOuter1"></feMorphology>
            <feOffset dx="0" dy="10" in="shadowSpreadOuter1" result="shadowOffsetOuter1"></feOffset>
            <feGaussianBlur stdDeviation="12.5" in="shadowOffsetOuter1" result="shadowBlurOuter1"></feGaussianBlur>
            <feComposite in="shadowBlurOuter1" in2="SourceAlpha" operator="out" result="shadowBlurOuter1"></feComposite>
            <feColorMatrix values="0 0 0 0 0.192156863   0 0 0 0 0.250980392   0 0 0 0 0.466666667  0 0 0 0.1 0" type="matrix" in="shadowBlurOuter1"></feColorMatrix>
        </filter>
        <polygon id="path-4" points="0 0 8.88578194 0 8.88578194 11.7337206 0 11.7337206"></polygon>
        <polygon id="path-6" points="0 0 3.56018094 0 3.56018094 3.56072653 0 3.56072653"></polygon>
        <linearGradient x1="50%" y1="0%" x2="50%" y2="100%" id="linearGradient-8">
            <stop stop-color="#7897FF" offset="0%"></stop>
            <stop stop-color="#4592FF" offset="100%"></stop>
        </linearGradient>
    </defs>
    <g id="Home" stroke="none" stroke-width="1" fill="none" fill-rule="evenodd">
        <g id="Home-v2" transform="translate(-758.000000, -4033.000000)">
            <g id="Group-27" transform="translate(783.000000, 4048.000000)">
                <g id="Group-15">
                    <g id="Group-14">
                        <mask id="mask-2" fill="white">
                            <use xlink:href="#path-1"></use>
                        </mask>
                        <g id="Rectangle">
                            <use fill="black" fill-opacity="1" filter="url(#filter-3)" xlink:href="#path-1"></use>
                            <rect stroke="#D2DCEA" stroke-width="0.53164557" fill="#FFFFFF" fill-rule="evenodd" x="-0.265822785" y="-0.265822785" width="473.531646" height="336.531646" rx="8"></rect>
                        </g>
                        <text id="Title-Copy-103" mask="url(#mask-2)" font-family="Avenir-Black, Avenir" font-size="5.83302579" font-weight="700" line-spacing="9.1141028" fill="#505A72">
                            <tspan x="346" y="181">provider-azure</tspan>
                        </text>
                        <g id="Text" mask="url(#mask-2)">
                            <g transform="translate(235.000000, 170.000000)" id="Rectangle">
                                <rect fill="#D2DCEA" opacity="0.717754546" x="0" y="0" width="58.1341286" height="3.50892958" rx="1.75446479"></rect>
                                <rect fill="#D2DCEA" opacity="0.717754546" x="0" y="5.92416682" width="66.4032072" height="3.50892958" rx="1.75446479"></rect>
                                <rect fill="#D2DCEA" opacity="0.717754546" x="0" y="11.3926285" width="60.8904881" height="3.50892958" rx="1.75446479"></rect>
                                <rect fill="#D2DCEA" opacity="0.717754546" x="0" y="17.3167953" width="54.3754565" height="3.50892958" rx="1.75446479"></rect>
                                <rect fill="#E7F0FC" x="0" y="25.0637827" width="66.4032072" height="3.50892958" rx="1.75446479"></rect>
                            </g>
                        </g>
                        <g id="Navigation/Desktop/Side/Minimized-with-Labels" mask="url(#mask-2)">
                            <g transform="translate(-1.000000, 23.000000)">
                                <rect id="Background" fill="#263B67" fill-rule="evenodd" x="0" y="0" width="57.7021277" height="324"></rect>
                                <polygon id="Vertical-HR" fill="#DCE0E6" fill-rule="evenodd" transform="translate(57.439845, 162.000000) scale(-1, 1) translate(-57.439845, -162.000000) " points="57.1775629 0 57.7021277 0 57.7021277 324 57.1775629 324"></polygon>
                                <g id="Navigation/Desktop/Side/Minimized-with-Labels/Labels/Light-Nav-Unselected" fill="#FFFFFF" fill-rule="evenodd" transform="translate(4.602454, 125.383122)">
                                    <text id="Text" fill="none" font-family="Avenir-Roman, Avenir" font-size="7.27458304" font-weight="normal" line-spacing="12.1243051">
                                        <tspan x="0.453449009" y="27.3781589" fill="#505A72">Control Planes</tspan>
                                    </text>
                                    <g id="Layers/24x24-Slate" fill="none" transform="translate(16.974027, 0.000000)" stroke="#505A72" stroke-linecap="round" stroke-linejoin="round" stroke-width="1">
                                        <g id="Group" transform="translate(0.606215, 0.606215)">
                                            <polygon id="Stroke-5" stroke-width="1.21243051" points="6.49244989 4.52278937e-14 1.39991099e-14 2.84016898 6.49244989 5.68089366 12.9848998 2.84016898"></polygon>
                                            <polyline id="Stroke-6" stroke-width="1.21243051" points="-2.69213653e-14 10.3056593 6.49244989 13.1458283 12.9842647 10.3056593"></polyline>
                                            <polyline id="Stroke-7" stroke-width="1.21243051" points="-2.69213653e-14 6.66836779 6.49244989 9.50853676 12.9842647 6.66836779"></polyline>
                                        </g>
                                    </g>
                                </g>
                                <text id="Text-Copy" fill="none" font-family="Avenir-Roman, Avenir" font-size="7.46633416" font-weight="normal" line-spacing="12.4438903">
                                    <tspan x="10.1664165" y="106.048724" fill="#FFFFFF">Dashboard</tspan>
                                </text>
                                <g id="Group" stroke-width="1" fill="none" fill-rule="evenodd" transform="translate(22.900249, 80.000000)" stroke-linecap="round" stroke-linejoin="round">
                                    <rect id="Rectangle-path" stroke="#FFFFFF" stroke-width="1.24438903" x="0" y="0" width="4.97755611" height="4.97755611" rx="1.24438903"></rect>
                                    <rect id="Rectangle-path" stroke="#FFFFFF" stroke-width="1.24438903" x="7.46633416" y="0" width="4.97755611" height="4.97755611" rx="1.24438903"></rect>
                                    <rect id="Rectangle-path" stroke="#FFFFFF" stroke-width="1.24438903" x="7.46633416" y="7.46633416" width="4.97755611" height="4.97755611" rx="1.24438903"></rect>
                                    <rect id="Rectangle-path" stroke="#FFFFFF" stroke-width="1.24438903" x="0" y="7.46633416" width="4.97755611" height="4.97755611" rx="1.24438903"></rect>
                                </g>
                                <g id="Navigation/Desktop/Side/Minimized-with-Labels/Labels/Light-Nav-Unselected" fill="#A6AEC1" fill-rule="evenodd" transform="translate(4.602454, 170.274127)">
                                    <text id="Text" fill="none" font-family="Avenir-Roman, Avenir" font-size="7.27458304" font-weight="normal" line-spacing="12.1243051">
                                        <tspan x="9.35026407" y="27.3781589" fill="#505A72">Consoles</tspan>
                                    </text>
                                    <g id="Layout/24x24-Slate" fill="none" transform="translate(16.974027, 0.000000)" stroke="#505A72" stroke-linecap="round" stroke-linejoin="round" stroke-width="1.21243051">
                                        <rect id="Rectangle-path" x="0.90932288" y="0.90932288" width="12.7305203" height="12.7305203" rx="1.21243051"></rect>
                                        <line x1="0.90932288" y1="5.45593728" x2="13.6398432" y2="5.45593728" id="Shape"></line>
                                        <line x1="5.45593728" y1="13.6398432" x2="5.45593728" y2="5.45593728" id="Shape"></line>
                                    </g>
                                </g>
                                <g id="Navigation/Desktop/Side/Minimized-with-Labels/Labels/Light-Nav-Unselected" fill="#A6AEC1" fill-rule="evenodd" transform="translate(4.602454, 216.165132)">
                                    <text id="Text" fill="none" font-family="Avenir-Roman, Avenir" font-size="7.27458304" font-weight="normal" line-spacing="12.1243051">
                                        <tspan x="4.03254386" y="27.3781589" fill="#505A72">Repositories</tspan>
                                    </text>
                                    <g id="Repository/24x24/Slate" fill="none" transform="translate(16.974027, 0.000000)" stroke="#505A72" stroke-width="1.21243051">
                                        <path d="M3.63729152,10.0025517 L12.7305203,10.0025517 L12.7305203,10.0025517 L12.7305203,13.6398432 L3.63729152,13.6398432 C2.6328812,13.6398432 1.81864576,12.8256078 1.81864576,11.8211974 C1.81864576,10.8167871 2.6328812,10.0025517 3.63729152,10.0025517 Z" id="Rectangle"></path>
                                        <path d="M3.52362616,0.90932288 L12.7305203,0.90932288 L12.7305203,13.6398432 L3.52362616,13.6398432 C2.58199149,13.6398432 1.81864576,12.9273872 1.81864576,12.0485282 L1.81864576,2.50063792 C1.81864576,1.62177889 2.58199149,0.90932288 3.52362616,0.90932288 Z" id="Shape" stroke-linecap="round" stroke-linejoin="round"></path>
                                    </g>
                                </g>
                                <g id="Navigation/Desktop/Side/Minimized-with-Labels/Labels/Light-Nav-Unselected" fill="#A6AEC1" fill-rule="evenodd" transform="translate(4.602454, 262.056137)">
                                    <text id="Text" fill="none" font-family="Avenir-Roman, Avenir" font-size="7.27458304" font-weight="normal" line-spacing="12.1243051">
                                        <tspan x="9.96496633" y="27.3781589" fill="#505A72">All Users</tspan>
                                    </text>
                                    <g id="Users/24x24-Slate" fill="none" transform="translate(16.974027, 0.000000)" stroke="#505A72" stroke-linecap="round" stroke-linejoin="round" stroke-width="1">
                                        <g id="Group" transform="translate(0.606215, 1.212431)">
                                            <path d="M8.81767641,12.344747 L8.81767641,10.0301069 C8.81767641,9.15363694 8.30616455,8.39663695 7.56537674,8.04134288 C7.27716781,7.90311312 6.95425438,7.82568781 6.61325731,7.82568781 L2.2044191,7.82568781 C0.98695205,7.82568781 3.99513061e-13,8.81263986 3.99513061e-13,10.0301069 L3.99513061e-13,12.344747" id="Shape" stroke-width="1.21243051"></path>
                                            <path d="M13.3367356,12.344747 L13.3367356,10.0301069 C13.3359862,9.0255078 12.6561205,8.148481 11.6834212,7.89733144" id="Shape" stroke-width="1.21243051"></path>
                                            <circle id="Oval" stroke-width="1.21243051" cx="4.45017106" cy="2.75552388" r="2.75552388"></circle>
                                            <path d="M9.8785531,0.089554526 C11.0978137,0.401734569 11.9505991,1.50037665 11.9505991,2.75896828 C11.9505991,4.01755991 11.0978137,5.116202 9.8785531,5.42838204" id="Shape" stroke-width="1.21243051"></path>
                                        </g>
                                    </g>
                                </g>
                                <g id="Navigation/Desktop/Side/Minimized-with-Labels/Labels/Light-Nav-Unselected" fill="#A6AEC1" fill-rule="evenodd" transform="translate(4.602454, 315.838147)">
                                    <text id="Text" fill="none" font-family="Avenir-Roman, Avenir" font-size="7.27458304" font-weight="normal" line-spacing="12.1243051">
                                        <tspan x="12.6529248" y="27.3781589" fill="#505A72">Robots</tspan>
                                    </text>
                                    <g id="Robot/24x24/Slate" fill="none" transform="translate(16.974027, 0.000000)" stroke="#505A72" stroke-linecap="round" stroke-linejoin="round" stroke-width="1">
                                        <g id="Group" transform="translate(0.606215, 0.606215)">
                                            <rect id="Rectangle-path" stroke-width="1.21243051" x="0" y="0" width="13.3367356" height="13.3367356" rx="3.63729152"></rect>
                                            <path d="M6.76940366,4.24350677 C8.16441799,4.24350677 9.29530055,5.37438933 9.29530055,6.76940366 C9.29530055,8.16441799 8.16441799,9.29530055 6.76940366,9.29530055 C5.37438933,9.29530055 4.24350677,8.16441799 4.24350677,6.76940366 C4.24350677,5.37438933 5.37438933,4.24350677 6.76940366,4.24350677 Z" id="Rectangle-path" stroke-width="1.21243051"></path>
                                        </g>
                                    </g>
                                </g>
                                <g id="Logo" stroke-width="1" fill="none" fill-rule="evenodd" transform="translate(12.864047, 18.186458)">
                                    <rect id="Rectangle" fill="#6553C0" x="0" y="0" width="33.9480542" height="33.9480542" rx="6.06215253"></rect>
                                    <g id="Group-4" transform="translate(7.880798, 8.487014)">
                                        <path d="M8.84207382,6.76572596 L8.80873198,10.0683867 C8.80873198,13.2425297 5.75219467,13.8863303 4.68889312,13.8863303 C2.47620744,13.8863303 0.607852034,12.5387138 0.607852034,10.0683867 L0.607852034,6.57840544 C0.607852034,5.80608721 1.05342025,5.34293876 1.7748164,5.34293876 C2.51258036,5.34293876 2.95814857,5.80608721 2.95814857,6.57840544 L2.95814857,9.80347059 C2.95814857,11.0559113 3.5910373,11.7415408 4.68889312,11.7415408 C5.85525127,11.7415408 6.49177728,11.1583617 6.49177728,9.80347059 L6.49177728,6.76572596 C6.49177728,5.99401394 6.93795171,5.53086548 7.67571567,5.53086548 C8.39650561,5.53086548 8.84207382,5.99401394 8.84207382,6.76572596" id="Fill-1" fill="#FFFFFF"></path>
                                        <g id="Group-5" transform="translate(10.455516, 5.240307)">
                                            <mask id="mask-5" fill="white">
                                                <use xlink:href="#path-4"></use>
                                            </mask>
                                            <g id="Clip-4"></g>
                                            <path d="M6.48407835,4.32292097 C6.48407835,3.01895196 5.64325779,2.14418335 4.44295159,2.14418335 C3.22506515,2.14418335 2.34969032,3.05350623 2.34969032,4.32292097 C2.34969032,5.59233571 3.22506515,6.50165859 4.44295159,6.50165859 C5.64325779,6.50165859 6.48407835,5.60930974 6.48407835,4.32292097 M8.88590318,4.32292097 C8.88590318,6.94783302 7.30731866,8.64584194 4.92307407,8.64584194 C3.84279849,8.64584194 2.96742366,8.26877605 2.38424459,7.61648844 L2.34969032,7.61648844 L2.34969032,10.4814617 C2.34969032,11.2531737 1.9035159,11.7339024 1.16635815,11.7339024 C0.445568211,11.7339024 0,11.2531737 0,10.4814617 L0,1.33791706 C0,0.565598831 0.445568211,0.103056593 1.16635815,0.103056593 C1.8004593,0.103056593 2.2296597,0.446174426 2.33271629,1.04632753 L2.36666435,1.04632753 C2.95044964,0.377065887 3.82521825,0 4.92307407,0 C7.30731866,0 8.88590318,1.69800892 8.88590318,4.32292097" id="Fill-3" fill="#FFFFFF" mask="url(#mask-5)"></path>
                                        </g>
                                        <g id="Group-8">
                                            <mask id="mask-7" fill="white">
                                                <use xlink:href="#path-6"></use>
                                            </mask>
                                            <g id="Clip-7"></g>
                                            <path d="M3.56018094,1.78027233 C3.56018094,2.76355347 2.7636141,3.56072653 1.77972674,3.56072653 C0.797051815,3.56072653 -0.000121243051,2.76355347 -0.000121243051,1.78027233 C-0.000121243051,0.796991193 0.797051815,-0.000181864576 1.77972674,-0.000181864576 C2.7636141,-0.000181864576 3.56018094,0.796991193 3.56018094,1.78027233" id="Fill-6" fill="#FFFFFF" mask="url(#mask-7)"></path>
                                        </g>
                                    </g>
                                </g>
                            </g>
                        </g>
                        <g id="Text" mask="url(#mask-2)">
                            <g transform="translate(345.000000, 190.000000)" id="Rectangle">
                                <rect fill="#D2DCEA" opacity="0.717754546" x="0" y="0" width="58.1341286" height="3.50892958" rx="1.75446479"></rect>
                                <rect fill="#D2DCEA" opacity="0.717754546" x="0" y="5.92416682" width="66.4032072" height="3.50892958" rx="1.75446479"></rect>
                                <rect fill="#D2DCEA" opacity="0.717754546" x="0" y="11.3926285" width="60.8904881" height="3.50892958" rx="1.75446479"></rect>
                                <rect fill="#D2DCEA" opacity="0.717754546" x="0" y="17.3167953" width="54.3754565" height="3.50892958" rx="1.75446479"></rect>
                                <rect fill="#E7F0FC" x="0" y="25.0637827" width="66.4032072" height="3.50892958" rx="1.75446479"></rect>
                            </g>
                        </g>
                        <g id="Margins/Header/Subtext-and-Buttons" mask="url(#mask-2)">
                            <g transform="translate(91.898734, 80.037975)">
                                <text id="My-Dashboard" font-family="Avenir-Black, Avenir" font-size="16" font-weight="700" line-spacing="17.8632911">
                                    <tspan x="0" y="16" fill="#505A72">My Dashboard</tspan>
                                </text>
                                <text id="Subtext" font-family="Avenir-Roman, Avenir" font-size="7.14531646" font-weight="normal" line-spacing="10.2075949">
                                    <tspan x="0" y="29.9670886" fill="#929394">Last Updated 3 Hours Ago</tspan>
                                </text>
                            </g>
                        </g>
                        <g id="Avatar/Companies/48x48-Copy-2" mask="url(#mask-2)">
                            <g transform="translate(92.000000, 42.000000)">
                                <circle id="Oval-2" fill="#EA595B" fill-rule="evenodd" cx="14.9326683" cy="14.9326683" r="14.9326683"></circle>
                                <text id="M" fill="none" font-family="Avenir-Roman, Avenir" font-size="9.95511222" font-weight="normal" line-spacing="15.5548628">
                                    <tspan x="10.4180249" y="17.4663342" fill="#FFFFFF">M</tspan>
                                </text>
                            </g>
                        </g>
                        <path d="M4.25316456,1.11910481e-13 L468.468354,1.11910481e-13 C470.817312,1.41885212e-13 472.721519,1.90420663 472.721519,4.25316456 L472.721519,24.9448101 L472.721519,24.9448101 L0,24.9448101 L0,4.25316456 C-2.8766438e-16,1.90420663 1.90420663,1.14118334e-13 4.25316456,1.11910481e-13 Z" id="Rectangle" fill="#F4F8FF" mask="url(#mask-2)"></path>
                        <circle id="Oval" fill="#FF6C70" mask="url(#mask-2)" cx="14.1311392" cy="12.961519" r="4.15746835"></circle>
                        <circle id="Oval-Copy" fill="#FFCE3C" mask="url(#mask-2)" cx="25.3807595" cy="12.961519" r="4.15746835"></circle>
                        <circle id="Oval-Copy-2" fill="#2FD3BC" mask="url(#mask-2)" cx="37.1194937" cy="12.961519" r="4.15746835"></circle>
                    </g>
                    <g id="Cards/Standard-Copy-2" transform="translate(92.000000, 159.998753)" fill="#FFFFFF" stroke="#DCDCDE" stroke-width="0.622194514">
                        <path d="M95.8890274,0.31234414 L3.11097257,0.31234414 C2.33780835,0.31234414 1.63783952,0.625730859 1.13116175,1.13240863 C0.624483976,1.63908641 0.311097257,2.33905523 0.311097257,3.11221945 L0.311097257,95.8902743 C0.311097257,96.6634385 0.624483976,97.3634074 1.13116175,97.8700851 C1.63783952,98.3767629 2.33780835,98.6901496 3.11097257,98.6901496 L95.8890274,98.6901496 C96.6621916,98.6901496 97.3621605,98.3767629 97.8688383,97.8700851 C98.375516,97.3634074 98.6889027,96.6634385 98.6889027,95.8902743 L98.6889027,3.11221945 C98.6889027,2.33905523 98.375516,1.63908641 97.8688383,1.13240863 C97.3621605,0.625730859 96.6621916,0.31234414 95.8890274,0.31234414 Z" id="Rectangle-21-Copy-2"></path>
                    </g>
                    <g id="Cards/Standard-Copy-14" transform="translate(213.000000, 159.998753)" fill="#FFFFFF" stroke="#DCDCDE" stroke-width="0.622194514">
                        <path d="M95.8890274,0.31234414 L3.11097257,0.31234414 C2.33780835,0.31234414 1.63783952,0.625730859 1.13116175,1.13240863 C0.624483976,1.63908641 0.311097257,2.33905523 0.311097257,3.11221945 L0.311097257,95.8902743 C0.311097257,96.6634385 0.624483976,97.3634074 1.13116175,97.8700851 C1.63783952,98.3767629 2.33780835,98.6901496 3.11097257,98.6901496 L95.8890274,98.6901496 C96.6621916,98.6901496 97.3621605,98.3767629 97.8688383,97.8700851 C98.375516,97.3634074 98.6889027,96.6634385 98.6889027,95.8902743 L98.6889027,3.11221945 C98.6889027,2.33905523 98.375516,1.63908641 97.8688383,1.13240863 C97.3621605,0.625730859 96.6621916,0.31234414 95.8890274,0.31234414 Z" id="Rectangle-21-Copy-2"></path>
                    </g>
                    <rect id="Rectangle" fill="#D2DCEA" opacity="0.717754546" x="103" y="234" width="58" height="4" rx="1.75446479"></rect>
                    <rect id="Rectangle-Copy-3" fill="#D2DCEA" opacity="0.717754546" x="224" y="241" width="58" height="4" rx="1.75446479"></rect>
                    <rect id="Rectangle" fill="#D2DCEA" opacity="0.717754546" x="103" y="240" width="66" height="4" rx="1.75446479"></rect>
                    <rect id="Rectangle-Copy-4" fill="#D2DCEA" opacity="0.717754546" x="224" y="247" width="66" height="4" rx="1.75446479"></rect>
                    <text id="Monthly-Change" font-family="Avenir-Black, Avenir" font-size="10" font-weight="700" line-spacing="15.5548628" fill="#505A72">
                        <tspan x="92" y="141">Monthly Change</tspan>
                    </text>
                    <text id="Cost-Projection" font-family="Avenir-Black, Avenir" font-size="10" font-weight="700" line-spacing="15.5548628" fill="#505A72">
                        <tspan x="213" y="141">Cost Projection</tspan>
                    </text>
                    <text id="Monthly-Budget" font-family="Avenir-Black, Avenir" font-size="10" font-weight="700" line-spacing="15.5548628" fill="#505A72">
                        <tspan x="335" y="141">Monthly Budget</tspan>
                    </text>
                    <text id="$7,392" font-family="Avenir-Black, Avenir" font-size="20" font-weight="700" line-spacing="31.1097257" fill="#505A72">
                        <tspan x="102.887781" y="189.153367">$7,392</tspan>
                    </text>
                    <text id="$7,392-copy" font-family="Avenir-Black, Avenir" font-size="20" font-weight="700" line-spacing="31.1097257" fill="#505A72">
                        <tspan x="223.887781" y="196.153367">$7,392</tspan>
                    </text>
                    <circle id="Oval" fill="#E95B4B" cx="110.976309" cy="216.951372" r="8.08852868"></circle>
                    <circle id="Oval-Copy-5" fill="#E95B4B" cx="231.976309" cy="223.951372" r="8.08852868"></circle>
                    <g id="Arrow-Up/16x16" transform="translate(107.865337, 213.218204)" stroke="#FFFFFF" stroke-linecap="round" stroke-linejoin="round" stroke-width="1.24438903">
                        <line x1="3.11097257" y1="8.08852868" x2="3.11097257" y2="0" id="Shape"></line>
                        <polyline id="Shape" points="0 3.11097257 3.11097257 0 6.22194514 3.11097257"></polyline>
                    </g>
                    <g id="Arrow-Up/16x16-Copy-2" transform="translate(228.865337, 220.218204)" stroke="#FFFFFF" stroke-linecap="round" stroke-linejoin="round" stroke-width="1.24438903">
                        <line x1="3.11097257" y1="8.08852868" x2="3.11097257" y2="0" id="Shape"></line>
                        <polyline id="Shape" points="0 3.11097257 3.11097257 0 6.22194514 3.11097257"></polyline>
                    </g>
                    <g id="Cards/Standard-Copy-14" transform="translate(335.000000, 159.998753)" fill="#FFFFFF" stroke="#DCDCDE" stroke-width="0.622194514">
                        <path d="M95.8890274,0.31234414 L3.11097257,0.31234414 C2.33780835,0.31234414 1.63783952,0.625730859 1.13116175,1.13240863 C0.624483976,1.63908641 0.311097257,2.33905523 0.311097257,3.11221945 L0.311097257,95.8902743 C0.311097257,96.6634385 0.624483976,97.3634074 1.13116175,97.8700851 C1.63783952,98.3767629 2.33780835,98.6901496 3.11097257,98.6901496 L95.8890274,98.6901496 C96.6621916,98.6901496 97.3621605,98.3767629 97.8688383,97.8700851 C98.375516,97.3634074 98.6889027,96.6634385 98.6889027,95.8902743 L98.6889027,3.11221945 C98.6889027,2.33905523 98.375516,1.63908641 97.8688383,1.13240863 C97.3621605,0.625730859 96.6621916,0.31234414 95.8890274,0.31234414 Z" id="Rectangle-21-Copy-2"></path>
                    </g>
                    <rect id="Rectangle-Copy-3" fill="#D2DCEA" opacity="0.717754546" x="346" y="241" width="58" height="4" rx="1.75446479"></rect>
                    <rect id="Rectangle-Copy-4" fill="#D2DCEA" opacity="0.717754546" x="346" y="247" width="66" height="4" rx="1.75446479"></rect>
                    <text id="$34,200" font-family="Avenir-Black, Avenir" font-size="20" font-weight="700" line-spacing="31.1097257" fill="#505A72">
                        <tspan x="345.887781" y="196.153367">$34,200</tspan>
                    </text>
                    <g id="Arrow-Up/16x16-Copy-2" transform="translate(350.865337, 220.218204)" stroke="#FFFFFF" stroke-linecap="round" stroke-linejoin="round" stroke-width="1.24438903">
                        <line x1="3.11097257" y1="8.08852868" x2="3.11097257" y2="0" id="Shape"></line>
                        <polyline id="Shape" points="0 3.11097257 3.11097257 0 6.22194514 3.11097257"></polyline>
                    </g>
                    <circle id="Oval-6" stroke="#E9E9E9" stroke-width="1.24438903" fill="#FFFFFF" cx="451.948878" cy="201.75187" r="2.48877805"></circle>
                    <g id="Cards/Standard-Copy-6" transform="translate(91.778055, 290.109726)" fill="#FFFFFF" stroke="#DCDCDE" stroke-width="0.622194514">
                        <rect id="Rectangle-21-Copy-2" x="0.533042394" y="1.20137157" width="340.377805" height="33.3778055" rx="3.11097257"></rect>
                    </g>
                    <text id="Monthly-Provider-Usa" font-family="Avenir-Black, Avenir" font-size="10" font-weight="700" line-spacing="15.5548628" fill="#505A72">
                        <tspan x="92" y="278">Monthly Provider Usage</tspan>
                    </text>
                    <rect id="Path" fill="url(#linearGradient-8)" transform="translate(230.778055, 308.000000) rotate(-270.000000) translate(-230.778055, -308.000000) " x="221.778055" y="176" width="18" height="264"></rect>
                    <rect id="Path-Copy-3" fill="#8EA8FF" transform="translate(380.778055, 308.000000) rotate(-270.000000) translate(-380.778055, -308.000000) " x="371.778055" y="290" width="18" height="36"></rect>
                    <rect id="Path-Copy-4" fill="#D8BFFF" transform="translate(411.778055, 308.000000) rotate(-270.000000) translate(-411.778055, -308.000000) " x="402.778055" y="294" width="18" height="28"></rect>
                    <g id="Group-2-Copy" transform="translate(384.713217, 223.230673) scale(-1, 1) rotate(270.000000) translate(-384.713217, -223.230673) translate(378.213217, 184.230673)">
                        <polygon id="Path" fill="#F1F1F1" points="0.230673317 0.825436409 12.2306733 0.825436409 12.2306733 77.713217 0.230673317 77.713217"></polygon>
                        <polygon id="Path" fill="#9DDEE1" points="0.230673317 14.213217 12.2306733 14.213217 12.2306733 77.713217 0.230673317 77.713217"></polygon>
                    </g>
                </g>
                <g id="Group-19-Copy-7" opacity="0.277265276" transform="translate(249.000000, 316.000000)" fill="#6C72FC">
                    <circle id="Oval" cx="77.5" cy="2.5" r="2.5"></circle>
                    <circle id="Oval-Copy-6" cx="77.5" cy="17.5" r="2.5"></circle>
                    <circle id="Oval-Copy-12" cx="77.5" cy="32.5" r="2.5"></circle>
                    <circle id="Oval-Copy-18" cx="77.5" cy="47.5" r="2.5"></circle>
                    <circle id="Oval-Copy-24" cx="77.5" cy="62.5" r="2.5"></circle>
                    <circle id="Oval-Copy-2" cx="107.5" cy="2.5" r="2.5"></circle>
                    <circle id="Oval-Copy-7" cx="107.5" cy="17.5" r="2.5"></circle>
                    <circle id="Oval-Copy-13" cx="107.5" cy="32.5" r="2.5"></circle>
                    <circle id="Oval-Copy-19" cx="107.5" cy="47.5" r="2.5"></circle>
                    <circle id="Oval-Copy-25" cx="107.5" cy="62.5" r="2.5"></circle>
                    <circle id="Oval-Copy-4" cx="137.5" cy="2.5" r="2.5"></circle>
                    <circle id="Oval-Copy-8" cx="137.5" cy="17.5" r="2.5"></circle>
                    <circle id="Oval-Copy-14" cx="137.5" cy="32.5" r="2.5"></circle>
                    <circle id="Oval-Copy-20" cx="137.5" cy="47.5" r="2.5"></circle>
                    <circle id="Oval-Copy-26" cx="137.5" cy="62.5" r="2.5"></circle>
                    <circle id="Oval-Copy" cx="92.5" cy="2.5" r="2.5"></circle>
                    <circle id="Oval-Copy-9" cx="92.5" cy="17.5" r="2.5"></circle>
                    <circle id="Oval-Copy-15" cx="92.5" cy="32.5" r="2.5"></circle>
                    <circle id="Oval-Copy-21" cx="92.5" cy="47.5" r="2.5"></circle>
                    <circle id="Oval-Copy-27" cx="92.5" cy="62.5" r="2.5"></circle>
                    <circle id="Oval-Copy-3" cx="122.5" cy="2.5" r="2.5"></circle>
                    <circle id="Oval-Copy-10" cx="122.5" cy="17.5" r="2.5"></circle>
                    <circle id="Oval-Copy-16" cx="122.5" cy="32.5" r="2.5"></circle>
                    <circle id="Oval-Copy-22" cx="122.5" cy="47.5" r="2.5"></circle>
                    <circle id="Oval-Copy-28" cx="122.5" cy="62.5" r="2.5"></circle>
                    <circle id="Oval-Copy-36" cx="152.5" cy="2.5" r="2.5"></circle>
                    <circle id="Oval-Copy-37" cx="152.5" cy="17.5" r="2.5"></circle>
                    <circle id="Oval-Copy-38" cx="152.5" cy="32.5" r="2.5"></circle>
                    <circle id="Oval-Copy-39" cx="152.5" cy="47.5" r="2.5"></circle>
                    <circle id="Oval-Copy-40" cx="152.5" cy="62.5" r="2.5"></circle>
                    <circle id="Oval-Copy-42" cx="182.5" cy="2.5" r="2.5"></circle>
                    <circle id="Oval-Copy-43" cx="182.5" cy="17.5" r="2.5"></circle>
                    <circle id="Oval-Copy-44" cx="182.5" cy="32.5" r="2.5"></circle>
                    <circle id="Oval-Copy-45" cx="182.5" cy="47.5" r="2.5"></circle>
                    <circle id="Oval-Copy-46" cx="182.5" cy="62.5" r="2.5"></circle>
                    <circle id="Oval-Copy-48" cx="212.5" cy="2.5" r="2.5"></circle>
                    <circle id="Oval-Copy-49" cx="212.5" cy="17.5" r="2.5"></circle>
                    <circle id="Oval-Copy-50" cx="212.5" cy="32.5" r="2.5"></circle>
                    <circle id="Oval-Copy-51" cx="212.5" cy="47.5" r="2.5"></circle>
                    <circle id="Oval-Copy-52" cx="212.5" cy="62.5" r="2.5"></circle>
                    <circle id="Oval-Copy-54" cx="167.5" cy="2.5" r="2.5"></circle>
                    <circle id="Oval-Copy-55" cx="167.5" cy="17.5" r="2.5"></circle>
                    <circle id="Oval-Copy-56" cx="167.5" cy="32.5" r="2.5"></circle>
                    <circle id="Oval-Copy-57" cx="167.5" cy="47.5" r="2.5"></circle>
                    <circle id="Oval-Copy-58" cx="167.5" cy="62.5" r="2.5"></circle>
                    <circle id="Oval-Copy-60" cx="197.5" cy="2.5" r="2.5"></circle>
                    <circle id="Oval-Copy-61" cx="197.5" cy="17.5" r="2.5"></circle>
                    <circle id="Oval-Copy-62" cx="197.5" cy="32.5" r="2.5"></circle>
                    <circle id="Oval-Copy-63" cx="197.5" cy="47.5" r="2.5"></circle>
                    <circle id="Oval-Copy-64" cx="197.5" cy="62.5" r="2.5"></circle>
                    <circle id="Oval-Copy-36" cx="2.5" cy="2.5" r="2.5"></circle>
                    <circle id="Oval-Copy-37" cx="2.5" cy="17.5" r="2.5"></circle>
                    <circle id="Oval-Copy-38" cx="2.5" cy="32.5" r="2.5"></circle>
                    <circle id="Oval-Copy-39" cx="2.5" cy="47.5" r="2.5"></circle>
                    <circle id="Oval-Copy-40" cx="2.5" cy="62.5" r="2.5"></circle>
                    <circle id="Oval-Copy-42" cx="32.5" cy="2.5" r="2.5"></circle>
                    <circle id="Oval-Copy-43" cx="32.5" cy="17.5" r="2.5"></circle>
                    <circle id="Oval-Copy-44" cx="32.5" cy="32.5" r="2.5"></circle>
                    <circle id="Oval-Copy-45" cx="32.5" cy="47.5" r="2.5"></circle>
                    <circle id="Oval-Copy-46" cx="32.5" cy="62.5" r="2.5"></circle>
                    <circle id="Oval-Copy-48" cx="62.5" cy="2.5" r="2.5"></circle>
                    <circle id="Oval-Copy-49" cx="62.5" cy="17.5" r="2.5"></circle>
                    <circle id="Oval-Copy-50" cx="62.5" cy="32.5" r="2.5"></circle>
                    <circle id="Oval-Copy-51" cx="62.5" cy="47.5" r="2.5"></circle>
                    <circle id="Oval-Copy-52" cx="62.5" cy="62.5" r="2.5"></circle>
                    <circle id="Oval-Copy-54" cx="17.5" cy="2.5" r="2.5"></circle>
                    <circle id="Oval-Copy-55" cx="17.5" cy="17.5" r="2.5"></circle>
                    <circle id="Oval-Copy-56" cx="17.5" cy="32.5" r="2.5"></circle>
                    <circle id="Oval-Copy-57" cx="17.5" cy="47.5" r="2.5"></circle>
                    <circle id="Oval-Copy-58" cx="17.5" cy="62.5" r="2.5"></circle>
                    <circle id="Oval-Copy-60" cx="47.5" cy="2.5" r="2.5"></circle>
                    <circle id="Oval-Copy-61" cx="47.5" cy="17.5" r="2.5"></circle>
                    <circle id="Oval-Copy-62" cx="47.5" cy="32.5" r="2.5"></circle>
                    <circle id="Oval-Copy-63" cx="47.5" cy="47.5" r="2.5"></circle>
                    <circle id="Oval-Copy-64" cx="47.5" cy="62.5" r="2.5"></circle>
                </g>
            </g>
        </g>
    </g>
</svg>