<?xml version="1.0" encoding="UTF-8"?>
<svg width="395px" height="259px" viewBox="0 0 395 259" version="1.1" xmlns="http://www.w3.org/2000/svg" xmlns:xlink="http://www.w3.org/1999/xlink">
    <!-- Generator: Sketch 63 (92445) - https://sketch.com -->
    <title>Total Monthly Spend</title>
    <desc>Created with Sketch.</desc>
    <defs>
        <rect id="path-1" x="0" y="0" width="346.460568" height="210.691959" rx="8"></rect>
        <filter x="-10.8%" y="-16.9%" width="121.7%" height="135.6%" filterUnits="objectBoundingBox" id="filter-2">
            <feMorphology radius="0.541149847" operator="dilate" in="SourceAlpha" result="shadowSpreadOuter1"></feMorphology>
            <feOffset dx="0" dy="2" in="shadowSpreadOuter1" result="shadowOffsetOuter1"></feOffset>
            <feGaussianBlur stdDeviation="12" in="shadowOffsetOuter1" result="shadowBlurOuter1"></feGaussianBlur>
            <feComposite in="shadowBlurOuter1" in2="SourceAlpha" operator="out" result="shadowBlurOuter1"></feComposite>
            <feColorMatrix values="0 0 0 0 0.608880097   0 0 0 0 0.709332876   0 0 0 0 0.785439312  0 0 0 0.402480332 0" type="matrix" in="shadowBlurOuter1"></feColorMatrix>
        </filter>
        <linearGradient x1="50.0019052%" y1="7.22020349%" x2="50.0000385%" y2="98.1268747%" id="linearGradient-3">
            <stop stop-color="#FFFFFF" stop-opacity="0" offset="0%"></stop>
            <stop stop-color="#282F36" stop-opacity="0.2" offset="100%"></stop>
        </linearGradient>
    </defs>
    <g id="Home" stroke="none" stroke-width="1" fill="none" fill-rule="evenodd">
        <g id="Home-v2" transform="translate(-963.000000, -4091.000000)">
            <g id="Total-Monthly-Spend" transform="translate(987.000000, 4113.000000)">
                <g id="Cards/Horizontal/Data/Card-2-Copy">
                    <g id="Cards/Horizontal/Data/Card">
                        <g id="Group-9">
                            <g id="Stacked-Group-2">
                                <g id="Rectangle-21-Copy-2">
                                    <use fill="black" fill-opacity="1" filter="url(#filter-2)" xlink:href="#path-1"></use>
                                    <rect stroke="#D2DCEA" stroke-width="0.541149847" fill="#FFFFFF" fill-rule="evenodd" x="-0.270574924" y="-0.270574924" width="347.001718" height="211.233109" rx="8"></rect>
                                </g>
                            </g>
                        </g>
                    </g>
                </g>
                <g id="Dropdown/Standard/Small-Default-No-Title-Copy-3" transform="translate(232.000000, 14.000000)">
                    <rect id="BG" stroke="#DCDCDE" stroke-width="0.622194514" fill="#FFFFFF" x="0.928304239" y="0.311097257" width="90.3778055" height="18.0436409" rx="9.02182045"></rect>
                    <g id="Chevron-Down/10x10-Light" transform="translate(75.329177, 4.355362)" stroke="#929394" stroke-linecap="round" stroke-linejoin="round">
                        <g id="Chevron-Down/16x16-Light" transform="translate(1.866584, 3.422070)">
                            <polyline id="Shape" stroke-width="0.933291771" points="0.311097257 0.466645885 3.11097257 3.2665212 5.91084788 0.466645885"></polyline>
                        </g>
                    </g>
                    <text id="Placeholder" font-family="'Avenir-Roman', 'Arial', sans-serif" font-size="7" font-weight="normal" line-spacing="12.4438903" fill="#929394">
                        <tspan x="12.3329177" y="10.1109726">September 2021</tspan>
                    </text>
                </g>
                <polygon id="Rectangle-9-Copy-6" fill="url(#linearGradient-3)" points="54 28 55 28 55 190 54 190"></polygon>
                <polygon id="Rectangle-9-Copy-11" fill="url(#linearGradient-3)" points="24 28 25 28 25 190 24 190"></polygon>
                <polygon id="Rectangle-9-Copy" fill="url(#linearGradient-3)" points="144 28 145 28 145 190 144 190"></polygon>
                <polygon id="Rectangle-9-Copy-7" fill="url(#linearGradient-3)" points="174 28 175 28 175 190 174 190"></polygon>
                <path d="M24.9950125,167.783873 C29.5193027,164.914111 32.4268804,158.810344 41.2131211,155.969158 C54.2559914,151.751516 52.6445963,155.415548 63.9938153,151.745578 C75.3430343,148.075608 78.6589319,151.962245 90.2578079,148.211544 C101.856684,144.460843 104.476025,133.626206 117.271485,129.628256 C130.066945,125.630305 133.678251,130.189696 141.72645,127.587169 C149.77465,124.984642 155.531636,126.475509 164.533196,123.634539 C173.534755,120.79357 174.816243,113.813885 186.415119,110.063184 C191.775465,108.329821 190.385477,110.989734 197.132444,108.778701 C203.87941,106.567668 206.928552,109.925253 212.34897,108.172465 C221.580729,105.187213 226.008154,99.0651219 234.478639,96.3318173 C240.125628,94.5096142 244.631086,92.6602993 247.995012,90.7838727" id="Path-6" stroke="#3BBDC4" stroke-width="2" opacity="0.5" stroke-linecap="round" stroke-linejoin="round"></path>
                <g id="Hover" transform="translate(244.837905, 87.376559)">
                    <polygon id="Rectangle-9-Copy" fill="#FFA6BC" points="2.48877805 3.03990025 3.73316708 3.03990025 3.73316708 102.623441 2.48877805 102.623441"></polygon>
                    <circle id="Oval-6" stroke="#94D8DB" stroke-width="1.24438903" fill="#FFFFFF" cx="3.11097257" cy="3.73441397" r="2.48877805"></circle>
                </g>
                <g id="Tooltip" transform="translate(98.000000, 65.000000)">
                    <path d="M3.11097257,0 L139.371571,0 C141.089714,-3.15617695e-16 142.482544,1.39282986 142.482544,3.11097257 L142.482544,49.7755611 C142.482544,51.4937038 141.089714,52.8865337 139.371571,52.8865337 L3.11097257,52.8865337 C1.39282986,52.8865337 -1.06815088e-13,51.4937038 -1.13686838e-13,49.7755611 L-1.13686838e-13,3.11097257 C-1.1345316e-13,1.39282986 1.39282986,3.15617695e-16 3.11097257,0 Z" id="BG" fill="#282F36"></path>
                    <polygon id="Shape-Copy" fill="#282F36" fill-rule="nonzero" transform="translate(144.349127, 26.754364) rotate(-360.000000) translate(-144.349127, -26.754364) " points="142.482544 23.6433915 142.482544 29.8653367 146.215711 26.7543641"></polygon>
                    <g id="Text" transform="translate(6.466334, 6.844140)" font-family="'Avenir-Roman', 'Arial', sans-serif" font-weight="normal">
                        <text id="7:18:8:18" font-size="7.46633416" line-spacing="9.33291771" fill="#FFFFFF" fill-opacity="0.5">
                            <tspan x="20.2880299" y="34.9987531">+ 12% from this day last month </tspan>
                        </text>
                        <text id="7:18:8:18" font-size="8.71072319" line-spacing="12.4438903">
                            <tspan x="47.2589177" y="21.4438903" fill="#92E7E8">August 14th:</tspan>
                            <tspan x="97.6243192" y="21.4438903" fill="#FFFFFF"> 35,097</tspan>
                        </text>
                        <text id="7:18:8:18-copy" font-size="8.71072319" line-spacing="12.4438903">
                            <tspan x="0.408793017" y="9" fill="#A2D2FC">September 14th (Today):</tspan>
                            <tspan x="96.9410274" y="9" fill="#FFFFFF"> 54,764</tspan>
                        </text>
                    </g>
                </g>
                <path d="M24.9950125,167.783873 C28.2916994,166.773725 31.4886744,166.138318 34.5859376,165.877652 C45.9555425,164.920786 42.4146073,154.626577 59.8510087,153.159129 C77.2874101,151.69168 74.5579227,156.538513 85.0007344,155.659645 C95.443546,154.780777 97.6374796,134.498089 113.143473,133.193104 C128.649466,131.888118 131.253535,143.619149 148.359451,142.722705 C165.465367,141.82626 169.870897,150.418133 180.630158,149.512632 C191.389418,148.607132 198.314171,137.160536 210.348066,136.419358 C222.381961,135.678179 231.013103,146.302398 248.060278,144.652495 C256.464011,143.839143 258.281978,133.636972 275.639999,132.176119 C292.998021,130.715267 295.092714,117.608648 304.269731,116.836309 C310.387741,116.321417 316.629502,119.598443 322.995012,126.667388" id="Path-6" stroke="#D3D4D4" stroke-width="2" opacity="0.5" stroke-linecap="round" stroke-linejoin="round"></path>
                <polygon id="Rectangle-9" fill="url(#linearGradient-3)" points="202 28 203 28 203 190 202 190"></polygon>
                <polygon id="Rectangle-9-Copy-8" fill="url(#linearGradient-3)" points="232 28 233 28 233 190 232 190"></polygon>
                <polygon id="Rectangle-9" fill="url(#linearGradient-3)" points="262 28 263 28 263 190 262 190"></polygon>
                <polygon id="Rectangle-9-Copy-9" fill="url(#linearGradient-3)" points="292 28 293 28 293 190 292 190"></polygon>
                <polygon id="Rectangle-9-Copy-2" fill="url(#linearGradient-3)" points="322 28 323 28 323 190 322 190"></polygon>
                <polygon id="Rectangle-9-Copy" fill="url(#linearGradient-3)" points="84 28 85 28 85 190 84 190"></polygon>
                <polygon id="Rectangle-9-Copy-10" fill="url(#linearGradient-3)" points="114 28 115 28 115 190 114 190"></polygon>
                <text id="Total-Monthly-Spend-Copy" font-family="'Avenir-Black', 'Arial Black', sans-serif" font-size="12.4438903" font-weight="700" line-spacing="15.5548628" fill="#505A72">
                    <tspan x="24" y="30">Total Monthly Spend</tspan>
                </text>
            </g>
        </g>
    </g>
</svg>