<?xml version="1.0" encoding="UTF-8"?>
<svg width="34px" height="35px" viewBox="0 0 34 35" version="1.1" xmlns="http://www.w3.org/2000/svg" xmlns:xlink="http://www.w3.org/1999/xlink">
    <!-- Generator: Sketch 63 (92445) - https://sketch.com -->
    <title>Group 13</title>
    <desc>Created with Sketch.</desc>
    <defs>
        <polygon id="path-1" points="0 0.409545718 33.7873908 0.409545718 33.7873908 12.594644 0 12.594644"></polygon>
        <polygon id="path-3" points="0 0.730302693 33.798915 0.730302693 33.798915 33.175735 0 33.175735"></polygon>
    </defs>
    <g id="Home" stroke="none" stroke-width="1" fill="none" fill-rule="evenodd">
        <g id="Home-v2" transform="translate(-169.000000, -2699.000000)">
            <g id="Group-13" transform="translate(169.000000, 2699.000000)">
                <g id="Group-3" transform="translate(0.000000, 0.463762)">
                    <mask id="mask-2" fill="white">
                        <use xlink:href="#path-1"></use>
                    </mask>
                    <g id="Clip-2"></g>
                    <path d="M5.54087158,12.594644 L28.24617,12.594644 C31.3061951,12.594644 33.7873908,10.1134482 33.7873908,7.05342318 L33.7873908,5.95076651 C33.7873908,2.88986843 31.3061951,0.409545718 28.24617,0.409545718 L5.54087158,0.409545718 C2.48084654,0.409545718 -0.000349218263,2.88986843 -0.000349218263,5.95076651 L-0.000349218263,7.05342318 C-0.000349218263,10.1134482 2.48084654,12.594644 5.54087158,12.594644" id="Fill-1" fill="#2FD3BC" opacity="0.599679129" mask="url(#mask-2)"></path>
                </g>
                <g id="Group-6" transform="translate(0.000000, 1.336808)">
                    <mask id="mask-4" fill="white">
                        <use xlink:href="#path-3"></use>
                    </mask>
                    <g id="Clip-5"></g>
                    <path d="M28.5606411,25.784094 C28.5606411,26.9714361 27.5950526,27.9378976 26.4068374,27.9378976 L5.4284233,27.9378976 C5.41008934,27.9178175 5.3978667,27.9003566 5.39000929,27.888134 L5.3481031,27.8244017 L5.30357777,27.7615424 C5.23111498,27.6559038 5.19182792,27.4437538 5.3367535,27.2979551 L13.5014765,19.0581502 L14.5168286,18.0200989 L15.3436028,17.1749907 L16.5623746,15.9684416 L16.5798355,15.9509807 L16.5972964,15.9335198 L17.7968611,14.7226055 L18.6437154,13.8940851 L19.7009737,12.858653 L27.9241908,4.71051785 C27.9503821,4.68519953 28.0210988,4.61535587 28.1651514,4.61535587 C28.2210263,4.61535587 28.3057117,4.62670547 28.3842858,4.6808343 L28.4471451,4.72448658 L28.5108775,4.76639277 C28.5231001,4.77425018 28.5414341,4.78647282 28.5606411,4.80480678 L28.5606411,25.784094 Z M31.9105173,4.25740715 C31.4303421,4.0269231 30.9973115,3.75016763 30.5503121,3.4629356 C30.3337968,3.31626393 30.1129162,3.17570358 29.8885435,3.04125455 C30.2735566,3.16522704 30.3137167,3.17483054 30.0098969,3.06919201 C28.9849413,2.69378238 27.8683159,2.41004254 26.7962158,2.21884554 C25.8218968,2.0459825 25.0614741,1.48024891 24.5271701,0.730302693 C24.428516,0.814988122 24.3281157,0.898800505 24.2346998,0.993089437 L16.0132289,9.13860543 L14.9786698,10.1504653 C14.9716854,10.1487193 14.963828,10.1487193 14.9559706,10.1469732 L12.8755028,12.246648 L10.7697166,14.3332271 C10.7714627,14.3410845 10.7723358,14.3480689 10.7732088,14.3559263 L9.75785672,15.3939776 L1.6158329,23.6119564 C-0.315344092,25.5579751 -0.509160228,28.5708557 1.00033572,30.7464855 C1.79829945,31.9722416 3.06072347,32.8610021 4.5335515,33.1761715 L26.4068374,33.1761715 C30.4891989,33.1761715 33.798915,29.8664555 33.798915,25.784094 L33.798915,4.751551 C33.147623,4.70091435 32.5006961,4.54114699 31.9105173,4.25740715 L31.9105173,4.25740715 Z" id="Fill-4" fill="#FAAD13" opacity="0.60249256" mask="url(#mask-4)"></path>
                </g>
                <path d="M26.5178888,22.5229192 C26.5178888,25.3629367 24.2156674,27.6651581 21.3756499,27.6651581 C18.5356324,27.6651581 16.234284,25.3629367 16.234284,22.5229192 C16.234284,19.6829017 18.5356324,17.3806803 21.3756499,17.3806803 C24.2156674,17.3806803 26.5178888,19.6829017 26.5178888,22.5229192" id="Fill-7" fill="#6553C0"></path>
                <path d="M28.1650641,5.95207608 C28.220939,5.95207608 28.3056244,5.96342568 28.3841985,6.01755451 L28.4470578,6.06120679 L28.5107902,6.10311298 C28.5230128,6.11097039 28.5413468,6.12319303 28.5605538,6.14152699 L28.5605538,13.0420799 C31.4730341,12.8788203 33.7866051,10.4718335 33.7866051,7.51744695 L33.7866051,6.41391724 C33.7866051,3.35301916 31.3062824,0.873569486 28.2462573,0.873569486 L26.8616069,0.873569486 C25.9003836,1.10230745 24.9871779,1.58248256 24.2346125,2.32980964 L16.0131416,10.4753256 L14.9785824,11.4871856 C14.9715981,11.4854395 14.9637407,11.4854395 14.9558833,11.4836934 L13.3966237,13.0586677 L20.8480684,13.0586677 L27.9241035,6.04723806 C27.9502948,6.02191973 28.0210115,5.95207608 28.1650641,5.95207608" id="Fill-9" fill="#2FD3BC"></path>
                <path d="M30.6954996,1.44960501 C30.4213633,1.61897587 30.1192895,1.76739363 29.7866591,1.88874698 C23.5050956,4.17787269 20.1831568,11.143031 13.8291305,12.9886495 C13.7304764,13.01746 13.6335683,13.0357939 13.5366602,13.0584931 L28.2457335,13.0584931 C31.3057585,13.0584931 33.7869543,10.5772974 33.7869543,7.51727234 L33.7869543,6.41461567 C33.7869543,4.23374762 32.5254033,2.35408031 30.6954996,1.44960501" id="Fill-11" fill="#2FD3BC"></path>
            </g>
        </g>
    </g>
</svg>