<svg width="597" height="404" viewBox="0 0 597 404" xmlns="http://www.w3.org/2000/svg" xmlns:xlink="http://www.w3.org/1999/xlink">
    <defs>
        <filter x="-4.3%" y="-6.6%" width="110.8%" height="119.1%" filterUnits="objectBoundingBox" id="b">
            <feMorphology radius="4.899" in="SourceAlpha" result="shadowSpreadOuter1"/>
            <feOffset dx="6" dy="9" in="shadowSpreadOuter1" result="shadowOffsetOuter1"/>
            <feGaussianBlur stdDeviation="13.5" in="shadowOffsetOuter1" result="shadowBlurOuter1"/>
            <feComposite in="shadowBlurOuter1" in2="SourceAlpha" operator="out" result="shadowBlurOuter1"/>
            <feColorMatrix values="0 0 0 0 0.712288565 0 0 0 0 0.752844544 0 0 0 0 0.859421882 0 0 0 0.716959173 0" in="shadowBlurOuter1"/>
        </filter>
        <filter x="-5.6%" y="-16.4%" width="113.6%" height="146.4%" filterUnits="objectBoundingBox" id="i">
            <feMorphology radius="3.899" in="SourceAlpha" result="shadowSpreadOuter1"/>
            <feOffset dx="5" dy="8" in="shadowSpreadOuter1" result="shadowOffsetOuter1"/>
            <feGaussianBlur stdDeviation="12" in="shadowOffsetOuter1" result="shadowBlurOuter1"/>
            <feComposite in="shadowBlurOuter1" in2="SourceAlpha" operator="out" result="shadowBlurOuter1"/>
            <feColorMatrix values="0 0 0 0 0.743069384 0 0 0 0 0.813890002 0 0 0 0 1 0 0 0 0.716959173 0" in="shadowBlurOuter1"/>
        </filter>
        <rect id="a" x="0" y="0" width="537.351" height="304.651" rx="10.912"/>
        <rect id="h" x="0" y="0" width="397.904" height="116.803" rx="6.736"/>
        <path id="d" d="M0 0h8.886v11.734H0z"/>
        <path id="f" d="M0 0h3.56v3.56H0z"/>
    </defs>
    <g fill="none" fill-rule="evenodd">
        <g opacity=".277" transform="translate(173 339)" fill="#6C72FC">
            <circle cx="77.5" cy="2.5" r="2.5"/>
            <circle cx="77.5" cy="17.5" r="2.5"/>
            <circle cx="77.5" cy="32.5" r="2.5"/>
            <circle cx="77.5" cy="47.5" r="2.5"/>
            <circle cx="77.5" cy="62.5" r="2.5"/>
            <circle cx="107.5" cy="2.5" r="2.5"/>
            <circle cx="107.5" cy="17.5" r="2.5"/>
            <circle cx="107.5" cy="32.5" r="2.5"/>
            <circle cx="107.5" cy="47.5" r="2.5"/>
            <circle cx="107.5" cy="62.5" r="2.5"/>
            <circle cx="137.5" cy="2.5" r="2.5"/>
            <circle cx="137.5" cy="17.5" r="2.5"/>
            <circle cx="137.5" cy="32.5" r="2.5"/>
            <circle cx="137.5" cy="47.5" r="2.5"/>
            <circle cx="137.5" cy="62.5" r="2.5"/>
            <circle cx="92.5" cy="2.5" r="2.5"/>
            <circle cx="92.5" cy="17.5" r="2.5"/>
            <circle cx="92.5" cy="32.5" r="2.5"/>
            <circle cx="92.5" cy="47.5" r="2.5"/>
            <circle cx="92.5" cy="62.5" r="2.5"/>
            <circle cx="122.5" cy="2.5" r="2.5"/>
            <circle cx="122.5" cy="17.5" r="2.5"/>
            <circle cx="122.5" cy="32.5" r="2.5"/>
            <circle cx="122.5" cy="47.5" r="2.5"/>
            <circle cx="122.5" cy="62.5" r="2.5"/>
            <circle cx="152.5" cy="2.5" r="2.5"/>
            <circle cx="152.5" cy="17.5" r="2.5"/>
            <circle cx="152.5" cy="32.5" r="2.5"/>
            <circle cx="152.5" cy="47.5" r="2.5"/>
            <circle cx="152.5" cy="62.5" r="2.5"/>
            <circle cx="182.5" cy="2.5" r="2.5"/>
            <circle cx="182.5" cy="17.5" r="2.5"/>
            <circle cx="182.5" cy="32.5" r="2.5"/>
            <circle cx="182.5" cy="47.5" r="2.5"/>
            <circle cx="182.5" cy="62.5" r="2.5"/>
            <circle cx="212.5" cy="2.5" r="2.5"/>
            <circle cx="212.5" cy="17.5" r="2.5"/>
            <circle cx="212.5" cy="32.5" r="2.5"/>
            <circle cx="212.5" cy="47.5" r="2.5"/>
            <circle cx="212.5" cy="62.5" r="2.5"/>
            <circle cx="167.5" cy="2.5" r="2.5"/>
            <circle cx="167.5" cy="17.5" r="2.5"/>
            <circle cx="167.5" cy="32.5" r="2.5"/>
            <circle cx="167.5" cy="47.5" r="2.5"/>
            <circle cx="167.5" cy="62.5" r="2.5"/>
            <circle cx="197.5" cy="2.5" r="2.5"/>
            <circle cx="197.5" cy="17.5" r="2.5"/>
            <circle cx="197.5" cy="32.5" r="2.5"/>
            <circle cx="197.5" cy="47.5" r="2.5"/>
            <circle cx="197.5" cy="62.5" r="2.5"/>
            <circle cx="2.5" cy="2.5" r="2.5"/>
            <circle cx="2.5" cy="17.5" r="2.5"/>
            <circle cx="2.5" cy="32.5" r="2.5"/>
            <circle cx="2.5" cy="47.5" r="2.5"/>
            <circle cx="2.5" cy="62.5" r="2.5"/>
            <circle cx="32.5" cy="2.5" r="2.5"/>
            <circle cx="32.5" cy="17.5" r="2.5"/>
            <circle cx="32.5" cy="32.5" r="2.5"/>
            <circle cx="32.5" cy="47.5" r="2.5"/>
            <circle cx="32.5" cy="62.5" r="2.5"/>
            <circle cx="62.5" cy="2.5" r="2.5"/>
            <circle cx="62.5" cy="17.5" r="2.5"/>
            <circle cx="62.5" cy="32.5" r="2.5"/>
            <circle cx="62.5" cy="47.5" r="2.5"/>
            <circle cx="62.5" cy="62.5" r="2.5"/>
            <circle cx="17.5" cy="2.5" r="2.5"/>
            <circle cx="17.5" cy="17.5" r="2.5"/>
            <circle cx="17.5" cy="32.5" r="2.5"/>
            <circle cx="17.5" cy="47.5" r="2.5"/>
            <circle cx="17.5" cy="62.5" r="2.5"/>
            <circle cx="47.5" cy="2.5" r="2.5"/>
            <circle cx="47.5" cy="17.5" r="2.5"/>
            <circle cx="47.5" cy="32.5" r="2.5"/>
            <circle cx="47.5" cy="47.5" r="2.5"/>
            <circle cx="47.5" cy="62.5" r="2.5"/>
        </g>
        <g transform="translate(11 8)">
            <mask id="c" fill="#fff">
                <use xlink:href="#a"/>
            </mask>
            <use fill="#000" filter="url(#b)" xlink:href="#a"/>
            <rect stroke="#D2DCEA" stroke-width=".601" fill="#FFF" x="-.301" y="-.301" width="537.952" height="305.252" rx="10.912"/>
            <g mask="url(#c)">
                <path fill="#263B67" d="M0 0h57.702v324H0z"/>
                <path fill="#DCE0E6" d="M57.702 0h-.524v324h.524z"/>
                <text font-family="'Avenir-Roman', 'Arial', sans-serif" font-size="7.275" fill="#505A72" transform="translate(4.602 72.383)">
                                            <tspan x=".453" y="27.378">Control Planes</tspan>
                                        </text>
                <g stroke="#FFF" stroke-linecap="round" stroke-linejoin="round" stroke-width="1.212">
                    <path d="m28.675 72.99-6.492 2.84 6.492 2.84 6.493-2.84zM22.183 83.295l6.492 2.84 6.492-2.84M22.183 79.658l6.492 2.84 6.492-2.84"/>
                </g>
                <text font-family="'Avenir-Roman', 'Arial', sans-serif" font-size="7.275" fill="#505A72" transform="translate(4.602 117.274)">
                                            <tspan x="9.35" y="27.378">Consoles</tspan>
                                        </text>
                <g transform="translate(21.576 117.274)" stroke="#A6AEC1" stroke-linecap="round" stroke-linejoin="round" stroke-width="1.212">
                    <rect x=".909" y=".909" width="12.731" height="12.731" rx="1.212"/>
                    <path d="M.909 5.456H13.64M5.456 13.64V5.456"/>
                </g>
                <text font-family="'Avenir-Roman', 'Arial', sans-serif" font-size="7.275" fill="#505A72" transform="translate(4.602 163.165)">
                                            <tspan x="4.033" y="27.378">Repositories</tspan>
                                        </text>
                <g stroke="#A6AEC1" stroke-width="1.212">
                    <path d="M25.214 173.168h9.093v3.637h-9.093a1.819 1.819 0 1 1 0-3.637z"/>
                    <path d="M25.1 164.074h9.207v12.731H25.1c-.942 0-1.705-.712-1.705-1.591v-9.548c0-.88.763-1.592 1.705-1.592z" stroke-linecap="round" stroke-linejoin="round"/>
                </g>
                <text font-family="'Avenir-Roman', 'Arial', sans-serif" font-size="7.275" fill="#505A72" transform="translate(4.602 209.056)">
                                            <tspan x="9.965" y="27.378">All Users</tspan>
                                        </text>
                <g transform="translate(22.183 210.269)" stroke="#A6AEC1" stroke-linecap="round" stroke-linejoin="round" stroke-width="1.212">
                    <path d="M8.818 12.345V10.03a2.205 2.205 0 0 0-2.205-2.204H2.204A2.204 2.204 0 0 0 0 10.03v2.315M13.337 12.345V10.03c-.001-1.004-.68-1.882-1.654-2.133"/>
                    <circle cx="4.45" cy="2.756" r="2.756"/>
                    <path d="M9.879.09a2.756 2.756 0 0 1 0 5.338"/>
                </g>
                <g>
                    <text font-family="'Avenir-Roman', 'Arial', sans-serif" font-size="7.275" fill="#505A72" transform="translate(4.602 254.947)">
                                            <tspan x="14.006" y="27.378">Teams</tspan>
                                        </text>
                    <g stroke="#A6AEC1" stroke-linecap="round" stroke-linejoin="round" stroke-width="1.212">
                        <path d="M28.952 256.16a6.163 6.163 0 1 1 0 12.326 6.163 6.163 0 0 1 0-12.326z"/>
                        <path d="M32.628 257.978a6.046 6.046 0 0 0-1.958 4.462c0 1.716.712 3.265 1.858 4.368M25.33 266.597a6.043 6.043 0 0 0 1.742-4.251 6.044 6.044 0 0 0-1.858-4.368"/>
                    </g>
                </g>
                <g>
                    <text font-family="'Avenir-Roman', 'Arial', sans-serif" font-size="7.275" fill="#505A72" transform="translate(4.602 315.838)">
                                            <tspan x="12.653" y="27.378">Robots</tspan>
                                        </text>
                    <g transform="translate(22.183 316.444)" stroke="#A6AEC1" stroke-linecap="round" stroke-linejoin="round" stroke-width="1.212">
                        <rect width="13.337" height="13.337" rx="3.637"/>
                        <path d="M6.77 4.244a2.526 2.526 0 1 1 0 5.051 2.526 2.526 0 0 1 0-5.051z"/>
                    </g>
                </g>
                <g transform="translate(12.864 18.186)">
                    <rect fill="#6553C0" width="33.948" height="33.948" rx="6.062"/>
                    <path d="m16.723 15.253-.033 3.302c0 3.175-3.057 3.818-4.12 3.818-2.213 0-4.081-1.347-4.081-3.818v-3.49c0-.772.445-1.235 1.167-1.235.737 0 1.183.463 1.183 1.235v3.225c0 1.253.633 1.939 1.73 1.939 1.167 0 1.804-.584 1.804-1.939v-3.037c0-.772.446-1.235 1.184-1.235.72 0 1.166.463 1.166 1.235" fill="#FFF"/>
                    <g transform="translate(18.336 13.727)">
                        <mask id="e" fill="#fff">
                            <use xlink:href="#d"/>
                        </mask>
                        <path d="M6.484 4.323c0-1.304-.84-2.179-2.041-2.179-1.218 0-2.093.91-2.093 2.179 0 1.27.875 2.179 2.093 2.179 1.2 0 2.041-.893 2.041-2.18m2.402 0c0 2.626-1.579 4.324-3.963 4.324-1.08 0-1.956-.377-2.539-1.03H2.35v2.865c0 .772-.446 1.253-1.184 1.253-.72 0-1.166-.48-1.166-1.253V1.338C0 .566.446.103 1.166.103c.634 0 1.064.343 1.167.943h.034C2.95.377 3.825 0 4.923 0c2.384 0 3.963 1.698 3.963 4.323" fill="#FFF" mask="url(#e)"/>
                    </g>
                    <g transform="translate(7.88 8.487)">
                        <mask id="g" fill="#fff">
                            <use xlink:href="#f"/>
                        </mask>
                        <path d="M3.56 1.78A1.78 1.78 0 1 1 0 1.781a1.78 1.78 0 0 1 3.56 0" fill="#FFF" mask="url(#g)"/>
                    </g>
                </g>
            </g>
        </g>
        <rect x=".303" y=".303" width="406.532" height="80.006" rx="3.031" transform="translate(105.898 105.583)" fill="#FFF" stroke="#DCDCDE" stroke-width=".606"/>
        <g font-family="'Avenir-Roman', 'Arial', sans-serif">
            <text font-size="12.124" fill="#505A72" transform="translate(130.147 125.588)">
                                    <tspan x="0" y="30.186">UXP Instance</tspan>
                                </text>
            <text font-size="10.609" fill="#929394" transform="translate(130.147 125.588)">
                                    <tspan x="0" y="11">Name</tspan>
                                </text>
        </g>
        <g font-family="'Avenir-Roman', 'Arial', sans-serif">
            <text font-size="12.124" fill="#505A72" transform="translate(352.907 126.194)">
                                    <tspan x="1.318" y="30.186">Self-Hosted</tspan>
                                </text>
            <text font-size="10.609" fill="#929394" transform="translate(352.907 126.194)">
                                    <tspan x="1.017" y="11">Server</tspan>
                                </text>
        </g>
        <text font-family="'Avenir-Roman', 'Arial', sans-serif" font-size="10.184" fill="#929394" transform="translate(256.106 126.194)">
                                    <tspan x="0" y="10">Status</tspan>
                                </text>
        <path stroke="#505A72" stroke-width=".727" stroke-linecap="square" stroke-dasharray="0.7274583038551087,2.182374911565326" d="M256.563 161.263h52.086"/>
        <text font-family="'Avenir-Roman', 'Arial', sans-serif" font-size="11.639" fill="#505A72" transform="translate(256.106 143.763)">
                                            <tspan x="12" y="12">Healthy</tspan>
                                        </text>
        <path d="M259.606 149.626a3.5 3.5 0 0 1 3.5 3.5v.274a3.5 3.5 0 0 1-7 0v-.274a3.5 3.5 0 0 1 3.5-3.5z" fill="#3DC47E"/>
        <g transform="translate(468.524 144.862)" stroke="#929394" stroke-linecap="round" stroke-linejoin="round" stroke-width="1.819">
            <circle cx="9.548" cy="1.91" r="1.91"/>
            <circle cx="17.186" cy="1.91" r="1.91"/>
            <circle cx="1.91" cy="1.91" r="1.91"/>
        </g>
        <g transform="translate(105.898 199.507)" fill="#FFF" stroke="#DCDCDE" stroke-width=".606">
            <rect x=".303" y=".303" width="406.532" height="80.006" rx="3.031"/>
        </g>
        <g font-family="'Avenir-Roman', 'Arial', sans-serif">
            <text font-size="12.124" fill="#505A72" transform="translate(130.2 219.298)">
                                <tspan x="0" y="30.186">UXP - Test</tspan>
                            </text>
            <text font-size="10.609" fill="#929394" transform="translate(130.2 219.298)">
                                <tspan x="0" y="11">Name</tspan>
                            </text>
        </g>
        <g font-family="'Avenir-Roman', 'Arial', sans-serif">
            <text font-size="12.124" fill="#505A72" transform="translate(352.96 219.904)">
                                <tspan x="1.31" y="30.186">Self-Hosted</tspan>
                            </text>
            <text font-size="10.609" fill="#929394" transform="translate(352.96 219.904)">
                                <tspan x="1.013" y="11">Server</tspan>
                            </text>
        </g>
        <g>
            <text font-family="'Avenir-Roman', 'Arial', sans-serif" font-size="10.184" fill="#929394" transform="translate(256.106 219.904)">
                                <tspan x="0" y="10">Status</tspan>
                            </text>
            <path stroke="#505A72" stroke-width=".727" stroke-linecap="square" stroke-dasharray="0.7274583038551087,2.182374911565326" d="M256.563 254.973h52.086"/>
            <text font-family="'Avenir-Roman', 'Arial', sans-serif" font-size="11.639" fill="#505A72" transform="translate(256.106 237.473)">
                                        <tspan x="12" y="12">Healthy</tspan>
                                    </text>
            <path d="M259.606 243.336a3.5 3.5 0 0 1 3.5 3.5v.275a3.5 3.5 0 0 1-7 0v-.275a3.5 3.5 0 0 1 3.5-3.5z" fill="#3DC47E"/>
        </g>
        <g stroke="#929394" stroke-linecap="round" stroke-linejoin="round" stroke-width="1.819">
            <g transform="translate(468.524 238.68)">
                <circle cx="9.548" cy="1.91" r="1.91"/>
                <circle cx="17.186" cy="1.91" r="1.91"/>
                <circle cx="1.91" cy="1.91" r="1.91"/>
            </g>
        </g>
        <g>
            <text font-family="'Avenir-Black', 'Arial', sans-serif" font-size="20.46" font-weight="700" fill="#505A72" transform="translate(104.685 49.196)">
                                <tspan x=".228" y="20.016">Control Planes</tspan>
                            </text>
            <g transform="translate(369.685 49.196)">
                <rect fill="#6553C0" width="141" height="33" rx="16.5"/>
                <text font-family="'Avenir-Roman', 'Arial', sans-serif" font-size="11.457" fill="#FFF">
                                    <tspan x="32.272" y="19">Create Control </tspan>
                                    <tspan x="56.384" y="35.368">Plane</tspan>
                                </text>
            </g>
        </g>
        <g>
            <g transform="translate(178.096 239.197)">
                <use fill="#000" filter="url(#i)" xlink:href="#h"/>
                <rect stroke="#D2DCEA" stroke-width=".601" fill="#111A3D" x="-.301" y="-.301" width="398.506" height="117.404" rx="6.736"/>
            </g>
            <text font-family="Monaco" font-size="15.227" transform="translate(178.096 239.197)">
                            <tspan x="68.314" y="41.283" fill="#88F7B7">up controlplane attach $NAME --</tspan>
                            <tspan x="68.314" y="60.283" fill="#88F7B7">profile=</tspan>
                            <tspan x="141.414" y="60.283" fill="#8FACFF">&lt;PROFILE NAME&gt;</tspan>
                            <tspan x="269.338" y="60.283" fill="#88F7B7"> | up uxp </tspan>
                            <tspan x="68.314" y="79.283" fill="#88F7B7">connect -</tspan>
                        </text>
            <path d="M211.772 356.197h-25.676a8 8 0 0 1-8-8v-101a8 8 0 0 1 8-8h25.676v117z" fill="#090C2A"/>
            <path d="M190.123 314.215v-45.533a4.81 4.81 0 1 1 9.622 0v45.533a4.81 4.81 0 0 1-9.622 0z" fill="#3F4E97"/>
        </g>
        <g transform="translate(290.383 45.329)">
            <rect stroke="#2FD3BC" stroke-width=".601" fill="#2FD3BC" width="276" height="39.737" rx="19.869"/>
            <path d="M21.576 24.76c.564 0 1.086-.09 1.566-.27.48-.18.896-.437 1.247-.77.351-.332.628-.736.831-1.212.204-.475.305-1.009.305-1.6V14.7H23.78v6.139c0 .286-.037.57-.11.852a2.092 2.092 0 0 1-.368.755c-.17.222-.397.402-.679.54-.281.139-.63.208-1.046.208-.416 0-.764-.07-1.046-.208a1.896 1.896 0 0 1-.679-.54 2.092 2.092 0 0 1-.367-.755 3.346 3.346 0 0 1-.111-.852V14.7h-1.746v6.208c0 .591.1 1.125.298 1.6.199.476.476.88.831 1.213.356.332.774.589 1.254.769.48.18 1.003.27 1.566.27zm7.108-.25 2.3-3.852 2.398 3.853h2.203l-3.52-5.197 2.993-4.614H33.05l-1.995 3.353L29.03 14.7h-2.106l3.048 4.573-3.395 5.238h2.106zm9.783 0v-4.06h1.344c.517 0 1.007-.05 1.469-.152a3.615 3.615 0 0 0 1.212-.492c.347-.226.621-.524.825-.893.203-.37.305-.827.305-1.372 0-.508-.088-.942-.264-1.303a2.322 2.322 0 0 0-.748-.887 3.175 3.175 0 0 0-1.164-.498 6.98 6.98 0 0 0-1.524-.153h-3.2v9.81h1.745zm1.22-5.528h-1.22v-2.813h1.275c.268 0 .529.016.783.048.254.033.48.1.679.201.198.102.358.243.478.423s.18.413.18.7c0 .295-.06.536-.18.72-.12.185-.282.33-.485.437a2.26 2.26 0 0 1-.693.221 5.15 5.15 0 0 1-.818.063zm13.717 5.778c.84 0 1.575-.15 2.203-.45.628-.3 1.16-.723 1.594-1.268l-1.4-.984c-.25.342-.577.617-.984.824-.406.208-.872.312-1.399.312-.508 0-.965-.088-1.372-.263A3.02 3.02 0 0 1 51 22.19a3.312 3.312 0 0 1-.672-1.144 4.374 4.374 0 0 1-.236-1.468c0-.508.081-.98.243-1.414.162-.434.393-.813.693-1.136.3-.323.658-.577 1.074-.762a3.375 3.375 0 0 1 1.385-.277c.397 0 .804.08 1.22.242.415.162.752.418 1.011.77l1.33-1.054a2.854 2.854 0 0 0-.706-.665 4.761 4.761 0 0 0-.887-.464 5.005 5.005 0 0 0-.984-.277 6.003 6.003 0 0 0-3.09.27 4.983 4.983 0 0 0-1.683 1.025c-.476.444-.85.982-1.123 1.615-.272.632-.409 1.341-.409 2.127 0 .766.13 1.466.388 2.099a4.857 4.857 0 0 0 1.081 1.635 4.868 4.868 0 0 0 1.656 1.067 5.694 5.694 0 0 0 2.113.38zm6.485-.25V14.036h-1.663v10.476h1.663zm4.42.195c.499 0 .93-.128 1.296-.382.365-.254.62-.547.769-.88h.027v1.068h1.58v-6.652h-1.663v3.659c0 .221-.032.44-.097.658a1.81 1.81 0 0 1-.284.575 1.432 1.432 0 0 1-1.17.568c-.269 0-.483-.056-.645-.166a1.195 1.195 0 0 1-.381-.423 1.646 1.646 0 0 1-.18-.575 4.719 4.719 0 0 1-.042-.61V17.86h-1.662v4.157c0 .342.046.675.138.998.092.323.238.61.437.86.198.249.452.45.762.602.31.152.68.229 1.115.229zm7.607 0c.36 0 .71-.04 1.046-.118.338-.079.633-.206.887-.381.254-.176.457-.404.61-.686.152-.282.228-.626.228-1.033 0-.323-.064-.598-.194-.824a1.81 1.81 0 0 0-.505-.568 2.758 2.758 0 0 0-.693-.367 6.05 6.05 0 0 0-.755-.222c-.471-.11-.83-.22-1.074-.326-.245-.106-.367-.288-.367-.547 0-.259.11-.443.332-.554.222-.111.467-.166.735-.166.304 0 .586.071.845.214.259.144.462.312.61.506l1.08-.956c-.268-.342-.63-.596-1.087-.762a4.085 4.085 0 0 0-1.407-.25c-.332 0-.656.042-.97.125-.314.083-.596.21-.845.381-.25.171-.45.39-.603.658-.152.268-.228.587-.228.957 0 .314.055.577.166.79.11.212.259.39.443.533.185.143.395.258.63.346.236.088.479.16.728.215.508.12.89.24 1.143.36.254.12.381.319.381.596a.683.683 0 0 1-.097.374.717.717 0 0 1-.256.243c-.106.06-.222.104-.346.131a1.69 1.69 0 0 1-.367.042c-.36 0-.689-.079-.984-.236a2.187 2.187 0 0 1-.72-.596l-1.095 1.026c.323.35.73.621 1.219.81.49.19.993.285 1.51.285zm6.582-.056c.185 0 .379-.016.582-.048.203-.033.379-.077.526-.132l-.055-1.303c-.102.047-.217.081-.346.104-.13.023-.25.035-.36.035-.37 0-.608-.097-.714-.291-.106-.194-.16-.439-.16-.734v-3.09h1.663v-1.33h-1.663v-1.927h-1.635v1.926h-1.164v1.33h1.164v3.105c0 .323.03.625.09.907.06.282.171.531.333.748.162.217.381.388.658.513s.638.187 1.081.187zm5.529.056c1.247 0 2.198-.444 2.854-1.33l-1.108-.888c-.185.268-.42.479-.707.631-.286.152-.637.229-1.053.229-.24 0-.471-.042-.693-.125a2.103 2.103 0 0 1-.596-.34 1.647 1.647 0 0 1-.61-1.17h5.058c.01-.074.014-.148.014-.222v-.222c0-.6-.08-1.125-.243-1.573a3.149 3.149 0 0 0-.672-1.122 2.78 2.78 0 0 0-1.018-.679 3.512 3.512 0 0 0-1.282-.229c-.499 0-.963.086-1.392.257-.43.17-.802.41-1.116.72-.314.31-.56.684-.741 1.123-.18.439-.27.926-.27 1.462 0 .545.09 1.032.27 1.461.18.43.43.793.748 1.088.319.296.695.524 1.13.686.434.162.91.243 1.427.243zm1.496-4.185h-3.409c.037-.471.23-.857.576-1.157.346-.3.769-.45 1.267-.45.268 0 .502.043.7.131.199.088.363.206.492.354.13.147.224.318.284.512.06.194.09.397.09.61zm4.933 3.99v-3.56c0-.12.023-.282.07-.486.045-.203.133-.401.263-.595.129-.194.309-.36.54-.5.23-.138.536-.207.914-.207a1.957 1.957 0 0 1 .513.07v-1.525a.767.767 0 0 0-.194-.035 3.343 3.343 0 0 0-.208-.007c-.443 0-.831.12-1.164.36-.332.24-.59.555-.776.943h-.027v-1.109h-1.594v6.652h1.663zm11.695.25c.84 0 1.575-.15 2.203-.45.628-.3 1.16-.723 1.593-1.268l-1.4-.984c-.248.342-.576.617-.983.824-.406.208-.873.312-1.4.312-.507 0-.965-.088-1.371-.263a3.02 3.02 0 0 1-1.046-.741 3.312 3.312 0 0 1-.672-1.144 4.374 4.374 0 0 1-.236-1.468c0-.508.08-.98.243-1.414.161-.434.392-.813.692-1.136.3-.323.659-.577 1.074-.762a3.375 3.375 0 0 1 1.386-.277c.397 0 .804.08 1.22.242.415.162.752.418 1.01.77l1.331-1.054a2.854 2.854 0 0 0-.707-.665 4.761 4.761 0 0 0-.886-.464 5.005 5.005 0 0 0-.984-.277 6.003 6.003 0 0 0-3.09.27 4.983 4.983 0 0 0-1.684 1.025c-.476.444-.85.982-1.122 1.615-.273.632-.409 1.341-.409 2.127 0 .766.13 1.466.388 2.099a4.857 4.857 0 0 0 1.08 1.635 4.868 4.868 0 0 0 1.657 1.067 5.694 5.694 0 0 0 2.113.38zm7.856-.055c.5 0 .97-.088 1.414-.264a3.512 3.512 0 0 0 1.15-.727c.323-.31.58-.681.769-1.116.19-.434.284-.914.284-1.44 0-.527-.095-1.005-.284-1.435a3.353 3.353 0 0 0-.77-1.101 3.39 3.39 0 0 0-1.15-.707 3.992 3.992 0 0 0-1.413-.25c-.499 0-.97.084-1.413.25a3.39 3.39 0 0 0-1.15.707c-.323.304-.58.672-.77 1.101-.189.43-.283.908-.283 1.434 0 .527.094 1.007.284 1.441.19.435.446.806.769 1.116.323.31.707.552 1.15.727.443.176.914.264 1.413.264zm0-1.386c-.332 0-.619-.065-.859-.194a1.85 1.85 0 0 1-.596-.499 2.137 2.137 0 0 1-.353-.693 2.59 2.59 0 0 1 0-1.545 2.15 2.15 0 0 1 .353-.686c.157-.203.356-.367.596-.492.24-.124.527-.187.86-.187.332 0 .618.063.858.187.24.125.44.29.596.492.157.204.275.432.354.686a2.59 2.59 0 0 1 0 1.545c-.079.259-.197.49-.354.693a1.85 1.85 0 0 1-.596.499c-.24.13-.526.194-.859.194zm6.887 1.192v-3.659c0-.221.032-.44.097-.658a1.81 1.81 0 0 1 .284-.575c.125-.166.284-.302.478-.409.194-.106.425-.159.693-.159.268 0 .483.056.644.166.162.111.289.252.381.423.093.17.153.363.18.575.028.213.042.416.042.61v3.686h1.663v-4.157c0-.342-.047-.675-.139-.998a2.438 2.438 0 0 0-.436-.86 2.199 2.199 0 0 0-.762-.602c-.31-.152-.682-.229-1.116-.229-.499 0-.93.128-1.295.382-.365.254-.622.547-.77.88h-.027v-1.068h-1.58v6.652h1.663zm8.064 0v-3.659c0-.221.033-.44.097-.658a1.81 1.81 0 0 1 .284-.575c.125-.166.284-.302.478-.409.194-.106.425-.159.693-.159.268 0 .483.056.645.166.161.111.288.252.38.423.093.17.153.363.18.575.028.213.042.416.042.61v3.686h1.663v-4.157c0-.342-.046-.675-.138-.998a2.438 2.438 0 0 0-.437-.86 2.199 2.199 0 0 0-.762-.602c-.31-.152-.681-.229-1.116-.229-.498 0-.93.128-1.295.382-.365.254-.621.547-.77.88h-.027v-1.068h-1.58v6.652h1.663zm9.589.194c1.247 0 2.198-.444 2.854-1.33l-1.108-.888c-.185.268-.42.479-.707.631-.286.152-.637.229-1.053.229-.24 0-.471-.042-.693-.125a2.103 2.103 0 0 1-.596-.34 1.647 1.647 0 0 1-.61-1.17h5.058c.01-.074.014-.148.014-.222v-.222c0-.6-.08-1.125-.242-1.573a3.149 3.149 0 0 0-.672-1.122 2.78 2.78 0 0 0-1.019-.679 3.512 3.512 0 0 0-1.282-.229c-.498 0-.963.086-1.392.257-.43.17-.801.41-1.116.72-.314.31-.56.684-.74 1.123-.181.439-.271.926-.271 1.462 0 .545.09 1.032.27 1.461.18.43.43.793.748 1.088.32.296.696.524 1.13.686.434.162.91.243 1.427.243zm1.496-4.185h-3.408c.037-.471.228-.857.575-1.157.346-.3.769-.45 1.268-.45.268 0 .5.043.7.131.198.088.362.206.491.354.13.147.224.318.284.512.06.194.09.397.09.61zm6.485 4.185c.499 0 .963-.081 1.393-.243.43-.162.783-.39 1.06-.686l-1.04-1.053a1.478 1.478 0 0 1-.623.443 2.109 2.109 0 0 1-.776.153c-.314 0-.589-.062-.824-.187a1.795 1.795 0 0 1-.59-.492 2.15 2.15 0 0 1-.353-.686 2.59 2.59 0 0 1-.117-.769c0-.259.037-.515.11-.769.074-.254.187-.483.34-.686a1.665 1.665 0 0 1 1.379-.679c.267 0 .53.062.79.187.258.125.452.28.581.464l1.137-.997c-.268-.324-.63-.578-1.088-.762a3.757 3.757 0 0 0-1.42-.278c-.49 0-.95.084-1.38.25a3.335 3.335 0 0 0-1.898 1.815c-.189.434-.283.92-.283 1.455 0 .554.094 1.048.284 1.483.189.434.448.803.776 1.108.327.305.71.536 1.15.693.438.157.903.236 1.392.236zm5.917-.056c.185 0 .379-.016.582-.048.203-.033.379-.077.526-.132l-.055-1.303c-.102.047-.217.081-.346.104-.13.023-.25.035-.36.035-.37 0-.608-.097-.714-.291-.107-.194-.16-.439-.16-.734v-3.09h1.663v-1.33h-1.663v-1.927h-1.635v1.926h-1.164v1.33h1.164v3.105c0 .323.03.625.09.907.06.282.171.531.333.748.162.217.38.388.658.513.277.125.637.187 1.08.187zm3.187-8.05a1.1 1.1 0 0 0 .769-.285.925.925 0 0 0 .312-.713.925.925 0 0 0-.312-.714 1.1 1.1 0 0 0-.77-.284c-.304 0-.556.1-.754.298a.958.958 0 0 0-.298.7c0 .268.099.501.298.7.198.198.45.298.755.298zm.845 7.912v-6.652h-1.663v6.652h1.663zm5.252.194c.498 0 .97-.088 1.413-.264a3.512 3.512 0 0 0 1.15-.727c.323-.31.58-.681.769-1.116.19-.434.284-.914.284-1.44 0-.527-.095-1.005-.284-1.435a3.353 3.353 0 0 0-.769-1.101 3.39 3.39 0 0 0-1.15-.707 3.992 3.992 0 0 0-1.413-.25c-.5 0-.97.084-1.414.25a3.39 3.39 0 0 0-1.15.707c-.323.304-.58.672-.769 1.101-.19.43-.284.908-.284 1.434 0 .527.095 1.007.284 1.441.19.435.446.806.77 1.116.322.31.706.552 1.15.727.443.176.914.264 1.413.264zm0-1.386c-.333 0-.62-.065-.86-.194a1.85 1.85 0 0 1-.595-.499 2.137 2.137 0 0 1-.354-.693 2.59 2.59 0 0 1 0-1.545 2.15 2.15 0 0 1 .354-.686c.157-.203.355-.367.595-.492.24-.124.527-.187.86-.187.332 0 .619.063.859.187.24.125.438.29.596.492.157.204.274.432.353.686a2.59 2.59 0 0 1 0 1.545c-.079.259-.196.49-.353.693a1.85 1.85 0 0 1-.596.499c-.24.13-.527.194-.86.194zm6.886 1.192v-3.659c0-.221.033-.44.097-.658a1.81 1.81 0 0 1 .284-.575c.125-.166.284-.302.478-.409.194-.106.425-.159.693-.159.268 0 .483.056.644.166.162.111.29.252.381.423.093.17.153.363.18.575.028.213.042.416.042.61v3.686h1.663v-4.157c0-.342-.046-.675-.139-.998a2.438 2.438 0 0 0-.436-.86 2.199 2.199 0 0 0-.762-.602c-.31-.152-.681-.229-1.116-.229-.498 0-.93.128-1.295.382-.365.254-.621.547-.77.88h-.027v-1.068h-1.58v6.652h1.663zm12.582.249c.48 0 .937-.065 1.372-.194.434-.13.812-.323 1.136-.582.323-.259.582-.584.776-.977.194-.392.29-.852.29-1.379 0-.48-.09-.882-.27-1.205a2.54 2.54 0 0 0-.692-.804 3.784 3.784 0 0 0-.929-.512c-.337-.13-.662-.245-.977-.347a14.897 14.897 0 0 1-.762-.25 2.592 2.592 0 0 1-.589-.29 1.26 1.26 0 0 1-.38-.402 1.102 1.102 0 0 1-.14-.568c0-.24.054-.446.16-.617.106-.17.243-.31.409-.416.166-.106.351-.184.554-.235a2.336 2.336 0 0 1 1.628.166c.337.162.598.363.783.603l1.136-1.247a3.707 3.707 0 0 0-1.337-.79 4.664 4.664 0 0 0-1.517-.263c-.443 0-.88.058-1.31.173-.429.115-.812.291-1.15.527-.337.235-.61.533-.817.893-.208.36-.312.79-.312 1.289 0 .462.074.847.222 1.157.148.31.34.57.575.783.236.212.501.383.797.513.295.129.59.24.886.332l.873.291c.278.092.518.201.721.326.203.124.365.272.485.443.12.171.18.386.18.644 0 .268-.053.492-.16.672-.105.18-.244.33-.415.45-.17.12-.363.206-.575.257-.212.05-.42.076-.624.076-.388 0-.782-.097-1.184-.29a2.504 2.504 0 0 1-.963-.79l-1.247 1.163c.388.462.886.811 1.496 1.047a5.15 5.15 0 0 0 1.87.353zm7.635-.055c.498 0 .93-.128 1.295-.382.365-.254.621-.547.77-.88h.027v1.068h1.58v-6.652h-1.663v3.659c0 .221-.033.44-.097.658a1.81 1.81 0 0 1-.284.575 1.432 1.432 0 0 1-1.17.568c-.269 0-.484-.056-.645-.166a1.195 1.195 0 0 1-.382-.423 1.646 1.646 0 0 1-.18-.575 4.719 4.719 0 0 1-.041-.61V17.86h-1.663v4.157c0 .342.046.675.139.998.092.323.237.61.436.86.199.249.453.45.762.602.31.152.681.229 1.116.229zm8.882 0c.498 0 .963-.081 1.392-.243.43-.162.783-.39 1.06-.686l-1.04-1.053a1.478 1.478 0 0 1-.623.443 2.109 2.109 0 0 1-.776.153c-.314 0-.589-.062-.824-.187a1.795 1.795 0 0 1-.589-.492 2.15 2.15 0 0 1-.353-.686 2.59 2.59 0 0 1-.118-.769c0-.259.037-.515.11-.769.075-.254.188-.483.34-.686a1.665 1.665 0 0 1 1.379-.679c.268 0 .531.062.79.187.258.125.452.28.582.464l1.136-.997c-.268-.324-.63-.578-1.088-.762a3.757 3.757 0 0 0-1.42-.278c-.49 0-.95.084-1.379.25a3.335 3.335 0 0 0-1.898 1.815c-.19.434-.284.92-.284 1.455 0 .554.095 1.048.284 1.483.19.434.448.803.776 1.108.328.305.711.536 1.15.693.439.157.903.236 1.393.236zm6.761 0c.5 0 .963-.081 1.393-.243.43-.162.783-.39 1.06-.686l-1.04-1.053a1.478 1.478 0 0 1-.623.443 2.109 2.109 0 0 1-.776.153c-.314 0-.589-.062-.824-.187a1.795 1.795 0 0 1-.59-.492 2.15 2.15 0 0 1-.352-.686 2.59 2.59 0 0 1-.118-.769c0-.259.037-.515.11-.769.075-.254.188-.483.34-.686a1.665 1.665 0 0 1 1.379-.679c.268 0 .531.062.79.187.258.125.452.28.582.464l1.136-.997c-.268-.324-.63-.578-1.088-.762a3.757 3.757 0 0 0-1.42-.278c-.49 0-.95.084-1.379.25a3.335 3.335 0 0 0-1.898 1.815c-.19.434-.284.92-.284 1.455 0 .554.094 1.048.284 1.483.19.434.448.803.776 1.108.328.305.711.536 1.15.693.439.157.903.236 1.392.236zm6.735 0c1.247 0 2.198-.444 2.854-1.33l-1.108-.888c-.185.268-.42.479-.707.631-.287.152-.638.229-1.053.229-.24 0-.471-.042-.693-.125a2.103 2.103 0 0 1-.596-.34 1.647 1.647 0 0 1-.61-1.17h5.058c.01-.074.014-.148.014-.222v-.222c0-.6-.081-1.125-.243-1.573a3.149 3.149 0 0 0-.672-1.122 2.78 2.78 0 0 0-1.018-.679 3.512 3.512 0 0 0-1.282-.229c-.499 0-.963.086-1.392.257-.43.17-.802.41-1.116.72-.314.31-.561.684-.741 1.123-.18.439-.27.926-.27 1.462 0 .545.09 1.032.27 1.461.18.43.43.793.748 1.088.319.296.695.524 1.13.686.434.162.91.243 1.427.243zm1.496-4.185h-3.409c.037-.471.23-.857.575-1.157.347-.3.77-.45 1.268-.45.268 0 .501.043.7.131.199.088.363.206.492.354.13.147.224.318.284.512.06.194.09.397.09.61zm5.21 4.185c.36 0 .71-.04 1.046-.118.337-.079.633-.206.887-.381.254-.176.457-.404.61-.686.152-.282.228-.626.228-1.033 0-.323-.064-.598-.194-.824a1.81 1.81 0 0 0-.505-.568 2.758 2.758 0 0 0-.693-.367 6.05 6.05 0 0 0-.755-.222c-.471-.11-.83-.22-1.074-.326-.245-.106-.367-.288-.367-.547 0-.259.11-.443.332-.554.222-.111.467-.166.734-.166.305 0 .587.071.846.214.258.144.462.312.61.506l1.08-.956c-.268-.342-.63-.596-1.088-.762a4.085 4.085 0 0 0-1.406-.25c-.332 0-.656.042-.97.125-.314.083-.596.21-.845.381-.25.171-.45.39-.603.658-.152.268-.228.587-.228.957 0 .314.055.577.166.79.11.212.258.39.443.533.185.143.395.258.63.346.236.088.479.16.728.215.508.12.89.24 1.143.36.254.12.381.319.381.596a.683.683 0 0 1-.097.374.717.717 0 0 1-.256.243c-.106.06-.222.104-.346.131a1.69 1.69 0 0 1-.368.042c-.36 0-.688-.079-.983-.236a2.187 2.187 0 0 1-.721-.596l-1.095 1.026c.324.35.73.621 1.22.81.49.19.993.285 1.51.285zm6.152 0c.36 0 .71-.04 1.046-.118.338-.079.633-.206.887-.381.254-.176.458-.404.61-.686.152-.282.229-.626.229-1.033 0-.323-.065-.598-.194-.824a1.81 1.81 0 0 0-.506-.568 2.758 2.758 0 0 0-.693-.367 6.05 6.05 0 0 0-.755-.222c-.471-.11-.83-.22-1.074-.326-.245-.106-.367-.288-.367-.547 0-.259.11-.443.332-.554.222-.111.467-.166.735-.166.305 0 .586.071.845.214.259.144.462.312.61.506l1.08-.956c-.267-.342-.63-.596-1.087-.762a4.085 4.085 0 0 0-1.407-.25c-.332 0-.656.042-.97.125-.314.083-.595.21-.845.381s-.45.39-.603.658c-.152.268-.228.587-.228.957 0 .314.055.577.166.79.11.212.259.39.443.533.185.143.395.258.63.346.236.088.479.16.728.215.508.12.89.24 1.143.36.255.12.382.319.382.596a.683.683 0 0 1-.097.374.717.717 0 0 1-.257.243c-.106.06-.222.104-.346.131a1.69 1.69 0 0 1-.367.042c-.36 0-.689-.079-.984-.236a2.187 2.187 0 0 1-.72-.596l-1.095 1.026c.323.35.73.621 1.219.81.49.19.993.285 1.51.285zm6.139-.194V19.19h1.538v-1.33h-1.538v-1.081c0-.167.014-.337.041-.513.028-.176.081-.337.16-.485a.94.94 0 0 1 .34-.36c.147-.093.34-.139.581-.139.12 0 .233.01.34.028.106.018.205.041.297.07l.111-1.414a2.319 2.319 0 0 0-.38-.076 4.317 4.317 0 0 0-.465-.021c-.517 0-.947.08-1.289.242a2.166 2.166 0 0 0-.824.659 2.596 2.596 0 0 0-.443.963 4.873 4.873 0 0 0-.132 1.143v.983h-1.261v1.33h1.26v5.322h1.664zm4.96.194c.5 0 .93-.128 1.296-.382.365-.254.621-.547.769-.88h.028v1.068h1.58v-6.652h-1.664v3.659c0 .221-.032.44-.097.658a1.81 1.81 0 0 1-.284.575 1.432 1.432 0 0 1-1.17.568c-.268 0-.483-.056-.645-.166a1.195 1.195 0 0 1-.38-.423 1.646 1.646 0 0 1-.181-.575 4.719 4.719 0 0 1-.042-.61V17.86h-1.662v4.157c0 .342.046.675.138.998.093.323.238.61.437.86.198.249.452.45.762.602.31.152.681.229 1.115.229zm7.358-.194V14.035h-1.663v10.476h1.663z" fill="#FFF" fill-rule="nonzero"/>
            <path d="M243.33 8.65h20.773v20.732H243.33z"/>
            <path stroke="#FFF" stroke-width="1.801" stroke-linecap="round" stroke-linejoin="round" d="m247.847 19.467 4.214 4.507 8.43-9.014"/>
        </g>
    </g>
</svg>
