<svg width="275" height="176" viewBox="0 0 275 176" xmlns="http://www.w3.org/2000/svg" xmlns:xlink="http://www.w3.org/1999/xlink">
    <defs>
        <filter x="-4%" y="-6.4%" width="110.5%" height="118.6%" filterUnits="objectBoundingBox" id="b">
            <feMorphology radius="1.996" in="SourceAlpha" result="shadowSpreadOuter1"/>
            <feOffset dx="3" dy="4" in="shadowSpreadOuter1" result="shadowOffsetOuter1"/>
            <feGaussianBlur stdDeviation="6" in="shadowOffsetOuter1" result="shadowBlurOuter1"/>
            <feComposite in="shadowBlurOuter1" in2="SourceAlpha" operator="out" result="shadowBlurOuter1"/>
            <feColorMatrix values="0 0 0 0 0.712288565 0 0 0 0 0.752844544 0 0 0 0 0.859421882 0 0 0 0.716959173 0" in="shadowBlurOuter1"/>
        </filter>
        <filter x="-6%" y="-16.8%" width="114.2%" height="148.4%" filterUnits="objectBoundingBox" id="i">
            <feMorphology radius="1.496" in="SourceAlpha" result="shadowSpreadOuter1"/>
            <feOffset dx="2" dy="4" in="shadowSpreadOuter1" result="shadowOffsetOuter1"/>
            <feGaussianBlur stdDeviation="5.5" in="shadowOffsetOuter1" result="shadowBlurOuter1"/>
            <feComposite in="shadowBlurOuter1" in2="SourceAlpha" operator="out" result="shadowBlurOuter1"/>
            <feColorMatrix values="0 0 0 0 0.743069384 0 0 0 0 0.813890002 0 0 0 0 1 0 0 0 0.716959173 0" in="shadowBlurOuter1"/>
        </filter>
        <rect id="a" x="0" y="0" width="247.277" height="140.069" rx="5.021"/>
        <rect id="h" x="0" y="0" width="183.106" height="53.702" rx="3.1"/>
        <path id="d" d="M0 0h4.089v5.4H0z"/>
        <path id="f" d="M0 0h1.638v1.639H0z"/>
    </defs>
    <g fill="none" fill-rule="evenodd">
        <g transform="translate(5 4)">
            <mask id="c" fill="#fff">
                <use xlink:href="#a"/>
            </mask>
            <use fill="#000" filter="url(#b)" xlink:href="#a"/>
            <rect stroke="#D2DCEA" stroke-width=".504" fill="#FFF" x="-.252" y="-.252" width="247.78" height="140.573" rx="5.021"/>
            <g mask="url(#c)">
                <path fill="#263B67" d="M0 0h26.553v553.633H0z"/>
                <path fill="#DCE0E6" d="M26.553 0h-.241v553.633h.241z"/>
                <text font-family="'Avenir-Roman', 'Arial', sans-serif" font-size="3.348" fill="#505A72" transform="translate(2.118 35.15)">
                                    <tspan x=".209" y="12.378">Control Planes</tspan>
                                </text>
                <g stroke="#FFF" stroke-linecap="round" stroke-linejoin="round" stroke-width=".558">
                    <path d="m13.196 35.429-2.988 1.307 2.988 1.307 2.987-1.307zM10.208 40.171l2.988 1.307 2.987-1.307M10.208 38.497l2.988 1.307 2.987-1.307"/>
                </g>
                <text font-family="'Avenir-Roman', 'Arial', sans-serif" font-size="3.348" fill="#505A72" transform="translate(2.118 57.188)">
                                    <tspan x="4.303" y="12.378">Consoles</tspan>
                                </text>
                <g transform="translate(9.929 57.188)" stroke="#A6AEC1" stroke-linecap="round" stroke-linejoin="round" stroke-width=".558">
                    <rect x=".418" y=".418" width="5.858" height="5.858" rx=".558"/>
                    <path d="M.418 2.511h5.859M2.511 6.277V2.511"/>
                </g>
                <text font-family="'Avenir-Roman', 'Arial', sans-serif" font-size="3.348" fill="#505A72" transform="translate(2.118 79.226)">
                                    <tspan x="1.856" y="12.378">Repositories</tspan>
                                </text>
                <g stroke="#A6AEC1" stroke-width=".558">
                    <path d="M11.603 83.83h4.184v1.673h-4.184a.837.837 0 1 1 0-1.674z"/>
                    <path d="M11.55 79.645h4.237v5.858H11.55c-.433 0-.784-.328-.784-.732v-4.394c0-.404.351-.732.784-.732z" stroke-linecap="round" stroke-linejoin="round"/>
                </g>
                <text font-family="'Avenir-Roman', 'Arial', sans-serif" font-size="3.348" fill="#505A72" transform="translate(2.118 101.265)">
                                    <tspan x="4.586" y="12.378">All Users</tspan>
                                </text>
                <g transform="translate(10.208 101.823)" stroke="#A6AEC1" stroke-linecap="round" stroke-linejoin="round" stroke-width=".558">
                    <path d="M4.058 5.68V4.617A1.015 1.015 0 0 0 3.043 3.6H1.014C.454 3.601 0 4.055 0 4.616V5.68M6.137 5.68V4.617c0-.463-.313-.866-.76-.982"/>
                    <circle cx="2.048" cy="1.268" r="1.268"/>
                    <path d="M4.546.041a1.268 1.268 0 0 1 0 2.457"/>
                </g>
                <g>
                    <text font-family="'Avenir-Roman', 'Arial', sans-serif" font-size="3.348" fill="#505A72" transform="translate(2.118 123.303)">
                                    <tspan x="6.445" y="12.378">Teams</tspan>
                                </text>
                    <g stroke="#A6AEC1" stroke-linecap="round" stroke-linejoin="round" stroke-width=".558">
                        <path d="M13.323 123.861a2.836 2.836 0 1 1 0 5.672 2.836 2.836 0 0 1 0-5.672z"/>
                        <path d="M15.015 124.698a2.782 2.782 0 0 0-.902 2.053c0 .79.328 1.503.855 2.01M11.657 128.664a2.78 2.78 0 0 0 .8-1.956c0-.79-.327-1.503-.854-2.01"/>
                    </g>
                </g>
                <g>
                    <text font-family="'Avenir-Roman', 'Arial', sans-serif" font-size="3.348" fill="#505A72" transform="translate(2.118 145.341)">
                                    <tspan x="5.823" y="12.378">Robots</tspan>
                                </text>
                    <g transform="translate(10.208 145.62)" stroke="#A6AEC1" stroke-linecap="round" stroke-linejoin="round" stroke-width=".558">
                        <rect width="6.137" height="6.137" rx="1.674"/>
                        <path d="M3.115 1.953a1.162 1.162 0 1 1 0 2.324 1.162 1.162 0 0 1 0-2.324z"/>
                    </g>
                </g>
                <g stroke="#A6AEC1" stroke-linecap="round" stroke-linejoin="round" stroke-width=".558">
                    <path d="M10.208 172.68c.508 0 .92-.45.92-1.004v-1.674c0-1.294.962-2.343 2.149-2.343 1.186 0 2.148 1.049 2.148 2.343v1.674c0 .555.412 1.004.92 1.004h-6.137z"/>
                </g>
                <g transform="translate(5.92 8.369)">
                    <rect fill="#6553C0" width="15.622" height="15.622" rx="2.79"/>
                    <path d="m7.695 7.019-.015 1.52c0 1.46-1.406 1.757-1.896 1.757-1.018 0-1.878-.62-1.878-1.757V6.933c0-.356.205-.569.537-.569.34 0 .545.213.545.569v1.484c0 .576.291.892.796.892.537 0 .83-.269.83-.892V7.019c0-.355.205-.568.545-.568.331 0 .536.213.536.568" fill="#FFF"/>
                    <g transform="translate(8.438 6.317)">
                        <mask id="e" fill="#fff">
                            <use xlink:href="#d"/>
                        </mask>
                        <path d="M2.984 1.99c0-.6-.387-1.003-.94-1.003-.56 0-.963.418-.963 1.002 0 .584.403 1.003.964 1.003.552 0 .939-.41.939-1.003m1.105 0c0 1.208-.726 1.99-1.824 1.99-.497 0-.9-.174-1.168-.474h-.016v1.318c0 .355-.205.577-.544.577C.205 5.4 0 5.178 0 4.823V.616C0 .26.205.047.537.047c.292 0 .489.158.536.434h.016C1.358.174 1.76 0 2.265 0 3.363 0 4.09.781 4.09 1.99" fill="#FFF" mask="url(#e)"/>
                    </g>
                    <g transform="translate(3.627 3.906)">
                        <mask id="g" fill="#fff">
                            <use xlink:href="#f"/>
                        </mask>
                        <path d="M1.638.82A.82.82 0 1 1 0 .82a.82.82 0 0 1 1.638 0" fill="#FFF" mask="url(#g)"/>
                    </g>
                </g>
            </g>
        </g>
        <rect x=".25" y=".25" width="186.856" height="36.563" rx="1.395" transform="translate(48.67 48.866)" fill="#FFF" stroke="#DCDCDE" stroke-width=".5"/>
        <g font-family="'Avenir-Roman', 'Arial', sans-serif">
            <text font-size="5.579" fill="#505A72" transform="translate(59.829 58.072)">
                                <tspan x="0" y="14.369">UXP Instance</tspan>
                            </text>
            <text font-size="4.882" fill="#929394" transform="translate(59.829 58.072)">
                                <tspan x="0" y="5">Name</tspan>
                            </text>
        </g>
        <g font-family="'Avenir-Roman', 'Arial', sans-serif">
            <text font-size="5.579" fill="#505A72" transform="translate(162.338 58.35)">
                                <tspan x=".606" y="14.369">Self-Hosted</tspan>
                            </text>
            <text font-size="4.882" fill="#929394" transform="translate(162.338 58.35)">
                                <tspan x="0" y="5">Server</tspan>
                            </text>
        </g>
        <text font-family="'Avenir-Roman', 'Arial', sans-serif" font-size="4.687" fill="#929394" transform="translate(117.792 58.35)">
                                <tspan x="0" y="5">Status</tspan>
                            </text>
        <path stroke="#505A72" stroke-width=".5" stroke-linecap="square" stroke-dasharray="0.3347595734554482,1.004278720366345" d="M118.008 73.935h24.568"/>
        <text font-family="'Avenir-Roman', 'Arial', sans-serif" font-size="5.356" fill="#505A72" transform="translate(117.792 66.435)">
                                        <tspan x="8" y="5">Healthy</tspan>
                                    </text>
        <path d="M119.292 69.262a1.5 1.5 0 0 1 1.5 1.5v.347a1.5 1.5 0 0 1-3 0v-.347a1.5 1.5 0 0 1 1.5-1.5z" fill="#3DC47E"/>
        <g transform="translate(215.542 66.98)" stroke="#929394" stroke-linecap="round" stroke-linejoin="round" stroke-width=".837">
            <circle cx="4.394" cy=".879" r="1"/>
            <circle cx="7.909" cy=".879" r="1"/>
            <circle cx=".879" cy=".879" r="1"/>
        </g>
        <g transform="translate(48.67 92.05)" fill="#FFF" stroke="#DCDCDE" stroke-width=".5">
            <rect x=".25" y=".25" width="186.856" height="36.563" rx="1.395"/>
        </g>
        <g font-family="'Avenir-Roman', 'Arial', sans-serif">
            <text font-size="5.579" fill="#505A72" transform="translate(59.853 101.235)">
                            <tspan x="0" y="14.369">UXP - Test</tspan>
                        </text>
            <text font-size="4.882" fill="#929394" transform="translate(59.853 101.235)">
                            <tspan x="0" y="5">Name</tspan>
                        </text>
        </g>
        <g font-family="'Avenir-Roman', 'Arial', sans-serif">
            <text font-size="5.579" fill="#505A72" transform="translate(162.362 101.514)">
                            <tspan x=".603" y="14.369">Self-Hosted</tspan>
                        </text>
            <text font-size="4.882" fill="#929394" transform="translate(162.362 101.514)">
                            <tspan x="0" y="5">Server</tspan>
                        </text>
        </g>
        <g>
            <text font-family="'Avenir-Roman', 'Arial', sans-serif" font-size="4.687" fill="#929394" transform="translate(117.792 101.514)">
                            <tspan x="0" y="5">Status</tspan>
                        </text>
            <path stroke="#505A72" stroke-width=".5" stroke-linecap="square" stroke-dasharray="0.3347595734554482,1.004278720366345" d="M118.008 117.098h24.568"/>
            <text font-family="'Avenir-Roman', 'Arial', sans-serif" font-size="5.356" fill="#505A72" transform="translate(117.792 109.598)">
                                    <tspan x="8" y="5">Healthy</tspan>
                                </text>
            <path d="M119.292 112.424a1.5 1.5 0 0 1 1.5 1.5v.348a1.5 1.5 0 0 1-3 0v-.348a1.5 1.5 0 0 1 1.5-1.5z" fill="#3DC47E"/>
        </g>
        <g stroke="#929394" stroke-linecap="round" stroke-linejoin="round" stroke-width=".837">
            <g transform="translate(215.542 110.154)">
                <circle cx="4.394" cy=".879" r="1"/>
                <circle cx="7.909" cy=".879" r="1"/>
                <circle cx=".879" cy=".879" r="1"/>
            </g>
        </g>
        <g>
            <text font-family="'Avenir-Black', 'Arial', sans-serif" font-size="9.415" font-weight="700" fill="#505A72" transform="translate(48.112 22.94)">
                            <tspan x=".105" y="9.002">Control Planes</tspan>
                        </text>
            <g transform="translate(170.112 22.94)">
                <rect fill="#6553C0" width="64" height="15" rx="7.5"/>
                <text font-family="'Avenir-Roman', 'Arial', sans-serif" font-size="5.272" fill="#FFF">
                                <tspan x="24.036" y="9">Create </tspan>
                                <tspan x="23.105" y="16.532">Control </tspan>
                                <tspan x="25.504" y="24.064">Plane</tspan>
                            </text>
            </g>
        </g>
        <g>
            <g transform="translate(81.894 110.298)">
                <use fill="#000" filter="url(#i)" xlink:href="#h"/>
                <rect stroke="#D2DCEA" stroke-width=".504" fill="#111A3D" x="-.252" y="-.252" width="183.61" height="54.206" rx="3.1"/>
            </g>
            <text font-family="Monaco" font-size="7.007" transform="translate(81.894 110.298)">
                        <tspan x="31.437" y="19.071" fill="#88F7B7">up controlplane attach $NAME --</tspan>
                        <tspan x="31.437" y="28.071" fill="#88F7B7">profile=</tspan>
                        <tspan x="65.075" y="28.071" fill="#8FACFF">&lt;PROFILE NAME&gt;</tspan>
                        <tspan x="123.943" y="28.071" fill="#88F7B7"> | up uxp </tspan>
                        <tspan x="31.437" y="37.071" fill="#88F7B7">connect -</tspan>
                    </text>
            <path d="M97.39 163.998H84.895a3 3 0 0 1-3-3v-47.7a3 3 0 0 1 3-3H97.39v53.7z" fill="#090C2A"/>
            <path d="M87.428 144.787v-20.931a2.214 2.214 0 0 1 4.428 0v20.93a2.214 2.214 0 0 1-4.428 0z" fill="#3F4E97"/>
        </g>
        <g transform="translate(131.574 21.163)">
            <rect stroke="#2FD3BC" stroke-width=".504" fill="#2FD3BC" width="129" height="18.27" rx="9.135"/>
            <path d="M11.46 11.527c.26 0 .5-.041.72-.124.221-.083.413-.201.574-.354.162-.153.29-.34.383-.558.093-.22.14-.465.14-.737V6.898h-.803v2.824c0 .132-.017.263-.051.393a.963.963 0 0 1-.17.347.872.872 0 0 1-.312.249c-.13.064-.29.095-.481.095s-.352-.031-.482-.095a.872.872 0 0 1-.312-.249.963.963 0 0 1-.169-.347 1.54 1.54 0 0 1-.051-.393V6.898h-.803v2.856c0 .272.045.518.137.737.091.219.219.405.382.558.164.153.356.27.577.354.221.083.461.124.72.124zm3.27-.115 1.06-1.772 1.102 1.772h1.014l-1.62-2.39 1.378-2.124h-.925l-.918 1.543-.93-1.543h-.97l1.403 2.104-1.562 2.41h.969zm4.503 0V9.544h.618c.238 0 .463-.023.676-.07.213-.047.399-.122.558-.227.16-.104.286-.24.38-.41.093-.17.14-.381.14-.632 0-.234-.04-.434-.122-.6a1.069 1.069 0 0 0-.344-.408 1.46 1.46 0 0 0-.535-.23 3.212 3.212 0 0 0-.702-.07H18.43v4.515h.804zm.56-2.544h-.56V7.574h.586c.124 0 .244.007.36.022a.942.942 0 0 1 .313.092.573.573 0 0 1 .22.195.57.57 0 0 1 .083.322.599.599 0 0 1-.083.331.583.583 0 0 1-.223.201 1.04 1.04 0 0 1-.32.102 2.37 2.37 0 0 1-.375.03zm6.313 2.659c.387 0 .725-.07 1.014-.207.29-.138.534-.333.733-.584l-.644-.452a1.259 1.259 0 0 1-.452.379 1.395 1.395 0 0 1-.644.143c-.234 0-.445-.04-.632-.12a1.39 1.39 0 0 1-.481-.342 1.524 1.524 0 0 1-.31-.526 2.013 2.013 0 0 1-.108-.676c0-.234.038-.45.112-.65.074-.2.18-.374.319-.523a1.495 1.495 0 0 1 1.132-.478c.182 0 .37.037.56.111.192.075.347.193.466.354l.612-.484a1.313 1.313 0 0 0-.325-.306 2.191 2.191 0 0 0-.86-.342 2.762 2.762 0 0 0-1.422.124c-.298.111-.556.269-.775.473a2.18 2.18 0 0 0-.517.742 2.45 2.45 0 0 0-.188.98c0 .352.06.674.179.965.119.291.284.542.497.753.213.21.466.374.762.49.295.118.62.176.972.176zm2.984-.115v-4.82h-.765v4.82h.765zm2.035.09c.23 0 .428-.059.596-.176a.99.99 0 0 0 .354-.405h.012v.491h.727v-3.06h-.765v1.683c0 .102-.015.203-.045.303a.833.833 0 0 1-.13.264.667.667 0 0 1-.539.262.515.515 0 0 1-.297-.077.55.55 0 0 1-.175-.194.757.757 0 0 1-.083-.265 2.171 2.171 0 0 1-.019-.28V8.352h-.765v1.912c0 .158.021.31.064.46.042.148.11.28.2.395.092.115.209.207.351.277.143.07.314.106.514.106zm3.5 0c.166 0 .326-.019.482-.055.155-.036.29-.094.408-.175a.894.894 0 0 0 .385-.79.753.753 0 0 0-.322-.642 1.27 1.27 0 0 0-.318-.169 2.784 2.784 0 0 0-.348-.102 3.092 3.092 0 0 1-.494-.15c-.113-.048-.169-.132-.169-.251 0-.12.051-.204.153-.255a.745.745 0 0 1 .338-.077.883.883 0 0 1 .67.332l.497-.44a1.093 1.093 0 0 0-.5-.35 1.88 1.88 0 0 0-.648-.116c-.153 0-.302.02-.446.058a1.246 1.246 0 0 0-.39.175.903.903 0 0 0-.277.303.875.875 0 0 0-.105.44.78.78 0 0 0 .077.363c.05.098.119.18.204.246.085.066.181.119.29.16.108.04.22.073.335.098.233.055.409.11.526.166a.283.283 0 0 1 .175.274.314.314 0 0 1-.045.172.33.33 0 0 1-.118.112.576.576 0 0 1-.159.06.95.95 0 0 1-.622-.09 1.006 1.006 0 0 1-.331-.273l-.504.472c.149.161.336.286.561.373.225.087.457.13.695.13zm3.029-.026a1.706 1.706 0 0 0 .51-.083l-.025-.6a.668.668 0 0 1-.16.049.947.947 0 0 1-.166.015c-.17 0-.28-.044-.328-.133a.698.698 0 0 1-.073-.338V8.964h.765v-.612h-.765v-.887h-.753v.887h-.535v.612h.535v1.428c0 .149.014.288.042.418.027.13.078.244.153.344.074.1.175.179.303.236.127.057.293.086.497.086zm2.544.026c.574 0 1.012-.205 1.314-.613l-.51-.408a.908.908 0 0 1-.326.29 1.02 1.02 0 0 1-.484.106.9.9 0 0 1-.32-.058.968.968 0 0 1-.273-.156.771.771 0 0 1-.28-.539h2.327a.822.822 0 0 0 .006-.102V9.92c0-.276-.037-.517-.112-.724a1.449 1.449 0 0 0-.309-.516 1.28 1.28 0 0 0-.469-.312 1.616 1.616 0 0 0-.59-.106c-.229 0-.443.04-.64.118-.198.079-.369.19-.514.332a1.531 1.531 0 0 0-.34.516 1.756 1.756 0 0 0-.125.673c0 .25.041.475.124.673.083.197.198.364.345.5.146.136.32.242.52.316.2.074.418.112.656.112zm.689-1.926h-1.569a.755.755 0 0 1 .265-.533.86.86 0 0 1 .583-.207c.124 0 .23.02.322.06a.638.638 0 0 1 .357.4c.028.089.042.182.042.28zm2.27 1.836V9.774c0-.056.01-.13.032-.224a.822.822 0 0 1 .12-.274.765.765 0 0 1 .25-.23.812.812 0 0 1 .42-.095.9.9 0 0 1 .236.032V8.28a.353.353 0 0 0-.089-.016 1.538 1.538 0 0 0-.096-.003.89.89 0 0 0-.535.166c-.153.11-.272.255-.357.434h-.013v-.51h-.733v3.06h.765zm5.381.115c.387 0 .725-.07 1.014-.207.29-.138.534-.333.734-.584l-.644-.452a1.259 1.259 0 0 1-.453.379 1.395 1.395 0 0 1-.644.143c-.234 0-.444-.04-.631-.12a1.39 1.39 0 0 1-.482-.342 1.524 1.524 0 0 1-.31-.526 2.013 2.013 0 0 1-.108-.676c0-.234.038-.45.112-.65.074-.2.18-.374.319-.523a1.495 1.495 0 0 1 1.132-.478c.182 0 .37.037.56.111.192.075.347.193.466.354l.612-.484a1.313 1.313 0 0 0-.325-.306 2.191 2.191 0 0 0-.86-.342 2.762 2.762 0 0 0-1.422.124c-.298.111-.556.269-.775.473a2.18 2.18 0 0 0-.517.742 2.45 2.45 0 0 0-.188.98c0 .352.06.674.179.965.119.291.284.542.497.753.213.21.467.374.762.49.295.118.62.176.972.176zm3.616-.025c.23 0 .446-.04.65-.122.204-.08.38-.192.53-.334a1.57 1.57 0 0 0 .353-.514c.087-.2.131-.42.131-.663 0-.242-.044-.462-.13-.66a1.543 1.543 0 0 0-.355-.507 1.56 1.56 0 0 0-.529-.325 1.837 1.837 0 0 0-.65-.115c-.23 0-.447.039-.65.115a1.56 1.56 0 0 0-.53.325c-.149.14-.267.31-.354.507-.087.198-.13.418-.13.66 0 .242.043.463.13.663a1.57 1.57 0 0 0 .883.848c.204.081.421.122.65.122zm0-.638a.823.823 0 0 1-.67-.319.983.983 0 0 1-.162-.319 1.192 1.192 0 0 1 0-.711.99.99 0 0 1 .162-.315.817.817 0 0 1 .274-.227.848.848 0 0 1 .396-.086c.153 0 .285.029.395.086.11.058.202.133.274.227a.99.99 0 0 1 .163.315 1.192 1.192 0 0 1 0 .711.983.983 0 0 1-.163.319.823.823 0 0 1-.67.319zm3.169.548V9.73c0-.102.015-.203.045-.303.03-.1.073-.188.13-.265a.654.654 0 0 1 .539-.261c.123 0 .222.025.297.076a.55.55 0 0 1 .175.195c.042.079.07.167.083.265.013.097.019.19.019.28v1.696h.765V9.5c0-.157-.021-.31-.064-.459a1.122 1.122 0 0 0-.2-.395 1.012 1.012 0 0 0-.351-.277 1.152 1.152 0 0 0-.514-.106c-.23 0-.428.059-.596.176a.99.99 0 0 0-.354.405h-.012v-.491h-.727v3.06h.765zm3.71 0V9.73c0-.102.016-.203.046-.303.03-.1.073-.188.13-.265a.654.654 0 0 1 .539-.261c.123 0 .222.025.297.076a.55.55 0 0 1 .175.195c.042.079.07.167.083.265.013.097.019.19.019.28v1.696h.765V9.5c0-.157-.021-.31-.064-.459a1.122 1.122 0 0 0-.2-.395 1.012 1.012 0 0 0-.351-.277 1.152 1.152 0 0 0-.514-.106c-.23 0-.428.059-.596.176a.99.99 0 0 0-.354.405h-.012v-.491h-.727v3.06h.765zm4.413.09c.574 0 1.012-.205 1.314-.613l-.51-.408a.908.908 0 0 1-.325.29 1.02 1.02 0 0 1-.485.106.9.9 0 0 1-.319-.058.968.968 0 0 1-.274-.156.77.77 0 0 1-.28-.539h2.327a.822.822 0 0 0 .006-.102V9.92c0-.276-.037-.517-.111-.724a1.449 1.449 0 0 0-.31-.516 1.28 1.28 0 0 0-.468-.312 1.616 1.616 0 0 0-.59-.106c-.23 0-.443.04-.641.118-.198.079-.369.19-.513.332a1.531 1.531 0 0 0-.341.516 1.756 1.756 0 0 0-.125.673c0 .25.042.475.125.673.082.197.197.364.344.5.147.136.32.242.52.316.2.074.418.112.656.112zm.689-1.926h-1.569a.755.755 0 0 1 .265-.533.86.86 0 0 1 .583-.207c.124 0 .231.02.322.06a.638.638 0 0 1 .358.4c.027.089.041.182.041.28zm2.984 1.926c.23 0 .443-.038.641-.112.198-.074.36-.18.488-.316l-.478-.484a.68.68 0 0 1-.287.204.97.97 0 0 1-.357.07.8.8 0 0 1-.65-.313.99.99 0 0 1-.163-.315 1.192 1.192 0 0 1-.004-.708.975.975 0 0 1 .157-.316.766.766 0 0 1 .634-.312c.123 0 .244.029.363.086a.675.675 0 0 1 .268.214l.523-.46a1.235 1.235 0 0 0-.5-.35 1.729 1.729 0 0 0-.654-.128c-.225 0-.437.039-.634.115a1.535 1.535 0 0 0-.874.835c-.087.2-.13.423-.13.67 0 .255.043.482.13.682.087.2.206.37.357.51s.327.247.53.32c.201.071.415.108.64.108zm2.723-.026a1.706 1.706 0 0 0 .51-.083l-.026-.6a.668.668 0 0 1-.159.049.947.947 0 0 1-.166.015c-.17 0-.28-.044-.328-.133a.698.698 0 0 1-.073-.338V8.964h.765v-.612H69.6v-.887h-.753v.887h-.535v.612h.535v1.428c0 .149.014.288.042.418.027.13.078.244.153.344.074.1.175.179.303.236.127.057.293.086.497.086zm1.466-3.705c.14 0 .259-.043.354-.13a.425.425 0 0 0 .144-.329.425.425 0 0 0-.144-.328.506.506 0 0 0-.354-.13.47.47 0 0 0-.484.458.47.47 0 0 0 .485.46zm.39 3.641v-3.06h-.766v3.06h.765zm2.416.09c.23 0 .446-.04.65-.122.204-.08.38-.192.53-.334a1.57 1.57 0 0 0 .354-.514c.087-.2.13-.42.13-.663 0-.242-.043-.462-.13-.66a1.543 1.543 0 0 0-.354-.507 1.56 1.56 0 0 0-.53-.325 1.837 1.837 0 0 0-.65-.115c-.23 0-.446.039-.65.115a1.56 1.56 0 0 0-.53.325c-.148.14-.266.31-.353.507-.088.198-.131.418-.131.66 0 .242.043.463.13.663a1.57 1.57 0 0 0 .884.848c.204.081.42.122.65.122zm0-.638a.823.823 0 0 1-.67-.319.983.983 0 0 1-.162-.319 1.192 1.192 0 0 1 0-.711.99.99 0 0 1 .163-.315.817.817 0 0 1 .274-.227.848.848 0 0 1 .395-.086c.153 0 .285.029.395.086.11.058.202.133.275.227a.99.99 0 0 1 .162.315 1.192 1.192 0 0 1 0 .711.983.983 0 0 1-.162.319.823.823 0 0 1-.67.319zm3.17.548V9.73c0-.102.014-.203.044-.303.03-.1.073-.188.13-.265a.654.654 0 0 1 .539-.261c.124 0 .222.025.297.076a.55.55 0 0 1 .175.195c.043.079.07.167.083.265.013.097.02.19.02.28v1.696h.764V9.5c0-.157-.021-.31-.063-.459a1.122 1.122 0 0 0-.201-.395 1.012 1.012 0 0 0-.351-.277 1.152 1.152 0 0 0-.513-.106c-.23 0-.429.059-.597.176a.99.99 0 0 0-.353.405h-.013v-.491h-.727v3.06h.765zm5.789.115a2.2 2.2 0 0 0 .631-.09c.2-.059.374-.148.523-.267a1.31 1.31 0 0 0 .357-.45c.09-.18.134-.392.134-.634 0-.221-.041-.406-.124-.555a1.17 1.17 0 0 0-.32-.37 1.741 1.741 0 0 0-.426-.236 8.953 8.953 0 0 0-.45-.159 6.855 6.855 0 0 1-.35-.115 1.193 1.193 0 0 1-.272-.134.507.507 0 0 1-.24-.446c.001-.11.026-.205.075-.284a.599.599 0 0 1 .188-.191.855.855 0 0 1 .255-.108 1.075 1.075 0 0 1 .75.077.975.975 0 0 1 .36.276l.522-.573a1.706 1.706 0 0 0-.615-.364 2.146 2.146 0 0 0-.698-.121c-.205 0-.405.027-.603.08a1.674 1.674 0 0 0-.53.242 1.167 1.167 0 0 0-.52 1.004c.001.213.035.39.103.533.068.142.156.262.265.36.108.098.23.176.366.236.136.06.272.11.408.153l.402.134c.128.042.238.092.332.15a.741.741 0 0 1 .223.204.503.503 0 0 1 .083.296.6.6 0 0 1-.074.31.66.66 0 0 1-.19.207.765.765 0 0 1-.265.118 1.231 1.231 0 0 1-.287.035c-.179 0-.36-.045-.546-.134a1.152 1.152 0 0 1-.443-.364l-.574.536c.179.213.408.373.689.481.28.109.568.163.86.163zm3.513-.025c.23 0 .429-.059.596-.176a.99.99 0 0 0 .354-.405h.013v.491h.727v-3.06h-.765v1.683c0 .102-.015.203-.045.303a.833.833 0 0 1-.13.264.667.667 0 0 1-.54.262.515.515 0 0 1-.296-.077.55.55 0 0 1-.175-.194.757.757 0 0 1-.083-.265 2.171 2.171 0 0 1-.02-.28V8.352h-.764v1.912c0 .158.02.31.063.46.043.148.11.28.201.395.092.115.209.207.35.277.143.07.314.106.514.106zm4.087 0c.23 0 .444-.038.641-.112.198-.074.36-.18.488-.316l-.478-.484a.68.68 0 0 1-.287.204.97.97 0 0 1-.357.07.8.8 0 0 1-.65-.313.99.99 0 0 1-.163-.315 1.192 1.192 0 0 1-.003-.708.975.975 0 0 1 .156-.316.766.766 0 0 1 .634-.312c.124 0 .245.029.364.086a.675.675 0 0 1 .268.214l.522-.46a1.235 1.235 0 0 0-.5-.35 1.729 1.729 0 0 0-.654-.128c-.225 0-.436.039-.634.115a1.535 1.535 0 0 0-.874.835c-.087.2-.13.423-.13.67 0 .255.043.482.13.682.087.2.207.37.357.51.151.14.328.247.53.32.202.071.415.108.64.108zm3.112 0c.23 0 .443-.038.641-.112.198-.074.36-.18.488-.316l-.478-.484a.68.68 0 0 1-.287.204.97.97 0 0 1-.357.07.8.8 0 0 1-.65-.313.99.99 0 0 1-.163-.315 1.192 1.192 0 0 1-.004-.708.975.975 0 0 1 .157-.316.766.766 0 0 1 .634-.312c.123 0 .244.029.363.086a.675.675 0 0 1 .268.214l.523-.46a1.235 1.235 0 0 0-.5-.35 1.729 1.729 0 0 0-.654-.128c-.225 0-.437.039-.634.115a1.535 1.535 0 0 0-.874.835c-.087.2-.13.423-.13.67 0 .255.043.482.13.682.087.2.206.37.357.51s.327.247.53.32c.201.071.415.108.64.108zm3.1 0c.573 0 1.01-.205 1.313-.613l-.51-.408a.908.908 0 0 1-.326.29 1.02 1.02 0 0 1-.484.106.9.9 0 0 1-.32-.058.968.968 0 0 1-.273-.156.77.77 0 0 1-.28-.539h2.327a.822.822 0 0 0 .006-.102V9.92c0-.276-.037-.517-.112-.724a1.449 1.449 0 0 0-.309-.516 1.28 1.28 0 0 0-.469-.312 1.616 1.616 0 0 0-.59-.106c-.229 0-.443.04-.64.118-.198.079-.369.19-.514.332a1.531 1.531 0 0 0-.34.516 1.756 1.756 0 0 0-.125.673c0 .25.041.475.124.673.083.197.198.364.345.5.146.136.32.242.52.316.2.074.418.112.656.112zm.688-1.926h-1.569a.755.755 0 0 1 .265-.533.86.86 0 0 1 .583-.207c.123 0 .23.02.322.06a.638.638 0 0 1 .357.4c.028.089.042.182.042.28zm2.397 1.926c.166 0 .326-.019.482-.055.155-.036.29-.094.408-.175a.894.894 0 0 0 .386-.79.753.753 0 0 0-.323-.642 1.269 1.269 0 0 0-.318-.169 2.784 2.784 0 0 0-.348-.102 3.092 3.092 0 0 1-.494-.15c-.113-.048-.169-.132-.169-.251 0-.12.051-.204.153-.255a.745.745 0 0 1 .338-.077.883.883 0 0 1 .67.332l.497-.44a1.093 1.093 0 0 0-.5-.35 1.88 1.88 0 0 0-.648-.116c-.153 0-.302.02-.446.058a1.246 1.246 0 0 0-.39.175.903.903 0 0 0-.277.303.875.875 0 0 0-.105.44.78.78 0 0 0 .077.363c.05.098.119.18.204.246.085.066.182.119.29.16.108.04.22.073.335.098.233.055.409.11.526.166a.283.283 0 0 1 .175.274.314.314 0 0 1-.045.172.33.33 0 0 1-.118.112.576.576 0 0 1-.159.06.95.95 0 0 1-.622-.09 1.006 1.006 0 0 1-.331-.273l-.504.472c.149.161.336.286.561.373.226.087.457.13.695.13zm2.831 0c.166 0 .327-.019.482-.055.155-.036.29-.094.408-.175a.894.894 0 0 0 .386-.79.753.753 0 0 0-.322-.642 1.27 1.27 0 0 0-.32-.169 2.785 2.785 0 0 0-.347-.102 3.092 3.092 0 0 1-.494-.15c-.113-.048-.169-.132-.169-.251 0-.12.051-.204.153-.255a.745.745 0 0 1 .338-.077.883.883 0 0 1 .67.332l.497-.44a1.093 1.093 0 0 0-.5-.35 1.88 1.88 0 0 0-.648-.116c-.153 0-.302.02-.446.058a1.246 1.246 0 0 0-.39.175.903.903 0 0 0-.276.303.875.875 0 0 0-.106.44.78.78 0 0 0 .077.363c.05.098.119.18.204.246.085.066.182.119.29.16.108.04.22.073.335.098.234.055.409.11.526.166a.283.283 0 0 1 .175.274.314.314 0 0 1-.044.172.33.33 0 0 1-.118.112.576.576 0 0 1-.16.06.95.95 0 0 1-.622-.09 1.006 1.006 0 0 1-.331-.273l-.504.472c.149.161.336.286.561.373.226.087.457.13.695.13zm2.825-.09V8.964h.708v-.612h-.708v-.498c0-.076.006-.155.02-.236a.707.707 0 0 1 .073-.223.433.433 0 0 1 .156-.166.5.5 0 0 1 .268-.063.912.912 0 0 1 .293.044l.05-.65a1.067 1.067 0 0 0-.174-.035 1.987 1.987 0 0 0-.214-.01c-.238 0-.436.037-.593.112a.997.997 0 0 0-.38.303 1.195 1.195 0 0 0-.204.443c-.04.168-.06.343-.06.526v.453h-.58v.612h.58v2.448h.765zm2.283.09c.23 0 .428-.059.596-.176a.99.99 0 0 0 .354-.405h.013v.491h.727v-3.06h-.766v1.683c0 .102-.014.203-.044.303a.833.833 0 0 1-.131.264.667.667 0 0 1-.539.262.515.515 0 0 1-.296-.077.55.55 0 0 1-.176-.194.757.757 0 0 1-.083-.265 2.172 2.172 0 0 1-.019-.28V8.352h-.765v1.912c0 .158.021.31.064.46.042.148.11.28.2.395.092.115.21.207.352.277.142.07.313.106.513.106zm3.386-.09v-4.82h-.765v4.82h.765z" fill="#FFF" fill-rule="nonzero"/>
            <path d="M113.966 4.277h9.56v9.532h-9.56z"/>
            <path stroke="#FFF" stroke-width=".829" stroke-linecap="round" stroke-linejoin="round" d="m116.044 9.25 1.94 2.072 3.879-4.144"/>
        </g>
    </g>
</svg>
