<svg width="535" height="505" xmlns="http://www.w3.org/2000/svg" xmlns:xlink="http://www.w3.org/1999/xlink">
    <defs>
        <path d="M2.396 0A2.398 2.398 0 0 0 0 2.398v182.204A2.405 2.405 0 0 0 2.396 187h125.208a2.398 2.398 0 0 0 2.396-2.398V2.398A2.405 2.405 0 0 0 127.604 0H2.396z" id="g"/>
        <path id="j" d="M0 0h11.242v4.997H0z"/>
        <path id="l" d="M0 0h9.258v12.245H0z"/>
        <path id="n" d="M0 0h8.946v8.773H0z"/>
        <path d="M1.942 0h334.116C337.131 0 338 .87 338 1.942v15.116c0 1.073-.87 1.942-1.942 1.942H1.942A1.942 1.942 0 0 1 0 17.058V1.942C0 .869.87 0 1.942 0z" id="q"/>
        <path id="t" d="M0 0h12.4v9.028H0z"/>
        <path id="v" d="M0 0h12.4v4.662H0z"/>
        <path id="z" d="M0 0h6.629v9.359H0z"/>
        <path id="B" d="M0 0h6.628v9.359H0z"/>
        <filter x="-6.5%" y="-4.4%" width="113.1%" height="114.7%" filterUnits="objectBoundingBox" id="b">
            <feMorphology radius="3.893" in="SourceAlpha" result="shadowSpreadOuter1"/>
            <feOffset dy="13" in="shadowSpreadOuter1" result="shadowOffsetOuter1"/>
            <feGaussianBlur stdDeviation="13" in="shadowOffsetOuter1" result="shadowBlurOuter1"/>
            <feComposite in="shadowBlurOuter1" in2="SourceAlpha" operator="out" result="shadowBlurOuter1"/>
            <feColorMatrix values="0 0 0 0 0.783785025 0 0 0 0 0.813706303 0 0 0 0 0.892336638 0 0 0 0.56169758 0" in="shadowBlurOuter1"/>
        </filter>
        <filter x="-55.9%" y="-51.6%" width="211.8%" height="203.3%" filterUnits="objectBoundingBox" id="d">
            <feOffset dy="2" in="SourceAlpha" result="shadowOffsetOuter1"/>
            <feGaussianBlur stdDeviation="14" in="shadowOffsetOuter1" result="shadowBlurOuter1"/>
            <feColorMatrix values="0 0 0 0 0.91372549 0 0 0 0 0.941176471 0 0 0 0 0.984313725 0 0 0 1 0" in="shadowBlurOuter1" result="shadowMatrixOuter1"/>
            <feMerge>
                <feMergeNode in="shadowMatrixOuter1"/>
                <feMergeNode in="SourceGraphic"/>
            </feMerge>
        </filter>
        <filter x="-56.1%" y="-51.6%" width="212.2%" height="203.3%" filterUnits="objectBoundingBox" id="e">
            <feOffset dy="2" in="SourceAlpha" result="shadowOffsetOuter1"/>
            <feGaussianBlur stdDeviation="14" in="shadowOffsetOuter1" result="shadowBlurOuter1"/>
            <feColorMatrix values="0 0 0 0 0.91372549 0 0 0 0 0.941176471 0 0 0 0 0.984313725 0 0 0 1 0" in="shadowBlurOuter1" result="shadowMatrixOuter1"/>
            <feMerge>
                <feMergeNode in="shadowMatrixOuter1"/>
                <feMergeNode in="SourceGraphic"/>
            </feMerge>
        </filter>
        <filter x="-.6%" y="-.4%" width="101.2%" height="100.8%" filterUnits="objectBoundingBox" id="f">
            <feMorphology radius="1.749" in="SourceAlpha" result="shadowSpreadOuter1"/>
            <feOffset dx="1" in="shadowSpreadOuter1" result="shadowOffsetOuter1"/>
            <feComposite in="shadowOffsetOuter1" in2="SourceAlpha" operator="out" result="shadowOffsetOuter1"/>
            <feColorMatrix values="0 0 0 0 0.743069384 0 0 0 0 0.813890002 0 0 0 0 1 0 0 0 0.716959173 0" in="shadowOffsetOuter1"/>
        </filter>
        <filter x="-55.9%" y="-51.6%" width="211.8%" height="203.3%" filterUnits="objectBoundingBox" id="h">
            <feOffset dy="2" in="SourceAlpha" result="shadowOffsetOuter1"/>
            <feGaussianBlur stdDeviation="14" in="shadowOffsetOuter1" result="shadowBlurOuter1"/>
            <feColorMatrix values="0 0 0 0 0.91372549 0 0 0 0 0.941176471 0 0 0 0 0.984313725 0 0 0 1 0" in="shadowBlurOuter1" result="shadowMatrixOuter1"/>
            <feMerge>
                <feMergeNode in="shadowMatrixOuter1"/>
                <feMergeNode in="SourceGraphic"/>
            </feMerge>
        </filter>
        <filter x="-55.9%" y="-51.6%" width="211.8%" height="203.3%" filterUnits="objectBoundingBox" id="i">
            <feOffset dy="2" in="SourceAlpha" result="shadowOffsetOuter1"/>
            <feGaussianBlur stdDeviation="14" in="shadowOffsetOuter1" result="shadowBlurOuter1"/>
            <feColorMatrix values="0 0 0 0 0.91372549 0 0 0 0 0.941176471 0 0 0 0 0.984313725 0 0 0 1 0" in="shadowBlurOuter1" result="shadowMatrixOuter1"/>
            <feMerge>
                <feMergeNode in="shadowMatrixOuter1"/>
                <feMergeNode in="SourceGraphic"/>
            </feMerge>
        </filter>
        <filter x="-9.5%" y="-147.4%" width="113.2%" height="389.5%" filterUnits="objectBoundingBox" id="p">
            <feMorphology radius="4.5" in="SourceAlpha" result="shadowSpreadOuter1"/>
            <feOffset dx="5" dy="9" in="shadowSpreadOuter1" result="shadowOffsetOuter1"/>
            <feGaussianBlur stdDeviation="12.5" in="shadowOffsetOuter1" result="shadowBlurOuter1"/>
            <feComposite in="shadowBlurOuter1" in2="SourceAlpha" operator="out" result="shadowBlurOuter1"/>
            <feColorMatrix values="0 0 0 0 0.743069384 0 0 0 0 0.813890002 0 0 0 0 1 0 0 0 0.716959173 0" in="shadowBlurOuter1"/>
        </filter>
        <filter x="-26.1%" y="-57.4%" width="164.2%" height="270.3%" filterUnits="objectBoundingBox" id="r">
            <feMorphology radius="3.5" in="SourceAlpha" result="shadowSpreadOuter1"/>
            <feOffset dx="4" dy="7" in="shadowSpreadOuter1" result="shadowOffsetOuter1"/>
            <feGaussianBlur stdDeviation="9.5" in="shadowOffsetOuter1" result="shadowBlurOuter1"/>
            <feColorMatrix values="0 0 0 0 0.743069384 0 0 0 0 0.813890002 0 0 0 0 1 0 0 0 0.716959173 0" in="shadowBlurOuter1"/>
        </filter>
        <rect id="a" x="0" y="0" width="499" height="443" rx="6.796"/>
        <rect id="s" x="0" y="0" width="67" height="25.242" rx="12.621"/>
        <rect id="x" x="0" y="0" width="25" height="25" rx="6.25"/>
    </defs>
    <g fill="none" fill-rule="evenodd">
        <g opacity=".277" transform="translate(206 440)" fill="#6C72FC">
            <circle cx="77.5" cy="2.5" r="2.5"/>
            <circle cx="77.5" cy="17.5" r="2.5"/>
            <circle cx="77.5" cy="32.5" r="2.5"/>
            <circle cx="77.5" cy="47.5" r="2.5"/>
            <circle cx="77.5" cy="62.5" r="2.5"/>
            <circle cx="107.5" cy="2.5" r="2.5"/>
            <circle cx="107.5" cy="17.5" r="2.5"/>
            <circle cx="107.5" cy="32.5" r="2.5"/>
            <circle cx="107.5" cy="47.5" r="2.5"/>
            <circle cx="107.5" cy="62.5" r="2.5"/>
            <circle cx="137.5" cy="2.5" r="2.5"/>
            <circle cx="137.5" cy="17.5" r="2.5"/>
            <circle cx="137.5" cy="32.5" r="2.5"/>
            <circle cx="137.5" cy="47.5" r="2.5"/>
            <circle cx="137.5" cy="62.5" r="2.5"/>
            <circle cx="92.5" cy="2.5" r="2.5"/>
            <circle cx="92.5" cy="17.5" r="2.5"/>
            <circle cx="92.5" cy="32.5" r="2.5"/>
            <circle cx="92.5" cy="47.5" r="2.5"/>
            <circle cx="92.5" cy="62.5" r="2.5"/>
            <circle cx="122.5" cy="2.5" r="2.5"/>
            <circle cx="122.5" cy="17.5" r="2.5"/>
            <circle cx="122.5" cy="32.5" r="2.5"/>
            <circle cx="122.5" cy="47.5" r="2.5"/>
            <circle cx="122.5" cy="62.5" r="2.5"/>
            <circle cx="152.5" cy="2.5" r="2.5"/>
            <circle cx="152.5" cy="17.5" r="2.5"/>
            <circle cx="152.5" cy="32.5" r="2.5"/>
            <circle cx="152.5" cy="47.5" r="2.5"/>
            <circle cx="152.5" cy="62.5" r="2.5"/>
            <circle cx="182.5" cy="2.5" r="2.5"/>
            <circle cx="182.5" cy="17.5" r="2.5"/>
            <circle cx="182.5" cy="32.5" r="2.5"/>
            <circle cx="182.5" cy="47.5" r="2.5"/>
            <circle cx="182.5" cy="62.5" r="2.5"/>
            <circle cx="212.5" cy="2.5" r="2.5"/>
            <circle cx="212.5" cy="17.5" r="2.5"/>
            <circle cx="212.5" cy="32.5" r="2.5"/>
            <circle cx="212.5" cy="47.5" r="2.5"/>
            <circle cx="212.5" cy="62.5" r="2.5"/>
            <circle cx="167.5" cy="2.5" r="2.5"/>
            <circle cx="167.5" cy="17.5" r="2.5"/>
            <circle cx="167.5" cy="32.5" r="2.5"/>
            <circle cx="167.5" cy="47.5" r="2.5"/>
            <circle cx="167.5" cy="62.5" r="2.5"/>
            <circle cx="197.5" cy="2.5" r="2.5"/>
            <circle cx="197.5" cy="17.5" r="2.5"/>
            <circle cx="197.5" cy="32.5" r="2.5"/>
            <circle cx="197.5" cy="47.5" r="2.5"/>
            <circle cx="197.5" cy="62.5" r="2.5"/>
            <circle cx="2.5" cy="2.5" r="2.5"/>
            <circle cx="2.5" cy="17.5" r="2.5"/>
            <circle cx="2.5" cy="32.5" r="2.5"/>
            <circle cx="2.5" cy="47.5" r="2.5"/>
            <circle cx="2.5" cy="62.5" r="2.5"/>
            <circle cx="32.5" cy="2.5" r="2.5"/>
            <circle cx="32.5" cy="17.5" r="2.5"/>
            <circle cx="32.5" cy="32.5" r="2.5"/>
            <circle cx="32.5" cy="47.5" r="2.5"/>
            <circle cx="32.5" cy="62.5" r="2.5"/>
            <circle cx="62.5" cy="2.5" r="2.5"/>
            <circle cx="62.5" cy="17.5" r="2.5"/>
            <circle cx="62.5" cy="32.5" r="2.5"/>
            <circle cx="62.5" cy="47.5" r="2.5"/>
            <circle cx="62.5" cy="62.5" r="2.5"/>
            <circle cx="17.5" cy="2.5" r="2.5"/>
            <circle cx="17.5" cy="17.5" r="2.5"/>
            <circle cx="17.5" cy="32.5" r="2.5"/>
            <circle cx="17.5" cy="47.5" r="2.5"/>
            <circle cx="17.5" cy="62.5" r="2.5"/>
            <circle cx="47.5" cy="2.5" r="2.5"/>
            <circle cx="47.5" cy="17.5" r="2.5"/>
            <circle cx="47.5" cy="32.5" r="2.5"/>
            <circle cx="47.5" cy="47.5" r="2.5"/>
            <circle cx="47.5" cy="62.5" r="2.5"/>
        </g>
        <g transform="translate(18 5)">
            <mask id="c" fill="#fff">
                <use xlink:href="#a"/>
            </mask>
            <use fill="#000" filter="url(#b)" xlink:href="#a"/>
            <rect stroke="#D2DCEA" stroke-width=".607" fill="#FFF" x="-.303" y="-.303" width="499.607" height="443.607" rx="6.796"/>
            <path fill="#F4F8FF" mask="url(#c)" d="M-6.796-7.746h516.475v42.363H-6.796z"/>
            <text font-family="Avenir-Black, Avenir" font-size="15.534" font-weight="700" fill="#1D285E">
                            <tspan x="112.712" y="73.805">Find the perfect solution for building your </tspan>
                            <tspan x="112.712" y="93.222">next Crossplane project. </tspan>
                        </text>
            <text font-family="Avenir-Heavy, Avenir" font-size="7.282" font-weight="600" fill="#505A72" transform="translate(25.468 60.52)">
                                <tspan x=".258" y="84.839">Visibility</tspan>
                            </text>
            <text font-family="Avenir-Roman, Avenir" font-size="5.437" fill="#505A72" transform="translate(26.449 167.814)">
                                    <tspan x="15" y="5">Public</tspan>
                                </text>
            <circle cx="4" cy="4" r="3.75" fill="#FFF" stroke="#282F36" stroke-opacity=".15" stroke-width=".5" transform="translate(26.449 167.814)"/>
            <text font-family="Avenir-Roman, Avenir" font-size="5.437" fill="#505A72" transform="translate(26.42 181.372)">
                                    <tspan x="15" y="5">Private</tspan>
                                </text>
            <circle cx="4" cy="4" r="3.75" fill="#FFF" stroke="#282F36" stroke-opacity=".15" stroke-width=".5" transform="translate(26.42 181.372)"/>
            <text font-family="Avenir-Roman, Avenir" font-size="5.437" fill="#505A72" transform="translate(25.468 154.256)">
                                    <tspan x="18" y="5">Show All</tspan>
                                </text>
            <g transform="translate(25.468 154.256)">
                <circle fill="#7667F9" cx="4" cy="4" r="4"/>
                <circle fill="#FFF" cx="4" cy="4" r="1.6"/>
            </g>
            <text font-family="Avenir-Heavy, Avenir" font-size="7.282" font-weight="600" fill="#505A72" transform="translate(25.468 60.52)">
                                <tspan x=".258" y="24.807">Type</tspan>
                            </text>
            <text font-family="Avenir-Roman, Avenir" font-size="5.437" fill="#505A72" transform="translate(25.468 94.211)">
                                    <tspan x="18" y="5">Show All</tspan>
                                </text>
            <g transform="translate(25.468 94.211)">
                <circle fill="#7667F9" cx="4" cy="4" r="4"/>
                <circle fill="#FFF" cx="4" cy="4" r="1.6"/>
            </g>
            <text font-family="Avenir-Roman, Avenir" font-size="5.437" fill="#505A72" transform="translate(26.33 107.77)">
                                    <tspan x="15" y="5">Providers</tspan>
                                </text>
            <circle cx="4" cy="4" r="3.75" fill="#FFF" stroke="#282F36" stroke-opacity=".15" stroke-width=".5" transform="translate(26.33 107.77)"/>
            <text font-family="Avenir-Roman, Avenir" font-size="5.437" fill="#505A72" transform="translate(26.433 121.328)">
                                    <tspan x="15" y="5">Configurations</tspan>
                                </text>
            <circle cx="4" cy="4" r="3.75" fill="#FFF" stroke="#282F36" stroke-opacity=".15" stroke-width=".5" transform="translate(26.433 121.328)"/>
            <text font-family="Avenir-Black, Avenir" font-size="8.495" font-weight="700" fill="#505A72" transform="translate(25.468 60.52)">
                                <tspan x=".016" y="8">Filter By</tspan>
                            </text>
            <g filter="url(#d)" transform="translate(113.1 174.489)" fill="#FFF" stroke="#D2DCEA" stroke-width=".607">
                <rect x="-.303" y="-.303" width="105.455" height="114.092" rx="1.942"/>
            </g>
            <g filter="url(#e)" transform="translate(229.987 174.489)" fill="#FFF" stroke="#D2DCEA" stroke-width=".607">
                <rect x="-.303" y="-.303" width="105.067" height="114.092" rx="1.942"/>
            </g>
            <g transform="translate(113 301)">
                <use fill="#000" filter="url(#f)" xlink:href="#g"/>
                <path stroke="#8A7FF8" stroke-width=".751" d="M127.604-.375c.76 0 1.455.311 1.958.815.501.502.813 1.194.813 1.958v182.204c0 .765-.31 1.458-.811 1.96a2.76 2.76 0 0 1-1.96.813H2.396c-.76 0-1.455-.311-1.958-.815a2.764 2.764 0 0 1-.813-1.958V2.398c0-.765.31-1.458.811-1.96a2.76 2.76 0 0 1 1.96-.813z" fill="#FFF"/>
            </g>
            <g filter="url(#h)" transform="translate(346.312 174.549)">
                <rect x="-.303" y="-.303" width="105.455" height="114.092" rx="1.942" fill="#FFF" stroke="#D2DCEA" stroke-width=".607"/>
                <g transform="translate(12.039 11.343)" fill-rule="nonzero">
                    <rect fill="#1A1A1F" width="26.019" height="25.243" rx="6.214"/>
                    <g stroke-width=".5">
                        <path d="M7.207 7.163c0-.055 0-.114.003-.173 1.867.004 3.733 0 5.6.004v5.43c-1.867.006-3.733 0-5.6.003-.01-1.754 0-3.51-.003-5.264z" stroke="#F25022" fill="#F25022"/>
                        <path d="M13.61 7.003c.04-.01.08-.013.125-.013 1.825.004 3.654 0 5.48.004v5.43c-1.866.006-3.732 0-5.598.003-.014-1.807.003-3.617-.007-5.424z" stroke="#7FBA00" fill="#7FBA00"/>
                        <path d="M7.205 18.628c.014-1.807-.006-3.617.01-5.424 1.863.003 3.729-.003 5.595.003v5.43c-1.796.004-3.587 0-5.383.004-.074 0-.148 0-.222-.013z" stroke="#00A4EF" fill="#00A4EF"/>
                        <path d="M13.614 13.605c0-.134-.007-.267.003-.401 1.866.003 3.732-.003 5.597.003v5.43c-1.825.004-3.654 0-5.48.004a22.453 22.453 0 0 1-.124-.01c.007-1.676 0-3.35.004-5.026z" stroke="#FFB900" fill="#FFB900"/>
                    </g>
                </g>
                <text font-family="Avenir-Black, Avenir" font-size="7.391" font-weight="700" fill="#505A72">
                                <tspan x="12.039" y="49.218">provider-azure</tspan>
                            </text>
            </g>
            <g filter="url(#i)" transform="translate(257.312 300.549)">
                <rect x="-.303" y="-.303" width="105.455" height="114.092" rx="1.942" fill="#FFF" stroke="#D2DCEA" stroke-width=".607"/>
                <text font-family="Avenir-Black, Avenir" font-size="7.391" font-weight="700" fill="#505A72">
                                <tspan x="12.039" y="49.218">provider-aws</tspan>
                            </text>
            </g>
            <g transform="translate(128 315)">
                <rect stroke="#D8D8DA" stroke-width=".5" fill="#FAFAFA" fill-rule="nonzero" x=".25" y=".25" width="31.5" height="30.5" rx="7.685"/>
                <g transform="translate(9.518 8.16)">
                    <mask id="k" fill="#fff">
                        <use xlink:href="#j"/>
                    </mask>
                    <path d="M9.09 3.84h.539l1.537-1.506.076-.64C8.38-.78 4.014-.513 1.488 2.29A6.729 6.729 0 0 0 0 4.997a.854.854 0 0 1 .54-.031l3.074-.497s.157-.254.238-.238C5.219 2.759 7.52 2.588 9.1 3.84h-.01z" fill="#EA4335" mask="url(#k)"/>
                </g>
                <g transform="translate(15.813 9.859)">
                    <mask id="m" fill="#fff">
                        <use xlink:href="#l"/>
                    </mask>
                    <path d="M7.061 3.298A6.765 6.765 0 0 0 4.974 0L2.816 2.114a3.727 3.727 0 0 1 1.408 2.98v.376c1.06 0 1.92.842 1.92 1.88 0 1.04-.86 1.883-1.92 1.883H.383L0 9.613v2.257l.383.375h3.84c2.76.02 5.013-2.153 5.035-4.855A4.866 4.866 0 0 0 7.06 3.298" fill="#4285F4" mask="url(#m)"/>
                </g>
                <path d="M12.35 22.083h3.84V19.07h-3.84a1.94 1.94 0 0 1-.793-.17l-.54.165-1.548 1.506-.134.529a5.037 5.037 0 0 0 3.015.983" fill="#34A853"/>
                <g transform="translate(7.385 12.311)">
                    <mask id="o" fill="#fff">
                        <use xlink:href="#n"/>
                    </mask>
                    <path d="M4.965 0C2.207.016-.016 2.22 0 4.923a4.86 4.86 0 0 0 1.95 3.85L4.178 6.59a1.866 1.866 0 0 1-.96-2.489c.437-.947 1.575-1.368 2.541-.94.426.189.767.523.96.94l2.227-2.183A5.028 5.028 0 0 0 4.966 0" fill="#FBBC05" mask="url(#o)"/>
                </g>
            </g>
            <text font-family="Avenir-Black, Avenir" font-size="7.391" font-weight="700" fill="#505A72">
                            <tspan x="125.146" y="224.094">provider-alibaba</tspan>
                        </text>
            <text font-family="Avenir-Black, Avenir" font-size="9.142" font-weight="700" fill="#505A72">
                            <tspan x="128" y="362">provider-gcp</tspan>
                        </text>
            <text font-family="Avenir-Black, Avenir" font-size="7.391" font-weight="700" fill="#505A72">
                            <tspan x="240.438" y="223.707">provider-rook</tspan>
                        </text>
            <g transform="translate(435.73 185.66)" stroke="#BDD0FF" stroke-linecap="round" stroke-linejoin="round" stroke-width=".92">
                <rect y="2.938" width="5.888" height="5.288" rx="1.178"/>
                <path d="M1.178 2.938V1.632C1.178.731 1.968 0 2.944 0s1.767.73 1.767 1.632v1.306"/>
            </g>
            <g transform="translate(113.1 128.372)">
                <use fill="#000" filter="url(#p)" xlink:href="#q"/>
                <path stroke="#D2DCEA" stroke-width=".5" d="M336.058-.25c.605 0 1.153.245 1.55.642s.642.945.642 1.55v15.116c0 .605-.245 1.153-.642 1.55a2.185 2.185 0 0 1-1.55.642H1.942a2.185 2.185 0 0 1-1.55-.642 2.185 2.185 0 0 1-.642-1.55V1.942c0-.605.245-1.153.642-1.55a2.185 2.185 0 0 1 1.55-.642z" fill="#FFF"/>
            </g>
            <g opacity=".75">
                <text font-family="Avenir-Roman, Avenir" font-size="6.214" fill="#505A72" transform="translate(122.032 133.433)">
                                    <tspan x="12.039" y="6">Search the Upbound Registry</tspan>
                                </text>
                <g transform="translate(122.032 134.462)" stroke="#505A72" stroke-linecap="round" stroke-linejoin="round" stroke-width=".777">
                    <circle cx="2.913" cy="2.913" r="2.913"/>
                    <path d="M7.206 7.206 5.243 5.243"/>
                </g>
            </g>
            <text font-family="Avenir-Roman, Avenir" font-size="7.767" fill="#505A72">
                            <tspan x="113.1" y="115.421">Have a provider or configuration you want to make available to the community?</tspan>
                        </text>
            <ellipse fill="#FF6C70" cx="19.902" cy="16.945" rx="3.398" ry="3.389"/>
            <ellipse fill="#FFCE3C" cx="29.61" cy="16.945" rx="3.398" ry="3.389"/>
            <ellipse fill="#2FD3BC" cx="39.318" cy="16.945" rx="3.398" ry="3.389"/>
            <rect fill="#D2DCEA" opacity=".718" x="124.993" y="238.304" width="61.938" height="3.728" rx="1.864"/>
            <rect fill="#D2DCEA" opacity=".718" x="358.167" y="238.304" width="61.938" height="3.728" rx="1.864"/>
            <rect fill="#D2DCEA" opacity=".718" x="128" y="378" width="77" height="5" rx="2.312"/>
            <rect fill="#D2DCEA" opacity=".718" x="240.402" y="238.304" width="61.938" height="3.728" rx="1.864"/>
            <rect fill="#D2DCEA" opacity=".718" x="268.402" y="365.304" width="44.938" height="3.728" rx="1.864"/>
            <rect fill="#D2DCEA" opacity=".718" x="124.993" y="246.764" width="70.748" height="3.728" rx="1.864"/>
            <rect fill="#D2DCEA" opacity=".718" x="358.167" y="246.764" width="36.597" height="3.728" rx="1.864"/>
            <rect fill="#D2DCEA" opacity=".718" x="128" y="388" width="45" height="5" rx="2.312"/>
            <rect fill="#D2DCEA" opacity=".718" x="240.402" y="246.764" width="54.261" height="3.728" rx="1.864"/>
            <rect fill="#D2DCEA" opacity=".718" x="268.402" y="373.764" width="54.261" height="3.728" rx="1.864"/>
            <rect fill="#D2DCEA" opacity=".718" x="124.993" y="254.989" width="64.875" height="3.728" rx="1.864"/>
            <rect fill="#D2DCEA" opacity=".718" x="358.167" y="254.989" width="64.875" height="3.728" rx="1.864"/>
            <rect fill="#D2DCEA" opacity=".718" x="128" y="398" width="80" height="5" rx="2.312"/>
            <rect fill="#D2DCEA" opacity=".718" x="240.402" y="254.989" width="46.033" height="3.728" rx="1.864"/>
            <rect fill="#D2DCEA" opacity=".718" x="268.402" y="381.989" width="70.033" height="3.728" rx="1.864"/>
            <rect fill="#E7F0FC" x="124.993" y="271.983" width="54.172" height="3.728" rx="1.864"/>
            <rect fill="#E7F0FC" x="358.167" y="271.983" width="70.659" height="3.728" rx="1.864"/>
            <rect fill="#E7F0FC" x="128" y="420" width="87" height="5" rx="2.312"/>
            <g>
                <g transform="translate(128 441.879)">
                    <use fill="#000" filter="url(#r)" xlink:href="#s"/>
                    <use fill="#5A53C0" xlink:href="#s"/>
                </g>
                <text font-family="Avenir-Black, Avenir" font-size="6.86" font-weight="700" fill="#FFF" transform="translate(128 441.879)">
                                <tspan x="8.5" y="14.826">Install Provider</tspan>
                            </text>
            </g>
            <rect fill="#E7F0FC" x="241.58" y="271.983" width="54.172" height="3.728" rx="1.864"/>
            <rect fill="#E7F0FC" x="269.58" y="398.983" width="54.172" height="3.728" rx="1.864"/>
        </g>
        <g transform="translate(287 316)">
            <rect fill="#232F3E" fill-rule="nonzero" width="26" height="26" rx="6.5"/>
            <path d="M9.232 12.248c0 .215.022.39.06.519.043.128.097.268.172.42a.269.269 0 0 1 .038.133c0 .059-.033.117-.103.175l-.34.245a.246.246 0 0 1-.14.052c-.054 0-.107-.029-.161-.081a1.796 1.796 0 0 1-.194-.274 4.65 4.65 0 0 1-.168-.344c-.42.536-.949.804-1.585.804-.453 0-.814-.14-1.078-.42-.265-.28-.4-.652-.4-1.118 0-.496.162-.898.491-1.201.33-.303.766-.455 1.321-.455.184 0 .372.018.572.047.2.029.404.076.62.128v-.425c0-.443-.086-.752-.253-.933-.173-.18-.464-.268-.88-.268a2.28 2.28 0 0 0-.582.076c-.2.052-.393.116-.582.198-.086.04-.151.064-.189.076a.309.309 0 0 1-.086.017c-.076 0-.113-.058-.113-.18v-.286c0-.094.01-.164.037-.204a.409.409 0 0 1 .151-.123c.19-.105.416-.192.68-.262.264-.076.544-.11.841-.11.642 0 1.11.157 1.413.471.296.315.447.793.447 1.434v1.889h.011zm-2.19.886c.179 0 .362-.035.556-.105.194-.07.367-.198.513-.373a.953.953 0 0 0 .183-.373c.032-.14.054-.31.054-.507v-.245a4.201 4.201 0 0 0-.496-.1 3.763 3.763 0 0 0-.507-.034c-.361 0-.626.076-.804.233-.178.157-.264.379-.264.67 0 .274.065.478.2.618.13.146.318.216.566.216zm4.33.63c-.096 0-.16-.018-.204-.059-.043-.035-.08-.117-.113-.227L9.788 8.972a1.09 1.09 0 0 1-.049-.233c0-.093.043-.146.13-.146h.528c.102 0 .172.018.21.058.043.035.076.117.108.228l.906 3.858.841-3.858c.027-.117.06-.193.103-.228a.35.35 0 0 1 .215-.058h.432c.102 0 .172.018.215.058.043.035.081.117.103.228l.852 3.905.933-3.905a.514.514 0 0 1 .108-.228.332.332 0 0 1 .21-.058h.501c.087 0 .135.047.135.146 0 .029-.005.058-.01.093a.888.888 0 0 1-.038.146l-1.3 4.506c-.032.116-.07.192-.113.227a.326.326 0 0 1-.205.058h-.464c-.102 0-.172-.017-.216-.058-.043-.04-.08-.117-.102-.233l-.836-3.76-.83 3.754c-.027.116-.06.192-.103.233-.043.04-.118.058-.215.058h-.464zm6.93.157c-.28 0-.56-.035-.83-.105-.27-.07-.48-.146-.62-.233a.402.402 0 0 1-.168-.164.44.44 0 0 1-.032-.163v-.297c0-.122.043-.18.124-.18.032 0 .065.005.097.017.032.011.08.035.135.058.183.087.383.157.593.204.216.047.426.07.642.07.34 0 .604-.064.787-.192a.641.641 0 0 0 .28-.554.593.593 0 0 0-.145-.408c-.097-.11-.28-.21-.545-.303l-.782-.263c-.393-.134-.685-.332-.863-.594a1.463 1.463 0 0 1-.27-.845c0-.245.05-.46.146-.647.097-.187.227-.35.389-.478.161-.134.345-.233.56-.303.216-.07.443-.1.68-.1.119 0 .243.006.361.024.124.017.237.04.35.064.109.03.211.058.308.093.097.035.173.07.227.105.075.047.129.093.161.146.033.047.049.11.049.192v.274c0 .123-.043.187-.124.187a.53.53 0 0 1-.205-.07 2.31 2.31 0 0 0-1.035-.228c-.308 0-.55.053-.718.164-.167.11-.253.28-.253.518 0 .164.054.304.162.414.108.111.307.222.593.32l.766.263c.388.134.668.32.835.56.168.239.248.513.248.816a1.6 1.6 0 0 1-.14.676 1.547 1.547 0 0 1-.393.513c-.168.146-.367.25-.599.326a2.387 2.387 0 0 1-.771.123z" fill="#FFF"/>
            <path d="M19.412 16.467c-1.799 1.404-4.412 2.15-6.66 2.15-3.148 0-5.985-1.231-8.128-3.277-.17-.162-.017-.382.185-.255a15.716 15.716 0 0 0 8.135 2.284c1.996 0 4.188-.44 6.205-1.341.3-.145.558.208.263.439zm.749-.902c-.23-.312-1.52-.15-2.105-.075-.175.023-.203-.139-.044-.26 1.028-.763 2.717-.543 2.914-.29.197.261-.055 2.047-1.017 2.903-.147.133-.29.063-.224-.11.219-.572.705-1.861.476-2.168z" fill="#F90"/>
        </g>
        <g transform="translate(259 191)">
            <rect fill="#17355D" fill-rule="nonzero" width="25" height="25" rx="6.25"/>
            <g transform="translate(6.25 11.094)">
                <mask id="u" fill="#fff">
                    <use xlink:href="#t"/>
                </mask>
                <path d="M.86.922v4.879c0 1.27.966 2.305 2.153 2.305h6.373c1.187 0 2.153-1.034 2.153-2.305V.922H.86zm8.526 8.106H3.013C1.352 9.028 0 7.58 0 5.801V.461C0 .206.193 0 .43 0H11.97c.238 0 .43.206.43.46v5.341c0 1.78-1.351 3.227-3.013 3.227z" fill="#2AC6EA" mask="url(#u)"/>
            </g>
            <path d="M11.343 16.262h2.314v-1.158c0-.638-.519-1.157-1.157-1.157s-1.157.52-1.157 1.157v1.158zm2.777.925h-3.24a.463.463 0 0 1-.463-.462v-1.62c0-1.15.934-2.084 2.083-2.084s2.083.934 2.083 2.083v1.62a.463.463 0 0 1-.463.463z" fill="#2AC6EA"/>
            <g transform="translate(6.25 5.834)">
                <mask id="w" fill="#fff">
                    <use xlink:href="#v"/>
                </mask>
                <path d="M11.969 4.662 9.65 4.658c-.238 0-.43-.21-.43-.469 0-.258.193-.466.43-.466h.001l1.886.003V.935h-1.446v.79a.49.49 0 0 1-.126.33.414.414 0 0 1-.305.137H7.354c-.238 0-.43-.21-.43-.468V.935H5.477v.79c0 .257-.192.467-.43.467H2.738a.414.414 0 0 1-.304-.137.489.489 0 0 1-.126-.33v-.79H.86v2.792h1.866c.238 0 .43.21.43.467 0 .259-.192.468-.43.468H.43c-.237 0-.43-.21-.43-.468V.467C0 .21.193 0 .43 0h2.308c.238 0 .43.21.43.467v.79h1.448v-.79c0-.258.193-.467.43-.467h2.308c.238 0 .43.21.43.468v.789h1.447v-.79C9.23.21 9.424 0 9.66 0h2.308c.238 0 .43.21.43.467v3.727a.488.488 0 0 1-.126.331.414.414 0 0 1-.304.137" fill="#2AC6EA" mask="url(#w)"/>
            </g>
        </g>
        <g transform="translate(143 191.4)">
            <mask id="y" fill="#fff">
                <use xlink:href="#x"/>
            </mask>
            <use fill="#FF6A03" fill-rule="nonzero" xlink:href="#x"/>
            <g mask="url(#y)">
                <g transform="translate(5.208 8.35)">
                    <mask id="A" fill="#fff">
                        <use xlink:href="#z"/>
                    </mask>
                    <path d="m6.256 7.919-3.475-.74a.724.724 0 0 1-.57-.67V2.85a.724.724 0 0 1 .57-.67l3.475-.739L6.63 0h-4.05C1.159 0 .006 1.123 0 2.51v4.339c.006 1.387 1.158 2.51 2.579 2.51h4.05l-.373-1.44z" fill="#FFF" mask="url(#A)"/>
                </g>
                <g transform="translate(14.286 8.35)">
                    <mask id="C" fill="#fff">
                        <use xlink:href="#B"/>
                    </mask>
                    <path d="m.373 7.919 3.475-.74a.724.724 0 0 0 .57-.67V2.85a.724.724 0 0 0-.57-.67L.373 1.44 0 0h4.05c1.42 0 2.573 1.123 2.578 2.51v4.339c-.005 1.387-1.158 2.51-2.578 2.51H0l.373-1.44z" fill="#FFF" mask="url(#C)"/>
                </g>
                <path fill="#FFF" d="M10.416 12.5h5.208v1.042h-5.208z"/>
            </g>
        </g>
    </g>
</svg>
