<svg width="64" height="64" viewBox="0 0 64 64" xmlns="http://www.w3.org/2000/svg" xmlns:xlink="http://www.w3.org/1999/xlink">
    <defs>
        <filter x="-3%" y="-5.7%" width="106%" height="122.7%" filterUnits="objectBoundingBox" id="a">
            <feOffset dy="2" in="SourceAlpha" result="shadowOffsetOuter1"/>
            <feColorMatrix values="0 0 0 0 0 0 0 0 0 0 0 0 0 0 0 0 0 0 0.1 0" in="shadowOffsetOuter1"/>
        </filter>
        <filter x="-3%" y="-5.7%" width="106%" height="122.7%" filterUnits="objectBoundingBox" id="d">
            <feOffset dy="2" in="SourceAlpha" result="shadowOffsetInner1"/>
            <feComposite in="shadowOffsetInner1" in2="SourceAlpha" operator="arithmetic" k2="-1" k3="1" result="shadowInnerInner1"/>
            <feColorMatrix values="0 0 0 0 1 0 0 0 0 1 0 0 0 0 1 0 0 0 0.19263549 0" in="shadowInnerInner1"/>
        </filter>
        <linearGradient x1="130.372%" y1="-15.545%" x2="46.758%" y2="51.951%" id="c">
            <stop stop-color="#9CB3FF" offset="0%"/>
            <stop stop-color="#637CFF" offset="100%"/>
        </linearGradient>
        <path d="M4.55 29.39c1.256-1.087 3.866-.968 5.069.44 2.743 3.211 7.167 2.897 8.478-1.044.956-2.87 3.51-3.982 5.096-2.551.413.375.623.564.834.748 2.473 2.145 5.897.98 8.977-1.62A16.73 16.73 0 0 1 36.8 36a.8.8 0 0 1-.8.8H4a.8.8 0 0 1-.8-.8c0-2.347.481-4.581 1.35-6.61zm1.162-2.231C8.674 22.382 13.966 19.2 20 19.2c4.666 0 8.888 1.902 11.932 4.974-2.426 2.046-4.958 3.247-6.856 1.6-.198-.172-.395-.35-.811-.727-2.551-2.3-6.401-.626-7.686 3.234-.88 2.645-3.745 2.849-5.744.51-1.212-1.42-3.303-1.973-5.123-1.632z" id="b"/>
    </defs>
    <g fill="none" fill-rule="evenodd">
        <rect fill="#3DE2CB" opacity=".15" width="64" height="64" rx="16"/>
        <path d="M12 12h40v40H12z"/>
        <path d="M30.21 24.127A.806.806 0 0 1 30.2 24v-8a.8.8 0 0 1 .8-.8h9.6a.8.8 0 0 1 .8.8v8a.8.8 0 0 1-.8.8h-7.99v7.61a1.2 1.2 0 1 1-2.4 0v-8.283z" fill="#44D5E9" fill-rule="nonzero"/>
        <g fill-rule="nonzero" transform="translate(12 12)">
            <use fill="#000" filter="url(#a)" xlink:href="#b"/>
            <use fill="url(#c)" xlink:href="#b"/>
            <use fill="#000" filter="url(#d)" xlink:href="#b"/>
        </g>
    </g>
</svg>
