<svg width="64" height="64" viewBox="0 0 64 64" xmlns="http://www.w3.org/2000/svg" xmlns:xlink="http://www.w3.org/1999/xlink">
    <defs>
        <filter x="-3.5%" y="-5.3%" width="107%" height="121%" filterUnits="objectBoundingBox" id="a">
            <feOffset dy="2" in="SourceAlpha" result="shadowOffsetOuter1"/>
            <feColorMatrix values="0 0 0 0 0 0 0 0 0 0 0 0 0 0 0 0 0 0 0.1 0" in="shadowOffsetOuter1"/>
        </filter>
        <filter x="-3.5%" y="-5.3%" width="107%" height="121%" filterUnits="objectBoundingBox" id="d">
            <feOffset dy="2" in="SourceAlpha" result="shadowOffsetInner1"/>
            <feComposite in="shadowOffsetInner1" in2="SourceAlpha" operator="arithmetic" k2="-1" k3="1" result="shadowInnerInner1"/>
            <feColorMatrix values="0 0 0 0 1 0 0 0 0 1 0 0 0 0 1 0 0 0 0.19263549 0" in="shadowInnerInner1"/>
        </filter>
        <filter x="-7.7%" y="-10.8%" width="115.4%" height="143%" filterUnits="objectBoundingBox" id="e">
            <feOffset dy="2" in="SourceAlpha" result="shadowOffsetOuter1"/>
            <feColorMatrix values="0 0 0 0 1 0 0 0 0 1 0 0 0 0 1 0 0 0 0.147180944 0" in="shadowOffsetOuter1"/>
        </filter>
        <path d="M31.28 12.24v14.28a4.76 4.76 0 0 1-4.76 4.76H7.48a4.76 4.76 0 0 1-4.76-4.76V12.24h28.56z" id="b"/>
        <path d="M22.428 16.356a.93.93 0 0 1 1.324 1.308l-7.349 7.44a.93.93 0 0 1-1.313.01l-3.811-3.739a.93.93 0 0 1 1.302-1.327l3.15 3.09 6.697-6.782z" id="f"/>
        <linearGradient x1="129.259%" y1="-35.289%" x2="37.311%" y2="50%" id="c">
            <stop stop-color="#839FFF" offset="0%"/>
            <stop stop-color="#637CFF" offset="100%"/>
        </linearGradient>
    </defs>
    <g fill="none" fill-rule="evenodd">
        <rect fill="#3DE2CB" opacity=".15" width="64" height="64" rx="16"/>
        <path d="M15 15h34v34H15z"/>
        <path d="M44.24 17.72a2.04 2.04 0 0 1 2.04 2.04v6.12H17.72v-6.12a2.04 2.04 0 0 1 2.04-2.04h24.48zm-21.08 2.72a1.36 1.36 0 1 0 0 2.72 1.36 1.36 0 0 0 0-2.72zm4.08 0a1.36 1.36 0 1 0 0 2.72 1.36 1.36 0 0 0 0-2.72z" fill="#44D5E9" fill-rule="nonzero"/>
        <g fill-rule="nonzero" transform="translate(15 15)">
            <use fill="#000" filter="url(#a)" xlink:href="#b"/>
            <use fill="url(#c)" xlink:href="#b"/>
            <use fill="#000" filter="url(#d)" xlink:href="#b"/>
        </g>
        <g transform="translate(15 15)">
            <use fill="#000" filter="url(#e)" xlink:href="#f"/>
            <use fill="#DEF8F6" xlink:href="#f"/>
        </g>
    </g>
</svg>
