<svg width="64" height="64" viewBox="0 0 64 64" xmlns="http://www.w3.org/2000/svg" xmlns:xlink="http://www.w3.org/1999/xlink">
    <defs>
        <filter x="-5%" y="-3.7%" width="109.9%" height="114.9%" filterUnits="objectBoundingBox" id="a">
            <feOffset dy="2" in="SourceAlpha" result="shadowOffsetOuter1"/>
            <feColorMatrix values="0 0 0 0 0 0 0 0 0 0 0 0 0 0 0 0 0 0 0.1 0" in="shadowOffsetOuter1"/>
        </filter>
        <filter x="-5%" y="-3.7%" width="109.9%" height="114.9%" filterUnits="objectBoundingBox" id="d">
            <feOffset dy="2" in="SourceAlpha" result="shadowOffsetInner1"/>
            <feComposite in="shadowOffsetInner1" in2="SourceAlpha" operator="arithmetic" k2="-1" k3="1" result="shadowInnerInner1"/>
            <feColorMatrix values="0 0 0 0 1 0 0 0 0 1 0 0 0 0 1 0 0 0 0.19263549 0" in="shadowInnerInner1"/>
        </filter>
        <filter x="-59.5%" y="-10%" width="219%" height="140.1%" filterUnits="objectBoundingBox" id="e">
            <feOffset dy="2" in="SourceAlpha" result="shadowOffsetOuter1"/>
            <feColorMatrix values="0 0 0 0 1 0 0 0 0 1 0 0 0 0 1 0 0 0 0.147180944 0" in="shadowOffsetOuter1"/>
        </filter>
        <filter x="-59.5%" y="-10%" width="219%" height="140.1%" filterUnits="objectBoundingBox" id="g">
            <feOffset dy="2" in="SourceAlpha" result="shadowOffsetOuter1"/>
            <feColorMatrix values="0 0 0 0 1 0 0 0 0 1 0 0 0 0 1 0 0 0 0.147180944 0" in="shadowOffsetOuter1"/>
        </filter>
        <path d="M31.08 30.24H12.6a.84.84 0 0 1-.84-.84V13.44c0-5.567 4.513-10.08 10.08-10.08s10.08 4.513 10.08 10.08V29.4a.84.84 0 0 1-.84.84z" id="b"/>
        <path d="M20.172 24.295v-8.283a.84.84 0 0 0-1.68 0v8.283a.84.84 0 1 0 1.68 0z" id="f"/>
        <path d="M25.212 24.295v-8.283a.84.84 0 0 0-1.68 0v8.283a.84.84 0 1 0 1.68 0z" id="h"/>
        <linearGradient x1="67.779%" y1="-82.62%" x2="42.862%" y2="50%" id="c">
            <stop stop-color="#9CB3FF" offset="0%"/>
            <stop stop-color="#637CFF" offset="100%"/>
        </linearGradient>
    </defs>
    <g fill="none" fill-rule="evenodd">
        <rect fill="#3DE2CB" opacity=".15" width="64" height="64" rx="16"/>
        <path d="M10 12h42v42H10z"/>
        <g fill-rule="nonzero" transform="translate(10 12)">
            <use fill="#000" filter="url(#a)" xlink:href="#b"/>
            <use fill="url(#c)" xlink:href="#b"/>
            <use fill="#000" filter="url(#d)" xlink:href="#b"/>
        </g>
        <g transform="translate(10 12)">
            <use fill="#000" filter="url(#e)" xlink:href="#f"/>
            <use fill="#E2FBF7" xlink:href="#f"/>
        </g>
        <g transform="translate(10 12)">
            <use fill="#000" filter="url(#g)" xlink:href="#h"/>
            <use fill="#E2FBF7" xlink:href="#h"/>
        </g>
        <path d="M35.2 43.92v3.36a3.36 3.36 0 1 1-6.72 0v-3.36h6.72z" fill="#44D5E9"/>
    </g>
</svg>
