<svg width="64" height="64" viewBox="0 0 64 64" xmlns="http://www.w3.org/2000/svg" xmlns:xlink="http://www.w3.org/1999/xlink">
    <defs>
        <filter x="-3.3%" y="-3.1%" width="106.6%" height="112.5%" filterUnits="objectBoundingBox" id="a">
            <feOffset dy="2" in="SourceAlpha" result="shadowOffsetOuter1"/>
            <feColorMatrix values="0 0 0 0 0 0 0 0 0 0 0 0 0 0 0 0 0 0 0.1 0" in="shadowOffsetOuter1"/>
        </filter>
        <filter x="-3.3%" y="-3.1%" width="106.6%" height="112.5%" filterUnits="objectBoundingBox" id="d">
            <feOffset dy="2" in="SourceAlpha" result="shadowOffsetInner1"/>
            <feComposite in="shadowOffsetInner1" in2="SourceAlpha" operator="arithmetic" k2="-1" k3="1" result="shadowInnerInner1"/>
            <feColorMatrix values="0 0 0 0 1 0 0 0 0 1 0 0 0 0 1 0 0 0 0.19263549 0" in="shadowInnerInner1"/>
        </filter>
        <linearGradient x1="78.525%" y1="-82.62%" x2="38.548%" y2="50%" id="c">
            <stop stop-color="#9CB3FF" offset="0%"/>
            <stop stop-color="#637CFF" offset="100%"/>
        </linearGradient>
        <path d="M29.6 28.8a4 4 0 1 1 0 8 4 4 0 0 1 0-8zm-19.2 0a4 4 0 1 1 0 8 4 4 0 0 1 0-8zm10.4-24a8.007 8.007 0 0 1 7.866 6.548 8.014 8.014 0 0 1 6.534 7.88c0 4.096-3.08 7.52-7.2 7.972H12c-4.12-.452-7.2-3.876-7.2-7.971 0-4.427 3.581-8.015 8-8.015l.16.001A8.007 8.007 0 0 1 20.8 4.8z" id="b"/>
    </defs>
    <g fill="none" fill-rule="evenodd">
        <rect fill="#3DE2CB" opacity=".15" width="64" height="64" rx="16"/>
        <path d="M12 11h40v40H12z"/>
        <path fill="#44D5E9" fill-rule="nonzero" d="M33.2 42.608h6.388v2.4H24.443v-2.4H30.8V36.2h2.4z"/>
        <g fill-rule="nonzero" transform="translate(12 11)">
            <use fill="#000" filter="url(#a)" xlink:href="#b"/>
            <use fill="url(#c)" xlink:href="#b"/>
            <use fill="#000" filter="url(#d)" xlink:href="#b"/>
        </g>
    </g>
</svg>
