<svg width="64" height="64" viewBox="0 0 64 64" xmlns="http://www.w3.org/2000/svg" xmlns:xlink="http://www.w3.org/1999/xlink">
    <defs>
        <filter x="-3.3%" y="-3.3%" width="106.6%" height="113.2%" filterUnits="objectBoundingBox" id="a">
            <feOffset dy="2" in="SourceAlpha" result="shadowOffsetOuter1"/>
            <feColorMatrix values="0 0 0 0 0 0 0 0 0 0 0 0 0 0 0 0 0 0 0.1 0" in="shadowOffsetOuter1"/>
        </filter>
        <filter x="-3.3%" y="-3.3%" width="106.6%" height="113.2%" filterUnits="objectBoundingBox" id="d">
            <feOffset dy="2" in="SourceAlpha" result="shadowOffsetInner1"/>
            <feComposite in="shadowOffsetInner1" in2="SourceAlpha" operator="arithmetic" k2="-1" k3="1" result="shadowInnerInner1"/>
            <feColorMatrix values="0 0 0 0 1 0 0 0 0 1 0 0 0 0 1 0 0 0 0.19263549 0" in="shadowInnerInner1"/>
        </filter>
        <linearGradient x1="81.607%" y1="-82.62%" x2="37.311%" y2="50%" id="c">
            <stop stop-color="#9CB3FF" offset="0%"/>
            <stop stop-color="#637CFF" offset="100%"/>
        </linearGradient>
        <path d="M19.44 21.6a2.16 2.16 0 0 1 2.16 2.16v7.2a2.16 2.16 0 0 1-2.16 2.16h-2.88a2.16 2.16 0 0 1-2.16-2.16v-7.2a2.16 2.16 0 0 1 2.16-2.16h2.88zm11.52-4.32a2.16 2.16 0 0 1 2.16 2.16v11.52a2.16 2.16 0 0 1-2.16 2.16h-2.88a2.16 2.16 0 0 1-2.16-2.16V19.44a2.16 2.16 0 0 1 2.16-2.16h2.88zm-13.68-5.76a2.88 2.88 0 1 1 0 5.76 2.88 2.88 0 0 1 0-5.76zM28.8 5.76a2.88 2.88 0 1 1 0 5.76 2.88 2.88 0 0 1 0-5.76zM5.76 2.88a2.88 2.88 0 1 1 0 5.76 2.88 2.88 0 0 1 0-5.76z" id="b"/>
    </defs>
    <g fill="none" fill-rule="evenodd">
        <rect fill="#3DE2CB" opacity=".15" width="64" height="64" rx="16"/>
        <path d="M14 14h36v36H14z"/>
        <g fill-rule="nonzero" transform="translate(14 14)">
            <use fill="#000" filter="url(#a)" xlink:href="#b"/>
            <use fill="url(#c)" xlink:href="#b"/>
            <use fill="#000" filter="url(#d)" xlink:href="#b"/>
        </g>
        <path d="M21.92 28.4a2.16 2.16 0 0 1 2.16 2.16V44.9a2.16 2.16 0 0 1-2.16 2.16h-2.88a2.16 2.16 0 0 1-2.16-2.16V30.56a2.16 2.16 0 0 1 2.16-2.16h2.88zm16.863-4.167a4.331 4.331 0 0 0 1.3 1.765l-4.486 2.243a4.297 4.297 0 0 0-.633-2.098l3.82-1.91zm-15.111-2.637 4.751 3.563a4.326 4.326 0 0 0-1.213 1.79l-4.918-3.688c.59-.427 1.067-1 1.38-1.665z" fill="#44D5E9" fill-rule="nonzero"/>
    </g>
</svg>
