<svg width="64" height="64" viewBox="0 0 64 64" xmlns="http://www.w3.org/2000/svg" xmlns:xlink="http://www.w3.org/1999/xlink">
    <defs>
        <filter x="-3.3%" y="-3%" width="106.7%" height="112%" filterUnits="objectBoundingBox" id="a">
            <feOffset dy="2" in="SourceAlpha" result="shadowOffsetOuter1"/>
            <feColorMatrix values="0 0 0 0 0 0 0 0 0 0 0 0 0 0 0 0 0 0 0.1 0" in="shadowOffsetOuter1"/>
        </filter>
        <filter x="-3.3%" y="-3%" width="106.7%" height="112%" filterUnits="objectBoundingBox" id="d">
            <feOffset dy="2" in="SourceAlpha" result="shadowOffsetInner1"/>
            <feComposite in="shadowOffsetInner1" in2="SourceAlpha" operator="arithmetic" k2="-1" k3="1" result="shadowInnerInner1"/>
            <feColorMatrix values="0 0 0 0 1 0 0 0 0 1 0 0 0 0 1 0 0 0 0.19263549 0" in="shadowInnerInner1"/>
        </filter>
        <linearGradient x1="75.601%" y1="-82.62%" x2="39.722%" y2="50%" id="c">
            <stop stop-color="#9CB3FF" offset="0%"/>
            <stop stop-color="#637CFF" offset="100%"/>
        </linearGradient>
        <path d="M19.444 28.73c2.18 0 3.948 1.777 3.948 3.968 0 2.192-1.767 3.969-3.948 3.969-2.18 0-3.947-1.777-3.947-3.969 0-2.191 1.767-3.968 3.947-3.968zm.79-25.397c3.84 0 7.08 2.776 7.763 6.496 3.693.689 6.447 3.951 6.447 7.819 0 4.062-3.04 7.46-7.105 7.908H11.55a7.945 7.945 0 0 1-7.105-7.908c0-4.392 3.535-7.952 7.895-7.952l.158.002c.734-3.654 3.941-6.365 7.737-6.365z" id="b"/>
    </defs>
    <g fill="none" fill-rule="evenodd">
        <rect fill="#3DE2CB" opacity=".2" width="64" height="64" rx="16"/>
        <path d="M12 13h40v40H12z"/>
        <path d="M28.317 45.137c.648 0 1.173.516 1.173 1.154 0 .637-.525 1.153-1.173 1.153h-6.255a1.163 1.163 0 0 1-1.173-1.153c0-.638.525-1.154 1.173-1.154h6.255zm12.51 0c.648 0 1.173.516 1.173 1.154 0 .637-.525 1.153-1.173 1.153h-6.255a1.163 1.163 0 0 1-1.173-1.153c0-.638.525-1.154 1.173-1.154h6.255zm-8.21-7.693v6.924h-2.345v-6.924h2.345z" fill="#44D5E9" fill-rule="nonzero"/>
        <g fill-rule="nonzero" transform="translate(12 13)">
            <use fill="#000" filter="url(#a)" xlink:href="#b"/>
            <use fill="url(#c)" xlink:href="#b"/>
            <use fill="#000" filter="url(#d)" xlink:href="#b"/>
        </g>
    </g>
</svg>
