<svg width="109" height="44" viewBox="0 0 109 44" xmlns="http://www.w3.org/2000/svg">
    <path d="M.457.5v2.949H21.44V.5H.457zm23.957 0v2.949h29.904S51.263.5 47.218.5H24.414zm35.77 0v2.949h18.088L77.2.5H60.183zm31.06 0-1.073 2.949h17.928V.5H91.244zM.457 6.235v2.948H21.44V6.235H.457zm23.957.004v2.943h33.371s-.39-2.27-1.069-2.943H24.414zm35.77 0v2.943H80.27l-.993-2.943H60.183zm28.912 0-.993 2.943h19.994V6.239h-19zm-82.608 5.73v2.953h9.088V11.97H6.488zm23.957 0v2.953h9.088V11.97h-9.088zm17.928 0v2.953h9.087s.578-1.56.578-2.953h-9.665zm17.842 0v2.953h16.098L81.24 11.97H66.215zm20.904 0-1.078 2.953h16.191V11.97H87.119zM6.49 17.71v2.948h9.088v-2.949H6.489zm23.957 0v2.948h23.212s1.94-1.513 2.559-2.949h-25.77zm35.77 0v2.948h9.087v-1.642l.578 1.642h16.648l.62-1.642v1.642h9.087v-2.949h-17.06l-.906 2.498-.908-2.498H66.215zM6.487 23.442v2.949h9.088v-2.949H6.488zm23.957 0v2.949h25.77c-.619-1.43-2.559-2.949-2.559-2.949H30.445zm35.769 0v2.949h9.088v-2.949h-9.088zm10.739 0 1.1 2.949h12.483l1.045-2.949H76.953zm16.191 0v2.949h9.088v-2.949h-9.088zM6.491 29.178v2.948h9.087v-2.948H6.491zm23.957 0v2.948h9.087v-2.948h-9.087zm17.927 0v2.948h9.665c0-1.391-.578-2.948-.578-2.948h-9.087zm17.843 0v2.948h9.088v-2.948h-9.088zm12.801 0 1.065 2.948h8.366l1.073-2.948H79.019zm14.128 0v2.948h9.088v-2.948h-9.088zM.625 34.913v2.952h20.983v-2.952H.625zm23.793 0v2.952h32.304c.68-.676 1.069-2.952 1.069-2.952H24.418zm35.933 0v2.952h14.95v-2.952H60.35zm20.735 0 1.095 2.952h4.257l1.028-2.952h-6.38zm12.061 0v2.952h15.118v-2.952H93.147zM.625 40.65V43.6h20.983v-2.949H.625zm23.793 0v2.943h22.8c4.045 0 7.1-2.943 7.1-2.943h-29.9zm35.933 0V43.6h14.95v-2.949H60.35zm22.813 0 1.052 2.94.182.005 1.069-2.943-2.303-.002zm9.984 0V43.6h15.119v-2.949H93.148z" fill="#1F70C1" fill-rule="nonzero"/>
</svg>
