<svg width="169" height="45" viewBox="0 0 169 45" xmlns="http://www.w3.org/2000/svg">
    <g fill="#0F0708" fill-rule="evenodd">
        <path d="M147.759 29.3c.309.927.371 1.978.186 3.029 6.119-.186 12.239-.433 18.296-.619 1.422-3.09 2.349-6.552 2.534-10.199-6.985 2.596-14.03 5.193-21.016 7.789m-.928 6.181c-.618 1.05-1.421 1.978-2.472 2.72 2.782 2.102 5.626 4.141 8.407 6.243 2.843-.927 5.563-2.596 7.85-4.821-4.574-1.36-9.149-2.782-13.785-4.142m-6.118 4.265c-1.485.247-3.215.247-5.131-.247 2.72 2.843 5.686 4.574 8.654 5.316-1.175-1.67-2.35-3.4-3.523-5.07M159.566 0c3.523 3.4 5.933 7.109 7.355 10.817-6.861 5.44-13.785 10.941-20.645 16.381-.743-.556-1.67-.804-2.782-.68A9841.115 9841.115 0 0 1 159.566 0M12.696 22.995 8.678 34.306h8.036l-4.018-11.311zm12.98 19.47c.186.495.31.866.31 1.175.062.31 0 .495-.185.618-.186.124-.433.248-.866.248-.433.062-.989.062-1.669.062h-1.73c-.433 0-.742-.062-.928-.124-.247-.062-.37-.124-.432-.247-.062-.124-.186-.248-.248-.433l-1.916-5.378H7.38L5.587 43.58c-.061.185-.123.37-.247.494-.123.124-.247.247-.432.31a6.569 6.569 0 0 1-.866.185c-.37 0-.865.061-1.545.061-.68 0-1.175 0-1.546-.061-.37-.062-.618-.124-.803-.31-.124-.185-.186-.37-.124-.68.062-.309.124-.68.31-1.174l8.715-23.613c.062-.247.185-.432.31-.556.123-.124.308-.247.555-.31a4.438 4.438 0 0 1 1.051-.123h3.833c.494 0 .927.062 1.174.124.31.062.495.185.618.309.124.124.248.37.31.618l8.777 23.613zM60.293 43.826c0 .124-.062.247-.124.37-.062.124-.247.186-.433.248a2.743 2.743 0 0 1-.803.124c-.371.061-.804.061-1.36.061-.557 0-.99 0-1.36-.061-.371-.062-.618-.062-.865-.124-.186-.062-.371-.124-.433-.247-.062-.124-.124-.247-.124-.371v-10.88c0-.617-.062-1.174-.185-1.668a4.121 4.121 0 0 0-.557-1.298c-.247-.371-.556-.618-.989-.866a3.147 3.147 0 0 0-1.36-.309c-.68 0-1.298.247-1.978.742-.68.494-1.421 1.174-2.163 2.102v12.177c0 .124-.062.247-.124.37-.061.124-.247.186-.432.248a2.866 2.866 0 0 1-.866.124c-.37.061-.803.061-1.298.061-.556 0-.989 0-1.36-.061-.37-.062-.618-.062-.865-.124-.186-.062-.371-.124-.433-.247-.062-.124-.123-.247-.123-.371v-10.88c0-.617-.062-1.174-.186-1.668a4.121 4.121 0 0 0-.556-1.298c-.247-.371-.557-.618-.99-.866a3.147 3.147 0 0 0-1.36-.309c-.68 0-1.359.247-2.039.742-.68.494-1.36 1.174-2.163 2.102v12.177c0 .124-.062.247-.124.37-.062.124-.247.186-.433.248a2.866 2.866 0 0 1-.865.124c-.371.061-.804.061-1.36.061s-.99 0-1.36-.061c-.37-.062-.618-.062-.865-.124-.186-.062-.371-.124-.433-.247-.062-.124-.124-.247-.124-.371V25.467c0-.123.062-.247.124-.37.062-.124.185-.186.37-.248.186-.062.434-.124.743-.124.309-.061.68-.061 1.112-.061.495 0 .866 0 1.175.061.309.062.556.062.68.124.185.062.309.124.37.247.062.124.124.248.124.371v2.102a12.466 12.466 0 0 1 3.214-2.473c1.051-.556 2.164-.803 3.338-.803.804 0 1.546.062 2.164.247.618.185 1.236.37 1.73.68.495.31.928.618 1.299 1.05.37.434.68.866.927 1.36.556-.617 1.174-1.112 1.73-1.545.557-.432 1.113-.803 1.67-1.05.556-.248 1.112-.495 1.669-.619a7.673 7.673 0 0 1 1.669-.185c1.298 0 2.41.185 3.276.618.865.433 1.607.99 2.163 1.67.557.679.927 1.544 1.175 2.472.247.927.37 1.978.37 3.028v11.807zM76.859 36.037h-2.102c-.866 0-1.67.062-2.287.186a5.035 5.035 0 0 0-1.546.556c-.37.248-.68.557-.865.866-.185.37-.247.742-.247 1.174 0 .741.247 1.36.803 1.792.495.434 1.237.68 2.164.68.742 0 1.483-.185 2.102-.556.68-.371 1.298-.927 1.978-1.607v-3.091zm5.44 7.85c0 .186-.063.372-.248.433-.124.124-.371.185-.68.248-.31.061-.804.061-1.36.061-.68 0-1.113 0-1.422-.061-.309-.063-.494-.124-.618-.248a.561.561 0 0 1-.185-.433v-1.483c-.804.804-1.731 1.422-2.72 1.916a8.77 8.77 0 0 1-3.4.68c-1.05 0-1.978-.123-2.843-.37-.866-.248-1.607-.619-2.226-1.113a5.474 5.474 0 0 1-1.483-1.854c-.37-.743-.495-1.608-.495-2.597 0-1.05.248-1.978.68-2.782.433-.803 1.113-1.42 1.978-1.978.866-.494 1.978-.865 3.277-1.112 1.298-.248 2.843-.371 4.574-.371h1.916v-1.175a5.41 5.41 0 0 0-.185-1.483c-.124-.433-.31-.804-.619-1.051-.309-.31-.68-.495-1.112-.618-.495-.123-1.051-.186-1.731-.186-.927 0-1.73.124-2.473.31-.741.185-1.36.432-1.916.618-.556.247-.989.432-1.36.618-.37.185-.68.309-.927.309-.185 0-.309-.062-.433-.124-.123-.123-.247-.247-.309-.432-.061-.186-.123-.371-.185-.68-.062-.247-.062-.556-.062-.865 0-.434.062-.743.124-.99s.185-.494.432-.68c.186-.185.557-.433 1.051-.68.495-.247 1.113-.432 1.793-.68.68-.185 1.422-.37 2.225-.494a16.645 16.645 0 0 1 2.473-.185c1.545 0 2.843.123 3.894.432 1.113.309 1.978.742 2.658 1.298.68.556 1.236 1.36 1.545 2.225.31.928.495 1.978.495 3.276v12.301h-.124zM101.398 42.404c0 .371 0 .741-.061.99-.062.308-.124.493-.185.679-.063.186-.186.248-.31.309-.124.062-.247.123-.37.123H87.737c-.37 0-.68-.123-.928-.37-.184-.248-.309-.68-.309-1.236v-.927c0-.248 0-.495.062-.68 0-.186.063-.371.124-.557.062-.185.123-.371.248-.557.123-.184.246-.432.432-.618l7.294-10.631h-6.923c-.248 0-.494-.186-.68-.495-.186-.31-.248-.865-.248-1.607 0-.37 0-.741.062-.989.063-.247.063-.495.186-.618.061-.186.186-.247.31-.309a.889.889 0 0 1 .431-.124H99.73c.185 0 .37 0 .495.062.123.062.246.124.37.247a1 1 0 0 1 .248.433c.06.186.06.432.06.741v.99c0 .247 0 .494-.06.742 0 .185-.063.432-.125.618-.06.185-.123.37-.247.556-.123.185-.246.371-.37.618l-7.233 10.57h7.666c.123 0 .246 0 .37.062.124.061.185.186.309.31.062.123.124.37.185.617v1.051M111.042 43.826c0 .124-.063.247-.124.37-.062.124-.248.186-.433.248a2.866 2.866 0 0 1-.865.124c-.37.061-.804.061-1.36.061s-.99 0-1.36-.061c-.37-.062-.618-.062-.866-.124-.185-.062-.37-.124-.432-.247-.062-.124-.124-.247-.124-.371V25.529c0-.124.062-.247.124-.37.062-.124.247-.186.432-.248.186-.062.495-.124.866-.186.37-.061.804-.061 1.36-.061s.99 0 1.36.061c.37.062.618.124.865.186.185.062.371.185.433.247.061.124.124.247.124.371v18.297zM131.255 40.859c0 .37 0 .68-.063.865 0 .248-.06.433-.06.618-.063.185-.063.309-.124.371-.062.123-.186.247-.31.371-.185.185-.494.37-.927.557-.433.246-.927.432-1.421.618-.557.185-1.113.309-1.731.432-.618.123-1.299.186-1.978.186-1.484 0-2.844-.247-3.957-.68-1.174-.433-2.1-1.113-2.905-1.916-.804-.866-1.36-1.917-1.792-3.153a14.745 14.745 0 0 1-.618-4.265c0-1.854.246-3.4.742-4.76.494-1.36 1.173-2.472 2.04-3.338a8.54 8.54 0 0 1 3.09-1.978c1.174-.432 2.534-.618 3.956-.618.556 0 1.175.062 1.731.124a28.64 28.64 0 0 1 1.545.37c.495.186.928.371 1.298.557.37.186.68.371.803.556a.82.82 0 0 1 .31.371c.062.123.124.248.124.371.06.186.06.37.06.618s.063.557.063.866c0 .803-.062 1.359-.248 1.668-.123.31-.309.495-.555.495-.248 0-.495-.123-.804-.309a6.837 6.837 0 0 0-.989-.618c-.37-.247-.803-.433-1.36-.618-.494-.186-1.174-.31-1.855-.31-1.42 0-2.534.495-3.275 1.546-.743 1.05-1.113 2.535-1.113 4.574 0 .989.124 1.855.31 2.597a6.05 6.05 0 0 0 .864 1.915c.371.495.866.866 1.422 1.113.556.248 1.236.371 1.978.371.741 0 1.422-.123 1.978-.309a6.047 6.047 0 0 0 1.421-.68c.433-.247.742-.495 1.051-.68.248-.185.495-.309.68-.309.124 0 .247.061.31.124.062.061.185.185.185.37.061.186.061.433.124.68v1.237"/>
    </g>
</svg>
