<svg width="132" height="51" viewBox="0 0 132 51" xmlns="http://www.w3.org/2000/svg">
    <g fill-rule="nonzero" fill="none">
        <path d="m30.875 17.51.279.038c.954.145 4.22.73 7.77 2.37 5.916 2.732 6.133 5.97 6.069 7.644-.115 3.044-3.265 5.261-6.125 6.302l-.1.036c-2.884 1.027-7.4 1.704-7.4 1.704 2.198-2.26 3.616-5.41 3.616-8.811 0-3.679-1.62-6.988-4.11-9.285v.001zM19.308 1l7.522 14.041a12.493 12.493 0 0 0-4.43-.805c-6.952 0-12.586 5.62-12.586 12.556a12.51 12.51 0 0 0 3.773 8.965l-.219-.005a16.871 16.871 0 0 1-2.446-.25l-.177-.035c-1.471-.29-4.276-1.11-6.43-2.4-2.24-1.345-4.498-3.52-4.303-5.954l.052-.643c.192-2.135.652-4.087 5.148-10.497 4.353-6.2 11.96-13.083 13.725-14.646L19.308 1zM22.4 17.574c5.1 0 9.233 4.125 9.233 9.213C31.632 31.875 27.5 36 22.4 36c-5.043-.08-9.089-4.18-9.089-9.213 0-5.032 4.046-9.133 9.09-9.213z" fill="#C80000"/>
        <path d="M91.711 13.442c-4.471-.003-8.174 3.65-8.42 8.25l-.007.14v.722c.178 4.627 3.908 8.311 8.427 8.31 4.608-.01 8.432-3.858 8.432-8.667-.003-4.854-3.826-8.746-8.432-8.755zm-27.809 0c-4.47-.003-8.174 3.65-8.423 8.25l-.006.14-.002.722c.182 4.627 3.915 8.311 8.431 8.31 4.61-.01 8.431-3.858 8.431-8.667 0-4.854-3.828-8.746-8.43-8.755zm55.57 0c-4.607.009-8.433 3.901-8.433 8.755 0 4.809 3.823 8.658 8.432 8.667 4.479 0 8.184-3.61 8.433-8.16l.005-.139v-.723c-.18-4.676-3.917-8.403-8.439-8.4h.001zM83.141 0l.037 12.772c2.456-2.412 5.21-3.447 8.529-3.441 6.995 0 12.531 5.767 12.545 12.87-.014 7.008-5.552 12.773-12.545 12.774-4.057.002-7.516-1.692-9.66-4.585l-.247-.333c-.562-.76-1.033-1.422-1.389-2.235-1.028-2.348-1.23-4.355-1.244-5.128l-.001-.08V.082L83.142 0zM55.337 0l.035 12.772c2.456-2.412 5.207-3.447 8.53-3.441 6.993 0 12.529 5.767 12.544 12.87-.015 7.008-5.55 12.773-12.544 12.774-4.006.002-7.43-1.649-9.577-4.472l-.333-.446c-.562-.76-1.032-1.422-1.388-2.235-1.045-2.39-1.236-4.427-1.243-5.17V.082L55.337 0zm72.69.001 3.973.08v22.54c0 .707-.18 2.776-1.243 5.209-.403.93-.96 1.66-1.634 2.569-2.113 2.853-5.505 4.54-9.49 4.585h-.169c-6.99 0-12.523-5.767-12.535-12.775.011-7.107 5.543-12.876 12.535-12.876 3.267-.006 5.977.996 8.405 3.325l.12.117.039-12.774zm-11.11 43.018c-.305 0-.6.053-.877.153-.276.103-.53.244-.754.424a2.41 2.41 0 0 0-.57.646c-.153.25-.261.524-.313.823h4.997a2.446 2.446 0 0 0-.311-.8 2.724 2.724 0 0 0-.566-.653 2.673 2.673 0 0 0-.743-.433 2.359 2.359 0 0 0-.864-.16h.002zm-51.4 0c-.3 0-.597.051-.878.153-.274.1-.53.243-.756.424-.227.181-.42.4-.57.646-.155.25-.258.524-.316.823h5a2.433 2.433 0 0 0-.314-.8 2.657 2.657 0 0 0-1.307-1.086 2.377 2.377 0 0 0-.86-.16zm-19.142 0c-.31 0-.603.053-.878.153-.279.103-.53.244-.755.424a2.447 2.447 0 0 0-.57.646 2.333 2.333 0 0 0-.316.823h5a2.432 2.432 0 0 0-.313-.8 2.756 2.756 0 0 0-.564-.653 2.77 2.77 0 0 0-.741-.433 2.382 2.382 0 0 0-.863-.16zm33.439 0c-.311 0-.604.053-.881.153-.273.1-.528.243-.754.424a2.46 2.46 0 0 0-.883 1.469h4.999a2.493 2.493 0 0 0-.316-.8 2.634 2.634 0 0 0-1.305-1.086 2.359 2.359 0 0 0-.86-.16zm-22.306-.022c-.364 0-.703.062-1.02.186-.315.126-.591.3-.83.525a2.379 2.379 0 0 0-.557.795 2.507 2.507 0 0 0-.201 1.003c0 .35.069.679.201.985.134.304.318.572.546.802.228.232.496.414.807.546.31.134.64.2.994.2.356 0 .69-.064 1.008-.188.316-.126.591-.297.824-.517.232-.217.418-.478.558-.778.137-.302.21-.629.21-.98 0-.353-.056-.677-.156-.973a1.985 1.985 0 0 0-.458-.752l-.068-.068a2.541 2.541 0 0 0-.849-.581 2.544 2.544 0 0 0-1.01-.205zm-22.771.011a2.537 2.537 0 0 0-1.804.746c-.23.234-.414.507-.545.806a2.427 2.427 0 0 0-.202.986c0 .362.067.695.202 1.005.129.301.319.573.558.8a2.705 2.705 0 0 0 1.85.71 2.608 2.608 0 0 0 1.866-.79c.253-.249.43-.522.53-.822.1-.314.15-.643.147-.973-.001-.666-.277-1.303-.765-1.763a2.564 2.564 0 0 0-.826-.517 2.748 2.748 0 0 0-1.011-.188zm55.18.011c-.68.001-1.328.275-1.799.76a2.572 2.572 0 0 0-.731 1.8c0 .347.07.67.202.973a2.538 2.538 0 0 0 3.33 1.315 2.495 2.495 0 0 0 1.308-1.374c.123-.318.186-.655.186-.995 0-.351-.066-.673-.187-.962a2.42 2.42 0 0 0-.576-.812 2.586 2.586 0 0 0-.793-.517 2.428 2.428 0 0 0-.94-.188zm-80.612 0c-.357 0-.69.069-1 .205a2.566 2.566 0 0 0-1.53 2.355c.004.663.273 1.297.748 1.765a2.52 2.52 0 0 0 1.782.729c.364 0 .699-.069 1.002-.206a2.48 2.48 0 0 0 .792-.559c.22-.234.391-.506.512-.816a2.67 2.67 0 0 0 .187-.994c0-.351-.064-.673-.187-.962a2.586 2.586 0 0 0-1.37-1.329 2.397 2.397 0 0 0-.936-.188zm88.654 0c-.36 0-.694.063-1.014.188a2.528 2.528 0 0 0-1.382 1.3 2.331 2.331 0 0 0-.208.982c0 .35.046.675.15.973.098.298.274.573.525.823.246.251.53.445.849.582.322.136.66.207 1.019.207a2.694 2.694 0 0 0 1.85-.711c.238-.225.427-.49.56-.8.134-.311.202-.645.202-1.005 0-.352-.07-.682-.202-.986-.13-.3-.316-.574-.549-.805a2.513 2.513 0 0 0-1.8-.748zm-27.573-.694 2.248 5.324 2.248-5.324h.95l-2.747 6.428h-.914l-2.736-6.428h.951zm-28.003-.127v.832a2.677 2.677 0 0 0-.615.054 1.493 1.493 0 0 0-.6.266c-.26.183-.443.456-.512.764-.082.34-.122.688-.12 1.037v3.602h-.882v-4.148c.008-.177.025-.336.053-.469l.034-.15c.016-.065.036-.128.058-.19.031-.11.066-.21.106-.295.246-.47.585-.814 1.017-1.035a2.757 2.757 0 0 1 1.46-.268zm81.995.01c.424.008.84.098 1.24.266.397.167.742.428 1.025.78.253.307.415.634.488.981.071.349.107.728.107 1.136v3.382h-.878v-3.39a4.76 4.76 0 0 0-.066-.802 1.757 1.757 0 0 0-.313-.73 1.744 1.744 0 0 0-.714-.588 2.411 2.411 0 0 0-.912-.2c-.312.012-.62.084-.905.211a1.807 1.807 0 0 0-1.016 1.307 4.97 4.97 0 0 0-.066.801v3.391h-.877v-3.38c0-.409.038-.787.106-1.137.072-.347.236-.674.485-.98.286-.353.631-.615 1.037-.79.397-.17.826-.257 1.26-.257zm-102.438.117 2.042 5.382 1.51-4.593h.725l1.498 4.593 2.08-5.382h.93l-2.476 6.428H27.24l-1.39-4.264-1.368 4.264H23.47l-2.46-6.428h.929zm63.323-2.254v8.682h-.88v-8.682h.88zm-68.407 0v.786h-.166c-.452 0-.804.11-1.059.329-.25.22-.377.556-.377 1.012v.127h1.018v.789h-1.018v5.64h-.882v-5.64h-1.009v-.789h1.009a2.467 2.467 0 0 1 .138-.962c.108-.283.263-.519.463-.711a1.97 1.97 0 0 1 .746-.436c.29-.098.612-.145.97-.145h.167zm2.423 0v2.256h1.506v.786h-1.507v5.64h-.879v-5.64h-1.355v-.786H18.4V40.07h.88zm111.082 0v2.256h1.507v.786h-1.507v5.64h-.879v-5.64h-1.354v-.786h1.354V40.07h.879zM109.8 42.16c.223.008.438.045.637.106.203.062.393.14.566.228.173.091.333.194.469.308.272.209.488.481.627.793.062.148.104.303.13.464.023.16.036.327.04.499l.005.4v3.809h-.88v-3.585a6.96 6.96 0 0 0-.04-.752 1.494 1.494 0 0 0-.253-.706 1.545 1.545 0 0 0-.664-.534 2.176 2.176 0 0 0-.838-.16 1.8 1.8 0 0 0-.806.195c-.263.13-.475.307-.63.535a1.356 1.356 0 0 0-.245.687c-.02.245-.03.49-.03.735v3.585h-.879v-3.585c0-.236-.008-.48-.03-.735a1.379 1.379 0 0 0-.244-.687 1.658 1.658 0 0 0-.63-.535 1.818 1.818 0 0 0-.808-.194 2.184 2.184 0 0 0-.84.16c-.512.213-.864.69-.913 1.24-.027.249-.042.5-.043.751v3.585h-.877v-3.67c0-.14 0-.278.002-.41l.004-.13c.002-.172.014-.339.038-.5.05-.334.19-.648.405-.911a2.36 2.36 0 0 1 .352-.345 2.62 2.62 0 0 1 .472-.308c.18-.093.367-.17.56-.228.202-.062.419-.098.64-.107.397-.01.793.057 1.164.2.396.149.745.42 1.045.812l.023.025c.018.02.034.04.05.063l.04.06c.012.018.023.034.031.05l.095-.135.047-.063c.3-.392.647-.662 1.046-.811a2.985 2.985 0 0 1 1.163-.2h-.001zm-48.927-2.103v5.57c0 .478-.087.916-.264 1.316-.17.398-.41.743-.722 1.029a3.308 3.308 0 0 1-1.086.668c-.43.166-.887.248-1.347.244-.467 0-.936-.09-1.4-.265-.469-.178-.885-.485-1.25-.923a4.798 4.798 0 0 1-.533-.935c-.172-.399-.257-.83-.25-1.264 0-.477.094-.922.285-1.333a3.422 3.422 0 0 1 1.883-1.77c.43-.165.887-.245 1.347-.235.523.017.98.113 1.365.29.387.175.686.367.893.57l.059.064c.02.023.043.048.064.076l.065.084.014.023v-3.209h.877zm-26.135 2.116c.483 0 .931.08 1.348.24.414.16.778.383 1.085.67.31.284.551.627.725 1.025.175.398.26.838.26 1.315v3.32h-.875v-.962a.168.168 0 0 1-.015.02l-.066.08c-.038.047-.08.092-.123.136-.213.21-.51.403-.895.579-.386.175-.837.272-1.362.288a3.336 3.336 0 0 1-1.345-.228 3.549 3.549 0 0 1-1.12-.705 3.496 3.496 0 0 1-.764-1.068 3.155 3.155 0 0 1-.287-1.33c0-.471.083-.892.25-1.263.166-.371.346-.684.535-.933.367-.438.782-.744 1.248-.92a3.963 3.963 0 0 1 1.4-.264zm30.77.011c.516 0 .997.107 1.448.324.449.214.838.52 1.172.92.27.337.471.724.59 1.139.055.194.098.399.122.61.023.211.038.435.049.667h-5.89c.007.306.087.594.233.864.146.27.334.504.56.704.228.198.482.357.77.475.293.116.586.177.886.177a2.756 2.756 0 0 0 1.38-.373c.208-.12.396-.27.558-.444.17-.176.302-.373.397-.592h.914a3.228 3.228 0 0 1-.488.892c-.213.273-.464.51-.746.708-.276.2-.586.358-.919.47a3.09 3.09 0 0 1-1.013.172 3.427 3.427 0 0 1-2.417-.976 3.405 3.405 0 0 1-.725-1.067 3.205 3.205 0 0 1-.27-1.314 3.316 3.316 0 0 1 2.06-3.092c.42-.178.872-.267 1.33-.264zm14.29 0c.519 0 .997.107 1.446.324a3.42 3.42 0 0 1 1.538 1.482c.095.19.169.38.224.577.055.194.096.399.119.61.025.211.04.435.048.667h-5.877c.008.306.084.594.23.864.146.27.334.504.557.704.226.198.485.357.773.475.288.116.582.177.884.177.24 0 .477-.032.714-.096a2.582 2.582 0 0 0 1.222-.72c.165-.177.296-.374.394-.593h.913a3.078 3.078 0 0 1-.486.892c-.213.273-.464.51-.745.708a3.52 3.52 0 0 1-.92.47c-.332.115-.668.172-1.008.172-.477 0-.919-.088-1.336-.26a3.295 3.295 0 0 1-1.082-.716 3.44 3.44 0 0 1-.723-1.067 3.237 3.237 0 0 1-.27-1.314 3.32 3.32 0 0 1 .986-2.376 3.39 3.39 0 0 1 2.4-.98zm-33.435 0c.513 0 .996.107 1.44.324.448.214.84.52 1.174.92.274.335.476.723.593 1.139.056.194.093.399.117.61.023.211.04.435.046.667h-5.877c.007.306.086.594.23.864.153.27.334.504.559.704.225.198.485.357.774.475.288.116.587.177.885.177.237 0 .474-.032.712-.096.468-.121.893-.37 1.225-.72.167-.177.293-.374.391-.593h.913c-.11.323-.275.624-.487.892a3.52 3.52 0 0 1-1.664 1.179 3.09 3.09 0 0 1-1.008.17 3.439 3.439 0 0 1-1.335-.26 3.194 3.194 0 0 1-1.077-.715 3.422 3.422 0 0 1-.728-1.067 3.244 3.244 0 0 1-.267-1.314 3.306 3.306 0 0 1 .982-2.377c.303-.3.661-.539 1.07-.715.421-.178.875-.268 1.332-.264zm43.555 0c.449 0 .878.088 1.287.264a3.506 3.506 0 0 1 1.81 1.777c.183.4.273.822.273 1.266a3.366 3.366 0 0 1-.979 2.39 3.411 3.411 0 0 1-1.077.738 3.356 3.356 0 0 1-2.622.017 3.425 3.425 0 0 1-1.085-.71 3.386 3.386 0 0 1-.746-1.054 3.318 3.318 0 0 1-.004-2.617c.18-.41.422-.768.725-1.074a3.53 3.53 0 0 1 1.082-.729c.422-.18.877-.271 1.336-.268zm-80.609 0c.453 0 .881.088 1.29.264.41.176.77.417 1.074.722.311.303.559.656.74 1.056.184.399.272.82.272 1.265a3.38 3.38 0 0 1-.978 2.39 3.47 3.47 0 0 1-1.078.738 3.35 3.35 0 0 1-2.626.018 3.398 3.398 0 0 1-1.09-.711 3.317 3.317 0 0 1-.743-1.054 3.115 3.115 0 0 1-.277-1.299 3.38 3.38 0 0 1 2.079-3.119c.422-.18.878-.272 1.339-.269h-.002zm-6.19 0c.243 0 .476.046.694.14.427.175.77.508.953.928.097.21.146.438.144.669h-.878c0-.282-.096-.503-.29-.663a1.092 1.092 0 0 0-.719-.24.875.875 0 0 0-.642.258.85.85 0 0 0-.26.633c0 .18.03.326.095.44a.88.88 0 0 0 .256.289c.103.076.227.14.367.191.138.051.28.103.421.147.244.08.477.165.695.259.218.093.408.214.576.357.166.144.3.32.399.522.097.205.147.451.147.74 0 .305-.054.583-.161.834-.202.49-.601.875-1.102 1.062a2.399 2.399 0 0 1-.838.147 1.87 1.87 0 0 1-.783-.165 2.017 2.017 0 0 1-1.064-1.098 1.774 1.774 0 0 1-.125-.78h.882c-.012.165.017.319.073.465.06.144.144.273.25.385.22.23.527.36.848.359.317 0 .587-.1.809-.294a.984.984 0 0 0 .33-.775 1.08 1.08 0 0 0-.103-.492 1.08 1.08 0 0 0-.286-.341 1.759 1.759 0 0 0-.403-.234 4.376 4.376 0 0 0-.346-.128l-.12-.037a11.103 11.103 0 0 1-.62-.21 1.563 1.563 0 0 1-.553-.352 1.536 1.536 0 0 1-.394-.558 1.772 1.772 0 0 1 .421-1.955 1.967 1.967 0 0 1 1.327-.504v.001zm113.788 0c.515 0 .995.107 1.442.324.448.214.837.52 1.172.92.274.335.476.723.593 1.139.055.194.095.399.118.61.026.211.04.435.05.667h-5.879c.006.306.084.594.233.864.146.27.331.504.555.704.224.198.483.357.773.475.29.116.583.177.884.177a2.7 2.7 0 0 0 .71-.096 2.586 2.586 0 0 0 1.228-.721c.163-.176.295-.373.387-.592h.918a3.038 3.038 0 0 1-.49.892 3.496 3.496 0 0 1-1.661 1.179c-.325.112-.666.17-1.01.17a3.46 3.46 0 0 1-1.336-.26 3.238 3.238 0 0 1-1.08-.715 3.45 3.45 0 0 1-.725-1.067 3.244 3.244 0 0 1-.266-1.314c0-.468.087-.908.263-1.314.173-.408.411-.76.716-1.063a3.433 3.433 0 0 1 1.074-.715c.42-.178.874-.268 1.331-.264zm-18.948 0c.464 0 .932.088 1.396.264.47.176.886.485 1.25.92.19.25.367.563.534.935.166.372.25.793.25 1.262 0 .477-.096.922-.286 1.332a3.442 3.442 0 0 1-3.23 2.002c-.522-.018-.976-.112-1.36-.288-.383-.177-.684-.37-.897-.581a2.254 2.254 0 0 1-.081-.087l-.043-.049a.513.513 0 0 1-.076-.1V51h-.894l.014-5.563c0-.478.086-.916.262-1.315.172-.4.415-.741.724-1.027a3.397 3.397 0 0 1 1.085-.67 3.74 3.74 0 0 1 1.352-.24z" fill="#000"/>
    </g>
</svg>
