<svg width="192" height="28" viewBox="0 0 192 28" xmlns="http://www.w3.org/2000/svg">
    <g fill-rule="nonzero" fill="none">
        <path d="M127.147 12.353v-2.25h-2.777V6.608l-.094.029-2.608.802-.051.016v2.65H117.5V8.628c0-.688.153-1.214.454-1.564.3-.347.727-.523 1.272-.523.392 0 .798.093 1.207.276l.102.046V4.494l-.048-.018c-.381-.138-.9-.207-1.542-.207-.81 0-1.546.177-2.188.529a3.75 3.75 0 0 0-1.5 1.493c-.353.638-.532 1.374-.532 2.19v1.623h-1.934v2.249h1.934v9.476h2.775v-9.476h4.117v6.022c0 2.48 1.163 3.737 3.456 3.737.377 0 .774-.044 1.179-.131.412-.09.693-.179.858-.274l.037-.022v-2.27l-.113.075c-.15.101-.338.183-.558.245a2.11 2.11 0 0 1-.549.094c-.537 0-.934-.146-1.181-.433-.25-.29-.376-.798-.376-1.507v-5.536h2.777zm-20.554 7.476c-1.008 0-1.802-.336-2.362-.998-.563-.665-.848-1.614-.848-2.819 0-1.243.285-2.216.848-2.893.56-.673 1.347-1.014 2.339-1.014.962 0 1.729.326 2.277.97.552.646.832 1.611.832 2.87 0 1.272-.263 2.25-.782 2.905-.516.65-1.291.979-2.304.979m.123-10.008c-1.922 0-3.449.567-4.537 1.684-1.088 1.118-1.64 2.664-1.64 4.597 0 1.836.539 3.313 1.6 4.388 1.063 1.077 2.508 1.622 4.296 1.622 1.863 0 3.36-.575 4.447-1.708 1.088-1.131 1.64-2.663 1.64-4.55 0-1.865-.518-3.353-1.538-4.422-1.021-1.069-2.457-1.61-4.268-1.61m-10.652 0c-1.307 0-2.389.336-3.215.999-.831.667-1.253 1.542-1.253 2.601 0 .55.091 1.04.27 1.454.18.417.46.783.83 1.09.368.305.935.625 1.687.95.632.262 1.104.483 1.403.657.293.171.5.343.618.51.114.165.172.389.172.665 0 .788-.587 1.171-1.793 1.171-.448 0-.959-.094-1.518-.279a5.688 5.688 0 0 1-1.554-.793l-.115-.083v2.689l.042.02c.393.182.888.336 1.472.457a7.848 7.848 0 0 0 1.571.182c1.42 0 2.562-.338 3.395-1.005.84-.672 1.264-1.568 1.264-2.663 0-.79-.228-1.468-.68-2.015-.448-.542-1.225-1.04-2.31-1.48-.864-.349-1.418-.639-1.646-.86-.22-.216-.332-.52-.332-.904 0-.341.138-.614.421-.836.286-.222.683-.335 1.181-.335.463 0 .936.073 1.407.217.47.145.883.337 1.228.573l.113.078v-2.55l-.044-.019c-.318-.137-.737-.254-1.247-.35a7.569 7.569 0 0 0-1.367-.142M84.36 19.83c-1.007 0-1.801-.336-2.361-.998-.563-.665-.848-1.614-.848-2.819 0-1.243.285-2.216.849-2.893.56-.673 1.346-1.014 2.338-1.014.962 0 1.728.326 2.277.97.552.646.832 1.611.832 2.87 0 1.272-.264 2.25-.783 2.905-.515.65-1.29.979-2.304.979m.124-10.008c-1.922 0-3.45.567-4.537 1.684-1.088 1.118-1.64 2.664-1.64 4.597 0 1.837.539 3.313 1.6 4.388 1.063 1.077 2.508 1.622 4.296 1.622 1.863 0 3.36-.575 4.447-1.708 1.088-1.131 1.64-2.663 1.64-4.55 0-1.865-.518-3.353-1.539-4.422-1.02-1.069-2.457-1.61-4.267-1.61m-10.39 2.312v-2.03h-2.742v11.725h2.742v-5.998c0-1.02.23-1.858.683-2.49.448-.626 1.045-.943 1.774-.943.247 0 .524.041.824.122.297.08.512.168.64.26l.115.084v-2.78l-.045-.02c-.255-.109-.616-.164-1.073-.164a2.8 2.8 0 0 0-1.834.661c-.464.386-.799.914-1.055 1.573h-.03zm-7.652-2.313c-1.258 0-2.38.271-3.334.806a5.418 5.418 0 0 0-2.2 2.275c-.5.971-.755 2.105-.755 3.37 0 1.108.247 2.124.734 3.02a5.175 5.175 0 0 0 2.052 2.087c.873.487 1.881.733 2.998.733 1.303 0 2.415-.262 3.307-.779l.036-.02v-2.527l-.115.084a5.143 5.143 0 0 1-1.341.703c-.485.17-.927.256-1.314.256-1.076 0-1.94-.339-2.567-1.006-.628-.669-.947-1.608-.947-2.789 0-1.188.333-2.151.987-2.862.653-.708 1.518-1.067 2.572-1.067.901 0 1.78.307 2.61.913l.115.084v-2.663l-.037-.02c-.313-.177-.74-.322-1.268-.432a7.534 7.534 0 0 0-1.533-.166m-8.177.283h-2.742v11.725h2.742V10.104zm-1.343-4.995c-.451 0-.845.154-1.168.46-.325.307-.49.694-.49 1.15 0 .45.163.83.485 1.128.32.298.714.45 1.173.45.46 0 .855-.152 1.179-.45.325-.299.49-.678.49-1.128 0-.44-.16-.823-.477-1.137-.316-.314-.717-.473-1.192-.473m-6.84 4.13v12.59h2.797V5.468h-3.873L44.084 17.62 39.307 5.468h-4.03v16.361h2.629V9.237h.09l5.045 12.592h1.984l4.966-12.59h.09z" fill="#706D6E"/>
        <path fill="#F1511B" d="M12.898 12.975H0V0h12.898z"/>
        <path fill="#80CC28" d="M27.14 12.975H14.24V0H27.14z"/>
        <path fill="#00ADEF" d="M12.898 27.307H0V14.33h12.898z"/>
        <path fill="#FBBC09" d="M27.14 27.307H14.24V14.33H27.14z"/>
        <path d="m135.431 21.936 1.202-3.862h5.918l1.212 3.862h3.154L141.452 5.12h-3.76l-5.425 16.816h3.164zm6.709-5.4h-5.086l2.58-8.047 2.506 8.047zm15.113 5.4v-2.083h-5.702l5.63-8.14V9.535h-8.579v2.082h5.59l-5.785 8.12v2.198h8.846zm6.843.25c.815 0 1.503-.193 2.065-.58a3.563 3.563 0 0 0 1.263-1.554l.596 1.884h2.158v-12.4h-3.01v9.292c-.788.788-1.617 1.182-2.487 1.182-.465 0-.825-.063-1.078-.188-.254-.126-.48-.36-.679-.701-.198-.35-.298-.939-.298-1.769V9.536h-2.979v7.649c0 1.653.361 2.9 1.084 3.74.723.841 1.844 1.262 3.365 1.262zm12.226-.25v-8.79c.938-.81 1.835-1.214 2.692-1.214.568 0 .948.042 1.14.126V9.504c-.329-.014-.572-.02-.73-.02-.773 0-1.41.18-1.91.538-.5.36-.942.864-1.326 1.512l-.37-1.998h-2.496v12.4h3zm11.055.25a7.633 7.633 0 0 0 4.037-1.13l-.678-2.06a5.463 5.463 0 0 1-1.418.815c-.479.182-1.047.272-1.705.272-1.055 0-1.844-.33-2.368-.988-.524-.66-.793-1.586-.807-2.779h7.531c.02-.502.031-1.018.031-1.548 0-1.716-.425-3.07-1.274-4.06-.85-.99-2.075-1.486-3.678-1.486-1.89 0-3.319.638-4.284 1.915-.932 1.235-1.398 2.853-1.398 4.855 0 1.94.528 3.457 1.583 4.552 1.054 1.095 2.53 1.643 4.428 1.643zm2.126-7.47h-5.075c.041-.998.283-1.81.724-2.433.442-.625 1.098-.95 1.968-.979 1.589.028 2.383 1.116 2.383 3.265v.146z" fill="#706D6E"/>
    </g>
</svg>
