<svg width="144" height="34" viewBox="0 0 144 34" xmlns="http://www.w3.org/2000/svg">
    <g fill-rule="nonzero" fill="none">
        <path d="M136.327 21.793c0 2.81 1.695 4.18 4.754 4.18a12.53 12.53 0 0 0 2.801-.402v-3.259a5.93 5.93 0 0 1-1.812.284c-1.271 0-1.742-.402-1.742-1.582v-5.006H144v-3.352h-3.672v-4.25l-4.001.873v3.377h-2.66v3.352h2.636l.024 5.785zm-12.475.07c0-.873.871-1.298 2.19-1.298a9 9 0 0 1 2.376.307v1.7a4.888 4.888 0 0 1-2.494.614c-1.295 0-2.072-.496-2.072-1.322m1.224 4.155a6.267 6.267 0 0 0 3.625-1.015v.803h3.954v-8.43c0-3.21-2.142-4.958-5.743-4.958-2 0-3.978.473-6.12 1.44l1.436 2.952c1.53-.637 2.825-1.039 3.954-1.039 1.648 0 2.495.638 2.495 1.96v.637a11.48 11.48 0 0 0-2.965-.377c-3.366 0-5.39 1.416-5.39 3.943 0 2.314 1.836 4.084 4.754 4.084m-21.748-.212h4.26v-6.824h7.132v6.8h4.26V8.406h-4.26v6.681h-7.132V8.407h-4.26v17.4zM87.11 19.219c0-1.888 1.483-3.329 3.436-3.329a4.163 4.163 0 0 1 2.778 1.016v4.604a3.905 3.905 0 0 1-2.778 1.062c-1.93-.023-3.436-1.464-3.436-3.353m6.26 6.588h3.955V7.532l-4.001.874v4.934a6.607 6.607 0 0 0-3.343-.873c-3.813 0-6.802 2.951-6.802 6.729a6.681 6.681 0 0 0 1.89 4.74 6.64 6.64 0 0 0 4.677 2.013h.118a5.98 5.98 0 0 0 3.507-1.134v.992zM75.202 15.7c1.271 0 2.33.827 2.754 2.078h-5.46a2.722 2.722 0 0 1 2.706-2.078m-6.755 3.542c0 3.825 3.107 6.8 7.132 6.8 2.212 0 3.813-.59 5.46-1.983l-2.66-2.361c-.611.637-1.53.991-2.612.991a3.382 3.382 0 0 1-3.225-2.078h9.321v-.991c0-4.18-2.8-7.178-6.614-7.178-3.71-.055-6.764 2.913-6.826 6.635a.35.35 0 0 1 .024.165m-6.896-7.178c1.412 0 2.212.898 2.212 1.96 0 1.063-.8 1.96-2.212 1.96h-4.214v-3.92h4.214zm-8.474 13.718h4.26v-6.327h3.249l3.271 6.327h4.755l-3.813-6.965a5.27 5.27 0 0 0 3.271-4.887c0-3.117-2.448-5.55-6.12-5.55h-8.873v17.402z" fill="#000"/>
        <path d="M29.892 19.597c2.942 0 7.202-.614 7.202-4.132 0-.269-.023-.537-.07-.803l-1.742-7.65c-.4-1.676-.753-2.455-3.695-3.919C29.304 1.913 24.337 0 22.855 0c-1.39 0-1.79 1.77-3.413 1.77-1.577 0-2.73-1.321-4.213-1.321-1.413 0-2.33.968-3.037 2.951 0 0-1.977 5.596-2.236 6.422a1.456 1.456 0 0 0-.047.449c-.023 2.172 8.52 9.303 19.983 9.326m7.65-2.691c.4 1.936.4 2.148.4 2.384 0 3.306-3.696 5.148-8.568 5.148-11.015 0-20.642-6.47-20.642-10.744 0-.592.12-1.179.353-1.723C5.131 12.16 0 12.868 0 17.4 0 24.84 17.559 34 31.446 34c10.662 0 13.345-4.84 13.345-8.665 0-2.999-2.589-6.399-7.25-8.43" fill="#E00"/>
        <path d="M37.542 16.906c.4 1.936.4 2.148.4 2.384 0 3.306-3.696 5.148-8.568 5.148-11.015 0-20.642-6.47-20.642-10.744 0-.592.12-1.179.353-1.723l.871-2.149a1.456 1.456 0 0 0-.047.449c0 2.172 8.544 9.303 19.983 9.303 2.942 0 7.202-.614 7.202-4.132 0-.27-.023-.538-.07-.803l.518 2.267z" fill="#000"/>
    </g>
</svg>
