<svg width="155" height="29" viewBox="0 0 155 29" xmlns="http://www.w3.org/2000/svg">
    <g fill-rule="nonzero" fill="none">
        <path d="M126.318 15.92h-.019c-.575 0-1.042.434-1.042.972v4.118h-6.353v-4.118c0-.537-.465-.972-1.04-.972-.576 0-1.043.434-1.043.972v10.054c0 .536.466.972 1.042.972.575 0 1.041-.435 1.041-.972v-4.264h6.353v4.264c0 .536.465.972 1.042.972h.019c.576 0 1.043-.435 1.043-.972V16.892c0-.537-.467-.972-1.043-.972m-13.378 9.868c.336-.52.05-1.197-.567-1.39-.476-.148-.993.047-1.231.459a2.96 2.96 0 0 1-.891.968c-.564.389-1.264.582-2.095.582-1.222 0-2.176-.394-2.865-1.182-.687-.787-1.032-1.89-1.032-3.309 0-1.407.36-2.506 1.082-3.3.721-.793 1.686-1.19 2.894-1.19.793 0 1.435.166 1.93.5.295.2.548.468.76.806.265.42.837.572 1.314.373l.037-.014c.583-.244.794-.922.436-1.415a4.223 4.223 0 0 0-1.35-1.195c-.877-.497-1.958-.746-3.244-.746-1.223 0-2.29.249-3.197.746a5.122 5.122 0 0 0-2.105 2.146c-.493.933-.74 2.03-.74 3.29 0 1.261.247 2.358.74 3.29a5.11 5.11 0 0 0 2.105 2.147c.91.498 1.98.746 3.216.746 1.273 0 2.38-.29 3.323-.872a4.661 4.661 0 0 0 1.48-1.44m-16.429 2.13c.863 0 1.564-.652 1.564-1.46v-9.642c0-.495-.43-.896-.962-.896-.533 0-.964.405-.96.902l.048 8.216c0 .183-.26.25-.36.093l-5.4-8.496a1.587 1.587 0 0 0-1.344-.715c-.866 0-1.566.654-1.566 1.46v9.648c0 .493.428.89.955.89.528 0 .955-.397.955-.89l-.071-8.225c-.003-.185.258-.251.359-.094l5.417 8.494c.282.444.793.716 1.345.716h.02m-15.886-4.727-1.936-5.097c-.06-.16-.304-.16-.364.001l-1.888 5.096h4.188zm.624 1.582h-5.417l-1 2.559c-.137.352-.497.586-.897.586h-.095c-.668 0-1.13-.623-.894-1.206l3.923-9.705c.265-.655.938-1.088 1.688-1.088s1.423.433 1.687 1.088l3.924 9.705c.236.583-.226 1.206-.894 1.206h-.149c-.402 0-.762-.237-.899-.59l-.977-2.555zm66.073-3.272h3c.846 0 1.475-.162 1.891-.483.416-.321.624-.815.624-1.482 0-.666-.208-1.16-.624-1.48-.416-.323-1.045-.482-1.89-.482h-2.181c-.453 0-.82.342-.82.764v3.163zm2.767 1.617h-2.767v3.864c0 .517-.449.936-1.003.936h-.06c-.554 0-1.003-.419-1.003-.936V18.44c0-1.392 1.21-2.52 2.701-2.52h2.542c1.39 0 2.488.318 3.293.954.806.636 1.208 1.517 1.208 2.644 0 .861-.238 1.58-.71 2.155-.474.576-1.146.985-2.017 1.227l2.482 3.572c.434.623-.045 1.446-.84 1.446-.344 0-.664-.163-.848-.434l-2.978-4.365zm-87.746-1.617h3c.844 0 1.475-.162 1.89-.483.417-.321.624-.815.624-1.482 0-.666-.207-1.16-.623-1.48-.416-.323-1.047-.482-1.89-.482h-2.182c-.452 0-.82.342-.82.764v3.163zm2.766 1.617h-2.766v3.864c0 .517-.45.936-1.004.936h-.06c-.554 0-1.003-.419-1.003-.936V18.44c0-1.392 1.21-2.52 2.702-2.52h2.541c1.39 0 2.488.318 3.294.954.805.636 1.208 1.517 1.208 2.644 0 .861-.238 1.58-.71 2.155-.475.576-1.148.985-2.018 1.227l2.483 3.572c.433.623-.046 1.446-.841 1.446-.344 0-.664-.163-.848-.434L65.11 23.12zm75.426 3.124h-5.856c-.452 0-.818-.343-.818-.764v-2.76h5.65c.487 0 .88-.368.88-.82 0-.455-.393-.823-.88-.823h-5.65v-2.715c0-.423.366-.765.818-.765h5.856c.51 0 .924-.385.924-.86 0-.476-.414-.862-.924-.862h-5.856c-1.47 0-2.665 1.115-2.665 2.487v7.119c0 1.37 1.196 2.487 2.665 2.487h5.856c.51 0 .924-.386.924-.862 0-.477-.414-.862-.924-.862m-28.792-15.719h-5.857c-.45 0-.819-.342-.819-.764V7h5.652c.486 0 .88-.367.88-.82 0-.454-.394-.821-.88-.821h-5.652V2.642c0-.422.368-.764.82-.764h5.856c.51 0 .924-.386.924-.861 0-.476-.414-.861-.924-.861h-5.857c-1.469 0-2.665 1.114-2.665 2.486V9.76c0 1.37 1.196 2.487 2.665 2.487h5.857c.51 0 .924-.386.924-.861 0-.476-.414-.862-.924-.862M94.522 5.381c-1.238-.207-2.1-.453-2.581-.739-.483-.285-.724-.671-.724-1.158 0-.523.247-.951.743-1.286.496-.334 1.192-.502 2.093-.502.911 0 1.642.165 2.19.493.294.177.563.412.805.706.357.431 1.03.488 1.464.124a.892.892 0 0 0 .077-1.318A5.175 5.175 0 0 0 97.073.602C96.233.201 95.219 0 94.033 0c-1.017 0-1.907.164-2.668.493-.763.328-1.347.772-1.75 1.331a3.099 3.099 0 0 0-.607 1.86c0 .645.159 1.193.48 1.642.318.45.83.827 1.534 1.131.703.304 1.648.56 2.835.766 1.186.207 2.016.444 2.492.711.477.268.715.62.715 1.058 0 .548-.264.97-.793 1.268-.527.299-1.254.447-2.179.447-.978 0-1.796-.17-2.454-.51a3.698 3.698 0 0 1-1.011-.774c-.375-.407-1.048-.416-1.454-.037l-.004.003c-.371.347-.4.908-.049 1.272 1.116 1.162 2.78 1.742 4.991 1.742 1.017 0 1.913-.142 2.689-.428.775-.286 1.377-.696 1.808-1.231.43-.536.645-1.156.645-1.861 0-.657-.156-1.206-.469-1.65-.313-.444-.81-.815-1.496-1.113-.684-.298-1.606-.544-2.766-.74m-28.874.005c-1.238-.208-2.099-.453-2.58-.739-.483-.287-.724-.672-.724-1.159 0-.522.248-.951.743-1.286.495-.334 1.193-.5 2.092-.5.912 0 1.642.163 2.19.491.295.177.563.412.805.707.357.43 1.03.487 1.465.123a.893.893 0 0 0 .076-1.317A5.191 5.191 0 0 0 68.2.605c-.841-.401-1.855-.601-3.04-.601-1.017 0-1.907.164-2.669.492-.763.328-1.346.772-1.75 1.331a3.106 3.106 0 0 0-.606 1.861c0 .644.159 1.192.479 1.642.32.45.831.827 1.535 1.13.703.305 1.648.56 2.835.767 1.186.207 2.016.444 2.493.711.475.267.713.62.713 1.058 0 .547-.264.97-.792 1.267-.528.299-1.254.447-2.18.447-.977 0-1.795-.17-2.454-.51a3.667 3.667 0 0 1-1.01-.774c-.375-.406-1.048-.416-1.454-.037l-.004.004a.883.883 0 0 0-.05 1.272c1.116 1.162 2.78 1.742 4.992 1.742 1.016 0 1.912-.143 2.688-.429.776-.285 1.378-.696 1.809-1.23.43-.536.645-1.156.645-1.861 0-.657-.157-1.207-.47-1.65-.313-.445-.81-.816-1.495-1.114-.684-.298-1.607-.544-2.767-.738m19.257-4.4v6.622c0 1.58-.45 2.775-1.348 3.584-.9.808-2.21 1.212-3.93 1.212-1.722 0-3.031-.404-3.93-1.212-.9-.809-1.35-2.004-1.35-3.584V.985c0-.544.473-.985 1.056-.985.582 0 1.056.441 1.056.985V7.37c0 1.144.257 1.985.772 2.527.515.54 1.313.81 2.396.81 1.082 0 1.88-.27 2.394-.81.515-.542.773-1.383.773-2.527V.985c0-.544.473-.985 1.056-.985.582 0 1.055.441 1.055.985" fill="#0C322C"/>
        <path d="M44.835 6.144h-11.29c-.069 0-.139 0-.185.023v-.501c0-1.048-.278-1.919-.625-1.919s-.765.851-.95 1.896l-.58 3.248c-.185 1.048.58 1.898 1.716 1.898h3.384c.348 0 .673-.044.973-.131-.116.545-.602.96-1.227.96h-4.752c-.766 0-1.346-.655-1.23-1.373l.487-2.726c.116-.719-.464-1.373-1.228-1.373H5.636c-.51 0-.927.284-1.136.697l-4.45 6.39a.28.28 0 0 0 .023.347l.858.96c.116.13.3.13.44.043l3.037-2.245v13.647c0 .655.556 1.178 1.25 1.178h6.723c.696 0 1.252-.523 1.252-1.178v-4.753c0-.655.556-1.177 1.252-1.177H31.67c.696 0 1.253.522 1.253 1.177v4.753c0 .655.555 1.178 1.25 1.178h6.723c.696 0 1.251-.523 1.251-1.178v-5.102h-3.57c-1.112 0-2.039-.873-2.039-1.918V15.67c0-.63.325-1.176.812-1.525v3.923c0 1.047.927 1.92 2.039 1.92h5.494c1.113 0 2.04-.873 2.04-1.92V8.085c-.047-1.09-.95-1.94-2.087-1.94m8.137 2.746c.185 1.026-.578 1.875-1.692 1.875h-3.593V8.434h1.09c1.113 0 2.04-.872 2.04-1.92v-.848c0-1.047.277-1.92.625-1.92.323 0 .765.852.95 1.897l.58 3.248" fill="#30BA78"/>
    </g>
</svg>
