<?xml version="1.0" encoding="UTF-8"?>
<svg width="276px" height="297px" viewBox="0 0 276 297" version="1.1" xmlns="http://www.w3.org/2000/svg" xmlns:xlink="http://www.w3.org/1999/xlink">
    <title>Share Community (Mobile)</title>
    <defs>
        <rect id="path-1" x="0" y="0" width="120.831646" height="130.728311" rx="2.44246125"></rect>
        <filter x="-11.2%" y="-8.8%" width="127.3%" height="125.2%" filterUnits="objectBoundingBox" id="filter-2">
            <feMorphology radius="2.5" operator="erode" in="SourceAlpha" result="shadowSpreadOuter1"></feMorphology>
            <feOffset dx="3" dy="5" in="shadowSpreadOuter1" result="shadowOffsetOuter1"></feOffset>
            <feGaussianBlur stdDeviation="7.5" in="shadowOffsetOuter1" result="shadowBlurOuter1"></feGaussianBlur>
            <feComposite in="shadowBlurOuter1" in2="SourceAlpha" operator="out" result="shadowBlurOuter1"></feComposite>
            <feColorMatrix values="0 0 0 0 0.743069384   0 0 0 0 0.813890002   0 0 0 0 1  0 0 0 0.716959173 0" type="matrix" in="shadowBlurOuter1"></feColorMatrix>
        </filter>
        <path d="M2.44854879,0 C1.09625263,0 0,1.09062837 0,2.43679027 L0,128.260393 C0,129.606195 1.08486629,130.697183 2.44854879,130.697183 L118.758591,130.697183 C120.110887,130.697183 121.20714,129.606555 121.20714,128.260393 L121.20714,2.43679027 C121.20714,1.09098817 120.122273,0 118.758591,0 L2.44854879,0 Z" id="path-3"></path>
        <filter x="-11.1%" y="-8.8%" width="127.2%" height="125.2%" filterUnits="objectBoundingBox" id="filter-4">
            <feMorphology radius="2.5" operator="erode" in="SourceAlpha" result="shadowSpreadOuter1"></feMorphology>
            <feOffset dx="3" dy="5" in="shadowSpreadOuter1" result="shadowOffsetOuter1"></feOffset>
            <feGaussianBlur stdDeviation="7.5" in="shadowOffsetOuter1" result="shadowBlurOuter1"></feGaussianBlur>
            <feComposite in="shadowBlurOuter1" in2="SourceAlpha" operator="out" result="shadowBlurOuter1"></feComposite>
            <feColorMatrix values="0 0 0 0 0.743069384   0 0 0 0 0.813890002   0 0 0 0 1  0 0 0 0.716959173 0" type="matrix" in="shadowBlurOuter1"></feColorMatrix>
        </filter>
        <polygon id="path-5" points="0 0 9.79807124 0 9.79807124 4.70509083 0 4.70509083"></polygon>
        <polygon id="path-7" points="0 0 8.06896488 0 8.06896488 11.5290872 0 11.5290872"></polygon>
        <polygon id="path-9" points="0 0 7.79741229 0 7.79741229 8.25989792 0 8.25989792"></polygon>
        <path d="M2.44854879,0 C1.09625263,0 0,1.09062837 0,2.43679027 L0,128.260393 C0,129.606195 1.08486629,130.697183 2.44854879,130.697183 L118.758591,130.697183 C120.110887,130.697183 121.20714,129.606555 121.20714,128.260393 L121.20714,2.43679027 C121.20714,1.09098817 120.122273,0 118.758591,0 L2.44854879,0 Z" id="path-11"></path>
        <filter x="-11.1%" y="-8.8%" width="127.2%" height="125.2%" filterUnits="objectBoundingBox" id="filter-12">
            <feMorphology radius="2.5" operator="erode" in="SourceAlpha" result="shadowSpreadOuter1"></feMorphology>
            <feOffset dx="3" dy="5" in="shadowSpreadOuter1" result="shadowOffsetOuter1"></feOffset>
            <feGaussianBlur stdDeviation="7.5" in="shadowOffsetOuter1" result="shadowBlurOuter1"></feGaussianBlur>
            <feComposite in="shadowBlurOuter1" in2="SourceAlpha" operator="out" result="shadowBlurOuter1"></feComposite>
            <feColorMatrix values="0 0 0 0 0.743069384   0 0 0 0 0.813890002   0 0 0 0 1  0 0 0 0.716959173 0" type="matrix" in="shadowBlurOuter1"></feColorMatrix>
        </filter>
    </defs>
    <g id="Product" stroke="none" stroke-width="1" fill="none" fill-rule="evenodd">
        <g id="Product-/-Upbound-Registry-(Mobile)" transform="translate(-24.000000, -2191.000000)">
            <g id="Share-Community-(Mobile)" transform="translate(31.000000, 2196.000000)">
                <g id="Group-15" transform="translate(134.945984, 0.000000)">
                    <g id="Rectangle-21-Copy-2">
                        <use fill="black" fill-opacity="1" filter="url(#filter-2)" xlink:href="#path-1"></use>
                        <rect stroke="#D2DCEA" stroke-width="0.5" fill="#FFFFFF" fill-rule="evenodd" x="-0.25" y="-0.25" width="121.331646" height="131.228311" rx="2.44246125"></rect>
                    </g>
                    <g id="Application-Icons/Gitlab/65x65-Copy-10" transform="translate(13.433537, 13.433537)">
                        <rect id="Rectangle-Copy-13" fill="#232F3E" fill-rule="nonzero" x="0" y="0" width="31.7519962" height="31.7519962" rx="6.35039925"></rect>
                        <g id="Group-Copy-2" transform="translate(5.557546, 10.309104)">
                            <path d="M5.71703515,4.64832165 C5.71703515,4.91170281 5.74337614,5.12525511 5.78947288,5.28186012 C5.84215486,5.43846514 5.90800734,5.60930698 6.00020082,5.79438564 C6.03312706,5.85133291 6.04629756,5.90828019 6.04629756,5.95810906 C6.04629756,6.02929316 6.00678607,6.10047726 5.92117784,6.17166136 L5.50630721,6.47063457 C5.44703998,6.51334503 5.38770689,6.53470026 5.33509076,6.53470026 C5.26923828,6.53470026 5.2033858,6.49910821 5.13753331,6.43504252 C5.04533984,6.32826638 4.96631686,6.21437182 4.90046438,6.10047726 C4.8346119,5.97946429 4.76875942,5.8442145 4.69632169,5.68049108 C4.18260648,6.33538479 3.53731802,6.66283164 2.76025874,6.66283164 C2.2070979,6.66283164 1.76588627,6.4919898 1.44320912,6.15030613 C1.12053196,5.80862246 0.955900754,5.35304422 0.955900754,4.78357143 C0.955900754,4.17850659 1.15339235,3.68733631 1.55515833,3.317179 C1.95685847,2.94702169 2.49026357,2.76194303 3.16854412,2.76194303 C3.39237671,2.76194303 3.62292625,2.78329826 3.86658043,2.81889031 C4.11023461,2.85448236 4.36047404,2.91142964 4.62388396,2.97549533 L4.62388396,2.45585141 C4.62388396,1.91485226 4.51851999,1.53757653 4.3143773,1.31690583 C4.10364936,1.09623512 3.74804596,0.989458972 3.24098185,0.989458972 C3.01049817,0.989458972 2.77342924,1.01793261 2.52977506,1.0819983 C2.28612088,1.14606399 2.04905194,1.2243665 1.81856826,1.32402424 C1.71320429,1.37385311 1.63418131,1.40232674 1.58808457,1.41656356 C1.54198784,1.43080038 1.5090616,1.43791879 1.48265475,1.43791879 C1.39052713,1.43791879 1.34443039,1.3667347 1.34443039,1.21724809 L1.34443039,0.868446004 C1.34443039,0.754551446 1.35760089,0.669130528 1.39052713,0.619301659 C1.42345337,0.56947279 1.48265475,0.519643921 1.57491408,0.469815052 C1.80533191,0.341683674 2.08197818,0.234907526 2.40465534,0.149486607 C2.7273325,0.056947279 3.0697654,0.0142368197 3.43195405,0.0142368197 C4.21559858,0.0142368197 4.78851516,0.206433886 5.15728906,0.590828019 C5.51947771,0.975222152 5.70386465,1.55893176 5.70386465,2.34195685 L5.70386465,4.64832165 L5.71703515,4.64832165 Z M3.04342441,5.73031995 C3.2607376,5.73031995 3.48457018,5.68760949 3.72170497,5.60218857 C3.9587739,5.51676765 4.16950184,5.36016263 4.34730354,5.14661034 C4.45266751,5.01136055 4.53162463,4.86187394 4.57120198,4.69103211 C4.61071346,4.52019027 4.63705446,4.31375638 4.63705446,4.07173045 L4.63705446,3.77275723 C4.44608226,3.72292836 4.24193957,3.6802179 4.03121163,3.65174426 C3.82048369,3.62327062 3.616341,3.6090338 3.4121983,3.6090338 C2.97098668,3.6090338 2.64830952,3.70157313 2.43099633,3.8937702 C2.21368315,4.08596727 2.10831918,4.35646684 2.10831918,4.71238734 C2.10831918,5.0469526 2.18734215,5.29609694 2.35197336,5.46693878 C2.51001931,5.64489903 2.740503,5.73031995 3.04342441,5.73031995 Z M8.33137865,6.49910821 C8.21284419,6.49910821 8.13382121,6.47775298 8.08113923,6.42792411 C8.02845724,6.38521365 7.9823605,6.28555592 7.94284902,6.15030613 L6.39531571,0.647775298 C6.35573836,0.505407101 6.33604847,0.412867773 6.33604847,0.363038903 C6.33604847,0.249144346 6.38866461,0.185078657 6.49409443,0.185078657 L7.13944874,0.185078657 C7.26450261,0.185078657 7.35017668,0.206433886 7.39627342,0.256262755 C7.44895541,0.298973215 7.48846689,0.398630953 7.52797838,0.53388074 L8.63430007,5.24626808 L9.66153292,0.53388074 C9.69452502,0.391512543 9.73397065,0.298973215 9.78671849,0.256262755 C9.83940048,0.213552296 9.9315281,0.185078657 10.0501284,0.185078657 L10.5769483,0.185078657 C10.7020021,0.185078657 10.7876762,0.206433886 10.8403582,0.256262755 C10.8930402,0.298973215 10.9391369,0.398630953 10.9654779,0.53388074 L12.0058813,5.30321535 L13.145195,0.53388074 C13.1847065,0.391512543 13.2308033,0.298973215 13.2769,0.256262755 C13.329582,0.213552296 13.4151902,0.185078657 13.5337247,0.185078657 L14.1461527,0.185078657 C14.2515167,0.185078657 14.310784,0.242025936 14.310784,0.363038903 C14.310784,0.398630953 14.3041987,0.434223002 14.2976135,0.476933461 C14.2909624,0.519643921 14.2778577,0.5765912 14.2515167,0.654893708 L12.6644719,6.15742454 C12.6248946,6.29979274 12.5787978,6.39233206 12.5261159,6.43504252 C12.4734997,6.47775298 12.3878915,6.50622662 12.2759423,6.50622662 L11.7095451,6.50622662 C11.5844912,6.50622662 11.498883,6.48487139 11.4461352,6.43504252 C11.3934532,6.38521365 11.3473564,6.29267433 11.3210813,6.15030613 L10.3003678,1.55893176 L9.28623963,6.14318772 C9.25324754,6.28555592 9.2138019,6.37809525 9.16111992,6.42792411 C9.10843793,6.47775298 9.01624446,6.49910821 8.89770999,6.49910821 L8.33137865,6.49910821 Z M16.7934225,6.69130528 C16.4509896,6.69130528 16.1085567,6.64859482 15.7792943,6.5631739 C15.4500319,6.47775298 15.1932072,6.38521365 15.0219908,6.27843751 C14.9166268,6.21437182 14.8441232,6.14318772 14.8178481,6.07912203 C14.7915071,6.01505634 14.7783366,5.94387224 14.7783366,5.87980655 L14.7783366,5.51676765 C14.7783366,5.36728104 14.8310186,5.29609694 14.9297973,5.29609694 C14.9693088,5.29609694 15.0087544,5.30321535 15.0482659,5.31745217 C15.0878432,5.33168899 15.1470446,5.36016263 15.2129629,5.38863627 C15.4367955,5.49541242 15.6805156,5.58083334 15.9372744,5.63778062 C16.2007502,5.6947279 16.457509,5.72320154 16.7209848,5.72320154 C17.1358554,5.72320154 17.4585326,5.64489903 17.6823651,5.48829401 C17.9063294,5.33168899 18.0248639,5.10389988 18.0248639,4.81204507 C18.0248639,4.6127296 17.9655967,4.44900617 17.8469963,4.31375638 C17.7285277,4.17850659 17.5046293,4.05749363 17.1818863,3.94359907 L16.2270912,3.62327062 C15.746368,3.4595472 15.3907646,3.21752126 15.1734515,2.89719282 C14.9561383,2.58398278 14.8441232,2.2351807 14.8441232,1.86502339 C14.8441232,1.56605017 14.9034563,1.30266901 15.0219908,1.07487989 C15.1404594,0.847090775 15.2985712,0.647775298 15.4961286,0.491170281 C15.6936861,0.327446854 15.9175845,0.206433886 16.1809944,0.121012968 C16.4444043,0.0355920494 16.7209848,0 17.0107357,0 C17.1555453,0 17.3070718,0.00711840987 17.4518815,0.0284736395 C17.603408,0.0498288691 17.7416324,0.0783025086 17.8799226,0.106776148 C18.0116275,0.142368197 18.1367473,0.177960247 18.2553476,0.220670706 C18.3738162,0.263381165 18.4660755,0.306091624 18.531928,0.348802084 C18.6241215,0.405749363 18.689974,0.462696642 18.7294854,0.526762331 C18.7689969,0.583709609 18.7887527,0.662012118 18.7887527,0.761669856 L18.7887527,1.09623512 C18.7887527,1.24572173 18.7360707,1.32402424 18.637292,1.32402424 C18.58461,1.32402424 18.4990018,1.2955506 18.3870525,1.23860332 C18.0116934,1.05352466 17.5902375,0.960985333 17.1226849,0.960985333 C16.7473258,0.960985333 16.4509896,1.02505102 16.2468469,1.16030081 C16.0427042,1.2955506 15.9373402,1.50198448 15.9373402,1.79383929 C15.9373402,1.99315476 16.0031927,2.1639966 16.1348977,2.29924639 C16.2666026,2.43449618 16.5102568,2.56974596 16.859275,2.69075893 L17.7943802,3.01108738 C18.2685181,3.1748108 18.610951,3.40259992 18.8150937,3.69445472 C19.0192364,3.98630953 19.1180151,4.32087479 19.1180151,4.69103211 C19.1180151,4.99712373 19.0587479,5.27474171 18.9467986,5.51676765 C18.8282642,5.75879359 18.6702182,5.97234588 18.4660755,6.14318772 C18.2619328,6.32114797 18.0182786,6.44927934 17.735113,6.54181867 C17.4387768,6.64147641 17.1292702,6.69130528 16.7934225,6.69130528 L16.7934225,6.69130528 Z" id="Fill-1" fill="#FFFFFF"></path>
                            <path d="M18.1484571,9.80075442 C15.9519334,11.5160962 12.7606315,12.4267098 10.0167128,12.4267098 C6.1711272,12.4267098 2.70609438,10.9231386 0.088959763,8.42424555 C-0.118074279,8.22659299 0.0689306716,7.95835024 0.315956133,8.11364868 C3.14673439,9.85016756 6.6384059,10.9019615 10.2503855,10.9019615 C12.6872583,10.9019615 15.3644802,10.365476 17.8280584,9.26426891 C18.1952584,9.08779342 18.5090475,9.51839363 18.1484571,9.80075442 Z M19.0631857,8.69954732 C18.7827117,8.31836025 17.2071566,8.51601281 16.4927857,8.60778007 C16.2790753,8.63601615 16.2456934,8.43836359 16.4393747,8.29012417 C17.6945311,7.35833355 19.7574608,7.62657631 19.9978767,7.93717318 C20.2382258,8.25482907 19.931113,10.4360662 18.7560062,11.4808011 C18.5758112,11.6431586 18.4022257,11.5584504 18.4822753,11.3466798 C18.7493299,10.6478368 19.343593,9.07367538 19.0631857,8.69954732 L19.0631857,8.69954732 Z" id="Fill-2" fill="#FF9900"></path>
                        </g>
                    </g>
                    <text id="Title-Copy-95" font-family="'Avenir-Black', 'Arial', sans-serif" font-size="7.815876" font-weight="700" line-spacing="12.2123062" fill="#505A72">
                        <tspan x="13.1282292" y="61.1566901">platform-ref-aws</tspan>
                    </text>
                    <g id="Text" transform="translate(12.945045, 107.959287)" fill="#E7F0FC">
                        <rect id="Rectangle" x="0" y="0" width="88.9971818" height="4.69388204" rx="2.34694102"></rect>
                    </g>
                </g>
                <g id="Group-14" transform="translate(0.000000, 67.665053)">
                    <g id="shadow">
                        <use fill="black" fill-opacity="1" filter="url(#filter-4)" xlink:href="#path-3"></use>
                        <path stroke="#D2DCEA" stroke-width="0.5" d="M118.758591,-0.25 C119.508371,-0.25 120.181427,0.0496921526 120.667817,0.533746867 C121.156653,1.02023567 121.45714,1.69319711 121.45714,2.43679027 L121.45714,2.43679027 L121.45714,128.260393 C121.45714,129.002617 121.155026,129.674448 120.666416,130.160712 C120.178178,130.646605 119.503685,130.947183 118.758591,130.947183 L118.758591,130.947183 L2.44854879,130.947183 C1.69876888,130.947183 1.02571294,130.647491 0.539322465,130.163436 C0.0504861468,129.676947 -0.25,129.003986 -0.25,128.260393 L-0.25,128.260393 L-0.25,2.43679027 C-0.25,1.6945665 0.0521137349,1.0227348 0.540723804,0.536471158 C1.02896148,0.0505781183 1.70345471,-0.25 2.44854879,-0.25 L2.44854879,-0.25 Z" fill="#FFFFFF" fill-rule="evenodd"></path>
                    </g>
                    <g id="Application-Icons/Gitlab/65x65-Copy-8" transform="translate(15.265383, 14.654767)">
                        <rect id="Rectangle-Copy-13" fill="#101F49" fill-rule="nonzero" x="0" y="0" width="31.7519962" height="31.7519962" rx="6.35039925"></rect>
                        <g id="Group-12" transform="translate(7.937999, 9.758780)">
                            <g id="Group-3" transform="translate(1.859377, 0.000000)">
                                <mask id="mask-6" fill="white">
                                    <use xlink:href="#path-5"></use>
                                </mask>
                                <g id="Clip-2"></g>
                                <path d="M7.92214493,3.61538505 L8.3923019,3.61538505 L9.73224926,2.19727478 L9.79807124,1.5951999 C7.30435867,-0.734481602 3.49843801,-0.483202414 1.29716308,2.15597543 C0.685488861,2.88941211 0.242130839,3.76117674 0,4.70509083 C0.149039759,4.6404051 0.314535012,4.62995587 0.470156969,4.67523588 L3.15005169,4.20750828 C3.15005169,4.20750828 3.28639721,3.96866866 3.35692076,3.98359614 C4.54876868,2.59782873 6.55492846,2.43661199 7.93154807,3.61538505 L7.92214493,3.61538505 Z" id="Fill-1" fill="#EA4335" mask="url(#mask-6)"></path>
                            </g>
                            <g id="Group-6" transform="translate(7.345968, 1.600126)">
                                <mask id="mask-8" fill="white">
                                    <use xlink:href="#path-7"></use>
                                </mask>
                                <g id="Clip-5"></g>
                                <path d="M6.15435473,3.10491511 C5.84640191,1.90424842 5.21404079,0.82548945 4.33484726,0 L2.45421938,1.9903302 C3.2483145,2.67699412 3.7006055,3.71146824 3.68132907,4.79669578 L3.68132907,5.14997939 C4.60612783,5.14997939 5.35508788,5.94312597 5.35508788,6.92087569 C5.35508788,7.89962056 4.60612783,8.69276715 3.68132907,8.69276715 L0.333811448,8.69276715 L0,9.05102658 L0,11.1757041 L0.333811448,11.5289877 L3.68132907,11.5289877 C6.08571181,11.5483934 8.05002763,9.50183637 8.0688339,6.95769679 C8.08011767,5.41519089 7.36171782,3.96871842 6.15435473,3.10491511" id="Fill-4" fill="#4285F4" mask="url(#mask-8)"></path>
                            </g>
                            <path d="M4.32765385,13.1092601 L7.67517147,13.1092601 L7.67517147,10.2730396 L4.32765385,10.2730396 C4.08928427,10.2730396 3.85326547,10.2183055 3.63652311,10.1133156 L3.16636614,10.2680637 L1.81701564,11.686174 L1.6994764,12.1837566 C2.45642912,12.7883194 3.37934725,13.1137383 4.32765385,13.1092601" id="Fill-7" fill="#34A853"></path>
                            <g id="Group-11" transform="translate(0.000000, 3.908832)">
                                <mask id="mask-10" fill="white">
                                    <use xlink:href="#path-9"></use>
                                </mask>
                                <g id="Clip-10"></g>
                                <path d="M4.32765385,0 C1.92327111,0.0154526513 -0.0142457562,2.09037188 -0.000217570188,4.63500904 C0.00785162138,6.05610481 0.635041018,7.3936067 1.6994764,8.25989792 L3.64122468,6.20488199 C2.79870339,5.80184012 2.42445844,4.75293611 2.80528559,3.86126818 C3.18564258,2.96960025 4.17720362,2.57352454 5.01972491,2.97606882 C5.39067876,3.15370579 5.68828812,3.46867555 5.855664,3.86126818 L7.79741229,1.80625225 C6.97134649,0.663305131 5.68734781,-0.00494823329 4.32765385,0" id="Fill-9" fill="#FBBC05" mask="url(#mask-10)"></path>
                            </g>
                        </g>
                    </g>
                    <text id="Title-Copy-92" font-family="'Avenir-Black', 'Arial', sans-serif" font-size="7.815876" font-weight="700" line-spacing="12.2123062" fill="#505A72">
                        <tspan x="15.1432597" y="61.6443662">platform-ref-gcp</tspan>
                    </text>
                    <rect id="Rectangle" fill="#D2DCEA" opacity="0.717754546" x="14.9600752" y="74.9192342" width="78.048158" height="4.69388204" rx="2.34694102"></rect>
                    <rect id="Rectangle" fill="#D2DCEA" opacity="0.717754546" x="14.9600752" y="84.6727553" width="89.1498356" height="4.69388204" rx="2.34694102"></rect>
                    <rect id="Rectangle" fill="#D2DCEA" opacity="0.717754546" x="14.9600752" y="94.4262764" width="81.7487172" height="4.69388204" rx="2.34694102"></rect>
                    <rect id="Rectangle" fill="#E7F0FC" x="14.9600752" y="108.446963" width="88.9971818" height="4.69388204" rx="2.34694102"></rect>
                </g>
                <g id="Group-14-Copy-2" transform="translate(134.945984, 146.302817)">
                    <g id="shadow">
                        <use fill="black" fill-opacity="1" filter="url(#filter-12)" xlink:href="#path-11"></use>
                        <path stroke="#D2DCEA" stroke-width="0.5" d="M118.758591,-0.25 C119.508371,-0.25 120.181427,0.0496921526 120.667817,0.533746867 C121.156653,1.02023567 121.45714,1.69319711 121.45714,2.43679027 L121.45714,2.43679027 L121.45714,128.260393 C121.45714,129.002617 121.155026,129.674448 120.666416,130.160712 C120.178178,130.646605 119.503685,130.947183 118.758591,130.947183 L118.758591,130.947183 L2.44854879,130.947183 C1.69876888,130.947183 1.02571294,130.647491 0.539322465,130.163436 C0.0504861468,129.676947 -0.25,129.003986 -0.25,128.260393 L-0.25,128.260393 L-0.25,2.43679027 C-0.25,1.6945665 0.0521137349,1.0227348 0.540723804,0.536471158 C1.02896148,0.0505781183 1.70345471,-0.25 2.44854879,-0.25 L2.44854879,-0.25 Z" fill="#FFFFFF" fill-rule="evenodd"></path>
                    </g>
                    <g id="Group" transform="translate(14.654767, 14.654767)" fill-rule="nonzero">
                        <g id="Application-Icons/Gitlab/65x65-Copy-9">
                            <rect id="Rectangle-Copy-13" fill="#081B7E" x="0" y="0" width="31.7519962" height="31.7519962" rx="6.35039925"></rect>
                            <g id="helm-icon-white-copy-2" transform="translate(6.623476, 5.328865)" fill="#FFFFFF">
                                <path d="M4.26949763,4.99029792 C4.24515647,4.96721127 4.2186612,4.94236627 4.19247403,4.91720593 C3.65557402,4.40139677 3.24006575,3.80498645 2.98907605,3.10004478 C2.91883011,2.90274649 2.86579915,2.70151574 2.87520581,2.48901742 C2.87609946,2.46885086 2.87603946,2.44862685 2.87742971,2.428499 C2.89636645,2.15419542 3.07995156,2.01558358 3.34801368,2.08054426 C3.43256637,2.10244262 3.51438259,2.13379778 3.59191423,2.17401644 C3.88512391,2.32105832 4.12410899,2.53843551 4.34387349,2.77683078 C4.7342111,3.19222726 5.04724576,3.67398028 5.26824177,4.19941196 C5.27306558,4.21193005 5.27859898,4.22416303 5.28481504,4.23605136 C5.28784322,4.24152174 5.29427575,4.2451078 5.30861448,4.2581299 C6.35479494,3.63048432 7.53821924,3.26735512 8.75638266,3.20019546 C8.74887137,3.16291348 8.74438443,3.13441858 8.73733017,3.10657561 C8.61303499,2.59219897 8.57488647,2.06077288 8.62443655,1.53391672 C8.64624117,1.21819519 8.70983971,0.906762317 8.81356736,0.607770507 C8.86374571,0.450291109 8.94277254,0.303516487 9.04661737,0.174932354 C9.08585024,0.129003964 9.13113526,0.0886129723 9.18123249,0.0548653304 C9.28343962,-0.0174060627 9.41984858,-0.0183570561 9.52305343,0.0524822799 C9.62952053,0.124597331 9.71521327,0.223373176 9.77158007,0.338952617 C9.87657248,0.534973078 9.95202977,0.745429242 9.99550809,0.963505059 C10.0946369,1.42464915 10.1250748,1.89791094 10.0858355,2.3679542 C10.0664066,2.65484132 10.0166159,2.93886007 9.93729825,3.21524825 C10.2403589,3.27107674 10.5419782,3.31434443 10.8372105,3.38449293 C11.1317918,3.45299428 11.4222137,3.53828934 11.7070533,3.6399602 C11.9942206,3.7453574 12.2751175,3.86711067 12.548365,4.00462226 C12.8183894,4.13927866 13.0754248,4.29997839 13.3448814,4.45307365 C13.3536353,4.43464756 13.3663454,4.41265456 13.3749249,4.38915172 C13.6556011,3.6127429 14.1390304,2.92563972 14.7750015,2.39920791 C14.9234617,2.27175703 15.0939523,2.17249409 15.2780805,2.10630546 C15.3287833,2.08862731 15.3812732,2.07656723 15.4346074,2.07034183 C15.7011686,2.03981793 15.813066,2.20755447 15.8327696,2.40787668 C15.8475378,2.55555258 15.8363939,2.70467319 15.7998405,2.84851379 C15.7024757,3.22006893 15.5484672,3.57441221 15.3432306,3.89908291 C15.0542789,4.36598123 14.7112902,4.78655391 14.2754082,5.12594627 C14.2625422,5.13596359 14.251244,5.14799544 14.2294544,5.16808754 C14.6558,5.56132179 15.0355103,6.00228042 15.3611026,6.48227353 C15.3375119,6.48836572 15.3134802,6.49260036 15.2892281,6.4949386 C14.8383439,6.49557691 14.387452,6.49416028 13.9365822,6.49689908 C13.882745,6.49560809 13.832687,6.46894172 13.8015798,6.42498202 C12.8178342,5.35020234 11.491611,4.65009782 10.0492216,4.44413678 C9.6226754,4.38207718 9.19075306,4.36539871 8.7606913,4.39438081 C7.47834798,4.47268083 6.25156504,4.94549296 5.24836075,5.74806162 C4.98931372,5.95239416 4.7476798,6.17788277 4.52594919,6.42220364 C4.48604416,6.47170766 4.42508814,6.49943692 4.36155019,6.49698972 C3.93087508,6.49399899 3.50016763,6.49550032 3.06947167,6.49550244 L2.97788933,6.49550244 C3.004188,6.39303127 3.268973,6.03004756 3.56869523,5.70599737 C3.79221133,5.4643386 4.02899251,5.2349487 4.26949763,4.99029792 Z" id="Path"></path>
                                <path d="M15.2485503,14.640696 C14.9490089,15.0599515 14.6071524,15.4472961 14.2283736,15.7966194 C14.2585621,15.8217555 14.2830961,15.8421701 14.3076151,15.8626031 C14.965059,16.4004244 15.4611042,17.1094548 15.7409894,17.9114202 C15.8154552,18.1069916 15.8473993,18.3161841 15.8346943,18.5250667 C15.8307824,18.5785744 15.8200885,18.6313682 15.8028695,18.6821804 C15.7580991,18.8311567 15.6088939,18.9230268 15.4557131,18.8959349 C15.3558524,18.8829723 15.2587013,18.8541507 15.1679274,18.8105583 C15.0292839,18.7421585 14.898309,18.6592057 14.7772131,18.5630998 C14.1393808,18.0390348 13.6551032,17.3522709 13.3756389,16.5754995 C13.3676617,16.5536546 13.3589499,16.5320769 13.3448963,16.4956285 C13.0052362,16.7202179 12.6494775,16.9194554 12.280514,17.0917206 C11.9133448,17.2590862 11.5336356,17.3974482 11.144867,17.5055381 C10.7498458,17.6127384 10.3471635,17.6893931 9.94038388,17.7348238 C9.94753601,17.7705759 9.95163784,17.7990725 9.95899933,17.8267019 C10.0880224,18.3328581 10.130762,18.857149 10.0854202,19.3775192 C10.0684262,19.7036762 10.005052,20.0257486 9.89720768,20.3340289 C9.84587254,20.4616121 9.78668293,20.5858926 9.71997894,20.7061563 C9.69295208,20.752792 9.65944479,20.7953569 9.62045892,20.8325784 C9.45108828,21.0074348 9.24886261,21.0089242 9.08378019,20.8294439 C9.01854601,20.757051 8.96268657,20.6767323 8.91751986,20.590383 C8.78658612,20.3446016 8.71919899,20.0773463 8.6710869,19.8048185 C8.60917247,19.432824 8.58977158,19.0549941 8.61325835,18.6786143 C8.6260534,18.4029853 8.66718862,18.1294056 8.73601353,17.8622012 C8.74197499,17.8395329 8.74741813,17.816685 8.75181571,17.7936741 C8.75293447,17.7878211 8.74911691,17.7810226 8.74455294,17.7622582 C7.52658375,17.6934249 6.34382667,17.3283243 5.29897887,16.6986576 C5.28153494,16.7373486 5.26654981,16.7699249 5.25209746,16.802737 C4.9592818,17.4859741 4.50862693,18.0900399 3.93711655,18.5653607 C3.78582128,18.694654 3.61204845,18.7950355 3.42446024,18.8615011 C3.33654899,18.8967667 3.2406084,18.9070781 3.14721103,18.8912991 C3.04229561,18.8725062 2.95497628,18.7999589 2.91727687,18.7002635 C2.85701378,18.554557 2.86768984,18.4030205 2.88815344,18.2527219 C2.92172219,18.0432624 2.9833814,17.8392856 3.0714645,17.6463049 C3.33245601,17.0384521 3.71658991,16.4912847 4.19963297,16.0393212 C4.21916547,16.0208266 4.23920054,16.002852 4.25839517,15.9840199 C4.2644941,15.9752663 4.2697023,15.9659246 4.27394202,15.9561344 C3.8188076,15.5614112 3.41213493,15.1140596 3.06245869,14.6234679 C3.10435698,14.6200558 3.13238718,14.6158081 3.16042122,14.6157825 C3.60785428,14.6153672 4.05529926,14.6169468 4.50271019,14.613928 C4.56298252,14.6120887 4.62087453,14.6375086 4.66030813,14.683128 C5.14672405,15.1835502 5.71347681,15.5990191 6.33707186,15.9123114 C6.99679564,16.2518002 7.71414865,16.4650215 8.45219732,16.5409972 C10.4573778,16.7359157 12.1822483,16.1280318 13.626809,14.7173456 C13.6922301,14.6466452 13.7856162,14.6085673 13.8818214,14.613365 C14.2989144,14.618523 14.716107,14.6154868 15.1332634,14.6154868 L15.2410764,14.6154868 L15.2485503,14.640696 Z" id="Path"></path>
                                <path d="M13.3849375,8.25111494 C13.5035415,8.25111494 13.6177262,8.25916582 13.7302615,8.24898296 C13.8577164,8.23745069 13.948949,8.28303079 14.0419109,8.3686921 C14.5786399,8.86326615 15.1209783,9.35175535 15.6614759,9.84223822 C15.6886491,9.86689768 15.7163878,9.89093415 15.7512701,9.92181934 C15.7838009,9.89385339 15.8143014,9.86891647 15.8433933,9.84243397 C16.4005343,9.33525839 16.9572642,8.8276326 17.5135828,8.31955657 C17.5602769,8.2714427 17.6255149,8.24590114 17.6924639,8.24952212 C17.8294417,8.25507037 17.9668011,8.25111621 18.111251,8.25111621 L18.111251,12.7350241 C18.0379258,12.756458 17.0526829,12.7607126 16.9350832,12.7376242 L16.9350832,10.4668324 L16.9122502,10.456012 C16.5288008,10.8057179 16.1453505,11.1554221 15.7531574,11.5130992 C15.3605566,11.1594209 14.9726258,10.8099516 14.5846966,10.4604815 L14.5623772,10.4686486 C14.5613985,10.6581688 14.5620479,10.8477358 14.5619321,11.0372755 C14.5618164,11.2256335 14.5618081,11.4139913 14.5619074,11.6023487 L14.5619074,12.7458772 L13.3947233,12.7458772 C13.3728456,12.6704294 13.362687,8.50481407 13.3849375,8.25111494 Z" id="Path"></path>
                                <path d="M2.6143405,8.25624786 L3.77451377,8.25624786 C3.79794171,8.330825 3.80252355,12.6381412 3.77854326,12.7468087 L2.61733293,12.7468087 C2.61094083,12.4615474 2.61531755,12.1772622 2.61451498,11.8931102 C2.61371878,11.6112886 2.6143405,11.329463 2.6143405,11.0403365 L1.17652823,11.0403365 L1.17652823,12.7314768 C1.08888899,12.7576555 0.0984642445,12.7601657 0,12.736711 L0,8.25676149 L1.17187405,8.25676149 L1.17187405,9.83930962 C1.25561827,9.86349928 2.48779414,9.86796537 2.6132792,9.84481702 C2.61362729,9.71812681 2.61413028,9.58836418 2.6143005,9.45860112 C2.61447923,9.32403536 2.61449257,9.1894696 2.6143405,9.05490384 C2.6143405,8.92369422 2.6143405,8.79248459 2.6143405,8.66127496 C2.61434093,8.53027739 2.6143405,8.39928068 2.6143405,8.25624786 Z" id="Path"></path>
                                <path d="M5.16511271,12.7451495 L5.16511271,8.26953804 C5.23392329,8.2470212 7.78412782,8.23822391 7.95082178,8.26083268 L7.95082178,9.21466228 C7.91342959,9.21734321 7.87483226,9.22246719 7.83623152,9.22251528 C7.38207315,9.22308097 6.92791407,9.22320594 6.47375428,9.22289018 L6.34746665,9.22289018 L6.34746665,9.96476489 L7.76651027,9.96476489 L7.76651027,10.9516742 L6.36015639,10.9516742 C6.33660717,11.0361487 6.33014229,11.6247502 6.34925308,11.7876922 C6.38520651,11.7901088 6.42372341,11.794906 6.46224798,11.7949515 C6.91640692,11.7954801 7.37056628,11.7955967 7.82472607,11.7953013 L7.95108945,11.7953013 L7.95108945,12.7451495 L5.16511271,12.7451495 Z" id="Path"></path>
                                <path d="M9.28043718,12.7468636 C9.25912845,12.62676 9.26343752,8.33814181 9.28458496,8.25662702 L10.440453,8.25662702 L10.440453,11.5658557 C10.4903153,11.5684447 10.5294438,11.5722053 10.5685747,11.572241 C11.0261204,11.5726575 11.4836676,11.5727508 11.9412161,11.572521 C11.9806054,11.572521 12.0199951,11.572521 12.064936,11.572521 L12.064936,12.7468636 L9.28043718,12.7468636 Z" id="Path"></path>
                            </g>
                        </g>
                    </g>
                    <text id="Title-Copy-92" font-family="'Avenir-Black', 'Arial', sans-serif" font-size="7.815876" font-weight="700" line-spacing="12.2123062" fill="#505A72">
                        <tspan x="15.1432597" y="61.6443662">provider-helm</tspan>
                    </text>
                    <rect id="Rectangle" fill="#E7F0FC" x="14.9600752" y="108.446963" width="88.9971818" height="4.69388204" rx="2.34694102"></rect>
                </g>
                <rect id="Rectangle" fill="#D2DCEA" opacity="0.717754546" x="149.906059" y="220.612456" width="77.9145139" height="4.69388204" rx="2.34694102"></rect>
                <rect id="Rectangle" fill="#D2DCEA" opacity="0.717754546" x="149.906059" y="230.365977" width="53.5814937" height="4.69388204" rx="2.34694102"></rect>
                <rect id="Rectangle" fill="#D2DCEA" opacity="0.717754546" x="149.906059" y="240.119498" width="81.6087365" height="4.69388204" rx="2.34694102"></rect>
                <rect id="Rectangle" fill="#D2DCEA" opacity="0.717754546" x="148.074213" y="75.5288292" width="52.879286" height="4.69388204" rx="2.34694102"></rect>
                <rect id="Rectangle" fill="#D2DCEA" opacity="0.717754546" x="148.074213" y="85.2823504" width="46.8647252" height="4.69388204" rx="2.34694102"></rect>
                <rect id="Rectangle" fill="#D2DCEA" opacity="0.717754546" x="148.074213" y="95.0358715" width="81.6087365" height="4.69388204" rx="2.34694102"></rect>
            </g>
        </g>
    </g>
</svg>