<?xml version="1.0" encoding="UTF-8"?>
<svg width="451px" height="486px" viewBox="0 0 451 486" version="1.1" xmlns="http://www.w3.org/2000/svg" xmlns:xlink="http://www.w3.org/1999/xlink">
    <title>Group 19</title>
    <defs>
        <rect id="path-1" x="0" y="0" width="197.885057" height="214.451064" rx="4"></rect>
        <filter x="-11.4%" y="-8.6%" width="127.8%" height="125.6%" filterUnits="objectBoundingBox" id="filter-2">
            <feMorphology radius="4.5" operator="erode" in="SourceAlpha" result="shadowSpreadOuter1"></feMorphology>
            <feOffset dx="5" dy="9" in="shadowSpreadOuter1" result="shadowOffsetOuter1"></feOffset>
            <feGaussianBlur stdDeviation="12.5" in="shadowOffsetOuter1" result="shadowBlurOuter1"></feGaussianBlur>
            <feComposite in="shadowBlurOuter1" in2="SourceAlpha" operator="out" result="shadowBlurOuter1"></feComposite>
            <feColorMatrix values="0 0 0 0 0.743069384   0 0 0 0 0.813890002   0 0 0 0 1  0 0 0 0.716959173 0" type="matrix" in="shadowBlurOuter1"></feColorMatrix>
        </filter>
        <path d="M4.00996952,0 C1.79532451,0 0,1.789103 0,3.99739169 L0,210.402608 C0,212.610307 1.79199328,214.4 4.00996952,214.4 L194.49003,214.4 C196.704675,214.4 198.5,212.610897 198.5,210.402608 L198.5,3.99739169 C198.5,1.78969322 196.708007,0 194.49003,0 L4.00996952,0 Z" id="path-3"></path>
        <filter x="-11.3%" y="-8.6%" width="127.7%" height="125.7%" filterUnits="objectBoundingBox" id="filter-4">
            <feMorphology radius="4.5" operator="erode" in="SourceAlpha" result="shadowSpreadOuter1"></feMorphology>
            <feOffset dx="5" dy="9" in="shadowSpreadOuter1" result="shadowOffsetOuter1"></feOffset>
            <feGaussianBlur stdDeviation="12.5" in="shadowOffsetOuter1" result="shadowBlurOuter1"></feGaussianBlur>
            <feComposite in="shadowBlurOuter1" in2="SourceAlpha" operator="out" result="shadowBlurOuter1"></feComposite>
            <feColorMatrix values="0 0 0 0 0.743069384   0 0 0 0 0.813890002   0 0 0 0 1  0 0 0 0.716959173 0" type="matrix" in="shadowBlurOuter1"></feColorMatrix>
        </filter>
        <polygon id="path-5" points="0 0 16.0462259 0 16.0462259 7.70549106 0 7.70549106"></polygon>
        <polygon id="path-7" points="0 0 13.2144817 0 13.2144817 18.8810974 0 18.8810974"></polygon>
        <polygon id="path-9" points="0 0 12.7697621 0 12.7697621 13.5271713 0 13.5271713"></polygon>
        <path d="M4.00996952,0 C1.79532451,0 0,1.789103 0,3.99739169 L0,210.402608 C0,212.610307 1.79199328,214.4 4.00996952,214.4 L194.49003,214.4 C196.704675,214.4 198.5,212.610897 198.5,210.402608 L198.5,3.99739169 C198.5,1.78969322 196.708007,0 194.49003,0 L4.00996952,0 Z" id="path-11"></path>
        <filter x="-11.3%" y="-8.6%" width="127.7%" height="125.7%" filterUnits="objectBoundingBox" id="filter-12">
            <feMorphology radius="4.5" operator="erode" in="SourceAlpha" result="shadowSpreadOuter1"></feMorphology>
            <feOffset dx="5" dy="9" in="shadowSpreadOuter1" result="shadowOffsetOuter1"></feOffset>
            <feGaussianBlur stdDeviation="12.5" in="shadowOffsetOuter1" result="shadowBlurOuter1"></feGaussianBlur>
            <feComposite in="shadowBlurOuter1" in2="SourceAlpha" operator="out" result="shadowBlurOuter1"></feComposite>
            <feColorMatrix values="0 0 0 0 0.743069384   0 0 0 0 0.813890002   0 0 0 0 1  0 0 0 0.716959173 0" type="matrix" in="shadowBlurOuter1"></feColorMatrix>
        </filter>
    </defs>
    <g id="Product" stroke="none" stroke-width="1" fill="none" fill-rule="evenodd">
        <g id="Product-/-Upbound-Registry-(Rev2)" transform="translate(-198.000000, -1454.000000)">
            <g id="Group-19" transform="translate(209.000000, 1461.000000)">
                <g id="Group-19-Copy-8" opacity="0.277265276" transform="translate(6.000000, 304.000000)" fill="#6C72FC">
                    <circle id="Oval" cx="77.5" cy="2.5" r="2.5"></circle>
                    <circle id="Oval-Copy-6" cx="77.5" cy="17.5" r="2.5"></circle>
                    <circle id="Oval-Copy-12" cx="77.5" cy="32.5" r="2.5"></circle>
                    <circle id="Oval-Copy-18" cx="77.5" cy="47.5" r="2.5"></circle>
                    <circle id="Oval-Copy-24" cx="77.5" cy="62.5" r="2.5"></circle>
                    <circle id="Oval-Copy-2" cx="107.5" cy="2.5" r="2.5"></circle>
                    <circle id="Oval-Copy-7" cx="107.5" cy="17.5" r="2.5"></circle>
                    <circle id="Oval-Copy-13" cx="107.5" cy="32.5" r="2.5"></circle>
                    <circle id="Oval-Copy-19" cx="107.5" cy="47.5" r="2.5"></circle>
                    <circle id="Oval-Copy-25" cx="107.5" cy="62.5" r="2.5"></circle>
                    <circle id="Oval-Copy-4" cx="137.5" cy="2.5" r="2.5"></circle>
                    <circle id="Oval-Copy-8" cx="137.5" cy="17.5" r="2.5"></circle>
                    <circle id="Oval-Copy-14" cx="137.5" cy="32.5" r="2.5"></circle>
                    <circle id="Oval-Copy-20" cx="137.5" cy="47.5" r="2.5"></circle>
                    <circle id="Oval-Copy-26" cx="137.5" cy="62.5" r="2.5"></circle>
                    <circle id="Oval-Copy" cx="92.5" cy="2.5" r="2.5"></circle>
                    <circle id="Oval-Copy-9" cx="92.5" cy="17.5" r="2.5"></circle>
                    <circle id="Oval-Copy-15" cx="92.5" cy="32.5" r="2.5"></circle>
                    <circle id="Oval-Copy-21" cx="92.5" cy="47.5" r="2.5"></circle>
                    <circle id="Oval-Copy-27" cx="92.5" cy="62.5" r="2.5"></circle>
                    <circle id="Oval-Copy-3" cx="122.5" cy="2.5" r="2.5"></circle>
                    <circle id="Oval-Copy-10" cx="122.5" cy="17.5" r="2.5"></circle>
                    <circle id="Oval-Copy-16" cx="122.5" cy="32.5" r="2.5"></circle>
                    <circle id="Oval-Copy-22" cx="122.5" cy="47.5" r="2.5"></circle>
                    <circle id="Oval-Copy-28" cx="122.5" cy="62.5" r="2.5"></circle>
                    <circle id="Oval-Copy-36" cx="152.5" cy="2.5" r="2.5"></circle>
                    <circle id="Oval-Copy-37" cx="152.5" cy="17.5" r="2.5"></circle>
                    <circle id="Oval-Copy-38" cx="152.5" cy="32.5" r="2.5"></circle>
                    <circle id="Oval-Copy-39" cx="152.5" cy="47.5" r="2.5"></circle>
                    <circle id="Oval-Copy-40" cx="152.5" cy="62.5" r="2.5"></circle>
                    <circle id="Oval-Copy-42" cx="182.5" cy="2.5" r="2.5"></circle>
                    <circle id="Oval-Copy-43" cx="182.5" cy="17.5" r="2.5"></circle>
                    <circle id="Oval-Copy-44" cx="182.5" cy="32.5" r="2.5"></circle>
                    <circle id="Oval-Copy-45" cx="182.5" cy="47.5" r="2.5"></circle>
                    <circle id="Oval-Copy-46" cx="182.5" cy="62.5" r="2.5"></circle>
                    <circle id="Oval-Copy-48" cx="212.5" cy="2.5" r="2.5"></circle>
                    <circle id="Oval-Copy-49" cx="212.5" cy="17.5" r="2.5"></circle>
                    <circle id="Oval-Copy-50" cx="212.5" cy="32.5" r="2.5"></circle>
                    <circle id="Oval-Copy-51" cx="212.5" cy="47.5" r="2.5"></circle>
                    <circle id="Oval-Copy-52" cx="212.5" cy="62.5" r="2.5"></circle>
                    <circle id="Oval-Copy-54" cx="167.5" cy="2.5" r="2.5"></circle>
                    <circle id="Oval-Copy-55" cx="167.5" cy="17.5" r="2.5"></circle>
                    <circle id="Oval-Copy-56" cx="167.5" cy="32.5" r="2.5"></circle>
                    <circle id="Oval-Copy-57" cx="167.5" cy="47.5" r="2.5"></circle>
                    <circle id="Oval-Copy-58" cx="167.5" cy="62.5" r="2.5"></circle>
                    <circle id="Oval-Copy-60" cx="197.5" cy="2.5" r="2.5"></circle>
                    <circle id="Oval-Copy-61" cx="197.5" cy="17.5" r="2.5"></circle>
                    <circle id="Oval-Copy-62" cx="197.5" cy="32.5" r="2.5"></circle>
                    <circle id="Oval-Copy-63" cx="197.5" cy="47.5" r="2.5"></circle>
                    <circle id="Oval-Copy-64" cx="197.5" cy="62.5" r="2.5"></circle>
                    <circle id="Oval-Copy-36" cx="2.5" cy="2.5" r="2.5"></circle>
                    <circle id="Oval-Copy-37" cx="2.5" cy="17.5" r="2.5"></circle>
                    <circle id="Oval-Copy-38" cx="2.5" cy="32.5" r="2.5"></circle>
                    <circle id="Oval-Copy-39" cx="2.5" cy="47.5" r="2.5"></circle>
                    <circle id="Oval-Copy-40" cx="2.5" cy="62.5" r="2.5"></circle>
                    <circle id="Oval-Copy-42" cx="32.5" cy="2.5" r="2.5"></circle>
                    <circle id="Oval-Copy-43" cx="32.5" cy="17.5" r="2.5"></circle>
                    <circle id="Oval-Copy-44" cx="32.5" cy="32.5" r="2.5"></circle>
                    <circle id="Oval-Copy-45" cx="32.5" cy="47.5" r="2.5"></circle>
                    <circle id="Oval-Copy-46" cx="32.5" cy="62.5" r="2.5"></circle>
                    <circle id="Oval-Copy-48" cx="62.5" cy="2.5" r="2.5"></circle>
                    <circle id="Oval-Copy-49" cx="62.5" cy="17.5" r="2.5"></circle>
                    <circle id="Oval-Copy-50" cx="62.5" cy="32.5" r="2.5"></circle>
                    <circle id="Oval-Copy-51" cx="62.5" cy="47.5" r="2.5"></circle>
                    <circle id="Oval-Copy-52" cx="62.5" cy="62.5" r="2.5"></circle>
                    <circle id="Oval-Copy-54" cx="17.5" cy="2.5" r="2.5"></circle>
                    <circle id="Oval-Copy-55" cx="17.5" cy="17.5" r="2.5"></circle>
                    <circle id="Oval-Copy-56" cx="17.5" cy="32.5" r="2.5"></circle>
                    <circle id="Oval-Copy-57" cx="17.5" cy="47.5" r="2.5"></circle>
                    <circle id="Oval-Copy-58" cx="17.5" cy="62.5" r="2.5"></circle>
                    <circle id="Oval-Copy-60" cx="47.5" cy="2.5" r="2.5"></circle>
                    <circle id="Oval-Copy-61" cx="47.5" cy="17.5" r="2.5"></circle>
                    <circle id="Oval-Copy-62" cx="47.5" cy="32.5" r="2.5"></circle>
                    <circle id="Oval-Copy-63" cx="47.5" cy="47.5" r="2.5"></circle>
                    <circle id="Oval-Copy-64" cx="47.5" cy="62.5" r="2.5"></circle>
                </g>
                <g id="Group-8">
                    <g id="Group-15" transform="translate(221.000000, 0.000000)">
                        <g id="Rectangle-21-Copy-2">
                            <use fill="black" fill-opacity="1" filter="url(#filter-2)" xlink:href="#path-1"></use>
                            <rect stroke="#D2DCEA" stroke-width="0.5" fill="#FFFFFF" fill-rule="evenodd" x="-0.25" y="-0.25" width="198.385057" height="214.951064" rx="4"></rect>
                        </g>
                        <g id="Application-Icons/Gitlab/65x65-Copy-10" transform="translate(22.000000, 22.000000)">
                            <rect id="Rectangle-Copy-13" fill="#232F3E" fill-rule="nonzero" x="0" y="0" width="52" height="52" rx="10.4"></rect>
                            <g id="Group-Copy-2" transform="translate(9.101550, 16.883141)">
                                <path d="M9.36274449,7.6125206 C9.36274449,8.04385791 9.40588293,8.39359086 9.4813752,8.6500617 C9.56765208,8.90653253 9.67549818,9.18631889 9.82648272,9.48942078 C9.88040578,9.5826829 9.901975,9.67594502 9.901975,9.75754938 C9.901975,9.87412703 9.83726733,9.99070468 9.6970674,10.1072823 L9.01763696,10.5969085 C8.92057547,10.6668551 8.82340613,10.7018284 8.73723709,10.7018284 C8.62939099,10.7018284 8.52154489,10.6435395 8.41369879,10.5386196 C8.26271425,10.3637532 8.13329892,10.1772289 8.02545282,9.99070468 C7.91760672,9.79252268 7.80976062,9.57102514 7.69112991,9.30289654 C6.84982246,10.3754109 5.79303851,10.9116681 4.52045451,10.9116681 C3.61454725,10.9116681 2.89197837,10.6318818 2.36353247,10.072309 C1.83508657,9.51273631 1.56547131,8.76663935 1.56547131,7.83401814 C1.56547131,6.84310811 1.88890177,6.03872232 2.54687084,5.43251853 C3.20473206,4.82631475 4.07828549,4.52321285 5.18910034,4.52321285 C5.55566924,4.52321285 5.93323844,4.55818615 6.33226902,4.61647498 C6.7312996,4.6747638 7.14111479,4.76802592 7.57249919,4.87294581 L7.57249919,4.02192896 C7.57249919,3.13593881 7.39994543,2.51807726 7.06562251,2.15668654 C6.72051499,1.79529582 6.13814604,1.62042935 5.30773105,1.62042935 C4.93026969,1.62042935 4.54202373,1.66706041 4.14299315,1.77198029 C3.74396257,1.87690018 3.35571661,2.0051356 2.97825525,2.16834431 C2.80570148,2.24994866 2.67628616,2.29657972 2.60079389,2.31989525 C2.52530162,2.34321078 2.47137857,2.35486855 2.42813228,2.35486855 C2.27725559,2.35486855 2.20176331,2.2382909 2.20176331,1.99347783 L2.20176331,1.42224734 C2.20176331,1.2357231 2.22333253,1.09582992 2.27725559,1.01422556 C2.33117864,0.932621207 2.42813228,0.851016852 2.57922467,0.769412496 C2.95657818,0.559572724 3.40963966,0.384706248 3.93808556,0.244813067 C4.46653146,0.0932621207 5.02733119,0.0233155302 5.62048475,0.0233155302 C6.90385336,0.0233155302 7.84211445,0.338075188 8.44605262,0.967594502 C9.03920618,1.59711382 9.34117527,2.55305055 9.34117527,3.83540471 L9.34117527,7.6125206 L9.36274449,7.6125206 Z M4.98419275,9.3845009 C5.34008488,9.3845009 5.70665378,9.31455431 6.0950076,9.17466113 C6.48325356,9.03476794 6.82836109,8.77829711 7.11954556,8.42856416 C7.29209933,8.20706662 7.4214068,7.96225356 7.48622231,7.68246719 C7.55092997,7.40268083 7.59406841,7.06460564 7.59406841,6.66824163 L7.59406841,6.1786155 C7.28131472,6.09701114 6.9469918,6.02706455 6.60188428,5.98043349 C6.25677675,5.93380243 5.92245383,5.9104869 5.58813092,5.9104869 C4.86556203,5.9104869 4.33711613,6.06203785 3.981224,6.3767975 C3.62533186,6.69155716 3.4527781,7.13455224 3.4527781,7.71744049 C3.4527781,8.26535545 3.58219342,8.67337723 3.85180867,8.95316359 C4.11063932,9.24460772 4.48810068,9.3845009 4.98419275,9.3845009 Z M13.6442347,10.6435395 C13.4501118,10.6435395 13.3206964,10.6085662 13.2344195,10.5269619 C13.1481427,10.4570153 13.0726504,10.2938066 13.0079427,10.072309 L10.4735593,1.06085662 C10.4087438,0.827701321 10.3764978,0.676150375 10.3764978,0.59454602 C10.3764978,0.408021778 10.4626669,0.303101892 10.6353285,0.303101892 L11.6922203,0.303101892 C11.89702,0.303101892 12.0373278,0.338075188 12.1128201,0.419679543 C12.199097,0.489626134 12.2638046,0.652834845 12.3285123,0.874332382 L14.1403268,8.59177287 L15.8226181,0.874332382 C15.876649,0.64117708 15.9412489,0.489626134 16.0276336,0.419679543 C16.1139105,0.349732953 16.2647872,0.303101892 16.459018,0.303101892 L17.3217868,0.303101892 C17.5265866,0.303101892 17.6668943,0.338075188 17.7531712,0.419679543 C17.8394481,0.489626134 17.9149404,0.652834845 17.9580788,0.874332382 L19.6619394,8.68503499 L21.5277848,0.874332382 C21.5924925,0.64117708 21.6679847,0.489626134 21.743477,0.419679543 C21.8297539,0.349732953 21.9699538,0.303101892 22.1640768,0.303101892 L23.1670455,0.303101892 C23.3395993,0.303101892 23.4366608,0.396364013 23.4366608,0.59454602 C23.4366608,0.652834845 23.4258762,0.71112367 23.4150916,0.781070261 C23.4041991,0.851016852 23.3827377,0.944278972 23.3395993,1.07251439 L20.7405082,10.0839668 C20.6756927,10.3171221 20.6002005,10.4686731 20.5139236,10.5386196 C20.4277546,10.6085662 20.2875546,10.6551973 20.1042162,10.6551973 L19.1766319,10.6551973 C18.9718322,10.6551973 18.8316322,10.620224 18.7452475,10.5386196 C18.6589706,10.4570153 18.5834784,10.3054643 18.5404478,10.072309 L16.8688332,2.55305055 L15.2080032,10.0606513 C15.1539723,10.2938066 15.0893725,10.4453575 15.0030956,10.5269619 C14.9168187,10.6085662 14.7658342,10.6435395 14.5717112,10.6435395 L13.6442347,10.6435395 Z M27.5024588,10.9582992 C26.9416591,10.9582992 26.3808594,10.8883526 25.8416289,10.7484594 C25.3023984,10.6085662 24.8817986,10.4570153 24.6013987,10.2821488 C24.4288449,10.1772289 24.3101064,10.0606513 24.2670758,9.95573139 C24.2239373,9.8508115 24.2023681,9.73423385 24.2023681,9.62931396 L24.2023681,9.03476794 C24.2023681,8.78995488 24.288645,8.67337723 24.4504142,8.67337723 C24.5151218,8.67337723 24.5797216,8.68503499 24.6444293,8.70835052 C24.7092448,8.73166605 24.8061984,8.77829711 24.9141524,8.82492817 C25.2807213,8.99979465 25.6798597,9.13968783 26.1003517,9.23294995 C26.5318439,9.32621207 26.9523359,9.37284313 27.3838281,9.37284313 C28.0632586,9.37284313 28.5917045,9.24460772 28.9582734,8.98813688 C29.325058,8.73166605 29.5191809,8.35861757 29.5191809,7.8806492 C29.5191809,7.55423178 29.4221195,7.28610318 29.2278886,7.06460564 C29.0338735,6.84310811 28.6671967,6.6449261 28.138643,6.45840186 L26.5749824,5.93380243 C25.7877058,5.66567383 25.2053369,5.26930982 24.8494447,4.74471039 C24.4935526,4.23176873 24.3101064,3.66053824 24.3101064,3.05433445 C24.3101064,2.56470832 24.4072757,2.13337101 24.6013987,1.76032253 C24.7954138,1.38727405 25.0543523,1.06085662 25.3778906,0.804385791 C25.7014289,0.536257194 26.0681057,0.338075188 26.4994901,0.198182007 C26.9308745,0.0582888254 27.3838281,0 27.858351,0 C28.0955046,0 28.3436584,0.0116577651 28.580812,0.0466310604 C28.8289659,0.0816043556 29.0553349,0.128235416 29.2818117,0.174866476 C29.4975039,0.233155302 29.7024115,0.291444127 29.8966423,0.361390718 C30.0906574,0.431337308 30.2417498,0.501283899 30.3495959,0.571230489 C30.5005805,0.66449261 30.6084266,0.757754731 30.6731342,0.862674617 C30.7378419,0.955936737 30.7701957,1.08417215 30.7701957,1.24738086 L30.7701957,1.79529582 C30.7701957,2.04010889 30.6839189,2.16834431 30.5221497,2.16834431 C30.4358728,2.16834431 30.2956729,2.12171325 30.1123345,2.02845113 C29.4976117,1.72534923 28.8073967,1.57379829 28.0416894,1.57379829 C27.4269666,1.57379829 26.9416591,1.67871817 26.6073362,1.90021571 C26.2730133,2.12171325 26.1004595,2.45978843 26.1004595,2.9377568 C26.1004595,3.26417423 26.2083056,3.54396059 26.4239978,3.76545812 C26.63969,3.98695566 27.0387206,4.2084532 27.6103049,4.4066352 L29.1417196,4.93123463 C29.9182115,5.19936323 30.4790113,5.57241171 30.8133342,6.05038008 C31.1476571,6.52834845 31.3094262,7.07626341 31.3094262,7.68246719 C31.3094262,8.18375109 31.2123647,8.63840393 31.0290264,9.03476794 C30.8349034,9.43113196 30.5760727,9.78086491 30.2417498,10.0606513 C29.9074269,10.3520954 29.5083963,10.5619352 29.0446581,10.7134861 C28.5593506,10.8766948 28.052474,10.9582992 27.5024588,10.9582992 L27.5024588,10.9582992 Z" id="Fill-1" fill="#FFFFFF"></path>
                                <path d="M29.7215886,16.0506201 C26.1243587,18.8598222 20.8979881,20.3511271 16.4042934,20.3511271 C10.1064075,20.3511271 4.43174995,17.88874 0.14568872,13.7963221 C-0.193369338,13.4726281 0.112887231,13.033329 0.517438928,13.28766 C5.15338271,16.1315436 10.8716663,17.8540585 16.7869775,17.8540585 C20.7778253,17.8540585 25.162291,16.9754603 29.1968741,15.1720219 C29.7982348,14.8830094 30.3121248,15.5882 29.7215886,16.0506201 Z M31.2196326,14.2471817 C30.7603024,13.6229146 28.180028,13.9466087 27.0101082,14.0968952 C26.6601163,14.1431372 26.6054472,13.8194431 26.9226376,13.5766726 C28.9781975,12.0506863 32.3566416,12.4899854 32.7503688,12.9986475 C33.1439866,13.5188701 32.6410305,17.0910654 30.7165671,18.8020197 C30.4214631,19.0679113 30.1371835,18.9291852 30.2682801,18.5823702 C30.7056333,17.4378804 31.6788535,14.8598884 31.2196326,14.2471817 L31.2196326,14.2471817 Z" id="Fill-2" fill="#FF9900"></path>
                            </g>
                        </g>
                        <text id="Title-Copy-95" font-family="'Avenir-Black', 'Arial Black', sans-serif" font-size="12.8" font-weight="700" line-spacing="20" fill="#505A72">
                            <tspan x="21.5" y="100.2">platform-ref-aws</tspan>
                        </text>
                        <g id="Text" transform="translate(21.200000, 177.100000)" fill="#E7F0FC">
                            <rect id="Rectangle" x="0" y="0" width="145.75" height="7.7" rx="3.85"></rect>
                        </g>
                    </g>
                    <g id="Group-14" transform="translate(0.000000, 111.000000)">
                        <g id="shadow">
                            <use fill="black" fill-opacity="1" filter="url(#filter-4)" xlink:href="#path-3"></use>
                            <path stroke="#D2DCEA" stroke-width="0.5" d="M194.49003,-0.25 C195.667632,-0.25 196.732123,0.225041338 197.502437,0.992939419 C198.273609,1.76169243 198.75,2.8239831 198.75,3.99739169 L198.75,3.99739169 L198.75,210.402608 C198.75,211.575819 198.273176,212.637716 197.502151,213.406322 C196.73131,214.174745 195.666376,214.65 194.49003,214.65 L194.49003,214.65 L4.00996952,214.65 C2.83236824,214.65 1.76787683,214.174959 0.997562547,213.407061 C0.226390648,212.638308 -0.25,211.576017 -0.25,210.402608 L-0.25,210.402608 L-0.25,3.99739169 C-0.25,2.82418087 0.226824238,1.76228439 0.997848601,0.993678448 C1.76869022,0.225254676 2.83362407,-0.25 4.00996952,-0.25 L4.00996952,-0.25 Z" fill="#FFFFFF" fill-rule="evenodd"></path>
                        </g>
                        <g id="Application-Icons/Gitlab/65x65-Copy-8" transform="translate(25.000000, 24.000000)">
                            <rect id="Rectangle-Copy-13" fill="#101F49" fill-rule="nonzero" x="0" y="0" width="52" height="52" rx="10.4"></rect>
                            <g id="Group-12" transform="translate(13.000000, 15.981880)">
                                <g id="Group-3" transform="translate(3.045087, 0.000000)">
                                    <mask id="mask-6" fill="white">
                                        <use xlink:href="#path-5"></use>
                                    </mask>
                                    <g id="Clip-2"></g>
                                    <path d="M12.9740358,5.92088828 L13.7440083,5.92088828 L15.9384298,3.59846001 L16.0462259,2.6124466 C11.962292,-1.20285487 5.72936501,-0.791336877 2.12435399,3.53082438 C1.12261983,4.73196798 0.396535813,6.15965021 0,7.70549106 C0.244081267,7.59955574 0.51511157,7.58244311 0.769972452,7.65659784 L5.15881543,6.89060395 C5.15881543,6.89060395 5.38210744,6.49945813 5.49760331,6.52390475 C7.44948347,4.25444413 10.7349559,3.99042071 12.9894353,5.92088828 L12.9740358,5.92088828 Z" id="Fill-1" fill="#EA4335" mask="url(#mask-6)"></path>
                                </g>
                                <g id="Group-6" transform="translate(12.030435, 2.620514)">
                                    <mask id="mask-8" fill="white">
                                        <use xlink:href="#path-7"></use>
                                    </mask>
                                    <g id="Clip-5"></g>
                                    <path d="M10.0789394,5.08489559 C9.57460744,3.11857299 8.53899449,1.35189772 7.09914601,0 L4.0192562,3.25954846 C5.31973967,4.38409267 6.06045317,6.07824299 6.0288843,7.85551178 L6.0288843,8.43408163 C7.54342011,8.43408163 8.76998623,9.73301169 8.76998623,11.3342649 C8.76998623,12.9371478 7.54342011,14.2360779 6.0288843,14.2360779 L0.546680441,14.2360779 L0,14.8227966 L0,18.3023646 L0.546680441,18.8809344 L6.0288843,18.8809344 C9.96652342,18.912715 13.1834683,15.5610843 13.2142672,11.3945665 C13.2327466,8.86841646 12.0562287,6.49953962 10.0789394,5.08489559" id="Fill-4" fill="#4285F4" mask="url(#mask-8)"></path>
                                </g>
                                <path d="M7.08736543,21.4689344 L12.5695693,21.4689344 L12.5695693,16.8240779 L7.08736543,16.8240779 C6.69698939,16.8240779 6.31046322,16.7344403 5.95550592,16.5624991 L5.18553347,16.815929 L2.97571253,19.1383573 L2.78321942,19.9532444 C4.02287507,20.9433322 5.53433099,21.4762684 7.08736543,21.4689344" id="Fill-7" fill="#34A853"></path>
                                <g id="Group-11" transform="translate(0.000000, 6.401464)">
                                    <mask id="mask-10" fill="white">
                                        <use xlink:href="#path-9"></use>
                                    </mask>
                                    <g id="Clip-10"></g>
                                    <path d="M7.08736543,0 C3.14972631,0.0253066881 -0.0233301653,3.42338595 -0.000356313022,7.59071866 C0.0128585399,9.91803626 1.04000179,12.1084528 2.78321942,13.5271713 L5.96320565,10.1616875 C4.58341501,9.50162894 3.97051694,7.7838469 4.59419463,6.32356919 C5.21710234,4.86329149 6.84097424,4.21464134 8.22076488,4.87388502 C8.82827314,5.16479972 9.3156657,5.68062326 9.5897759,6.32356919 L12.7697621,2.95808541 C11.4169205,1.08628971 9.31412576,-0.00810368359 7.08736543,0" id="Fill-9" fill="#FBBC05" mask="url(#mask-10)"></path>
                                </g>
                            </g>
                        </g>
                        <text id="Title-Copy-92" font-family="'Avenir-Black', 'Arial Black', sans-serif" font-size="12.8" font-weight="700" line-spacing="20" fill="#505A72">
                            <tspan x="24.8" y="101">platform-ref-gcp</tspan>
                        </text>
                        <rect id="Rectangle" fill="#D2DCEA" opacity="0.717754546" x="24.5" y="122.9" width="127.818868" height="7.7" rx="3.85"></rect>
                        <rect id="Rectangle" fill="#D2DCEA" opacity="0.717754546" x="24.5" y="138.9" width="146" height="7.7" rx="3.85"></rect>
                        <rect id="Rectangle" fill="#D2DCEA" opacity="0.717754546" x="24.5" y="154.9" width="133.879245" height="7.7" rx="3.85"></rect>
                        <rect id="Rectangle" fill="#E7F0FC" x="24.5" y="177.9" width="145.75" height="7.7" rx="3.85"></rect>
                    </g>
                    <g id="Group-14-Copy-2" transform="translate(221.000000, 240.000000)">
                        <g id="shadow">
                            <use fill="black" fill-opacity="1" filter="url(#filter-12)" xlink:href="#path-11"></use>
                            <path stroke="#D2DCEA" stroke-width="0.5" d="M194.49003,-0.25 C195.667632,-0.25 196.732123,0.225041338 197.502437,0.992939419 C198.273609,1.76169243 198.75,2.8239831 198.75,3.99739169 L198.75,3.99739169 L198.75,210.402608 C198.75,211.575819 198.273176,212.637716 197.502151,213.406322 C196.73131,214.174745 195.666376,214.65 194.49003,214.65 L194.49003,214.65 L4.00996952,214.65 C2.83236824,214.65 1.76787683,214.174959 0.997562547,213.407061 C0.226390648,212.638308 -0.25,211.576017 -0.25,210.402608 L-0.25,210.402608 L-0.25,3.99739169 C-0.25,2.82418087 0.226824238,1.76228439 0.997848601,0.993678448 C1.76869022,0.225254676 2.83362407,-0.25 4.00996952,-0.25 L4.00996952,-0.25 Z" fill="#FFFFFF" fill-rule="evenodd"></path>
                        </g>
                        <g id="Group" transform="translate(24.000000, 24.000000)" fill-rule="nonzero">
                            <g id="Application-Icons/Gitlab/65x65-Copy-9">
                                <rect id="Rectangle-Copy-13" fill="#081B7E" x="0" y="0" width="52" height="52" rx="10.4"></rect>
                                <g id="helm-icon-white-copy-2" transform="translate(10.847217, 8.727041)" fill="#FFFFFF">
                                    <path d="M6.99212342,8.17257252 C6.95226009,8.13476369 6.908869,8.09407522 6.86598247,8.05287033 C5.98670545,7.20813363 5.30623075,6.23139704 4.89518686,5.07691949 C4.78014561,4.7538056 4.69329722,4.42425155 4.70870244,4.07624469 C4.71016596,4.04321806 4.71006769,4.01009735 4.7123445,3.97713414 C4.74335706,3.52790926 5.04401298,3.30090572 5.48301625,3.40729133 C5.62148754,3.44315411 5.75547733,3.49450421 5.8824503,3.56037 C6.36263755,3.80117935 6.75402157,4.15717631 7.11392819,4.54759441 C7.7531811,5.22788602 8.26583556,6.01684925 8.62775903,6.87734466 C8.63565894,6.89784545 8.64472094,6.9178793 8.65490094,6.93734873 C8.65986016,6.94630752 8.67039467,6.9521804 8.6938771,6.97350658 C10.4071988,5.94561625 12.3452837,5.35092234 14.3402605,5.24093548 C14.3279593,5.17987908 14.3206111,5.1332132 14.3090584,5.08761499 C14.1055012,4.24522432 14.0430256,3.37491189 14.1241734,2.51208361 C14.1598827,1.99502889 14.2640375,1.48499767 14.4339115,0.995341084 C14.5160882,0.737438286 14.6455098,0.497066616 14.8155757,0.28648537 C14.879827,0.2112688 14.95399,0.145120783 15.0360338,0.0898525296 C15.2034177,-0.0285057749 15.4268136,-0.0300632095 15.5958313,0.085949826 C15.7701917,0.20405209 15.91053,0.365816532 16.0028415,0.555100093 C16.1747868,0.876121295 16.2983626,1.22078374 16.3695667,1.57792482 C16.5319092,2.33313695 16.5817571,3.10819415 16.5174952,3.87798038 C16.4856766,4.34781322 16.4041347,4.81294854 16.2742369,5.26558733 C16.770557,5.35701722 17.2645166,5.42787638 17.7480163,5.54275803 C18.2304498,5.65494217 18.7060715,5.79462923 19.1725511,5.96113482 C19.6428428,6.133743 20.1028656,6.3331374 20.5503609,6.55833907 C20.9925776,6.77886481 21.4135225,7.04204154 21.8548096,7.29276446 C21.8691458,7.26258819 21.8899611,7.22657042 21.9040115,7.18808001 C22.3636728,5.91656126 23.1553812,4.79129766 24.1969063,3.92916434 C24.4400384,3.72043902 24.7192495,3.55787685 25.0207949,3.44948025 C25.1038305,3.42052887 25.1897928,3.40077817 25.2771377,3.39058288 C25.713683,3.34059413 25.8969366,3.61529498 25.9292049,3.94336112 C25.9533907,4.18520881 25.9351405,4.42942247 25.8752772,4.66498913 C25.7158237,5.27348211 25.4636051,5.85378739 25.1274907,6.38549808 C24.6542767,7.15013388 24.0925669,7.83890252 23.3787261,8.39472277 C23.3576557,8.41112807 23.3391527,8.43083254 23.3034681,8.46373721 C24.0016909,9.10773392 24.6235396,9.82988847 25.1567596,10.6159695 C25.1181253,10.6259466 25.0787688,10.6328817 25.0390512,10.636711 C24.3006416,10.6377563 23.5622194,10.6354363 22.8238335,10.6399216 C22.7356647,10.6378074 22.6536851,10.5941361 22.6027411,10.5221436 C20.9916684,8.76198521 18.8197229,7.61542942 16.457533,7.27812862 C15.7589815,7.17649409 15.0516256,7.14917989 14.3473168,7.19664366 C12.247233,7.32487499 10.23814,8.09919579 8.59520003,9.41355629 C8.1709607,9.74819012 7.77523869,10.1174711 7.41211217,10.5175935 C7.34676001,10.5986659 7.2469328,10.6440778 7.1428772,10.6400701 C6.43756388,10.6351722 5.7321976,10.6376309 5.02685014,10.6376344 L4.87686646,10.6376344 C4.91993558,10.4698181 5.35357194,9.87536251 5.84442472,9.344668 C6.21047532,8.94890529 6.59825004,8.57323522 6.99212342,8.17257252 Z" id="Path"></path>
                                    <path d="M24.9724335,23.9769553 C24.4818769,24.6635667 23.9220211,25.2979181 23.3016979,25.8700021 C23.3511375,25.9111672 23.3913165,25.9446002 23.4314712,25.9780631 C24.508162,26.8588488 25.3205314,28.0200225 25.7788972,29.333395 C25.9008494,29.6536809 25.9531639,29.9962738 25.9323571,30.3383593 C25.9259505,30.4259883 25.9084372,30.5124485 25.8802379,30.5956632 C25.8069177,30.8396405 25.5625655,30.9900954 25.3117025,30.9457273 C25.1481613,30.9244985 24.9890577,30.8772976 24.840398,30.8059067 C24.6133426,30.6938887 24.3988461,30.5580376 24.2005282,30.4006458 C23.1559552,29.5423885 22.3628574,28.4176806 21.905181,27.145568 C21.8921167,27.1097927 21.8778495,27.0744551 21.854834,27.014764 C21.2985752,27.3825722 20.715952,27.708862 20.1117033,27.9909793 C19.5103932,28.2650727 18.8885463,28.491667 18.2518629,28.6686852 C17.6049398,28.8442462 16.9454701,28.969783 16.2792902,29.0441845 C16.2910032,29.1027355 16.2977207,29.1494041 16.3097766,29.1946525 C16.5210767,30.0235807 16.591071,30.8822078 16.516815,31.7344142 C16.4889842,32.2685589 16.3851967,32.7960145 16.2085809,33.3008828 C16.1245097,33.5098248 16.0275754,33.713358 15.9183347,33.9103129 C15.8740731,33.9866878 15.8191984,34.0563961 15.7553516,34.1173534 C15.4779746,34.4037143 15.1467912,34.4061535 14.8764369,34.11222 C14.7696034,33.9936627 14.6781229,33.8621255 14.6041537,33.7207119 C14.3897245,33.3181975 14.2793651,32.8805156 14.2005723,32.4341989 C14.0991755,31.8249864 14.0674028,31.2062172 14.1058669,30.589823 C14.1268213,30.1384275 14.1941881,29.6903882 14.3069022,29.2527896 C14.3166652,29.2156658 14.3255794,29.1782479 14.3327813,29.1405631 C14.3346135,29.1309778 14.3283615,29.119844 14.3208871,29.0891137 C12.3262283,28.9763858 10.3892361,28.3784634 8.67809694,27.3472632 C8.64952915,27.4106271 8.62498811,27.463977 8.60131961,27.5177131 C8.12177765,28.6366453 7.38374364,29.6259192 6.44778548,30.4043484 C6.20001038,30.6160911 5.91542396,30.780485 5.6082122,30.8893353 C5.46424062,30.9470894 5.30711945,30.9639763 5.1541633,30.9381352 C4.98234412,30.9073582 4.83934192,30.7885481 4.77760189,30.6252777 C4.67890948,30.3866553 4.6963936,30.1384851 4.72990667,29.8923423 C4.78488196,29.549312 4.88586076,29.2152608 5.03011378,28.8992179 C5.45753758,27.9037419 6.0866307,27.0076502 6.87770661,26.2674729 C6.90969484,26.2371845 6.94250612,26.2077476 6.97394101,26.1769065 C6.98392918,26.1625707 6.99245861,26.1472719 6.99940197,26.1312386 C6.25403184,25.4848035 5.58802713,24.7521791 5.01536504,23.9487408 C5.08398154,23.943153 5.12988639,23.9361964 5.17579752,23.9361546 C5.9085552,23.9354744 6.6413324,23.9380614 7.37405384,23.9331175 C7.47276138,23.9301052 7.56757067,23.9717352 7.63215078,24.0464457 C8.42875039,24.8659834 9.35691702,25.5463935 10.3781738,26.05947 C11.4585984,26.6154483 12.6334019,26.964639 13.8420985,27.0890638 C17.1259671,27.4082803 19.9507744,26.4127536 22.3165203,24.1024837 C22.42366,23.9866981 22.5765975,23.9243382 22.7341521,23.9321955 C23.4172221,23.9406427 24.1004552,23.9356703 24.783629,23.9356703 L24.9601936,23.9356703 L24.9724335,23.9769553 Z" id="Path"></path>
                                    <path d="M21.9204092,13.5127875 C22.114646,13.5127875 22.3016455,13.5259723 22.4859437,13.5092959 C22.6946756,13.4904096 22.8440864,13.5650558 22.9963295,13.7053427 C23.8753264,14.5153028 24.7635099,15.3152978 25.6486786,16.1185578 C25.6931799,16.1589424 25.7386074,16.1983068 25.7957339,16.2488872 C25.8490093,16.2030876 25.8989597,16.1622486 25.9466033,16.1188784 C26.8590289,15.2882809 27.7707811,14.456946 28.6818598,13.6248738 C28.7583304,13.5460781 28.8651701,13.5042489 28.9748121,13.5101789 C29.1991395,13.5192653 29.424092,13.5127896 29.6606565,13.5127896 L29.6606565,20.8560511 C29.5405724,20.8911531 27.9270477,20.8981208 27.7344555,20.8603092 L27.7344555,17.1414508 L27.6970621,17.1237305 C27.0690899,17.6964411 26.4411163,18.2691489 25.7988247,18.854914 C25.1558654,18.2756978 24.5205541,17.7033746 23.8852455,17.1310501 L23.8486932,17.1444253 C23.8470903,17.454801 23.8481538,17.7652534 23.8479642,18.0756612 C23.8477747,18.3841337 23.8477612,18.6926057 23.8479238,19.0010772 L23.8479238,20.8738251 L21.9364353,20.8738251 C21.9006064,20.7502648 21.8839698,13.9282686 21.9204092,13.5127875 Z" id="Path"></path>
                                    <path d="M4.28148533,13.5211936 L6.18149217,13.5211936 C6.21985993,13.643328 6.22736357,20.6973866 6.18809122,20.8753506 L4.28638601,20.8753506 C4.27591771,20.4081803 4.28308544,19.9426087 4.28177107,19.4772552 C4.28046715,19.015718 4.28148533,18.5541745 4.28148533,18.0806741 L1.92679123,18.0806741 L1.92679123,20.8502416 C1.78326513,20.8931142 0.161254136,20.8972253 0,20.8588136 L0,13.5220348 L1.91916911,13.5220348 L1.91916911,16.1137617 C2.05631639,16.1533769 4.07424132,16.160691 4.27974724,16.1227811 C4.28031731,15.9153015 4.28114106,15.7027903 4.28141982,15.4902783 C4.28171253,15.269901 4.28173436,15.0495237 4.28148533,14.8291464 C4.28148533,14.6142654 4.28148533,14.3993844 4.28148533,14.1845034 C4.28148603,13.9699697 4.28148533,13.7554374 4.28148533,13.5211936 Z" id="Path"></path>
                                    <path d="M8.45886535,20.8726334 L8.45886535,13.5429588 C8.57155592,13.5060832 12.7480063,13.4916759 13.0209997,13.5287021 L13.0209997,15.0907815 C12.9597628,15.0951721 12.8965522,15.1035636 12.8333361,15.1036423 C12.0895644,15.1045688 11.3457916,15.1047734 10.6020176,15.1042563 L10.3951973,15.1042563 L10.3951973,16.3192188 L12.7191541,16.3192188 L12.7191541,17.9354726 L10.4159792,17.9354726 C10.3774128,18.0738158 10.3668253,19.037764 10.3981229,19.3046128 C10.4570036,19.3085706 10.5200824,19.3164268 10.5831738,19.3165014 C11.3269464,19.317367 12.0707197,19.3175579 12.8144937,19.3170743 L13.021438,19.3170743 L13.021438,20.8726334 L8.45886535,20.8726334 Z" id="Path"></path>
                                    <path d="M15.1985006,20.8754405 C15.1636034,20.6787478 15.1706604,13.6553107 15.2052934,13.5218146 L17.0982496,13.5218146 L17.0982496,18.9413129 C17.1799088,18.9455529 17.2439891,18.9517115 17.3080735,18.9517701 C18.0573926,18.9524521 18.806714,18.952605 19.5560378,18.9522286 C19.6205453,18.9522286 19.6850535,18.9522286 19.7586529,18.9522286 L19.7586529,20.8754405 L15.1985006,20.8754405 Z" id="Path"></path>
                                </g>
                            </g>
                        </g>
                        <text id="Title-Copy-92" font-family="'Avenir-Black', 'Arial Black', sans-serif" font-size="12.8" font-weight="700" line-spacing="20" fill="#505A72">
                            <tspan x="24.8" y="101">provider-helm</tspan>
                        </text>
                        <rect id="Rectangle" fill="#E7F0FC" x="24.5" y="177.9" width="145.75" height="7.7" rx="3.85"></rect>
                    </g>
                </g>
                <rect id="Rectangle" fill="#D2DCEA" opacity="0.717754546" x="245.5" y="361.9" width="127.6" height="7.7" rx="3.85"></rect>
                <rect id="Rectangle" fill="#D2DCEA" opacity="0.717754546" x="245.5" y="377.9" width="87.75" height="7.7" rx="3.85"></rect>
                <rect id="Rectangle" fill="#D2DCEA" opacity="0.717754546" x="245.5" y="393.9" width="133.65" height="7.7" rx="3.85"></rect>
                <rect id="Rectangle" fill="#D2DCEA" opacity="0.717754546" x="242.5" y="123.9" width="86.6" height="7.7" rx="3.85"></rect>
                <rect id="Rectangle" fill="#D2DCEA" opacity="0.717754546" x="242.5" y="139.9" width="76.75" height="7.7" rx="3.85"></rect>
                <rect id="Rectangle" fill="#D2DCEA" opacity="0.717754546" x="242.5" y="155.9" width="133.65" height="7.7" rx="3.85"></rect>
            </g>
        </g>
    </g>
</svg>