<svg width="64" height="64" viewBox="0 0 64 64" xmlns="http://www.w3.org/2000/svg" xmlns:xlink="http://www.w3.org/1999/xlink">
    <defs>
        <filter x="-3.4%" y="-3.1%" width="106.7%" height="112.2%" filterUnits="objectBoundingBox" id="a">
            <feOffset dy="2" in="SourceAlpha" result="shadowOffsetOuter1"/>
            <feColorMatrix values="0 0 0 0 0 0 0 0 0 0 0 0 0 0 0 0 0 0 0.1 0" in="shadowOffsetOuter1"/>
        </filter>
        <filter x="-3.4%" y="-3.1%" width="106.7%" height="112.2%" filterUnits="objectBoundingBox" id="d">
            <feOffset dy="2" in="SourceAlpha" result="shadowOffsetInner1"/>
            <feComposite in="shadowOffsetInner1" in2="SourceAlpha" operator="arithmetic" k2="-1" k3="1" result="shadowInnerInner1"/>
            <feColorMatrix values="0 0 0 0 1 0 0 0 0 1 0 0 0 0 1 0 0 0 0.19263549 0" in="shadowInnerInner1"/>
        </filter>
        <linearGradient x1="75.873%" y1="-82.62%" x2="39.613%" y2="50%" id="c">
            <stop stop-color="#9CB3FF" offset="0%"/>
            <stop stop-color="#637CFF" offset="100%"/>
        </linearGradient>
        <path d="M19.5 28.08a3.9 3.9 0 1 1 0 7.8 3.9 3.9 0 0 1 0-7.8zm.78-24.96a7.807 7.807 0 0 1 7.67 6.384 7.814 7.814 0 0 1 6.37 7.684c0 3.993-3.003 7.332-7.02 7.772H11.7c-4.017-.44-7.02-3.78-7.02-7.772 0-4.316 3.492-7.815 7.8-7.815.052 0 .104 0 .155.002A7.807 7.807 0 0 1 20.28 3.12z" id="b"/>
    </defs>
    <g fill="none" fill-rule="evenodd">
        <rect fill="#3DE2CB" opacity=".15" width="64" height="64" rx="16"/>
        <path d="M13 13h39v39H13z"/>
        <path d="M29.38 43.81a1.17 1.17 0 1 1 0 2.34h-6.24a1.17 1.17 0 1 1 0-2.34h6.24zm12.48 0a1.17 1.17 0 1 1 0 2.34h-6.24a1.17 1.17 0 1 1 0-2.34h6.24zm-8.19-7.8v7.02h-2.34v-7.02h2.34z" fill="#44D5E9" fill-rule="nonzero"/>
        <g fill-rule="nonzero" transform="translate(13 13)">
            <use fill="#000" filter="url(#a)" xlink:href="#b"/>
            <use fill="url(#c)" xlink:href="#b"/>
            <use fill="#000" filter="url(#d)" xlink:href="#b"/>
        </g>
    </g>
</svg>
