<?xml version="1.0" encoding="UTF-8"?>
<svg width="48px" height="48px" viewBox="0 0 48 48" version="1.1" xmlns="http://www.w3.org/2000/svg" xmlns:xlink="http://www.w3.org/1999/xlink">
    <!-- Generator: Sketch 63.1 (92452) - https://sketch.com -->
    <title>Group 2</title>
    <desc>Created with Sketch.</desc>
    <g id="Customer" stroke="none" stroke-width="1" fill="none" fill-rule="evenodd">
        <g id="Customer-Overview" transform="translate(-1222.000000, -1233.000000)">
            <g id="Group-2" transform="translate(1222.000000, 1233.000000)">
                <circle id="Oval-Copy-2" fill="#6D64F5" cx="24" cy="24" r="24"></circle>
                <path d="M25.5115131,38.5156659 L38.5279352,25.1610064 C39.1573549,24.5220705 39.1573549,23.4779295 38.5279352,22.8321507 L25.5115131,9.48433408 C24.8888282,8.83855531 23.8710723,8.83855531 23.2417179,9.48433408 L21.7552645,11.0094212 C21.1125057,11.6620429 21.1258447,12.7268466 21.7820734,13.3657154 L29.850364,21.2521194 L10.6069625,21.2521194 C9.71645051,21.2521194 9,21.9871909 9,22.9008478 L9,25.0991522 C9,26.0128091 9.71645051,26.7478806 10.6069625,26.7478806 L29.850364,26.7478806 L21.7820734,34.6342846 C21.1325796,35.2731534 21.1191752,36.3379571 21.7552645,36.9905788 L23.2417179,38.5156659 C23.8644027,39.1614447 24.8821587,39.1614447 25.5115131,38.5156659 Z" id="arrow-right-copy" fill="#0B1C28" fill-rule="nonzero"></path>
            </g>
        </g>
    </g>
</svg>