<?xml version="1.0" encoding="UTF-8"?>
<svg width="55px" height="56px" viewBox="0 0 55 56" version="1.1" xmlns="http://www.w3.org/2000/svg" xmlns:xlink="http://www.w3.org/1999/xlink">
    <!-- Generator: Sketch 63.1 (92452) - https://sketch.com -->
    <title>Group 10</title>
    <desc>Created with Sketch.</desc>
    <defs>
        <polygon id="path-1" points="0.000402439024 0.209268293 43.611378 0.209268293 43.611378 42.8042195 0.000402439024 42.8042195"></polygon>
    </defs>
    <g id="Product" stroke="none" stroke-width="1" fill="none" fill-rule="evenodd">
        <g id="Product-v1" transform="translate(-574.000000, -3752.000000)">
            <g id="Group-10" transform="translate(574.000000, 3752.000000)">
                <path d="M43.6486707,20.4604024 L43.6486707,34.7925976 C43.6486707,39.4944268 39.8362317,43.3055244 35.133061,43.3055244 L20.265622,43.3055244 C22.7889146,50.1469878 29.3473293,55.0325976 37.0634268,55.0325976 C46.9594024,55.0325976 54.9813537,47.0106463 54.9813537,37.1133293 C54.9813537,29.5447927 50.2822073,23.0869878 43.6486707,20.4604024" id="Fill-1" fill-opacity="0.6" fill="#2FD3BC"></path>
                <path d="M35.134,43.3059268 C39.8358293,43.3059268 43.6469268,39.4948293 43.6469268,34.7916585 L43.6469268,19.6223902 C43.6469268,14.920561 39.8358293,11.108122 35.134,11.108122 L19.9633902,11.108122 C15.261561,11.108122 11.449122,14.920561 11.449122,19.6223902 L11.449122,34.7916585 C11.449122,39.4948293 15.261561,43.3059268 19.9633902,43.3059268 L35.134,43.3059268 Z" id="Fill-3" fill-opacity="0.6" fill="#FAAD13"></path>
                <g id="Group-7" transform="translate(0.000000, 0.032732)">
                    <mask id="mask-2" fill="white">
                        <use xlink:href="#path-1"></use>
                    </mask>
                    <g id="Clip-6"></g>
                    <path d="M4.06369512,42.8042195 C3.91479268,42.8042195 3.76454878,42.7961707 3.61430488,42.7787317 C3.57540244,42.7760488 3.53515854,42.7706829 3.49491463,42.7653171 C1.52162195,42.5050732 0.000402439024,40.8188537 0.000402439024,38.7744634 L0.000402439024,13.215561 C0.000402439024,6.04409756 5.83442683,0.208731707 13.0058902,0.208731707 L39.5869878,0.208731707 C41.8111341,0.208731707 43.611378,2.01031707 43.611378,4.23312195 C43.611378,6.45592683 41.8111341,8.2575122 39.5869878,8.2575122 L13.0058902,8.2575122 C10.2719878,8.2575122 8.04918293,10.4816585 8.04918293,13.215561 L8.04918293,38.2499512 C8.09076829,38.5665366 8.09479268,38.8925122 8.05857317,39.2238537 C7.83052439,41.2816585 6.08662195,42.8042195 4.06369512,42.8042195" id="Fill-5" fill="#6D64F5" mask="url(#mask-2)"></path>
                </g>
                <path d="M42.0766098,20.126378 L41.0020976,20.126378 C40.3488049,20.2819878 39.7290488,20.5972317 39.1924634,21.0586951 L39.188439,21.0546707 C39.1106341,21.1204024 39.0341707,21.1861341 38.9617317,21.2585732 L32.5750244,27.5862561 L31.7701463,28.3723537 C31.7647805,28.3710122 31.7594146,28.3710122 31.7540488,28.3696707 L30.1375854,30.0008902 L28.501,31.621378 C28.5023415,31.6280854 28.5023415,31.6334512 28.5036829,31.6401585 L27.7149024,32.446378 L21.3899024,38.829061 C20.1852683,40.0444268 19.866,41.7883293 20.3891707,43.3055244 L35.1331951,43.3055244 C39.8363659,43.3055244 43.6488049,39.4944268 43.6488049,34.7925976 L43.6488049,20.4282073 C43.1618537,20.236378 42.6319756,20.126378 42.0766098,20.126378" id="Fill-8" fill="#2FD3BC"></path>
            </g>
        </g>
    </g>
</svg>