<?xml version="1.0" encoding="UTF-8"?>
<svg width="55px" height="55px" viewBox="0 0 55 55" version="1.1" xmlns="http://www.w3.org/2000/svg" xmlns:xlink="http://www.w3.org/1999/xlink">
    <!-- Generator: Sketch 63.1 (92452) - https://sketch.com -->
    <title>Group 11</title>
    <desc>Created with Sketch.</desc>
    <defs>
        <polygon id="path-1" points="0 0.458266667 35.1394667 0.458266667 35.1394667 35.5956 0 35.5956"></polygon>
        <polygon id="path-3" points="0.6752 0.0702666667 48.9386667 0.0702666667 48.9386667 48.3329333 0.6752 48.3329333"></polygon>
    </defs>
    <g id="Product" stroke="none" stroke-width="1" fill="none" fill-rule="evenodd">
        <g id="Product-v1" transform="translate(-200.000000, -3753.000000)">
            <g id="Group-11" transform="translate(200.000000, 3752.000000)">
                <path d="M13.824,37.274 C13.9586667,39.5526667 15.844,41.3606667 18.156,41.3606667 L19.2413333,41.3606667 C19.9013333,41.2033333 20.5253333,40.886 21.0693333,40.4193333 L21.0733333,40.4233333 C21.1506667,40.358 21.2293333,40.2926667 21.3013333,40.2193333 L27.7493333,33.83 L28.5613333,33.0366667 C28.568,33.0366667 28.5733333,33.038 28.5786667,33.0393333 L30.2106667,31.3926667 L31.8613333,29.7553333 C31.8613333,29.75 31.86,29.7446667 31.8586667,29.738 L32.656,28.9233333 L39.0413333,22.4793333 C40.556,20.9526667 40.708,18.5886667 39.524,16.8833333 C38.8986667,15.922 37.908,15.2246667 36.7533333,14.978 L19.5986667,14.978 C16.3973333,14.978 13.8013333,17.574 13.8013333,20.7753333 L13.8013333,37.27 C13.808,37.2713333 13.816,37.274 13.824,37.274" id="Fill-1" fill="#26948E" opacity="0.620186942"></path>
                <g id="Group-5" transform="translate(0.000000, 0.875867)">
                    <mask id="mask-2" fill="white">
                        <use xlink:href="#path-1"></use>
                    </mask>
                    <g id="Clip-4"></g>
                    <path d="M22.7354667,34.6102667 C22.4301333,33.6342667 22.3861333,32.6569333 22.6048,31.6809333 C22.6501333,30.7022667 22.9394667,29.7916 23.4768,28.9489333 C24.2248,27.2129333 25.9021333,25.5996 27.5181333,24.6516 C28.3648,24.1542667 29.3234667,23.7502667 30.2901333,23.5422667 C32.2301333,23.1249333 33.1594667,23.2636 35.1368,23.5542667 C35.1368,23.5542667 35.1381333,23.5556 35.1394667,23.5556 L35.1394667,9.74893333 C35.1394667,4.61693333 30.9794667,0.458266667 25.8474667,0.458266667 L9.29146667,0.458266667 C4.15946667,0.458266667 -0.000533333333,4.61693333 -0.000533333333,9.74893333 L-0.000533333333,26.3049333 C-0.000533333333,31.4369333 4.15946667,35.5956 9.29146667,35.5956 L23.1034667,35.5956 C22.9554667,35.2676 22.8248,34.9369333 22.7354667,34.6102667" id="Fill-3" fill="#A07D28" mask="url(#mask-2)"></path>
                </g>
                <g id="Group-8" transform="translate(5.333333, 7.209200)">
                    <mask id="mask-4" fill="white">
                        <use xlink:href="#path-3"></use>
                    </mask>
                    <g id="Clip-7"></g>
                    <path d="M21.3578667,48.3329333 C14.2912,48.3329333 7.22586667,45.6436 1.8472,40.2636 C0.284533333,38.7022667 0.284533333,36.1689333 1.8472,34.6076 C3.40986667,33.0449333 5.94053333,33.0449333 7.5032,34.6076 C15.1432,42.2462667 27.5738667,42.2462667 35.2138667,34.6076 C42.8525333,26.9689333 42.8525333,14.5369333 35.2138667,6.89826667 C33.6512,5.33693333 33.6512,2.8036 35.2138667,1.24226667 C36.7752,-0.3204 39.3072,-0.3204 40.8698667,1.24226667 C51.6285333,11.9996 51.6285333,29.5062667 40.8698667,40.2636 C35.4912,45.6422667 28.4232,48.3316 21.3578667,48.3329333" id="Fill-6" fill="#6D64F5" mask="url(#mask-4)"></path>
                </g>
                <path d="M35.1392,26.4185333 L35.1392,14.9785333 L19.5992,14.9785333 C16.3965333,14.9785333 13.8018667,17.5732 13.8018667,20.7758667 L13.8018667,36.4718667 L25.0832,36.4718667 L27.7498667,33.8305333 L28.5605333,33.0372 C28.5672,33.0372 28.5725333,33.0385333 28.5792,33.0398667 L30.2112,31.3918667 L31.8618667,29.7558667 C31.8618667,29.7505333 31.8605333,29.7438667 31.8592,29.7372 L32.6565333,28.9238667 L35.1392,26.4185333 Z" id="Fill-9" fill="#2FD3BC"></path>
            </g>
        </g>
    </g>
</svg>