<?xml version="1.0" encoding="UTF-8"?>
<svg width="51px" height="55px" viewBox="0 0 51 55" version="1.1" xmlns="http://www.w3.org/2000/svg" xmlns:xlink="http://www.w3.org/1999/xlink">
    <!-- Generator: Sketch 63.1 (92452) - https://sketch.com -->
    <title>Group 10</title>
    <desc>Created with Sketch.</desc>
    <defs>
        <polygon id="path-1" points="0 0.555330906 38.8841091 0.555330906 38.8841091 54.7272727 0 54.7272727"></polygon>
    </defs>
    <g id="Product" stroke="none" stroke-width="1" fill="none" fill-rule="evenodd">
        <g id="Product-v1" transform="translate(-952.000000, -3753.000000)">
            <g id="Group-10" transform="translate(952.000000, 3752.000000)">
                <path d="M23.9319818,44.0124364 C18.2696182,44.0124364 13.6788909,39.4229818 13.6788909,33.7593455 C13.6788909,28.0969818 18.2696182,23.5075273 23.9319818,23.5075273 C29.5943455,23.5075273 34.1850727,28.0969818 34.1850727,33.7593455 C34.1850727,39.4229818 29.5943455,44.0124364 23.9319818,44.0124364" id="Fill-1" fill="#227073"></path>
                <path d="M50.4948182,33.1248909 L50.0391818,12.0816182 C49.9971818,10.1788909 48.9662727,8.53325455 47.453,7.60289091 C45.3186364,6.20416364 42.4219091,6.46634545 40.5955455,8.37543636 L19.4733636,30.4305273 C17.4115455,32.5814364 17.4866364,36.0088909 19.6388182,38.0694364 C19.6591818,38.0872545 19.6808182,38.0999818 19.7011818,38.1178 C19.7215455,38.1368909 19.7355455,38.1623455 19.7559091,38.1801636 C20.755,39.1372545 22.1193636,39.7150727 23.6071818,39.6819818 L44.6339091,39.2276182 C44.8299091,39.2441636 45.0233636,39.2785273 45.2257273,39.2734364 C46.7326364,39.2416182 48.0817273,38.5887091 49.0413636,37.5679818 C50.0099091,36.5663455 50.5991818,35.1968909 50.5660909,33.6963455 C50.5622727,33.5003455 50.5202727,33.3145273 50.4948182,33.1248909 Z" id="Fill-3" fill="#A07D28"></path>
                <g id="Group-7" transform="translate(0.000000, 0.717309)">
                    <mask id="mask-2" fill="white">
                        <use xlink:href="#path-1"></use>
                    </mask>
                    <g id="Clip-6"></g>
                    <path d="M35.0659273,54.7272727 L18.7406545,54.7272727 C18.3639273,54.7272727 17.9986545,54.6725455 17.6537455,54.5707273 C7.68701818,53.5525455 -0.000254545455,45.1245455 -0.000254545455,35.0216364 L-0.000254545455,31.0596364 C-0.000254545455,30.7618182 0.0353818182,30.4652727 0.104109091,30.1738182 C0.787563636,27.3101818 2.15447273,24.5814545 4.06483636,22.2536364 C4.14883636,22.1289091 4.24047273,22.008 4.33974545,21.8909091 L4.42756364,21.7903636 C4.70247273,21.4696364 4.97738182,21.154 5.28029091,20.8510909 L24.2235636,1.68890909 C25.7088364,0.188363636 28.1257455,0.176909091 29.6250182,1.65836364 C31.1230182,3.14109091 31.1370182,5.558 29.6555636,7.05854545 L10.7008364,26.2283636 C10.5926545,26.3352727 10.4959273,26.4447273 10.4030182,26.5529091 C10.3253818,26.6674545 10.2401091,26.7781818 10.1484727,26.8838182 C8.94956364,28.2774545 8.10574545,29.8429091 7.63610909,31.5407273 L7.63610909,35.0216364 C7.63610909,41.3725455 12.6073818,46.6403636 18.9519273,47.0145455 C19.1441091,47.026 19.3324727,47.0527273 19.5157455,47.0909091 L35.0659273,47.0909091 C37.1748364,47.0909091 38.8841091,48.8001818 38.8841091,50.9090909 C38.8841091,53.018 37.1748364,54.7272727 35.0659273,54.7272727" id="Fill-5" fill="#6D64F5" mask="url(#mask-2)"></path>
                </g>
                <path d="M34.1846909,33.7597273 C34.1846909,28.777 30.6286909,24.6279091 25.9170545,23.7039091 L19.4732364,30.4302727 C17.4114182,32.5799091 17.4865091,36.0099091 19.6386909,38.0691818 C19.6590545,38.087 19.6806909,38.0984545 19.7010545,38.1175455 C19.7214182,38.1366364 19.7354182,38.1620909 19.7557818,38.1811818 C20.7548727,39.1382727 22.1205091,39.7148182 23.6070545,39.6817273 L32.4346909,39.4908182 C33.5394182,37.8553636 34.1846909,35.8826364 34.1846909,33.7597273" id="Fill-8" fill="#2FD3BC"></path>
            </g>
        </g>
    </g>
</svg>