<?xml version="1.0" encoding="UTF-8"?>
<svg width="30px" height="30px" viewBox="0 0 30 30" version="1.1" xmlns="http://www.w3.org/2000/svg" xmlns:xlink="http://www.w3.org/1999/xlink">
    <!-- Generator: Sketch 62 (91390) - https://sketch.com -->
    <title>Group 22</title>
    <desc>Created with Sketch.</desc>
    <defs>
        <polygon id="path-1" points="0 0 30 0 30 30 0 30"></polygon>
    </defs>
    <g id="*Images" stroke="none" stroke-width="1" fill="none" fill-rule="evenodd">
        <g id="Group-22">
            <g id="Group-5-Copy-2">
                <mask id="mask-2" fill="white">
                    <use xlink:href="#path-1"></use>
                </mask>
                <g id="Clip-4"></g>
                <path d="M30,15.0010681 C30,23.2856227 23.2818285,30 15,30 C6.71603532,30 0,23.2856227 0,15.0010681 C0,6.71651357 6.71603532,0 15,0 C23.2818285,0 30,6.71651357 30,15.0010681" id="Fill-3" fill="#FAAD13" mask="url(#mask-2)"></path>
            </g>
            <g id="Group-26" transform="translate(8.000000, 7.000000)" stroke="#FFFFFF">
                <rect id="Rectangle" x="0.5" y="12" width="13" height="3.27777778"></rect>
                <rect id="Rectangle-Copy-4" x="0.5" y="1.125" width="13" height="2"></rect>
                <path d="M4.27777778,11.5 C4.27777778,9.94444444 5.18518519,9.16666667 7,9.16666667 C8.81481481,9.16666667 9.72222222,9.94444444 9.72222222,11.5" id="Path-7" stroke-linecap="round" stroke-linejoin="round"></path>
                <circle id="Oval" cx="7" cy="7.22222222" r="1.44444444"></circle>
                <line x1="2.1875" y1="3.1875" x2="2.1875" y2="11.9375" id="Line-2" stroke-linecap="round" stroke-linejoin="round"></line>
                <line x1="11.8125" y1="3.1875" x2="11.8125" y2="11.9375" id="Line-2" stroke-linecap="round" stroke-linejoin="round"></line>
            </g>
        </g>
    </g>
</svg>