<?xml version="1.0" encoding="UTF-8"?>
<svg width="84px" height="84px" viewBox="0 0 84 84" version="1.1" xmlns="http://www.w3.org/2000/svg" xmlns:xlink="http://www.w3.org/1999/xlink">
    <!-- Generator: Sketch 63.1 (92452) - https://sketch.com -->
    <title>Group 4</title>
    <desc>Created with Sketch.</desc>
    <defs>
        <linearGradient x1="139.717742%" y1="76.4364919%" x2="0%" y2="0%" id="linearGradient-1">
            <stop stop-color="#3DE2CB" offset="0%"></stop>
            <stop stop-color="#6D64F5" offset="100%"></stop>
        </linearGradient>
        <circle id="path-2" cx="42" cy="42" r="42"></circle>
        <polygon id="path-3" points="0.0307496272 0.0305668058 17.6246575 0.0305668058 17.6246575 32.2499984 0.0307496272 32.2499984"></polygon>
    </defs>
    <g id="Customer" stroke="none" stroke-width="1" fill="none" fill-rule="evenodd">
        <g id="Customer-Overview" transform="translate(-1306.000000, -560.000000)">
            <g id="Group-4" transform="translate(1306.000000, 560.000000)">
                <g id="Oval-Copy">
                    <use fill="url(#linearGradient-1)" xlink:href="#path-2"></use>
                    <use fill="#6D64F5" xlink:href="#path-2"></use>
                </g>
                <g id="Group-6" transform="translate(22.000000, 26.000000)">
                    <g id="Group-3" transform="translate(23.000000, 0.000000)">
                        <mask id="mask-4" fill="white">
                            <use xlink:href="#path-3"></use>
                        </mask>
                        <g id="Clip-2"></g>
                        <path d="M17.6224789,0.0305600731 C17.5722241,1.27787427 17.7330138,2.46809452 17.4593114,3.64195412 C17.1622168,4.9161321 16.4225971,5.77031947 15.2561328,6.24269108 C12.9814279,7.16373492 11.1243777,8.63181686 9.86517985,10.8541044 C9.34810798,11.7667323 9.01078381,12.7546999 8.83039347,13.8456117 L17.6188158,13.8456117 C17.6188158,14.1828565 17.6189443,14.4834077 17.6188158,14.7839588 C17.6173377,19.0247328 17.6169521,23.2655068 17.6139317,27.5062808 C17.6122608,29.9156723 16.15018,31.7625402 13.8962325,32.1981509 C13.6768979,32.2405001 13.4490804,32.2477715 13.225183,32.2479061 C8.95243168,32.2506665 4.67961608,32.2499984 0.406800476,32.2499984 L0.0458269884,32.2499984 L0.0458269884,31.8962532 C0.0469194843,28.7886055 0.00386229421,25.6802172 0.0585513521,22.5736467 C0.158803914,16.8864703 1.69498163,11.6585366 4.8305733,6.98901936 C6.25081793,4.87391759 8.07830646,3.1971869 10.2478747,1.97323544 C11.4555968,1.29194577 12.7783522,0.871955167 14.1325972,0.6135512 C15.2674434,0.396957777 16.4110295,0.230860177 17.6224789,0.0305600731" id="Fill-1" fill="#0B1C28" mask="url(#mask-4)"></path>
                    </g>
                    <path d="M0.00240035918,32 C0.00240035918,30.999674 0,30.0538589 0.00292663736,29.1081106 C0.0110839492,26.6453528 -0.0261502324,24.1811904 0.0423317165,21.7201047 C0.151073947,17.8139104 1.08844118,14.1000761 2.76266366,10.5830832 C3.73173915,8.5472498 4.87895981,6.62913327 6.47812186,5.02764843 C7.69421918,3.80974676 9.03721533,2.74186725 10.5191489,1.89497446 C11.635977,1.25676162 12.8841773,0.887291091 14.145995,0.637677768 C15.401629,0.389268367 16.6698936,0.207007834 17.9074368,0 C17.9534861,0.0599286008 17.9782212,0.0770510581 17.9778265,0.0936384387 C17.9514468,1.34705583 18.1363678,2.61318129 17.7556713,3.84526249 C17.4188533,4.93541457 16.7352179,5.70933626 15.6850956,6.1104432 C13.8843032,6.79821754 12.3350718,7.85680009 11.0597024,9.31568696 C10.0031989,10.5242917 9.34120676,11.9408406 9.03076842,13.5266075 C9.02044021,13.5795802 9.02155855,13.6349606 9.01445379,13.7259237 L17.9923649,13.7259237 L17.9923649,15.8911119 C17.9923649,19.7137674 17.9984171,23.536356 17.9902598,27.3589446 C17.9846023,30.0103839 16.0079672,31.9985286 13.3957197,31.9993312 C9.06589749,32.0005351 4.73614107,32 0.406450436,32 L0.00240035918,32 Z" id="Fill-4" fill="#0B1C28"></path>
                </g>
            </g>
        </g>
    </g>
</svg>