<svg xmlns="http://www.w3.org/2000/svg" width="75" height="75" viewBox="0 0 75 75">
    <defs>
        <filter id="ihnt38102a">
            <feColorMatrix in="SourceGraphic" values="0 0 0 0 1.000000 0 0 0 0 1.000000 0 0 0 0 1.000000 0 0 0 1.000000 0"/>
        </filter>
    </defs>
    <g fill="none" fill-rule="evenodd">
        <g>
            <g transform="translate(-189 -2548) translate(189 2548)">
                <g stroke="#7667F9" stroke-linecap="round" stroke-linejoin="round" stroke-width="1.95" transform="translate(28 22)">
                    <path d="M20 25v-3c0-3.314-2.388-6-5.333-6H5.333C2.388 16 0 18.686 0 22v3"/>
                    <circle cx="10" cy="6" r="6"/>
                </g>
                <path d="M0 0H75V75H0z"/>
                <path stroke="#2FD3BC" stroke-linecap="round" stroke-linejoin="round" stroke-width="1.95" d="M11 39h4m23.5-29v4M60 39h4M17.45 18.6l2.1 2.8m40.85-2.8l-2.8 2.8M38.5 66v-4m-21.05-2.6l2.1-2.8"/>
                <circle cx="52.25" cy="54" r="11" fill="#2FD3BC"/>
                <g filter="url(#ihnt38102a)">
                    <g stroke="#7667F9" stroke-width="1.3">
                        <path d="M2.548 11.466h2.23v2.389c0 .615-.5 1.114-1.115 1.114-.616 0-1.115-.499-1.115-1.114v-2.389h0zM7.135 10.988c0 .22-.178.398-.398.398H.527c-.22 0-.399-.178-.399-.398V3.76l.005-.19C.233 1.744 1.761.294 3.632.294c1.935 0 3.503 1.551 3.503 3.466h0v7.227z" transform="translate(48.5 46.7)"/>
                        <path stroke-linecap="square" d="M.494 10.977L6.785 7.001M.494 6.836L6.785 2.861" transform="translate(48.5 46.7)"/>
                    </g>
                </g>
            </g>
        </g>
    </g>
</svg>
