<?xml version="1.0" encoding="UTF-8"?>
<svg width="38px" height="32px" viewBox="0 0 38 32" version="1.1" xmlns="http://www.w3.org/2000/svg" xmlns:xlink="http://www.w3.org/1999/xlink">
    <!-- Generator: Sketch 62 (91390) - https://sketch.com -->
    <title>Group 26 Copy 4</title>
    <desc>Created with Sketch.</desc>
    <defs>
        <path d="M18.066667,1.92187601 L18.066667,22.7146305 C18.066667,24.1417696 16.9647044,25.0698098 16.0283162,24.4307598 L0.777613029,14.0198421 C-0.259826195,13.3117252 -0.259026319,11.2927924 0.778946155,10.5864931 L16.029916,0.204656218 C16.9660376,-0.432576276 18.066667,0.495463973 18.066667,1.92187601" id="path-1"></path>
        <filter x="-91.3%" y="-67.0%" width="282.7%" height="234.0%" filterUnits="objectBoundingBox" id="filter-2">
            <feMorphology radius="2" operator="dilate" in="SourceAlpha" result="shadowSpreadOuter1"></feMorphology>
            <feOffset dx="0" dy="0" in="shadowSpreadOuter1" result="shadowOffsetOuter1"></feOffset>
            <feGaussianBlur stdDeviation="3.5" in="shadowOffsetOuter1" result="shadowBlurOuter1"></feGaussianBlur>
            <feComposite in="shadowBlurOuter1" in2="SourceAlpha" operator="out" result="shadowBlurOuter1"></feComposite>
            <feColorMatrix values="0 0 0 0 0.42745098   0 0 0 0 0.392156863   0 0 0 0 0.960784314  0 0 0 0.5 0" type="matrix" in="shadowBlurOuter1"></feColorMatrix>
        </filter>
    </defs>
    <g id="Product" stroke="none" stroke-width="1" fill="none" fill-rule="evenodd">
        <g id="Group-26-Copy-4" transform="translate(18.500000, 15.500000) scale(1, -1) rotate(90.000000) translate(-18.500000, -15.500000) translate(9.000000, 3.000000)">
            <g id="Fill-3" opacity="0.604887463">
                <use fill="black" fill-opacity="1" filter="url(#filter-2)" xlink:href="#path-1"></use>
                <path stroke="#C8C3FF" stroke-width="2" d="M1.34167039,11.4131378 L16.5926304,1.03130759 C16.9632467,1.22971749 17.066667,1.557638 17.066667,1.92187601 L17.066667,22.7146305 C17.066667,23.0789229 16.9631896,23.406906 16.7545273,23.582583 L1.34136933,13.1939009 C1.07223367,13.0101991 0.999871254,12.6347842 1.00000013,12.3028822 C1.00012885,11.9713658 1.07246072,11.5963243 1.34167039,11.4131378 Z" stroke-linejoin="square" fill="#0B1C28" fill-rule="evenodd"></path>
            </g>
            <path d="M14.6153846,17.448568 C14.6153846,18.1437059 14.0523609,18.5957402 13.5739338,18.2844686 L5.78191979,13.2134683 C5.25186286,12.8685552 5.25227154,11.8851636 5.78260092,11.5411359 L13.5747511,6.48430033 C14.053042,6.17391403 14.6153846,6.62594839 14.6153846,7.3207321 L14.6153846,17.448568 Z" id="Fill-3" fill="#C8C3FF"></path>
        </g>
    </g>
</svg>