<?xml version="1.0" encoding="UTF-8"?>
<svg width="38px" height="32px" viewBox="0 0 38 32" version="1.1" xmlns="http://www.w3.org/2000/svg" xmlns:xlink="http://www.w3.org/1999/xlink">
    <!-- Generator: Sketch 62 (91390) - https://sketch.com -->
    <title>Fill 3</title>
    <desc>Created with Sketch.</desc>
    <defs>
        <path d="M27.7151515,5.63702747 L27.7151515,26.429782 C27.7151515,27.856921 26.6131889,28.7849613 25.6768007,28.1459112 L10.4260975,17.7349936 C9.38865826,17.0268767 9.38945814,15.0079439 10.4274306,14.3016445 L25.6784004,3.91980767 C26.614522,3.28257518 27.7151515,4.21061543 27.7151515,5.63702747" id="path-1"></path>
        <filter x="-91.3%" y="-67.0%" width="282.7%" height="234.0%" filterUnits="objectBoundingBox" id="filter-2">
            <feMorphology radius="2" operator="dilate" in="SourceAlpha" result="shadowSpreadOuter1"></feMorphology>
            <feOffset dx="0" dy="0" in="shadowSpreadOuter1" result="shadowOffsetOuter1"></feOffset>
            <feGaussianBlur stdDeviation="3.5" in="shadowOffsetOuter1" result="shadowBlurOuter1"></feGaussianBlur>
            <feComposite in="shadowBlurOuter1" in2="SourceAlpha" operator="out" result="shadowBlurOuter1"></feComposite>
            <feColorMatrix values="0 0 0 0 0.42745098   0 0 0 0 0.392156863   0 0 0 0 0.960784314  0 0 0 0.5 0" type="matrix" in="shadowBlurOuter1"></feColorMatrix>
        </filter>
    </defs>
    <g id="Product" stroke="none" stroke-width="1" fill="none" fill-rule="evenodd" opacity="0.604887463">
        <g id="Fill-3" transform="translate(18.681818, 16.033333) rotate(90.000000) translate(-18.681818, -16.033333) ">
            <use fill="black" fill-opacity="1" filter="url(#filter-2)" xlink:href="#path-1"></use>
            <path stroke="#C8C3FF" stroke-width="2" d="M10.9901548,15.1282892 L26.2411148,4.74645904 C26.6117312,4.94486894 26.7151515,5.27278945 26.7151515,5.63702747 L26.7151515,26.429782 C26.7151515,26.7940743 26.6116741,27.1220574 26.4030118,27.2977345 L10.9898538,16.9090524 C10.7207181,16.7253506 10.6483557,16.3499357 10.6484846,16.0180336 C10.6486133,15.6865173 10.7209452,15.3114758 10.9901548,15.1282892 Z" stroke-linejoin="square" fill="#0B1C28" fill-rule="evenodd"></path>
        </g>
    </g>
</svg>