<svg xmlns="http://www.w3.org/2000/svg" width="75" height="75" viewBox="0 0 75 75">
    <g fill="none" fill-rule="evenodd">
        <g>
            <g>
                <path stroke="#7667F9" stroke-linecap="round" stroke-linejoin="round" stroke-width="1.95" d="M37.3 20.1L53.5 20.1M21.9 48.6v-1.65c0-2.734 2.283-4.95 5.1-4.95 2.817 0 5.1 2.216 5.1 4.95v1.65M12.3 55.5L18.9 55.5M35.7 55.5L42.3 55.5M13.5 65.4L18.9 61.8M40.5 65.4L35.1 61.8M14.1 45L20.1 49.2M40.5 45L34.5 49.2M37.3 26.1L53.5 26.1M37.3 31.5L53.5 31.5M37.3 36.9L48.1 36.9" transform="translate(-191 -2829) translate(191 2829)"/>
                <path stroke="#7667F9" stroke-width="1.95" d="M27.3 41.117V11.4c0-1.325 1.075-2.4 2.4-2.4h30.6c1.325 0 2.4 1.075 2.4 2.4v37.8c0 1.325-1.075 2.4-2.4 2.4H35.621h0" transform="translate(-191 -2829) translate(191 2829)"/>
                <path fill="#2FD3BC" stroke="#2FD3BC" stroke-linecap="round" stroke-linejoin="round" stroke-width="1.17" d="M20.58 48.6h13.44c1 1.51 1.58 3.261 1.68 5.073v5.072c0 4.67-3.76 8.455-8.4 8.455-4.64 0-8.4-3.785-8.4-8.455v-5.072c.1-1.812.68-3.564 1.68-5.073" transform="translate(-191 -2829) translate(191 2829)"/>
                <path stroke="#FFF" stroke-linecap="round" stroke-linejoin="round" stroke-width="1.95" d="M27 67.2L27 57" transform="translate(-191 -2829) translate(191 2829)"/>
                <path d="M0 0H75V75H0z" transform="translate(-191 -2829) translate(191 2829)"/>
            </g>
        </g>
    </g>
</svg>
