<?xml version="1.0" encoding="UTF-8"?>
<svg width="110px" height="30px" viewBox="0 0 110 30" version="1.1" xmlns="http://www.w3.org/2000/svg" xmlns:xlink="http://www.w3.org/1999/xlink">
    <!-- Generator: Sketch 62 (91390) - https://sketch.com -->
    <title>Group 21</title>
    <desc>Created with Sketch.</desc>
    <g id="Crossplane" stroke="none" stroke-width="1" fill="none" fill-rule="evenodd">
        <g id="Group-21">
            <text id="by" font-family="Avenir-Black, Avenir" font-size="13" font-weight="700" fill="#939EAB">
                <tspan x="0" y="20.7241379">by</tspan>
            </text>
            <rect id="Rectangle" fill="#FFEED0" x="80" y="0" width="30" height="30" rx="6"></rect>
            <rect id="Rectangle" fill="#FFB904" x="87" y="7" width="16" height="16" rx="2"></rect>
            <rect id="Rectangle" fill="#FFB904" transform="translate(95.000000, 15.000000) rotate(45.000000) translate(-95.000000, -15.000000) " x="87" y="7" width="16" height="16" rx="2"></rect>
            <polyline id="Path-2" stroke="#FFFFFF" stroke-width="1.5" stroke-linecap="round" stroke-linejoin="round" points="92 14.7890015 94.2500395 17 98 13"></polyline>
            <g id="Upbound-Logo" transform="translate(20.000000, 10.000000)" fill="#939EAB" fill-rule="nonzero">
                <path d="M6.8128428,5.28509402 L6.78820768,7.86769668 C6.78820768,10.3466455 4.43309008,10.8499284 3.61274054,10.8499284 C1.90799015,10.8486795 0.468067305,9.79590678 0.468067305,7.86769668 L0.468067305,5.13897965 C0.468067305,4.53578958 0.811727247,4.17362576 1.36724923,4.17362576 C1.92277122,4.17362576 2.27874872,4.53578958 2.27874872,5.13897965 L2.27874872,7.65914027 C2.27874872,8.63698257 2.77145115,9.17273525 3.61274054,9.17273525 C4.51192247,9.17273525 5.00216138,8.71690838 5.00216138,7.65914027 L5.00216138,5.28634286 C5.00216138,4.68440162 5.34582133,4.32223781 5.91489263,4.32223781 C6.48396393,4.32223781 6.8128428,4.68315278 6.8128428,5.28509402 Z" id="Path"></path>
                <path d="M37.6720275,5.13897965 L37.6461606,7.86769668 C37.6461606,10.3466455 35.291043,10.8499284 34.4719253,10.8499284 C32.7671749,10.8499284 31.327252,9.79715562 31.327252,7.86769668 L31.327252,5.13897965 C31.327252,4.53578958 31.670912,4.17362576 32.2264339,4.17362576 C32.7819559,4.17362576 33.1379334,4.53578958 33.1379334,5.13897965 L33.1379334,7.65914027 C33.1379334,8.63698257 33.6306359,9.17273525 34.4719253,9.17273525 C35.3711072,9.17273525 35.8613461,8.71690838 35.8613461,7.65914027 L35.8613461,5.13897965 C35.8613461,4.53578958 36.205006,4.17362576 36.7728456,4.17362576 C37.3406851,4.17362576 37.6720275,4.53578958 37.6720275,5.13897965 Z" id="Path"></path>
                <path d="M14.9042484,7.47056532 C14.9042484,9.52116182 13.6885052,10.8486795 11.8507251,10.8486795 C11.018058,10.8486795 10.3442874,10.5539531 9.89469648,10.0444261 L9.86636609,10.0444261 L9.86636609,12.2823487 C9.86636609,12.8855388 9.5239379,13.260191 8.9548666,13.260191 C8.3857953,13.260191 8.05568467,12.8855388 8.05568467,12.2823487 L8.05568467,5.13897965 C8.05568467,4.53578958 8.39934461,4.17362576 8.9548666,4.17362576 C9.44756902,4.17362576 9.77398438,4.44212652 9.85404853,4.91169064 L9.8799154,4.91169064 C10.3295064,4.38842637 11.0032769,4.09369995 11.8507251,4.09369995 C13.6872734,4.09369995 14.9042484,5.41996882 14.9042484,7.47056532 Z M13.0566143,7.47056532 C13.0566143,6.45276012 12.4087106,5.76964423 11.4836618,5.76964423 C10.558613,5.76964423 9.86636609,6.47898577 9.86636609,7.47056532 C9.86636609,8.46214487 10.5413684,9.17273525 11.4799665,9.17273525 C12.4185647,9.17273525 13.0566143,8.47588212 13.0566143,7.47056532 Z" id="Shape"></path>
                <path d="M22.632286,7.47056532 C22.632286,9.52116182 21.415311,10.8486795 19.5787627,10.8486795 C18.7325462,10.8486795 18.0587757,10.5539531 17.607953,10.0169516 L17.5808543,10.0169516 C17.5269957,10.4645736 17.1392305,10.7926489 16.6952217,10.766256 C16.1273822,10.766256 15.7837222,10.3916038 15.7837222,9.78841374 L15.7837222,2.20420391 C15.7837222,1.60101383 16.1273822,1.22636161 16.6952217,1.22636161 C17.2630613,1.22636161 17.5944036,1.60101383 17.5944036,2.20420391 L17.5944036,4.91169064 L17.6202705,4.91169064 C18.0575439,4.38842637 18.728851,4.09369995 19.5775309,4.09369995 C21.415311,4.09369995 22.632286,5.41996882 22.632286,7.47056532 Z M20.7846519,7.47056532 C20.7846519,6.45276012 20.1367482,5.76964423 19.2116994,5.76964423 C18.2866506,5.76964423 17.5993307,6.47898577 17.5993307,7.47056532 C17.5993307,8.46214487 18.2731012,9.17273525 19.2116994,9.17273525 C20.1502975,9.17273525 20.7809566,8.47588212 20.7809566,7.47056532 L20.7846519,7.47056532 Z" id="Shape"></path>
                <path d="M26.959445,4.09369995 C29.0078554,4.09369995 30.408362,5.46118057 30.408362,7.46556996 C30.408362,9.46995935 29.0078554,10.8436842 26.959445,10.8436842 C24.9110347,10.8436842 23.5265409,9.46746167 23.5265409,7.47056532 C23.5265409,5.47366897 24.9233522,4.09369995 26.959445,4.09369995 Z M26.959445,9.17273525 C27.9103607,9.17273525 28.5607279,8.47588212 28.5607279,7.47056532 C28.5607279,6.46524852 27.9128242,5.76964423 26.959445,5.76964423 C26.0060658,5.76964423 25.374175,6.45276012 25.374175,7.47056532 C25.374175,8.48837053 26.0208469,9.17273525 26.959445,9.17273525 Z" id="Shape"></path>
                <path d="M45.2670354,7.0684386 L45.2670354,9.78966258 C45.2670354,10.3928527 44.9233755,10.7675049 44.3543042,10.7675049 C43.7852329,10.7675049 43.456354,10.3928527 43.456354,9.78966258 L43.456354,7.28323921 C43.456354,6.29165966 43.006763,5.76964423 42.1346797,5.76964423 C41.2219485,5.76964423 40.6935251,6.3940646 40.6935251,7.45807691 L40.6935251,9.78966258 C40.6935251,10.3928527 40.3498652,10.7675049 39.7807939,10.7675049 C39.2117226,10.7675049 38.8828437,10.3928527 38.8828437,9.78966258 L38.8828437,5.1527169 C38.8828437,4.54952682 39.2265037,4.17362576 39.7807939,4.17362576 C40.2196764,4.14459396 40.6086626,4.45793821 40.6799758,4.89795339 L40.7070745,4.89795339 C41.1431161,4.37468912 41.7774705,4.09369995 42.6101376,4.09369995 C44.3432184,4.09369995 45.2670354,5.13897965 45.2670354,7.0684386 Z" id="Path"></path>
                <path d="M53,2.20420391 L53,9.78966258 C53,10.3928527 52.6563401,10.7675049 52.0872688,10.7675049 C51.6434652,10.793267 51.25607,10.4655047 51.2016361,10.0182004 L51.1757693,10.0182004 C50.7261783,10.555202 50.0524077,10.8499284 49.2049596,10.8499284 C47.3671795,10.8499284 46.1514363,9.52241066 46.1514363,7.47181416 C46.1514363,5.42121766 47.3671795,4.09994416 49.2049596,4.09994416 C50.051176,4.09994416 50.7249465,4.39467057 51.1609882,4.91793484 L51.1880868,4.91793484 L51.1880868,2.20420391 C51.1880868,1.60101383 51.5317468,1.22636161 52.086037,1.22636161 C52.6403272,1.22636161 53,1.60101383 53,2.20420391 Z M51.1893186,7.47056532 C51.1893186,6.47898577 50.5143163,5.76964423 49.5757181,5.76964423 C48.63712,5.76964423 48.0027656,6.45276012 48.0027656,7.47056532 C48.0027656,8.48837053 48.6543646,9.17273525 49.5757181,9.17273525 C50.4970717,9.17273525 51.1893186,8.46339371 51.1893186,7.47056532 Z" id="Shape"></path>
                <ellipse id="Oval" cx="1.37217626" cy="1.39120859" rx="1.37217626" ry="1.39120859"></ellipse>
            </g>
        </g>
    </g>
</svg>