<svg xmlns="http://www.w3.org/2000/svg" width="75" height="75" viewBox="0 0 75 75">
    <g fill="none" fill-rule="evenodd">
        <g>
            <g>
                <g>
                    <path stroke="#7667F9" stroke-linecap="round" stroke-linejoin="round" stroke-width="1.95" d="M56 36.25L56 56.75 38 67 20 56.75 20 36.25 38 26z" transform="translate(-190 -2987) translate(189 2045) translate(1 942)"/>
                    <g stroke="#7667F9" stroke-width="1.95">
                        <path d="M5.6 25.2h4.9v5.25c0 1.353-1.097 2.45-2.45 2.45-1.353 0-2.45-1.097-2.45-2.45V25.2h0z" transform="translate(-190 -2987) translate(189 2045) translate(1 942) translate(30 8)"/>
                        <path fill="#FFF" d="M15.682 24.149c0 .483-.392.875-.875.875H1.157c-.484 0-.875-.392-.875-.875V8.265l.004-.242C.415 3.928 3.81.648 7.982.648c4.252 0 7.7 3.41 7.7 7.617h0V24.15z" transform="translate(-190 -2987) translate(189 2045) translate(1 942) translate(30 8)"/>
                        <path stroke-linecap="square" d="M1.085 24.125L14.912 15.387M1.085 15.025L14.912 6.287" transform="translate(-190 -2987) translate(189 2045) translate(1 942) translate(30 8)"/>
                    </g>
                    <path stroke="#7667F9" stroke-linecap="round" stroke-linejoin="round" stroke-width="1.95" d="M38.5 47L38.5 66" transform="translate(-190 -2987) translate(189 2045) translate(1 942)"/>
                    <path fill="#2FD3BC" d="M37.733 45.312l18.254-10.03c.297-.163.668-.09.881.174l6.607 8.18c.242.3.196.74-.105.984-.032.025-.067.049-.103.068l-18.254 10.03c-.297.163-.668.09-.881-.174l-6.607-8.18c-.242-.3-.196-.74.105-.984.032-.025.067-.049.103-.068z" transform="translate(-190 -2987) translate(189 2045) translate(1 942)"/>
                    <path fill="#2FD3BC" d="M12.733 45.312l18.254-10.03c.297-.163.668-.09.881.174l6.607 8.18c.242.3.196.74-.105.984-.032.025-.067.049-.103.068l-18.254 10.03c-.297.163-.668.09-.881-.174l-6.607-8.18c-.242-.3-.196-.74.105-.984.032-.025.067-.049.103-.068z" transform="translate(-190 -2987) translate(189 2045) translate(1 942) matrix(-1 0 0 1 51 0)"/>
                    <path d="M0 0H75V75H0z" transform="translate(-190 -2987) translate(189 2045) translate(1 942)"/>
                </g>
            </g>
        </g>
    </g>
</svg>
