<svg xmlns="http://www.w3.org/2000/svg" width="75" height="75" viewBox="0 0 75 75">
    <g fill="none" fill-rule="evenodd">
        <g>
            <g>
                <g>
                    <g transform="translate(-752 -2167) translate(189 2045) translate(560 122) translate(3)">
                        <circle cx="37.75" cy="11.75" r="3.75" fill="#2FD3BC" stroke="#2FD3BC" stroke-width="1.95"/>
                        <circle cx="60.25" cy="19.25" r="3.75" fill="#2FD3BC" stroke="#2FD3BC" stroke-width="1.95"/>
                        <circle cx="63.25" cy="59.75" r="3.75" fill="#2FD3BC" stroke="#2FD3BC" stroke-width="1.95"/>
                        <circle cx="12.25" cy="19.25" r="3.75" fill="#2FD3BC" stroke="#2FD3BC" stroke-width="1.95"/>
                        <circle cx="12.25" cy="59.75" r="3.75" fill="#2FD3BC" stroke="#2FD3BC" stroke-width="1.95"/>
                        <circle cx="37.75" cy="64.75" r="3.75" fill="#2FD3BC" stroke="#2FD3BC" stroke-width="1.95"/>
                        <path stroke="#2FD3BC" stroke-width="1.95" d="M37.75 60.5L37.75 53M37.617 23.515L37.617 16.011"/>
                        <path stroke="#2FD3BC" stroke-linecap="round" stroke-width="1.95" d="M14.5 56.5L18.438 52.563"/>
                        <path stroke="#2FD3BC" stroke-linecap="round" stroke-width="1.95" d="M54.5 57.5L58.9 52.6" transform="matrix(-1 0 0 1 114 0)"/>
                        <path stroke="#2FD3BC" stroke-linecap="round" stroke-width="1.95" d="M50.536 28.964L57.5 22"/>
                        <path stroke="#2FD3BC" stroke-linecap="round" stroke-width="1.95" d="M14.5 29.5L23.5 22.5" transform="matrix(-1 0 0 1 38 0)"/>
                        <path stroke="#7667F9" stroke-linejoin="round" stroke-width="1.95" d="M23.492 52.996C19.332 52.861 16 49.231 16 44.774c0-4.256 3.04-7.757 6.935-8.182-.11-.643-.168-1.304-.168-1.98C22.767 28.2 27.96 23 34.367 23c4.009 0 7.543 2.036 9.627 5.132.623-.19 1.286-.293 1.973-.293 3.737 0 6.766 3.033 6.766 6.774 0 .684-.101 1.345-.29 1.968 3.954.363 7.057 3.893 7.057 8.193 0 4.543-3.462 8.226-7.733 8.226h0-28.034z"/>
                        <path d="M0 0H75V75H0z"/>
                    </g>
                </g>
            </g>
        </g>
    </g>
</svg>
