<svg viewbox="0 0 24 24" width="24px" height="24px" xmlns="http://www.w3.org/2000/svg">
    <g fill="none" fill-rule="evenodd">
        <path d="M0 0h24v24H0z"/>
        <path d="M18.23 4.063a1.095 1.095 0 0 1 1.548.007c.43.43.433 1.123.007 1.549l-6.23 6.229 6.23 6.23c.395.395.421 1.021.079 1.453l-.086.096c-.43.43-1.123.432-1.548.007L12 13.403l-6.23 6.23a1.094 1.094 0 0 1-1.452.08l-.096-.086a1.095 1.095 0 0 1-.007-1.55l6.229-6.23-6.23-6.228a1.094 1.094 0 0 1-.078-1.453l.086-.096a1.095 1.095 0 0 1 1.548-.007L12 10.292z" fill="#FFF" fill-rule="nonzero"/>
    </g>
</svg>
