<svg width="19" height="20" xmlns="http://www.w3.org/2000/svg">
    <g fill="none" fill-rule="evenodd">
        <path d="M-3-3h25v25H-3z"/>
        <path fill="#6D64F5" fill-rule="nonzero" d="M10.25 16.755h3.992v1.5H4.777v-1.5H8.75V12.75h1.5z"/>
        <path d="M15.5 15a2.5 2.5 0 1 1 0 5 2.5 2.5 0 0 1 0-5zm-12 0a2.5 2.5 0 1 1 0 5 2.5 2.5 0 0 1 0-5zM10 0a5.004 5.004 0 0 1 4.916 4.092A5.009 5.009 0 0 1 19 9.018c0 2.56-1.925 4.7-4.5 4.982h-10C1.925 13.718 0 11.577 0 9.018a5.005 5.005 0 0 1 5.1-5.009A5.004 5.004 0 0 1 10 0z" fill="#183B56" fill-rule="nonzero"/>
    </g>
</svg>
