<svg xmlns="http://www.w3.org/2000/svg" width="75" height="75" viewBox="0 0 75 75">
    <g fill="none" fill-rule="evenodd">
        <g>
            <g>
                <g>
                    <path stroke="#7667F9" stroke-linecap="round" stroke-linejoin="round" stroke-width="1.95" d="M23.827 15.637c4.97 0 9 4.03 9 9 0 4.971-4.03 9-9 9s-9-4.029-9-9c0-4.97 4.03-9 9-9z" transform="translate(-402 -894) translate(162 729) translate(240 165)"/>
                    <path fill="#2FD3BC" stroke="#2FD3BC" stroke-linecap="round" stroke-linejoin="round" stroke-width="1.95" d="M49.827 15.637c4.97 0 9 4.03 9 9 0 4.971-4.03 9-9 9s-9-4.029-9-9c0-4.97 4.03-9 9-9z" transform="translate(-402 -894) translate(162 729) translate(240 165)"/>
                    <path stroke="#7667F9" stroke-linecap="round" stroke-linejoin="round" stroke-width="1.95" d="M49.827 41.637c4.97 0 9 4.03 9 9 0 4.971-4.03 9-9 9s-9-4.029-9-9c0-4.97 4.03-9 9-9z" transform="translate(-402 -894) translate(162 729) translate(240 165)"/>
                    <path fill="#2FD3BC" stroke="#2FD3BC" stroke-linecap="round" stroke-linejoin="round" stroke-width="1.95" d="M23.827 41.637c4.97 0 9 4.03 9 9 0 4.971-4.03 9-9 9s-9-4.029-9-9c0-4.97 4.03-9 9-9z" transform="translate(-402 -894) translate(162 729) translate(240 165)"/>
                    <path d="M0 0H75V75H0z" transform="translate(-402 -894) translate(162 729) translate(240 165)"/>
                </g>
            </g>
        </g>
    </g>
</svg>
