<?xml version="1.0" encoding="utf-8"?>
<!-- Generator: Adobe Illustrator 26.5.0, SVG Export Plug-In . SVG Version: 6.00 Build 0)  -->
<svg version="1.1" id="Layer_1" xmlns="http://www.w3.org/2000/svg" xmlns:xlink="http://www.w3.org/1999/xlink" x="0px" y="0px"
	 viewBox="0 0 269 37" style="enable-background:new 0 0 269 37;" xml:space="preserve">
<style type="text/css">
	.st0{fill:#183D54;}
</style>
<path id="Path" class="st0" d="M140.1,14.7l-0.1,7.2c0,6.9-6.6,8.3-8.9,8.3c-4.8,0-8.8-2.9-8.8-8.3v-7.6c0-1.7,1-2.7,2.5-2.7
	c1.6,0,2.5,1,2.5,2.7v7c0,2.7,1.4,4.2,3.7,4.2c2.5,0,3.9-1.3,3.9-4.2v-6.6c0-1.7,1-2.7,2.5-2.7C139.2,12.1,140.1,13.1,140.1,14.7z"
	/>
<path id="Path_00000057137575608985440050000017241749957942406846_" class="st0" d="M226.2,14.3l-0.1,7.6c0,6.9-6.6,8.3-8.9,8.3
	c-4.8,0-8.8-2.9-8.8-8.3v-7.6c0-1.7,1-2.7,2.5-2.7c1.6,0,2.5,1,2.5,2.7v7c0,2.7,1.4,4.2,3.7,4.2c2.5,0,3.9-1.3,3.9-4.2v-7
	c0-1.7,1-2.7,2.5-2.7C225.3,11.6,226.2,12.7,226.2,14.3z"/>
<path id="Shape" class="st0" d="M162.7,20.8c0,5.7-3.4,9.4-8.5,9.4c-2.3,0-4.2-0.8-5.5-2.2h-0.1v6.2c0,1.7-1,2.7-2.5,2.7
	s-2.5-1-2.5-2.7V14.3c0-1.7,1-2.7,2.5-2.7c1.4,0,2.3,0.7,2.5,2.1h0.1c1.3-1.5,3.1-2.3,5.5-2.3C159.3,11.4,162.7,15.1,162.7,20.8z
	 M157.5,20.8c0-2.8-1.8-4.7-4.4-4.7c-2.6,0-4.5,2-4.5,4.7s1.9,4.7,4.5,4.7S157.5,23.7,157.5,20.8z"/>
<path id="Shape_00000098195974125933981650000005425554272647636364_" class="st0" d="M184.3,20.8c0,5.7-3.4,9.4-8.5,9.4
	c-2.4,0-4.2-0.8-5.5-2.3h-0.1c-0.2,1.2-1.2,2.2-2.5,2.1c-1.6,0-2.5-1-2.5-2.7V6.2c0-1.7,1-2.7,2.5-2.7c1.6,0,2.5,1,2.5,2.7v7.6h0.1
	c1.2-1.5,3.1-2.3,5.5-2.3C180.9,11.4,184.3,15.1,184.3,20.8z M179.1,20.8c0-2.8-1.8-4.7-4.4-4.7c-2.6,0-4.5,2-4.5,4.7
	s1.9,4.7,4.5,4.7C177.3,25.6,179.1,23.7,179.1,20.8L179.1,20.8z"/>
<path id="Shape_00000057125966178216817150000008203473430454087853_" class="st0" d="M196.3,11.4c5.7,0,9.6,3.8,9.6,9.4
	s-3.9,9.4-9.6,9.4s-9.6-3.8-9.6-9.4S190.7,11.4,196.3,11.4z M196.3,25.6c2.7,0,4.5-1.9,4.5-4.7s-1.8-4.7-4.5-4.7s-4.4,1.9-4.4,4.7
	S193.7,25.6,196.3,25.6z"/>
<path id="Path_00000133518285088233510970000005450425020053200784_" class="st0" d="M247.4,19.7v7.6c0,1.7-1,2.7-2.5,2.7
	c-1.6,0-2.5-1-2.5-2.7v-7c0-2.8-1.3-4.2-3.7-4.2c-2.5,0-4,1.7-4,4.7v6.5c0,1.7-1,2.7-2.5,2.7s-2.5-1-2.5-2.7V14.4
	c0-1.7,1-2.7,2.5-2.7c1.2-0.1,2.3,0.8,2.5,2h0.1c1.2-1.5,3-2.2,5.3-2.2C244.8,11.4,247.4,14.3,247.4,19.7z"/>
<path id="Shape_00000002380522941815242390000000573314968040764846_" class="st0" d="M269,6.2v21.2c0,1.7-1,2.7-2.5,2.7
	c-1.2,0.1-2.3-0.8-2.5-2.1h-0.1c-1.3,1.5-3.1,2.3-5.5,2.3c-5.1,0-8.5-3.7-8.5-9.4s3.4-9.4,8.5-9.4c2.4,0,4.2,0.8,5.5,2.3h0.1V6.2
	c0-1.7,1-2.7,2.5-2.7S269,4.5,269,6.2z M263.9,20.8c0-2.8-1.9-4.7-4.5-4.7c-2.6,0-4.4,1.9-4.4,4.7s1.8,4.7,4.4,4.7
	C262,25.6,263.9,23.6,263.9,20.8z"/>
<ellipse id="Oval" class="st0" cx="124.9" cy="3.9" rx="3.8" ry="3.9"/>
<path class="st0" d="M10.9,17.6c-0.3-0.4-0.7-0.7-1.2-0.9c-0.5-0.2-1-0.3-1.6-0.3c-0.6,0-1.2,0.1-1.7,0.3c-0.5,0.2-1,0.6-1.3,1
	c-0.4,0.4-0.7,0.9-0.9,1.5S4,20.4,4,21c0,0.7,0.1,1.3,0.3,1.9s0.5,1.1,0.9,1.5c0.4,0.4,0.8,0.7,1.3,1c0.5,0.2,1,0.3,1.6,0.3
	c0.7,0,1.2-0.1,1.7-0.4s0.9-0.7,1.2-1.1l2.7,2c-0.6,0.9-1.4,1.5-2.3,1.9c-0.9,0.4-1.9,0.6-2.9,0.6c-1.1,0-2.2-0.2-3.1-0.5
	s-1.8-0.9-2.5-1.5c-0.7-0.7-1.2-1.5-1.6-2.4c-0.4-0.9-0.6-2-0.6-3.1c0-1.2,0.2-2.2,0.6-3.1c0.4-0.9,0.9-1.7,1.6-2.4
	c0.7-0.7,1.5-1.2,2.5-1.5c1-0.4,2-0.5,3.1-0.5c0.4,0,0.8,0,1.3,0.1c0.4,0.1,0.9,0.2,1.3,0.4c0.4,0.2,0.8,0.4,1.2,0.7
	c0.4,0.3,0.7,0.6,1.1,1L10.9,17.6z"/>
<path class="st0" d="M15.1,18.4h3.1v1.6h0c0.3-0.6,0.7-1.1,1.2-1.4c0.4-0.3,1-0.5,1.7-0.5c0.2,0,0.4,0,0.5,0c0.2,0,0.3,0,0.5,0.1V21
	c-0.2-0.1-0.4-0.1-0.6-0.2c-0.2,0-0.4-0.1-0.7-0.1c-0.6,0-1,0.1-1.4,0.2s-0.6,0.4-0.8,0.7c-0.2,0.3-0.3,0.6-0.4,1.1
	c-0.1,0.4-0.1,0.9-0.1,1.3v4.1h-3.1V18.4z"/>
<path class="st0" d="M32.4,26.6c-0.5,0.6-1.1,1.1-1.9,1.4c-0.7,0.3-1.5,0.5-2.3,0.5c-0.8,0-1.5-0.1-2.2-0.4
	c-0.7-0.2-1.3-0.6-1.8-1.1c-0.5-0.5-0.9-1-1.2-1.6c-0.3-0.6-0.4-1.4-0.4-2.1c0-0.8,0.1-1.5,0.4-2.1c0.3-0.6,0.7-1.2,1.2-1.6
	c0.5-0.5,1.1-0.8,1.8-1.1s1.4-0.4,2.2-0.4c0.7,0,1.4,0.1,1.9,0.4c0.6,0.2,1.1,0.6,1.5,1.1c0.4,0.5,0.7,1,0.9,1.6
	c0.2,0.6,0.3,1.4,0.3,2.1v1h-7.1c0.1,0.6,0.4,1.1,0.8,1.4c0.4,0.3,0.9,0.5,1.5,0.5c0.5,0,0.9-0.1,1.3-0.3s0.6-0.5,0.9-0.9L32.4,26.6
	z M29.8,22.2c0-0.5-0.2-1-0.5-1.3s-0.8-0.6-1.4-0.6c-0.3,0-0.6,0.1-0.9,0.2c-0.3,0.1-0.5,0.2-0.7,0.4c-0.2,0.2-0.3,0.4-0.4,0.6
	c-0.1,0.2-0.2,0.5-0.2,0.7H29.8z"/>
<path class="st0" d="M40.9,27L40.9,27c-0.4,0.5-0.8,0.9-1.4,1.1c-0.6,0.2-1.2,0.3-1.8,0.3c-0.5,0-0.9-0.1-1.3-0.2
	c-0.4-0.1-0.8-0.3-1.1-0.6c-0.3-0.3-0.6-0.6-0.8-1c-0.2-0.4-0.3-0.8-0.3-1.3c0-0.6,0.1-1.1,0.3-1.4s0.5-0.7,0.9-1
	c0.4-0.3,0.8-0.5,1.2-0.6c0.5-0.1,0.9-0.2,1.4-0.3c0.5-0.1,1-0.1,1.5-0.1c0.5,0,1,0,1.4,0c0-0.5-0.2-1-0.6-1.3
	c-0.4-0.3-0.8-0.5-1.4-0.5c-0.5,0-1,0.1-1.4,0.3c-0.4,0.2-0.8,0.5-1.1,0.9l-1.6-1.7c0.6-0.5,1.2-0.9,2-1.2c0.8-0.3,1.6-0.4,2.4-0.4
	c0.9,0,1.6,0.1,2.2,0.3s1,0.6,1.4,1c0.3,0.4,0.6,1,0.7,1.6s0.2,1.4,0.2,2.2v5h-2.8V27z M40.2,23.9c-0.2,0-0.5,0-0.9,0
	c-0.3,0-0.7,0.1-1,0.2c-0.3,0.1-0.6,0.2-0.8,0.4c-0.2,0.2-0.3,0.5-0.3,0.8c0,0.4,0.2,0.6,0.5,0.8c0.3,0.2,0.6,0.3,1,0.3
	c0.3,0,0.6,0,0.9-0.1c0.3-0.1,0.5-0.2,0.7-0.3c0.2-0.1,0.4-0.3,0.5-0.6c0.1-0.2,0.2-0.5,0.2-0.8v-0.7H40.2z"/>
<path class="st0" d="M52.4,20.8h-2.7v3.3c0,0.3,0,0.5,0,0.7s0.1,0.4,0.2,0.6c0.1,0.2,0.2,0.3,0.4,0.4c0.2,0.1,0.5,0.1,0.8,0.1
	c0.2,0,0.4,0,0.6-0.1c0.3,0,0.5-0.1,0.6-0.2v2.6c-0.3,0.1-0.7,0.2-1.1,0.2c-0.4,0-0.7,0.1-1.1,0.1c-0.5,0-1-0.1-1.4-0.2
	c-0.4-0.1-0.8-0.3-1.1-0.5c-0.3-0.2-0.6-0.5-0.8-0.9c-0.2-0.4-0.3-0.8-0.3-1.4v-4.7h-2v-2.4h2v-2.9h3.1v2.9h2.7V20.8z"/>
<path class="st0" d="M63.4,26.6c-0.5,0.6-1.1,1.1-1.9,1.4c-0.7,0.3-1.5,0.5-2.3,0.5c-0.8,0-1.5-0.1-2.2-0.4
	c-0.7-0.2-1.3-0.6-1.8-1.1c-0.5-0.5-0.9-1-1.2-1.6c-0.3-0.6-0.4-1.4-0.4-2.1c0-0.8,0.1-1.5,0.4-2.1c0.3-0.6,0.7-1.2,1.2-1.6
	c0.5-0.5,1.1-0.8,1.8-1.1s1.4-0.4,2.2-0.4c0.7,0,1.4,0.1,1.9,0.4c0.6,0.2,1.1,0.6,1.5,1.1c0.4,0.5,0.7,1,0.9,1.6
	c0.2,0.6,0.3,1.4,0.3,2.1v1h-7.1c0.1,0.6,0.4,1.1,0.8,1.4c0.4,0.3,0.9,0.5,1.5,0.5c0.5,0,0.9-0.1,1.3-0.3s0.6-0.5,0.9-0.9L63.4,26.6
	z M60.8,22.2c0-0.5-0.2-1-0.5-1.3s-0.8-0.6-1.4-0.6c-0.3,0-0.6,0.1-0.9,0.2c-0.3,0.1-0.5,0.2-0.7,0.4c-0.2,0.2-0.3,0.4-0.4,0.6
	c-0.1,0.2-0.2,0.5-0.2,0.7H60.8z"/>
<path class="st0" d="M76.1,28.3h-2.8V27h0c-0.1,0.2-0.3,0.4-0.5,0.5s-0.4,0.4-0.7,0.5c-0.3,0.2-0.6,0.3-0.9,0.4
	c-0.3,0.1-0.6,0.1-1,0.1c-0.7,0-1.4-0.1-2-0.4c-0.6-0.3-1.1-0.6-1.5-1.1s-0.8-1-1-1.6s-0.3-1.3-0.3-2.1c0-0.7,0.1-1.4,0.3-2
	s0.5-1.2,0.9-1.7c0.4-0.5,0.9-0.9,1.4-1.2c0.6-0.3,1.2-0.4,1.9-0.4c0.6,0,1.2,0.1,1.8,0.3c0.6,0.2,1,0.5,1.4,1h0v-6.6h3.1V28.3z
	 M73.3,23.3c0-0.7-0.2-1.4-0.6-1.8s-1-0.7-1.8-0.7c-0.8,0-1.4,0.2-1.8,0.7s-0.6,1.1-0.6,1.8c0,0.7,0.2,1.4,0.6,1.8s1,0.7,1.8,0.7
	c0.8,0,1.4-0.2,1.8-0.7S73.3,24.1,73.3,23.3z"/>
<path class="st0" d="M84.9,12.8H88v6.6h0c0.4-0.5,0.8-0.8,1.4-1s1.1-0.3,1.8-0.3c0.7,0,1.3,0.1,1.9,0.4c0.6,0.3,1,0.7,1.4,1.2
	c0.4,0.5,0.7,1.1,0.9,1.7s0.3,1.3,0.3,2c0,0.7-0.1,1.4-0.3,2.1c-0.2,0.6-0.6,1.2-1,1.6s-0.9,0.8-1.5,1.1c-0.6,0.3-1.3,0.4-2,0.4
	c-0.4,0-0.7,0-1-0.1c-0.3-0.1-0.6-0.2-0.9-0.4c-0.3-0.1-0.5-0.3-0.7-0.5c-0.2-0.2-0.4-0.4-0.5-0.5h0v1.3h-2.8V12.8z M87.7,23.3
	c0,0.7,0.2,1.4,0.6,1.8c0.4,0.5,1,0.7,1.8,0.7c0.8,0,1.4-0.2,1.8-0.7s0.6-1.1,0.6-1.8c0-0.7-0.2-1.4-0.6-1.8s-1-0.7-1.8-0.7
	c-0.8,0-1.4,0.2-1.8,0.7C87.9,22,87.7,22.6,87.7,23.3z"/>
<path class="st0" d="M103.2,29.9c-0.2,0.5-0.4,1-0.6,1.4s-0.4,0.8-0.7,1c-0.3,0.3-0.7,0.5-1.1,0.6c-0.4,0.1-1,0.2-1.8,0.2
	c-0.8,0-1.6-0.1-2.3-0.4l0.4-2.5c0.5,0.2,0.9,0.3,1.4,0.3c0.3,0,0.6,0,0.8-0.1c0.2-0.1,0.4-0.2,0.5-0.3c0.1-0.1,0.3-0.3,0.4-0.5
	s0.2-0.4,0.3-0.7l0.2-0.6l-4.3-10h3.3l2.6,6.6h0l2.2-6.6h3.1L103.2,29.9z"/>
</svg>
