<svg xmlns="http://www.w3.org/2000/svg" width="48" height="48" viewBox="0 0 48 48">
    <defs>
        <filter id="lx4pnmt4ga">
            <feColorMatrix in="SourceGraphic" values="0 0 0 0 0.533333 0 0 0 0 0.968627 0 0 0 0 0.717647 0 0 0 1.000000 0"/>
        </filter>
    </defs>
    <g fill="none" fill-rule="evenodd">
        <g>
            <g filter="url(#lx4pnmt4ga)" transform="translate(-1149 -3019) translate(-35 2743)">
                <g fill="#0E5F81">
                    <path d="M24 3C12.42 3 3 12.42 3 24s9.42 21 21 21 21-9.42 21-21S35.58 3 24 3m0 45C10.766 48 0 37.234 0 24S10.766 0 24 0s24 10.766 24 24-10.766 24-24 24" transform="translate(1184 276)"/>
                    <path d="M25.79 35.25V24.986h3.537l.53-4h-4.068v-2.553c0-1.157.33-1.947 2.036-1.947L30 16.485v-3.577c-.377-.05-1.667-.158-3.17-.158-3.136 0-5.283 1.864-5.283 5.287v2.95H18v4h3.547V35.25h4.242z" transform="translate(1184 276)"/>
                </g>
            </g>
        </g>
    </g>
</svg>
