<svg xmlns="http://www.w3.org/2000/svg" width="25" height="25" viewBox="0 0 25 25">
    <path fill="#88F7B7" d="M.439 12.836c0 5.437 3.44 10.045 8.214 11.678.044 .008.087 .013.128 .017h.147c.394-.034.547-.343.547-.612 0-.294-.012-1.068-.018-2.094-3.338.744-4.047-1.65-4.047-1.65-.546-1.422-1.333-1.8-1.333-1.8-1.092-.761.085-.75.085-.75 1.206.09 1.837 1.266 1.837 1.266 1.069 1.878 2.81 1.338 3.494 1.02.108-.797.42-1.338.763-1.643-2.666-.314-5.47-1.369-5.47-6.086 0-1.343.468-2.441 1.237-3.3-.127-.311-.534-1.559.12-3.257 0 0 1.008-.33 3.302 1.26.955-.276 1.988-.408 3.008-.414 1.021.006 2.048.144 3.008.413 2.294-1.589 3.297-1.259 3.297-1.259.654 1.692.246 2.946.12 3.257.768 .859 1.236 1.957 1.236 3.3 0 4.729-2.81 5.767-5.481 6.073.433 .378.816 1.128.816 2.28 0 1.644-.012 2.97-.012 3.372 0 .33.217 .714.83 .594 4.748-1.626 8.189-6.233 8.189-11.665C24.456 6.039 19.076.531 12.447.531 5.819.531 .439 6.039.439 12.836z" />
</svg>
