<svg xmlns="http://www.w3.org/2000/svg" width="75" height="75" viewBox="0 0 75 75">
    <defs>
        <filter id="tofidgm36a">
            <feColorMatrix in="SourceGraphic" values="0 0 0 0 0.462745 0 0 0 0 0.403922 0 0 0 0 0.976471 0 0 0 1.000000 0"/>
        </filter>
        <filter id="kqirwdloxb">
            <feColorMatrix in="SourceGraphic" values="0 0 0 0 1.000000 0 0 0 0 1.000000 0 0 0 0 1.000000 0 0 0 1.000000 0"/>
        </filter>
    </defs>
    <g fill="none" fill-rule="evenodd">
        <g>
            <g>
                <g>
                    <path fill="#2FD3BC" stroke="#2FD3BC" stroke-linejoin="round" stroke-width="1.365" d="M24 40L33.526 45.5 33.526 56.5 24 62 14.474 56.5 14.474 45.5z" transform="translate(-751 -2705) translate(189 2045) translate(562 660)"/>
                    <g filter="url(#tofidgm36a)" transform="translate(-751 -2705) translate(189 2045) translate(562 660)">
                        <g stroke="#7667F9" stroke-width="1.5">
                            <path d="M2.548 11.466h2.23v2.389c0 .615-.5 1.114-1.115 1.114-.616 0-1.115-.499-1.115-1.114v-2.389h0zM7.135 10.988c0 .22-.178.398-.398.398H.527c-.22 0-.399-.178-.399-.398V3.76l.005-.19C.233 1.744 1.761.294 3.632.294c1.935 0 3.503 1.551 3.503 3.466h0v7.227z" transform="translate(48 50)"/>
                            <path stroke-linecap="square" d="M.494 10.977L6.785 7.001M.494 6.836L6.785 2.861" transform="translate(48 50)"/>
                        </g>
                    </g>
                    <g filter="url(#kqirwdloxb)" transform="translate(-751 -2705) translate(189 2045) translate(562 660)">
                        <g stroke="#7667F9" stroke-width="1.45">
                            <path d="M2.548 11.466h2.23v2.389c0 .615-.5 1.114-1.115 1.114-.616 0-1.115-.499-1.115-1.114v-2.389h0zM7.135 10.988c0 .22-.178.398-.398.398H.527c-.22 0-.399-.178-.399-.398V3.76l.005-.19C.233 1.744 1.761.294 3.632.294c1.935 0 3.503 1.551 3.503 3.466h0v7.227z" transform="translate(20.5 43)"/>
                            <path stroke-linecap="square" d="M.494 10.977L6.785 7.001M.494 6.836L6.785 2.861" transform="translate(20.5 43)"/>
                        </g>
                    </g>
                    <path stroke="#7667F9" stroke-linecap="round" stroke-linejoin="round" stroke-width="1.95" d="M26.78 35C21.378 35 17 30.832 17 25.69s4.378-9.31 9.78-9.31c.825-3.66 3.766-6.646 7.716-7.835 3.95-1.19 8.309-.4 11.433 2.069 3.125 2.47 4.542 6.244 3.717 9.903h2.078c4.019 0 7.276 3.242 7.276 7.242C59 31.758 55.743 35 51.724 35h-2.078" transform="translate(-751 -2705) translate(189 2045) translate(562 660)"/>
                    <path stroke="#2FD3BC" stroke-linecap="round" stroke-linejoin="round" stroke-width="1.365" d="M34.5 32L38 28 41.5 32M38 28L38 39" transform="translate(-751 -2705) translate(189 2045) translate(562 660)"/>
                    <path stroke="#7667F9" stroke-linejoin="round" stroke-width="1.95" d="M52 44L63.258 50.5 63.258 63.5 52 70 40.742 63.5 40.742 50.5z" transform="translate(-751 -2705) translate(189 2045) translate(562 660)"/>
                    <path d="M0 0H75V75H0z" transform="translate(-751 -2705) translate(189 2045) translate(562 660)"/>
                </g>
            </g>
        </g>
    </g>
</svg>
