<?xml version="1.0" encoding="UTF-8"?>
<svg width="35.5761449px" height="75px" viewBox="0 0 35.5761449 75" version="1.1" xmlns="http://www.w3.org/2000/svg" xmlns:xlink="http://www.w3.org/1999/xlink">
    <title>icecream-icon</title>
    <defs>
        <path d="M0.018999848,16.9573643 C-0.00606255191,17.5347174 -0.00479457945,18.1129128 0.0227998176,18.6901505 C0.0151998784,18.8383493 -9.874357e-16,18.9846481 -9.874357e-16,19.1347469 L-9.874357e-16,48.3242134 C-9.874357e-16,53.9063687 4.55616355,58.4739322 10.125019,58.4739322 L25.3628971,58.4739322 C30.9298525,58.4739322 35.4879161,53.9063687 35.4879161,48.3242134 L35.4879161,19.1347469 C35.4879161,18.9637483 35.4689163,18.8003496 35.4613163,18.6331509 C35.4889761,18.074913 35.4896102,17.5156636 35.4632162,16.9573643 C35.0338197,7.51823985 27.2628819,5.26985947e-16 17.7420581,5.26985947e-16 C8.21933427,5.26985947e-16 0.448396413,7.51823985 0.018999848,16.9554643 L0.018999848,16.9573643 Z" id="path-1"></path>
        <path d="M0.018999848,16.9573643 C-0.00606255191,17.5347174 -0.00479457945,18.1129128 0.0227998176,18.6901505 C0.0151998784,18.8383493 -9.874357e-16,18.9846481 -9.874357e-16,19.1347469 L-9.874357e-16,48.3242134 C-9.874357e-16,53.9063687 4.55616355,58.4739322 10.125019,58.4739322 L25.3628971,58.4739322 C30.9298525,58.4739322 35.4879161,53.9063687 35.4879161,48.3242134 L35.4879161,19.1347469 C35.4879161,18.9637483 35.4689163,18.8003496 35.4613163,18.6331509 C35.4889761,18.074913 35.4896102,17.5156636 35.4632162,16.9573643 C35.0338197,7.51823985 27.2628819,5.26985947e-16 17.7420581,5.26985947e-16 C8.21933427,5.26985947e-16 0.448396413,7.51823985 0.018999848,16.9554643 L0.018999848,16.9573643 Z" id="path-3"></path>
        <path d="M0.018999848,16.9573643 C-0.00606255191,17.5347174 -0.00479457945,18.1129128 0.0227998176,18.6901505 C0.0151998784,18.8383493 -9.874357e-16,18.9846481 -9.874357e-16,19.1347469 L-9.874357e-16,48.3242134 C-9.874357e-16,53.9063687 4.55616355,58.4739322 10.125019,58.4739322 L25.3628971,58.4739322 C30.9298525,58.4739322 35.4879161,53.9063687 35.4879161,48.3242134 L35.4879161,19.1347469 C35.4879161,18.9637483 35.4689163,18.8003496 35.4613163,18.6331509 C35.4889761,18.074913 35.4896102,17.5156636 35.4632162,16.9573643 C35.0338197,7.51823985 27.2628819,5.26985947e-16 17.7420581,5.26985947e-16 C8.21933427,5.26985947e-16 0.448396413,7.51823985 0.018999848,16.9554643 L0.018999848,16.9573643 Z" id="path-5"></path>
    </defs>
    <g id="Page-1" stroke="none" stroke-width="1" fill="none" fill-rule="evenodd">
        <g id="icecream-icon" transform="translate(-0, 0)">
            <path d="M17.6155534,24.1336069 C15.1574021,24.1378009 13.167488,26.1328171 13.1695817,28.5909712 L13.1695817,70.5426356 C13.1680764,71.7232907 13.6356395,72.85619 14.4694198,73.6921082 C15.3032001,74.5280265 16.4348983,74.9984892 17.6155534,75 C20.0722338,75 22.0634212,73.0050159 22.0634212,70.5426356 L22.0634212,28.5909712 C22.0655189,26.1328171 20.0756048,24.1378009 17.6174534,24.1336069" id="Path" fill="#F7D186" fill-rule="nonzero"></path>
            <path d="M35.4621107,18.6350509 C35.4879084,18.0767533 35.4879084,17.517562 35.4621107,16.9592643 C35.0365141,7.52013983 27.2655762,0 17.7428524,0 C8.22012864,0 0.449190793,7.52013983 0.0197942289,16.9592643 C-0.00721724953,17.5365592 -0.00658319588,18.1148162 0.0216942137,18.6920505 C0.0159942593,18.8402492 0.000794380875,18.9865481 0.000794380875,19.1366469 L0.000794380875,48.3261134 C0.000794380875,53.9082687 4.55695793,58.4758322 10.1258134,58.4758322 L25.3636915,58.4758322 C30.9306469,58.4758322 35.4868105,53.9082687 35.4868105,48.3261134 L35.4868105,19.1366469 C35.4868105,18.9656482 35.4697106,18.8022496 35.4621107,18.6350509" id="Path" fill="#FF9234" fill-rule="nonzero"></path>
            <g id="Path-Clipped" transform="translate(0.0882, 0.0019)">
                <mask id="mask-2" fill="white">
                    <use xlink:href="#path-1"></use>
                </mask>
                <g id="path-1"></g>
                <polygon id="Path" fill="#FFCD3C" fill-rule="nonzero" mask="url(#mask-2)" points="46.120231 17.5140599 2.11088311 61.627907 -10.9230126 48.5617115 33.0844353 4.44786442"></polygon>
            </g>
            <g id="Path-Clipped" transform="translate(0.0882, 0.0019)">
                <mask id="mask-4" fill="white">
                    <use xlink:href="#path-3"></use>
                </mask>
                <g id="path-3"></g>
                <polygon id="Path" fill="#F3807B" fill-rule="nonzero" mask="url(#mask-4)" points="33.0445356 4.40606475 -10.9629123 48.5199118 -27.1811826 32.2617419 16.8224654 -11.8521052"></polygon>
            </g>
            <g id="Path-Clipped" transform="translate(0.0882, 0.0019)">
                <mask id="mask-6" fill="white">
                    <use xlink:href="#path-5"></use>
                </mask>
                <g id="path-5"></g>
                <polygon id="Path" fill="#35D0BA" fill-rule="nonzero" mask="url(#mask-6)" points="59.1959264 30.622055 15.1884785 74.7340021 2.15458276 61.6678066 46.1620306 17.5558596"></polygon>
            </g>
            <polyline id="Path" fill="#D8AE64" fill-rule="nonzero" points="14.3760794 58.5252318 22.0900177 66.2581699 22.0900177 58.4606323 14.3760794 58.5252318"></polyline>
        </g>
    </g>
</svg>