<svg width="64" height="64" viewBox="0 0 64 64" xmlns="http://www.w3.org/2000/svg" xmlns:xlink="http://www.w3.org/1999/xlink">
    <defs>
        <filter x="-3%" y="-3.8%" width="106%" height="115.4%" filterUnits="objectBoundingBox" id="a">
            <feOffset dy="2" in="SourceAlpha" result="shadowOffsetOuter1"/>
            <feColorMatrix values="0 0 0 0 0 0 0 0 0 0 0 0 0 0 0 0 0 0 0.1 0" in="shadowOffsetOuter1"/>
        </filter>
        <filter x="-3%" y="-3.8%" width="106%" height="115.4%" filterUnits="objectBoundingBox" id="c">
            <feOffset dy="2" in="SourceAlpha" result="shadowOffsetInner1"/>
            <feComposite in="shadowOffsetInner1" in2="SourceAlpha" operator="arithmetic" k2="-1" k3="1" result="shadowInnerInner1"/>
            <feColorMatrix values="0 0 0 0 1 0 0 0 0 1 0 0 0 0 1 0 0 0 0.19263549 0" in="shadowInnerInner1"/>
        </filter>
        <filter x="-6.7%" y="-31.2%" width="113.3%" height="225%" filterUnits="objectBoundingBox" id="d">
            <feOffset dy="1" in="SourceAlpha" result="shadowOffsetOuter1"/>
            <feColorMatrix values="0 0 0 0 1 0 0 0 0 1 0 0 0 0 1 0 0 0 0.396498033 0" in="shadowOffsetOuter1"/>
        </filter>
        <filter x="-6.7%" y="-31.2%" width="113.3%" height="225%" filterUnits="objectBoundingBox" id="f">
            <feOffset dy="1" in="SourceAlpha" result="shadowOffsetOuter1"/>
            <feColorMatrix values="0 0 0 0 1 0 0 0 0 1 0 0 0 0 1 0 0 0 0.396498033 0" in="shadowOffsetOuter1"/>
        </filter>
        <filter x="-6.7%" y="-31.2%" width="113.3%" height="225%" filterUnits="objectBoundingBox" id="h">
            <feOffset dy="1" in="SourceAlpha" result="shadowOffsetOuter1"/>
            <feColorMatrix values="0 0 0 0 1 0 0 0 0 1 0 0 0 0 1 0 0 0 0.396498033 0" in="shadowOffsetOuter1"/>
        </filter>
        <path d="M32.4 30.4v4a1.2 1.2 0 1 1-2.4 0v-4H10v4a1.2 1.2 0 1 1-2.4 0v-4h-.4a4 4 0 0 1-4-4V13.6a4 4 0 0 1 4-4h8.836a8.8 8.8 0 1 0 17.535.074c1.84.36 3.229 1.98 3.229 3.926v12.8a4 4 0 0 1-4 4h-.4z" id="b"/>
        <path d="M14.703 19.2H8.8a.8.8 0 1 0 0 1.6h5.903a.8.8 0 1 0 0-1.6z" id="e"/>
        <path d="M14.703 24H8.8a.8.8 0 1 0 0 1.6h5.903a.8.8 0 1 0 0-1.6z" id="g"/>
        <path d="M14.703 14.4H8.8a.8.8 0 1 0 0 1.6h5.903a.8.8 0 1 0 0-1.6z" id="i"/>
    </defs>
    <g fill="none" fill-rule="evenodd">
        <rect fill="#3DE2CB" opacity=".2" width="64" height="64" rx="16"/>
        <path d="M12 13h40v40H12z"/>
        <g fill-rule="nonzero" transform="translate(12 13)">
            <use fill="#000" filter="url(#a)" xlink:href="#b"/>
            <use fill="#637CFF" xlink:href="#b"/>
            <use fill="#000" filter="url(#c)" xlink:href="#b"/>
        </g>
        <g fill-rule="nonzero" transform="translate(12 13)">
            <use fill="#000" filter="url(#d)" xlink:href="#e"/>
            <use fill="#D8F9F5" xlink:href="#e"/>
        </g>
        <g fill-rule="nonzero" transform="translate(12 13)">
            <use fill="#000" filter="url(#f)" xlink:href="#g"/>
            <use fill="#D8F9F5" xlink:href="#g"/>
        </g>
        <g fill-rule="nonzero" transform="translate(12 13)">
            <use fill="#000" filter="url(#h)" xlink:href="#i"/>
            <use fill="#D8F9F5" xlink:href="#i"/>
        </g>
        <path d="M36.8 16.2a7.2 7.2 0 1 1 0 14.4 7.2 7.2 0 0 1 0-14.4zm0 3.2a4 4 0 1 0 0 8 4 4 0 0 0 0-8zm0 1.6a2.4 2.4 0 1 1 0 4.8 2.4 2.4 0 0 1 0-4.8z" fill="#44D5E9" fill-rule="nonzero"/>
    </g>
</svg>
