<svg width="64" height="64" viewBox="0 0 64 64" xmlns="http://www.w3.org/2000/svg" xmlns:xlink="http://www.w3.org/1999/xlink">
    <defs>
        <filter x="-6.7%" y="-6.7%" width="113.3%" height="126.7%" filterUnits="objectBoundingBox" id="a">
            <feOffset dy="2" in="SourceAlpha" result="shadowOffsetOuter1"/>
            <feColorMatrix values="0 0 0 0 0 0 0 0 0 0 0 0 0 0 0 0 0 0 0.1 0" in="shadowOffsetOuter1"/>
        </filter>
        <filter x="-6.7%" y="-6.7%" width="113.3%" height="126.7%" filterUnits="objectBoundingBox" id="c">
            <feOffset dy="2" in="SourceAlpha" result="shadowOffsetInner1"/>
            <feComposite in="shadowOffsetInner1" in2="SourceAlpha" operator="arithmetic" k2="-1" k3="1" result="shadowInnerInner1"/>
            <feColorMatrix values="0 0 0 0 1 0 0 0 0 1 0 0 0 0 1 0 0 0 0.19263549 0" in="shadowInnerInner1"/>
        </filter>
        <filter x="-6.7%" y="-6.7%" width="113.3%" height="126.7%" filterUnits="objectBoundingBox" id="d">
            <feOffset dy="2" in="SourceAlpha" result="shadowOffsetOuter1"/>
            <feColorMatrix values="0 0 0 0 0 0 0 0 0 0 0 0 0 0 0 0 0 0 0.1 0" in="shadowOffsetOuter1"/>
        </filter>
        <filter x="-6.7%" y="-6.7%" width="113.3%" height="126.7%" filterUnits="objectBoundingBox" id="f">
            <feOffset dy="2" in="SourceAlpha" result="shadowOffsetInner1"/>
            <feComposite in="shadowOffsetInner1" in2="SourceAlpha" operator="arithmetic" k2="-1" k3="1" result="shadowInnerInner1"/>
            <feColorMatrix values="0 0 0 0 1 0 0 0 0 1 0 0 0 0 1 0 0 0 0.19263549 0" in="shadowInnerInner1"/>
        </filter>
        <path d="M33 11.785a3.214 3.214 0 0 0-6.43 0V15h3.215A3.215 3.215 0 0 0 33 11.785zm-8.572 0V3.214a3.215 3.215 0 0 0-6.428 0v8.571a3.214 3.214 0 1 0 6.428 0z" id="b"/>
        <path d="M0 21.214a3.214 3.214 0 0 0 6.43 0V18H3.215A3.214 3.214 0 0 0 0 21.214zm8.572 0v8.571a3.214 3.214 0 0 0 6.428.001v-8.57a3.214 3.214 0 0 0-6.428-.002" id="e"/>
    </defs>
    <g fill="none" fill-rule="evenodd">
        <rect fill="#3DE2CB" opacity=".2" width="64" height="64" rx="16"/>
        <g fill-rule="nonzero">
            <path d="M27.784 17a3.213 3.213 0 1 0 .001 6.427H31v-3.212A3.216 3.216 0 0 0 27.784 17c.001 0 .001 0 0 0m0 8.571h-8.57a3.214 3.214 0 0 0 0 6.429h8.57a3.214 3.214 0 1 0 0-6.429z" fill="#44D5E9"/>
            <g transform="translate(16 17)">
                <use fill="#000" filter="url(#a)" xlink:href="#b"/>
                <use fill="#637CFF" xlink:href="#b"/>
                <use fill="#000" filter="url(#c)" xlink:href="#b"/>
            </g>
            <path d="M37.215 50a3.214 3.214 0 1 0 0-6.427H34v3.214A3.216 3.216 0 0 0 37.215 50zm0-8.572h8.57A3.214 3.214 0 0 0 45.787 35h-8.571a3.214 3.214 0 0 0-.001 6.428z" fill="#44D5E9"/>
            <g transform="translate(16 17)">
                <use fill="#000" filter="url(#d)" xlink:href="#e"/>
                <use fill="#637CFF" xlink:href="#e"/>
                <use fill="#000" filter="url(#f)" xlink:href="#e"/>
            </g>
        </g>
    </g>
</svg>
