<svg xmlns="http://www.w3.org/2000/svg" width="25" height="24" viewBox="0 0 25 24">
    <g fill="none" fill-rule="evenodd">
        <g fill="#88F7B7">
            <g>
                <path d="M1268.004 192.25h-2.332v-3.655c0-.871-.015-1.992-1.212-1.992-1.214 0-1.399.95-1.399 1.93v3.717h-2.33v-7.515h2.235v1.028h.033c.311-.591 1.072-1.214 2.207-1.214 2.362 0 2.798 1.556 2.798 3.58v4.121zm-9.904-8.541c-.749 0-1.353-.607-1.353-1.355 0-.747.604-1.354 1.353-1.354.746 0 1.353.607 1.353 1.355 0 .747-.607 1.354-1.353 1.354zm-1.168 8.541h2.335v-7.515h-2.335v7.515zm5.443-17.25c-6.621 0-12.008 5.383-12.008 12s5.387 12 12.008 12c6.622 0 12.009-5.383 12.009-12s-5.387-12-12.009-12z" transform="translate(-1250 -2690) translate(0 2515)"/>
            </g>
        </g>
    </g>
</svg>
