<?xml version="1.0" encoding="utf-8"?>
<!-- Generator: Adobe Illustrator 22.1.0, SVG Export Plug-In . SVG Version: 6.00 Build 0)  -->
<svg version="1.1" id="Layer_1" xmlns="http://www.w3.org/2000/svg" xmlns:xlink="http://www.w3.org/1999/xlink" x="0px" y="0px"
	 viewBox="0 0 536 132.1" style="enable-background:new 0 0 536 132.1;" xml:space="preserve">
<style type="text/css">
	.st0{fill:#6553C0;}
</style>
<g>
	<path class="st0" d="M68.8,52.7l-0.3,25.7c0,24.7-23.8,29.7-32.1,29.7c-17.2,0-31.8-10.5-31.8-29.7V51.2c0-6,3.5-9.6,9.1-9.6
		c5.7,0,9.2,3.6,9.2,9.6v25.1c0,9.7,4.9,15.1,13.5,15.1c9.1,0,14-4.5,14-15.1V52.7c0-6,3.5-9.6,9.2-9.6C65.3,43,68.8,46.7,68.8,52.7
		z"/>
	<path class="st0" d="M380.5,51.2l-0.3,27.2c0,24.7-23.8,29.7-32.1,29.7c-17.2,0-31.8-10.5-31.8-29.7V51.2c0-6,3.5-9.6,9.1-9.6
		c5.7,0,9.2,3.6,9.2,9.6v25.1c0,9.7,4.9,15.1,13.5,15.1c9.1,0,14-4.5,14-15.1V51.2c0-6,3.5-9.6,9.2-9.6
		C377,41.6,380.5,45.2,380.5,51.2z"/>
	<path class="st0" d="M150.5,74.4c0,20.4-12.3,33.6-30.8,33.6c-8.4,0-15.2-2.9-19.8-8h-0.3v22.3c0,6-3.5,9.7-9.2,9.7
		c-5.6,0-9.1-3.7-9.1-9.7V51.2c0-6,3.5-9.6,9.1-9.6c4.9,0,8.3,2.7,9.1,7.3h0.3c4.5-5.2,11.3-8.1,19.9-8.1
		C138.3,40.8,150.5,54,150.5,74.4z M131.8,74.4c0-10.1-6.5-17-15.9-17c-9.5,0-16.3,7.1-16.3,17s6.8,17,16.3,17
		C125.3,91.4,131.8,84.4,131.8,74.4z"/>
	<path class="st0" d="M228.6,74.4c0,20.4-12.3,33.6-30.8,33.6c-8.5,0-15.4-2.9-19.9-8.3h-0.3c-0.8,4.7-4.1,7.5-8.9,7.5
		c-5.7,0-9.2-3.7-9.2-9.7V22c0-6,3.5-9.7,9.2-9.7c5.6,0,9.1,3.7,9.1,9.7v27h0.3c4.4-5.2,11.2-8.1,19.8-8.1
		C216.3,40.8,228.6,54,228.6,74.4z M209.9,74.4c0-10.1-6.5-17-15.9-17c-9.5,0-16.3,7.1-16.3,17s6.8,17,16.3,17
		C203.4,91.4,209.9,84.4,209.9,74.4z"/>
	<path class="st0" d="M272.3,40.8c20.7,0,34.8,13.6,34.8,33.6c0,19.9-14.2,33.6-34.8,33.6c-20.6,0-34.7-13.8-34.7-33.6
		C237.6,54.4,251.7,40.8,272.3,40.8z M272.3,91.4c9.6,0,16.2-6.9,16.2-17c0-10.1-6.5-17-16.2-17c-9.5,0-16,6.8-16,17
		C256.3,84.4,262.8,91.4,272.3,91.4z"/>
	<path class="st0" d="M457.2,70.4v27.1c0,6-3.5,9.7-9.2,9.7c-5.6,0-9.1-3.7-9.1-9.7v-25c0-9.9-4.5-15.1-13.4-15.1
		c-9.2,0-14.6,6.3-14.6,16.8v23.2c0,6-3.5,9.7-9.2,9.7c-5.6,0-9.1-3.7-9.1-9.7V51.3c0-6,3.5-9.7,9.1-9.7c4.8,0,8.1,2.7,9.1,7.2h0.3
		c4.4-5.2,10.8-8,19.2-8C447.9,40.8,457.2,51.2,457.2,70.4z"/>
	<path class="st0" d="M535.3,22v75.6c0,6-3.5,9.7-9.2,9.7c-4.8,0-8.1-2.8-8.9-7.5h-0.3c-4.5,5.3-11.3,8.3-19.9,8.3
		c-18.6,0-30.8-13.2-30.8-33.6s12.3-33.6,30.8-33.6c8.5,0,15.4,2.9,19.8,8.1h0.3V22c0-6,3.5-9.7,9.1-9.7
		C531.9,12.2,535.3,16,535.3,22z M517,74.4c0-9.9-6.8-17-16.3-17c-9.3,0-15.9,6.8-15.9,17c0,10,6.5,17,15.9,17
		C510.2,91.4,517,84.3,517,74.4z"/>
	<circle class="st0" cx="13.9" cy="13.9" r="13.9"/>
</g>
</svg>
