<?xml version="1.0" encoding="UTF-8"?>
<svg width="13px" height="13px" viewBox="0 0 13 13" version="1.1" xmlns="http://www.w3.org/2000/svg" xmlns:xlink="http://www.w3.org/1999/xlink">
    <title>plus</title>
    <g id="FAQ" stroke="none" stroke-width="1" fill="none" fill-rule="evenodd">
        <g transform="translate(-1177.000000, -959.000000)" fill="#fff" fill-rule="nonzero" id="List">
            <g transform="translate(262.000000, 737.000000)">
                <g id="Item" transform="translate(0.000000, 180.000000)">
                    <path d="M921.937484,54.8749979 C922.420645,54.8749979 922.812482,54.4831608 922.812482,54 L922.812482,50.0625094 L926.749973,50.0625094 C927.233134,50.0625094 927.624971,49.6706722 927.624971,49.1875115 L927.624971,48.3125136 C927.624971,47.8293528 927.233134,47.4375156 926.749973,47.4375156 L922.812482,47.4375156 L922.812482,43.500025 C922.812482,43.0168643 922.420645,42.6250271 921.937484,42.6250271 L921.062486,42.6250271 C920.579326,42.6250271 920.187489,43.0168643 920.187489,43.500025 L920.187489,47.4375156 L916.249998,47.4375156 C915.766837,47.4375156 915.375,47.8293528 915.375,48.3125136 L915.375,49.1875115 C915.375,49.6706722 915.766837,50.0625094 916.249998,50.0625094 L920.187489,50.0625094 L920.187489,54 C920.187489,54.4831608 920.579326,54.8749979 921.062486,54.8749979 L921.937484,54.8749979 Z" id="plus"></path>
                </g>
            </g>
        </g>
    </g>
</svg>