<svg xmlns="http://www.w3.org/2000/svg" xmlns:xlink="http://www.w3.org/1999/xlink" width="15" height="30" viewBox="0 0 15 30">
    <defs>
        <radialGradient id="i5oat7p2qe" cx="68.845%" cy="26.042%" r="80.765%" fx="68.845%" fy="26.042%" gradientTransform="matrix(-.63507 .75393 -.72908 -.6572 1.316 -.087)">
            <stop offset="0%" stop-color="#FFF43C"/>
            <stop offset="100%" stop-color="#FFCE3C"/>
        </radialGradient>
        <radialGradient id="jurv3f92xg" cx="68.845%" cy="26.042%" r="80.723%" fx="68.845%" fy="26.042%" gradientTransform="matrix(-.6354 .75432 -.73033 -.65675 1.316 -.088)">
            <stop offset="0%" stop-color="#FF828A"/>
            <stop offset="100%" stop-color="#FF6C70"/>
        </radialGradient>
        <radialGradient id="i30831bt9h" cx="68.845%" cy="26.042%" r="80.716%" fx="68.845%" fy="26.042%" gradientTransform="matrix(-.63545 .75438 -.73054 -.65667 1.316 -.088)">
            <stop offset="0%" stop-color="#88F7B7"/>
            <stop offset="100%" stop-color="#2FDCC3"/>
        </radialGradient>
        <path id="p25852wxia" d="M0 1.736v16.347c-.012.468.192.92.566 1.255.374.334.887.523 1.423.523 1.094-.006 1.977-.782 1.977-1.736V1.736C3.966.781 3.083.006 1.989 0 .891 0 .001.777.001 1.736z"/>
        <path id="0ee6t2dczd" d="M14.55 7.25v-.651C14.342 2.933 11.2.064 7.393.064S.443 2.934.236 6.599v12.214c0 2.166 1.804 3.93 4.05 3.958h6.16c2.258-.012 4.083-1.78 4.083-3.958V7.446c.005-.065.005-.13 0-.196"/>
        <linearGradient id="r2g4mbolbb" x1="50%" x2="50%" y1="64.206%" y2="100%">
            <stop offset="0%" stop-color="#F7D186"/>
            <stop offset="100%" stop-color="#FCEABB"/>
        </linearGradient>
    </defs>
    <g fill="none" fill-rule="evenodd">
        <g>
            <g>
                <g transform="translate(-525 -11) translate(525 11) translate(5 9.5)">
                    <mask id="3auw0mbsec" fill="#fff">
                        <use xlink:href="#p25852wxia"/>
                    </mask>
                    <use fill="url(#r2g4mbolbb)" xlink:href="#p25852wxia"/>
                    <path fill="#D8AE64" d="M0.533 13.402L3.978 16.409 3.978 13.371 0.533 13.371" mask="url(#3auw0mbsec)" opacity=".621"/>
                </g>
                <g transform="translate(-525 -11) translate(525 11) translate(0 .5)">
                    <mask id="hukrvcow3f" fill="#fff">
                        <use xlink:href="#0ee6t2dczd"/>
                    </mask>
                    <use fill="#FF9234" xlink:href="#0ee6t2dczd"/>
                    <path fill="url(#i5oat7p2qe)" d="M18.9 6.816L1.071 24 -4.146 18.916 13.629 1.722z" mask="url(#hukrvcow3f)"/>
                    <path fill="url(#jurv3f92xg)" d="M13.618 1.701L-4.168 18.916 -10.714 12.561 7.061 -4.633z" mask="url(#hukrvcow3f)"/>
                    <path fill="url(#i30831bt9h)" d="M24.182 11.921L6.429 29.105 1.168 24.011 18.911 6.826z" mask="url(#hukrvcow3f)"/>
                </g>
            </g>
        </g>
    </g>
</svg>
