<svg xmlns="http://www.w3.org/2000/svg" width="44" height="44" viewBox="0 0 44 44">
    <defs>
        <filter id="tsu3y3kj6a">
            <feColorMatrix in="SourceGraphic" values="0 0 0 0 1.000000 0 0 0 0 1.000000 0 0 0 0 1.000000 0 0 0 1.000000 0"/>
        </filter>
    </defs>
    <g fill="none" fill-rule="evenodd">
        <g filter="url(#tsu3y3kj6a)" transform="translate(-174 -5)">
            <g>
                <g stroke="#6553C0" stroke-width="2" transform="translate(174 5) translate(8 7)">
                    <ellipse cx="24.672" cy="8.906" stroke-linecap="round" stroke-linejoin="round" rx="2.328" ry="2.344"/>
                    <ellipse cx="24.672" cy="22.031" stroke-linecap="round" stroke-linejoin="round" rx="2.328" ry="2.344"/>
                    <ellipse cx="2.328" cy="8.906" stroke-linecap="round" stroke-linejoin="round" rx="2.328" ry="2.344"/>
                    <ellipse cx="13.5" cy="27.656" stroke-linecap="round" stroke-linejoin="round" rx="2.328" ry="2.344"/>
                    <ellipse cx="2.328" cy="22.031" stroke-linecap="round" stroke-linejoin="round" rx="2.328" ry="2.344"/>
                    <ellipse cx="13.5" cy="2.344" stroke-linecap="round" stroke-linejoin="round" rx="2.328" ry="2.344"/>
                    <ellipse cx="13.966" cy="15" rx="6.517" ry="6.563"/>
                    <path stroke-linecap="square" d="M13.966 4.875L13.966 8.25M22.345 10.313L19.964 11.734"/>
                    <path stroke-linecap="square" d="M7.448 10.313L4.655 12.188" transform="matrix(-1 0 0 1 12.103 0)"/>
                    <path stroke-linecap="square" d="M22.345 18.233L20.483 19.688" transform="matrix(1 0 0 -1 0 37.92)"/>
                    <path stroke-linecap="square" d="M7.448 17.813L4.655 19.688" transform="rotate(180 6.052 18.75)"/>
                    <path stroke-linecap="square" d="M13.966 21.75L13.966 25.125" transform="matrix(1 0 0 -1 0 46.875)"/>
                </g>
                <path d="M0 0L44 0 44 44 0 44z" transform="translate(174 5)"/>
            </g>
        </g>
    </g>
</svg>
