<svg width="40" height="36" viewBox="0 0 40 36" xmlns="http://www.w3.org/2000/svg">
    <path d="M36.25 35.5c2.07 0 3.75-1.68 3.75-3.75v-10c0-2.07-1.68-3.75-3.75-3.75H30v-5c0-2.758 2.242-5 5-5h.625A1.87 1.87 0 0 0 37.5 6.125v-3.75A1.87 1.87 0 0 0 35.625.5H35C28.094.5 22.5 6.094 22.5 13v18.75c0 2.07 1.68 3.75 3.75 3.75h10zm-22.5 0c2.07 0 3.75-1.68 3.75-3.75v-10c0-2.07-1.68-3.75-3.75-3.75H7.5v-5c0-2.758 2.242-5 5-5h.625A1.87 1.87 0 0 0 15 6.125v-3.75A1.87 1.87 0 0 0 13.125.5H12.5C5.594.5 0 6.094 0 13v18.75c0 2.07 1.68 3.75 3.75 3.75h10z" fill="#3DE2CB" fill-rule="nonzero"/>
</svg>
