<svg xmlns="http://www.w3.org/2000/svg" width="40" height="28" viewBox="0 0 40 28">
    <g fill="none" fill-rule="evenodd">
        <g fill="#2FD3BC">
            <path d="M642 1257.216c0-7.11 4.673-14.533 14.018-18.16.746-.29 1.364.628.82 1.21-2.266 2.428-3.444 4.618-4.08 6.96-.166.617.222 1.255.855 1.375 3.13.59 7.387 3.498 7.387 9.19 0 5.18-4.168 9.209-9.306 9.209-5.138 0-9.694-3.55-9.694-9.784m-21 0c0-7.11 4.673-14.533 14.018-18.16.746-.29 1.364.628.82 1.21-2.265 2.428-3.443 4.618-4.079 6.96-.167.617.22 1.255.855 1.375 3.128.59 7.386 3.498 7.386 9.19 0 5.18-4.168 9.209-9.306 9.209-5.138 0-9.694-3.55-9.694-9.784" transform="translate(-621 -1239)"/>
        </g>
    </g>
</svg>
