<svg width="22" height="22" xmlns="http://www.w3.org/2000/svg">
    <g fill="none" fill-rule="evenodd">
        <path d="M0 0h22v22H0z"/>
        <path d="M7.04 1.76v18.48H6.6a3.08 3.08 0 0 1-3.08-3.08V3.08c0-.729.591-1.32 1.32-1.32h2.2zm.88 0h9.24c.729 0 1.32.591 1.32 1.32v14.08a3.08 3.08 0 0 1-3.08 3.08H7.92V1.76zm2.2 2.64a.44.44 0 0 0-.44.44v3.52c0 .243.197.44.44.44h5.28a.44.44 0 0 0 .44-.44V4.84a.44.44 0 0 0-.44-.44h-5.28z" fill="#183B56" fill-rule="nonzero"/>
        <path fill="#6D64F5" d="M10.56 7.92V5.28h4.4v2.64z"/>
    </g>
</svg>
