<svg xmlns="http://www.w3.org/2000/svg" width="75" height="75" viewBox="0 0 75 75">
    <g fill="none" fill-rule="evenodd">
        <g>
            <g>
                <g transform="translate(-190 -2705) translate(189 2045) translate(1 660)">
                    <path d="M0 0H75V75H0z"/>
                    <path stroke="#2FD3BC" stroke-linejoin="round" stroke-width="1.5" d="M17 45c0-2.21 1.79-4 4-4h34c2.21 0 4 1.79 4 4h0"/>
                    <path stroke="#2FD3BC" stroke-width="1.5" d="M38 49L38 36"/>
                    <g stroke="#7667F9" stroke-width="1.5">
                        <path d="M4.787 21.542h4.189v4.488c0 1.157-.938 2.095-2.094 2.095-1.157 0-2.095-.938-2.095-2.095v-4.488h0zM13.406 20.644c0 .413-.335.748-.748.748H.988c-.412 0-.747-.335-.747-.748V7.066l.004-.234C.369 3.344 3.267.554 6.823.554c3.636 0 6.583 2.915 6.583 6.512h0v13.578z" transform="translate(31 7)"/>
                        <path stroke-linecap="square" d="M.928 20.623L12.747 13.154M.928 12.844L12.747 5.375" transform="translate(31 7)"/>
                    </g>
                    <rect width="17.5" height="20.5" x="8.25" y="44.25" stroke="#7667F9" stroke-width="1.5" rx="1.795"/>
                    <rect width="17.5" height="20.5" x="29.25" y="48.25" stroke="#7667F9" stroke-width="1.5" rx="1.795"/>
                    <rect width="17.5" height="20.5" x="50.25" y="44.25" stroke="#7667F9" stroke-width="1.5" rx="1.795"/>
                    <rect width="3" height="2" x="20" y="47" fill="#2FD3BC" rx=".598"/>
                    <rect width="3" height="2" x="41" y="51" fill="#2FD3BC" rx=".598"/>
                    <rect width="3" height="2" x="62" y="47" fill="#2FD3BC" rx=".598"/>
                    <rect width="12" height="3" x="11" y="51" fill="#2FD3BC" rx=".598"/>
                    <rect width="12" height="3" x="32" y="55" fill="#2FD3BC" rx=".598"/>
                    <rect width="12" height="3" x="53" y="51" fill="#2FD3BC" rx=".598"/>
                    <rect width="12" height="3" x="11" y="55" fill="#2FD3BC" rx=".598"/>
                    <rect width="12" height="3" x="32" y="59" fill="#2FD3BC" rx=".598"/>
                    <rect width="12" height="3" x="53" y="55" fill="#2FD3BC" rx=".598"/>
                    <rect width="12" height="3" x="11" y="59" fill="#2FD3BC" rx=".598"/>
                    <rect width="12" height="3" x="32" y="63" fill="#2FD3BC" rx=".598"/>
                    <rect width="12" height="3" x="53" y="59" fill="#2FD3BC" rx=".598"/>
                </g>
            </g>
        </g>
    </g>
</svg>
