<svg xmlns="http://www.w3.org/2000/svg" width="32" height="32" viewBox="0 0 32 32">
    <defs>
        <filter id="hfan5usfqa">
            <feColorMatrix in="SourceGraphic" values="0 0 0 0 0.184314 0 0 0 0 0.827451 0 0 0 0 0.737255 0 0 0 1.000000 0"/>
        </filter>
    </defs>
    <g fill="none" fill-rule="evenodd">
        <g>
            <g filter="url(#hfan5usfqa)" transform="translate(-120 -3025) translate(-36 2745)">
                <g>
                    <path d="M0 0L32 0 32 32 0 32z" transform="translate(156 280)"/>
                    <path stroke="#2C3E50" stroke-linecap="round" stroke-linejoin="round" stroke-width="2" d="M16 16V8c0-1.473 1.194-2.667 2.667-2.667 1.472 0 2.666 1.194 2.666 2.667v8m0-2.667c0-1.472 1.194-2.666 2.667-2.666 1.473 0 2.667 1.194 2.667 2.666C26.667 14.806 25.473 16 24 16h-8M16 16h8c1.473 0 2.667 1.194 2.667 2.667 0 1.472-1.194 2.666-2.667 2.666h-8m2.667 0c1.472 0 2.666 1.194 2.666 2.667 0 1.473-1.194 2.667-2.666 2.667C17.194 26.667 16 25.473 16 24v-8M16 16v8c0 1.473-1.194 2.667-2.667 2.667-1.472 0-2.666-1.194-2.666-2.667v-8m0 2.667c0 1.472-1.194 2.666-2.667 2.666-1.473 0-2.667-1.194-2.667-2.666C5.333 17.194 6.527 16 8 16h8M16 16H8c-1.473 0-2.667-1.194-2.667-2.667 0-1.472 1.194-2.666 2.667-2.666h8m-2.667 0c-1.472 0-2.666-1.194-2.666-2.667 0-1.473 1.194-2.667 2.666-2.667C14.806 5.333 16 6.527 16 8v8" transform="translate(156 280)"/>
                </g>
            </g>
        </g>
    </g>
</svg>
