<svg xmlns="http://www.w3.org/2000/svg" width="44" height="44" viewBox="0 0 44 44">
    <g fill="none" fill-rule="evenodd">
        <g>
            <g>
                <path fill="#FFF" d="M31.774 22.741l-5.269-1.513 3.962-3.88c.932 1.582 1.423 3.382 1.307 5.393m-4.264 7.683c-.071-.171-.132-.296-.177-.426-.468-1.356-.935-2.713-1.4-4.07-.208-.61-.046-.796.605-.737 1.541.142 3.083.275 4.677.416-.723 2-1.945 3.573-3.705 4.817m-2.948-12.8c-.44.294-.704.122-.764-.482-.148-1.498-.284-2.998-.433-4.579 1.958.263 3.63 1.078 5.146 2.383-1.36.925-2.648 1.811-3.95 2.679m-5.518 14.11c.067-.143.115-.27.183-.384.76-1.283 1.524-2.565 2.286-3.847.302-.507.608-.538.885-.065.818 1.395 1.622 2.799 2.468 4.263-1.958.58-3.858.589-5.822.033m-.918-6.127c-.56 1.61-1.14 3.214-1.734 4.879-1.8-1.238-3.042-2.825-3.805-4.866 1.16-.132 2.274-.256 3.387-.385.544-.063 1.085-.15 1.63-.203.44-.043.658.186.522.575m-4.49-8.684c1.185 1.215 2.33 2.38 3.464 3.557.342.355.228.627-.322.804-1.28.412-2.564.82-3.846 1.231-.275.088-.548.182-.823.273-.38-1.347.337-4.192 1.528-5.865m6.812-4.381l-.52 5.228-4.464-2.972c1.446-1.225 3.078-1.954 4.984-2.256m1.506 7.362c1.268 0 2.296 1.023 2.296 2.286 0 1.263-1.028 2.286-2.296 2.286-1.268 0-2.297-1.023-2.297-2.286 0-1.263 1.029-2.286 2.297-2.286m16.932 5.021c-.21-.441-.582-.666-1.064-.61-1.344.158-2.647.226-3.761-.783-.194-.176-.308-.27-.309-.537 0-.762.012-1.53-.075-2.284-.209-1.818-.887-3.475-1.885-4.993.131-.218.312-.404.361-.62.14-.626.562-1.01 1.067-1.32.448-.275.911-.534 1.393-.743.64-.278.926-.6.893-1.15-.03-.493-.305-.81-.767-.95-.537-.163-.907.073-1.322.617-.46.602-.99 1.156-1.521 1.699-.152.155-.41.221-.631.29-.325.1-.66.165-1.055.26-2.463-2.078-3.621-2.636-6.76-3.25-.12-.024-.312-.047-.34-.12-.22-.566-.555-1.142-.566-1.72-.014-.762.207-1.536.377-2.293.114-.506.01-.91-.4-1.205-.393-.282-.834-.286-1.228-.007-.409.29-.567.696-.408 1.197.396 1.244.715 2.475-.062 3.72-.146.233-.216.403-.509.442-2.423.32-4.534 1.319-6.359 2.931-.097.086-.264.183-.368.157-.922-.228-1.828-.494-2.417-1.329-.252-.356-.518-.701-.77-1.056-.298-.417-.695-.584-1.192-.452-.474.126-.746.459-.783.94-.04.509.2.884.682 1.065 1.372.514 2.578 1.2 2.978 2.792-1.72 2.886-2.041 4.073-2.033 7.58 0 .107.018.267-.04.31-.405.299-.795.718-1.252.822-.769.174-1.585.191-2.38.183-.602-.006-1.07.144-1.276.62-.193.445-.117.858.227 1.203.38.38.853.398 1.406.089 1.095-.612 2.204-1.174 3.505-.637.153.064.341.19.392.33.94 2.587 2.556 4.631 4.868 6.135.108.07.245.207.245.313.005.867.01 1.74-.592 2.466-.312.378-.608.77-.925 1.144-.332.39-.416.81-.158 1.256.24.416.625.619 1.107.527.523-.1.852-.437.898-.966.126-1.45.555-2.727 1.956-3.515 2.594.887 5.243.873 7.806-.022.904.581 1.55 1.29 1.743 2.317.078.41.168.82.216 1.234.063.545.365.87.882.973.452.091.841-.081 1.082-.475.276-.452.242-.92-.122-1.309-.918-.98-1.69-2.016-1.467-3.464.03-.197.117-.454.266-.555 2.25-1.523 3.831-3.552 4.734-6.108.04-.116.098-.307.171-.319.637-.105 1.304-.323 1.914-.222.754.125 1.465.515 2.188.806.456.184.867.131 1.214-.206.347-.336.44-.75.226-1.198" transform="translate(-103 -5) translate(103 5)"/>
                <path d="M0 0L44 0 44 44 0 44z" transform="translate(-103 -5) translate(103 5)"/>
            </g>
        </g>
    </g>
</svg>
