<svg xmlns="http://www.w3.org/2000/svg" width="75" height="75" viewBox="0 0 75 75">
    <defs>
        <filter id="j2qsw9uy6a">
            <feColorMatrix in="SourceGraphic" values="0 0 0 0 0.184314 0 0 0 0 0.827451 0 0 0 0 0.737255 0 0 0 1.000000 0"/>
        </filter>
    </defs>
    <g fill="none" fill-rule="evenodd">
        <g>
            <g>
                <path d="M0 0H75V75H0z" transform="translate(-749 -2548) translate(749 2548)"/>
                <g stroke-linecap="round" stroke-linejoin="round" stroke-width="1.95" transform="translate(-749 -2548) translate(749 2548) translate(15 12)">
                    <path stroke="#7667F9" d="M0 31v-8.455C0 10.094 10.074 0 22.5 0c3.2 0 6.244.67 9 1.876C39.445 5.355 45 13.3 45 22.546V31M39 43c0 4.97-7.611 9-17 9"/>
                    <rect width="8" height="17" y="26" fill="#2FD3BC" stroke="#2FD3BC" rx="3.667"/>
                    <rect width="8" height="17" x="37" y="26" fill="#2FD3BC" stroke="#2FD3BC" rx="3.667"/>
                    <path stroke="#7667F9" d="M21 13L21 26.75 30 35"/>
                </g>
                <g stroke-linecap="round" stroke-linejoin="round" filter="url(#j2qsw9uy6a)" transform="translate(-749 -2548) translate(749 2548)">
                    <g>
                        <path stroke="#2FD3BC" stroke-width="2" d="M0 2.25C0 1.007.895 0 2 0s2 1.007 2 2.25c0 .618-.282 1.14-.58 1.583L0 9h4M10.8 9L10.8 0 6 6.6 12 6.6" transform="translate(41 25)"/>
                    </g>
                </g>
            </g>
        </g>
    </g>
</svg>
