<svg xmlns="http://www.w3.org/2000/svg" width="75" height="75" viewBox="0 0 75 75">
    <g fill="none" fill-rule="evenodd">
        <g>
            <g>
                <g>
                    <path stroke="#7667F9" stroke-linecap="round" stroke-linejoin="round" stroke-width="1.95" d="M21.204 49C13.359 49 7 42.979 7 35.552c0-7.427 6.36-13.448 14.204-13.448 1.198-5.285 5.47-9.6 11.207-11.317 5.737-1.718 12.067-.579 16.606 2.988 4.538 3.567 6.595 9.02 5.397 14.306h3.02C63.268 28.08 68 32.764 68 38.54 68 44.316 63.269 49 57.433 49h-3.02" transform="translate(-750 -2424) translate(189 2045) translate(561 379)"/>
                    <path fill="#2FD3BC" stroke="#2FD3BC" stroke-linecap="round" stroke-linejoin="round" stroke-width="1.95" d="M34.522 34.841c.758-3.121 5.198-3.121 5.956 0 .23.952.901 1.735 1.805 2.11.905.375 1.933.295 2.769-.215 2.743-1.67 5.884 1.469 4.213 4.214-.508.835-.588 1.863-.214 2.767.374.903 1.157 1.574 2.108 1.805 3.121.758 3.121 5.198 0 5.956-.952.23-1.735.901-2.11 1.805-.375.905-.295 1.933.215 2.769 1.67 2.743-1.469 5.884-4.214 4.213-.835-.508-1.863-.588-2.767-.214-.903.374-1.574 1.157-1.805 2.108-.758 3.121-5.198 3.121-5.956 0-.23-.952-.901-1.735-1.805-2.11-.905-.375-1.933-.295-2.769.215-2.743 1.67-5.884-1.469-4.213-4.214.508-.835.588-1.863.214-2.767-.374-.903-1.157-1.574-2.108-1.805-3.121-.758-3.121-5.198 0-5.956.952-.23 1.735-.901 2.11-1.805.375-.905.295-1.933-.215-2.769-1.67-2.743 1.469-5.884 4.214-4.213 1.778 1.08 4.082.124 4.572-1.894z" transform="translate(-750 -2424) translate(189 2045) translate(561 379)"/>
                    <path stroke="#FFF" stroke-linecap="round" stroke-linejoin="round" stroke-width="1.95" d="M42.17 44.667c-.448-1.252-1.624-2.11-2.97-2.167h-4.4c-1.823 0-3.3 1.455-3.3 3.25S32.977 49 34.8 49h4.4c1.823 0 3.3 1.455 3.3 3.25s-1.477 3.25-3.3 3.25h-4.4c-1.346-.057-2.522-.915-2.97-2.167M37.5 39v3m0 14v3" transform="translate(-750 -2424) translate(189 2045) translate(561 379)"/>
                    <path d="M0 0H75V75H0z" transform="translate(-750 -2424) translate(189 2045) translate(561 379)"/>
                </g>
            </g>
        </g>
    </g>
</svg>
