<svg xmlns="http://www.w3.org/2000/svg" width="26" height="24" viewBox="0 0 26 24">
    <g fill="none" fill-rule="evenodd">
        <g fill="#88F7B7">
            <g>
                <g>
                    <path d="M16.783 9.553c.005.106.007.212.007.319 0 3.252-2.478 7.003-7.01 7.003-1.39 0-2.685-.407-3.776-1.106.193.023.39.034.588.034 1.154 0 2.216-.393 3.06-1.053-1.079-.02-1.989-.732-2.302-1.71.15.029.305.045.464.045.224 0 .442-.03.649-.087-1.128-.226-1.976-1.22-1.976-2.413v-.031c.332.184.712.295 1.116.308-.662-.442-1.097-1.195-1.097-2.049 0-.451.122-.874.334-1.237 1.215 1.489 3.03 2.469 5.078 2.571-.042-.18-.064-.368-.064-.56 0-1.36 1.104-2.462 2.464-2.462.708 0 1.349.299 1.799.777.56-.11 1.088-.315 1.564-.597-.184.575-.575 1.057-1.083 1.362.498-.06.973-.192 1.414-.388-.33.494-.748.927-1.229 1.274M12.008 0C5.388 0 0 5.383 0 12s5.387 12 12.008 12c6.622 0 12.009-5.383 12.009-12S18.63 0 12.008 0" transform="translate(-1250 -2655) translate(0 2515) translate(1250.367 140)"/>
                </g>
            </g>
        </g>
    </g>
</svg>
