<?xml version="1.0" encoding="utf-8"?>
<!-- Generator: Adobe Illustrator 26.5.0, SVG Export Plug-In . SVG Version: 6.00 Build 0)  -->
<svg version="1.1" id="Layer_1" xmlns="http://www.w3.org/2000/svg" xmlns:xlink="http://www.w3.org/1999/xlink" x="0px" y="0px"
	 viewBox="0 0 304 37" style="enable-background:new 0 0 304 37;" xml:space="preserve">
<style type="text/css">
	.st0{fill:#183D54;}
	.st1{enable-background:new    ;}
</style>
<path id="Path" class="st0" d="M19,14.7L18.9,22c0,6.9-6.6,8.3-8.9,8.3c-4.8,0-8.8-2.9-8.8-8.3v-7.6c0-1.7,1-2.7,2.5-2.7
	s2.5,1,2.5,2.7v7c0,2.7,1.4,4.2,3.7,4.2c2.5,0,3.9-1.3,3.9-4.2v-6.6c0-1.7,1-2.7,2.5-2.7C18.1,12.1,19,13.1,19,14.7z"/>
<path id="Path_00000034812109616266981390000017268695422312803510_" class="st0" d="M105.1,14.3L105,22c0,6.9-6.6,8.3-8.9,8.3
	c-4.8,0-8.8-2.9-8.8-8.3v-7.6c0-1.7,1-2.7,2.5-2.7c1.6,0,2.5,1,2.5,2.7v7c0,2.7,1.4,4.2,3.7,4.2c2.5,0,3.9-1.3,3.9-4.2v-7
	c0-1.7,1-2.7,2.5-2.7C104.2,11.6,105.1,12.7,105.1,14.3z"/>
<path id="Shape" class="st0" d="M41.6,20.8c0,5.7-3.4,9.4-8.5,9.4c-2.3,0-4.2-0.8-5.5-2.2h-0.1v6.2c0,1.7-1,2.7-2.5,2.7
	s-2.5-1-2.5-2.7V14.3c0-1.7,1-2.7,2.5-2.7c1.4,0,2.3,0.7,2.5,2.1h0.1c1.3-1.5,3.1-2.3,5.5-2.3C38.2,11.4,41.6,15.1,41.6,20.8z
	 M36.4,20.8c0-2.8-1.8-4.7-4.4-4.7s-4.5,2-4.5,4.7s1.9,4.7,4.5,4.7S36.4,23.7,36.4,20.8z"/>
<path id="Shape_00000076565854624199433880000012583091219723998121_" class="st0" d="M63.2,20.8c0,5.7-3.4,9.4-8.5,9.4
	c-2.4,0-4.2-0.8-5.5-2.3h-0.1c-0.2,1.2-1.2,2.2-2.5,2.1C45,30,44,29,44,27.3V6.2c0-1.7,1-2.7,2.5-2.7s2.5,1,2.5,2.7v7.6h0.1
	c1.2-1.5,3.1-2.3,5.5-2.3C59.8,11.4,63.2,15.1,63.2,20.8z M58,20.8c0-2.8-1.8-4.7-4.4-4.7s-4.5,2-4.5,4.7s1.9,4.7,4.5,4.7
	S58,23.7,58,20.8L58,20.8z"/>
<path id="Shape_00000101817382361955982880000007275791959805774737_" class="st0" d="M75.2,11.4c5.7,0,9.6,3.8,9.6,9.4
	s-3.9,9.4-9.6,9.4s-9.6-3.8-9.6-9.4S69.5,11.4,75.2,11.4z M75.2,25.6c2.7,0,4.5-1.9,4.5-4.7s-1.8-4.7-4.5-4.7s-4.4,1.9-4.4,4.7
	S72.6,25.6,75.2,25.6z"/>
<path id="Path_00000137124893799653773500000006935970124631442855_" class="st0" d="M126.3,19.7v7.6c0,1.7-1,2.7-2.5,2.7
	s-2.5-1-2.5-2.7v-7c0-2.8-1.3-4.2-3.7-4.2c-2.5,0-4,1.7-4,4.7v6.5c0,1.7-1,2.7-2.5,2.7s-2.5-1-2.5-2.7V14.4c0-1.7,1-2.7,2.5-2.7
	c1.2-0.1,2.3,0.8,2.5,2h0.1c1.2-1.5,3-2.2,5.3-2.2C123.7,11.4,126.3,14.3,126.3,19.7z"/>
<path id="Shape_00000133500840341879696940000010984883154662810786_" class="st0" d="M147.9,6.2v21.2c0,1.7-1,2.7-2.5,2.7
	c-1.2,0.1-2.3-0.8-2.5-2.1h-0.1c-1.3,1.5-3.1,2.3-5.5,2.3c-5.1,0-8.5-3.7-8.5-9.4s3.4-9.4,8.5-9.4c2.4,0,4.2,0.8,5.5,2.3h0.1V6.2
	c0-1.7,1-2.7,2.5-2.7C146.9,3.4,147.9,4.5,147.9,6.2z M142.8,20.8c0-2.8-1.9-4.7-4.5-4.7c-2.6,0-4.4,1.9-4.4,4.7s1.8,4.7,4.4,4.7
	C140.9,25.6,142.8,23.6,142.8,20.8z"/>
<ellipse id="Oval" class="st0" cx="3.8" cy="3.9" rx="3.8" ry="3.9"/>
<g class="st1">
	<path class="st0" d="M161.2,10.6h3.2l6.2,14.4h0.1l6.3-14.4h3.2V29H178V13.6h-0.1L171.3,29H170l-6.6-15.4h-0.1V29h-2.2V10.6z"/>
	<path class="st0" d="M184.2,18.4c0.6-0.6,1.4-1.1,2.2-1.4c0.9-0.3,1.7-0.5,2.6-0.5c1.8,0,3.1,0.4,3.9,1.3c0.8,0.8,1.2,2.1,1.2,3.9
		v5.2c0,0.3,0,0.7,0.1,1.1c0,0.4,0.1,0.7,0.1,1h-2c-0.1-0.3-0.1-0.6-0.1-0.9s0-0.6,0-0.9h-0.1c-0.4,0.6-0.9,1.1-1.6,1.5
		s-1.5,0.6-2.4,0.6c-0.6,0-1.2-0.1-1.8-0.2c-0.5-0.2-1-0.4-1.4-0.7c-0.4-0.3-0.7-0.7-1-1.1c-0.2-0.5-0.4-1-0.4-1.6
		c0-1,0.3-1.8,0.8-2.4c0.5-0.6,1.2-1,1.9-1.3c0.8-0.3,1.6-0.5,2.5-0.5s1.7-0.1,2.5-0.1h0.8v-0.4c0-0.9-0.3-1.6-0.8-2
		c-0.5-0.5-1.3-0.7-2.2-0.7c-0.7,0-1.3,0.1-1.9,0.3s-1.2,0.6-1.7,1L184.2,18.4z M190.1,23.2c-1.3,0-2.3,0.2-3.1,0.5
		c-0.8,0.4-1.1,1-1.1,1.8c0,0.8,0.3,1.3,0.8,1.6c0.5,0.3,1.1,0.5,1.9,0.5c0.6,0,1.1-0.1,1.5-0.3s0.8-0.5,1.1-0.8s0.5-0.7,0.7-1.2
		c0.2-0.4,0.2-0.9,0.3-1.4v-0.8H190.1z"/>
	<path class="st0" d="M197.9,19.7c0-0.6,0-1.1-0.1-1.6s-0.1-0.9-0.1-1.3h1.9c0,0.3,0,0.7,0,1c0,0.3,0,0.7,0,1h0.1
		c0.1-0.3,0.3-0.6,0.6-0.9c0.3-0.3,0.5-0.5,0.9-0.7s0.7-0.4,1.2-0.5s0.9-0.2,1.4-0.2c0.1,0,0.3,0,0.4,0c0.1,0,0.3,0.1,0.4,0.1
		l-0.1,2.1c-0.3-0.1-0.7-0.2-1.1-0.2c-1.2,0-2.2,0.4-2.7,1.2c-0.6,0.8-0.8,1.9-0.8,3.3V29h-2V19.7z"/>
	<path class="st0" d="M207,9.3h2v12.8l5.5-5.4h2.9l-5.9,5.5l6.5,6.6h-3l-6-6.4V29h-2V9.3z"/>
	<path class="st0" d="M230.9,26.8c-0.7,0.9-1.5,1.6-2.4,2c-0.9,0.4-1.9,0.6-3,0.6c-1,0-1.8-0.2-2.6-0.5s-1.4-0.8-1.9-1.4
		c-0.5-0.6-0.9-1.2-1.2-2c-0.3-0.8-0.4-1.6-0.4-2.5c0-0.9,0.2-1.8,0.5-2.6c0.3-0.8,0.7-1.5,1.3-2c0.6-0.6,1.2-1,2-1.3
		c0.8-0.3,1.6-0.5,2.5-0.5c0.8,0,1.6,0.1,2.3,0.4s1.3,0.7,1.8,1.2c0.5,0.5,0.9,1.2,1.2,2s0.4,1.7,0.4,2.7v0.7h-9.8
		c0,0.5,0.2,1,0.4,1.5c0.2,0.5,0.5,0.9,0.8,1.2s0.8,0.6,1.2,0.8s1,0.3,1.5,0.3c0.9,0,1.6-0.2,2.2-0.5c0.6-0.3,1.2-0.8,1.6-1.4
		L230.9,26.8z M229.2,21.8c0-1-0.4-1.9-1-2.5c-0.6-0.6-1.5-0.9-2.7-0.9s-2,0.3-2.7,0.9s-1.1,1.5-1.2,2.5H229.2z"/>
	<path class="st0" d="M241.2,18.5h-3.6v6.1c0,0.4,0,0.8,0,1.1s0.1,0.6,0.2,0.9s0.3,0.5,0.5,0.6c0.2,0.1,0.6,0.2,1,0.2
		c0.3,0,0.6,0,0.9-0.1c0.3-0.1,0.6-0.2,0.9-0.3l0.1,1.8c-0.3,0.2-0.7,0.3-1.2,0.3s-0.8,0.1-1.2,0.1c-0.7,0-1.3-0.1-1.7-0.3
		c-0.4-0.2-0.8-0.5-1-0.8c-0.2-0.3-0.4-0.8-0.5-1.3c-0.1-0.5-0.1-1.1-0.1-1.7v-6.7h-2.7v-1.7h2.7v-3.5h2v3.5h3.6V18.5z"/>
	<path class="st0" d="M243.5,16.8h2v1.8h0.1c0.6-0.7,1.2-1.2,1.9-1.5c0.7-0.4,1.5-0.5,2.4-0.5c1,0,1.8,0.2,2.6,0.5
		c0.8,0.3,1.5,0.8,2,1.3c0.6,0.6,1,1.2,1.3,2c0.3,0.8,0.5,1.6,0.5,2.5s-0.2,1.8-0.5,2.5c-0.3,0.8-0.7,1.5-1.3,2s-1.2,1-1.9,1.3
		c-0.7,0.3-1.5,0.5-2.4,0.5c-1.1,0-2-0.2-2.9-0.7s-1.4-1.1-1.8-1.8h-0.1v8.1h-2V16.8z M245.6,22.9c0,0.6,0.1,1.2,0.3,1.8
		s0.5,1,0.9,1.4c0.4,0.4,0.8,0.7,1.4,1c0.5,0.2,1.1,0.4,1.8,0.4s1.3-0.1,1.8-0.4c0.5-0.2,1-0.6,1.4-1c0.4-0.4,0.7-0.9,0.9-1.4
		c0.2-0.5,0.3-1.1,0.3-1.8c0-0.6-0.1-1.2-0.3-1.8c-0.2-0.5-0.5-1-0.9-1.4c-0.4-0.4-0.8-0.7-1.4-1c-0.5-0.2-1.1-0.4-1.8-0.4
		s-1.3,0.1-1.8,0.4c-0.5,0.2-1,0.6-1.4,1c-0.4,0.4-0.7,0.9-0.9,1.4S245.6,22.3,245.6,22.9z"/>
	<path class="st0" d="M259.7,9.3h2V29h-2V9.3z"/>
	<path class="st0" d="M265.6,18.4c0.6-0.6,1.4-1.1,2.2-1.4c0.9-0.3,1.7-0.5,2.6-0.5c1.8,0,3.1,0.4,3.9,1.3c0.8,0.8,1.2,2.1,1.2,3.9
		v5.2c0,0.3,0,0.7,0.1,1.1c0,0.4,0.1,0.7,0.1,1h-2c-0.1-0.3-0.1-0.6-0.1-0.9s0-0.6,0-0.9h-0.1c-0.4,0.6-0.9,1.1-1.6,1.5
		s-1.5,0.6-2.4,0.6c-0.6,0-1.2-0.1-1.8-0.2c-0.5-0.2-1-0.4-1.4-0.7c-0.4-0.3-0.7-0.7-1-1.1c-0.2-0.5-0.4-1-0.4-1.6
		c0-1,0.3-1.8,0.8-2.4c0.5-0.6,1.2-1,1.9-1.3c0.8-0.3,1.6-0.5,2.5-0.5s1.7-0.1,2.5-0.1h0.8v-0.4c0-0.9-0.3-1.6-0.8-2
		c-0.5-0.5-1.3-0.7-2.2-0.7c-0.7,0-1.3,0.1-1.9,0.3s-1.2,0.6-1.7,1L265.6,18.4z M271.5,23.2c-1.3,0-2.3,0.2-3.1,0.5
		c-0.8,0.4-1.1,1-1.1,1.8c0,0.8,0.3,1.3,0.8,1.6c0.5,0.3,1.1,0.5,1.9,0.5c0.6,0,1.1-0.1,1.5-0.3s0.8-0.5,1.1-0.8s0.5-0.7,0.7-1.2
		c0.2-0.4,0.2-0.9,0.3-1.4v-0.8H271.5z"/>
	<path class="st0" d="M287.9,19.9c-0.4-0.5-0.9-0.9-1.4-1.1c-0.5-0.2-1.1-0.4-1.7-0.4c-0.7,0-1.3,0.1-1.8,0.4
		c-0.5,0.2-0.9,0.6-1.3,1s-0.6,0.9-0.8,1.4s-0.3,1.1-0.3,1.8s0.1,1.2,0.3,1.8s0.5,1,0.8,1.4s0.8,0.7,1.3,1c0.5,0.2,1.1,0.4,1.7,0.4
		c1.3,0,2.4-0.5,3.1-1.5l1.5,1.4c-0.6,0.7-1.3,1.2-2.1,1.5c-0.8,0.3-1.6,0.5-2.5,0.5c-0.9,0-1.8-0.2-2.6-0.5c-0.8-0.3-1.4-0.8-2-1.3
		c-0.5-0.6-1-1.2-1.3-2c-0.3-0.8-0.5-1.6-0.5-2.6c0-0.9,0.2-1.8,0.5-2.5c0.3-0.8,0.7-1.5,1.3-2s1.2-1,2-1.3c0.8-0.3,1.6-0.5,2.6-0.5
		c0.9,0,1.8,0.2,2.6,0.5c0.8,0.3,1.5,0.8,2.1,1.5L287.9,19.9z"/>
	<path class="st0" d="M302.7,26.8c-0.7,0.9-1.5,1.6-2.4,2c-0.9,0.4-1.9,0.6-3,0.6c-1,0-1.8-0.2-2.6-0.5c-0.8-0.3-1.4-0.8-1.9-1.4
		c-0.5-0.6-0.9-1.2-1.2-2s-0.4-1.6-0.4-2.5c0-0.9,0.2-1.8,0.5-2.6c0.3-0.8,0.7-1.5,1.3-2c0.6-0.6,1.2-1,2-1.3
		c0.8-0.3,1.6-0.5,2.5-0.5c0.8,0,1.6,0.1,2.3,0.4s1.3,0.7,1.8,1.2c0.5,0.5,0.9,1.2,1.2,2s0.4,1.7,0.4,2.7v0.7h-9.8
		c0,0.5,0.2,1,0.4,1.5s0.5,0.9,0.8,1.2s0.8,0.6,1.2,0.8c0.5,0.2,1,0.3,1.5,0.3c0.9,0,1.6-0.2,2.2-0.5c0.6-0.3,1.2-0.8,1.6-1.4
		L302.7,26.8z M300.9,21.8c0-1-0.4-1.9-1-2.5s-1.5-0.9-2.7-0.9s-2,0.3-2.7,0.9s-1.1,1.5-1.2,2.5H300.9z"/>
</g>
</svg>
