<?xml version="1.0" encoding="UTF-8"?>
<svg width="304px" height="37px" viewBox="0 0 304 37" version="1.1" xmlns="http://www.w3.org/2000/svg" xmlns:xlink="http://www.w3.org/1999/xlink">
    <!-- Generator: Sketch 63.1 (92452) - https://sketch.com -->
    <title>Group 19</title>
    <desc>Created with Sketch.</desc>
    <g id="Crossplane" stroke="none" stroke-width="1" fill="none" fill-rule="evenodd">
        <g id="Homepage-v2.1-Copy" transform="translate(-567.000000, -3425.000000)" fill="#183D54">
            <g id="Upbound-Marketplace" transform="translate(200.000000, 3345.000000)">
                <g id="Group-19" transform="translate(367.000000, 80.000000)">
                    <g id="Upbound-Logo" fill-rule="nonzero">
                        <path d="M19.009921,14.7470333 L18.9411815,21.9532869 C18.9411815,28.8703146 12.369681,30.274628 10.0806542,30.274628 C5.32387772,30.2711433 1.30605134,27.3335845 1.30605134,21.9532869 L1.30605134,14.3393294 C1.30605134,12.6562441 2.26496799,11.645696 3.81504472,11.645696 C5.36512144,11.645696 6.35840786,12.6562441 6.35840786,14.3393294 L6.35840786,21.3713505 C6.35840786,24.0998305 7.73319875,25.5947448 10.0806542,25.5947448 C12.5896476,25.5947448 13.9575645,24.322848 13.9575645,21.3713505 L13.9575645,14.750518 C13.9575645,13.0709173 14.9164811,12.0603692 16.5043646,12.0603692 C18.0922481,12.0603692 19.009921,13.0674327 19.009921,14.7470333 Z" id="Path"></path>
                        <path d="M105.116511,14.3393294 L105.044335,21.9532869 C105.044335,28.8703146 98.4728344,30.274628 96.1872445,30.274628 C91.4304681,30.274628 87.4126417,27.3370691 87.4126417,21.9532869 L87.4126417,14.3393294 C87.4126417,12.6562441 88.3715583,11.645696 89.9216351,11.645696 C91.4717118,11.645696 92.4649982,12.6562441 92.4649982,14.3393294 L92.4649982,21.3713505 C92.4649982,24.0998305 93.8397891,25.5947448 96.1872445,25.5947448 C98.6962379,25.5947448 100.064155,24.322848 100.064155,21.3713505 L100.064155,14.3393294 C100.064155,12.6562441 101.023071,11.645696 102.607518,11.645696 C104.191964,11.645696 105.116511,12.6562441 105.116511,14.3393294 Z" id="Path"></path>
                        <path d="M41.5874244,20.8451686 C41.5874244,26.5669618 38.1951279,30.2711433 33.0671579,30.2711433 C30.7437613,30.2711433 28.8637347,29.4487662 27.609238,28.0270296 L27.5301876,28.0270296 L27.5301876,34.2715201 C27.5301876,35.9546054 26.5747079,37 24.9868244,37 C23.3989409,37 22.477831,35.9546054 22.477831,34.2715201 L22.477831,14.3393294 C22.477831,12.6562441 23.4367477,11.645696 24.9868244,11.645696 C26.3616153,11.645696 27.2724143,12.3948955 27.4958178,13.7051234 L27.5679943,13.7051234 C28.822491,12.2450556 30.7025175,11.4226785 33.0671579,11.4226785 C38.1916909,11.4226785 41.5874244,15.1233754 41.5874244,20.8451686 Z M36.4319586,20.8451686 C36.4319586,18.0051799 34.6241085,16.099077 32.0429386,16.099077 C29.4617688,16.099077 27.5301876,18.0783575 27.5301876,20.8451686 C27.5301876,23.6119797 29.4136511,25.5947448 32.0326277,25.5947448 C34.6516044,25.5947448 36.4319586,23.6503108 36.4319586,20.8451686 Z" id="Shape"></path>
                        <path d="M63.1510195,20.8451686 C63.1510195,26.5669618 59.755286,30.2711433 54.6307529,30.2711433 C52.2695496,30.2711433 50.3895231,29.4487662 49.1315894,27.9503673 L49.0559759,27.9503673 C48.9056939,29.1993699 47.8237101,30.1148006 46.5847893,30.0411565 C45.0003428,30.0411565 44.0414261,28.9957619 44.0414261,27.3126766 L44.0414261,6.15040497 C44.0414261,4.46731965 45.0003428,3.42192503 46.5847893,3.42192503 C48.1692358,3.42192503 49.0937826,4.46731965 49.0937826,6.15040497 L49.0937826,13.7051234 L49.1659592,13.7051234 C50.3860861,12.2450556 52.2592387,11.4226785 54.627316,11.4226785 C59.755286,11.4226785 63.1510195,15.1233754 63.1510195,20.8451686 Z M57.9955537,20.8451686 C57.9955537,18.0051799 56.1877036,16.099077 53.6065337,16.099077 C51.0253638,16.099077 49.1075306,18.0783575 49.1075306,20.8451686 C49.1075306,23.6119797 50.9875571,25.5947448 53.6065337,25.5947448 C56.2255104,25.5947448 57.9852427,23.6503108 57.9852427,20.8451686 L57.9955537,20.8451686 Z" id="Shape"></path>
                        <path d="M75.2251205,11.4226785 C80.9408136,11.4226785 84.8486567,15.2383688 84.8486567,20.83123 C84.8486567,26.4240912 80.9408136,30.2572047 75.2251205,30.2572047 C69.5094273,30.2572047 65.6462649,26.4171219 65.6462649,20.8451686 C65.6462649,15.2732153 69.5437971,11.4226785 75.2251205,11.4226785 Z M75.2251205,25.5947448 C77.8784669,25.5947448 79.6931909,23.6503108 79.6931909,20.8451686 C79.6931909,18.0400264 77.8853408,16.099077 75.2251205,16.099077 C72.5649001,16.099077 70.8017308,18.0051799 70.8017308,20.8451686 C70.8017308,23.6851573 72.6061438,25.5947448 75.2251205,25.5947448 Z" id="Shape"></path>
                        <path d="M126.308913,19.7231117 L126.308913,27.3161612 C126.308913,28.9992466 125.349996,30.0446412 123.762113,30.0446412 C122.174229,30.0446412 121.256556,28.9992466 121.256556,27.3161612 L121.256556,20.3224713 C121.256556,17.5556602 120.00206,16.099077 117.56868,16.099077 C115.02188,16.099077 113.547416,17.8414014 113.547416,20.8103221 L113.547416,27.3161612 C113.547416,28.9992466 112.5885,30.0446412 111.000616,30.0446412 C109.412733,30.0446412 108.49506,28.9992466 108.49506,27.3161612 L108.49506,14.3776606 C108.49506,12.6945752 109.453977,11.645696 111.000616,11.645696 C112.225233,11.5646884 113.310624,12.4390149 113.50961,13.6667922 L113.585223,13.6667922 C114.801913,12.2067244 116.571956,11.4226785 118.895353,11.4226785 C123.73118,11.4226785 126.308913,14.3393294 126.308913,19.7231117 Z" id="Path"></path>
                        <path d="M147.886256,6.15040497 L147.886256,27.3161612 C147.886256,28.9992466 146.927339,30.0446412 145.339456,30.0446412 C144.101108,30.1165253 143.020156,29.2019681 142.868269,27.9538519 L142.796093,27.9538519 C141.541596,29.4522509 139.661569,30.274628 137.296929,30.274628 C132.168959,30.274628 128.776663,26.5704464 128.776663,20.8486532 C128.776663,15.12686 132.168959,11.4401017 137.296929,11.4401017 C139.658132,11.4401017 141.538159,12.2624788 142.754849,13.7225466 L142.830462,13.7225466 L142.830462,6.15040497 C142.830462,4.46731965 143.789379,3.42192503 145.336019,3.42192503 C146.882659,3.42192503 147.886256,4.46731965 147.886256,6.15040497 Z M142.833899,20.8451686 C142.833899,18.0783575 140.950436,16.099077 138.331459,16.099077 C135.712483,16.099077 133.942439,18.0051799 133.942439,20.8451686 C133.942439,23.6851573 135.7606,25.5947448 138.331459,25.5947448 C140.902318,25.5947448 142.833899,23.6154643 142.833899,20.8451686 Z" id="Shape"></path>
                        <ellipse id="Oval" cx="3.82879263" cy="3.88189866" rx="3.82879263" ry="3.88189866"></ellipse>
                    </g>
                    <text id="Marketplace" font-family="Avenir-Roman, Avenir" font-size="26" font-weight="normal" line-spacing="24">
                        <tspan x="159.886256" y="35">Marketplace</tspan>
                    </text>
                </g>
            </g>
        </g>
    </g>
</svg>