<?xml version="1.0" encoding="utf-8"?>
<!-- Generator: Adobe Illustrator 28.1.0, SVG Export Plug-In . SVG Version: 6.00 Build 0)  -->
<svg version="1.1" id="Layer_1" xmlns="http://www.w3.org/2000/svg" xmlns:xlink="http://www.w3.org/1999/xlink" x="0px" y="0px"
	 viewBox="0 0 298.86 71.66" style="enable-background:new 0 0 298.86 71.66;" xml:space="preserve">
<style type="text/css">
	.st0{fill:#454545;}
	.st1{fill:#1F83D1;}
</style>
<g id="_x32_PuOQD.tif">
	<g>
		<path class="st0" d="M201.35,55.03c-0.34-0.22-0.74-0.15-1.11-0.2c-4.79-0.65-9.18-2.3-13.05-5.26c-0.63-0.48-0.63-0.49-0.28-1.18
			c1.02-2.06,2.05-4.11,3.07-6.17c0.09-0.18,0.18-0.36,0.27-0.54c0.21-0.01,0.31,0.16,0.43,0.26c2.94,2.43,6.29,4.04,9.99,4.91
			c1.51,0.35,3.04,0.46,4.58,0.18c0.42-0.08,0.82-0.21,1.22-0.39c2.15-0.95,2.05-3.56,0.66-4.69c-0.69-0.56-1.44-0.98-2.27-1.27
			c-1.47-0.52-2.98-0.91-4.47-1.34c-1.85-0.53-3.68-1.13-5.46-1.88c-1.47-0.63-2.73-1.55-3.83-2.71c-1.11-1.19-1.78-2.58-2.05-4.18
			c-0.33-1.97-0.26-3.92,0.43-5.81c0.87-2.41,2.5-4.17,4.69-5.44c1.69-0.98,3.51-1.6,5.44-1.87c6.42-0.92,12.43,0.31,18.04,3.53
			c0.57,0.33,0.47,0.27,0.22,0.8c-1.02,2.16-2.04,4.32-3.06,6.48c-0.04,0.08-0.08,0.17-0.12,0.25c-0.19,0.37-0.19,0.37-0.56,0.16
			c-2.48-1.41-5.1-2.48-7.86-3.18c-1.32-0.34-2.65-0.57-4.01-0.5c-0.6,0.03-1.18,0.12-1.74,0.34c-1.74,0.68-2.17,2.68-0.88,4.04
			c0.63,0.66,1.4,1.1,2.24,1.42c1.44,0.55,2.91,1,4.38,1.44c2.01,0.6,4,1.24,5.92,2.09c1.79,0.8,3.24,2.01,4.39,3.58
			c0.77,1.05,1.21,2.25,1.42,3.53c0.31,1.89,0.26,3.77-0.32,5.61c-0.71,2.27-2.14,4-4.09,5.32c-1.7,1.15-3.6,1.81-5.59,2.23
			c-0.87,0.18-1.75,0.32-2.64,0.36c-0.15,0.01-0.3-0.01-0.43,0.09C203.73,55.03,202.54,55.03,201.35,55.03z"/>
		<path class="st0" d="M147.36,17.86c3.26,0,6.53,0,9.79,0c0.7,0,0.56-0.06,0.77,0.54c2.9,8.38,5.79,16.77,8.69,25.15
			c0.07,0.19,0.14,0.38,0.25,0.68c0.1-0.26,0.17-0.41,0.22-0.57c2.92-8.41,5.85-16.83,8.77-25.24c0.04-0.1,0.08-0.21,0.11-0.31
			c0.04-0.17,0.14-0.25,0.31-0.24c0.07,0.01,0.15,0,0.22,0c2.97,0,5.93,0,8.9,0c0.12,0,0.26-0.03,0.37,0.05
			c0.06,0.2-0.06,0.36-0.13,0.53c-4.63,11.85-9.26,23.7-13.9,35.55c-0.21,0.55-0.12,0.47-0.71,0.47c-2.93,0-5.86,0-8.79,0
			c-0.69,0-0.56,0.11-0.82-0.56c-4.39-11.31-8.78-22.62-13.17-33.93c-0.22-0.57-0.45-1.14-0.66-1.71c-0.05-0.13-0.09-0.24-0.23-0.29
			C147.36,17.93,147.36,17.9,147.36,17.86z"/>
		<path class="st1" d="M297.79,17.95c0.02-0.03,0.05-0.06,0.07-0.1c0,12.21,0,24.41,0,36.62c-0.02-0.04-0.05-0.08-0.07-0.12
			c-0.01-0.13-0.02-0.26-0.02-0.39c0-11.86,0-23.71,0-35.57C297.77,18.25,297.78,18.1,297.79,17.95z"/>
		<path class="st1" d="M65.17,58.22C52.3,58.16,42.04,47.91,42.01,35.2c-0.03-13.14,10.6-22.96,22.72-23.17
			c12.89-0.23,23.52,10.16,23.58,22.98C88.38,47.38,78.45,58.13,65.17,58.22z"/>
		<path class="st0" d="M297.79,17.95c-0.01,0.15-0.02,0.29-0.02,0.44c0,11.86,0,23.71,0,35.57c0,0.13,0.01,0.26,0.02,0.39
			c-0.11,0.15-0.27,0.1-0.41,0.1c-2.5,0-5.01-0.01-7.51,0.01c-0.37,0-0.52-0.2-0.7-0.43c-2.11-2.78-4.21-5.56-6.32-8.33
			c-3.17-4.18-6.35-8.36-9.52-12.54c-0.1-0.13-0.17-0.28-0.36-0.38c-0.09,0.2-0.05,0.4-0.05,0.59c0,6.79,0,13.58,0,20.37
			c0,0.82,0.1,0.72-0.7,0.72c-2.52,0-5.05,0-7.57,0c-0.13,0-0.26-0.01-0.39,0c-0.22,0.02-0.3-0.1-0.29-0.3c0-0.13,0-0.26,0-0.39
			c0-11.74,0-23.48,0-35.23c0-0.81-0.05-0.68,0.68-0.69c2.39-0.01,4.79,0.01,7.18-0.01c0.39,0,0.64,0.11,0.88,0.42
			c5.28,7,10.57,14,15.86,21c0.11,0.14,0.22,0.27,0.4,0.49c0.08-0.75,0.03-1.39,0.04-2.03c0-0.17-0.01-0.33-0.01-0.5
			c-0.01-6.23-0.02-12.47-0.03-18.7c0-0.77-0.09-0.67,0.68-0.67c2.52,0,5.05,0,7.57,0C297.4,17.86,297.62,17.79,297.79,17.95z"/>
		<path class="st0" d="M256.89,36.17c0,5.79,0,11.57,0,17.36c0,0.11,0,0.22,0,0.33c0,0.66,0.05,0.6-0.59,0.6c-2.78,0-5.56,0-8.35,0
			c-0.11,0-0.22-0.01-0.33,0c-0.22,0.02-0.3-0.08-0.29-0.29c0.01-0.13,0-0.26,0-0.39c0-4.25,0-8.49,0-12.74
			c0-0.68,0.09-0.61-0.63-0.61c-4.51,0-9.01,0-13.52,0c-0.69,0-0.61-0.04-0.61,0.64c0,4.17,0,8.35,0,12.52c0,0.11,0,0.22,0,0.33
			c0,0.54,0,0.54-0.54,0.54c-2.84,0-5.68,0-8.51,0c-0.49,0-0.49,0-0.5-0.48c0-0.09,0-0.19,0-0.28c0-11.7,0-23.4,0-35.11
			c0-0.74,0-0.74,0.74-0.74c2.71,0,5.42,0,8.12,0c0.13,0,0.26,0.01,0.39,0c0.21-0.01,0.31,0.06,0.3,0.28c-0.01,0.15,0,0.3,0,0.45
			c0,4.53,0,9.05,0,13.58c0,0.7-0.06,0.62,0.63,0.62c4.51,0,9.01,0,13.52,0c0.7,0,0.62,0.07,0.62-0.63c0-4.54,0-9.09,0-13.63
			c0-0.75-0.09-0.66,0.64-0.67c2.76,0,5.53,0,8.29,0c0.11,0,0.22,0.01,0.33,0c0.2-0.01,0.32,0.06,0.3,0.28c-0.01,0.15,0,0.3,0,0.44
			C256.89,24.45,256.89,30.31,256.89,36.17z"/>
		<path class="st0" d="M91.7,53.15c0.09-0.19,0.28-0.24,0.44-0.33c9.46-5.49,18.92-10.98,28.38-16.47c0.25-0.15,0.5-0.29,0.77-0.45
			c-0.18-0.21-0.38-0.28-0.55-0.38c-9.63-5.41-19.27-10.82-28.91-16.21c-0.41-0.23-0.56-0.47-0.56-0.94
			c0.04-2.84,0.03-5.68,0.04-8.51c0-0.14,0-0.29,0-0.45c0.25-0.02,0.39,0.12,0.54,0.21c9.97,5.76,19.94,11.52,29.9,17.28
			c2.39,1.38,4.78,2.77,7.18,4.14c0.35,0.2,0.49,0.41,0.49,0.82c-0.02,2.78-0.02,5.57,0,8.35c0,0.44-0.15,0.65-0.51,0.86
			c-11.27,6.58-22.54,13.17-33.81,19.75c-1.12,0.65-2.25,1.3-3.37,1.95c-0.01-0.22-0.02-0.44-0.02-0.67c0-2.39,0-4.78,0-7.18
			C91.72,54.33,91.71,53.74,91.7,53.15z"/>
		<path class="st0" d="M38.65,18.25c-0.16,0.17-0.37,0.25-0.56,0.36c-9.48,5.5-18.95,11-28.43,16.5c-0.21,0.12-0.41,0.25-0.61,0.37
			c0.12,0.19,0.31,0.24,0.47,0.33c9.63,5.41,19.27,10.82,28.9,16.22c0.13,0.07,0.26,0.15,0.39,0.22c0.19,0.09,0.25,0.24,0.25,0.45
			c-0.03,3.02-0.04,6.05-0.06,9.07c0,0.07,0.01,0.15-0.08,0.23c-0.18-0.1-0.37-0.19-0.56-0.3C26.02,54.57,13.7,47.44,1.37,40.32
			c-0.32-0.18-0.47-0.38-0.46-0.77c0.02-2.82,0.02-5.64,0-8.46c0-0.37,0.12-0.56,0.43-0.74c12.33-7.2,24.65-14.4,36.98-21.61
			c0.1-0.06,0.2-0.1,0.3-0.15c0.01,0.22,0.02,0.44,0.02,0.66c0,2.63,0,5.25,0,7.88C38.63,17.51,38.64,17.88,38.65,18.25z"/>
		<path class="st1" d="M91.7,53.15c0.01,0.59,0.02,1.19,0.02,1.78c0,2.39,0,4.78,0,7.18c0,0.22,0.01,0.44,0.02,0.67
			c-0.03,0.2-0.2,0.25-0.35,0.33c-4.84,2.57-9.85,4.75-15.17,6.12c-3.08,0.8-6.2,1.27-9.38,1.41c-3.62,0.16-7.13-0.4-10.58-1.41
			c-3.93-1.15-7.66-2.78-11.24-4.76c-0.38-0.21-0.5-0.44-0.5-0.87c0.02-2.56,0.01-5.12,0.01-7.68c0-0.18,0-0.36,0-0.57
			c0.26,0.03,0.39,0.17,0.54,0.26c4.47,2.91,9.29,4.99,14.54,6.02c3.64,0.72,7.28,0.76,10.94,0.12c4.36-0.76,8.49-2.21,12.51-4.01
			C86.05,56.41,88.93,54.87,91.7,53.15z"/>
		<path class="st1" d="M38.65,18.25c-0.01-0.37-0.02-0.74-0.02-1.11c0-2.63,0-5.25,0-7.88c0-0.22-0.01-0.44-0.02-0.66
			c0.05-0.13,0.18-0.18,0.29-0.24c4.74-2.52,9.64-4.66,14.85-6.05c2.67-0.71,5.39-1.17,8.15-1.41c4.31-0.38,8.5,0.2,12.62,1.46
			c3.75,1.16,7.33,2.72,10.76,4.61c0.35,0.19,0.49,0.41,0.49,0.82c-0.02,2.58-0.01,5.16-0.01,7.73c0,0.18,0.03,0.36-0.05,0.54
			c-0.21,0-0.33-0.13-0.46-0.22c-4.36-2.85-9.06-4.88-14.16-5.96c-2.76-0.58-5.55-0.78-8.35-0.57c-3.34,0.25-6.58,1.05-9.75,2.12
			c-4.79,1.63-9.33,3.81-13.66,6.43C39.1,18,38.88,18.12,38.65,18.25z"/>
	</g>
</g>
</svg>
