<svg xmlns="http://www.w3.org/2000/svg" width="25" height="24" viewBox="0 0 25 24">
    <g fill="none" fill-rule="evenodd">
        <g fill="#88F7B7">
            <g>
                <path d="M1192.408 208c-6.621 0-12.008 5.383-12.008 12s5.387 12 12.008 12c6.622 0 12.009-5.383 12.009-12s-5.387-12-12.009-12zm-3.928 7h7.84c1.701 0 3.08 1.379 3.08 3.08v4.84c0 1.701-1.379 3.08-3.08 3.08h-7.84c-1.701 0-3.08-1.379-3.08-3.08v-4.84c0-1.701 1.379-3.08 3.08-3.08zm2.22 3l4 2.5-4 2.5v-5z" transform="translate(-1180 -1840) translate(0 1632)"/>
            </g>
        </g>
    </g>
</svg>
