<svg xmlns="http://www.w3.org/2000/svg" width="24" height="18" viewBox="0 0 24 18">
    <g fill="none" fill-rule="evenodd">
        <g>
            <g>
                <path stroke="#637CFF" stroke-linecap="round" stroke-linejoin="round" stroke-width="1.95" d="M21.54 2.42c-.241-.966-.981-1.729-1.94-2C17.88 0 11 0 11 0S4.12 0 2.4.46C1.443.731.703 1.494.46 2.46.147 4.206-.007 5.976 0 7.75c-.01 1.787.143 3.571.46 5.33.267.935 1.003 1.663 1.94 1.92 1.72.46 8.6.46 8.6.46s6.88 0 8.6-.46c.959-.271 1.699-1.034 1.94-2 .313-1.732.467-3.49.46-5.25.012-1.787-.142-3.571-.46-5.33z" transform="translate(-175 -1952) translate(176 1953)"/>
                <path fill="#2FD3BC" d="M13.43 7.142L9.798 5.075c-.336-.191-.764-.074-.955.262-.06.106-.091.225-.091.346v4.134c0 .386.313.7.7.7.12 0 .24-.032.346-.092l3.634-2.067c.336-.19.453-.618.262-.954-.062-.11-.153-.2-.262-.262z" transform="translate(-175 -1952) translate(176 1953)"/>
            </g>
        </g>
    </g>
</svg>
