<?xml version="1.0" encoding="utf-8"?>
<!-- Generator: Adobe Illustrator 25.2.1, SVG Export Plug-In . SVG Version: 6.00 Build 0)  -->
<svg version="1.1" id="Layer_1" xmlns="http://www.w3.org/2000/svg" xmlns:xlink="http://www.w3.org/1999/xlink" x="0px" y="0px"
	 viewBox="0 0 417.4 421.6" style="enable-background:new 0 0 417.4 421.6;" xml:space="preserve">
<style type="text/css">
	.st0{fill:#A90D2C;}
</style>
<path class="st0" d="M217.4,17.9c1.8,0.6,3.7,0.4,5.6,0.6c27.5,2.1,53.5,9.6,77.8,22.8c37.3,20.3,65.2,49.8,83.9,88
	c0.6,1.2,0.4,1.7-0.8,2.3c-6.5,2.9-12.9,5.9-19.3,9c-1.1,0.5-1.5,0.4-2-0.7c-19.8-40.4-50.6-69.1-92.3-85.8
	c-14.3-5.7-29.2-9.3-44.6-10.7c-46.5-4.3-88.2,7.9-124.9,36.9c-20.3,16.1-35.9,36-47.1,59.3c-0.7,1.4-1.2,1.5-2.5,0.9
	c-6.4-3-12.7-6-19.2-8.9c-1.1-0.5-1.3-0.9-0.7-2c18.6-38.2,46.4-67.6,83.6-88c16.8-9.2,34.7-15.6,53.4-19.5c9.5-2,19-3.2,28.7-3.7
	c0.4,0,0.9,0.2,1.2-0.3C204.5,17.9,211,17.9,217.4,17.9z"/>
<path class="st0" d="M12.3,204.1c0.7-1.8,0.4-3.7,0.6-5.6c1.3-17.2,4.9-33.9,10.5-50.2c0.5-1.5,1-1.7,2.5-1.1
	c6.6,2.5,13.2,4.9,19.8,7.3c1,0.4,1.3,0.7,0.9,1.8c-4.4,12.3-7.3,25-8.8,37.9c-1.4,12.1-1.4,24.3-0.2,36.4c1.4,13.8,4.4,27.3,9,40.4
	c0.4,1,0,1.3-0.8,1.6c-6.8,2.5-13.7,4.9-20.5,7.5c-1.1,0.4-1.4,0.2-1.8-0.9c-5.4-15.2-8.9-30.7-10.3-46.7c-0.3-2.8-0.4-5.5-0.6-8.3
	c0-0.3,0.1-0.7-0.3-0.8C12.3,216.9,12.3,210.5,12.3,204.1z"/>
<path class="st0" d="M201.1,409.2c-49.4-1-97.1-21.3-135.9-61.9c-13.9-14.6-25.1-31.2-33.8-49.4c-0.6-1.3-0.6-1.8,0.8-2.5
	c6.4-2.9,12.8-5.9,19.2-8.9c1-0.5,1.5-0.6,2,0.6c15.8,32.6,39.5,57.9,71,75.8c18,10.2,37.3,16.7,57.8,19.8
	c13.8,2.1,27.6,2.6,41.4,1.2c43.3-4.3,79.8-22.4,109.6-54c12-12.7,21.6-27,29.1-42.8c0.5-1.1,1-1.2,2-0.7c6.5,3.1,12.9,6.1,19.5,9.1
	c1.1,0.5,1.3,0.9,0.7,2c-26.1,52.4-67,87.3-123.2,104.1C244,406.9,226,409.1,201.1,409.2z"/>
<path class="st0" d="M138.7,192.5c0-17.7,0-35.4,0-53.1c0-1.3,0.2-1.8,1.7-1.9c5.7-0.5,11.4-1.2,17.2-1.9c1.3-0.2,1.5,0.2,1.5,1.4
	c0,12.5,0,25-0.1,37.5c0,1.6,0.5,1.8,1.9,1.5c7.5-1.6,15-2.1,22.6-0.6c11.1,2.1,18.4,8.5,21.6,19.2c3.6,12.1,3.7,24.5,0.3,36.7
	c-3.2,11.6-11.3,18-22.9,20.2c-13.4,2.5-26.5,0.9-39.4-2.7c-1.4-0.4-3.4-0.4-4.2-1.5c-0.7-1-0.3-2.8-0.3-4.3
	C138.7,226.1,138.7,209.3,138.7,192.5z M159,213.4c0,6.3,0,12.6,0,18.9c0,1,0.2,1.4,1.3,1.6c3.9,0.8,7.8,1.3,11.8,1.2
	c7.5-0.3,11.9-3.6,13.6-10.8c1.7-7.5,1.7-15.1-0.3-22.6c-1.4-5.3-4.9-8.6-10.5-9.4c-4.9-0.8-9.7-0.2-14.6,0.8
	c-1,0.2-1.4,0.6-1.3,1.7C159.1,201,159,207.2,159,213.4z"/>
<path class="st0" d="M354.6,222.1c0,7.9,0,15.9,0,23.8c0,1.1-0.3,1.6-1.4,1.9c-11.6,3.4-23.4,5.4-35.5,4.5
	c-5.8-0.4-11.4-1.4-16.6-4.3c-5.5-3.1-8.4-8-9.4-14.1c-0.9-5.4-0.8-10.8,1-16.1c2.4-7,7.8-10.2,14.6-11.7c6.8-1.5,13.7-1.5,20.6-1.9
	c1.7-0.1,3.5-0.2,5.2-0.3c0.9,0,1.2-0.4,1.1-1.2c0-0.1,0-0.1,0-0.2c0.2-7.4-1.7-9.6-9-10.3c-6.5-0.6-12.9,0-19.3,1
	c-2.6,0.4-5.2,0.9-7.8,1.4c-0.8,0.2-1.2,0.1-1.1-0.9c0.5-4.9,1-9.7,1.5-14.6c0.1-0.7,0.2-1.2,1-1.4c12.1-3.2,24.3-4.3,36.7-1.6
	c3.5,0.8,6.8,2.1,9.8,4.2c5.3,3.8,7.8,9.1,8.3,15.4c0.7,8.5,0.2,16.9,0.3,25.4C354.6,221.4,354.6,221.7,354.6,222.1z M334.2,226.2
	c0-2.3-0.1-4.6,0-6.8c0-1.1-0.4-1.3-1.4-1.3c-3.2,0.3-6.5,0.4-9.7,0.7c-2.3,0.2-4.6,0.3-6.8,0.9c-2.2,0.7-3.8,1.9-4.2,4.3
	c-1.1,6.2,1,9.9,7,11c4.8,0.9,9.5,0.3,14.2-0.4c0.8-0.1,0.9-0.6,0.9-1.3C334.2,231,334.2,228.6,334.2,226.2z"/>
<path class="st0" d="M124.5,221.6c0,8.1,0,16.2,0,24.3c0,1.1-0.4,1.6-1.4,1.9c-11.5,3.4-23.1,5.3-35.2,4.5c-4.8-0.3-9.5-1.1-14-2.9
	c-6.8-2.8-10.9-7.8-12.2-15.1c-0.7-4.1-0.8-8.1-0.2-12.2c1.3-8.6,6.5-13.7,14.8-15.8c5.2-1.3,10.5-1.7,15.8-1.9
	c3.6-0.2,7.2-0.4,10.7-0.6c1,0,1.3-0.4,1.2-1.3c-0.1-0.9,0-1.9-0.1-2.8c-0.6-4.9-2.6-6.9-7.5-7.4c-6.2-0.7-12.4-0.3-18.5,0.5
	c-3.4,0.4-6.8,0.9-10.1,1.7c-0.9,0.2-1.1,0-1-1c0.5-4.9,1-9.8,1.4-14.8c0.1-0.6,0.3-1,0.9-1.1c12.8-3.4,25.8-4.7,38.7-1.1
	c10.6,3,16.2,10.4,16.4,21.4C124.6,205.9,124.4,213.8,124.5,221.6C124.5,221.6,124.5,221.6,124.5,221.6z M104.2,226.3
	c0-2.3,0-4.7,0-7c0-1-0.3-1.3-1.3-1.2c-3.5,0.3-6.9,0.4-10.4,0.7c-2.1,0.2-4.2,0.3-6.3,0.9c-2,0.6-3.5,1.7-4.1,3.8
	c-1.8,5.7,1,10.4,6.8,11.5c4.8,0.9,9.6,0.3,14.4-0.4c0.8-0.1,0.8-0.7,0.8-1.3C104.2,231,104.2,228.7,104.2,226.3z"/>
<path class="st0" d="M219.8,231.4c3.6,1,7.1,2,10.6,2.5c8.1,1.2,16.3,1.9,24.5,0.5c5-0.8,7-4.1,6-8.8c-0.5-2.4-2-3.6-4.3-4.2
	c-2.1-0.5-4.2-0.7-6.3-0.7c-5.8-0.1-11.6,0-17.3-1.3c-1.6-0.4-3.1-0.8-4.7-1.4c-6-2.5-9.1-7.2-9.9-13.5c-0.6-5-0.4-10,1.3-14.8
	c2.4-6.6,7.4-10.6,13.9-12.7c8-2.6,16.3-2.9,24.7-2.1c5,0.4,10,1.3,14.9,2.7c0.7,0.2,1.2,0.4,1.3,1.3c0.4,4.8,0.8,9.6,1.4,14.4
	c0.1,1.2-0.2,1.3-1.3,1.1c-8.1-1.7-16.3-2.7-24.6-2.5c-2.4,0.1-4.8,0.3-7.1,1c-3.5,1.1-4.6,3.8-4.2,7.3c0.2,1.7,1.4,2.6,2.9,3.2
	c2.1,0.7,4.3,0.9,6.4,0.9c6.1,0.2,12.3,0.1,18.3,1.6c8.9,2.2,14.1,8.1,15,17.2c0.5,4.8,0.4,9.6-1.1,14.2
	c-2.2,6.7-7.1,10.6-13.6,12.6c-7.5,2.4-15.2,2.6-22.9,2.4c-7.1-0.2-14-1.4-20.8-3.6c-1.2-0.4-1.6-1-1.7-2.3
	C220.8,241.5,220.3,236.6,219.8,231.4z"/>
<path class="st0" d="M403.6,213.6c0,22.3-3.7,44.1-11.1,65.2c-0.5,1.4-1,1.7-2.5,1.1c-6.6-2.5-13.2-4.9-19.8-7.3
	c-1-0.4-1.3-0.7-0.9-1.8c4.4-12.3,7.3-25,8.8-38c1.4-12.1,1.4-24.3,0.2-36.4c-1.4-13.8-4.4-27.2-9-40.2c-0.4-1-0.1-1.4,0.8-1.7
	c6.9-2.5,13.8-5,20.6-7.5c0.8-0.3,1.2-0.3,1.5,0.7c4.4,12.4,7.6,25.1,9.4,38.2C402.9,195,403.5,204.3,403.6,213.6z"/>
</svg>
