<?xml version="1.0" encoding="utf-8"?>
<!-- Generator: Adobe Illustrator 25.2.1, SVG Export Plug-In . SVG Version: 6.00 Build 0)  -->
<svg version="1.1" id="Layer_1" xmlns="http://www.w3.org/2000/svg" xmlns:xlink="http://www.w3.org/1999/xlink" x="0px" y="0px"
	 viewBox="0 0 595.3 172.1" style="enable-background:new 0 0 595.3 172.1;" xml:space="preserve">
<style type="text/css">
	.st0{fill:#D3E7F7;}
	.st1{fill:#D3E7F7;}
	<!-- .st2{fill:#D3E7F7;} -->
</style>
<path class="st0" d="M8.9,136c0.5-1,0.5-2.1,0.8-3.1c1.8-6.5,6.3-10.5,12.4-12.9c5.5-2.2,11.3-2.8,17.1-2.9c2.8,0,5.6,0,8.5,0
	c0.8,0,1-0.2,1-1c0-2,0-4.1-0.4-6.1c-0.9-3.9-3.3-6.1-7.7-6.6c-2.1-0.3-4.1-0.1-6.1,0.6c-3.3,1.2-5,3.6-5.5,6.9
	c-0.1,0.8-0.4,0.9-1.1,0.9c-5.1,0-10.2,0-15.4,0c-1.4,0-1.4,0-1.2-1.4c1.4-8.8,6.2-14.8,14.4-18.1c6.3-2.5,12.8-2.8,19.4-2.1
	c4.1,0.4,8,1.4,11.6,3.3c6.4,3.5,9.7,9.1,10.5,16.2c0.2,1.6,0.2,3.3,0.2,5c0,14,0,28,0,42c0,0.9-0.2,1.2-1.1,1.2
	c-5.3-0.1-10.6,0-15.9,0c-0.8,0-1.1-0.2-1.1-1c0.1-2.1,0-4.3,0-6.7c-4.3,5.7-9.8,8.6-16.6,9.1c-1.3,0-2.6,0-3.9,0
	c-1.7-0.1-3.4-0.3-5.1-0.7c-6.9-1.7-11.9-5.5-13.9-12.6c-0.3-1.1-0.3-2.2-0.8-3.2C8.9,140.4,8.9,138.2,8.9,136z M48.6,133.5
	c0-1.1-0.1-2.1,0-3c0.1-0.8-0.2-1-1-1c-2.6,0.1-5.1,0-7.7,0c-2,0-4,0.2-5.9,0.7c-3.2,0.8-5.7,2.3-6.5,5.8c-0.3,1.2-0.2,2.4-0.1,3.6
	c0.2,3.1,1.8,5.3,4.7,6.2c4.8,1.5,9.3,0.6,13.2-2.6c1.8-1.5,2.8-3.5,3.1-5.8C48.6,136,48.5,134.6,48.6,133.5z"/>
<path class="st0" d="M554.8,159.1c-5.8-0.3-11.4-1.7-16.3-4.9c-6.6-4.2-10.5-10.4-12.1-18c-2-9.4-2-18.8,1.6-27.8
	c4.2-10.5,12-16.6,23.2-18.5c6.4-1.1,12.7-0.6,18.8,1.7c9.5,3.6,14.8,10.8,16.8,20.6c0.1,0.6,0.1,1.3,0.5,1.9c0,5,0,9.9,0,14.9
	c-0.4,0-0.8,0.1-1.2,0.1c-13.4,0-26.8,0-40.2,0c-0.3,0-0.5,0-0.8,0c-0.6-0.1-0.7,0.2-0.6,0.7c0.2,1.4,0.3,2.9,0.6,4.3
	c1.4,7,4.9,10.7,11.3,11.5c6,0.7,11.8-1.6,14-7.7c0.2-0.7,0.7-0.6,1.2-0.6c4.8,0,9.6,0,14.4,0c0.4,0,0.8,0,1.2-0.1c0,1,0,2,0,2.9
	c-0.2,0.3-0.3,0.7-0.5,1c-1.7,4.4-4.3,8.2-8,11.2c-5.5,4.5-11.9,6.4-18.8,6.8C558.1,159.1,556.5,159.1,554.8,159.1z M556.4,116.7
	c3.9,0,7.8,0,11.7,0c0.8,0,1-0.2,0.9-0.9c-0.2-1.3-0.3-2.5-0.6-3.8c-0.7-3-1.9-5.6-4.5-7.4c-4.7-3.2-11.6-2.5-15.5,1.6
	c-2.6,2.7-3.6,6.1-4.4,9.6c-0.2,0.9,0.1,1,0.9,1C548.7,116.7,552.6,116.7,556.4,116.7z"/>
<path class="st0" d="M176,159.3c-1.1-0.5-2.4-0.4-3.6-0.6c-12.8-2.2-20.9-9.6-24-22.1c-2.3-9.4-2.2-18.9,1.4-28
	C154,98,161.9,91.8,173.1,90c6.6-1.1,13.1-0.6,19.4,2c8.3,3.4,13.1,9.8,14.9,18.4c0.2,1.2,0.3,2.4,0.5,3.6c0.1,0.5-0.1,0.6-0.6,0.6
	c-5.5,0-11,0-16.5,0c-0.5,0-0.6-0.2-0.7-0.6c-0.2-1.3-0.6-2.5-1.1-3.7c-3.5-8.2-13.3-7.5-17.6-3.5c-2.9,2.7-4.3,6-4.9,9.8
	c-1.1,6.5-1.1,13,0.8,19.3c1.3,4.3,3.9,7.5,8.5,8.7c7.3,1.8,13.3-2,15.2-9.4c0.6-2.2,0.6-2.2,2.9-2.2c4.6,0,9.1,0,13.7,0
	c0.5,0,0.9,0,0.8,0.7c-1,9.2-4.6,16.7-12.9,21.5c-4,2.3-8.5,3.4-13.1,3.8c-0.3,0-0.7-0.2-0.9,0.2c-0.2,0-0.3,0-0.5,0
	c-1.4-0.2-2.9-0.3-4.3,0C176.5,159.3,176.3,159.3,176,159.3z"/>
<path class="st1" d="M245.8,159.3c0.2,0,0.3,0,0.3-0.2c1.7,0,3.5,0,5.2,0c0.1,0.1,0.2,0.1,0.3,0.2
	C249.7,159.3,247.8,159.3,245.8,159.3z"/>
<path class="st1" d="M430.7,159.1c0.1,0.1,0.2,0.1,0.3,0.2c-1.6,0-3.2,0-4.7,0c0.2,0,0.3,0,0.3-0.2
	C428,159.1,429.3,159.1,430.7,159.1z"/>
<path class="st0" d="M251.4,159.1c-1.7,0-3.5,0-5.2,0c-6.7-0.4-12.9-2.1-18.3-6.2c-5.9-4.5-9.1-10.6-10.5-17.7
	c-1.5-7.9-1.4-15.9,0.8-23.7c3.5-12.3,13.3-20.4,26-21.7c6.2-0.7,12.3-0.1,18.1,2.4c8.6,3.7,13.5,10.4,15.5,19.4
	c1.1,4.9,0.9,9.9,0.9,14.8c0,0.9,0.4,2.1-0.2,2.6c-0.5,0.6-1.7,0.2-2.6,0.2c-13.2,0-26.3,0-39.5,0c-1.1,0-1.3,0.3-1.2,1.3
	c0.3,2.2,0.6,4.5,1.3,6.6c2.3,6.8,7.6,9.3,14.3,8.7c4.9-0.5,8.5-3,10.3-7.7c0.2-0.4,0.4-0.7,0.9-0.7c5.3,0,10.7,0,16,0
	c0.9,0,0.6,0.5,0.5,1c-1.9,8.4-6.8,14.3-14.6,17.9C260.1,158,255.8,158.9,251.4,159.1z M248,116.7c3.8,0,7.7,0,11.5,0
	c0.8,0,1-0.2,0.9-1c-0.2-1.3-0.3-2.6-0.6-3.9c-1.1-4.6-3.6-8-8.5-8.9c-5.1-1-9.4,0.3-12.5,4.6c-1.8,2.5-2.5,5.3-3,8.3
	c-0.1,0.8,0,1,0.8,0.9C240.4,116.7,244.2,116.7,248,116.7z"/>
<path class="st0" d="M309,100.6c2.1-3.4,4.8-6.2,8.4-8c6.5-3.3,13.2-3.8,20-1.3c6.1,2.2,9.4,7,11,13.1c0.8,3,1,6.1,1,9.2
	c0,14.4,0,28.8,0,43.2c0,0.8-0.2,1.1-1,1.1c-5.6,0-11.1,0-16.7,0c-1,0-1.1-0.3-1.1-1.2c0-13.3,0-26.6,0-39.9c0-1.6,0-3.2-0.3-4.8
	c-1-4.6-3.7-7-8.6-7.3c-7.3-0.5-12.5,4.1-12.6,11.4c-0.1,13.4-0.1,26.7-0.1,40.1c0,1.6,0,1.6-1.6,1.6c-5.4,0-10.8,0-16.1,0
	c-0.9,0-1-0.2-1-1.1c0-21.5,0-43,0-64.5c0-0.9,0.2-1.1,1.1-1.1c5.6,0,11.1,0,16.7,0c0.8,0,1.1,0.2,1.1,1.1
	C309,95.1,309,97.8,309,100.6z"/>
<path class="st0" d="M430.7,159.1c-1.4,0-2.7,0-4.1,0c-10.1-0.7-17.1-7.4-18.4-17.6c-0.3-2.2-0.4-4.3-0.4-6.5c0-14.1,0-28.2,0-42.3
	c0-1.2,0.4-1.4,1.5-1.4c5.3,0.1,10.6,0.1,15.9,0c1.1,0,1.4,0.2,1.4,1.4c-0.1,13.4,0,26.9,0,40.3c0,1.5,0.1,3.1,0.3,4.6
	c0.9,4.8,3.7,7.4,8.6,7.5c6.9,0.2,11.8-4.2,12.2-11.1c0.1-2.2,0.1-4.4,0.1-6.7c0-11.6,0-23.3,0-34.9c0-0.9,0.2-1.2,1.2-1.2
	c5.5,0,11.1,0,16.6,0c0.8,0,1.1,0.2,1.1,1c0,21.5,0,43,0,64.5c0,0.8-0.1,1.1-1,1.1c-5.5,0-11,0-16.5,0c-0.8,0-1-0.2-1-1
	c0-2.8,0-5.6,0-8.8C444.3,155.1,438.4,158.6,430.7,159.1z"/>
<path class="st0" d="M112,159.1c-1.7,0-3.3,0-5,0c-8.2-0.5-15.4-3.1-21.1-9.2c-3.9-4.2-6.2-9.2-7.3-14.8c-1.7-8.6-1.6-17.2,1.4-25.6
	c4-11.1,12-17.6,23.6-19.6c5.8-1,11.5-0.6,17.1,1.2c9.7,3.1,15.4,9.9,17.3,19.9c0.2,1,0.3,1.9,0.4,2.9c0.1,0.6-0.1,0.8-0.7,0.7
	c-5.4,0-10.8,0-16.3,0c-0.6,0-0.8-0.2-0.9-0.7c-0.4-2-1-3.8-2.2-5.5c-3.8-5.7-12.8-5.9-17.6-0.5c-2.4,2.7-3.6,6-4.1,9.5
	c-0.8,6.1-0.9,12.2,0.8,18.1c1.2,4.2,3.5,7.5,7.9,8.9c7.5,2.4,14.2-1.6,16-9.6c0.4-1.8,0.4-1.8,2.2-1.8c4.7,0,9.4,0,14.1,0
	c0.8,0,1,0.1,0.9,1c-0.9,8.4-4.1,15.4-11.2,20.3C122.9,157.5,117.6,158.8,112,159.1z"/>
<path class="st0" d="M365,123.9c0-5.9,0-11.8,0-17.7c0-0.9-0.2-1.1-1.1-1.1c-2,0.1-3.9,0-5.9,0c-0.6,0-0.8-0.1-0.8-0.8
	c0-4.1,0-8.2,0-12.3c0-0.6,0.2-0.8,0.8-0.8c2,0,4,0,6,0c0.8,0,1.1-0.2,1.1-1c-0.1-3.5,0-6.9,0-10.4c0-0.7,0.2-1.1,0.8-1.3
	c5.7-2.3,11.3-4.7,16.9-7c0.8-0.3,1.1-0.3,1.1,0.7c0,6,0,12,0,18.1c0,0.9,0.2,1.1,1.1,1.1c3.6,0,7.1,0,10.7,0c0.8,0,1,0.2,1,1
	c0,4-0.1,7.9,0,11.9c0,0.9-0.3,1-1.1,1c-3.5,0-7.1,0-10.6,0c-0.8,0-1.1,0.1-1.1,1c0,10.1,0,20.2,0,30.2c0,1,0,1.9,0.2,2.9
	c0.7,2.9,2.5,4.6,5.5,4.7c2.2,0.1,4.4,0,6.6-0.8c0.8-0.3,0.8,0,0.8,0.6c0,4.3,0,8.6,0,12.9c0,0.5-0.1,0.8-0.7,1
	c-6.9,1.6-13.9,2-20.7-0.5c-6.3-2.3-9.3-7.2-10.2-13.5c-0.6-4.4-0.3-8.8-0.4-13.2C364.9,128.2,365,126,365,123.9z"/>
<path class="st1" d="M379,37c-6-2.3-11.9-4.6-17.8-6.8c-4.8-1.8-9.6-3.7-14.4-5.5c-0.7-0.3-0.9-0.6-0.9-1.3c0-5.1,0-10.2,0-15.4
	c0-0.9,0.2-1,1-0.7c18.4,7.4,36.8,14.9,55.2,22.3c0.7,0.3,0.9,0.6,0.9,1.3c0,4.1,0,8.2,0,12.3c0,0.7-0.2,1.1-0.9,1.3
	c-18.3,7.4-36.6,14.8-55,22.2c-0.9,0.4-1.2,0.3-1.2-0.8c0.1-5.1,0-10.2,0-15.4c0-0.8,0.2-1.2,1-1.5c10.3-3.8,20.6-7.7,30.9-11.5
	C378.2,37.4,378.6,37.4,379,37z"/>
<path class="st0" d="M499.2,103.2c1.3-2.2,2.5-4.4,4.2-6.2c4.1-4.6,9.5-6.3,15.4-6.4c0.8,0,0.5,0.6,0.5,1c0,4.3,0,8.5,0,12.8
	c0,1.2-0.1,2.4,0,3.6c0.1,0.9-0.2,1.1-1.1,1.1c-3,0-6,0.3-8.9,1.1c-6.7,1.8-10.1,6.3-10.2,13.2c0,11.1,0,22.2,0,33.3
	c0,0.2,0,0.5,0,0.7c0.1,0.8-0.2,0.9-0.9,0.9c-4.9,0-9.7,0-14.6,0c-1,0-2.4,0.4-3-0.2c-0.7-0.6-0.2-2-0.2-3.1c0-20.8,0-41.6,0-62.4
	c0-1.1,0.3-1.3,1.3-1.3c5.5,0,11,0,16.5,0c0.9,0,1,0.2,1,1C499.2,95.9,499.2,99.5,499.2,103.2z"/>
<!-- <path class="st2" d="M248,116.7c-3.8,0-7.6,0-11.4,0c-0.8,0-0.9-0.2-0.8-0.9c0.5-3,1.3-5.8,3-8.3c3.1-4.3,7.5-5.6,12.5-4.6
	c4.9,1,7.4,4.3,8.5,8.9c0.3,1.3,0.4,2.6,0.6,3.9c0.1,0.8-0.1,1-0.9,1C255.6,116.7,251.8,116.7,248,116.7z"/> -->
</svg>
