<?xml version="1.0" encoding="utf-8"?>
<!-- Generator: Adobe Illustrator 25.2.1, SVG Export Plug-In . SVG Version: 6.00 Build 0)  -->
<svg version="1.1" id="Layer_1" xmlns="http://www.w3.org/2000/svg" xmlns:xlink="http://www.w3.org/1999/xlink" x="0px" y="0px"
	 viewBox="0 0 577.2 213.1" style="enable-background:new 0 0 577.2 213.1;" xml:space="preserve">
<style type="text/css">
	.st0{fill:#D3E7F7;}
</style>
<g>
	<path class="st0" d="M558.7,154.1c-0.7-0.7-1.5-1.3-2.3-1.9l2.8-5.1l12-24.4h-17.4h-3.8H232l-9.8,12.4l-9.5-12.4H124v83.7l88.1,0
		l9.6-12.7l9.5,12.7h53.2V187h12c10.4,0,15.2-3.1,15.2-3.1v22.5h35.1v-13.2l10.7,13.2h160.4l0,0l18.3,0.1c0.1,0,1.9-0.1,4.7-0.7
		c0.1,0,0.1,0,0.2,0c0,0,0.1,0,0.1,0c1.6-0.3,3.2-0.8,4.6-1.3c9-3.1,21.1-10.7,21.1-29.5C566.9,166.2,564.1,159.2,558.7,154.1z
		 M185.8,147h-35.3v10.7H185v13.2h-34.5V182h35.3v13.6h-51.1V133h51.1V147z M256.2,195.7h-19.7l-14.7-19.3l-14.4,19.3h-19.5l24.9-31
		L187.2,133H207l15.2,19.6l15.2-19.6h19l-25.2,31.3L256.2,195.7z M290.6,175.9h-16.5v19.8H258V133h34.6c14.2,0,22.5,9.2,22.5,21.1
		C315.1,168.5,304.6,175.9,290.6,175.9z M363,195.7l-18.8-22.3h-6.6v22.3h-15.7V133h34.9c11.6,0,21.9,7.1,21.9,20.3
		c0,11.3-8.7,18.5-17.2,19.3l20.6,23.1H363z M436.5,147h-35.3v10.7h34.3v13.2h-34.3V182h35.3v13.6h-51.1V133h51.1V147z M477.1,195.7
		l-33.4,0V182h31.4c4.6,0,6.7-2.5,6.7-5.3c0-2.6-2-5.3-6.7-5.3h-14.2c-12.3,0-19.2-7.5-19.2-18.8c0-10.1,6.3-19.7,24.6-19.7h30.5
		l-6.6,14.1h-26.4c-5,0-6.6,2.6-6.6,5.2c0,2.6,1.9,5.5,5.8,5.5h14.8c13.7,0,19.7,7.8,19.7,18C497.6,186.7,490.9,195.7,477.1,195.7z
		 M554.3,180.7c-0.1,1-0.3,2-0.6,2.9v0c-2.6,7.1-8.9,12-19.1,12l-33.4,0V182h31.4c4.6,0,6.7-2.5,6.7-5.3c0-2.6-2-5.3-6.7-5.3h-14.2
		c-12.3,0-19.2-7.5-19.2-18.8c0-10.1,6.3-19.7,24.6-19.7h29.9v-0.6l0.3,0.8l-6.3,13.9h-26.4c-5,0-6.6,2.6-6.6,5.2
		c0,2.6,1.9,5.5,5.8,5.5h14.8c10.1,0,15.9,4.2,18.4,10.4v-0.7c0.1,0.5,0.2,0.9,0.3,1.4c0.5,1.8,0.8,3.8,0.8,6.2
		C554.9,177.1,554.7,179,554.3,180.7z"/>
	<path class="st0" d="M270.8,83.5l10.7,13.2h54v-9.3c0,0,9.2,9.3,23.5,9.3h35.8l5.2-13.2h14.2l5.3,13.2h52.8V81.8l9.5,14.8h36.3
		V12.9H482v14.8l-9.9-14.8h-36v26L425,13.2l-62.6-0.2c-16.7,0-26.8,9.5-26.8,9.5v-9.5H142.6l-6.5,18.9l-6.8-18.9h-43V39L75,12.9
		H40.4l-20,46.6v0.3l-15.8,37l15.8-0.3v0.2h24.7l5.3-13.2h14.2l5.3,13.2h200.9V83.5z M446.5,23.2h19.9l25.4,39.4V23.2h15.7v62.7
		h-19.3l-26.1-40.4v40.4h-15.7V23.2z M417.7,23.3L444.7,86h-17.9l-4.9-12.6h-28.9l-5,12.6h-17.6l27-62.7H417.7z M364,23.2h17.3v14.8
		h-18c-8.6,0-14.6,6.7-14.6,16.9c0,12.1,6.9,17.2,16.9,17.2h4.1l-6.6,13.7h-3.5c-16.7,0-26.9-13.2-26.9-31.1
		C332.9,36.5,342.9,23.2,364,23.2z M309.2,23.2h16v62.7h-16V23.2z M76.9,86L72,73.4H43.1l-5,12.6H21l-0.3-0.4l26.8-62.3h20.4
		L94.9,86H76.9z M175.1,85.9h-15.7V39.7l-16.6,46.2h-13.7l-16.7-46.2v46.2H96.7V23.2l24.9,0.1l14.5,40.4l14.2-40.5h24.7V85.9z
		 M237,37.3h-35.3V48h34.5v13.2h-34.5v11.1H237v13.6h-51.1V23.2H237V37.3z M261.7,63.7V86h-15.7V23.3h34.9
		c11.6,0,21.9,7.1,21.9,20.3c0,11.3-8.7,18.5-17.2,19.3L306.3,86h-19.2l-18.8-22.3H261.7z"/>
	<polygon class="st0" points="48.6,59.8 66.3,59.8 57.5,37.8 	"/>
	<path class="st0" d="M279.6,37.3h-17.9v13.2h18.1c3.1,0,7.2-2.4,7.2-6.6C287.1,40.6,283.9,37.3,279.6,37.3z"/>
	<polygon class="st0" points="407.3,37.8 398.4,59.8 416.1,59.8 	"/>
	<path class="st0" d="M291.5,147.2h-17.4v14.4h17.3c4.6,0,7.8-3,7.8-7.2C299.2,149.9,296,147.2,291.5,147.2z"/>
	<path class="st0" d="M355.5,147h-17.9v13.2h18.1c3.1,0,7.2-2.4,7.2-6.6C363,150.3,359.8,147,355.5,147z"/>
</g>
</svg>
