<?xml version="1.0" encoding="utf-8"?>
<!-- Generator: Adobe Illustrator 19.2.1, SVG Export Plug-In . SVG Version: 6.00 Build 0)  -->
<svg version="1.1" id="Layer_1" xmlns="http://www.w3.org/2000/svg" xmlns:xlink="http://www.w3.org/1999/xlink" x="0px" y="0px"
	 viewBox="0 0 250 38.5" style="enable-background:new 0 0 250 38.5;" xml:space="preserve">
<style type="text/css">
	.st0{display:none;}
	.st1{display:inline;fill:#D3E7F7;}
	.st2{display:inline;fill:#D3E7F7;stroke:#1B3549;stroke-miterlimit:10;}
	.st3{fill:url(#SVGID_1_);}
	.st4{fill:url(#SVGID_2_);stroke:#1B3549;stroke-width:0.25;stroke-miterlimit:10;}
	.st5{display:inline;fill:#D3E7F7;}
	.st6{display:inline;fill:#D3E7F7;}
	.st7{display:inline;fill:#1B3549;}
	.st8{display:inline;fill:#D3E7F7;}
	.st9{fill:#D3E7F7;}
	.st10{fill:#1B3549;}
	.st11{fill:#D3E7F7;}
	.st12{display:inline;}
	.st13{fill:url(#SVGID_3_);}
	.st14{fill:url(#SVGID_4_);}
	.st15{fill:#D3E7F7;}
	.st16{fill:#D3E7F7;}
	.st17{enable-background:new    ;}
	.st18{fill:#D3E7F7;}
</style>
<g id="Product_Logo">
	<g id="Outline" class="st0">
		<path class="st1" d="M38.1,34.2H11.7c-4,0-7.4-3.4-7.4-7.4c0-6,5.3-8.1,9.4-7.9c-0.3-9,4.6-14.5,11.8-14.5c7.4,0,12.5,6,11.9,14.5
			c3.6,0,9.4,1.7,9.4,7.9c0,0.4,0,0.6,0,1.1c1.1-1.5,2.3-2.8,4-3.6c-1.1-4.5-4.7-8.1-9.4-8.9C41,6.7,34,0.2,25.5,0.2
			S10,6.7,9.6,15.2C4.3,16.3,0,21,0,26.7c0,6.4,5.3,11.7,11.7,11.7h24.9C36.8,36.9,37.4,35.4,38.1,34.2z"/>
		<path class="st2" d="M53.8,9.7l-17,17.4l-8.1-7.7L23.2,25l13.6,13.2l22.7-23L53.8,9.7z"/>
	</g>
	<g id="Gradient">
		
			<linearGradient id="SVGID_1_" gradientUnits="userSpaceOnUse" x1="22.8211" y1="699.9475" x2="22.8211" y2="731.4797" gradientTransform="matrix(1 0 0 1 0 -700)">
			<stop  offset="0" style="stop-color:#D3E7F7"/>
			<stop  offset="1" style="stop-color:#D3E7F7"/>
		</linearGradient>
		<path class="st3" d="M24.4,0.2c2.9-0.4,6-0.1,8.6,1.4c2.3,1.2,4,3.4,5.1,5.7c0.8,1.9,1.3,3.9,1.4,5.9c2.1,0,4.5,0.3,6.1,1.7
			c-3,3-6.1,6-9.1,9c-2.3-2.3-4.5-4.6-6.8-7c-2,1.8-3.8,3.8-5.7,5.6c-0.6,0.6-1.1,1.1-1.7,1.7c4.7,4.7,9.4,9.5,14.1,14.2
			c-8.2,0-16.4,0-24.6,0c-0.8,0-1.4-0.3-2.2-0.5c-3-1-5.8-2.8-7.6-5.5c-1.9-2.8-2.3-6.3-1.7-9.6c0.5-2.6,2-5.1,4-6.8
			c1.8-1.6,4.1-2.7,6.4-3.3c1-0.3,2.1-0.1,3.1-0.2c0.3-3.3,1.4-6.6,3.7-9C19.2,1.7,21.7,0.5,24.4,0.2L24.4,0.2z"/>
		
			<linearGradient id="SVGID_2_" gradientUnits="userSpaceOnUse" x1="40.45" y1="710.7" x2="40.45" y2="738.4" gradientTransform="matrix(1 0 0 1 0 -700)">
			<stop  offset="0" style="stop-color:#D3E7F7"/>
			<stop  offset="1" style="stop-color:#D3E7F7"/>
		</linearGradient>
		<path class="st4" d="M50.7,10.7c2.3,2.4,4.7,4.7,7,7.1h0.2c-0.5,0.3-0.8,0.8-1.2,1.1c-6.6,6.5-13.2,13-19.8,19.5
			C32.2,33.7,27.6,29,23,24.2c2.3-2.1,4.5-4.4,6.7-6.5c2.3,2.3,4.6,4.6,6.8,7C41.2,20,45.9,15.4,50.7,10.7L50.7,10.7z"/>
	</g>
	<g id="Solid_1_" class="st0">
		<path class="st5" d="M24.4,0.2c2.9-0.4,6-0.1,8.6,1.4c2.3,1.2,4,3.4,5.1,5.7c0.8,1.9,1.3,3.9,1.4,5.9c2.1,0,4.5,0.3,6.1,1.7
			c-3,3-6.1,6-9.1,9c-2.3-2.3-4.5-4.6-6.8-7c-2,1.8-3.8,3.8-5.7,5.6c-0.6,0.6-1.1,1.1-1.7,1.7c4.7,4.7,9.4,9.5,14.1,14.2
			c-8.2,0-16.4,0-24.6,0c-0.8,0-1.4-0.3-2.2-0.5c-3-1-5.8-2.8-7.6-5.5c-1.9-2.8-2.3-6.3-1.7-9.6c0.5-2.6,2-5.1,4-6.8
			c1.8-1.6,4.1-2.7,6.4-3.3c1-0.3,2.1-0.1,3.1-0.2c0.3-3.3,1.4-6.6,3.7-9C19.2,1.7,21.7,0.5,24.4,0.2L24.4,0.2z"/>
		<path class="st6" d="M50.7,10.7c2.3,2.4,4.7,4.7,7,7.1h0.2c-0.5,0.3-0.8,0.8-1.2,1.1c-6.6,6.5-13.2,13-19.8,19.5
			C32.2,33.7,27.6,29,23,24.2c2.3-2.1,4.5-4.4,6.7-6.5c2.3,2.3,4.6,4.6,6.8,7C41.2,20,45.9,15.4,50.7,10.7L50.7,10.7z"/>
	</g>
	<g id="Stacked_1_" class="st0">
		<path class="st5" d="M79.1,0.3c0.9,0,1.7,0,2.6,0c0,6.2,0,12.3,0,18.5c-0.9,0-1.7,0-2.6,0C79.1,12.6,79.1,6.4,79.1,0.3L79.1,0.3z"
			/>
		<path class="st5" d="M120.2,0.3c0.9,0,1.7,0,2.6,0c0,6.2,0,12.3,0,18.5c-0.8,0-1.7,0-2.5,0c0-0.5,0-1,0-1.5
			c-0.6,0.8-1.4,1.4-2.3,1.7c-1.7,0.6-3.7,0-4.9-1.3c-1.1-1.3-1.6-3-1.6-4.7s0.6-3.6,1.9-4.8c1.9-1.7,5.1-1.6,6.8,0.3
			C120.2,5.7,120.2,3,120.2,0.3L120.2,0.3z"/>
		<path class="st5" d="M63.2,4.6C64.9,2.3,67.6,1,70.4,1c2.3,0,4.6,1.1,6.3,2.8c-0.6,0.6-1.3,1.2-2,1.8c-1.1-1.1-2.6-2-4.2-2.1
			c-2.1-0.2-4.1,0.9-5.3,2.6c-1.7,2.3-1.6,5.8,0.2,8.1c1.4,1.9,4.1,2.8,6.4,2c1.1-0.3,2-1.1,2.9-1.9c0.6,0.6,1.3,1.1,1.9,1.7
			c-1.5,1.8-3.8,2.9-6.2,2.9C68,19,65.5,18,63.8,16.3C60.9,13.4,60.6,8,63.2,4.6L63.2,4.6z"/>
		<path class="st5" d="M88.9,7c1.8-0.3,3.7,0.1,5.1,1.3c1.9,1.6,2.6,4.3,1.8,6.6c-0.6,1.7-2,3.2-3.7,3.8c-1.9,0.6-4,0.4-5.6-0.9
			c-2.4-1.7-3.1-5.3-1.7-7.9C85.7,8.4,87.2,7.3,88.9,7L88.9,7z"/>
		<path class="st5" d="M98.4,7.2c0.9,0,1.7,0,2.6,0c0,2.1,0,4.3,0,6.4c0,0.8,0.1,1.7,0.6,2.3c0.5,0.7,1.4,1.1,2.3,0.9
			c1.1-0.1,2.2-1,2.6-2.1c0.2-0.7,0.2-1.4,0.2-2.1c0-1.8,0-3.6,0-5.4c0.9,0,1.7,0,2.6,0c0,3.8,0,7.7,0,11.5c-0.9,0-1.7,0-2.6,0
			c0-0.5,0-1,0-1.5c-0.9,1.1-2.2,1.8-3.6,1.8c-1.4,0.1-2.9-0.5-3.7-1.7c-0.9-1.2-1-2.7-0.9-4.1C98.4,11.3,98.3,9.2,98.4,7.2
			L98.4,7.2z"/>
		<path class="st7" d="M89.1,9.3c1.3-0.4,2.9,0,3.7,1.2c1,1.4,1,3.5,0,5C92,16.6,90.4,17,89,16.6c-1.3-0.4-2.1-1.7-2.3-3
			C86.4,11.8,87.3,9.8,89.1,9.3L89.1,9.3z"/>
		<path class="st7" d="M116.3,9.3c1.1-0.4,2.4,0,3.1,0.9c0.7,0.8,0.9,1.9,0.9,3s-0.4,2.3-1.3,3.1s-2.4,0.8-3.4,0.1
			c-1.1-0.8-1.5-2.2-1.5-3.5C114,11.3,114.8,9.7,116.3,9.3L116.3,9.3z"/>
		<path class="st8" d="M79.1,19.5c0.9,0,1.7,0,2.6,0c0,2.8,0,5.7,0,8.5c0.7-0.8,1.6-1.5,2.6-1.7c1.4-0.3,3.1,0,4.3,1.1
			c1,1,1.4,2.4,1.4,3.7c0,2.3,0,4.6,0,6.9c-0.9,0-1.7,0-2.6,0c0-2.3,0-4.5,0-6.8c0-0.8-0.3-1.7-0.8-2.2c-0.7-0.8-1.9-0.9-2.8-0.6
			c-1.2,0.5-2,1.8-2,3.1c0,2.1,0,4.3,0,6.4c-0.9,0-1.7,0-2.6,0C79.1,31.8,79.1,25.7,79.1,19.5L79.1,19.5z"/>
		<path class="st8" d="M118,19.6c0.9,0,1.7,0,2.6,0c0,3.7,0,7.4,0,11.1c1.3-1.4,2.5-2.9,3.7-4.3c0.9,0,1.9,0,2.8,0
			c-1.2,1.4-2.5,2.8-3.7,4.3c1.7,2.4,3.4,4.8,5.1,7.2c-0.9,0-1.9,0-2.8,0c-1.3-1.8-2.6-3.6-3.9-5.4c-0.4,0.5-0.9,1-1.3,1.4
			c0,1.3,0,2.6,0,4c-0.9,0-1.7,0-2.6,0C118,31.9,118,25.8,118,19.6L118,19.6z"/>
		<path class="st8" d="M64.8,22.3c2-1.6,4.7-2.3,7.1-1.8c1.8,0.3,3.5,1.3,4.8,2.6c-0.6,0.6-1.3,1.2-1.9,1.8
			c-1.1-1.1-2.6-2.1-4.3-2.1c-1.9-0.1-3.7,0.8-4.9,2.3c-1.8,2.3-1.9,5.7-0.2,8.1c1.1,1.6,3,2.6,5,2.6c1.7,0,3.4-0.9,4.5-2.2
			c0.7,0.6,1.3,1.1,2,1.7c-1.3,1.4-3.1,2.5-5.1,2.8c-2.7,0.5-5.6-0.4-7.6-2.3c-1.7-1.7-2.7-4-2.7-6.5C61.4,26.7,62.6,24,64.8,22.3
			L64.8,22.3z"/>
		<path class="st8" d="M93.6,28c1.6-1.9,4.4-2.4,6.7-1.5c1.4,0.6,2.4,1.8,2.8,3.2c0.3,1,0.4,2,0.3,3.1c-2.9,0-5.8,0-8.7,0
			c0.1,1.2,0.8,2.5,1.9,3c1.7,0.8,3.9,0.2,4.9-1.4c0.6,0.5,1.2,0.9,1.7,1.4c-0.8,1-1.8,1.9-3.1,2.3c-2,0.5-4.3,0.3-5.9-1
			C91.7,34.9,91.5,30.6,93.6,28L93.6,28z"/>
		<path class="st8" d="M106.7,28c1.6-1.9,4.5-2.4,6.7-1.4c0.8,0.3,1.4,0.9,2,1.4c-0.6,0.6-1.1,1.1-1.7,1.7c-0.6-0.6-1.3-1.1-2.1-1.3
			c-1.3-0.3-2.8,0.4-3.4,1.7c-0.7,1.3-0.7,3,0.1,4.3c0.7,1.2,2.4,1.8,3.7,1.3c0.7-0.2,1.3-0.7,1.7-1.4c0.6,0.5,1.3,1,1.9,1.5
			c-0.8,1.1-2,1.9-3.3,2.2c-2,0.4-4.1-0.1-5.5-1.6C104.7,34.3,104.6,30.3,106.7,28L106.7,28z"/>
		<path class="st8" d="M132.7,27.9c0.7-1.1,1.9-1.8,3.1-1.8c0,0.8,0,1.7,0,2.5c-0.6,0-1.3,0.2-1.8,0.6c-0.9,0.6-1.3,1.7-1.3,2.8
			c0,2,0,4.1,0,6.1c-0.9,0-1.7,0-2.6,0c0-3.8,0-7.7,0-11.5c0.9,0,1.7,0,2.6,0C132.7,26.9,132.7,27.4,132.7,27.9L132.7,27.9z"/>
		<path class="st7" d="M96.2,28.8c1.1-0.8,2.8-0.7,3.8,0.3c0.6,0.5,0.8,1.3,0.9,2c-2,0-4,0-6.1,0C95,30.2,95.4,29.3,96.2,28.8
			L96.2,28.8z"/>
	</g>
	<g id="Linear">
		<g>
			<path class="st9" d="M85.5,6.5c1.2,0,2.4,0,3.6,0c0,8.3,0,16.7,0,25c-1.2,0-2.4,0-3.6,0C85.5,23.2,85.5,14.9,85.5,6.5L85.5,6.5z"
				/>
			<path class="st9" d="M141.3,6.5c1.1,0,2.3,0,3.4,0c0,8.3,0,16.7,0,25c-1.1,0-2.2,0-3.3,0c0-0.7,0-1.4,0-2.1
				c-0.8,1-1.9,1.9-3.1,2.3c-2.3,0.7-5,0-6.6-1.8c-1.6-1.7-2.2-4.1-2.2-6.4c0-2.4,0.8-4.8,2.6-6.5c2.6-2.3,6.9-2.1,9.2,0.5
				C141.3,13.9,141.3,10.2,141.3,6.5L141.3,6.5z"/>
			<path class="st9" d="M63.9,12.4c2.3-3.1,6-4.9,9.8-4.8c3.2,0,6.3,1.4,8.5,3.8c-0.9,0.9-1.7,1.7-2.6,2.5c-1.5-1.5-3.4-2.7-5.7-2.8
				c-2.8-0.2-5.6,1.2-7.2,3.5c-2.3,3.2-2.2,7.9,0.3,11c2,2.6,5.6,3.8,8.7,2.7c1.5-0.5,2.8-1.5,4-2.6c0.9,0.8,1.7,1.6,2.6,2.3
				c-2.1,2.4-5.2,3.9-8.4,4c-3.3,0.2-6.7-1.1-9-3.5C60.7,24.3,60.3,17.1,63.9,12.4L63.9,12.4z"/>
			<path class="st9" d="M98.8,15.6c2.4-0.5,5.1,0.1,6.9,1.8c2.6,2.1,3.4,5.9,2.4,9c-0.7,2.4-2.6,4.3-5,5.1c-2.5,0.9-5.5,0.5-7.6-1.1
				c-3.3-2.4-4.2-7.2-2.3-10.7C94.4,17.6,96.5,16.1,98.8,15.6L98.8,15.6z"/>
			<path class="st9" d="M111.6,15.9c1.1,0,2.3,0,3.5,0c0,2.9,0,5.8,0,8.7c0,1.1,0.2,2.3,0.9,3.1c0.7,1,2,1.4,3.1,1.3
				c1.6-0.2,3-1.4,3.4-2.9c0.3-0.9,0.2-1.9,0.3-2.9c0-2.5,0-4.9,0-7.4c1.1,0,2.3,0,3.4,0c0,5.2,0,10.4,0,15.6c-1.1,0-2.3,0-3.4,0
				c0-0.7,0-1.4,0-2c-1.2,1.4-2.9,2.5-4.8,2.5c-1.9,0.1-4-0.7-5.1-2.3c-1.1-1.6-1.3-3.6-1.3-5.5C111.6,21.4,111.6,18.7,111.6,15.9
				L111.6,15.9z"/>
			<path class="st10" d="M99,18.7c1.8-0.6,4,0,5.1,1.6c1.4,2,1.4,4.8,0,6.8c-1.1,1.6-3.4,2.2-5.2,1.6c-1.7-0.6-2.9-2.3-3.1-4
				C95.4,22.3,96.6,19.5,99,18.7L99,18.7z"/>
			<path class="st10" d="M135.9,18.7c1.4-0.5,3.2,0,4.2,1.2c0.9,1.1,1.2,2.6,1.1,4c0,1.5-0.5,3.1-1.7,4.2c-1.3,1.1-3.3,1.1-4.6,0.1
				c-1.4-1.1-2.1-3-2-4.7C132.9,21.5,134,19.4,135.9,18.7L135.9,18.7z"/>
		</g>
		<g>
			<path class="st11" d="M173,6.5c1.1,0,2.3,0,3.4,0c0,3.8,0.1,7.7-0.1,11.5c0.9-1.1,2.1-2,3.6-2.4c2-0.5,4.3,0,5.7,1.4
				c1.3,1.3,1.8,3.3,1.9,5.1c0,3.1,0,6.3,0,9.4c-1.1,0-2.3,0-3.5,0c0-3.1,0-6.1,0-9.2c0-1.1-0.3-2.2-1.1-3c-1-1-2.6-1.2-3.9-0.7
				c-1.6,0.7-2.6,2.5-2.6,4.2c0,2.9,0,5.8,0,8.7c-1.1,0-2.3,0-3.4,0C173,23.2,173,14.9,173,6.5L173,6.5z"/>
			<path class="st11" d="M225.8,6.7c1.2,0,2.4,0,3.6,0c0,5.1,0,10.1,0,15.1c1.7-2,3.4-4,5.1-5.9c1.3,0,2.6,0,3.9,0
				c-1.7,2-3.4,3.9-5.1,5.8c2.3,3.3,4.6,6.5,7,9.8c-1.3,0-2.6,0-3.9,0c-1.7-2.5-3.5-4.9-5.3-7.4c-0.6,0.7-1.1,1.3-1.7,2
				c0,1.8,0,3.6,0,5.4c-1.2,0-2.4,0-3.6,0C225.8,23.3,225.8,15,225.8,6.7L225.8,6.7z"/>
			<path class="st11" d="M153.5,10.3c2.7-2.2,6.3-3.1,9.7-2.4c2.5,0.4,4.8,1.7,6.5,3.6c-0.9,0.8-1.7,1.6-2.6,2.5
				c-1.6-1.6-3.6-2.8-5.9-2.8c-2.6-0.1-5.1,1.1-6.7,3.1c-2.5,3.1-2.6,7.8-0.3,11c1.5,2.2,4.1,3.6,6.8,3.5c2.4,0,4.5-1.3,6.1-2.9
				c0.9,0.8,1.8,1.6,2.7,2.3c-1.8,2-4.2,3.4-6.8,3.8c-3.7,0.6-7.7-0.5-10.3-3.1c-2.4-2.3-3.7-5.5-3.7-8.8
				C148.9,16.3,150.6,12.6,153.5,10.3L153.5,10.3z"/>
			<path class="st11" d="M192.6,18.1c2.1-2.6,6-3.2,9.1-2c1.9,0.7,3.2,2.4,3.8,4.3c0.4,1.3,0.5,2.8,0.5,4.2c-3.9,0-7.9,0-11.8,0
				c0.2,1.7,1,3.4,2.6,4.1c2.3,1.1,5.2,0.2,6.6-1.9c0.8,0.6,1.6,1.2,2.4,1.9c-1,1.4-2.4,2.6-4.1,3.1c-2.7,0.7-5.7,0.5-8-1.3
				C190.1,27.5,189.7,21.6,192.6,18.1L192.6,18.1z"/>
			<path class="st11" d="M210.5,18.1c2.2-2.5,6.1-3.3,9.1-1.9c1,0.5,2,1.2,2.7,2c-0.8,0.8-1.6,1.5-2.3,2.3c-0.8-0.8-1.7-1.5-2.8-1.7
				c-1.8-0.3-3.8,0.6-4.6,2.3c-0.9,1.8-0.9,4.1,0.2,5.9c1,1.7,3.2,2.4,5.1,1.8c1-0.3,1.8-1,2.4-1.8c0.9,0.7,1.7,1.4,2.6,2
				c-1.1,1.5-2.7,2.6-4.5,3c-2.6,0.6-5.6-0.2-7.5-2.2C207.6,26.6,207.6,21.2,210.5,18.1L210.5,18.1z"/>
			<path class="st11" d="M245.7,17.9c0.9-1.4,2.6-2.5,4.3-2.5c0,1.1,0,2.2,0,3.4c-0.9,0-1.7,0.3-2.5,0.8c-1.2,0.8-1.8,2.3-1.8,3.7
				c0,2.8,0,5.5,0,8.3c-1.1,0-2.3,0-3.4,0c0-5.2,0-10.4,0-15.6c1.1,0,2.3,0,3.4,0C245.7,16.6,245.7,17.2,245.7,17.9L245.7,17.9z"/>
			<path class="st10" d="M196.1,19.1c1.5-1,3.8-1,5.1,0.3c0.7,0.7,1.1,1.7,1.3,2.7c-2.8,0-5.5,0-8.2,0
				C194.6,21,195.1,19.8,196.1,19.1L196.1,19.1z"/>
		</g>
	</g>
</g>
<g id="Support_Logo" class="st0">
	<g id="Gradient_1_" class="st12">
		<g>
			
				<linearGradient id="SVGID_3_" gradientUnits="userSpaceOnUse" x1="47.5834" y1="699.4418" x2="47.5834" y2="790" gradientTransform="matrix(1 0 0 1 0 -700)">
				<stop  offset="0" style="stop-color:#D3E7F7"/>
				<stop  offset="1" style="stop-color:#D3E7F7"/>
			</linearGradient>
			<path class="st13" d="M91.7,24.1c-7.1,7.1,0,0-7.2,7.1c-5.4-5.5-10.3,1.8-14.8,8c-1.9,2.6-2.4-2.6-7.6,12.5
				c-0.5,1.4-0.6,17,0.4,18.6c7.7,12.1,21.6,8.5,32.7,19.7c-19.3,0-48.5,0-67.7,0c-1.8,0-3.4-0.7-5.1-1.2c-7-2.4-13.6-6.6-17.8-12.9
				c-4.4-6.5-5.5-14.9-4-22.5c1.1-6.2,4.6-11.9,9.3-15.9c4.3-3.7,9.6-6.3,15.1-7.8c2.4-0.8,4.9-0.3,7.3-0.4
				C33,21.5,35.7,13.7,40.9,8c4.2-4.7,10.2-7.5,16.4-8.2l0,0C64.2-1.1,71.4-0.4,77.6,3c5.4,2.9,9.5,7.9,12,13.5"/>
		</g>
		
			<linearGradient id="SVGID_4_" gradientUnits="userSpaceOnUse" x1="92.35" y1="723.1289" x2="92.35" y2="789.9711" gradientTransform="matrix(1 0 0 1 0 -700)">
			<stop  offset="0" style="stop-color:#D3E7F7"/>
			<stop  offset="1" style="stop-color:#D3E7F7"/>
		</linearGradient>
		<path class="st14" d="M94.5,23.2c-20.2-1.3-36.8,15.4-35.6,35.6C60,75.4,73.5,88.9,90.2,89.9c20.2,1.3,36.8-15.4,35.6-35.6
			C124.7,37.7,111.1,24.2,94.5,23.2z M117.3,44.3l-7.3,4.1c-1.9-4.3-5.4-7.7-9.6-9.7l4.1-7.3C110.1,34.3,114.6,38.8,117.3,44.3z
			 M94.1,70.4c-9.1,1.2-16.8-6.5-15.6-15.6c0.8-6.2,5.8-11.2,12-12c9.1-1.2,16.8,6.5,15.6,15.6C105.4,64.6,100.3,69.6,94.1,70.4z
			 M80.1,31.6l4.1,7.3c-4.3,2-7.7,5.4-9.6,9.7l-7.3-4.1C70,38.8,74.5,34.3,80.1,31.6z M67.3,68.8l7.3-4.1c1.9,4.3,5.4,7.7,9.6,9.7
			l-4.1,7.3C74.5,78.8,70,74.3,67.3,68.8z M104.6,81.5l-4.1-7.3c4.3-2,7.7-5.4,9.6-9.7l7.3,4.1C114.6,74.3,110.1,78.8,104.6,81.5z"
			/>
	</g>
	<g id="Solid_2_" class="st12">
		<g>
			<path class="st15" d="M94.5,24.1c-7.1,7.1,0,0-7.2,7.1C82,25.7,77,33,72.6,39.2c-1.9,2.6-2.4-2.6-7.6,12.5
				c-0.5,1.4-0.6,17,0.4,18.6C73.1,82.4,87,78.8,98.1,90c-19.3,0-48.5,0-67.7,0c-1.8,0-3.4-0.7-5.1-1.2c-7-2.4-13.6-6.6-17.8-12.9
				C3.1,69.4,2,61,3.5,53.4c1.1-6.2,4.6-11.9,9.3-15.9c4.3-3.7,9.6-6.3,15.1-7.8c2.4-0.8,4.9-0.3,7.3-0.4c0.6-7.7,3.3-15.5,8.5-21.2
				C48,3.3,54,0.5,60.2-0.3l0,0c6.9-0.9,14.1-0.2,20.3,3.2c5.4,2.9,9.5,7.9,12,13.5"/>
		</g>
		<path class="st16" d="M97.4,23.2c-20.2-1.3-36.8,15.4-35.6,35.6C62.9,75.4,76.4,88.9,93,89.9c20.2,1.3,36.8-15.4,35.6-35.6
			C127.5,37.7,114,24.2,97.4,23.2z M120.2,44.3l-7.3,4.1c-1.9-4.3-5.4-7.7-9.6-9.7l4.1-7.3C113,34.3,117.5,38.8,120.2,44.3z
			 M97,70.4c-9.1,1.2-16.8-6.5-15.6-15.6c0.8-6.2,5.8-11.2,12-12c9.1-1.2,16.8,6.5,15.6,15.6C108.2,64.6,103.2,69.6,97,70.4z
			 M83,31.6l4.1,7.3c-4.3,2-7.7,5.4-9.6,9.7l-7.3-4.1C72.9,38.8,77.4,34.3,83,31.6z M70.2,68.8l7.3-4.1c1.9,4.3,5.4,7.7,9.6,9.7
			L83,81.5C77.4,78.8,72.9,74.3,70.2,68.8z M107.5,81.5l-4.1-7.3c4.3-2,7.7-5.4,9.6-9.7l7.3,4.1C117.5,74.3,113,78.8,107.5,81.5z"/>
		<g>
			<path class="st16" d="M119.1,24.8c5.5,5.6,11,11.1,16.4,16.7c0.1,0,0.4-0.1,0.5-0.1c-1.1,0.8-1.9,1.8-2.9,2.7
				C117.6,59.4,102,74.6,86.6,89.9c-11-11.1-21.9-22.2-32.8-33.3c5.4-5,10.5-10.3,15.8-15.4c5.4,5.5,10.8,10.9,16.1,16.4
				C96.9,46.7,108,35.8,119.1,24.8L119.1,24.8z"/>
		</g>
	</g>
	<g id="Stacked_2_" class="st12">
		<path class="st15" d="M176.1,0.3c2.1,0,4.1,0,6.2,0c0,14.5,0,28.9,0,43.4c-2.1,0-4.1,0-6.2,0C176.1,29.2,176.1,14.7,176.1,0.3
			L176.1,0.3z"/>
		<path class="st15" d="M272.6,0.3c2,0,4,0,6,0c0,14.5,0,28.9,0,43.4c-1.9,0.1-3.9,0-5.8,0c0-1.2,0-2.4,0-3.6
			c-1.4,1.8-3.2,3.2-5.4,3.9c-4,1.3-8.7,0-11.5-3.1c-2.7-3-3.8-7.1-3.7-11.1c-0.1-4.1,1.4-8.4,4.5-11.2c4.4-4,12-3.7,15.9,0.8
			C272.7,13,272.6,6.6,272.6,0.3L272.6,0.3z"/>
		<path class="st15" d="M138.6,10.4c3.9-5.3,10.4-8.5,17-8.3c5.5,0,10.9,2.5,14.7,6.6c-1.5,1.4-3,2.8-4.6,4.3
			c-2.6-2.6-6-4.7-9.8-4.9c-4.9-0.4-9.7,2.1-12.5,6.1c-4,5.5-3.8,13.7,0.5,19c3.4,4.5,9.7,6.6,15.1,4.7c2.6-0.8,4.8-2.6,6.8-4.5
			c1.5,1.4,3,2.7,4.5,4.1c-3.6,4.2-9,6.8-14.5,6.9c-5.7,0.3-11.6-2-15.6-6.1C133.1,31.1,132.4,18.5,138.6,10.4L138.6,10.4z"/>
		<path class="st15" d="M199.1,16c4.2-0.8,8.8,0.3,12,3.1c4.4,3.7,6,10.2,4.2,15.6c-1.3,4.1-4.6,7.5-8.6,8.9
			c-4.4,1.5-9.5,0.9-13.2-2c-5.7-4.1-7.2-12.5-3.9-18.6C191.5,19.4,195.1,16.8,199.1,16L199.1,16z"/>
		<path class="st15" d="M221.3,16.5c2,0,4,0,6,0c0,5,0,10.1,0,15.1c0,1.9,0.3,3.9,1.5,5.4c1.2,1.7,3.4,2.5,5.4,2.2
			c2.7-0.3,5.2-2.4,6-5c0.5-1.6,0.4-3.3,0.4-5c0-4.3,0-8.5,0-12.8c2,0,4,0,6,0c0,9,0,18.1,0,27.1c-2,0-4,0-6,0c0-1.2,0-2.3,0-3.5
			c-2.1,2.5-5.1,4.3-8.4,4.3c-3.3,0.2-6.9-1.2-8.8-4c-2-2.8-2.3-6.3-2.2-9.6C221.3,26.1,221.2,21.3,221.3,16.5L221.3,16.5z"/>
		<path class="st10" d="M199.5,21.4c3.1-1,6.8,0.1,8.8,2.8c2.4,3.4,2.4,8.3,0,11.7c-1.9,2.8-5.8,3.8-9,2.7c-3-1-5-3.9-5.4-7
			C193.2,27.5,195.3,22.7,199.5,21.4L199.5,21.4z"/>
		<path class="st10" d="M263.4,21.4c2.5-0.9,5.6-0.1,7.3,2c1.6,1.9,2,4.5,2,7c0,2.7-0.9,5.5-3,7.2c-2.2,1.9-5.7,1.9-8,0.2
			c-2.5-1.9-3.6-5.1-3.5-8.2C258.1,26.3,260,22.5,263.4,21.4L263.4,21.4z"/>
		<path class="st11" d="M176.1,45.6c2,0,4,0,6,0c-0.1,6.6,0.1,13.3-0.1,19.9c1.6-1.9,3.7-3.6,6.2-4.1c3.4-0.8,7.4-0.1,10,2.5
			c2.3,2.3,3.2,5.6,3.3,8.8c0,5.4,0,10.9,0,16.3c-2,0-4,0-6,0c0-5.3,0-10.6,0-15.9c0-1.9-0.6-3.9-1.9-5.2c-1.7-1.8-4.5-2.2-6.7-1.3
			c-2.8,1.2-4.6,4.2-4.6,7.3c0,5,0,10.1,0,15.1c-2,0-4,0-6,0C176.1,74.5,176.1,60,176.1,45.6L176.1,45.6z"/>
		<path class="st11" d="M267.5,45.8c2.1,0,4.1,0,6.2,0c0,8.7,0,17.5,0,26.2c3-3.4,5.9-6.8,8.8-10.2c2.2,0,4.5,0,6.7,0
			c-2.9,3.4-5.9,6.7-8.8,10.1c4,5.6,8.1,11.3,12.1,17c-2.2,0-4.5,0-6.7,0c-3-4.3-6.1-8.5-9.1-12.7c-1,1.2-2,2.3-3,3.4
			c0,3.1,0,6.2,0,9.3c-2.1,0-4.1,0-6.2,0C267.5,74.6,267.5,60.2,267.5,45.8L267.5,45.8z"/>
		<path class="st11" d="M142.3,52c4.6-3.8,11-5.3,16.8-4.2c4.3,0.7,8.2,3.1,11.2,6.2c-1.5,1.4-3,2.8-4.5,4.2
			c-2.7-2.7-6.2-4.9-10.2-4.9c-4.4-0.2-8.8,1.9-11.5,5.4c-4.3,5.3-4.5,13.5-0.5,19c2.6,3.8,7.1,6.2,11.7,6.1c4.1,0,7.9-2.2,10.6-5.1
			c1.6,1.3,3.1,2.7,4.7,4.1c-3.1,3.4-7.3,5.9-11.9,6.6c-6.4,1.1-13.2-0.9-17.8-5.5c-4.1-3.9-6.4-9.5-6.4-15.2
			C134.3,62.4,137.2,56,142.3,52L142.3,52z"/>
		<path class="st11" d="M210.1,65.6c3.7-4.5,10.4-5.6,15.7-3.6c3.2,1.3,5.6,4.2,6.5,7.5c0.8,2.3,0.9,4.8,0.8,7.2
			c-6.8,0-13.6,0-20.4,0c0.3,2.9,1.8,5.9,4.5,7.1c4,1.9,9.1,0.4,11.5-3.3c1.4,1.1,2.8,2.1,4.1,3.3c-1.8,2.4-4.2,4.5-7.2,5.3
			c-4.6,1.2-10,0.8-13.8-2.3C205.7,81.8,205.1,71.6,210.1,65.6L210.1,65.6z"/>
		<path class="st11" d="M240.9,65.5c3.8-4.4,10.5-5.7,15.8-3.3c1.8,0.8,3.4,2,4.7,3.4c-1.3,1.4-2.7,2.6-4,4c-1.4-1.4-3-2.7-5-3
			c-3.1-0.6-6.5,1-8,3.9c-1.6,3.1-1.6,7.1,0.3,10.2c1.7,2.9,5.6,4.2,8.8,3.1c1.7-0.5,3.1-1.7,4.1-3.2c1.5,1.2,3,2.4,4.5,3.5
			c-1.9,2.6-4.6,4.5-7.7,5.2c-4.6,1-9.7-0.3-13-3.7C236.1,80.4,235.9,71,240.9,65.5L240.9,65.5z"/>
		<path class="st11" d="M302,65.3c1.6-2.5,4.4-4.3,7.4-4.2c0,1.9,0,3.9,0,5.8c-1.5,0.1-3,0.4-4.3,1.3c-2.1,1.4-3.1,4-3.1,6.5
			c0,4.8,0,9.6,0,14.3c-2,0-4,0-6,0c0-9,0-18.1,0-27.1c2,0,4,0,6,0C302.1,63,302.1,64.1,302,65.3L302,65.3z"/>
		<path class="st10" d="M216.2,67.4c2.6-1.8,6.6-1.7,8.9,0.6c1.3,1.2,1.8,3,2.2,4.7c-4.8,0-9.5,0.1-14.3,0
			C213.4,70.6,214.4,68.5,216.2,67.4L216.2,67.4z"/>
	</g>
	<g id="Linear_2_" class="st12">
		<g>
			<path class="st9" d="M168.4,13.6c1.7,0,3.4,0,5,0c0,11.8,0,23.5,0,35.3c-1.7,0-3.4,0-5,0C168.4,37.1,168.4,25.3,168.4,13.6
				L168.4,13.6z"/>
			<path class="st9" d="M247,13.6c1.6,0,3.2,0,4.9,0c0,11.8,0,23.6,0,35.3c-1.6,0.1-3.1,0-4.7,0c0-1,0-2,0-2.9
				c-1.1,1.4-2.6,2.6-4.4,3.2c-3.3,1-7.1,0-9.4-2.6c-2.2-2.4-3.1-5.8-3-9.1c-0.1-3.3,1.1-6.9,3.7-9.1c3.6-3.2,9.8-3,13,0.7
				C247,23.9,247,18.7,247,13.6L247,13.6z"/>
			<path class="st9" d="M137.9,21.8c3.2-4.3,8.5-6.9,13.8-6.7c4.5,0,8.9,2,12,5.4c-1.2,1.2-2.5,2.3-3.7,3.5c-2.1-2.1-4.9-3.8-8-4
				c-4-0.3-7.9,1.7-10.1,4.9c-3.3,4.5-3.1,11.2,0.4,15.5c2.8,3.6,7.9,5.4,12.3,3.8c2.2-0.7,3.9-2.1,5.6-3.6c1.2,1.1,2.5,2.2,3.7,3.3
				c-2.9,3.4-7.3,5.5-11.8,5.6c-4.7,0.2-9.4-1.6-12.7-5C133.4,38.7,132.8,28.4,137.9,21.8L137.9,21.8z"/>
			<path class="st9" d="M187.1,26.4c3.4-0.7,7.1,0.2,9.8,2.5c3.6,3,4.8,8.3,3.4,12.7c-1,3.3-3.7,6.1-7,7.3
				c-3.5,1.2-7.7,0.7-10.7-1.6c-4.6-3.3-5.9-10.2-3.2-15.1C180.9,29.2,183.9,27,187.1,26.4L187.1,26.4z"/>
			<path class="st9" d="M205.2,26.8c1.6,0,3.3,0,4.9,0c0,4.1,0,8.2,0,12.3c0,1.5,0.2,3.2,1.2,4.4c1,1.4,2.8,2,4.4,1.8
				c2.2-0.2,4.2-1.9,4.9-4.1c0.4-1.3,0.3-2.7,0.3-4.1c0-3.5,0-6.9,0-10.4c1.6,0,3.2,0,4.9,0c0,7.4,0,14.7,0,22.1c-1.6,0-3.2,0-4.9,0
				c0-1,0-1.9,0-2.9c-1.7,2-4.1,3.5-6.8,3.5c-2.7,0.2-5.6-1-7.2-3.3c-1.6-2.2-1.9-5.1-1.8-7.8C205.2,34.6,205.1,30.7,205.2,26.8
				L205.2,26.8z"/>
			<path class="st10" d="M187.5,30.8c2.5-0.8,5.6,0.1,7.1,2.3c1.9,2.8,1.9,6.8,0,9.5c-1.6,2.3-4.7,3.1-7.3,2.2
				c-2.4-0.8-4.1-3.2-4.4-5.7C182.3,35.8,184,31.8,187.5,30.8L187.5,30.8z"/>
			<path class="st10" d="M239.5,30.8c2.1-0.7,4.6-0.1,5.9,1.7c1.3,1.6,1.7,3.7,1.6,5.7c0,2.2-0.7,4.5-2.5,5.9
				c-1.8,1.5-4.6,1.5-6.5,0.1c-2-1.5-2.9-4.2-2.8-6.6C235.2,34.7,236.7,31.7,239.5,30.8L239.5,30.8z"/>
		</g>
		<g>
			<path class="st11" d="M291.8,13.6c1.6,0,3.2,0,4.9,0c-0.1,5.4,0.1,10.8-0.1,16.2c1.3-1.6,3-2.9,5-3.4c2.8-0.7,6.1-0.1,8.1,2
				c1.9,1.9,2.6,4.6,2.7,7.2c0,4.4,0,8.8,0,13.3c-1.6,0-3.3,0-4.9,0c0-4.3,0-8.6,0-12.9c0-1.5-0.5-3.1-1.6-4.2
				c-1.4-1.4-3.7-1.8-5.5-1c-2.3,1-3.7,3.5-3.7,5.9c0,4.1,0,8.2,0,12.3c-1.6,0-3.2,0-4.9,0C291.8,37.1,291.8,25.3,291.8,13.6
				L291.8,13.6z"/>
			<path class="st11" d="M366.3,13.8c1.7,0,3.4,0,5,0c0,7.1,0,14.2,0,21.3c2.4-2.8,4.8-5.6,7.2-8.3c1.8,0,3.7,0,5.5,0
				c-2.4,2.7-4.8,5.5-7.2,8.2c3.3,4.6,6.6,9.2,9.8,13.8c-1.8,0-3.6,0-5.5,0c-2.5-3.5-4.9-6.9-7.4-10.4c-0.8,0.9-1.6,1.9-2.4,2.8
				c0,2.5,0,5.1,0,7.6c-1.7,0-3.4,0-5,0C366.3,37.2,366.3,25.5,366.3,13.8L366.3,13.8z"/>
			<path class="st11" d="M264.3,18.8c3.8-3.1,8.9-4.3,13.7-3.4c3.5,0.6,6.7,2.5,9.1,5.1c-1.2,1.2-2.5,2.3-3.7,3.5
				c-2.2-2.2-5.1-4-8.3-4c-3.6-0.2-7.2,1.6-9.4,4.4c-3.5,4.3-3.7,11-0.4,15.5c2.1,3.1,5.8,5,9.5,4.9c3.3,0,6.4-1.8,8.7-4.2
				c1.3,1.1,2.5,2.2,3.8,3.3c-2.5,2.8-5.9,4.8-9.7,5.4c-5.2,0.9-10.8-0.7-14.5-4.4c-3.3-3.2-5.2-7.8-5.2-12.3
				C257.8,27.3,260.2,22.1,264.3,18.8L264.3,18.8z"/>
			<path class="st11" d="M319.5,29.9c3-3.7,8.5-4.6,12.8-2.9c2.6,1,4.5,3.4,5.3,6.1c0.6,1.9,0.7,3.9,0.7,5.9c-5.5,0-11.1,0-16.6,0
				c0.2,2.4,1.4,4.8,3.7,5.8c3.2,1.6,7.4,0.3,9.4-2.7c1.1,0.9,2.3,1.7,3.4,2.7c-1.5,2-3.4,3.7-5.8,4.3c-3.8,1-8.1,0.6-11.2-1.9
				C315.9,43.1,315.4,34.8,319.5,29.9L319.5,29.9z"/>
			<path class="st11" d="M344.6,29.8c3.1-3.5,8.6-4.6,12.8-2.7c1.5,0.7,2.8,1.7,3.9,2.8c-1.1,1.1-2.2,2.1-3.3,3.2
				c-1.1-1.1-2.4-2.2-4-2.4c-2.6-0.5-5.3,0.9-6.5,3.2c-1.3,2.5-1.3,5.8,0.2,8.3c1.4,2.3,4.5,3.4,7.1,2.6c1.4-0.4,2.5-1.4,3.4-2.6
				c1.2,0.9,2.4,1.9,3.6,2.9c-1.5,2.1-3.8,3.7-6.3,4.2c-3.7,0.8-7.9-0.3-10.6-3C340.7,41.9,340.5,34.3,344.6,29.8L344.6,29.8z"/>
			<path class="st11" d="M394.4,29.6c1.3-2.1,3.6-3.5,6.1-3.5c0,1.6,0,3.1,0,4.7c-1.2,0-2.5,0.4-3.5,1.1c-1.7,1.2-2.5,3.3-2.5,5.3
				c0,3.9,0,7.8,0,11.7c-1.6,0-3.2,0-4.9,0c0-7.4,0-14.7,0-22.1c1.6,0,3.2,0,4.9,0C394.5,27.7,394.5,28.7,394.4,29.6L394.4,29.6z"/>
			<path class="st10" d="M324.4,31.3c2.1-1.5,5.3-1.4,7.2,0.5c1,1,1.5,2.4,1.8,3.8c-3.9,0-7.8,0.1-11.6,0
				C322.2,34,323,32.3,324.4,31.3L324.4,31.3z"/>
		</g>
	</g>
	<g id="Support" class="st12">
		<text transform="matrix(1 0 0 1 135.0002 75.7503)" class="st18" style="font-family:'Edmondsans-Medium'; font-size:30px;">Support</text>
	</g>
</g>
<g id="Guides" class="st0">
</g>
</svg>
