<?xml version="1.0" encoding="utf-8"?>
<!-- Generator: Adobe Illustrator 25.2.1, SVG Export Plug-In . SVG Version: 6.00 Build 0)  -->
<svg version="1.1" id="レイヤー_3" xmlns="http://www.w3.org/2000/svg" xmlns:xlink="http://www.w3.org/1999/xlink" x="0px"
	 y="0px" viewBox="0 0 226.8 61.8" style="enable-background:new 0 0 226.8 61.8;" xml:space="preserve">
<style type="text/css">
	.st0{fill:#D3E7F7;}
</style>
<path class="st0" d="M193.9,19.7c-2.4,0-4.9,0.4-7.2,1.2c-0.5,0.2-1.4,0.6-1.4,0.6l1.2,4.2l0.2-0.1l1.3-0.4c1.7-0.6,3.5-0.9,5.3-1
	c1.3-0.1,2.6,0.2,3.7,1c0.8,0.8,1.2,2,1.1,3.1h-4.3c-3.1,0-5.6,0.7-7.3,2c-1.6,1.2-2.6,3.1-2.5,5.1c-0.1,1.9,0.7,3.6,2.1,4.9
	c1.4,1.2,3.2,1.8,5,1.8h0.3c1.6,0.1,3.3-0.2,4.8-0.8c0.6-0.3,1.3-0.6,1.8-0.9v1.7h4.8v-14c0.1-2.1-0.7-4.2-2.2-5.8
	C198.9,20.5,196.4,19.6,193.9,19.7z M198,33.1v1.9c-0.7,0.8-1.5,1.4-2.5,1.9c-0.9,0.5-1.9,0.8-3,0.9c-2.6,0.2-4.1-0.7-4.1-2.3
	c0-0.9,0.8-1.6,1.7-1.9c1.3-0.4,2.7-0.5,4.1-0.5H198z"/>
<path class="st0" d="M171.1,19.7c-1.9,0-3.7,0.4-5.3,1.2v-1.2h-5.2v29h5.2V41c1.7,0.8,3.5,1.2,5.3,1.2c3,0.1,5.8-1,7.9-3.1
	c2-2.2,3.1-5.1,3-8.1c0.1-3-1-5.9-3-8.1C176.9,20.7,174,19.6,171.1,19.7z M167.1,36c-0.6-0.6-1.1-1.2-1.4-2c-0.4-1-0.6-2-0.5-3.1
	c0-1.1,0.2-2.1,0.5-3.1c0.8-2.2,3-3.6,5.4-3.5c1.5,0,2.9,0.5,4,1.5c1.3,1.3,2.1,3.2,1.9,5.1c0.1,1.9-0.6,3.8-1.9,5.2
	c-0.6,0.5-1.3,0.9-2,1.1c-1.4,0.5-2.8,0.5-4.2,0C168.3,36.9,167.7,36.5,167.1,36z"/>
<path class="st0" d="M221.6,13.2v7.7c-1.7-0.8-3.5-1.2-5.3-1.2c-3-0.1-5.8,1-7.9,3.1c-2,2.2-3.1,5.1-3,8.1c-0.1,3,1,5.9,3,8.1
	c2.1,2.1,5,3.2,7.9,3.1c1.9,0,3.7-0.4,5.3-1.2v1.2h5.2v-29L221.6,13.2z M222.1,30.9c0,1.1-0.2,2.1-0.5,3.1c-0.8,2.2-3,3.6-5.4,3.5
	c-1.5,0-2.9-0.5-4-1.5c-1.3-1.3-2.1-3.2-1.9-5.1c-0.1-1.9,0.6-3.8,1.9-5.2c0.6-0.5,1.2-0.8,1.9-1.1c1.4-0.5,2.8-0.5,4.2,0
	c0.7,0.2,1.3,0.6,1.9,1.1c0.6,0.6,1.1,1.2,1.4,2C222,28.8,222.2,29.9,222.1,30.9z"/>
<polygon class="st0" points="158.2,23.6 155,19.6 143.8,28.4 143.8,13.2 138.6,13.2 138.6,42.2 143.8,42.2 143.8,35 146.5,32.8 
	154.5,42.3 158.4,38.9 150.6,29.7 "/>
<path class="st0" d="M100.3,19.7c-3.1-0.1-6,1-8.2,3.1c-2.1,2.2-3.2,5.1-3,8.1c-0.1,3,0.9,5.9,3,8.1c4.7,4.2,11.8,4.2,16.5,0
	c2.1-2.2,3.2-5.1,3-8.1c0.1-3-1-5.9-3-8.1C106.3,20.7,103.4,19.6,100.3,19.7z M104.4,36c-0.6,0.5-1.3,0.9-2,1.1
	c-1.4,0.5-2.9,0.5-4.3,0c-0.7-0.2-1.4-0.6-2-1.1c-1.4-1.3-2.1-3.2-2-5.2c-0.1-1.9,0.6-3.8,2-5.1c2.4-1.9,5.8-1.9,8.2,0
	c1.4,1.3,2.1,3.2,2,5.1C106.5,32.8,105.8,34.7,104.4,36z"/>
<path class="st0" d="M124.7,19.7c-3.1-0.1-6,1-8.2,3.1c-2.1,2.2-3.1,5.1-3,8.1c-0.1,3,0.9,5.9,3,8.1c4.7,4.2,11.8,4.2,16.5,0
	c2.1-2.2,3.1-5.1,3-8.1c0.4-5.9-4.1-10.9-9.9-11.3C125.5,19.6,125.1,19.7,124.7,19.7L124.7,19.7z M128.8,36c-0.6,0.5-1.3,0.9-2,1.1
	c-1.4,0.5-2.9,0.5-4.3,0c-0.7-0.2-1.4-0.6-2-1.1c-1.4-1.3-2.1-3.2-2-5.2c-0.1-1.9,0.6-3.8,2-5.1c2.4-1.9,5.8-1.9,8.2,0
	c1.4,1.3,2.1,3.2,2,5.1C130.9,32.8,130.2,34.7,128.8,36z"/>
<path class="st0" d="M72.1,30.9c0,1.2,0.3,2.4,0.8,3.4c0.5,0.9,1.2,1.6,2,2.2c1,0.7,2.3,1,3.5,1c0.6,0,1.3-0.1,1.9-0.2
	c1.7-0.4,3.2-1.4,4.4-2.7l0.2-0.2l3.3,3.3c-0.6,0.7-1.3,1.3-2,1.9c-2.3,1.7-5,2.6-7.9,2.6c-3.6,0.1-6.9-1.5-9.1-4.3
	c-1.4-2-2.1-4.4-2.1-6.9c0-2.5,0.7-4.9,2.1-6.9c2.2-2.8,5.6-4.4,9.2-4.3c2.8,0,5.6,0.9,7.8,2.6c0.7,0.6,1.4,1.2,2,1.9l-3.3,3.3
	l-0.2-0.2C83.5,26,82,25,80.3,24.6c-0.6-0.1-1.2-0.2-1.9-0.2c-1.2,0-2.5,0.3-3.5,1c-0.8,0.5-1.5,1.3-2,2.1
	C72.4,28.6,72.1,29.7,72.1,30.9z"/>
<path class="st0" d="M30.9,0C13.8,0,0,13.8,0,30.9C0,48,13.8,61.8,30.9,61.8S61.8,48,61.8,30.9C61.8,13.8,48,0,30.9,0z M51.4,27.1
	c-0.9,2.6-3.3,4.4-6.1,4.4c-0.2,0-0.3,0-0.5,0l0.2-1.7c0.1-0.8-0.5-1.6-1.3-1.7C42.8,28,42,28.6,42,29.4c0,0-0.6,5-1.2,9.8H21.2
	c-0.9,0.1-1.5,0.8-1.4,1.7c0.1,0.8,0.7,1.4,1.4,1.4h19.2c-0.3,2.1-0.5,3.9-0.6,4.5H17.2c0.3-2.3,1.5-11.9,1.9-15.6h-0.2
	c-3.5,0-6.4-2.9-6.4-6.4c0-3.5,2.9-6.4,6.4-6.4c1.9,0,3.7,0.9,4.9,2.4c0.2,0.2,0.4,0.2,0.4-0.1c0.2-3.6,3.3-6.3,6.8-6
	c3.1,0.2,5.6,2.6,6,5.6c-0.2,0.4-0.4,0.8-0.6,1.3l2.6,1.5c1.1-3.4,4.7-5.2,8.1-4.1C50.6,20.1,52.5,23.7,51.4,27.1z"/>
<path class="st0" d="M45.3,15.7c-2.1,0-4.2,0.7-5.8,2c-2-4.8-7.5-7-12.3-5c-1.8,0.7-3.3,2-4.3,3.6c-1.2-0.6-2.6-0.9-3.9-0.9
	c-5.2,0-9.5,4.3-9.4,9.5c0,4,2.5,7.5,6.3,8.9L14,48.2c-0.1,0.4,0.1,0.9,0.4,1.2c0.3,0.3,0.7,0.5,1.1,0.5h25.7c0.8,0,1.4-0.6,1.5-1.4
	l1.7-14c0.3,0,0.6,0,0.9,0c5.2,0,9.5-4.3,9.5-9.5s-4.3-9.5-9.5-9.5L45.3,15.7z M45.3,31.5c-0.2,0-0.4,0-0.5,0l0.2-1.7
	c0.1-0.8-0.5-1.6-1.3-1.7C42.8,28,42,28.6,42,29.5c0,0-0.6,5-1.2,9.8H21.1c-0.9,0.1-1.5,0.8-1.4,1.7c0.1,0.8,0.7,1.4,1.4,1.4h19.2
	c-0.3,2.1-0.5,3.9-0.6,4.5H17.1c0.3-2.3,1.5-11.9,1.9-15.6h-0.2c-3.5,0-6.4-2.9-6.4-6.4s2.9-6.4,6.4-6.4c1.9,0,3.7,0.9,4.9,2.4
	c0.2,0.2,0.4,0.2,0.4-0.1c0.2-3.6,3.3-6.3,6.8-6c3.1,0.2,5.6,2.6,6,5.6c-0.2,0.4-0.4,0.8-0.6,1.3l2.6,1.4c1.1-3.4,4.7-5.2,8.1-4.1
	c3.4,1.1,5.2,4.7,4.1,8.1C50.5,29.7,48,31.5,45.3,31.5L45.3,31.5z"/>
</svg>
