<?xml version="1.0" encoding="utf-8"?>
<!-- Generator: Adobe Illustrator 19.0.0, SVG Export Plug-In . SVG Version: 6.00 Build 0)  -->
<svg version="1.1" id="layer" xmlns="http://www.w3.org/2000/svg" xmlns:xlink="http://www.w3.org/1999/xlink" x="0px" y="0px"
	 viewBox="-153 -46 652 652" style="enable-background:new -153 -46 652 652;" xml:space="preserve">
<style type="text/css">
	.st0{fill:#D3E7F7;}
</style>
<path class="st0" d="M21.5,253.5c0,0,16.2-13.7,36-13.7v26.3c-38.5-0.5-36,30.4-36,30.4v60.8H-2.3V241.9h23.8
	C21.5,241.9,21.5,253.5,21.5,253.5z M161.4,241.9h23.3v64.3c0,29.4-23.3,54.2-52.7,54.2s-52.7-24.8-52.7-54.2v-64.3h23.3v64.3
	c0,16.2,13.2,29.9,29.4,29.9s29.4-13.7,29.4-29.9L161.4,241.9z M208,357.4V241.9h23.8v116H208V357.4z M-72.7,263.2
	c-19.8,0-36,16.2-36,36s16.2,36,36,36c12.2,0,22.8-6.1,29.9-15.7l18.7,14.2c-11.7,15.7-29.4,25.3-48.6,25.3
	c-32.9,0.5-59.3-26.3-59.3-59.8s26.9-59.8,59.3-59.8c19.3,0,38,9.6,48.6,25.3l-18.7,14.2C-49.4,269.2-60.5,263.2-72.7,263.2z
	 M376.2,288.5h68.9c-6.6-28.4-34.5-27.4-34.5-27.4S385.3,259.1,376.2,288.5z M410.1,239.9c0,0,60.8-2,57.8,68.4h-92.2
	c2,8.6,6.1,15.7,12.7,21.8s15.2,9.1,24.8,9.1c0,0,19.8,1,31.4-15.7l17.2,12.7c-4.6,6.6-12.2,12.2-22.3,17.2
	c-8.6,4.1-18.7,6.6-28.4,6.6c-32.9,0-57.8-26.9-57.8-59.8C352.9,266.7,378.2,239.9,410.1,239.9z M326.5,299.1
	c0,0,12.7,7.6,12.2,25.3c0,0,1,24.8-26.3,32.9c0,0-32.4,10.6-58.8-15.7l12.2-16.7c26.9,22.3,44.6,9.6,44.6,9.6
	c3-2.5,4.6-5.6,4.6-9.1c0-9.1-11.7-12.2-11.7-12.2c-3.5-1-7.1-2.5-11.7-3.5c0,0-14.2-3.5-24.8-10.1c-3.5-2.5-6.6-5.6-9.1-9.6
	c-2.5-4.1-3.5-9.1-3.5-15.2c0,0-1-22.8,20.3-32.4c0,0,29.9-12.7,57.8,9.6L320,269.7c-12.7-9.6-25.3-9.1-25.3-9.1
	c-5.6,0-9.1,1-12.2,3.5c-2.5,2.5-4.1,4.6-4.1,7.6c0,0-1,7.1,11.7,12.2c3.5,1,7.1,2.5,11.7,3.5c4.1,1,8.6,3,12.7,4.1
	C318.9,294.6,323,297.1,326.5,299.1L326.5,299.1z M219.6,187.7c9.1,0,16.2,7.1,16.2,16.7c0,9.6-7.1,16.7-16.2,16.7
	c-9.1,0-16.2-7.1-16.2-16.7C203.4,194.8,210.5,187.7,219.6,187.7z"/>
</svg>
