<?xml version="1.0" encoding="utf-8"?>
<!-- Generator: Adobe Illustrator 25.2.1, SVG Export Plug-In . SVG Version: 6.00 Build 0)  -->
<svg version="1.1" id="Layer_1" xmlns="http://www.w3.org/2000/svg" xmlns:xlink="http://www.w3.org/1999/xlink" x="0px" y="0px"
	 viewBox="0 0 175.3 98.1" style="enable-background:new 0 0 175.3 98.1;" xml:space="preserve">
<path fill="#D3E7F7" d="M111.2,93c-4.4-1.7-5.1-3.3-3.4-7.8c2.3-6,5.8-11.4,9.4-16.7c0.3-0.4,0.6-0.9,0.8-1.2c-4.9-2.4-9.8-4.7-14.6-7.3
	c-4.8-2.6-9.1-5.9-13-9.8c-1.5,3-2.9,5.8-4.4,8.6c-1.1,2.1-2.3,4.2-3.6,6.1c-1.4,2-2.8,2.4-5.2,1.7c-4.2-1.2-5.4-3.1-4.3-7.4
	c0.8-2.8,1.9-5.5,3-8.2c0.8-2.1,1.7-4.2,2.6-6.3c0.2-0.4,0.2-1,0-1.3c-1.6-2.9-0.5-6,2.7-7c0.9-0.3,1.4-0.8,1.7-1.6
	c1.4-3.3,2.9-6.7,4.3-10c1.4-3.2,4.1-4.6,7.4-5.1c1.9-0.3,2.7,0.4,3.1,2.4c0.1,0.6,0.2,1.2,0.4,2.1c0.4-0.3,0.7-0.6,1.1-0.8
	c2.7-1.9,5.3-3.9,8.1-5.8c2.1-1.4,4.3-1.4,6.6-0.4c6.3,2.6,9.2,9.1,6.8,16.1c-1.8,5.4-5.7,8.7-10.6,11.2c-1.9,1-3.9,1.8-5.9,2.7
	c0.7,0.6,1.3,1.2,2,1.7c5,4.1,10.4,7.3,16.6,9.2c1.4,0.5,2.7-0.6,2.4-2.1c-1.9-11.6-0.6-23.1,1.9-34.5c0.6-2.5,1.5-3.4,3.2-3.5
	c3.1-0.2,5.4,1.1,6.2,3.4c0.9,2.3,0.4,4.6,0.2,6.9c-0.7,5.4-1.2,10.8-1.8,16.2c0,0.4,0,0.8,0.1,1.5c1.5-1.8,2.8-3.5,4.2-5.1
	c6.6-7.4,13.2-14.8,19.9-22.1c2-2.2,3.9-2.2,6.1-0.1c0.1,0.1,0.1,0.1,0.2,0.2c2.9,2.9,2.9,4.7,0.2,7.7c-6.1,6.8-12.4,13.4-18.4,20.3
	c-8.6,9.8-16.6,20-23.4,31.2c-1.5,2.5-2.7,5.3-4,7.9c-0.4,0.8-0.5,1.6,0.3,2.3c0.8,0.7,0.5,2.1-0.6,2.8c-1.1,0.7-2.4,1.1-3.7,1.7
	c-0.4,0.2-0.8,0.2-1.2,0.3C113.4,93,112.3,93,111.2,93z M95.4,40.4c0.6-0.1,1.3,0,1.9-0.2c4.5-1.1,8.4-3.3,11.5-6.7
	c1.1-1.2,1.9-2.9,2.5-4.4c0.6-1.7-0.5-2.7-2.3-2.3c-0.8,0.2-1.6,0.5-2.3,0.9c-4.9,3.1-8.4,7.4-11.3,12.3
	C95.3,40.1,95.3,40.2,95.4,40.4z"/>
<path fill="#D3E7F7" d="M32.8,8.4c2.2,0,2.3,0,3,2.3c0.3,1,0.8,1.3,1.8,1.1C43.8,10.8,50,10,56.1,9.1c0.6-0.1,1.3,0,1.9,0.1
	c1.3,0.2,2.1,1.1,1.8,2.4c-0.7,3.3-2.4,6.8-6.6,7.3c-5.6,0.7-11.1,1.9-16.7,2.8c-2.2,0.4-3.5,1.6-4.1,3.6c-0.4,1.4-0.1,2.2,1.2,2.7
	c1.4,0.5,2.8,0.8,4.2,1.3c1.7,0.5,3.6,0.9,3.9,3.2c0.2,2.1-1.3,4.8-3.3,5.7c-1.7,0.7-3.4,1.2-5.1,1.8c-1.8,0.6-3.6,1.1-5.4,1.9
	c-2.4,1-4.1,2.7-4.9,5.2c-0.8,2.5-1.7,5-2.1,7.6c-0.4,2.3,0.7,3.3,2.9,2.6c3.7-1.1,7.3-2.4,11-3.6c1.6-0.5,3.2-1,4.8-1.4
	c2-0.4,3.1,0.6,3,2.6c-0.3,3.6-1.6,6.8-5,8.3c-3.7,1.7-7.4,3.3-11.2,4.5c-5.1,1.5-10.4,2.7-15.6,3.8c-2.5,0.5-3.5-0.5-3.3-3.1
	c0.2-2,0.6-4,1-5.9c0.4-2.1,0.2-4-0.6-6c-1.3-3.5-2.6-7-2.8-10.8c-0.1-2.9,1.2-5,3.8-6.2c1.2-0.6,2.4-1.1,3.6-1.5
	c2.2-0.7,3.4-2.3,4-4.4c1.7-6.2,3.5-12.4,5.2-18.6c0.6-2.3,1.8-4.1,4.1-4.9c2.3-0.8,4.6-1.4,6.9-2C32.8,8.1,32.8,8.2,32.8,8.4z"/>
<path fill="#D3E7F7" d="M56.4,48.6c0.7-0.9,1.5-1.8,2.1-2.8c4.7-7.7,9.5-15.4,14.2-23.1c0.7-1.1,1.2-2.2,2-3.3c1.2-1.7,2.9-2.1,4.8-1
	c0.7,0.4,1.4,1,2.1,1.5c2.2,2,2.6,3.8,1.2,6.3c-7.2,12.2-14.9,24-24.4,34.6c-1.6,1.7-3.3,3.2-5.7,3.9c-2.4,0.7-4.3-0.1-5.2-2.5
	c-0.6-1.5-1-3.2-1-4.8c-0.4-7.9-0.6-15.8-0.8-23.7c0-0.5,0.1-1,0.1-1.5c0.4-4.2,1-4.9,5.1-5.7c3.1-0.6,4.8,0.5,5,3.7
	c0.3,3.5,0.2,7,0.3,10.5c0,2.6,0,5.2,0,7.8C56.2,48.5,56.3,48.5,56.4,48.6z"/>
</svg>
