<?xml version="1.0" encoding="UTF-8"?>
<svg width="190px" height="61px" viewBox="0 0 190 61" version="1.1" xmlns="http://www.w3.org/2000/svg" xmlns:xlink="http://www.w3.org/1999/xlink">
    <!-- Generator: Sketch 63.1 (92452) - https://sketch.com -->
    <title>Group 78</title>
    <desc>Created with Sketch.</desc>
    <defs>
        <polygon id="path-1" points="0.124722955 0.0685653631 26.4586257 0.0685653631 26.4586257 29.6480447 0.124722955 29.6480447"></polygon>
    </defs>
    <g id="Customer" stroke="none" stroke-width="1" fill="none" fill-rule="evenodd">
        <g id="Customer-Overview" transform="translate(-625.000000, -1125.000000)">
            <g id="Group-78" transform="translate(625.000000, 1125.000000)">
                <path d="M58.2480946,12.7933187 L58.2480946,12.7893997 C57.5065811,12.7893997 56.7648964,12.7776427 56.0237252,12.7914444 C53.6817613,12.8354053 53.8709054,12.329855 53.8679955,15.0879751 C53.867482,15.7008718 54.1163649,15.959355 54.7397703,15.9429975 C55.7371847,15.917098 56.7363108,15.9573103 57.7337252,15.9315813 C58.3336802,15.9160757 58.6700315,16.1309388 58.6458964,16.7537182 C58.6097793,17.6876316 58.6251847,18.6302349 58.4940676,19.5517098 C58.3456622,20.5950142 57.8242748,21.4733802 56.9357252,22.1005897 C53.4943288,24.5290031 48.2910676,22.5444584 47.5367162,18.4426344 C46.9737342,15.3815589 47.0185811,12.2695366 47.4649955,9.20181592 C47.9043919,6.18129358 49.7881306,4.60722095 52.8370315,4.31431872 C55.0449685,4.10218184 57.023536,4.64044721 58.7641757,5.99232989 C59.347527,6.44539972 59.7364279,6.36241927 60.193455,5.81307849 C61.5936351,4.13046676 61.5777162,3.9524081 59.721536,2.74672095 C57.2532477,1.14300028 54.5530225,0.825902514 51.6850495,1.19837737 C46.9482297,1.8136595 43.5614369,5.06915112 43.1781847,9.79341369 C42.9611396,12.4665087 42.9551486,15.1905506 43.2064279,17.859045 C43.5025541,21.0037824 44.971545,23.6402433 47.9511216,25.0911232 C50.6920856,26.4257964 53.6102117,26.5408103 56.545455,25.796031 C59.7567973,24.9810506 61.9613108,23.0484751 62.4558243,19.706936 C62.7567432,17.6734891 62.6442838,15.5780198 62.6918694,13.5096427 C62.7040225,12.9805785 62.354491,12.783436 61.8413198,12.7892293 C60.6436351,12.8021791 59.4457793,12.7933187 58.2480946,12.7933187" id="Fill-1" fill="#D3E7F7"></path>
                <path d="M95.5030721,16.0247682 C95.5030721,13.4988911 95.5047838,10.9731844 95.5022162,8.44713687 C95.501018,7.31335475 95.461991,7.27518715 94.3733423,7.26922346 C93.8031712,7.26615642 93.2328288,7.26871229 92.6626577,7.26990503 C91.3862342,7.27263128 91.3855495,7.27297207 91.3853784,8.54783799 C91.3846937,12.9752793 91.3718559,17.4025503 91.3966757,21.8296508 C91.400955,22.5970922 91.1772342,23.0073939 90.3573243,23.0247737 C89.133964,23.0505028 87.9085495,23.1912458 86.6892973,23.1440475 C84.9531081,23.0770838 83.9502162,22.2092821 83.6124955,20.506905 C83.4262613,19.5682207 83.3560811,18.5946061 83.3463243,17.6354749 C83.3143153,14.514081 83.3184234,11.3918352 83.3456396,8.27010056 C83.3518018,7.55139106 83.1412613,7.21742458 82.3749279,7.26121508 C81.6077387,7.30517598 80.8357568,7.27944693 80.0661712,7.26291899 C79.5138018,7.25116201 79.216991,7.43927374 79.2202432,8.04535475 C79.2404414,11.9048827 79.1575946,15.7671369 79.278955,19.623257 C79.3895315,23.1414916 81.2636847,25.3088659 84.7064505,25.9706648 C88.0882793,26.6208771 91.3884595,25.9536257 94.6446486,25.021757 C95.3103333,24.8314302 95.520018,24.4386788 95.513,23.7724497 C95.4856126,21.1900028 95.5018739,18.6073855 95.5030721,16.0247682" id="Fill-3" fill="#D3E7F7"></path>
                <path d="M41.9209838,46.1630109 L41.9369027,46.1630109 C41.9369027,48.8872232 41.8754523,51.612969 41.9524793,54.3351366 C42.0471369,57.6795723 43.9786324,59.8782986 47.1096955,60.187388 C48.3428126,60.3090472 49.613245,60.1957372 50.8530378,60.0630025 C52.076227,59.9323126 52.1607856,59.7537427 52.164209,58.5422623 C52.1686595,56.9971561 52.1756775,57.06855 50.6310288,57.2188349 C47.3525874,57.5374662 46.2738667,56.778374 46.1617495,54.1817846 C46.0311459,51.150698 46.1244342,48.1104103 46.1073171,45.0740416 C46.1044072,44.5645723 46.3127225,44.3621478 46.8214432,44.3703265 C47.9044432,44.3877064 48.9879568,44.377483 50.0711279,44.3725416 C52.2237766,44.3626589 52.0743441,44.6518126 52.1096054,42.3627791 C52.121245,41.6212372 51.8473712,41.3467372 51.1101369,41.3654802 C49.7424793,41.3998992 48.3732811,41.3596869 47.0052811,41.3821785 C46.3596234,41.3929131 46.077191,41.1644187 46.0996144,40.487455 C46.1382991,39.325388 46.0908847,38.1604243 46.1165604,36.9976757 C46.1324793,36.2804997 45.9013982,35.9957763 45.1475604,36.2133656 C44.3827676,36.4341925 43.6041099,36.6311645 42.8177495,36.7468601 C42.089245,36.854036 41.903182,37.2265109 41.9098577,37.9051785 C41.9367315,40.6575053 41.9209838,43.4105137 41.9209838,46.1630109" id="Fill-5" fill="#D3E7F7"></path>
                <path d="M67.3965604,50.8219796 C67.4595514,49.7737338 67.4787225,48.9781779 67.5600288,48.1889265 C67.8775514,45.1050187 69.5954252,43.616312 72.639191,43.9167115 C73.4878577,44.0005439 74.3486775,44.3583651 75.1144973,44.7599768 C75.7524523,45.0946249 76.1507676,45.0864461 76.5364162,44.4900774 C76.6589748,44.3004321 76.8238126,44.1382198 76.9652,43.9603316 C77.6449207,43.106502 77.6202721,42.8885718 76.7221369,42.2845355 C74.4928036,40.7847534 72.0548126,40.6349796 69.5086414,41.1974405 C66.4037676,41.8829237 64.3794973,43.7233176 63.6619477,46.8210271 C63.0789387,49.3368511 63.1385063,51.890502 63.6371279,54.4209796 C64.2002811,57.2794601 65.9128486,59.1733567 68.733236,59.9029712 C71.4868667,60.6155466 74.2149928,60.4787226 76.7700649,59.050164 C77.9990739,58.3629768 78.0187586,58.2515411 77.1784793,57.0957785 C77.0449658,56.9119265 76.9138486,56.7256891 76.7936865,56.5333176 C76.4992721,56.0609936 76.1702811,55.9972673 75.6516324,56.2681891 C74.9518847,56.6335075 74.2146505,56.980083 73.4519117,57.1654684 C70.346182,57.9213232 68.2337586,56.5627953 67.6545153,53.4458316 C67.479236,52.502717 67.4626324,51.5302953 67.3965604,50.8219796" id="Fill-7" fill="#D3E7F7"></path>
                <path d="M66.4183514,17.1965304 C66.4183514,19.721726 66.4361532,22.2472623 66.4072252,24.772117 C66.3986667,25.5034355 66.6576486,25.817807 67.400018,25.7816841 C68.0824775,25.7484578 68.768018,25.7835584 69.452018,25.772483 C70.5014685,25.7557846 70.5985225,25.6487791 70.5985225,24.5771897 C70.5988649,20.179226 70.6125586,15.7810919 70.5858559,11.383469 C70.5814054,10.6826506 70.821045,10.2989299 71.5069279,10.2210612 C72.4380991,10.1157595 73.3702973,9.98012821 74.3052342,9.95133212 C76.502045,9.88351648 76.3163243,10.3263628 76.3069099,7.75635447 C76.3069099,7.72806955 76.3156396,7.68819804 76.3007477,7.67286285 C76.0734324,7.44010866 75.8574144,7.02742151 75.6109279,7.00816732 C72.6974234,6.78035447 69.8744685,7.1668014 67.1838288,8.36601369 C66.6064685,8.62330419 66.4003784,8.99731257 66.4070541,9.62077346 C66.4344414,12.1456282 66.4183514,14.6711645 66.4183514,17.1965304" id="Fill-9" fill="#D3E7F7"></path>
                <path d="M98.9042604,51.2912196 L98.9073414,51.2912196 C98.9073414,53.8458927 98.9217198,56.4007363 98.897927,58.9552391 C98.8915937,59.6480492 99.1332874,59.9433369 99.8474135,59.8932419 C100.471675,59.8494514 101.101414,59.8850631 101.728756,59.8842112 C103.002441,59.882848 103.008089,59.8825073 103.008945,58.6156497 C103.012368,54.3010073 103.02726,49.9863648 102.997819,45.6718927 C102.992513,44.8812782 103.228729,44.4208816 104.044531,44.3353453 C105.004801,44.2344737 105.962675,44.0746469 106.92517,44.0410799 C108.94054,43.9708788 108.779981,44.3743648 108.800106,42.0703369 C108.805999,41.3834905 108.536918,41.0972335 107.851549,41.0744011 C105.086107,40.9825603 102.397693,41.2860268 99.8225937,42.3860715 C99.1361973,42.6793145 98.8816658,43.067295 98.8915937,43.7975911 C98.9249721,46.2951832 98.9042604,48.7932866 98.9042604,51.2912196" id="Fill-11" fill="#D3E7F7"></path>
                <path d="M55.4562072,50.6520827 L55.4587748,50.6520827 C55.4587748,53.4323536 55.4695586,56.2129654 55.4509009,58.9930659 C55.4462793,59.6448117 55.6792432,59.9239123 56.3533153,59.8929011 C57.1781892,59.8552447 58.0064865,59.8646162 58.8322162,59.8901749 C59.4277207,59.9085771 59.661027,59.6316916 59.6517838,59.0731497 C59.6430541,58.5626581 59.6452793,58.0518257 59.6452793,57.5411637 C59.6456216,52.5193983 59.6468198,47.4978034 59.6468198,42.4762084 C59.6468198,41.4213173 59.607964,41.3831497 58.5342072,41.3773564 C57.8502072,41.3737782 57.163982,41.4119458 56.4828919,41.3674737 C55.7066306,41.3168676 55.4312162,41.6106218 55.4418288,42.3964654 C55.4788018,45.1477698 55.4562072,47.900267 55.4562072,50.6520827" id="Fill-13" fill="#D3E7F7"></path>
                <path d="M111.795418,50.6512648 L111.80158,50.6512648 C111.80158,53.4298318 111.812022,56.2083989 111.793706,58.9867955 C111.789598,59.6298514 112.004418,59.9259911 112.686193,59.8937872 C113.510553,59.8552788 114.337995,59.8719771 115.163724,59.8873123 C115.746562,59.8982173 115.995959,59.6283179 115.979355,59.0614268 C115.967031,58.6366419 115.979526,58.211005 115.979526,57.7857089 C115.979697,52.6823263 115.980895,47.5789436 115.978499,42.4753905 C115.978157,41.4225441 115.934337,41.382843 114.864175,41.3761978 C114.180688,41.371938 113.494805,41.4109575 112.813886,41.3676782 C112.0354,41.3182648 111.7694,41.6161084 111.780355,42.4009296 C111.819211,45.1505302 111.795418,47.9009827 111.795418,50.6512648" id="Fill-15" fill="#D3E7F7"></path>
                <path d="M92.3544468,35.329036 L92.3575279,35.329036 C92.3575279,35.2158964 92.3576991,35.1025863 92.3575279,34.9892763 C92.3553027,33.6133684 92.2945369,33.5734969 90.9636811,33.9880584 C88.9299964,34.6215723 86.8937441,35.2474187 84.8585189,35.8759913 C83.486582,36.2997539 83.2493387,36.6427511 83.5293748,38.020874 C83.5713117,38.2260249 83.988627,38.5344327 84.1839333,38.5025696 C86.6505099,38.09755 89.1083568,37.6393684 91.5682577,37.1936254 C92.0863928,37.0999103 92.378582,36.8182539 92.3566721,36.263631 C92.3441766,35.9524969 92.3544468,35.6406813 92.3544468,35.329036" id="Fill-17" fill="#D3E7F7"></path>
                <path d="M59.8873029,36.2309159 C59.8937685,34.6546282 59.0854982,33.7798405 57.6134261,33.7701282 C56.0465252,33.759564 55.1658495,34.6583768 55.1598334,36.2741953 C55.1543811,37.7598349 56.0443,38.6293405 57.5684081,38.627809 C59.1185342,38.6266142 59.8805883,37.838726 59.8873029,36.2309159" id="Fill-19" fill="#D3E7F7"></path>
                <path d="M116.19438,36.2731729 C116.204137,34.6137344 115.447389,33.7858042 113.909074,33.7733656 C112.400714,33.7612679 111.584569,34.5886869 111.565398,36.1499802 C111.545029,37.8101003 112.294074,38.6148573 113.872101,38.6288293 C115.427533,38.642631 116.184966,37.8741673 116.19438,36.2731729" id="Fill-21" fill="#D3E7F7"></path>
                <path d="M4.00740811,42.1974316 L4.00381351,42.1974316 C4.00381351,43.1620154 4.0300027,44.1274511 3.99457027,45.0906718 C3.97231802,45.6921522 4.21384054,45.8909986 4.79565135,45.8749818 C5.84938108,45.8461858 6.90619189,45.902926 7.95855225,45.85675 C8.97599369,45.8119372 10.0242459,45.8138115 10.9976964,45.5606103 C12.6311829,45.1358254 13.4769396,43.8343785 13.470134,42.1103617 C13.4635883,40.4456411 12.5969486,39.260912 10.9593541,38.7676299 C8.83272342,38.1269595 6.66860631,38.3852723 4.51801171,38.6118925 C4.32544414,38.632169 4.04557928,39.0557612 4.03068739,39.3050433 C3.97334505,40.2663897 4.00740811,41.2328478 4.00740811,42.1974316 M4.00586757,52.9509818 C4.00586757,54.0292165 4.01939009,55.1076215 3.99970541,56.1855154 C3.9908045,56.673345 4.16129099,56.9442668 4.67514685,56.9440964 C6.74974144,56.9434148 8.84093964,57.1071606 10.8946514,56.9009874 C13.2838586,56.6609064 14.427282,55.1411885 14.4010928,52.7717304 C14.3774712,50.6404791 13.1484622,49.2260628 10.7952009,49.0025098 C8.7610027,48.8091159 6.69975946,48.8948226 4.65066937,48.8580182 C4.11456126,48.8484763 3.99234505,49.1633589 3.99936306,49.6315936 C4.0157955,50.7379427 4.0044982,51.8446327 4.00586757,52.9509818 M14.6254982,46.7015489 C15.2141559,47.1379204 15.7511198,47.4960824 16.2435793,47.9074064 C19.9761378,51.0250517 19.1687234,57.1000042 14.7639757,59.117264 C13.2699937,59.8013841 11.7087414,60.1977137 10.0625883,60.2403115 C7.03987658,60.3185209 4.02657928,60.2730265 1.03570541,59.7313534 C0.272110811,59.5931662 -0.00261891892,59.2777723 9.95707207e-05,58.4956774 C0.0240837838,51.288817 0.0168945946,44.0821271 0.00765135135,36.8752668 C0.0067954955,36.2794092 0.0737234234,35.8077668 0.807191892,35.7186522 C4.54574144,35.2638785 8.30072342,34.7637807 12.0204441,35.6900265 C14.5320387,36.3153617 16.6451468,37.5859679 17.2185703,40.3791885 C17.6862099,42.6579986 17.181255,44.6621383 15.2235703,46.1409623 C15.028264,46.2885209 14.8635973,46.4764623 14.6254982,46.7015489" id="Fill-23" fill="#D3E7F7"></path>
                <path d="M58.2480946,12.7933187 C59.4457793,12.7933187 60.6436351,12.8021791 61.8413198,12.7892293 C62.354491,12.783436 62.7040225,12.9805785 62.6918694,13.5096427 C62.6442838,15.5780198 62.7567432,17.6734891 62.4558243,19.706936 C61.9613108,23.0484751 59.7567973,24.9810506 56.545455,25.796031 C53.6102117,26.5408103 50.6920856,26.4257964 47.9511216,25.0911232 C44.971545,23.6402433 43.5025541,21.0037824 43.2064279,17.859045 C42.9551486,15.1905506 42.9611396,12.4665087 43.1781847,9.79341369 C43.5614369,5.06915112 46.9482297,1.8136595 51.6850495,1.19837737 C54.5530225,0.825902514 57.2532477,1.14300028 59.721536,2.74672095 C61.5777162,3.9524081 61.5936351,4.13046676 60.193455,5.81307849 C59.7364279,6.36241927 59.347527,6.44539972 58.7641757,5.99232989 C57.023536,4.64044721 55.0449685,4.10218184 52.8370315,4.31431872 C49.7881306,4.60722095 47.9043919,6.18129358 47.4649955,9.20181592 C47.0185811,12.2695366 46.9737342,15.3815589 47.5367162,18.4426344 C48.2910676,22.5444584 53.4943288,24.5290031 56.9357252,22.1005897 C57.8242748,21.4733802 58.3456622,20.5950142 58.4940676,19.5517098 C58.6251847,18.6302349 58.6097793,17.6876316 58.6458964,16.7537182 C58.6700315,16.1309388 58.3336802,15.9160757 57.7337252,15.9315813 C56.7363108,15.9573103 55.7371847,15.917098 54.7397703,15.9429975 C54.1163649,15.959355 53.867482,15.7008718 53.8679955,15.0879751 C53.8709054,12.329855 53.6817613,12.8354053 56.0237252,12.7914444 C56.7648964,12.7776427 57.5065811,12.7893997 58.2480946,12.7893997 L58.2480946,12.7933187 Z" id="Fill-25" fill="#D3E7F7"></path>
                <path d="M112.616013,16.2931682 C112.429607,15.0247771 112.315265,13.6103609 111.993634,12.2443358 C111.699049,10.9928134 110.780031,10.212252 109.49967,9.94405642 C107.821679,9.59288045 106.159778,9.75833017 104.510031,10.1657352 C103.98522,10.2954028 103.870364,10.6559503 103.870535,11.1231626 C103.87276,14.6969447 103.876184,18.2705564 103.86419,21.8443385 C103.862319,22.4217939 104.086382,22.8056849 104.66922,22.8366961 C106.194013,22.918143 107.733868,23.1002911 109.244112,22.9702827 C110.765139,22.8390816 111.803634,21.8390564 112.109175,20.3224056 C112.364733,19.0531626 112.440733,17.747967 112.616013,16.2931682 M99.7682468,20.8572631 C99.7682468,17.111386 99.7879315,13.3651682 99.7521695,9.61963184 C99.7449676,8.84673799 99.9929946,8.42740559 100.728175,8.16329944 C104.368301,6.85588883 108.043004,6.16784972 111.839409,7.45924358 C114.315914,8.30165698 115.822391,10.0403274 116.338301,12.578643 C116.840517,15.049995 116.843085,17.5569587 116.385544,20.0240508 C115.75204,23.4410732 113.371049,25.4930927 109.808805,25.9836486 C108.114553,26.216914 106.454193,26.1601737 104.820022,25.6771151 C104.066868,25.4545844 103.851535,25.7212464 103.860265,26.4420006 C103.883715,28.3715089 103.839895,30.3018693 103.878923,32.2308665 C103.895013,33.0190955 103.671463,33.3982156 102.81749,33.3196654 C102.195625,33.2625844 101.564346,33.3102939 100.937175,33.3084196 C99.7821117,33.3053525 99.7699586,33.2956402 99.7691027,32.0950648 C99.7670486,28.8315648 99.768418,25.5682352 99.768418,22.3045648 C99.768418,21.8221877 99.768418,21.3396402 99.7682468,20.8572631" id="Fill-27" fill="#D3E7F7"></path>
                <path d="M34.4626622,51.0625888 C34.3912838,49.7296196 34.3953919,48.790424 34.2815631,47.8655413 C33.8964279,44.7363095 32.2115901,43.4575246 29.0658063,43.8545358 C27.305482,44.0767257 26.120464,45.1176447 25.7877072,46.8389352 C25.3156171,49.2818318 25.3000405,51.7429603 25.7527883,54.1884128 C26.1500766,56.3336363 27.4550856,57.3612648 29.7053018,57.4229464 C32.1398694,57.4897397 33.6059505,56.5324827 34.082491,54.3765246 C34.3490045,53.170667 34.3717703,51.9113067 34.4626622,51.0625888 M38.7289324,50.6875581 C38.5757342,51.9765665 38.5505721,53.296586 38.2446892,54.5486196 C37.4720225,57.7121 35.3707252,59.6371782 32.1559595,60.0600888 C30.4384279,60.2860274 28.5952568,60.2824492 26.9143559,59.9103151 C23.805545,59.2217648 21.8921937,57.064614 21.5106532,53.9347006 C21.2425991,51.7351223 21.2283919,49.4418291 21.5327342,47.2499184 C22.0633649,43.4290693 24.9909054,41.119248 29.0678604,40.9168235 C30.9991847,40.8210637 32.9003829,41.0049156 34.6348604,41.9146335 C37.3996171,43.3650022 38.407473,45.8622536 38.5872027,48.8009883 C38.6250315,49.4225749 38.5926802,50.0484212 38.5926802,50.6723933 C38.6382117,50.6773346 38.6834009,50.6826168 38.7289324,50.6875581" id="Fill-29" fill="#D3E7F7"></path>
                <path d="M132.765564,16.5447506 C132.709933,16.5427059 132.654303,16.5406612 132.598501,16.5386165 C132.598501,15.5178036 132.708564,14.4826779 132.577105,13.4790746 C132.240068,10.9056584 131.140294,9.92710251 128.555438,9.71104665 C126.119159,9.50708855 124.333159,10.6902841 124.075717,13.0263455 C123.841041,15.1557226 123.821699,17.336217 123.981402,19.4737729 C124.194681,22.3310606 125.972123,23.613083 129.138447,23.2298735 C131.068402,22.9962673 132.166294,21.9427394 132.480393,20.0149349 C132.666456,18.8728036 132.676384,17.7023874 132.765564,16.5447506 L132.765564,16.5447506 Z M136.985105,16.5716723 C136.883086,17.7560606 136.896609,18.9643036 136.655942,20.1200662 C136.064204,22.9592925 134.376285,24.908055 131.542204,25.7424601 C128.940744,26.5085383 126.347159,26.4253874 123.854222,25.3248316 C121.662546,24.3571807 120.234807,22.5854545 119.947411,20.2822785 C119.652141,17.9136723 119.558852,15.4457282 119.886474,13.0914349 C120.407177,9.35015838 123.318969,7.01120028 127.125987,6.84387626 C128.22987,6.7954852 129.361996,6.80093771 130.445852,6.98666397 C134.316032,7.64982598 136.669465,10.3580215 136.864258,14.2657701 C136.902429,15.0301444 136.869906,15.7979265 136.869906,16.5641751 L136.985105,16.5716723 Z" id="Fill-31" fill="#D3E7F7"></path>
                <path d="M132.76707,50.6156531 C132.677377,49.4166112 132.682169,48.2165469 132.479845,47.0520944 C132.097106,44.8482564 130.561359,43.7253793 128.195602,43.7712145 C125.868701,43.8165385 124.268935,44.9566251 124.07962,47.1360972 C123.877638,49.4612536 123.873016,51.8332676 124.0928,54.1555274 C124.300773,56.3537425 125.882908,57.4249911 128.260989,57.4241396 C130.621268,57.4234575 132.10207,56.327843 132.474025,54.1602983 C132.673953,52.9949939 132.676007,51.7962927 132.76707,50.6156531 M136.974971,50.7322006 C136.882368,51.8605302 136.879458,53.0048765 136.680557,54.1144631 C136.075467,57.4904212 133.449872,59.9244575 130.001458,60.1812369 C128.455782,60.2960804 126.833079,60.2867089 125.334818,59.9452453 C122.307827,59.2553318 120.347575,57.2442061 119.901332,54.1775078 C119.593737,52.0644883 119.533314,49.8569017 119.76953,47.7367257 C120.231521,43.5923039 123.13989,41.1378207 127.42807,40.9168235 C129.303764,40.8202117 131.149332,40.9921363 132.841016,41.8539743 C135.444187,43.1801279 136.623557,45.4463291 136.854295,48.2581223 C136.921566,49.0754883 136.864566,49.9029073 136.864566,50.7257257 C136.901368,50.7279408 136.938169,50.7299855 136.974971,50.7322006" id="Fill-33" fill="#D3E7F7"></path>
                <path d="M95.5024045,16.0247682 C95.501891,18.6073855 95.4856297,21.1900028 95.5130171,23.7724497 C95.5200351,24.4386788 95.3103505,24.8314302 94.6446658,25.021757 C91.3884766,25.9536257 88.0882964,26.6208771 84.7064676,25.9706648 C81.2635306,25.3088659 79.3895486,23.1414916 79.2789721,19.623257 C79.1576117,15.7671369 79.2404586,11.9048827 79.2202604,8.04535475 C79.2170081,7.43927374 79.5138189,7.25116201 80.0661883,7.26291899 C80.8356027,7.27944693 81.6077559,7.30517598 82.374945,7.26121508 C83.1412784,7.21742458 83.3518189,7.55139106 83.3456568,8.27010056 C83.3184405,11.3918352 83.3143324,14.514081 83.3461703,17.6354749 C83.3560982,18.5946061 83.4262784,19.5682207 83.6125126,20.506905 C83.9502333,22.2092821 84.9531252,23.0770838 86.6893144,23.1440475 C87.9085667,23.1912458 89.1339811,23.0505028 90.3571703,23.0247737 C91.1770802,23.0073939 91.4009721,22.5970922 91.3966928,21.8296508 C91.371873,17.4025503 91.3847108,12.9752793 91.3853955,8.54783799 C91.3855667,7.27297207 91.3862514,7.27263128 92.6626748,7.26990503 C93.2328459,7.26871229 93.8031883,7.26615642 94.3733595,7.26922346 C95.4620081,7.27518715 95.5010351,7.31335475 95.5022333,8.44713687 C95.5048009,10.9731844 95.5030892,13.4988911 95.5024045,16.0247682" id="Fill-35" fill="#D3E7F7"></path>
                <path d="M90.892645,54.4015209 L90.8864829,54.4015209 C90.8864829,53.7201271 90.9292757,53.0348142 90.8626901,52.3598953 C90.8399243,52.128845 90.5441405,51.7381383 90.3716,51.7372863 C88.807609,51.7303003 87.2244468,51.6594176 85.6844198,51.8737696 C84.1120414,52.0925517 83.5307441,52.9467221 83.505582,54.4553645 C83.4793928,56.009331 84.128645,57.0059483 85.691609,57.2342723 C87.021609,57.4286885 88.4041586,57.3015768 89.7618883,57.260683 C90.6381135,57.2344427 91.0092126,56.7348561 90.9029153,55.8483115 C90.8459153,55.3724092 90.892645,54.8842388 90.892645,54.4015209 M94.7501586,53.0268059 C94.7501586,54.6451802 94.7315009,56.2638953 94.7585459,57.8817584 C94.7706991,58.6171662 94.4690955,59.0039539 93.7669514,59.2544288 C90.6838162,60.3546439 87.5108162,60.5959176 84.3260054,60.0303897 C79.9204018,59.2481243 79.1099063,55.7672053 80.1398432,52.3583617 C80.4484649,51.3366969 81.1901495,50.5443785 82.190645,50.1945656 C83.3864468,49.7760852 84.6358252,49.4259316 85.8896541,49.2775209 C87.2407081,49.1175237 88.6236,49.2214623 89.992627,49.2185656 C90.5047712,49.2173729 90.889564,49.1168422 90.8893928,48.4790684 C90.8887081,45.3135433 89.6133117,43.5914008 86.1299784,43.9669427 C84.9971676,44.0891131 83.8900324,44.5760908 82.8092577,44.9942304 C82.2902667,45.1949511 81.9823297,45.1618953 81.6334829,44.7406885 C80.2538432,43.0739232 80.2392937,42.9870237 82.1731856,42.0328338 C85.0308883,40.6228478 88.0012216,40.4693254 90.9563207,41.6387193 C93.1762396,42.5169148 94.336609,44.3707696 94.538591,46.6516243 C94.7253387,48.761236 94.5783027,50.900155 94.5783027,53.0262947 C94.6354739,53.0264651 94.6928162,53.0266355 94.7501586,53.0268059" id="Fill-37" fill="#D3E7F7"></path>
                <path d="M41.9209838,46.1630109 C41.9209838,43.4105137 41.9367315,40.6575053 41.9098577,37.9051785 C41.903182,37.2265109 42.089245,36.854036 42.8177495,36.7468601 C43.6041099,36.6311645 44.3827676,36.4341925 45.1475604,36.2133656 C45.9013982,35.9957763 46.1324793,36.2804997 46.1165604,36.9976757 C46.0908847,38.1604243 46.1382991,39.325388 46.0996144,40.487455 C46.077191,41.1644187 46.3596234,41.3929131 47.0052811,41.3821785 C48.3732811,41.3596869 49.7424793,41.3998992 51.1101369,41.3654802 C51.8473712,41.3467372 52.121245,41.6212372 52.1096054,42.3627791 C52.0743441,44.6518126 52.2237766,44.3626589 50.0711279,44.3725416 C48.9879568,44.377483 47.9044432,44.3877064 46.8214432,44.3703265 C46.3127225,44.3621478 46.1044072,44.5645723 46.1073171,45.0740416 C46.1244342,48.1104103 46.0311459,51.150698 46.1617495,54.1817846 C46.2738667,56.778374 47.3525874,57.5374662 50.6310288,57.2188349 C52.1756775,57.06855 52.1686595,56.9971561 52.164209,58.5422623 C52.1607856,59.7537427 52.076227,59.9323126 50.8530378,60.0630025 C49.613245,60.1957372 48.3428126,60.3090472 47.1096955,60.187388 C43.9786324,59.8782986 42.0471369,57.6795723 41.9524793,54.3351366 C41.8754523,51.612969 41.9369027,48.8872232 41.9369027,46.1630109 L41.9209838,46.1630109 Z" id="Fill-39" fill="#D3E7F7"></path>
                <path d="M67.3965604,50.8219796 C67.4626324,51.5302953 67.479236,52.502717 67.6545153,53.4458316 C68.2337586,56.5627953 70.346182,57.9213232 73.4519117,57.1654684 C74.2146505,56.980083 74.9518847,56.6335075 75.6516324,56.2681891 C76.1702811,55.9972673 76.4992721,56.0609936 76.7936865,56.5333176 C76.9138486,56.7256891 77.0449658,56.9119265 77.1784793,57.0957785 C78.0187586,58.2515411 77.9990739,58.3629768 76.7700649,59.050164 C74.2149928,60.4787226 71.4868667,60.6155466 68.733236,59.9029712 C65.9128486,59.1733567 64.2002811,57.2794601 63.6371279,54.4209796 C63.1385063,51.890502 63.0789387,49.3368511 63.6619477,46.8210271 C64.3794973,43.7233176 66.4037676,41.8829237 69.5086414,41.1974405 C72.0548126,40.6349796 74.4928036,40.7847534 76.7221369,42.2845355 C77.6202721,42.8885718 77.6449207,43.106502 76.9652,43.9603316 C76.8238126,44.1382198 76.6589748,44.3004321 76.5364162,44.4900774 C76.1507676,45.0864461 75.7524523,45.0946249 75.1144973,44.7599768 C74.3486775,44.3583651 73.4878577,44.0005439 72.639191,43.9167115 C69.5954252,43.616312 67.8775514,45.1050187 67.5600288,48.1889265 C67.4787225,48.9781779 67.4595514,49.7737338 67.3965604,50.8219796" id="Fill-41" fill="#D3E7F7"></path>
                <path d="M66.4183514,17.1965304 C66.4183514,14.6711645 66.4344414,12.1456282 66.4070541,9.62077346 C66.4003784,8.99731257 66.6064685,8.62330419 67.1838288,8.36601369 C69.8744685,7.1668014 72.6974234,6.78035447 75.6109279,7.00816732 C75.8574144,7.02742151 76.0734324,7.44010866 76.3007477,7.67286285 C76.3156396,7.68819804 76.3069099,7.72806955 76.3069099,7.75635447 C76.3163243,10.3263628 76.502045,9.88351648 74.3052342,9.95133212 C73.3702973,9.98012821 72.4380991,10.1157595 71.5069279,10.2210612 C70.821045,10.2989299 70.5814054,10.6826506 70.5858559,11.383469 C70.6125586,15.7810919 70.5988649,20.179226 70.5985225,24.5771897 C70.5985225,25.6487791 70.5014685,25.7557846 69.452018,25.772483 C68.768018,25.7835584 68.0824775,25.7484578 67.400018,25.7816841 C66.6576486,25.817807 66.3986667,25.5034355 66.4072252,24.772117 C66.4361532,22.2472623 66.4183514,19.721726 66.4183514,17.1965304" id="Fill-43" fill="#D3E7F7"></path>
                <path d="M98.9042604,51.2912196 C98.9042604,48.7932866 98.9249721,46.2951832 98.8915937,43.7975911 C98.8816658,43.067295 99.1361973,42.6793145 99.8225937,42.3860715 C102.397693,41.2860268 105.086107,40.9825603 107.851549,41.0744011 C108.536918,41.0972335 108.805999,41.3834905 108.800106,42.0703369 C108.779981,44.3743648 108.94054,43.9708788 106.92517,44.0410799 C105.962675,44.0746469 105.004801,44.2344737 104.044531,44.3353453 C103.228729,44.4208816 102.992513,44.8812782 102.997819,45.6718927 C103.02726,49.9863648 103.012368,54.3010073 103.008945,58.6156497 C103.008089,59.8825073 103.002441,59.882848 101.728756,59.8842112 C101.101414,59.8850631 100.471675,59.8494514 99.8474135,59.8932419 C99.1332874,59.9433369 98.8915937,59.6480492 98.897927,58.9552391 C98.9217198,56.4007363 98.9073414,53.8458927 98.9073414,51.2912196 L98.9042604,51.2912196 Z" id="Fill-45" fill="#D3E7F7"></path>
                <path d="M55.4562072,50.6520827 C55.4562072,47.900267 55.4788018,45.1477698 55.4418288,42.3964654 C55.4312162,41.6106218 55.7066306,41.3168676 56.4828919,41.3674737 C57.163982,41.4119458 57.8502072,41.3737782 58.5342072,41.3773564 C59.607964,41.3831497 59.6468198,41.4213173 59.6468198,42.4762084 C59.6468198,47.4978034 59.6456216,52.5193983 59.6452793,57.5411637 C59.6452793,58.0518257 59.6430541,58.5626581 59.6517838,59.0731497 C59.661027,59.6316916 59.4277207,59.9085771 58.8322162,59.8901749 C58.0064865,59.8646162 57.1781892,59.8552447 56.3533153,59.8929011 C55.6792432,59.9239123 55.4462793,59.6448117 55.4509009,58.9930659 C55.4695586,56.2129654 55.4587748,53.4323536 55.4587748,50.6520827 L55.4562072,50.6520827 Z" id="Fill-47" fill="#D3E7F7"></path>
                <path d="M111.795418,50.6512648 C111.795418,47.9009827 111.819211,45.1505302 111.780355,42.4009296 C111.7694,41.6161084 112.0354,41.3182648 112.813886,41.3676782 C113.494805,41.4109575 114.180688,41.371938 114.864175,41.3761978 C115.934337,41.382843 115.978157,41.4225441 115.978499,42.4753905 C115.980895,47.5789436 115.979697,52.6823263 115.979526,57.7857089 C115.979526,58.211005 115.967031,58.6366419 115.979355,59.0614268 C115.995959,59.6283179 115.746562,59.8982173 115.163724,59.8873123 C114.337995,59.8719771 113.510553,59.8552788 112.686193,59.8937872 C112.004418,59.9259911 111.789598,59.6298514 111.793706,58.9867955 C111.812022,56.2083989 111.80158,53.4298318 111.80158,50.6512648 L111.795418,50.6512648 Z" id="Fill-49" fill="#D3E7F7"></path>
                <path d="M92.3544468,35.329036 C92.3544468,35.6406813 92.3441766,35.9524969 92.3566721,36.263631 C92.378582,36.8182539 92.0863928,37.0999103 91.5682577,37.1936254 C89.1083568,37.6393684 86.6505099,38.09755 84.1839333,38.5025696 C83.988627,38.5344327 83.5713117,38.2260249 83.5293748,38.020874 C83.2493387,36.6427511 83.486582,36.2997539 84.8585189,35.8759913 C86.8937441,35.2474187 88.9299964,34.6215723 90.9636811,33.9880584 C92.2945369,33.5734969 92.3553027,33.6133684 92.3575279,34.9892763 C92.3576991,35.1025863 92.3575279,35.2158964 92.3575279,35.329036 L92.3544468,35.329036 Z" id="Fill-51" fill="#D3E7F7"></path>
                <path d="M59.8873029,36.2309159 C59.8805883,37.838726 59.1185342,38.6266142 57.5684081,38.627809 C56.0443,38.6293405 55.1543811,37.7598349 55.1598334,36.2741953 C55.1658495,34.6583768 56.0465252,33.759564 57.6134261,33.7701282 C59.0854982,33.7798405 59.8937685,34.6546282 59.8873029,36.2309159" id="Fill-53" fill="#D3E7F7"></path>
                <path d="M116.19438,36.2731729 C116.184966,37.8741673 115.427533,38.642631 113.872101,38.6288293 C112.294074,38.6148573 111.545029,37.8101003 111.565398,36.1499802 C111.584569,34.5886869 112.400714,33.7612679 113.909074,33.7733656 C115.447389,33.7858042 116.204137,34.6137344 116.19438,36.2731729" id="Fill-55" fill="#D3E7F7"></path>
                <path d="M184.384524,56.7254335 C185.782822,55.4273944 186.9562,53.8601374 187.871966,52.0672827 C188.602011,50.6383832 189.133497,49.0600508 189.497407,47.2419782 C189.682957,46.3148804 189.807398,45.3209894 189.866623,44.2875676 C189.875011,44.1429056 189.875695,43.9948358 189.876551,43.8379056 C189.878092,43.5450034 189.879632,43.2422184 189.930813,42.9259726 L189.920542,42.3589112 C189.85156,42.1977212 189.85293,42.0469251 189.853614,41.9671821 C189.853614,41.9571291 189.853957,41.9472464 189.853614,41.9375341 C189.761011,40.3607352 189.471218,38.8285788 188.99211,37.3843441 C188.269939,35.2081095 187.163831,33.2601989 185.704254,31.5953078 C185.698434,31.5891737 185.690389,31.5816765 185.682344,31.5740089 C185.636128,31.5295369 185.559272,31.4555872 185.495083,31.3492631 C185.438425,31.3087101 185.38656,31.2599782 185.340173,31.2035788 C185.062876,30.866886 184.72875,30.5370089 184.319137,30.1948637 C184.267786,30.1520955 184.181515,30.0800201 184.108083,29.9721626 C183.947695,29.8816849 183.812813,29.7537212 183.707542,29.5921905 C183.697614,29.5850341 183.687858,29.5775369 183.67793,29.5696989 C183.492894,29.4945564 183.338326,29.3797128 183.219362,29.2294279 C183.019948,29.1374168 182.86093,29.0160983 182.739398,28.8634279 C182.527317,28.7812994 182.347759,28.6557212 182.207569,28.4919754 C181.959885,28.405076 181.740786,28.2648441 181.553524,28.0728134 C181.076641,27.8680034 180.650939,27.6316709 180.258614,27.3542743 C180.169092,27.3370648 180.055434,27.3108246 179.940065,27.2626039 C179.92911,27.2723162 179.917641,27.2810061 179.906515,27.290548 C179.802101,27.379833 179.696831,27.4677547 179.591218,27.5536318 C179.575128,27.5665816 179.559551,27.5790201 179.543632,27.5921402 C179.43665,27.6785285 179.32984,27.7638944 179.224398,27.8477268 C179.143092,27.9124754 179.061614,27.977224 178.98065,28.0423134 C178.225786,28.6489056 177.469894,29.2546458 176.713831,29.8597045 L176.62893,29.9275201 C176.520578,30.0142492 176.410858,30.1020006 176.300623,30.1899223 C176.282479,30.204576 176.264164,30.2190592 176.245849,30.2335425 C176.155641,30.3057883 176.064921,30.3778637 175.973858,30.4502799 C175.964957,30.4574363 175.956056,30.4645927 175.946813,30.4717492 C175.955371,30.4741346 175.964101,30.4763497 175.972488,30.4787352 C176.014939,30.4896402 176.057903,30.5012268 176.100867,30.5128134 C176.114389,30.516562 176.127741,30.5199698 176.141092,30.5238888 C176.196723,30.5390536 176.253038,30.5552408 176.309695,30.5717687 C176.323732,30.5758581 176.337939,30.5802883 176.352146,30.5843777 C176.395966,30.5973274 176.440299,30.6106179 176.484804,30.6244196 C176.504317,30.6305536 176.524002,30.6366877 176.543686,30.6428218 C176.585966,30.6559419 176.628587,30.6695732 176.671723,30.6835453 C176.689524,30.6891682 176.707326,30.6947911 176.725299,30.7009251 C176.784867,30.7201793 176.844777,30.7401151 176.905714,30.7609028 C176.917695,30.7649922 176.929849,30.7694223 176.942002,30.7733413 C176.992155,30.7907212 177.042993,30.8082715 177.094515,30.8265034 C177.115912,30.8341709 177.13765,30.8420089 177.159389,30.8496765 C177.204407,30.8655229 177.249596,30.8820508 177.29547,30.8989196 C177.316524,30.9065872 177.337578,30.9142547 177.358804,30.9219223 C177.424533,30.9462883 177.490948,30.970995 177.558389,30.996724 C178.285524,31.2725872 179.231759,31.6595453 180.101479,32.2051374 C180.812524,32.6513916 181.372425,33.0601598 181.864029,33.4919307 C182.167173,33.7580816 182.461074,34.034967 182.745389,34.302481 L182.875993,34.4256737 C183.339695,34.8613637 183.712506,35.3532827 184.073335,35.8290145 C184.140948,35.9182994 184.208903,36.0077547 184.277029,36.0965285 C184.738164,36.6968162 185.092146,37.264048 185.358831,37.8304279 C185.41429,37.9479978 185.470263,38.0650564 185.526407,38.1822855 C185.833317,38.8236374 186.150668,39.4871402 186.355903,40.2182883 C186.535632,40.8596402 186.697732,41.492643 186.837065,42.0992352 C186.924362,42.4792073 186.971092,42.8632687 187.016281,43.2345508 C187.031002,43.3553581 187.045551,43.4761654 187.061813,43.5964615 C187.139182,44.1747687 187.133362,44.7409782 187.127542,45.2884447 C187.125488,45.5045006 187.123263,45.728224 187.126515,45.9446207 C187.134218,46.4764112 187.062668,46.9889475 186.993002,47.4849559 C186.970236,47.6478497 186.94747,47.8107436 186.927443,47.9738078 C186.919741,48.0397492 186.910668,48.1053497 186.900741,48.1706095 C186.831759,48.6270872 186.721011,49.064481 186.613515,49.4892659 C186.56884,49.6661318 186.522452,49.8491318 186.481029,50.0270201 C186.383632,50.4444782 186.235227,50.8377408 186.091614,51.218224 C186.067479,51.2821207 186.043173,51.3460173 186.019551,51.409914 C185.99593,51.4727883 185.972822,51.535833 185.949714,51.5992184 C185.817227,51.9595955 185.680461,52.3324112 185.483957,52.6898916 C185.379371,52.8802184 185.281461,53.0715676 185.17756,53.2738218 C184.934497,53.7475089 184.683218,54.2373832 184.351831,54.6974391 L184.188705,54.9244 C183.820686,55.4371067 183.440173,55.9673637 183.010191,56.4626905 C182.51893,57.0285592 181.984362,57.5312128 181.47975,57.9899056 C181.100263,58.3351179 180.690308,58.621886 180.293876,58.8992827 C180.088128,59.0432631 179.893849,59.1788944 179.702993,59.3228749 C179.431858,59.5270034 179.149596,59.6718358 178.876578,59.8118972 C178.712939,59.8960704 178.5582,59.9753022 178.41493,60.0630536 C178.340299,60.1087184 178.264984,60.1523385 178.189326,60.1944251 C178.162795,60.2090788 178.136092,60.2228804 178.109732,60.2370229 C178.060092,60.2639447 178.010452,60.2906961 177.96047,60.3160844 C177.928804,60.3322715 177.897308,60.3474363 177.865641,60.3631123 C177.819939,60.3854335 177.774407,60.4079251 177.728533,60.4293944 C177.695326,60.4452408 177.661948,60.4604056 177.628398,60.4755704 C177.583894,60.4958469 177.539389,60.5159531 177.494714,60.535548 C177.46065,60.5505425 177.426587,60.5651961 177.392524,60.5796793 C177.347849,60.5985927 177.303173,60.6176765 177.258326,60.6360788 C177.224777,60.6500508 177.191056,60.6638525 177.157335,60.6773134 C177.111119,60.6962268 177.064903,60.7146291 177.018686,60.7328609 C176.986849,60.7454698 176.955182,60.7579084 176.923344,60.7701765 C176.871822,60.7902827 176.820641,60.8102184 176.769119,60.8298134 C176.74293,60.8396961 176.717083,60.8497492 176.691236,60.8596318 C176.680966,60.8633804 176.670867,60.8674698 176.660768,60.8712184 C177.530146,60.6515844 178.308632,60.4000872 179.046894,60.1022436 C181.04138,59.2981682 182.837137,58.1620006 184.384524,56.7254335" id="Fill-57" fill="#D3E7F7"></path>
                <path d="M185.314275,2.83160978 L185.295617,2.81797849 C184.782275,2.46254274 184.282284,2.16606229 183.76723,1.91183883 C183.718959,1.88798408 183.677365,1.86021034 183.641932,1.83158464 C183.548473,1.8055148 183.475383,1.76888073 183.42968,1.74604832 L183.407599,1.73480251 C182.182014,1.14354553 180.853725,0.706492458 179.346905,0.399106983 C178.27486,0.18032486 177.12305,0.0583248603 175.612293,0.00328854749 C175.323527,-0.00761648045 175.031167,0.0106153631 174.721518,0.029699162 C174.461509,0.0455455307 174.195338,0.060199162 173.918212,0.0610511173 C173.775113,0.0608807263 173.633554,0.0666740223 173.490626,0.0774086592 C173.576383,0.0908695531 173.662311,0.105523184 173.748068,0.12085838 C173.755428,0.122221508 173.762959,0.123584637 173.770149,0.124947765 C173.894932,0.147439385 174.019716,0.172146089 174.1445,0.198386313 C174.159905,0.201623743 174.175482,0.204690782 174.190887,0.208098603 C174.314986,0.234679609 174.439428,0.263475698 174.563869,0.293805307 C174.586293,0.299428212 174.608887,0.305051117 174.631311,0.310503631 C174.754896,0.341514804 174.878653,0.374229888 175.002923,0.408819274 C175.021923,0.414101397 175.041095,0.419894693 175.060437,0.425347207 C175.190185,0.462322067 175.320275,0.500660056 175.450878,0.541894693 C177.096689,1.05971313 178.453563,1.90672709 179.483842,3.05959302 C179.889518,3.51334441 180.165959,3.89553156 180.380266,4.2990176 C181.017194,5.4980595 181.129995,6.85113492 180.724833,8.43543101 C180.486221,9.36798128 180.0915,10.2872411 179.444986,11.4154003 C179.089977,12.0349422 178.705869,12.6241545 178.308923,13.1900232 C177.750392,13.9867718 177.165842,14.7354701 176.595671,15.443445 C175.834986,16.3882634 174.993338,17.353188 173.866518,18.5719953 C172.835041,19.6878863 171.773095,20.7986656 170.870167,21.7383723 C170.399275,22.2282466 169.915545,22.7188025 169.447734,23.1930008 C169.101455,23.5441768 168.743365,23.9069394 168.394518,24.265783 C168.120473,24.5477802 167.857383,24.8185316 167.601824,25.0816154 C167.514356,25.1719226 167.427059,25.2617187 167.341302,25.3503221 C167.326068,25.365998 167.311005,25.3815036 167.29577,25.39735 C167.190842,25.5055483 167.08677,25.6130651 166.983725,25.7193891 C166.991257,25.7161517 166.998788,25.7130846 167.00632,25.7098472 C167.062635,25.6851405 167.11895,25.6611154 167.175437,25.6376014 C167.199401,25.6275483 167.223536,25.6180064 167.2475,25.6082941 C167.287554,25.5917662 167.327608,25.5754087 167.367491,25.5597327 C167.394536,25.548998 167.421239,25.5387746 167.448113,25.5282103 C167.485257,25.5138975 167.522401,25.4995846 167.559374,25.4856126 C167.587275,25.4752187 167.615005,25.4648249 167.642734,25.4546014 C167.679023,25.4411405 167.715311,25.4280204 167.751428,25.4150707 C167.778815,25.405188 167.806374,25.3954757 167.833761,25.3857634 C167.870563,25.3728137 167.907365,25.3602047 167.943995,25.3477662 C167.970185,25.3387355 167.996203,25.3297047 168.022392,25.3208444 C168.061761,25.3077243 168.100959,25.2947746 168.140329,25.2819953 C168.163095,25.2746684 168.186032,25.2670008 168.208626,25.259674 C168.265284,25.2416126 168.32177,25.2238919 168.377743,25.206512 C168.389212,25.2029338 168.400509,25.199526 168.411977,25.1959478 C168.465725,25.1795902 168.519302,25.1635735 168.572365,25.1478975 C168.593932,25.1414226 168.615158,25.1352885 168.636725,25.1289841 C168.675239,25.1179087 168.713752,25.1068332 168.751752,25.0959282 C168.775716,25.0891126 168.799509,25.0826377 168.823131,25.0759925 C168.858392,25.0661098 168.893482,25.0563975 168.92823,25.0468556 C168.952365,25.0402103 168.976158,25.0339059 168.999779,25.027431 C169.034527,25.0180595 169.068932,25.0088584 169.102995,24.999998 C169.12559,24.993864 169.148014,24.9880707 169.170266,24.9822774 C169.205869,24.9729059 169.240959,24.9640455 169.275878,24.9550148 C169.295905,24.9499031 169.315932,24.9446209 169.335788,24.9396796 C169.373617,24.9301377 169.410932,24.9209366 169.447905,24.9117355 C169.464167,24.9076461 169.480941,24.9033863 169.497374,24.8994673 C169.549581,24.8865176 169.601446,24.8739087 169.651941,24.8616405 C170.205509,24.7283947 170.759932,24.6547858 171.296041,24.5835623 C171.3895,24.5712941 171.483131,24.5588556 171.576932,24.5459059 C171.5795,24.5457355 171.581725,24.5455651 171.584293,24.5452243 C171.671419,24.5332969 171.758203,24.5235846 171.844986,24.5148947 C171.859194,24.5133612 171.873401,24.5116573 171.887608,24.5104645 C171.972851,24.5022858 172.057923,24.4956405 172.142653,24.4898472 C172.158572,24.4889953 172.173977,24.4879729 172.189896,24.4869506 C172.275311,24.4818388 172.360725,24.4774087 172.445968,24.4743416 C172.456923,24.4740008 172.467707,24.4736601 172.478491,24.4733193 C172.564419,24.4704226 172.650005,24.4682075 172.735248,24.4673556 C172.740041,24.4673556 172.744833,24.4671852 172.749626,24.4670148 C172.807995,24.4663332 172.866536,24.4659925 172.924905,24.4659925 C172.938941,24.4659925 172.952635,24.4665036 172.966671,24.4665036 C173.10686,24.4668444 173.246365,24.4685483 173.385185,24.4717858 C173.416851,24.4724673 173.448518,24.4733193 173.480356,24.4740008 C173.616095,24.4774087 173.751491,24.4813277 173.88586,24.4852466 C173.989248,24.4884841 174.092464,24.4915511 174.19568,24.4944478 C174.674104,24.5073975 175.143797,24.588674 175.598086,24.6675651 L175.732113,24.6907383 C175.831221,24.7079478 175.930329,24.7256684 176.029608,24.7445818 C176.725248,24.8756126 177.429446,25.0492411 178.1725,25.2719422 C178.238743,25.2918779 178.304986,25.3126656 178.37123,25.3339645 C178.392455,25.3407802 178.413851,25.348107 178.435077,25.355093 C178.479923,25.3695763 178.524941,25.3844003 178.569959,25.3999059 C178.595977,25.4087662 178.621995,25.4183081 178.648185,25.4273388 C178.68841,25.4414813 178.728464,25.4556237 178.769032,25.4704478 C178.797104,25.4806712 178.825176,25.4912355 178.853248,25.5019701 C178.891761,25.516283 178.930446,25.5307662 178.969131,25.5457606 C178.998059,25.556836 179.027158,25.5684226 179.055914,25.5798388 C179.094086,25.5950036 179.132257,25.6101684 179.170428,25.6255036 C179.200041,25.6376014 179.229653,25.6500399 179.259266,25.6623081 C179.297437,25.6783249 179.335437,25.6941712 179.373779,25.7105288 C179.403392,25.7233081 179.433005,25.7362578 179.462617,25.7492075 C179.501473,25.7662466 179.5405,25.7832858 179.579356,25.800836 C179.608626,25.8139561 179.638068,25.827417 179.667509,25.8408779 C179.689761,25.8511014 179.711842,25.8608137 179.734266,25.8712075 C179.786815,25.828269 179.835086,25.7950427 179.870176,25.7708472 C179.891401,25.756364 179.92341,25.7342131 179.933509,25.7256936 C180.108275,25.5708081 180.28886,25.4264869 180.463626,25.287107 C180.541851,25.2247439 180.620248,25.1622103 180.697617,25.0988249 L180.712167,25.0865567 C180.75359,25.0516265 180.830788,24.9867075 180.940167,24.9374645 C181.150365,24.6892047 181.422527,24.417431 181.780959,24.2151768 C181.943059,23.9769701 182.142473,23.7859617 182.376806,23.6441964 C182.441167,23.5419617 182.534455,23.4506321 182.662149,23.3863947 C182.735752,23.2700176 182.824932,23.1926601 182.880221,23.1447802 C182.890149,23.1362606 182.900077,23.1282522 182.908977,23.1193919 C183.04095,22.9859757 183.173437,22.8529003 183.306266,22.7198249 C183.514752,22.5105846 183.730599,22.294188 183.939086,22.0800064 C183.946788,22.0721684 183.954149,22.0639897 183.96168,22.0561517 C184.000365,22.0142355 184.057536,21.9528947 184.136959,21.8953025 C184.22032,21.7272969 184.348698,21.6211433 184.413059,21.5679813 C184.422473,21.5603137 184.431887,21.5528165 184.440275,21.5451489 C184.481014,21.5069813 184.526887,21.4512634 184.575842,21.3926489 C184.673923,21.2742271 184.789635,21.1346768 184.953275,21.0164254 C185.074806,20.7886126 185.239302,20.6183919 185.377266,20.4756042 C185.429986,20.4210791 185.479797,20.3697913 185.521392,20.3210595 C185.547923,20.2900483 185.579932,20.2430204 185.613482,20.1934366 C185.710878,20.0499673 185.847986,19.8475427 186.081635,19.704755 C186.361329,19.2014198 186.641707,18.8073053 186.952896,18.4818584 C187.001851,18.3230539 187.088977,18.2082103 187.140842,18.1398835 C187.15077,18.1272746 187.160698,18.1144953 187.169428,18.1012047 C188.042401,16.7632941 188.673167,15.5102383 189.098185,14.2708137 C189.415878,13.3447383 189.605023,12.5038584 189.676572,11.7002941 C189.67777,11.6883668 189.678113,11.676269 189.678626,11.664512 C189.68205,11.5825539 189.68941,11.4136964 189.77859,11.2431349 C189.719878,10.8524282 189.719536,10.4557578 189.777563,10.0616433 C189.725527,9.96179413 189.69386,9.84575782 189.682734,9.71421592 C189.58414,8.55981648 189.235977,7.44988911 188.618221,6.32121872 L188.61223,6.31065447 C188.593572,6.27742821 188.562932,6.22222151 188.537599,6.14980531 C188.465536,6.07312933 188.422914,5.99713492 188.40032,5.95726341 L188.391932,5.94243939 C188.043428,5.43637793 187.683113,4.91378855 187.241662,4.48099525 L187.228311,4.46804553 C187.175077,4.41658743 187.068095,4.31333045 187.001338,4.15657067 C186.998086,4.15333324 186.994833,4.15009581 186.991581,4.14668799 C186.975149,4.13595335 186.95923,4.12453715 186.943824,4.11226899 L186.940743,4.10971313 C186.883572,4.08228017 186.830509,4.04717961 186.783095,4.00441145 C186.746293,3.97152598 186.707095,3.9290986 186.67132,3.87542542 C186.476869,3.7651824 186.31186,3.61643101 186.178518,3.43138631 C185.971059,3.32267682 185.757266,3.18602318 185.581644,2.97916844 C185.454635,2.93503715 185.362887,2.86756229 185.314275,2.83160978" id="Fill-59" fill="#D3E7F7"></path>
                <path d="M166.07306,39.7485542 C166.053205,39.7730905 166.032664,39.7976268 166.012808,39.8219927 C165.991583,39.8478922 165.970529,39.8737916 165.949475,39.8998615 C165.86697,40.0015849 165.78515,40.1029676 165.704871,40.2034983 C165.701277,40.2079285 165.697682,40.2125291 165.694087,40.2169592 C165.611412,40.3207274 165.530277,40.4236436 165.449826,40.5260486 C165.429286,40.5524592 165.408916,40.5785291 165.388547,40.6047693 C165.310664,40.704448 165.233637,40.803786 165.157979,40.9024425 C165.155583,40.9058503 165.153015,40.9090877 165.150448,40.9121547 C165.072907,41.0135374 164.996907,41.1144089 164.921421,41.2145989 C164.902421,41.2401575 164.883421,41.2655458 164.864421,41.2909341 C164.789277,41.3916352 164.714646,41.4918251 164.641727,41.5916743 L164.626322,41.6128028 C164.592772,41.6591492 164.552033,41.7150374 164.500511,41.7724592 C164.556997,42.1822497 164.72697,42.5658 164.982871,43.0457916 C165.292691,43.6271659 165.694772,44.159638 166.177988,44.6287246 C166.566718,45.0059704 166.906835,45.2789369 167.248493,45.4874955 L167.342295,45.5447469 C167.633457,45.722976 167.908529,45.8914927 168.193871,46.0220123 C168.834223,46.3154257 169.378718,46.5122274 169.954195,46.5204061 C170.120574,46.5227916 170.301673,46.5354006 170.49715,46.6115654 C170.81861,46.7371436 170.983448,46.6890933 171.102069,46.6257078 C171.244655,46.5492022 171.39015,46.5166575 171.533421,46.5297777 C171.598295,46.5355709 171.663682,46.5348894 171.730268,46.5292665 C171.929511,46.5117162 172.138511,46.4485011 172.371304,46.3784704 C172.42488,46.3622832 172.478628,46.3462665 172.532547,46.3305905 C172.815664,46.2481212 173.082862,46.1407749 173.349376,46.0020765 C173.411682,45.9697022 173.471934,45.9368168 173.530988,45.9035905 C173.549475,45.893367 173.567619,45.8828028 173.585763,45.8724089 C173.628385,45.848043 173.669979,45.8233363 173.710889,45.7986296 C173.728349,45.7880654 173.745637,45.7776715 173.762754,45.7671073 C173.817186,45.7333698 173.870763,45.6992916 173.922286,45.6647022 C173.291177,45.8993307 172.604781,46.0293391 171.883808,46.0346212 C170.3407,46.0422888 168.883862,45.4532469 167.782376,44.3668335 C166.669592,43.2691743 166.055087,41.8068782 166.052006,40.2493335 C166.051664,40.0813279 166.058682,39.9143447 166.07306,39.7485542" id="Fill-61" fill="#D3E7F7"></path>
                <g id="Group-65" transform="translate(159.531532, 31.304075)">
                    <mask id="mask-2" fill="white">
                        <use xlink:href="#path-1"></use>
                    </mask>
                    <g id="Clip-64"></g>
                    <path d="M13.677227,29.3456687 C14.2600649,29.2373 14.7052811,29.1429034 15.1207135,29.039476 C15.5049928,28.9442274 15.9154613,28.811152 16.4515694,28.6087274 L16.5445153,28.5736268 C17.1667225,28.3391687 17.7540108,28.1174899 18.2860108,27.7918726 C18.4660829,27.6816296 18.647182,27.5885961 18.8226324,27.4988 C19.0631279,27.3754369 19.2906144,27.258719 19.4830108,27.1135458 C19.6899568,26.957638 19.9016955,26.8095682 20.1065874,26.6660989 C20.4906955,26.3975626 20.853236,26.1438503 21.1789748,25.8477106 C21.6577405,25.4123615 22.1630378,24.937652 22.6157856,24.4160849 C23.0113622,23.9606296 23.3598667,23.4748447 23.7292541,22.9602637 L23.8935784,22.7315989 C24.1749838,22.3410626 24.3961369,21.9098028 24.6302991,21.4534955 C24.733173,21.2529453 24.8396414,21.0454089 24.9519297,20.8411101 C25.1070108,20.5586017 25.2235784,20.2411631 25.3468216,19.9054927 C25.3706144,19.8404034 25.3945784,19.7754844 25.4187135,19.7105654 C25.4430198,19.6453056 25.4678396,19.5800458 25.4923171,19.5146156 C25.6290829,19.152705 25.7581459,18.8109006 25.8384252,18.4663698 C25.8824162,18.2779173 25.9300018,18.0896352 25.976218,17.9078279 C26.0955243,17.4360151 26.2083261,16.9901017 26.2637856,16.5334536 C26.2843261,16.3635737 26.3081189,16.1936939 26.3319117,16.0239844 C26.3983261,15.549786 26.4611459,15.1018279 26.4544703,14.6572777 C26.4510468,14.4265682 26.4534432,14.1960291 26.4556685,13.9726464 C26.4611459,13.4417078 26.4662811,12.9402469 26.3996955,12.4421939 C26.3830919,12.3174676 26.3676865,12.1922302 26.3524523,12.0669927 C26.3089748,11.7086603 26.2677225,11.3704341 26.1937766,11.0482246 C26.0583802,10.4590123 25.9009027,9.84373017 25.7259658,9.21958771 C25.5472631,8.58283631 25.2644883,7.9920905 24.9651099,7.36641453 C24.9081099,7.24714078 24.8509387,7.12786704 24.7947946,7.00842291 C24.5630288,6.51650391 24.2506414,6.0172581 23.8396595,5.48205978 C23.7698216,5.39141173 23.7006685,5.30008212 23.6315153,5.20892291 C23.2838667,4.75040056 22.9553892,4.31726648 22.5615243,3.94683631 L22.4300649,3.82330279 C22.1529387,3.56226369 21.8660559,3.29236425 21.5779748,3.03916313 C21.1334432,2.64862682 20.6197586,2.27444804 19.9617766,1.86142011 C19.1771279,1.36916034 18.2983351,1.01065754 17.6204973,0.753196648 C16.8209568,0.449730168 16.1862541,0.259573743 15.5837315,0.143878212 C15.5435063,0.136040223 15.5034523,0.128713408 15.4637405,0.121727374 C15.436182,0.116786034 15.4065694,0.110651955 15.3757586,0.103495531 C15.3673712,0.101621229 15.359155,0.0994061453 15.3504252,0.0973614525 C15.3220108,0.090375419 15.2927405,0.0818558659 15.2626144,0.0719731844 C15.258164,0.0706100559 15.2543982,0.0699284916 15.2499477,0.0685653631 C15.2473802,0.0706100559 15.2448126,0.0723139665 15.2420739,0.0745290503 C15.2027045,0.105540223 15.1640198,0.134677095 15.1267045,0.162621229 C15.0669658,0.207434078 15.0106505,0.249861453 14.9644342,0.290414525 C14.5820378,0.626084916 14.1866324,0.953235754 13.8038937,1.26948156 C13.5853081,1.45009609 13.3667225,1.6310514 13.1498486,1.81371061 L13.1330739,1.82785307 C12.8528667,2.06418547 12.5878937,2.28722737 12.3426054,2.52901229 C12.2424703,2.62749832 12.1407946,2.72376927 12.0387766,2.81884749 C12.0243982,2.83213799 12.010191,2.84576927 11.9958126,2.85905978 C11.898245,2.94919665 11.7996505,3.03814078 11.7003712,3.12640335 C11.6825694,3.14242011 11.6644252,3.15843687 11.6464523,3.17428324 C11.6260829,3.1921743 11.6058847,3.21023575 11.5855153,3.22812682 C11.8345694,3.19933073 12.0846505,3.18808492 12.3349027,3.19558212 C13.8338486,3.17206816 15.3143081,3.76332514 16.398164,4.8219648 C17.5118036,5.90974134 18.1249387,7.37442291 18.1247676,8.94611006 C18.1245964,9.58047598 18.0263441,10.1882609 17.8435333,10.7558335 C17.8450739,10.7575374 17.8461009,10.7595821 17.8474703,10.761286 C17.855173,10.7701464 17.862191,10.7796883 17.869209,10.7894006 C17.8752,10.7970682 17.8813622,10.8047358 17.8868396,10.8127441 C17.8933441,10.8226268 17.8993351,10.8330207 17.9054973,10.8430737 C17.9106324,10.8517637 17.9162811,10.8602832 17.9210739,10.8691436 C17.9267225,10.8797078 17.9315153,10.8907832 17.9366505,10.9018587 C17.9411009,10.9114006 17.9457225,10.9204313 17.9498306,10.930314 C17.9544523,10.9415598 17.958218,10.9538279 17.9623261,10.9655849 C17.9657495,10.975638 17.9695153,10.9855207 17.9727676,10.9960849 C17.976191,11.0085235 17.9787586,11.0214732 17.9816685,11.0342525 C17.9840649,11.0449872 17.9869748,11.055381 17.9888577,11.0664564 C17.9912541,11.0802581 17.9926234,11.0949117 17.9943351,11.1090542 C17.9955333,11.1197888 17.997245,11.1303531 17.9981009,11.1414285 C17.9992991,11.1579564 17.9991279,11.1749955 17.9991279,11.192205 C17.9992991,11.2019173 17.9999838,11.2111184 17.9998126,11.2210011 C17.9989568,11.2482637 17.9967315,11.2762078 17.9931369,11.3050039 C17.8852991,12.1699089 17.5744523,13.0445263 17.0148937,14.0568196 C16.7160288,14.5974704 16.3368847,15.1140961 15.8213171,15.6823503 C15.4514162,16.0904369 15.0590919,16.4422944 14.6383532,16.7425235 C14.2177856,17.0427525 13.7686324,17.2910123 13.285245,17.4919034 C12.2921099,17.9044201 11.2779207,18.1179201 10.1846505,18.1448419 C9.33906486,18.1651184 8.49775856,18.0666324 7.6834973,17.8512581 C6.78399279,17.6135626 5.94593874,17.2792553 5.19244324,16.857367 C5.08203784,16.7956855 4.97385766,16.7321296 4.86773153,16.6668698 C4.12536216,16.2110737 3.48723604,15.6823503 2.95044324,15.2136045 C2.75171351,15.039976 2.57523604,14.8474341 2.40783063,14.6528475 C2.35510991,14.7559341 2.30273153,14.860895 2.24881261,14.9684117 C2.16185766,15.1422106 2.07182162,15.3219732 1.97836216,15.4991799 C1.94207387,15.5683587 1.90715495,15.6380486 1.87326306,15.7087609 C1.77158739,15.920557 1.67881261,16.1401911 1.58227207,16.369367 C1.50284865,16.557138 1.42085766,16.7513838 1.33236216,16.9437553 C1.14236216,17.3569536 0.993443243,17.8088307 0.872938739,18.1963 C0.841443243,18.2981939 0.813371171,18.4045179 0.783587387,18.516976 C0.714091892,18.7807413 0.642028829,19.0535374 0.5092,19.3302525 C0.500641441,19.3537665 0.493965766,19.4391324 0.489686486,19.4955318 C0.486091892,19.5454564 0.481812613,19.5950402 0.476163964,19.6434313 C0.453911712,19.8301799 0.402731532,19.9963112 0.357884685,20.1426771 C0.307046847,20.307786 0.263227027,20.4504034 0.283767568,20.5505933 C0.303623423,20.6483978 0.29729009,20.7499508 0.265281081,20.8446883 C0.0951369369,21.3478531 0.117218018,21.8941268 0.140668468,22.4722637 C0.154533333,22.8173056 0.168911712,23.1737637 0.143236036,23.5384006 C0.141524324,23.5615737 0.14374955,23.5702637 0.14374955,23.5704341 L0.153506306,23.5871324 C0.170794595,23.617462 0.19492973,23.6598894 0.217695495,23.7123698 C0.248163964,23.7827413 0.275893694,23.8711743 0.281028829,23.9735793 C0.282227027,23.9989676 0.282227027,24.0253782 0.280344144,24.0526408 C0.280172973,24.0558782 0.280344144,24.059286 0.280172973,24.0625235 C0.273326126,24.2080374 0.330326126,24.3741687 0.396740541,24.5661994 C0.429776577,24.6621296 0.464353153,24.7614676 0.494308108,24.8684732 C0.654695495,25.4379201 0.951677477,25.9876017 1.40237117,26.5488698 C1.65912793,26.8685235 1.91571351,27.1730123 2.23272252,27.3868531 C2.25155135,27.399462 2.2696955,27.4127525 2.28732613,27.4265542 C2.29297477,27.4309844 2.29810991,27.4355849 2.30375856,27.4400151 C2.31556937,27.449557 2.32720901,27.4592693 2.33833514,27.469152 C2.34466847,27.4749453 2.35065946,27.4807385 2.35665045,27.4865318 C2.36657838,27.495733 2.37633514,27.5049341 2.38574955,27.514476 C2.39191171,27.5209508 2.39773153,27.5274257 2.40389369,27.5339006 C2.41228108,27.5432721 2.42083964,27.552814 2.42905586,27.5623559 C2.43504685,27.5693419 2.4406955,27.5764983 2.44651532,27.5836547 C2.45404685,27.5931966 2.46157838,27.6027385 2.4685964,27.6124508 C2.47407387,27.619948 2.47938018,27.6276156 2.48451532,27.6352832 C2.49136216,27.6451659 2.4976955,27.6548782 2.5042,27.6649313 C2.50916396,27.6729397 2.51395676,27.6807777 2.51874955,27.6886156 C2.52456937,27.6988391 2.53021802,27.709233 2.5356955,27.7196268 C2.54014595,27.7276352 2.54442523,27.735814 2.54836216,27.7441631 C2.55366847,27.7547274 2.55846126,27.7656324 2.56308288,27.776367 C2.56582162,27.7825011 2.5689027,27.7882944 2.57147027,27.7944285 C3.07231712,28.077448 3.62263243,28.3010011 4.18818198,28.5228503 C5.0602991,28.8646547 5.85521802,29.1367693 6.6182991,29.3548698 C6.78792973,29.4032609 6.94540721,29.4467106 7.09860541,29.4766994 C7.10322703,29.4748251 7.10750631,29.4738028 7.11212793,29.4720989 C7.13472252,29.4632385 7.15731712,29.4557413 7.17974054,29.4489257 C7.18744324,29.446881 7.19514595,29.4444955 7.20284865,29.4424508 C7.23006486,29.435124 7.25693874,29.4288196 7.28347027,29.4243894 C7.28381261,29.424219 7.28415495,29.424219 7.2844973,29.424219 C7.31154234,29.4196184 7.33773153,29.4167218 7.36357838,29.4143363 C7.3705964,29.4136547 7.37727207,29.4131436 7.38411892,29.4129732 C7.4062,29.4114397 7.4275964,29.4105877 7.44865045,29.4104173 C7.45138919,29.4104173 7.45447027,29.4100765 7.45720901,29.4100765 L7.46029009,29.4100765 C7.48665045,29.4102469 7.51198378,29.4112693 7.5368036,29.4129732 C7.54193874,29.4131436 7.54707387,29.4134844 7.55220901,29.4139955 C7.57514595,29.4158698 7.59722703,29.4179145 7.61845225,29.4204704 C7.61947928,29.4206408 7.62084865,29.4208112 7.62221802,29.4209816 C7.64498378,29.4238782 7.66603784,29.4271156 7.68623604,29.4303531 C7.69085766,29.431205 7.69530811,29.4318866 7.69992973,29.4327385 C7.71807387,29.4356352 7.73536216,29.4387022 7.75076757,29.4414285 C7.77130811,29.4451771 7.79184865,29.4489257 7.81238919,29.4519927 C7.90379459,29.4657944 7.99537117,29.4801073 8.08677658,29.4942497 C8.62493874,29.5777413 9.13314595,29.6566324 9.63947027,29.6474313 C9.76202883,29.6450458 9.88475856,29.6441939 10.0064613,29.6441939 C10.128164,29.6441939 10.2488396,29.6450458 10.3674613,29.6457274 C10.4345604,29.6462385 10.5008036,29.6467497 10.5668757,29.6470905 C10.6329477,29.6474313 10.6985063,29.6474313 10.7637225,29.6474313 C11.1553622,29.6469201 11.5339928,29.636867 11.9119387,29.5905207 C12.0115604,29.5780821 12.111182,29.5659844 12.2108036,29.554057 C12.718155,29.4927162 13.1974342,29.4349536 13.677227,29.3456687" id="Fill-63" fill="#D3E7F7" mask="url(#mask-2)"></path>
                </g>
                <path d="M162.584113,42.7558542 C162.718995,42.5380944 162.860212,42.3223793 162.996806,42.1136503 C163.111833,41.9379771 163.22977,41.7570218 163.34223,41.5779408 C163.33932,41.5707844 163.336923,41.5636279 163.334185,41.5564715 C163.322032,41.5256307 163.309878,41.4951307 163.299608,41.4644603 C163.296185,41.4545777 163.293617,41.4448654 163.290365,41.4349827 C163.281293,41.4070385 163.272392,41.3790944 163.26486,41.3514911 C163.260923,41.3376894 163.258185,41.3240581 163.25459,41.3102564 C163.248428,41.2865721 163.242266,41.2627173 163.236788,41.2392034 C163.235248,41.2313654 163.233878,41.2238682 163.232338,41.2160302 C163.226176,41.1867229 163.220185,41.157586 163.21505,41.1286196 C163.214365,41.1250413 163.213851,41.1212927 163.213167,41.1177145 C163.188689,40.9757788 163.17568,40.8396363 163.164212,40.7155916 C163.160275,40.6750385 163.156509,40.6346559 163.15223,40.5944436 C163.079824,39.8960106 163.027617,39.2621559 163.12005,38.5795693 C163.131176,38.4967592 163.142644,38.4158235 163.154113,38.3365916 C163.234905,37.7831615 163.323914,37.3203793 163.430896,36.8949128 C163.477968,36.7079939 163.533428,36.5222676 163.596932,36.3379045 C163.787959,35.7848151 164.053275,35.2443346 164.389284,34.7248123 C164.709716,34.2294855 165.039563,33.7944771 165.386014,33.4110972 C165.593815,33.1812397 165.807779,32.969614 166.029275,32.774857 C166.651482,32.2277313 167.308095,31.7475693 167.980968,31.3474911 C168.68277,30.9303737 169.460914,30.6108905 170.359734,30.3706391 L170.418788,30.3549631 C170.818815,30.2476168 171.274644,30.125276 171.769158,30.1332844 C171.864671,30.1344771 171.988599,30.1053402 172.120914,30.0743291 C172.285923,30.0358207 172.480203,29.9903263 172.69605,29.984533 C172.767941,29.9826587 172.842401,29.9852145 172.918572,29.9937341 C172.922338,29.9935637 172.926275,29.9932229 172.929869,29.9930525 C173.011689,29.9877704 173.163518,29.9785693 173.329041,30.0504743 C173.357284,30.0625721 173.385869,30.0731363 173.41514,30.0825078 C173.422671,30.0848933 173.430374,30.0864268 173.437905,30.0884715 C173.54968,30.1210162 173.670356,30.1360106 173.800446,30.1423151 C173.806266,30.1426559 173.812257,30.1426559 173.817905,30.1429966 C173.847176,30.144019 173.876617,30.1452117 173.906572,30.1458933 C173.978635,30.1474268 174.053437,30.1474268 174.130806,30.1474268 C174.179419,30.1475972 174.228545,30.1475972 174.278185,30.147938 C174.302491,30.1481084 174.326968,30.1486196 174.351275,30.1491307 C174.390302,30.1496419 174.4295,30.1506642 174.469212,30.1521978 C174.483761,30.1527089 174.497626,30.1527089 174.512176,30.1533905 C174.516968,30.1493011 174.521248,30.1460637 174.526212,30.1419743 C174.540248,30.1298765 174.55377,30.1186307 174.56695,30.1080665 C174.573455,30.1029547 174.579617,30.097843 174.585779,30.0930721 C174.599815,30.082167 174.612995,30.0722844 174.625662,30.0630832 C174.628401,30.0608682 174.631995,30.0581419 174.634563,30.0560972 C174.646716,30.0472369 174.658869,30.0380358 174.67068,30.029005 C175.08714,29.7044101 175.507707,29.3680581 175.91441,29.0427816 L175.999311,28.9747955 C176.75486,28.370248 177.509896,27.765019 178.264248,27.158938 C178.346752,27.0926559 178.429428,27.0267145 178.512275,26.9609436 C178.618572,26.8764296 178.722302,26.7937899 178.824149,26.7114911 C178.491734,26.5726223 178.167365,26.4562453 177.843509,26.3591223 C177.642383,26.2988039 177.444338,26.2422341 177.24886,26.1894128 C176.662257,26.0311196 176.097905,25.9057117 175.537833,25.8094408 L175.402266,25.7860972 C174.969032,25.7109547 174.560104,25.6399017 174.164527,25.629167 C174.060113,25.6264408 173.955698,25.6232034 173.850941,25.6201363 C173.759194,25.6172397 173.668131,25.614343 173.577581,25.6119575 C173.124662,25.599519 172.685779,25.5927034 172.251347,25.6201363 C172.077608,25.6310413 171.904383,25.6473989 171.731329,25.6707425 C171.6365,25.6838626 171.5415,25.6964715 171.446671,25.7089101 C170.916554,25.7792816 170.415536,25.8459045 169.920167,25.9651782 C169.170437,26.1459631 168.305509,26.3795693 167.449995,26.7552816 C167.327608,26.8089547 167.205563,26.8655246 167.084203,26.9253318 C166.194113,27.3632369 165.507716,27.7742201 164.924365,28.2187704 C164.910329,28.229505 164.897149,28.242114 164.883113,28.2547229 C164.873869,28.2627313 164.863086,28.2722732 164.851617,28.2823263 C164.848194,28.2853933 164.844599,28.2884603 164.840833,28.2915274 C164.829536,28.3014101 164.817212,28.3116335 164.804032,28.3221978 C164.801464,28.3244128 164.799239,28.3261168 164.796671,28.3281615 C164.781608,28.3400888 164.765176,28.3525274 164.748059,28.3649659 C164.742923,28.3685441 164.737788,28.3721223 164.732653,28.3757006 C164.717932,28.385924 164.702356,28.3963179 164.686266,28.4063709 C164.681302,28.409438 164.67668,28.412505 164.671545,28.4155721 C164.651176,28.4278402 164.629779,28.4395972 164.607356,28.4511838 C164.601194,28.4542508 164.59486,28.4573179 164.588527,28.4603849 C164.570041,28.4692453 164.550698,28.4775944 164.531014,28.4856028 C164.523995,28.4884994 164.517491,28.4912257 164.510302,28.493952 C164.484797,28.5033235 164.458437,28.5120134 164.43105,28.5193402 C164.424716,28.5210441 164.418041,28.5224073 164.411365,28.5239408 C164.388428,28.5293933 164.364635,28.5339939 164.340329,28.5377425 C164.335023,28.538424 164.330572,28.5397872 164.325437,28.5404687 C164.24105,28.6270274 164.157518,28.7159715 164.073986,28.8044045 C164.028113,28.8529659 163.981554,28.9006754 163.935851,28.9495777 C163.838797,29.0536866 163.743113,29.1593291 163.647086,29.2649715 C163.613365,29.3021168 163.579131,29.3387508 163.545581,29.3760665 C163.417716,29.5178318 163.291221,29.6602788 163.16541,29.8025553 C163.164383,29.8035777 163.163356,29.8049408 163.162158,29.8061335 C163.034464,29.9507955 162.907797,30.0949464 162.782158,30.2380749 C162.713347,30.3166251 162.644365,30.3951754 162.575383,30.4737257 C162.573329,30.4778151 162.570419,30.4817341 162.568023,30.4858235 C162.562716,30.4960469 162.556725,30.5054184 162.550905,30.5151307 C162.540806,30.5319994 162.530194,30.5481866 162.518383,30.564033 C162.511365,30.5735749 162.504176,30.582776 162.496644,30.5918067 C162.48432,30.6068011 162.47114,30.621114 162.457446,30.6349156 C162.44923,30.6430944 162.441185,30.6512732 162.432626,30.6591112 C162.41705,30.6730832 162.400617,30.6858626 162.383671,30.6983011 C162.375455,30.7042648 162.367752,30.7109101 162.359536,30.716533 C162.357311,30.7180665 162.355428,30.7196 162.353203,30.7211335 L162.20959,30.8552313 C162.206851,30.8618765 162.20377,30.8680106 162.201203,30.8746559 C162.196581,30.8855609 162.191959,30.8959547 162.187338,30.9066894 C162.177581,30.9288402 162.167311,30.9503095 162.156698,30.971438 C162.152077,30.9808095 162.147284,30.990181 162.142491,30.9993821 C162.12914,31.0242592 162.115446,31.0486251 162.101239,31.0721391 C162.098842,31.0757173 162.096788,31.0798067 162.094563,31.0833849 C162.077617,31.1106475 162.060329,31.1368877 162.043041,31.1621056 C162.038248,31.1690916 162.033455,31.1753961 162.028662,31.1820413 C162.015824,31.200614 162.002815,31.2183346 161.989635,31.2357145 C161.983815,31.2433821 161.978167,31.2508793 161.972347,31.2583765 C161.95968,31.2749045 161.946842,31.2910916 161.934518,31.3065972 C161.929725,31.3125609 161.924932,31.3185246 161.920311,31.3243179 C161.90405,31.3442536 161.888302,31.3636782 161.873068,31.3820804 C161.871356,31.3842955 161.869644,31.3861698 161.867932,31.3882145 C161.856806,31.4018458 161.845851,31.4153067 161.834896,31.4284268 C161.830104,31.4347313 161.825311,31.4405246 161.820518,31.4464883 C161.811788,31.4573933 161.80323,31.4681279 161.795356,31.4786922 C161.790734,31.4844855 161.786455,31.4901084 161.782176,31.4957313 C161.77105,31.5107257 161.760437,31.5252089 161.751365,31.539181 C161.75068,31.5412257 161.749995,31.5431 161.749482,31.5451447 C161.746401,31.5570721 161.742806,31.5686587 161.739383,31.5802453 C161.732536,31.6041 161.72586,31.6277844 161.718158,31.6507872 C161.713878,31.6637369 161.709257,31.6765162 161.704635,31.6891251 C161.697104,31.7102536 161.689401,31.7310413 161.681356,31.7513179 C161.676221,31.7640972 161.670914,31.7763654 161.665608,31.7889743 C161.657221,31.8085693 161.648662,31.8279939 161.639761,31.847248 C161.634284,31.859005 161.628806,31.8705916 161.623158,31.8823486 C161.613743,31.9016028 161.604329,31.9201754 161.594914,31.938748 C161.589266,31.9493123 161.583788,31.9598765 161.578311,31.9702704 C161.567869,31.9895246 161.557599,32.008438 161.547158,32.0268402 C161.542194,32.0357006 161.53723,32.0447313 161.532266,32.0532508 C161.520284,32.0742089 161.508644,32.0941447 161.496662,32.1139101 C161.493239,32.1198737 161.489644,32.1260078 161.486221,32.1318011 C161.471158,32.157019 161.456266,32.1813849 161.441716,32.2052397 C161.385401,32.2979324 161.332167,32.3855134 161.296563,32.465086 C160.85032,33.4646 160.542041,34.4169156 160.354266,35.3765581 C160.157077,36.3832285 160.19559,37.3948402 160.236158,38.465748 L160.236842,38.4858542 C160.264401,39.2118905 160.436086,39.9631447 160.60041,40.6022816 C160.882671,41.7001112 161.291428,42.7809017 161.848932,43.9036084 C161.922707,43.7889352 161.99614,43.6752844 162.068716,43.5633374 C162.239887,43.2990609 162.416878,43.025924 162.584113,42.7558542" id="Fill-66" fill="#D3E7F7"></path>
                <path d="M157.166973,9.95957905 C156.836955,10.6552858 156.566676,11.3707578 156.341072,12.1470595 C156.325324,12.2009031 156.310261,12.2552578 156.295883,12.3094422 C156.195405,12.6885623 156.12591,13.0707494 156.070622,13.4019897 C155.992568,13.8681796 155.942072,14.3580539 155.917937,14.8879701 C155.909892,15.0644953 155.904757,15.2454506 155.902532,15.4313472 C155.89945,15.6993723 155.903559,15.9685902 155.915369,16.2386601 C155.965694,17.4087355 156.155694,18.5963612 156.481775,19.7798975 C156.683072,20.510364 156.931784,21.2467941 157.236126,22.0132131 C157.337631,22.2686293 157.445468,22.5274534 157.55964,22.7905372 C158.025396,23.8628081 158.588207,24.9342271 159.280252,26.0664757 C160.031694,27.2960176 160.697207,28.2728696 161.374703,29.1401601 C161.460802,29.2504031 161.544847,29.3616684 161.628207,29.4729338 C161.656279,29.5104198 161.683667,29.5470539 161.711225,29.5843696 C161.73091,29.6111209 161.751279,29.6378723 161.770793,29.6646237 C161.800919,29.6303751 161.831045,29.5961265 161.861171,29.5620483 L161.923306,29.4911656 C162.307414,29.053431 162.70145,28.6044506 163.109694,28.1667159 C163.245946,28.0205204 163.383396,27.875688 163.522901,27.7332411 C163.530432,27.7255735 163.537622,27.7173947 163.54464,27.7095567 C163.553883,27.6993332 163.564324,27.687917 163.575964,27.6754785 C163.57836,27.6729226 163.581099,27.6703668 163.583324,27.6679813 C163.593252,27.6575874 163.603694,27.6470232 163.615333,27.6354366 C163.619955,27.6310064 163.62509,27.6265763 163.630225,27.6218053 C163.640495,27.612093 163.651279,27.6023807 163.66309,27.5921573 C163.669595,27.5865344 163.676784,27.5810818 163.683631,27.5754589 C163.695441,27.5660874 163.707081,27.5568863 163.719748,27.5476852 C163.723,27.5452997 163.725568,27.5429142 163.72882,27.5408696 C163.740117,27.5228081 163.75227,27.505769 163.764081,27.4882187 C163.773153,27.4749282 163.781883,27.4612969 163.790955,27.4483472 C163.815261,27.4139282 163.83991,27.3800204 163.865414,27.3473053 C163.872432,27.3381042 163.879793,27.3294142 163.886982,27.3203835 C163.906153,27.2958472 163.925667,27.2718221 163.945351,27.2483081 C163.956477,27.2350176 163.967604,27.2222383 163.979072,27.2091182 C163.995162,27.1903751 164.011252,27.1719729 164.027514,27.1537411 C164.039667,27.1401098 164.051991,27.1268193 164.064144,27.1135288 C164.079721,27.0964897 164.095297,27.0797913 164.110703,27.0632634 C164.123541,27.0499729 164.135865,27.0366824 164.148532,27.0235623 C164.163595,27.0077159 164.178658,26.9923807 164.193721,26.9768751 C164.206901,26.9634142 164.219739,26.9499534 164.232748,26.9368332 C164.236514,26.9329142 164.240108,26.929336 164.243874,26.9255874 C164.264928,26.9042885 164.285982,26.8828193 164.306694,26.8620316 C164.333054,26.8356209 164.358901,26.8086992 164.38509,26.7821182 C164.413505,26.7533221 164.442261,26.724526 164.469991,26.6953891 C164.885937,26.2576545 165.296748,25.8289506 165.718856,25.3908751 C166.301009,24.7871796 166.905586,24.1647411 167.575036,23.4761908 C167.81091,23.2337243 168.049865,22.9904059 168.286766,22.7496433 C168.403333,22.6313919 168.519216,22.5138221 168.633901,22.3976154 C168.813459,22.2156377 168.995586,22.0307634 169.178054,21.8450372 C169.46836,21.5495791 169.760036,21.2512243 170.045892,20.9535511 C170.945054,20.0179338 172.002378,18.9119254 173.02718,17.8031908 C174.066532,16.6791209 174.857685,15.7767299 175.565306,14.9068835 C175.61255,14.8487802 175.659279,14.7910176 175.705838,14.7334254 C176.651216,13.5589198 177.638703,12.2762159 178.454162,10.8529394 C178.660937,10.4920511 178.838784,10.1562103 178.992495,9.83621592 C179.031694,9.75442821 179.070036,9.67332207 179.106153,9.59357905 C179.334153,9.08956229 179.500189,8.62200922 179.619495,8.1553081 C179.703712,7.82611257 179.76191,7.51310419 179.793919,7.21406788 C179.810009,7.06446453 179.819595,6.91826899 179.822505,6.77548128 C179.837225,6.06052039 179.687964,5.42479134 179.371982,4.82978575 C179.244631,4.59004553 179.084414,4.35405391 178.867883,4.08943659 C178.79582,4.00117402 178.717423,3.90984441 178.631838,3.81425503 C177.727541,2.80230251 176.574532,2.08597849 175.107252,1.62421872 C174.061054,1.29502318 173.048063,1.1135567 172.010423,1.06908464 C171.42673,1.04420754 170.851937,1.06721034 170.243766,1.09140587 C170.016108,1.10060698 169.78845,1.1098081 169.560622,1.11628296 C169.457577,1.11900922 169.33382,1.1440567 169.202703,1.17046732 C169.10445,1.19023268 169.002775,1.21067961 168.893739,1.22584441 C168.877306,1.2280595 168.861045,1.23129693 168.844613,1.23436397 C168.789495,1.24441704 168.71709,1.25753715 168.632532,1.26145615 L168.63236,1.26162654 C168.589225,1.27202039 168.546261,1.28224385 168.503297,1.29229693 C168.426784,1.3100176 168.348901,1.32262654 168.271018,1.32927179 C168.196387,1.34545894 168.119532,1.34665168 168.044559,1.33267961 C167.931928,1.32654553 167.821865,1.30865447 167.715225,1.27866564 C167.031396,1.55469916 166.361604,1.87656788 165.779622,2.16060978 C164.296252,2.88477179 163.044991,3.59990307 161.953775,4.34672709 C161.169468,4.88345894 160.361883,5.51458743 159.412225,6.33314609 C159.368063,6.49160978 159.296685,6.60696453 159.215721,6.69062654 C159.19518,6.74566285 159.170874,6.79643939 159.144514,6.8438081 C159.143658,6.84517123 159.142973,6.84636397 159.142288,6.84772709 C159.115928,6.89475503 159.087685,6.93820475 159.058586,6.97841704 C159.05773,6.97960978 159.057045,6.98063212 159.05636,6.98148408 C158.997306,7.06276061 158.935856,7.13142821 158.883649,7.18953156 C158.853351,7.22326899 158.825622,7.25462095 158.803883,7.28171313 C158.801144,7.28563212 158.796865,7.29006229 158.794297,7.2936405 C158.732505,7.37525782 158.672766,7.45687514 158.613027,7.53883324 C158.042342,8.32143939 157.567171,9.11580251 157.166973,9.95957905" id="Fill-68" fill="#D3E7F7"></path>
                <path d="M173.276286,47.2783737 C173.137637,47.331195 172.996934,47.3782229 172.852808,47.4201391 C172.802141,47.4349631 172.751817,47.4501279 172.701322,47.4652927 C172.363601,47.5668458 171.985655,47.6813486 171.557556,47.6678877 C171.111313,47.8769575 170.615087,47.8771279 170.080691,47.6685693 C170.055186,47.6585162 169.997159,47.6564715 169.938277,47.6556196 C169.116484,47.644033 168.385241,47.3594799 167.716988,47.0534575 C167.369511,46.8943123 167.051988,46.6997257 166.744736,46.5117844 L166.652304,46.4552145 C166.236529,46.2015022 165.832907,45.8792927 165.3817,45.4415581 C164.813925,44.8901726 164.340808,44.2633039 163.975529,43.5779911 C163.89234,43.4219128 163.806583,43.2566335 163.726132,43.0818123 C163.668105,43.1717788 163.610421,43.262086 163.554961,43.3515413 C163.381736,43.6314939 163.201664,43.9095721 163.027241,44.1787899 C162.870105,44.4214268 162.709033,44.6715609 162.553952,44.9199911 L162.617799,44.9959855 C162.825943,45.244586 163.022619,45.4793849 163.234186,45.6642592 C163.803159,46.1611196 164.491781,46.7288626 165.282934,47.1718793 C165.45034,47.2655944 165.622709,47.3543682 165.7997,47.4383709 C166.330673,47.6905497 166.903069,47.8982564 167.507988,48.0580832 C168.040159,48.1988263 168.586024,48.2826587 169.13634,48.3078765 C169.319835,48.3163961 169.503844,48.3184408 169.688195,48.3136698 C170.637511,48.2904966 171.517331,48.105452 172.377637,47.7481419 C172.693448,47.6169408 172.992313,47.4608626 173.276286,47.2783737" id="Fill-70" fill="#D3E7F7"></path>
                <path d="M156.101005,51.7509858 C156.346635,52.607712 156.69805,53.4671645 157.147887,54.3111115 C157.212248,54.4317483 157.278491,54.551874 157.346617,54.6719997 C157.817338,55.4987372 158.414041,56.2920779 159.119779,57.034983 C159.063293,56.8976478 159.013311,56.7594606 158.969491,56.6195696 C158.954941,56.5728824 158.940905,56.5258545 158.927725,56.4788265 C158.9065,56.4035137 158.878941,56.3239411 158.849842,56.2395975 C158.770761,56.0104215 158.674392,55.7318321 158.670455,55.4108154 C158.670113,55.4103042 158.66977,55.4096226 158.669428,55.4089411 C158.656419,55.3847455 158.644095,55.3602092 158.632968,55.3351617 C158.565869,55.185388 158.532662,55.0228349 158.533689,54.849888 C158.53386,54.8212623 158.534887,54.791955 158.536941,54.7626478 C158.547725,54.6116813 158.54995,54.4588405 158.547725,54.3024215 C158.546698,54.224212 158.544473,54.1451506 158.541905,54.0650668 C158.539167,53.9851534 158.535914,53.9042176 158.532491,53.8219187 C158.507842,53.2076589 158.482167,52.5734634 158.674221,51.9188209 C158.647689,51.605983 158.730365,51.3371059 158.798833,51.1147455 C158.832725,51.0038209 158.864905,50.8993712 158.875176,50.8134941 C158.878941,50.7807791 158.881509,50.7470416 158.884248,50.7129634 C158.895716,50.5614858 158.911806,50.3536087 159.011428,50.1455612 C159.097869,49.9654578 159.153329,49.7550249 159.212212,49.5323237 C159.243536,49.4132204 159.276059,49.290198 159.314914,49.1649606 C159.446203,48.7427316 159.609671,48.2474047 159.827059,47.7750807 C159.907851,47.5988964 159.982995,47.4215193 160.062419,47.2334075 C160.194905,46.9195472 160.332014,46.5947818 160.499932,46.2759802 C160.587914,46.1091673 160.675212,45.9348573 160.759599,45.7663405 C160.885239,45.5150137 161.015158,45.2551673 161.157059,45.0000919 C161.16014,44.9946394 161.163392,44.9885053 161.166986,44.9822008 C161.061032,44.8385612 160.965176,44.682483 160.881815,44.5172036 C160.260464,43.2835723 159.80686,42.0952651 159.4955,40.883955 C159.316284,40.1865444 159.12868,39.3615109 159.097185,38.5286394 L159.0965,38.5085332 C159.055248,37.4204159 159.012455,36.294983 159.234806,35.1594969 C159.239257,35.1366645 159.243707,35.1134913 159.2485,35.0906589 C158.888014,35.7003182 158.57186,36.2755584 158.293023,36.8291589 C158.046536,37.3181813 157.808779,37.7976617 157.606113,38.2892399 L157.569995,38.3773321 C157.296464,39.0406645 157.014032,39.7268293 156.782095,40.4135053 C156.456014,41.3796226 156.20114,42.3900416 155.954482,43.367064 L155.915455,43.5219494 C155.846473,43.7950863 155.802311,44.0750388 155.763113,44.3658964 C155.750104,44.4630193 155.737779,44.5611645 155.725113,44.6606729 C155.695329,44.8946198 155.664518,45.1364047 155.62395,45.3783601 C155.559761,45.760036 155.531689,46.1648852 155.540248,46.5818321 C155.545212,46.8273656 155.547437,47.0746031 155.54795,47.3201366 C155.548293,47.5656701 155.547608,47.8096701 155.546752,48.0497511 C155.545896,48.2623992 155.545041,48.4748768 155.545383,48.6875249 C155.545383,48.7175137 155.544527,48.7475025 155.543842,48.7774913 C155.542986,48.8095249 155.541788,48.8538265 155.543842,48.8689913 C155.570374,49.0318852 155.596563,49.1958014 155.62241,49.3597176 C155.754383,50.1905444 155.878653,50.9753656 156.101005,51.7509858" id="Fill-72" fill="#D3E7F7"></path>
                <path d="M165.348253,35.3396855 C164.96774,35.927705 164.695064,36.5436687 164.537415,37.1705374 C164.425469,37.6149173 164.334235,38.1109257 164.250361,38.7313196 C164.18583,39.206881 164.210821,39.6856799 164.259776,40.2028168 C164.794857,39.5045542 165.380433,38.7849927 166.034307,38.0214704 C166.124343,37.9163391 166.216776,37.8129117 166.309379,37.709314 C166.537893,37.4538978 166.75374,37.2124536 166.927992,36.9485179 C167.204605,36.5293559 167.568686,36.1366045 168.040605,35.7476017 C168.145875,35.6612134 168.251659,35.5760179 168.357614,35.4909927 C168.697731,35.2178559 169.019019,34.9598838 169.299911,34.6620402 C169.325758,34.6344369 169.351947,34.6066631 169.377965,34.5785486 C169.49419,34.453652 169.62565,34.312057 169.77628,34.1842637 C170.227145,33.8022469 170.665343,33.4263642 171.071875,33.0257749 C171.34883,32.7533196 171.643073,32.5052302 171.927731,32.2653196 L171.944334,32.2513475 C172.163776,32.0663028 172.385271,31.8833028 172.606767,31.7003028 C172.804298,31.5368978 173.005082,31.3705961 173.204839,31.2027609 C173.125415,31.1828251 173.045307,31.1586296 172.964686,31.1281296 C172.953559,31.1286408 172.941406,31.129152 172.928568,31.1293223 L172.918641,31.1293223 C172.882523,31.1296631 172.841271,31.1283 172.796424,31.1225067 C172.701938,31.1102385 172.584001,31.1330709 172.448947,31.1639117 C172.426866,31.1690235 172.404614,31.1743056 172.381505,31.1795877 C172.196983,31.222867 171.988325,31.2727916 171.752965,31.2683615 C171.730713,31.2680207 171.70846,31.269043 171.686037,31.2695542 C171.66019,31.2700654 171.634514,31.2705765 171.608325,31.2721101 C171.599424,31.2726212 171.590352,31.2736436 171.58128,31.2743251 C171.299704,31.2951128 171.014361,31.3711073 170.715154,31.4511911 L170.655415,31.4672078 C169.859298,31.6798559 169.175983,31.9594676 168.565758,32.3222302 C167.953136,32.6863559 167.353866,33.1249425 166.784379,33.6257218 C166.273091,34.0752134 165.803397,34.6358 165.348253,35.3396855" id="Fill-74" fill="#D3E7F7"></path>
                <path d="M155.748289,54.0539232 C155.444289,53.3946802 155.195235,52.7286215 155.004208,52.0625628 C154.82328,51.4309232 154.701749,50.7916159 154.59665,50.1621913 C154.561731,49.9524399 154.528695,49.7435405 154.496001,49.5366858 C154.470154,49.3746439 154.444478,49.212602 154.418118,49.0505601 C154.398947,48.9340126 154.401514,48.8312668 154.40374,48.7484567 C154.404082,48.7283506 154.404767,48.7084148 154.404767,48.6886494 C154.404424,48.4744679 154.40528,48.2599455 154.406136,48.0455936 C154.406992,47.8089204 154.407848,47.5683282 154.407334,47.3270545 C154.406821,47.0856103 154.404767,46.8439958 154.399803,46.6051075 C154.389875,46.1177891 154.423253,45.6420573 154.499082,45.1908617 C154.535884,44.971398 154.563956,44.7512528 154.593568,44.5183282 C154.646118,44.1039372 154.70055,43.6757444 154.809415,43.2449958 L154.848271,43.0904511 C155.100235,42.0923003 155.360758,41.0599008 155.701046,40.0518673 C155.944623,39.3300908 156.234415,38.6267165 156.514794,37.9465154 L156.55074,37.8585936 C156.768641,37.3303813 157.016839,36.8294316 157.273424,36.3203031 C157.730451,35.4133115 158.280253,34.4550321 158.954154,33.3907696 C159.095028,33.1685796 159.245487,32.9589986 159.390812,32.756574 C159.442334,32.6850098 159.493686,32.6134455 159.544695,32.5413701 C159.741541,32.2624399 159.944893,31.9838506 160.141397,31.7141215 C160.283298,31.5193645 160.425199,31.3246075 160.565731,31.1288282 C160.569839,31.1232053 160.574632,31.1165601 160.579938,31.1094036 C160.58165,31.1066774 160.583875,31.1041215 160.585929,31.1012249 C160.589866,31.0959427 160.593974,31.0903198 160.598595,31.0845265 C160.601163,31.0811187 160.603902,31.0777109 160.606812,31.0741327 C160.611262,31.0683394 160.616055,31.0623757 160.621361,31.0560712 C160.624442,31.0523226 160.627866,31.0484036 160.631118,31.0443142 C160.636767,31.0380098 160.642758,31.0313645 160.648749,31.0247193 C160.652172,31.0206299 160.655767,31.0168813 160.659361,31.0127919 C160.667406,31.0044427 160.675965,30.9957528 160.684866,30.9868925 L160.691713,30.9800768 C160.70301,30.9693422 160.715334,30.9582668 160.728001,30.9473617 C160.731767,30.9441243 160.736046,30.9410573 160.739812,30.9376494 C160.749226,30.9299818 160.758812,30.9223142 160.768911,30.914817 C160.774217,30.910898 160.780037,30.9068087 160.785514,30.9030601 C160.794929,30.8962444 160.804857,30.8897696 160.814956,30.8832947 C160.818208,30.8810796 160.821289,30.8786941 160.824713,30.8766494 C160.828307,30.8715377 160.831731,30.8674483 160.835325,30.862507 C160.853812,30.8362668 160.872298,30.8119008 160.890956,30.7878757 C160.899343,30.7769707 160.907731,30.7653841 160.915776,30.7548198 C160.941965,30.7219344 160.967298,30.6910936 160.991262,30.6621271 C161.007352,30.6427025 161.022929,30.6234483 161.037992,30.6047053 C161.040046,30.6023198 161.041929,30.6001047 161.043812,30.5977193 C161.042442,30.5960154 161.041073,30.5941411 161.039875,30.5926075 C161.028577,30.577102 161.016938,30.5615964 161.005641,30.5460908 C160.87983,30.3746774 160.751109,30.1991746 160.620677,30.0274204 C160.616568,30.0221383 160.612803,30.0168561 160.608866,30.011574 C160.56419,29.9529595 160.519343,29.8945154 160.474325,29.8369232 C159.769614,28.9347025 159.080478,27.9239427 158.305758,26.656574 C157.586154,25.4791718 156.999722,24.3619176 156.512911,23.2409148 C156.034487,22.1398478 155.664586,21.1060852 155.381812,20.0801606 C154.952343,18.5215936 154.743686,16.9528031 154.762172,15.4179204 C154.771758,14.6152081 154.831839,13.8947947 154.945496,13.2154455 C155.014136,12.8048031 155.103487,12.3191885 155.245388,11.8311885 C155.284415,11.6970908 155.325668,11.5641858 155.367776,11.4317919 C155.378902,11.3968617 155.390199,11.362102 155.401496,11.3273422 C155.440181,11.2084092 155.480235,11.0899874 155.521487,10.9722472 C155.52628,10.9584455 155.530731,10.9444735 155.535866,10.9305014 C155.581397,10.8018561 155.628983,10.6742332 155.677595,10.5476327 C155.690262,10.5144064 155.703271,10.4811802 155.71628,10.4481243 C155.758902,10.3392444 155.802379,10.2313869 155.847055,10.1242109 C155.853559,10.1088757 155.859379,10.0930293 155.865884,10.0776941 C155.855271,10.087236 155.844487,10.0964372 155.833019,10.1052975 C155.783893,10.1818031 155.719532,10.2474036 155.642848,10.2993729 C155.571298,10.4895293 155.441208,10.6461187 155.26319,10.7563617 C155.22228,10.8582556 155.158947,10.9477109 155.077983,11.0189344 C155.00746,11.1983561 154.883704,11.3523897 154.70774,11.479331 C154.660154,11.5873589 154.585695,11.681074 154.489839,11.7533198 C154.423938,11.9467137 154.298127,12.0762109 154.231884,12.1441969 C154.221442,12.1549316 154.21083,12.165155 154.201244,12.1762304 C153.995839,12.4785042 153.781019,12.7773701 153.573217,13.0663534 C153.472055,13.2072668 153.370893,13.3481802 153.270415,13.4897751 C153.250217,13.5182304 153.213758,13.5695182 153.158469,13.6245545 C153.119614,13.725426 153.057478,13.8152221 152.976172,13.8883198 C152.887334,14.1411802 152.743208,14.3592807 152.550127,14.5334204 C152.515379,14.6382109 152.45701,14.7312444 152.379127,14.8070684 C152.336848,14.9087919 152.27146,14.9996103 152.186217,15.0737304 C152.15592,15.246507 152.079235,15.3736187 152.043289,15.4332556 C151.81392,15.8135684 151.589686,16.1971187 151.361343,16.5890182 L151.354154,16.6012863 C151.326253,16.6498478 151.275586,16.7375992 151.189487,16.82075 C151.126668,17.026412 151.022082,17.2816578 150.800586,17.4936243 C150.776623,17.5513869 150.75283,17.6094902 150.729379,17.6675936 C150.566424,18.0675014 150.383271,18.5168226 150.066433,18.9138338 C150.063695,18.9274651 150.061641,18.9410964 150.059415,18.9547277 C150.041442,19.0601997 150.003271,19.2864791 149.837577,19.4768059 C149.796496,19.7095601 149.696019,19.898183 149.616938,20.0465936 C149.585785,20.1050377 149.556514,20.160074 149.537001,20.20625 C148.991136,21.4986662 148.428668,22.8895684 148.011523,24.3007472 C147.797046,25.0264427 147.574181,25.8013813 147.414992,26.5986411 C147.412424,26.6124427 147.410199,26.6267556 147.407803,26.6410684 C147.392911,26.7339316 147.36792,26.8903506 147.274632,27.0448953 C147.295686,27.3066159 147.242451,27.5565796 147.117496,27.782007 C147.136154,27.9278617 147.143172,28.1474958 147.031397,28.3584399 C147.076415,28.6888282 146.968406,28.9686103 146.876487,29.1604707 C146.878199,29.1739316 146.879911,29.1875628 146.881794,29.2013645 C146.900623,29.3438115 146.937938,29.6302388 146.788163,29.9047388 C146.821713,30.1407304 146.782172,30.3516746 146.75119,30.5162723 C146.733902,30.6096466 146.715586,30.706088 146.722262,30.7589092 C146.738866,30.8979483 146.713704,31.032898 146.651397,31.1533645 C146.691109,31.396683 146.668172,31.6224511 146.649001,31.8124372 C146.645406,31.8480489 146.641812,31.8834902 146.638731,31.9187612 L146.630001,32.0170768 C146.601415,32.3409902 146.574541,32.647183 146.572659,32.9526941 C146.57146,33.0908813 146.540821,33.2043617 146.49683,33.2962025 L146.496316,35.2660936 C146.53346,35.349926 146.544929,35.4294986 146.545614,35.493736 C146.548523,35.7012723 146.571803,35.9161355 146.59628,36.1434372 C146.636848,36.5179567 146.678614,36.9050852 146.635992,37.3191355 C146.679298,37.3954707 146.714217,37.4929344 146.716271,37.6122081 C146.720379,37.8338869 146.760433,38.0651075 146.802884,38.3103003 C146.83301,38.4837584 146.864163,38.6633506 146.88419,38.8502696 C146.896686,38.9674986 146.886244,39.0702444 146.877686,39.1469204 C147.016848,39.4043813 147.045262,39.6667835 147.067001,39.867845 C147.075731,39.9480992 147.083947,40.0237528 147.097298,40.0839008 C147.321704,41.0936383 147.532758,41.9081075 147.761442,42.6465824 C148.025902,43.5000712 148.364992,44.3995656 148.798226,45.3965237 C148.803019,45.4074288 148.808154,45.4181634 148.813118,45.4290684 C148.843244,45.4929651 148.892713,45.5977556 148.913938,45.7311718 C149.041289,45.867655 149.104623,46.0204958 149.13937,46.104669 L149.14519,46.1188115 C149.275623,46.432331 149.439433,46.7329008 149.61283,47.0511913 C149.662469,47.1425209 149.71228,47.2340209 149.761235,47.3256913 C149.794442,47.3875433 149.819262,47.4521215 149.835866,47.5182332 C149.915632,47.602236 149.987352,47.7135014 150.033055,47.8605489 C150.157668,47.976074 150.221857,48.1100014 150.252154,48.1727053 C150.256091,48.1812249 150.260028,48.189574 150.264136,48.1972416 C150.312406,48.2872081 150.374199,48.3809232 150.439929,48.4800908 C150.5541,48.6530377 150.680767,48.8443869 150.77337,49.0727109 C150.874019,49.1572249 150.947965,49.2678087 150.987677,49.3942388 C151.210199,49.6072277 151.366307,49.8486718 151.507181,50.0664316 C151.575307,50.172074 151.639839,50.2715824 151.706938,50.3606969 C151.729532,50.3910265 151.761541,50.4273198 151.795433,50.4654874 C151.890776,50.5738561 152.021037,50.721926 152.106623,50.9233282 C152.220794,51.0078422 152.308947,51.1197891 152.364064,51.2511606 C152.614145,51.4624455 152.831704,51.7219511 153.032316,52.0485908 C153.089145,52.0831802 153.140668,52.1254372 153.18483,52.1748506 C153.246794,52.2435182 153.293181,52.3237723 153.322965,52.4113534 L153.352406,52.4445796 C153.58383,52.5974204 153.822614,52.7901327 153.988821,53.0700852 C154.022884,53.092236 154.054722,53.1176243 154.084334,53.1455684 C154.122334,53.1815209 154.163073,53.2285489 154.19919,53.2883561 C154.277929,53.3352137 154.345713,53.3970656 154.399118,53.4701634 C154.571316,53.5677975 154.708938,53.7095628 154.804623,53.8881327 C155.089109,54.0627835 155.297424,54.3003087 155.476641,54.5446494 C155.629325,54.6029232 155.731686,54.6922081 155.800496,54.7876271 C155.941884,54.8670293 156.084812,54.9900517 156.20292,55.1795265 C156.261974,55.2008254 156.317947,55.2277472 156.370496,55.2597807 C156.36519,55.2502388 156.359713,55.2410377 156.354406,55.2316662 C156.133082,54.8426634 155.930586,54.4495712 155.748289,54.0539232" id="Fill-76" fill="#D3E7F7"></path>
            </g>
        </g>
    </g>
</svg>