<?xml version="1.0" encoding="utf-8"?>
<!-- Generator: Adobe Illustrator 25.2.1, SVG Export Plug-In . SVG Version: 6.00 Build 0)  -->
<svg version="1.1" id="Layer_1" xmlns="http://www.w3.org/2000/svg" xmlns:xlink="http://www.w3.org/1999/xlink" x="0px" y="0px"
	 viewBox="0 0 269.4 46.6" style="enable-background:new 0 0 269.4 46.6;" xml:space="preserve">
<style type="text/css">
	.st0{fill:#D3E7F7;}
</style>
<g id="Group_1213" transform="translate(-163.999 -397.661)">
	<path id="Path_12067" class="st0" d="M232.1,398h-6l-14.8,14.3V398h-4.6v33.8h4.6v-12.1l1.5-1.8l15,14h5.9l-17.8-17.7L232.1,398z"
		/>
	<rect id="Rectangle_1786" x="236.8" y="398" class="st0" width="4.7" height="33.8"/>
	<path id="Path_12068" class="st0" d="M273,403.3c-0.4-2.8-2.1-4.6-5.2-5.3l-17.2-0.1v33.8h4.6v-14.6h6.3l6.5,14.6h5.1l-6.5-14.6
		l1.1-0.1c3.1-0.7,4.8-2.4,5.2-5.3l0.1-1.2v-6.1L273,403.3z M268.4,410.7l-0.2,0.7c-0.2,0.5-0.6,0.9-1.1,1.1l-0.7,0.2h-11.2v-9.9
		h11.2l0.7,0.1c0.5,0.2,0.9,0.6,1.1,1.1l0.2,0.7L268.4,410.7z"/>
	<path id="Path_12069" class="st0" d="M291.1,397.9l-9,23.9v10h4.6v-8.4h13.1v8.4h4.7v-10l-8.9-23.9L291.1,397.9z M288.2,418.7
		l5.1-13.8l5.2,13.8H288.2z"/>
	<path id="Path_12070" class="st0" d="M332.9,398h-22.5v4.7h8.9v29.1h4.6v-29.1h8.9L332.9,398z"/>
	<path id="Path_12071" class="st0" d="M363.2,402.7V398h-22.5v33.8h22.5v-4.6h-17.8v-9.9h13.1v-4.6h-13.1v-9.9L363.2,402.7z"/>
	<path id="Path_12072" class="st0" d="M391.5,399.9c-0.9-1-2.1-1.6-3.3-1.7l-1.3-0.1h-9.2l-1.3,0.1c-1.3,0.2-2.5,0.8-3.4,1.7
		c-0.9,0.9-1.6,2.1-1.8,3.4l-0.1,21.8l0.1,1.3c0.3,1.3,0.9,2.5,1.8,3.4c0.9,1,2.1,1.6,3.4,1.8l1.3,0.1h9.2l1.3-0.1
		c1.3-0.2,2.5-0.8,3.3-1.8c1-0.9,1.6-2.1,1.9-3.4l0.1-1.3v-2.6h-4.6v2.6l-0.2,0.8c-0.2,0.5-0.6,0.8-1.1,1l-0.8,0.2h-9.2l-0.8-0.2
		c-0.5-0.1-0.9-0.5-1.1-1l-0.2-0.8v-20.5l0.2-0.7c0.2-0.5,0.6-0.9,1.1-1.1l0.8-0.2h9.2l0.8,0.2c0.5,0.2,0.8,0.6,1.1,1.1l0.2,0.7v2.6
		h4.6v-2.6l-0.1-1.3C393.1,402,392.4,400.8,391.5,399.9z"/>
	<path id="Path_12073" class="st0" d="M418.6,412.6h-13.1v-14.5h-4.6v33.7h4.6v-14.5h13.1v14.5h4.7v-33.7h-4.7V412.6z"/>
	<g id="Group_1212">
		<path id="Path_12074" class="st0" d="M341.3,444.2l-0.4-5v-1.9h0.9v1.9l0.2,2.7l1.5-4.5l1.5,4.5l0.2-2.7v-1.9h0.9v1.9l-0.3,5h-1
			l-1.3-3.9l-1.3,3.9L341.3,444.2z"/>
		<path id="Path_12075" class="st0" d="M349.6,444.2v-6.9h4.6v0.9h-3.6v2h2.7v0.9h-2.7v2h3.6v0.9H349.6z"/>
		<path id="Path_12076" class="st0" d="M365.4,444.2h-3.2v-6.9l3.5,0c0.3,0,0.5,0.2,0.7,0.4c0.2,0.2,0.3,0.4,0.4,0.7l0,0.2v4.4
			c-0.1,0.5-0.5,1-1.1,1.1L365.4,444.2z M365.4,443.3l0.2,0c0.1,0,0.2-0.1,0.2-0.2l0-0.1v-4.3c0-0.1-0.1-0.2-0.2-0.2l-0.2,0h-2.3v5
			L365.4,443.3z"/>
		<path id="Path_12077" class="st0" d="M370,444.2v-6.9h4.6v0.9h-3.6v2h2.7v0.9h-2.7v2h3.6v0.9H370z"/>
		<path id="Path_12078" class="st0" d="M379.4,444.2l-1.8-4.8v-2h0.9v1.8l1.3,3.6l1.3-3.6v-1.8h0.9v2l-1.8,4.8L379.4,444.2z"/>
		<path id="Path_12079" class="st0" d="M386.5,444.2c-0.3,0-0.5-0.2-0.7-0.4c-0.2-0.2-0.3-0.4-0.4-0.7v-4.7c0.1-0.3,0.2-0.5,0.4-0.7
			c0.2-0.2,0.4-0.3,0.7-0.4l0.3,0h1.9l0.3,0c0.3,0,0.5,0.2,0.7,0.4c0.2,0.2,0.3,0.4,0.4,0.7v4.7c-0.1,0.3-0.2,0.5-0.4,0.7
			c-0.2,0.2-0.4,0.3-0.7,0.4l-0.3,0h-1.9L386.5,444.2z M388.6,443.3l0.2,0c0.1,0,0.2-0.1,0.2-0.2l0-0.2v-4.2l0-0.1
			c0-0.1-0.1-0.2-0.2-0.2l-0.2,0h-1.9l-0.2,0c-0.1,0-0.2,0.1-0.2,0.2l0,0.1v4.2l0,0.2c0,0.1,0.1,0.2,0.2,0.2l0.2,0L388.6,443.3z"/>
		<path id="Path_12080" class="st0" d="M393.2,444.2v-6.9l3.5,0c0.3,0.1,0.5,0.2,0.7,0.4c0.2,0.2,0.3,0.4,0.4,0.7l0,0.3v1.2l0,0.2
			c0,0.3-0.2,0.5-0.4,0.7c-0.2,0.2-0.4,0.3-0.7,0.4l-0.2,0h-2.3v2.9L393.2,444.2z M396.5,440.3l0.1,0c0.1,0,0.2-0.1,0.2-0.2l0-0.1
			v-1.2l0-0.2c0-0.1-0.1-0.2-0.2-0.2l-0.1,0h-2.3v2L396.5,440.3z"/>
		<path id="Path_12081" class="st0" d="M402.1,444.2l-0.3,0c-0.6,0-1-0.5-1.1-1.1v-0.5h0.9v0.3l0,0.2c0,0.1,0.1,0.2,0.2,0.2l0.2,0
			h1.9l0.2,0c0.1,0,0.2-0.1,0.2-0.2l0-0.2v-1.2l0-0.1c0-0.1-0.1-0.2-0.2-0.2l-0.2,0h-2.1c-0.5-0.1-1-0.5-1.1-1.1v-1.7
			c0.1-0.3,0.2-0.5,0.4-0.7c0.2-0.2,0.4-0.3,0.7-0.4l0.3,0h1.9l0.3,0c0.3,0,0.5,0.2,0.7,0.4c0.2,0.2,0.3,0.4,0.4,0.7v0.5h-0.9v-0.2
			l0-0.1c0-0.1-0.1-0.2-0.2-0.2l-0.2,0h-1.9l-0.2,0c-0.1,0-0.2,0.1-0.2,0.2l0,0.1v1.2l0,0.1c0,0.1,0.1,0.2,0.2,0.2l0.2,0h1.9l0.2,0
			c0.3,0,0.5,0.2,0.7,0.4c0.2,0.2,0.3,0.4,0.4,0.7v1.8c-0.1,0.6-0.5,1-1.1,1.1l-0.3,0L402.1,444.2z"/>
		<path id="Path_12082" class="st0" d="M414.5,437.4v6.9h-0.9v-6.9H414.5z"/>
		<path id="Path_12083" class="st0" d="M419.6,444.2v-5.9h-1.8v-0.9h4.6v0.9h-1.8v5.9H419.6z"/>
	</g>
	<path id="Path_12084" class="st0" d="M433.1,400c-0.4-0.8-1-1.5-1.9-1.9c-0.9-0.4-1.9-0.4-2.7,0c-0.4,0.2-0.8,0.4-1.1,0.7
		c-0.3,0.3-0.6,0.7-0.8,1.1c-0.2,0.4-0.3,0.9-0.3,1.4c0,1.4,0.9,2.7,2.2,3.3c0.9,0.4,1.9,0.4,2.7,0c0.4-0.2,0.8-0.4,1.1-0.7
		c0.3-0.3,0.6-0.7,0.8-1.1c0.2-0.4,0.3-0.9,0.3-1.4C433.4,401,433.3,400.5,433.1,400z M432.6,402.6c-0.1,0.4-0.3,0.7-0.6,1
		c-0.3,0.3-0.6,0.5-0.9,0.6c-0.4,0.2-0.7,0.2-1.1,0.2c-0.4,0-0.8-0.1-1.2-0.2c-0.3-0.1-0.7-0.4-0.9-0.6c-0.3-0.3-0.5-0.6-0.6-1
		c-0.1-0.4-0.2-0.8-0.2-1.2c0-0.4,0.1-0.8,0.2-1.2c0.1-0.4,0.3-0.7,0.6-0.9c0.5-0.6,1.3-0.9,2.1-0.9c0.4,0,0.8,0.1,1.1,0.2
		c0.7,0.3,1.2,0.9,1.5,1.6c0.2,0.4,0.2,0.8,0.2,1.2C432.8,401.8,432.7,402.2,432.6,402.6z"/>
	<path id="Path_12085" class="st0" d="M431.2,401.4c0.2-0.2,0.3-0.5,0.3-0.8c0-0.3-0.1-0.7-0.4-0.9c-0.3-0.2-0.7-0.3-1.1-0.3h-1.6
		v4.1h0.6v-1.8h0.7l1.1,1.8h0.7l-1.2-1.8C430.8,401.7,431,401.6,431.2,401.4z M429.8,401.2h-0.7v-1.3h0.8c0.1,0,0.2,0,0.3,0
		c0.1,0,0.2,0,0.3,0.1c0.1,0,0.2,0.1,0.2,0.2c0.1,0.1,0.1,0.2,0.1,0.3c0,0.1,0,0.3-0.1,0.4c-0.1,0.1-0.1,0.2-0.2,0.2
		c-0.1,0-0.2,0.1-0.3,0.1C430.1,401.2,430,401.2,429.8,401.2z"/>
	<path id="Path_12086" class="st0" d="M198.6,397.7H164v34.6h34.6L198.6,397.7z M177.3,402.2v13.7l-7.4-7.5
		C171.4,405.5,174.1,403.3,177.3,402.2z M181.5,428.1c-7.4,0-13.3-6-13.3-13.3c0-0.8,0.1-1.6,0.2-2.4l15.5,15.5
		C183.1,428.1,182.3,428.1,181.5,428.1L181.5,428.1z M187.9,426.5l-6.7-6.8v-1.4h13.2C193.4,421.8,191.1,424.7,187.9,426.5
		L187.9,426.5z M181.2,414.3v-12.8h0.3c7.1,0,13,5.6,13.3,12.8L181.2,414.3z"/>
</g>
</svg>
