<?xml version="1.0" encoding="utf-8"?>
<!-- Generator: Adobe Illustrator 25.2.1, SVG Export Plug-In . SVG Version: 6.00 Build 0)  -->
<svg version="1.1" id="Layer_1" xmlns="http://www.w3.org/2000/svg" xmlns:xlink="http://www.w3.org/1999/xlink" x="0px" y="0px"
	 viewBox="0 0 2500 1261.3" style="enable-background:new 0 0 2500 1261.3;" xml:space="preserve">
<style type="text/css">
	.st0{fill:#D3E7F7;}
</style>
<path class="st0" d="M1078.7,641.4c0,23,9.6,30.2,44.1,30.2s50.3-10.5,72.8-57h8.1l-8.1,72.9H981.4v-8.2
	c32.1-8.1,35.5-15.4,35.5-45.5V454.5c0-24.9-6.2-32.1-35.5-39.3V407h132.8v8.1c-27.8,7.2-35.5,13-35.5,37.4L1078.7,641.4
	L1078.7,641.4z M1293.9,648.6c0,18.2,9.1,28.3,29.2,30.7v8.2h-113.6v-8.2c24.4-4.8,30.2-11.5,30.2-34.5v-96.3
	c0-22-6.2-28.3-32.6-33.6v-8.1l78.6-6.7h8.2L1293.9,648.6L1293.9,648.6z M1267,387.4c17.2,0,31.1,13.9,31.1,31c0,0,0,0.1,0,0.1
	c0,17.3-13.9,31.7-31.1,31.7c-17.3,0-31.6-14.4-31.6-31.7C1235.4,401.3,1249.7,387.4,1267,387.4z M1411.8,545.6
	c18.2-16.8,27.8-21.6,42.2-21.6c32.1,0,53.7,30.7,53.7,74.8c0,58.9-26.8,82.9-67.1,82.9c-21.6,0-28.8-9.6-28.8-30.2V545.6z
	 M1411.8,387.4h-8.2l-73.3,5.3v8.1c16.8,2.9,27.3,11.5,27.3,26.8v259.8c27.3,5.2,54.2,7.1,88.2,7.1c88.2,0,121.7-46,121.7-101.6
	c0-52.7-37.3-93.4-86.2-93.4c-25.9,0-48,10.5-69.5,33.1L1411.8,387.4L1411.8,387.4z M1647,570c1.4-34.5,16.3-57.5,38.3-57.5
	c22,0,38.3,24,40.2,57.5H1647L1647,570z M1784.1,581c-6.7-49.8-43.6-81.5-94.9-81.5c-57,0-100.6,42.6-100.6,98.7
	c0,55.1,42.2,96.3,98.7,96.3c43.6,0,80.5-24,96.8-62.8h-8.1c-17.3,26.4-38.3,39.3-64.7,39.3c-33.6,0-67.1-30.7-64.2-90.1L1784.1,581
	L1784.1,581z M1957.6,569.5c-15.8-15.3-28.3-23.5-40.8-23.5c-16.3,0-26.4,6.7-40.2,25.9v73.8c0,21.6,4.3,28.3,30.6,33.6v8.2h-115
	v-8.2c24-5.8,30.2-13,30.2-33.6v-95.4c0-23-10-33.5-33-35.5v-8.2l79-7.2h8.2v57.5h0.9c17.7-39.3,37.4-57.5,59.9-57.5
	c11.9,0,23.5,5.3,32.1,15.3L1957.6,569.5z M2262.8,506.7v8.1c23,4.8,28.3,19.2,12,57.5l-25,58l-38.3-79c-11.1-23-11.1-33.6,9.6-36.5
	v-8.1H2061v-70h-9.1c-25.4,32.6-55.1,61.4-77.7,75.2v9.1h32.6v116c0,41.2,27.3,57.5,61.3,57.5c26.8,0,44.6-9.6,58-32.1l-5.7-5.2
	c-8.6,10.1-16.8,14.4-26.3,14.4c-25.4,0-33.1-17.2-33.1-46.5v-104h48.4c26.4,0,34,9.6,45.5,34l66.1,139.4
	c-22.1,59.4-41.2,83.4-74.7,83.4c-7.2,0-13-0.5-24.5-4.3l-11,54.6c6.7,1,10.6,1,15.3,1c37.4,0,58-15.8,77.2-59.9l91-208
	c14.9-33.5,20.6-40.2,43.6-46.5v-8.1L2262.8,506.7L2262.8,506.7z M1335.4,1012.6c3.3,24.4,15.4,38.3,42.7,43.6v8.1h-138.5v-8.1
	c30.7-7.6,36-25.3,30.7-61.7l-23-160.1h-1l-91,230h-10.1l-90.1-230h-0.9l-24.4,164.9c-4.8,32.6,1.4,54.6,33,57v8.1H961.1v-8.1
	c30.2-1.4,43.1-18.7,49.8-61.7l27.8-183.1c-11-11.5-26.4-18.7-40.7-19.2V784h101.1l73.3,185l74.3-185h94.9v8.2
	c-28.8,5.3-35.5,19.6-31.7,45.5L1335.4,1012.6L1335.4,1012.6z M1400,923c0-20.1-6.7-27.3-28.3-31.2v-8.2l74.3-7.2h8.1v133.2
	c0,21.6,13.9,31.6,33.6,31.6c18.2,0,29.2-7.7,45-32.6v-90.1c0-14.9-9.6-23.5-28.3-26.8v-8.2l74.3-7.2h8.1v143.8
	c0,23.9,4.8,29.7,28.8,35.9v8.1l-82.9,7.2v-44h-1c-20.1,30.6-42.7,44-71.9,44c-37.3,0-59.9-20.6-59.9-55.1L1400,923L1400,923z
	 M1657.4,898h-32.6v-9.1c22.5-13.9,52.2-42.7,77.6-75.2h9.1v70h59.4V898h-59.4v104c0,29.2,7.6,46.5,33,46.5
	c9.6,0,17.7-4.3,26.4-14.4l5.8,5.3c-13.4,22.5-31.1,32.1-58,32.1c-34,0-61.3-16.2-61.3-57.5L1657.4,898L1657.4,898z M1806,923
	c0-20.1-6.7-27.3-28.3-31.2v-8.2l74.3-7.2h8.2v133.2c0,21.6,13.9,31.6,33.5,31.6c18.2,0,29.3-7.7,45.1-32.6v-90.1
	c0-14.9-9.6-23.5-28.3-26.8v-8.2l74.3-7.2h8.2v143.8c0,23.9,4.8,29.7,28.8,35.9v8.1l-82.9,7.2v-44h-0.9c-20.1,30.6-42.7,44-71.9,44
	c-37.4,0-59.9-20.6-59.9-55.1L1806,923L1806,923z M2145.3,1033.2c-12.5,12.5-23,18.7-34.1,18.7c-14.9,0-24.9-13-24.9-32.6
	c0-24.4,13.9-35.5,59-54.7V1033.2z M2199.9,944c0-49.8-40.7-67.6-79.6-67.6c-42.2,0-71.4,22.5-81,61.4h7.2
	c11.5-20.1,29.7-30.2,54.1-30.2c32.6,0,45.1,15.3,45.1,47.4c-44.1,16.3-116,20.1-116,69c0,26.3,24.4,47.4,54.2,47.4
	c22,0,38.8-5.2,57-21.6l4.4-3.8c9.1,18.2,21.6,25.4,43.6,25.4c26.4,0,42.2-12.4,44.1-35h-7.7c-1.9,11-6.7,16.7-14.4,16.7
	c-8.1,0-11-7.2-11-23.9V944z M2270.3,813.7c0-25.4-8.2-34.5-34-35.9v-8.1l80-5.3h8.1v255.9c0,24,5.3,29.7,32.1,35.9v8.1h-120.3v-8.1
	c26.4-4.3,34.1-12.9,34.1-35.9L2270.3,813.7L2270.3,813.7z M2363.2,1029.9h14.1v36.6h5.6v-36.6h14.1v-5h-33.8V1029.9z
	 M2440.9,1066.5V1042c0-1.2,0.1-6.5,0.1-10.4h-0.1l-11.7,35h-5.6l-11.7-34.9h-0.1c0,3.8,0.1,9.1,0.1,10.3v24.6h-5.5v-41.6h8.1
	l11.9,35.2h0.1l11.8-35.2h8v41.6H2440.9z"/>
<path class="st0" d="M895.9,532.2L895.9,532.2c-2.7-3.6-9.5-0.6-9.5-0.6l-108.1,40.1c-8.1-20-17.8-39.2-29.1-57.6l35-95.5
	c0,0,4.4-9.5,0.3-11.8c-4-2.4-10.6,4-10.6,4l-63.6,52.2c-24.8-26.6-53.9-48-87.4-63.2c-12.6-5.6-25.7-10.3-39-14L564.3,310
	c0,0-1.7-7.6-6.8-7.6c-5.1,0-6.4,7.2-6.4,7.2l-12.7,66.8c-14.2-1.8-28.5-2.7-42.8-2.8c-47.4,0-89.6,9-126.5,25.6
	c-15.6,7-30.5,15.5-44.5,25.3c-2.3,1.6-4.5,3.4-6.8,5.1c-13.1-33.8-23.4-61.4-25.4-69.6c7.3-6.6,22.6-30.7,26.3-47
	c5.2-22.8,3.6-33.5-1.9-50.7c-4-12.6-11.9-24.4-11.4-32.3c0.4-5.9,3.6-10.2,6.2-12.9c-1.5-8.4-6.9-12-13.4-12.8
	c-5.9-0.8-10.6,0.9-15.9,1.2c-1.3-2.5-4-2-2-10.6c3-13.1,28-19.2,48.6-27.1c25.9-10.1,40.4-28.8,41.3-58.7
	c0.6-21.8-11.5-38-26.8-45.2c-3.1,8.8-15.7,20.6-24.5,25.5c-8.7,4.8-20.7,6.6-29.3,4.6c1.9-16-5.5-29.7-17.2-35.2
	c-3.8,6.8-17.8,16.3-39,15.6c-21.2-0.7-22.5-5.7-52.3-5.6c-42.3,0.1-77.4,25.6-81.7,63.1c-2.8,24.4,6.6,44.8,13.7,55.4
	c-5.3,4-17.7,15.9-19.9,19.4c-3.1-3.6-11.5-8.3-21.6-1.7c2.2,5.3,2.6,11.8,0.9,18c-1.8,6.1-17.2,36.2-19,60.4
	c-3,41,20.7,68.8,40.6,76.7c-4.4,6.6-5.3,13.7-2.2,19.4c2,3.8,6.1,7.5,14.6,7.5c-4.9,5.3-6.7,13.3-3.5,21.2
	c3.5,8.8,13.7,21.6,22.5,21.6c-0.4,7.5,3.1,25.1,4.9,32.2c-3.1,5.7-6.2,10.1-5.7,20.6c0.4,11,7.5,19.9,16.3,21.7
	c2.2,5.3,3.9,11.1,6.9,14.6c3.1,3.5,5.8,7.8,12.5,12.2c6.6,4.4,14.1,8,22.9,8c8.8,0,16.6,0.4,20.5-0.9c0.2,2.5,1,25.9,2,51.8
	c-22.2,61.7-33.2,133.3-33.2,210v0c0,137.6,39.2,260.2,114.2,339.2c0,0,4.3,5.3,16.3,13.1c0,0,23.5-40.1,59.1-85.7
	c9.4-11.9,19.7-23.1,30.8-33.5c16.4-14.3,33.5-28,51.1-40.9c46.1-31.4,99.5-55.3,148.8-65.5c-56.5,29.1-88.6,44.8-141.8,90.3
	c-33.6,28.9-87.3,79.8-123.9,149.6c7.6,6,17.9,12.3,30,13.5c7.8-9.1,47.6-82.2,108.8-140.9C589.9,923.2,735.7,896.4,812,897.9
	c4.3-31.4,6.5-64.2,6.5-98c0-55.4-5.8-108-17.3-156.3l91.1-101.4C892.3,542.1,898.6,535.9,895.9,532.2z M645.8,554.5l117.5-116.2
	l-70.1,149.4C686.6,582.4,658.9,559.2,645.8,554.5L645.8,554.5z M559.7,341.9l33.5,189.4c-10.6-5.3-43.5-8.3-58.1-5.7L559.7,341.9z
	 M368.4,439.1L368.4,439.1l116.1,105.3c-11.2,6.3-28,23.3-32.6,37.1L368.4,439.1L368.4,439.1L368.4,439.1z M430.2,682.9l-35.6-24.6
	c0.4-8.4-1.8-22-2.3-29.1c-0.1-0.8-0.3-2-0.5-3.1l44.6,21.5c-4,6.2-5.4,9.9-6.7,17.4C428.3,672.6,429.3,676.8,430.2,682.9z
	 M132.5,139.8L132.5,139.8c1.1-18.5,16-41.4,48.2-43.1c14.7-0.8,33.6,3.1,43.3,3.1c9.7,0,34.5-2.4,40.3-6.8
	c3.1,7.1,1.9,14.4-1.9,20.9c7.5,4,28.7,7.9,37.5,7.4c17.6-0.9,35.7-10.6,42.2-19.7c2.7,9.6,0.8,23.9-7.8,31.6
	c-17.2,15.4-57.8,23.8-69.7,32.6c-9.8,7.3-13.7,11.5-16.3,17.6c-4-3.9-6.2-7.2-12.7-6.5c-7.6,0.8-11.6,8.3-19.1,7.8
	c-9.7-0.6-17.2-16.7-28.7-17.2c-17.6-0.7-24.7,13.6-32.2,14.1c-5.3,0.3-12.4-7.4-15.4-11.5C134.8,163.2,131.8,151.3,132.5,139.8z
	 M87.2,300.8c-2.7-7.5-6.1-12.2-5.3-22.4c0.9-11.6,8.5-21.3,12-30.5c2.8-7.3,1.2-19.8-1.8-22.9c4-0.9,12,4.1,17.7,2.6
	c7-1.8,9.2-4.1,11.8-9.9c2.7-5.7,6.3-10.4,12.3-10.8c5.4-0.4,16.6,5.1,25.7,3.1c11.9-2.7,16.7-14.5,26.5-14.5
	c9.7,0,17.6,12.7,26.9,14.1c9.3,1.3,23.8-9.7,33.1-6.2c9.3,3.5,4.4,17.7,11.5,23.4c6.6,5.3,22.1-0.9,26.5-1.8
	c-1.3,6.2-3.1,10.6-2.6,17.2c0.5,6.6,11.1,26.5,11.5,33.5c0.4,8.8,0.9,16.3-2.6,24.3c-0.9-26.5-32.3-58.6-102-60v0
	C127.2,238.8,85.4,263.3,87.2,300.8z M139.7,315.3c-1.8-11.5-0.4-19.2,7.7-26.1c8.8-7.5,23-11.6,37.1-11.6c21.2,0,34.9,5.6,42.8,12
	c9.4,7.6,11,16.6,10.2,26.7c-7-6.6-21.2-19.1-51.2-19.1v0C161.5,297.1,142.3,307,139.7,315.3z M147.7,394.3
	c-3.1,2.2-9.4,11.8-10.7,17.5c-5.6-3.4-11.3-15.8-12.8-21.2c4.9-8.3,15.1-16.2,19.9-17.1c-5.7-0.4-15,0-22.9,1.4
	c-2.7-5.3-3.5-14.6-2.2-20.6l8.8,0.4l-4.9-11.9c6.2-5.3,29.5-17.2,42.8-17.6c1.2,6,1.3,11,0.9,13.2c-0.5,2.2-1.3,4.9-4,6.1
	l-11.6,5.9c7.1-0.4,14.2-0.3,21.2,0.3c3.9,0.4,5.7,1.3,5.7,5.3c0,3.9-1.1,7.9-3.2,11c-2.2,3.1-8.8,2.6-12.3,3c1.8,4,2.3,5.8,2.3,9.8
	c0,4-1.3,5.8-4.8,7.6C156.4,389,152,391.1,147.7,394.3z M218.2,486.4c-5.3-3.1-19.8-10.2-31.3-9.7c-11.9,0.5-21.9,2.9-31.3,8.8
	c-4-2.7-5.2-8-2.6-14.1c2.5-6.1,6.2-7,6.2-7l-3.4-57.8c0,0,16.2-11.6,20.6-12.9c4.4-1.3,6.4-4.8,6.4-9.2
	c7.2,4.9,17.8,15.7,23.5,23.8c5.3,7.5,8.4,15.9,8.8,25.1c0.4,9.2,0.5,20.3-1.3,31.8c3.6,3.1,7,5.7,7.5,10.6
	C221.7,480.7,219.9,482.5,218.2,486.4z M295.8,830.4C295.8,830.4,295.8,830.4,295.8,830.4c-1-7-28.8-93-44.7-140.9
	c-6-17.9-10.3-30.4-10.9-31.5l0,0c-0.5-1-1.5-14.2-2.7-33.8c-3.8-61.6-9.7-186.3-10.1-192l11.5-8.4v-2.2c-6.3-0.3-13.3-2.1-17.7-5.1
	c-1.5-1-2.7-2.1-3.4-3.3l-3.1-65.7c-0.1,0-0.2,0-0.3,0c-9.2-0.8-18.6-3.3-24.2-6.5c-1.3-0.8-2.4-1.6-3.2-2.4
	c-5.5-5.5-9.8-12.3-3.6-24.2c0,0,0,0,0,0c0,0,0,0,0,0c3.1,2.2,9.6,4.6,17.1,6.4c6.3,1.5,13.3,2.4,19.9,2.4c3.1,0,9.6,6.9,13.2,8.3
	c4,1.6,10.5,5.2,14,6.8c0.2,0.1,0.4,0.2,0.6,0.3c0.5,0.2,1,0.6,1.5,1.2c0.8,0.9,1.5,2.2,2.1,3.6c1,2.3,1.7,4.9,2.2,6.2
	c0.4,1.3,24.4,63.6,49.7,129.2c28.2,73.2,58.2,150.5,59.1,152.1c0.1,0.2,0.2,0.5,0.3,0.8c2.1,7,7.7,48.7,8,52.1
	c0.5,3.5,16.3,40.5,19.4,44.1c-14.1-0.4-37.2,7.7-56.2,26.2C315.9,772.3,299.5,812.1,295.8,830.4
	C295.8,830.4,295.8,830.4,295.8,830.4z M375.1,921.6c-4.6,42.4-14.9,79.1-30.4,105.4c-10,16.9-38,51.2-47.8,64.1
	c10.6-21.1,18.8-72.2,18.1-111.9c-0.4-25.8-8.3-82.6-1.4-120.3c7.3-40.5,18.8-63.2,45.9-88.1c13.8-12.7,42.1-28.9,82.4-18l32.7,61.4
	c-17.5-3.3-40.6-0.3-56,11.5C389.7,847.8,379.9,877.8,375.1,921.6L375.1,921.6z M378.3,1005.1
	C378.3,1005.1,378.3,1005.1,378.3,1005.1L378.3,1005.1C378.3,1005.1,378.3,1005.1,378.3,1005.1c7.9-17.9,18.4-68.8,21.3-85.9
	c3.8-21.9,7.3-53.8,33.3-75.3c12.8-10.6,33.8-11.9,42.2-9.5l36.9,75.2c3.3,8,14.2,10.8,21.4,10.3
	C498.9,931.3,411.6,972.7,378.3,1005.1z M555.9,913.6l-13.2-45.4l30.3-42.5c0,0-31.5,11.4-41.2,12.2c-1.9,0.1-17.2,3.2-20.4-11.7
	c0,0-2.6-9.9-2.6-13.9c0-3.8,3.3-8.4,6.6-7.8c6,1.2,9.3-1.3,9.3-1.3l6.3-8.5c-5.3-0.7-11.4-2.2-14-2.2c-2.6,0-7.4,2.4-12,3.7
	c-2.7-2-6.8-5.5-5.4-10.2h35l0.6-4c0,0-18-8.1-25.1-8.4c-7-0.3-10,3.8-10,3.8v-6.7l19.8-16.7l-20.5-8.5l-11.2,2l7.3-46.3l-3.9-8
	l-20,11.9l-0.6-26.3c0.6-4.8,9.9-14.1,17.5-18.4l-1.3-15.9c-8,4.8-16.8,7.6-22.1,14.9c-4.7,6.6-10.6,16.5-9.9,25.1
	c-6-5.8-7.2-15.1-6-21.6c1.8-9,5.3-15.4,14.6-23.4c-2.6-7.5-3.3-21.1-0.6-33.8c4.4-20.9,28.4-60.8,86.6-61.2
	c34.5-0.2,76.4,21.2,105,42.9c36.6,27.8,58.1,53.4,59.7,61.9l0,0c0.7,3.7,2,8.8,0.7,12c-4-5.4-32.4-32.5-32.4-32.5l-17.9,22.6
	l33.7,29.6c-7.9,4.7-15.9,8.3-29.1,6.6c-15.6-2-50.3-23.8-50.9-41c-14.1-6-46.3-15.7-72.8-15.2c-17.2,0.2-36.4,4.6-42.3,6.6
	c-6,2-10.3-1.7-15-3.7l-2.1,1.3l13.1,20.2c4,2,11.4-2.6,21.8-4.5c17.9-3.2,42.1-0.6,60.2,9.8c12.6,7.2,47.6,36.3,54.9,43.6
	c7.3,7.2,18.5,9.2,23.8,4.6c5.3-4.6,12.8-4.5,12.2,1.4c-0.7,6-3.6,12.5,2.4,15.1c5.5,2.5,8.6-2.6,12.5-5.3c4-2.7,7.9-3.3,12.6-0.7
	c-3.3,6.6-11.9,17.2-19.2,23.2c-7.3,5.9-18.5,11.2-25.8,8.6l-4.6,11.2l33.1,76c8.7,17.5,9.8,22.2,16.9,33.9
	C635.5,884.1,575.9,905.4,555.9,913.6z M732.1,867.6c-5.9-10.6-10.7-18.8-16.9-35.2c0,0-19.5-36.1-23.3-43.1
	c-3.3-6.2-5.4-15.1,0.5-24.4c5.9-9.2,20.7-22.1,29.2-27.2l2.1,45.1c0,0,29.5,55.9,42.4,84.8C754.1,867.4,742.7,867.6,732.1,867.6z
	 M744.7,666.3L744.7,666.3c-0.6-11.3-13.7-41.7-21.6-48.3l137.2-60.8L744.7,666.3z"/>
<path class="st0" d="M510.7,576.3l10.6,30.5c14.6-3.3,49.6-4.6,60.2,2.6l0,0l5.9-34.4c-10.6-5.3-25.8-8.6-39.7-8.6
	C533.9,566.4,518.7,570.4,510.7,576.3z"/>
<path class="st0" d="M477,631.9c6.6-6.4,19.9-16.5,28.4-21.2L494.2,585C487,592.2,471,612,477,631.9z"/>
<path class="st0" d="M529.9,711.3l10.4-2.6l-4.5-7.2c0,0,6.5-2.9,14.5-3.3c9.1-0.4,17.4,1.3,21.9,5.3L595,698l3-4.8
	c-15.9-12.5-38.2-24.6-58.4-20.3c-13.7,2.9-28.2,11.3-28.2,11.3h0v11.9C518,698.1,525.3,705.4,529.9,711.3z"/>
<path class="st0" d="M598.7,614.7c8.5,2.7,37,16.6,51.6,25.9l16.5-23.2c-6-6-45-29.7-55.6-35.1L598.7,614.7z"/>
</svg>
