<?xml version="1.0" encoding="utf-8"?>
<!-- Generator: Adobe Illustrator 25.2.1, SVG Export Plug-In . SVG Version: 6.00 Build 0)  -->
<svg version="1.1" id="Layer_1" xmlns="http://www.w3.org/2000/svg" xmlns:xlink="http://www.w3.org/1999/xlink" x="0px" y="0px"
	 viewBox="0 0 2500 2500" style="enable-background:new 0 0 2500 2500;" xml:space="preserve">
<style type="text/css">
	.st0{fill-rule:evenodd;clip-rule:evenodd;fill:#D3E7F7;}
	.st1{fill:#D3E7F7;}
</style>
<path class="st0" d="M1242.1,366.7c-370.5-0.1-671,297-671,663.4c-0.1,366.4,300.3,663.5,670.8,663.5
	c370.5,0.1,670.9-296.9,671-663.4C1913,663.8,1612.7,366.7,1242.1,366.7z M637.9,1282.6c-29.7-75-51.5-156.7-51.5-242.3
	c0.1-363.3,293.7-657.7,656.9-657.6c228.9,0,426.4,112.2,542.4,284.2c0,0,73.1,105.3,98.5,247.8c0,0,0,0,0,0h0c0,0,0,0,0,0
	c-68.8-190-115-233.2-115-233.2c-17.5-22.9-37.1-45.4-59.7-70.3c-106.2-116.5-279.1-206.4-463.3-206.5
	c-352.4-0.1-638.1,285.6-638.1,638c0,104.7,22.9,195,41.3,240.3c21.5,52.8,62.3,132.3,62.6,135.4
	C709.4,1416.3,651.5,1317,637.9,1282.6z M1759.6,1331.2c10.8,7.7,7.4,11.2-4.1,4.8l-504.8-291.1V1154l506.1,193.2
	c-106.1,172.9-297.4,283.6-516.6,283.6c-219.5,0-407.7-110.4-513.7-283.8l506.7-193.3l0-109.2l-524.9,303.1
	c-12.5,6.9-15.9,3-4.6-4.8l470.2-338l-40.1-23L715.2,1330c-47.1-85.3-79.9-194.6-79.9-298.7c0-329.7,262.4-596.5,594.7-598.6
	l-85.8,532.9l40,23.2l54-556.1c0.7-7,5.7-7,5.7,0l3.3,586.2l95.2-55.9l-91.2-530.5h0c326.3,8.9,597,272.1,596.9,597.6
	c0,105-31.8,214.6-79.7,300.4L1350.1,982l-40.1,23L1759.6,1331.2z M691.8,1348.5c-41.9-79-55.9-167.5-55.1-170.2
	c1.7,2,32.2,97.4,66.9,160.9L691.8,1348.5z M1241.8,1668.6c-252.1,0-449.7-131-544-311.1l14.4-5.6c24.6,40.1,56.5,75.3,99.4,122.5
	c53,58.1,220.5,170.6,429.9,170.7c223.2,0,419.3-115.7,529.1-292.6c8.5-2.2,11.2-5.9,8.4-13.2c50.4-88.7,84.6-201.7,84.6-310.8h0
	c3.3-146.6-64.6-270.3-64.6-270.3c97.4,159.7,86.4,272,86.4,272C1885.3,1379.4,1599.6,1668.7,1241.8,1668.6z"/>
<g>
	<rect x="1552.1" y="1999" class="st1" width="102.6" height="17.9"/>
	<path class="st1" d="M1386.8,2033.2c0-55.3-24.4-100.1-78.1-100.1c-49.8,0-78.1,44.8-78.1,100.1s23.7,100.1,78.1,100.1
		c52.9,0,68.4-26.2,76.5-68.1l-18.2-0.1c-1.5,15.6-11.6,50.6-50.6,51.3c-44.3,0.9-47.4-56-46.7-83.2H1386.8z M1310.3,1950
		c32.7,0,37.3,42,37.3,67.7h-77C1270.6,2000.6,1269.1,1950,1310.3,1950z"/>
	<path class="st1" d="M1514.8,2027.8c-23.2-9.5-43.5-20.9-59.1-28.8c-12.4-6.2-15.4-18.7-14-26.4c2.3-12.4,13.2-25.7,38.1-26.4
		c24.9-0.8,37.3,20.2,40.4,44.3h8.6v-62.2h-7.8l-8.6,14.8c-16.3-10.9-23.3-12.4-38.1-12.4c-14.8,0-39.7,7.8-53.7,29.6
		c-14,21.8-10.1,56,23.3,70c33.4,14,49,22.5,58.3,27.2c9.3,4.7,14.8,23.3,8.6,34.2c-6.2,10.9-17.9,23.3-36.5,23.3
		c-18.7,0-48.2-13.2-55.2-52.9h-7.8v66.1h8.6l7.8-17.1c7.8,7,24.1,18.7,45.1,18.7s50.6-11.6,62.2-33.4
		C1546.7,2074.4,1541.2,2038.7,1514.8,2027.8z"/>
	<path class="st1" d="M1200.6,2087.7L1200.6,2087.7v-217c0-8.9-4.7-16.3-12.4-14c-17.1,5.4-32.7,7.8-45.9,8.6v7.8
		c22.6-1.5,24.9,5.4,24.9,13.2v66.9c-10.1-9.3-21.8-18.7-42.8-18.7c-26.4,0-75.4,21-75.4,94.9c0,97.2,56.8,103.4,73.9,103.4
		c17.1,0,39.7-14,44.3-21.4c0.4-1.6,2.7-3.5,3.5,0c0.8,7,5.8,17.5,13.6,15.1c14.9-4.7,30.3-7.6,45.9-8.5v-7.8
		C1197.5,2111.8,1200.6,2095.4,1200.6,2087.7z M1167.2,2064.3L1167.2,2064.3c-0.8,42.8-23.3,56-42,56c-42-0.8-38.9-64.6-38.9-91.8
		c0-27.2,1.6-80.9,39.7-76.2c38.1,4.7,41.2,45.1,41.2,69.2V2064.3z"/>
	<path class="st1" d="M915.2,2033.2h117c0-55.3-24.4-100.1-78.1-100.1c-49.8,0-78.1,44.8-78.1,100.1s23.7,100.1,78.1,100.1
		c52.9,0,68.4-26.2,76.6-68.1l-18.2-0.1c-1.6,15.6-11.7,50.6-50.5,51.3C917.5,2117.3,914.4,2060.5,915.2,2033.2L915.2,2033.2z
		 M955.7,1950c32.7,0,37.3,42,37.3,67.7h-77C916,2000.6,914.4,1950,955.7,1950z"/>
	<path class="st1" d="M674.1,1933.7c-17.1,0-31.1,10.9-35,16.3c-4.5,6.3-10.1,3.9-10.9-3.1c-0.8-7-3.9-14-11.7-11.7
		c-17.1,5.4-32.7,7.8-45.9,8.6v7.8c32.7-1.6,29.5,14.8,29.5,22.5v127.5c0,14-12.4,16.3-19.4,16.3h-10.9v10.1h91v0v0V2118h-7.8
		c-7,0-19.4-2.3-19.4-16.3v-101.9c0-31.9,16.3-43.5,32.7-43.5c6.2,0,10.1,3.1,8.6,14.8c-1.6,11.7,8.6,19.5,17.1,18.7
		c8.5-0.8,19.4-2.3,17.9-24.1C708.3,1943.8,695.9,1933.7,674.1,1933.7z"/>
	<path class="st1" d="M565.6,2033.2c0-55.3-24.4-100.1-78.1-100.1c-49.8,0-78.1,44.8-78.1,100.1s23.6,100.1,78.1,100.1
		c52.9,0,68.4-26.2,76.5-68.1l-18.2-0.1c-1.6,15.6-11.7,50.6-50.5,51.3c-44.3,0.9-47.4-56-46.7-83.2H565.6z M489,1950
		c32.7,0,37.3,42,37.3,67.7h-77C449.4,2000.6,447.8,1950,489,1950z"/>
	<path class="st1" d="M1800.2,1985.8c18.7-4.7,37.3-38.1,37.3-60.7s-8.6-60.7-63-60.7h-116.7v10.1c11.7,0,31.9,2.4,31.9,21.8v192.1
		c0,10.9-0.8,28.8-31.9,28.8v10.9h95.7c28.8,0,94.9-2.3,96.4-78.6C1850,2023.9,1837.5,1993.6,1800.2,1985.8z M1723.2,1876.9h38.9
		c28.8,0,40.4,21,40.4,48.2c0,33.4-10.1,59.1-40.4,59.1h-38.9V1876.9z M1762.9,2115.7h-39.6v-119h44.3c25.7,0,48.2,17.9,48.2,56.8
		C1815.8,2092.4,1792.4,2115.7,1762.9,2115.7z"/>
	<path class="st1" d="M2199.2,2101.7v-114.3c-0.8-52.1-47.4-53.7-63.8-53.7c-17.1,0-35.8,10.9-39.7,16.3c-4.5,6.3-10.1,3.9-10.9-3.1
		c-0.8-7-3.9-14-11.7-11.7c-17.1,5.4-32.7,7.8-45.9,8.6v7.8c32.7-1.6,29.5,14.8,29.5,22.5v127.5c0,14-12.4,16.3-19.4,16.3h-10.9
		v10.1h91V2118h-7.8c-7,0-19.5-2.3-19.5-16.3v-101.9c0-17.1,6.2-44.3,38.1-46.7c31.9-2.3,37.3,18.7,37.3,33.4v115.1
		c0,14-12.4,16.3-19.4,16.3h-4.7v10.1h84.8V2118h-7.8C2211.6,2118,2199.2,2115.7,2199.2,2101.7z"/>
	<path class="st1" d="M2023,2033.2c0-55.3-24.4-100.1-78.1-100.1c-49.8,0-78.1,44.8-78.1,100.1s23.6,100.1,78.1,100.1
		c52.9,0,68.4-26.2,76.5-68.1l-18.2-0.1c-1.5,15.6-11.7,50.6-50.6,51.3c-44.3,0.9-47.4-56-46.7-83.2H2023z M1946.4,1950
		c32.7,0,37.3,42,37.3,67.7h-77C1906.8,2000.6,1905.2,1950,1946.4,1950z"/>
	<path class="st1" d="M2336.8,2117.2h-60.6l113.5-179.7h-132.2l-14,52.9v0h7.8c19.5-42,33.5-42,45.9-42h50.5l-112.7,179.7h135.3
		l12.4-52.1h-6.2C2361.7,2111.8,2350.8,2117.2,2336.8,2117.2z"/>
	<path class="st1" d="M797.8,2115.7c-44.3,1-47.4-56-46.7-83.2c0-17.1,2.3-85.5,39.7-85.5c31.9,0,51.3,22.5,51.3,48.2h10.1v-65.3
		h-8.5l-10.2,15.7c-11.5-8.4-25.9-13.2-43.4-13.2c-49.8,0-78.1,44.8-78.1,100.1c0,55.3,23.6,99.8,78.1,100.1
		c48.2,0.2,59.9-27,68-68.9l-18.2-0.1C838.2,2079.1,832.7,2114.9,797.8,2115.7z"/>
	<path class="st1" d="M377.8,2100.1l-3.9-208.4c0-7,7.8-14.8,15.6-14.8h14.8v-12.5h-70.8l-73.1,191.3l-73.1-191.3h-71.6v0l-0.8,12.5
		h11.7c8.6,0,19.4,0.8,19.4,11.6l-3.9,210.8c0,7.8-3.9,16.3-19.4,16.3h-11.6l-0.8,12.4h78.5v-12.4h-13.2c-10.1,0-17.1-3.1-17.1-16.3
		l3.9-202.2l84,217.7h8.5l84.8-220.1l3.9,204.5c0,7-7,16.3-17.9,16.3h-16.3v12.4h98.8v-12.4h-11.7
		C387.9,2115.7,377.8,2111,377.8,2100.1z"/>
</g>
<path class="st0" d="M1200.2,1020.3l-89.3,72.9c0,0-18.8,15.6,8.2,1.6l108.1-59L1200.2,1020.3L1200.2,1020.3z M1209.2,1002.3
	l26.2-398.1c0,0,2.5-48.3,4.9,0.8c2.4,48.3-4.9,414.5-4.9,414.5L1209.2,1002.3z M1256.7,1035.9l28.7-16.4l339.1,226.9
	c0,0,25.4,17.2-3.3,2.5L1256.7,1035.9z"/>
</svg>
