<?xml version="1.0" encoding="utf-8"?>
<!-- Generator: Adobe Illustrator 25.2.1, SVG Export Plug-In . SVG Version: 6.00 Build 0)  -->
<svg version="1.1" id="svg1978" xmlns:svg="http://www.w3.org/2000/svg"
	 xmlns="http://www.w3.org/2000/svg" xmlns:xlink="http://www.w3.org/1999/xlink" x="0px" y="0px" viewBox="0 0 743.4 368.4"
	 style="enable-background:new 0 0 743.4 368.4;" xml:space="preserve">
<style type="text/css">
	.st0{fill:#D3E7F7;}
</style>
<g>
	<path class="st0" d="M248.8,214c7.3,2.6,14.5,4.2,23.3,4.2c8.7,0,16-1.4,23.3-3.9L272,140.8L248.8,214z"/>
	<path class="st0" d="M445.1,117h-16v59h16c21.8,0,39.3-7.1,39.3-29.8C484.4,124.1,467,117,445.1,117z"/>
	<path class="st0" d="M0,0v367.9h375.3L743.4,0H0z M453.9,226.4h-24.7v70.2H321.5L309.9,263c-11.6,3.7-23.3,5.9-37.8,5.9
		s-27.6-2.3-39.3-6.2l-10.2,33.9h-66.9l7.3-19.5c-1.5,0.7-1.5,1.5-2.9,2.2c-16,13.4-37.8,20.7-62.6,21.2l-4.4,0
		c-29.1,0-58.2-8.2-82.9-22.1l23.3-44.9c24.7,14.4,39.3,17.7,59.6,17.3c11.6-0.2,18.9-2.2,24.7-7.4c2.9-3.2,4.4-7.1,4.4-11.4
		c0-11.7-16-17.2-36.4-23.5c-17.5-5.1-34.9-12.1-50.9-22.8c-16-12.7-24.7-28.6-24.7-51.1c0-16.3,7.3-31.1,17.5-42.7
		c16-16.7,42.2-26.8,74.2-26.8c26.2,0,58.2,7.6,82.9,19.6l-26.2,44.3c-26.2-12.5-39.3-13.7-53.8-14.4c-21.8-1.2-32,6.6-32,15.1
		c-1.5,10.2,20.4,19.6,39.3,26c30.5,9.5,68.4,22.2,74.2,58.8l55.3-145.5H304l64,174v-174l72.7,0c71.3,0,103.3,24.9,103.3,79.3
		C544.1,197.3,510.6,226.4,453.9,226.4z"/>
</g>
<path id="path25034" class="st0" d="M467,344.4c0-11.2,8.7-19.8,18.9-19.8s18.9,8.6,18.9,19.8c0,11.7-8.7,20.1-18.9,20.1
	S467,356,467,344.4z M485.9,368.4c13.1,0,24.7-10.2,24.7-24.1c0-13.7-11.6-23.7-24.7-23.7c-13.1,0-24.7,10-24.7,23.7
	C461.1,358.2,472.8,368.4,485.9,368.4z M481.5,346.4h4.4l7.3,11.9h4.4l-7.3-12.1c2.9-0.5,7.3-2.6,7.3-7.5c0-5.5-4.4-7.9-10.2-7.9
	h-10.2v27.5h4.4V346.4z M481.5,342.8v-8.6h5.8c1.5,0,5.8,0.7,5.8,4.1c0,4.2-4.4,4.5-7.3,4.5H481.5"/>
</svg>
