<?xml version="1.0" encoding="utf-8"?>
<!-- Generator: Adobe Illustrator 25.2.1, SVG Export Plug-In . SVG Version: 6.00 Build 0)  -->
<svg version="1.1" id="Layer_1" xmlns="http://www.w3.org/2000/svg" xmlns:xlink="http://www.w3.org/1999/xlink" x="0px" y="0px"
	 viewBox="0 0 51.7 24" style="enable-background:new 0 0 51.7 24;" xml:space="preserve">
<style type="text/css">
	.st0{fill:#D3E7F7;}
	.st1{fill:#0155A1;}
	.st2{fill:#FBA702;}
	.st3{fill:#FCFEFF;}
	.st4{fill:#036ED4;}
	.st5{fill:#006CD3;}
	.st6{fill:#050306;}
	.st7{fill:#03B1AE;}
	.st8{fill:#00AD39;}
	.st9{fill:#FF495C;}
	.st10{fill:#017EAE;}
	.st11{fill:#CA4929;}
	.st12{fill:#F59001;}
	.st13{fill:#CDD0D2;}
	.st14{fill:#0863FF;}
	.st15{fill:#F14D02;}
	.st16{fill:#FED853;}
	.st17{fill:#2C323B;}
	.st18{fill:#EE5B65;}
	.st19{fill:#32B3E8;}
	.st20{fill:#2A8AC6;}
	.st21{fill:#D6445D;}
	.st22{fill:#960A2C;}
	.st23{fill:#010101;}
	.st24{fill:#D72B11;}
	.st25{fill:#E41231;}
	.st26{fill:#F01523;}
	.st27{fill:#93DD01;}
	.st28{fill:#249633;}
	.st29{fill:#242424;}
	.st30{fill:#C80126;}
	.st31{fill:#020202;}
	.st32{fill:#959798;}
	.st33{fill:#EE1818;}
	.st34{fill:#242021;}
	.st35{fill:#002A3B;}
	.st36{fill:#205053;}
	.st37{fill:#235153;}
	.st38{fill:#15AA9E;}
	.st39{fill:#09AC9D;}
	.st40{fill:#05716B;}
	.st41{fill:#F49200;}
	.st42{fill:#E25100;}
	.st43{fill:#0223FE;}
	.st44{fill:#04CBFE;}
	.st45{fill:#F47264;}
	.st46{fill:#F24731;}
	.st47{fill:#F8A197;}
	.st48{fill:#233240;}
	.st49{fill:#FE6D52;}
	.st50{fill:#124FFF;}
	.st51{fill:#F56D58;}
	.st52{fill:#75C4E2;}
	.st53{fill:#E0044D;}
	.st54{fill:#3B267C;}
	.st55{fill:#DD1937;}
	.st56{fill:#01B3FE;}
	.st57{fill:#454545;}
	.st58{fill:#AB56B3;}
	.st59{fill:#031A28;}
	.st60{fill:#53CD8E;}
	.st61{fill:#1B0E65;}
	.st62{fill:#060250;}
	.st63{fill:#02AA47;}
	.st64{fill:#060605;}
	.st65{fill:#221E5D;}
	.st66{fill:#F2574D;}
	.st67{fill:#FE6F05;}
	.st68{fill:#D2D1D0;}
</style>
<g>
	<path class="st0" d="M42.8,6.9C41.9,6.5,41,6,40.1,5.7c-1.7-0.7-3.5-1.1-5.3-1.1c-3.7,0.1-6.9,2.7-7.5,6.3
		c-0.5,3.1,1.1,6.4,4.4,7.9c1.9,0.8,3.9,0.9,5.9,0.3c0.3-0.1,0.4-0.2,0.4-0.5c0-1.3,0-2.6,0-4c-1.3,0-2.5,0-3.8,0c0-1.5,0-3,0-4.5
		c0.1,0,0.3,0,0.4,0c2.6,0,5.2,0,7.9,0c0.4,0,0.5,0.1,0.5,0.5c0,3.8,0,7.5,0,11.3c0,0.3-0.1,0.4-0.4,0.5c-3,1.2-6.1,1.8-9.3,1.5
		c-5.3-0.5-9.7-4.3-10.9-9.4c-1.1-4.6,0.9-9.6,5-12.3c2.6-1.7,5.5-2.4,8.6-2.2c2.2,0.1,4.4,0.6,6.4,1.4c0.3,0.1,0.4,0.3,0.4,0.6
		C42.8,3.6,42.8,5.2,42.8,6.9z"/>
	<path class="st0" d="M20.2,16.4c0,0.6,0,1.2,0,1.8c0,1.1,0,2.2,0,3.4c0,0.1-0.1,0.4-0.2,0.4c-3.7,1.9-7.5,2.8-11.5,1.3
		c-4.4-1.6-7.3-4.7-8.2-9.3C-0.6,9.6,0.9,5.9,4.2,3c2.9-2.5,6.3-3.3,10.1-2.9c1.9,0.2,3.7,0.7,5.5,1.5C20,1.7,20.2,1.9,20.2,2
		c0,1.6,0,3.3,0,4.9c0,0,0,0.1,0,0.2C20,7,19.9,6.9,19.8,6.9c-1.7-1-3.5-1.8-5.4-2.2c-4.1-0.7-8,1.7-8.9,5.7
		c-0.9,4.1,1.7,8.1,5.9,8.8c2.8,0.5,5.4-0.3,7.7-1.9C19.3,17.1,19.7,16.7,20.2,16.4z"/>
	<path class="st0" d="M51.7,23.5c-1.6,0-3.2,0-4.9,0c0-7.7,0-15.3,0-23c1.6,0,3.2,0,4.9,0C51.7,8.2,51.7,15.8,51.7,23.5z"/>
</g>
</svg>
