<?xml version="1.0" encoding="utf-8"?>
<!-- Generator: Adobe Illustrator 25.2.1, SVG Export Plug-In . SVG Version: 6.00 Build 0)  -->
<svg version="1.1" id="Layer_1" xmlns="http://www.w3.org/2000/svg" xmlns:xlink="http://www.w3.org/1999/xlink" x="0px" y="0px"
	 viewBox="0 0 75.3 11.9" style="enable-background:new 0 0 75.3 11.9;" xml:space="preserve">
<style type="text/css">
	.st0{fill:#D3E7F7;}
	.st1{fill:#0155A1;}
	.st2{fill:#FBA702;}
	.st3{fill:#FCFEFF;}
	.st4{fill:#036ED4;}
	.st5{fill:#006CD3;}
	.st6{fill:#050306;}
	.st7{fill:#03B1AE;}
	.st8{fill:#00AD39;}
	.st9{fill:#FF495C;}
	.st10{fill:#017EAE;}
	.st11{fill:#CA4929;}
	.st12{fill:#F59001;}
	.st13{fill:#CDD0D2;}
	.st14{fill:#0863FF;}
	.st15{fill:#F14D02;}
	.st16{fill:#FED853;}
	.st17{fill:#2C323B;}
	.st18{fill:#EE5B65;}
	.st19{fill:#32B3E8;}
	.st20{fill:#2A8AC6;}
	.st21{fill:#D6445D;}
	.st22{fill:#960A2C;}
	.st23{fill:#010101;}
	.st24{fill:#D72B11;}
	.st25{fill:#E41231;}
	.st26{fill:#F01523;}
	.st27{fill:#93DD01;}
	.st28{fill:#249633;}
	.st29{fill:#242424;}
	.st30{fill:#C80126;}
	.st31{fill:#020202;}
	.st32{fill:#959798;}
	.st33{fill:#EE1818;}
	.st34{fill:#242021;}
	.st35{fill:#002A3B;}
	.st36{fill:#205053;}
	.st37{fill:#235153;}
	.st38{fill:#15AA9E;}
	.st39{fill:#09AC9D;}
	.st40{fill:#05716B;}
	.st41{fill:#F49200;}
	.st42{fill:#E25100;}
	.st43{fill:#0223FE;}
	.st44{fill:#04CBFE;}
	.st45{fill:#F47264;}
	.st46{fill:#F24731;}
	.st47{fill:#F8A197;}
	.st48{fill:#233240;}
	.st49{fill:#FE6D52;}
	.st50{fill:#124FFF;}
	.st51{fill:#F56D58;}
	.st52{fill:#75C4E2;}
	.st53{fill:#E0044D;}
	.st54{fill:#3B267C;}
	.st55{fill:#DD1937;}
	.st56{fill:#01B3FE;}
	.st57{fill:#454545;}
	.st58{fill:#AB56B3;}
	.st59{fill:#031A28;}
	.st60{fill:#53CD8E;}
	.st61{fill:#1B0E65;}
	.st62{fill:#060250;}
	.st63{fill:#02AA47;}
	.st64{fill:#060605;}
	.st65{fill:#221E5D;}
	.st66{fill:#F2574D;}
	.st67{fill:#FE6F05;}
	.st68{fill:#D2D1D0;}
</style>
<g>
	<path class="st0" d="M34.8,0c0.2,0.1,0.3,0.3,0.4,0.5c1.1,3.6,2.3,7.2,3.4,10.9c0.1,0.3,0,0.5-0.3,0.5c-0.4,0-0.7,0-1.1,0
		c-0.2,0-0.4-0.1-0.4-0.4c-0.2-0.7-0.4-1.4-0.7-2.1C36,9.1,36,8.9,35.9,8.7c0-0.1-0.1-0.1-0.1-0.1c-1.2,0-2.4,0-3.5,0
		c-0.1,0-0.1,0.1-0.1,0.1c-0.3,0.9-0.6,1.8-0.9,2.7c-0.1,0.3-0.2,0.4-0.5,0.4c-0.3,0-0.6,0-0.9,0c-0.4,0-0.5-0.2-0.4-0.6
		c1.1-3.6,2.3-7.3,3.4-10.9C32.9,0.2,33,0.1,33.2,0C33.7,0,34.3,0,34.8,0z M34,2.7C34,2.7,34,2.7,34,2.7c-0.5,1.4-0.9,2.9-1.4,4.3
		c0.9,0,1.8,0,2.7,0C34.9,5.6,34.5,4.2,34,2.7z"/>
	<path class="st0" d="M5.2,0c0.1,0,0.3,0.1,0.4,0.1c1.1,0.3,1.8,1,2,2.1c0.1,0.4,0,0.9,0,1.3c0,0.2-0.2,0.3-0.4,0.3
		c-0.3,0-0.7,0-1,0c-0.2,0-0.4-0.2-0.4-0.4c0-0.3,0-0.5,0-0.8c0-0.6-0.5-1-1-1c-0.7,0-1.4,0-2,0c-0.5,0-1,0.5-1,1c0,0,0,0.1,0,0.1
		c0,2.1,0,4.3,0,6.4c0,0.2,0,0.3,0.1,0.5c0.2,0.4,0.5,0.6,0.9,0.6c0.7,0,1.4,0,2.1,0c0.6,0,1.1-0.5,1.1-1c0-0.2,0-0.5,0-0.7
		c0-0.2,0.2-0.4,0.4-0.4c0.3,0,0.7,0,1,0c0.2,0,0.4,0.1,0.4,0.3c0,0.5,0,1-0.1,1.5c-0.3,1-1.2,1.9-2.3,1.9c-0.9,0.1-1.7,0-2.6,0
		c-0.4,0-0.8-0.1-1.1-0.2c-0.9-0.4-1.4-1.1-1.6-2c0-0.1,0-0.3,0-0.4C0,7,0,4.9,0,2.7C0,1.2,1.2,0.2,2.4,0c0,0,0.1,0,0.1,0
		C3.4,0,4.3,0,5.2,0z"/>
	<path class="st0" d="M53.9,7.6c0-0.5,0-1,0-1.5c0-1.5,1-2.4,2.1-2.6c0.2,0,0.3-0.1,0.5-0.1c0.6,0,1.2,0,1.8,0
		c1.1,0.1,2.3,0.9,2.5,2.3c0,0.1,0,0.2,0,0.3c0,1.1,0,2.1,0,3.2c0,1.4-1,2.4-2.1,2.6c-0.1,0-0.3,0.1-0.4,0.1c-0.6,0-1.2,0-1.8,0
		c-1.1,0-2.2-0.9-2.5-1.9c-0.1-0.2-0.1-0.4-0.1-0.6C53.9,8.7,53.9,8.2,53.9,7.6z M59,7.6C59,7.6,59,7.6,59,7.6c0-0.3,0-0.5,0-0.8
		c0-0.3,0-0.5,0-0.8c0-0.6-0.5-1.1-1.1-1.1c-0.4,0-0.8,0-1.2,0c-0.6,0-1,0.4-1,1c0,1.1,0,2.2,0,3.3c0,0.6,0.5,1,1,1
		c0.4,0,0.8,0,1.3,0c0.3,0,0.5-0.1,0.7-0.3C58.9,9.8,59,9.5,59,9.2C59,8.7,59,8.1,59,7.6z"/>
	<path class="st0" d="M68.8,8.6c0,0.9,0,1.9,0,2.8c0,0.3-0.2,0.4-0.5,0.4c-0.3,0-0.6,0-0.9,0c-0.3,0-0.4-0.1-0.4-0.4
		c0-1.8,0-3.6,0-5.4c0-0.5-0.3-0.9-0.8-1.1c-0.1,0-0.1,0-0.2,0c-0.4,0-0.9,0-1.3,0c-0.5,0-0.9,0.4-1,0.9c0,0.1,0,0.2,0,0.3
		c0,1.7,0,3.5,0,5.2c0,0.1,0,0.1,0,0.2c0,0.2-0.1,0.3-0.3,0.3c-0.2,0-0.4,0-0.7,0c-0.1,0-0.3,0-0.4,0c-0.3,0-0.4-0.2-0.4-0.4
		c0-1.2,0-2.4,0-3.6c0-0.6,0-1.2,0-1.8c0-1.5,1.2-2.4,2.3-2.6c0.4-0.1,0.9,0,1.3,0c0.4,0,0.9,0,1.3,0.1c1,0.3,1.7,0.9,1.9,2
		c0,0.2,0,0.3,0,0.5C68.8,6.9,68.8,7.8,68.8,8.6z"/>
	<path class="st0" d="M15.2,9.2c0.2-0.7,0.4-1.3,0.6-1.9c0.4-1.2,0.8-2.4,1.1-3.5c0.1-0.3,0.2-0.4,0.6-0.4c0.3,0,0.5,0,0.8,0
		c0.3,0,0.5,0.2,0.4,0.5C17.9,6.4,17,9,16.2,11.5c-0.1,0.3-0.2,0.4-0.5,0.4c-0.4,0-0.8,0-1.1,0c-0.3,0-0.4-0.1-0.5-0.4
		c-0.8-2.5-1.6-5.1-2.4-7.6c-0.1-0.3,0-0.5,0.3-0.5c0.3,0,0.7,0,1,0c0.2,0,0.3,0.1,0.4,0.4c0.5,1.5,0.9,2.9,1.4,4.4
		C14.9,8.4,15,8.7,15.1,9C15.1,9.1,15.1,9.1,15.2,9.2z"/>
	<path class="st0" d="M72.3,11.8c-0.7,0-1.3,0-2-0.2c-0.1,0-0.2-0.1-0.2-0.1c-0.2-0.1-0.4-0.3-0.4-0.6c0-0.1,0-0.3,0-0.4
		c0-0.4,0.2-0.5,0.6-0.5c0.7,0.2,1.5,0.2,2.3,0.2c0.5,0,0.9-0.3,1-0.7c0.1-0.4-0.1-0.7-0.4-0.8c-0.6-0.3-1.3-0.6-1.9-0.9
		c-0.1-0.1-0.3-0.1-0.4-0.2c-0.8-0.4-1.2-1.2-1.1-2c0.1-1.4,1.2-2,2.2-2.2c0.6-0.1,1.2-0.1,1.7,0c0.4,0,0.7,0.1,1.1,0.2
		c0.1,0,0.2,0.1,0.2,0.1c0.3,0.1,0.4,0.3,0.4,0.6c0,0.2,0,0.3,0,0.5c0,0.3-0.2,0.5-0.5,0.4C74,5,73.2,4.9,72.5,4.9
		c-0.6,0-1,0.4-1,0.9c0,0.3,0.1,0.5,0.4,0.7c0.4,0.2,0.9,0.4,1.3,0.6c0.4,0.2,0.8,0.4,1.2,0.6C75,8,75.3,8.5,75.3,9.2
		c0.1,0.8-0.1,1.4-0.7,1.9c-0.6,0.5-1.2,0.7-1.9,0.7C72.5,11.8,72.4,11.8,72.3,11.8z"/>
	<path class="st0" d="M39.1,7.6c0-0.5,0-1,0-1.5c0-1.5,1.1-2.4,2.1-2.6c0.6-0.1,1.1-0.1,1.7,0c0.4,0,0.8,0.1,1.2,0.2
		c0.1,0,0.2,0.1,0.2,0.1c0.2,0.1,0.4,0.3,0.4,0.6c0,0.2,0,0.3,0,0.5c0,0.3-0.3,0.5-0.5,0.4C43.4,5,42.7,5,41.9,5
		c-0.6,0-1.1,0.5-1.1,1.1c0,1.1,0,2.1,0,3.2c0,0.6,0.4,1.1,1.1,1.1c0.7,0,1.4-0.1,2.2-0.2c0.3-0.1,0.6,0.1,0.6,0.5
		c0,0.2,0,0.3,0,0.5c0,0.2-0.1,0.4-0.3,0.5c-0.2,0.1-0.5,0.2-0.7,0.2c-0.7,0.1-1.5,0.2-2.2,0.1c-1.2-0.1-2.4-1.1-2.4-2.6
		C39.1,8.7,39.1,8.2,39.1,7.6z"/>
	<path class="st0" d="M45.9,5.6c0-1.2,0-2.4,0-3.7c0-0.4,0.1-0.6,0.6-0.7c0.2,0,0.5-0.1,0.7-0.1c0.3,0,0.5,0.1,0.5,0.5
		c0,0.5,0,1.1,0,1.6c0,0.1,0,0.2,0.2,0.2c0.5,0,1,0,1.5,0c0.2,0,0.4,0.1,0.4,0.4c0,0.3,0,0.5,0,0.8c0,0.2-0.1,0.4-0.4,0.4
		c-0.5,0-1,0-1.6,0c-0.1,0-0.1,0-0.1,0.1c0,1.4,0,2.7,0,4.1c0,0.5,0.4,1.1,1.1,1.1c0.2,0,0.4,0,0.6,0c0.2,0,0.4,0.1,0.4,0.4
		c0,0.2,0,0.5,0,0.7c0,0.2-0.2,0.4-0.4,0.4c-0.3,0-0.6,0.1-0.9,0.1c-1.3,0-2.4-1-2.6-2.2c0-0.1,0-0.3,0-0.4
		C45.9,8,45.9,6.8,45.9,5.6z"/>
	<path class="st0" d="M22.6,7.6c0-0.5,0-1,0-1.5c0-1.5,1.1-2.4,2.1-2.6c0.6-0.1,1.1-0.1,1.7,0c0.4,0,0.8,0.1,1.2,0.2
		c0.1,0,0.2,0.1,0.2,0.1c0.2,0.1,0.4,0.3,0.3,0.5c0,0.2,0,0.3,0,0.5c0,0.3-0.2,0.5-0.6,0.4C27,5,26.3,5,25.6,4.9
		c-0.7,0-1.1,0.6-1.1,1.1c0,1.1,0,2.1,0,3.2c0,0.6,0.4,1.1,1.1,1.1c0.7,0,1.4-0.1,2.1-0.2c0.3-0.1,0.6,0.1,0.6,0.4
		c0,0.2,0,0.3,0,0.5c0,0.2-0.1,0.4-0.3,0.5c-0.2,0.1-0.5,0.2-0.7,0.2c-0.7,0.1-1.5,0.2-2.2,0.1c-1-0.1-2.2-0.9-2.4-2.3
		c0-0.4,0-0.7,0-1.1C22.6,8.2,22.6,7.9,22.6,7.6z"/>
	<path class="st0" d="M21.5,7.6c0,1.3,0,2.5,0,3.8c0,0.3-0.2,0.4-0.5,0.4c-0.3,0-0.6,0-0.9,0c-0.3,0-0.4-0.1-0.4-0.4
		c0-2.5,0-5.1,0-7.6c0-0.3,0.2-0.4,0.4-0.4c0.3,0,0.7,0,1,0c0.3,0,0.4,0.1,0.4,0.4C21.5,5.1,21.5,6.4,21.5,7.6z"/>
	<path class="st0" d="M8.8,7.6c0-1.3,0-2.5,0-3.8c0-0.3,0.1-0.4,0.4-0.4c0.3,0,0.6,0,1,0c0.3,0,0.4,0.1,0.4,0.4c0,2.3,0,4.5,0,6.8
		c0,0.3,0,0.5,0,0.8c0,0.3-0.2,0.4-0.5,0.4c-0.3,0-0.6,0-0.9,0c-0.3,0-0.4-0.1-0.4-0.4C8.8,10.2,8.8,8.9,8.8,7.6z"/>
	<path class="st0" d="M50.9,7.6c0-1.3,0-2.5,0-3.8c0-0.3,0.1-0.4,0.4-0.4c0.3,0,0.7,0,1,0c0.3,0,0.4,0.1,0.4,0.4c0,2.5,0,5.1,0,7.6
		c0,0.3-0.2,0.4-0.5,0.4c-0.3,0-0.6,0-0.9,0c-0.3,0-0.4-0.1-0.4-0.4C50.9,10.2,50.9,8.9,50.9,7.6z"/>
	<path class="st0" d="M51.8,2.4c-0.2,0-0.4,0-0.6,0c-0.2,0-0.4-0.1-0.4-0.4c0-0.3,0-0.5,0-0.8c0-0.2,0.2-0.4,0.4-0.4
		c0.4,0,0.8,0,1.2,0c0.2,0,0.4,0.1,0.4,0.4c0,0.3,0,0.6,0,0.8c0,0.2-0.2,0.4-0.4,0.4c-0.1,0-0.2,0-0.3,0C52,2.4,51.9,2.4,51.8,2.4
		C51.8,2.4,51.8,2.4,51.8,2.4z"/>
	<path class="st0" d="M20.6,2.4c-0.2,0-0.3,0-0.5,0c-0.2,0-0.4-0.1-0.4-0.4c0-0.3,0-0.6,0-0.9c0-0.2,0.2-0.4,0.4-0.4
		c0.4,0,0.7,0,1.1,0c0.2,0,0.4,0.2,0.4,0.4c0,0.3,0,0.6,0,0.9c0,0.2-0.2,0.4-0.4,0.4C20.9,2.4,20.7,2.4,20.6,2.4z"/>
	<path class="st0" d="M9.7,2.4c-0.2,0-0.3,0-0.5,0C8.9,2.4,8.8,2.2,8.8,2c0-0.3,0-0.6,0-0.8c0-0.2,0.2-0.4,0.4-0.4c0.3,0,0.7,0,1,0
		c0.2,0,0.4,0.1,0.4,0.4c0,0.3,0,0.6,0,0.8c0,0.2-0.2,0.4-0.4,0.4c-0.1,0-0.2,0-0.3,0C9.9,2.4,9.8,2.4,9.7,2.4
		C9.7,2.4,9.7,2.4,9.7,2.4z"/>
</g>
</svg>
