<?xml version="1.0" encoding="utf-8"?>
<!-- Generator: Adobe Illustrator 25.2.1, SVG Export Plug-In . SVG Version: 6.00 Build 0)  -->
<svg version="1.1" id="Layer_1" xmlns="http://www.w3.org/2000/svg" xmlns:xlink="http://www.w3.org/1999/xlink" x="0px" y="0px"
	 viewBox="0 0 62.6 12.9" style="enable-background:new 0 0 62.6 12.9;" xml:space="preserve">
<style type="text/css">
	.st0{fill:#D3E7F7;}
	.st1{fill:#0155A1;}
	.st2{fill:#FBA702;}
	.st3{fill:#FCFEFF;}
	.st4{fill:#036ED4;}
	.st5{fill:#006CD3;}
	.st6{fill:#050306;}
	.st7{fill:#03B1AE;}
	.st8{fill:#00AD39;}
	.st9{fill:#FF495C;}
	.st10{fill:#017EAE;}
	.st11{fill:#CA4929;}
	.st12{fill:#F59001;}
	.st13{fill:#CDD0D2;}
	.st14{fill:#0863FF;}
	.st15{fill:#F14D02;}
	.st16{fill:#FED853;}
	.st17{fill:#2C323B;}
	.st18{fill:#EE5B65;}
	.st19{fill:#32B3E8;}
	.st20{fill:#2A8AC6;}
	.st21{fill:#D6445D;}
	.st22{fill:#960A2C;}
	.st23{fill:#010101;}
	.st24{fill:#D72B11;}
	.st25{fill:#E41231;}
	.st26{fill:#F01523;}
	.st27{fill:#93DD01;}
	.st28{fill:#249633;}
	.st29{fill:#242424;}
	.st30{fill:#C80126;}
	.st31{fill:#020202;}
	.st32{fill:#959798;}
	.st33{fill:#EE1818;}
	.st34{fill:#242021;}
	.st35{fill:#002A3B;}
	.st36{fill:#205053;}
	.st37{fill:#235153;}
	.st38{fill:#15AA9E;}
	.st39{fill:#09AC9D;}
	.st40{fill:#05716B;}
	.st41{fill:#F49200;}
	.st42{fill:#E25100;}
	.st43{fill:#0223FE;}
	.st44{fill:#04CBFE;}
	.st45{fill:#F47264;}
	.st46{fill:#F24731;}
	.st47{fill:#F8A197;}
	.st48{fill:#233240;}
	.st49{fill:#FE6D52;}
	.st50{fill:#124FFF;}
	.st51{fill:#F56D58;}
	.st52{fill:#75C4E2;}
	.st53{fill:#E0044D;}
	.st54{fill:#3B267C;}
	.st55{fill:#DD1937;}
	.st56{fill:#01B3FE;}
	.st57{fill:#454545;}
	.st58{fill:#AB56B3;}
	.st59{fill:#031A28;}
	.st60{fill:#53CD8E;}
	.st61{fill:#1B0E65;}
	.st62{fill:#060250;}
	.st63{fill:#02AA47;}
	.st64{fill:#060605;}
	.st65{fill:#221E5D;}
	.st66{fill:#F2574D;}
	.st67{fill:#FE6F05;}
	.st68{fill:#D2D1D0;}
</style>
<g>
	<g>
		<path class="st0" d="M8,11.5c-0.3,0.3-0.6,0.6-0.9,0.8c-0.5,0.3-1.1,0.5-1.8,0.5c-1,0.1-2,0-2.9-0.6c-1.2-0.7-1.9-1.7-2.2-3
			C0,8.3,0,7.3,0.1,6.3C0.3,5.1,0.7,4,1.3,3c1-1.5,2.4-2.4,4.2-2.8C6.4,0,7.3-0.1,8.1,0.1C9.9,0.4,11,1.4,11.5,3
			c0.1,0.3,0.1,0.5,0.2,0.8c0,0.2,0,0.2-0.2,0.3c-0.6,0.2-1.2,0.3-1.8,0.5c-0.2,0-0.2,0-0.2-0.1C9.3,3.9,9.1,3.5,8.8,3.1
			c-0.4-0.6-1-0.9-1.7-0.9C5.6,2.1,4.4,2.7,3.5,3.9C2.5,5.3,2.2,7,2.6,8.7c0.3,1,0.9,1.7,1.9,2c1.4,0.3,2.5-0.1,3.4-1.2
			c0.3-0.3,0.5-0.7,0.6-1.1c-0.1,0-0.1,0-0.2,0c-0.7,0-1.3,0-2,0c-0.2,0-0.2,0-0.2-0.2c0.1-0.5,0.2-1,0.3-1.5c0-0.1,0.1-0.2,0.2-0.2
			c1.4,0,2.8,0,4.2,0c0.2,0,0.2,0.1,0.2,0.2c-0.1,0.8-0.3,1.5-0.4,2.3c-0.2,1.2-0.5,2.4-0.7,3.6c0,0.2-0.1,0.2-0.3,0.2
			c-0.5,0-1,0-1.5,0c-0.2,0-0.2,0-0.2-0.2C8,12.2,8,11.9,8,11.5z"/>
		<path class="st0" d="M47.2,8.9c-0.1,1.2,0.6,2,1.7,2c0.9,0.1,1.6-0.3,2.2-1c0.1-0.1,0.2-0.3,0.3-0.4c0.1-0.1,0.1-0.1,0.2-0.1
			c0.5,0.3,1,0.5,1.5,0.8c0.1,0.1,0.1,0.1,0.1,0.2c-0.5,0.8-1.2,1.5-2.1,1.9c-0.5,0.3-1.1,0.4-1.7,0.5c-0.8,0.1-1.5,0-2.2-0.3
			c-1.1-0.5-1.9-1.3-2.1-2.5c-0.4-2,0.1-3.7,1.6-5.2c0.8-0.7,1.7-1.2,2.8-1.3c0.8-0.1,1.6-0.1,2.3,0.2c1.2,0.4,1.8,1.3,2.1,2.5
			C54,7.1,53.9,8,53.7,8.8c0,0.1-0.1,0.1-0.2,0.1c-1.1,0-2.1,0-3.2,0c-1,0-2,0-3,0C47.3,8.9,47.2,8.9,47.2,8.9z M47.6,7.2
			c1.4,0,2.8,0,4.1,0c0-0.2,0-0.3-0.1-0.5c-0.1-0.7-0.5-1.1-1.2-1.2c-1-0.1-1.8,0.2-2.4,0.9C47.9,6.6,47.7,6.9,47.6,7.2z"/>
		<path class="st0" d="M25.5,7.5c0,0.9-0.2,1.8-0.6,2.6c-0.7,1.4-1.8,2.3-3.3,2.7c-1,0.2-2,0.3-3-0.1c-1.3-0.5-2.1-1.4-2.4-2.7
			c-0.3-1.5,0-3,0.9-4.3c0.7-1,1.6-1.7,2.8-2c0.8-0.2,1.7-0.2,2.5,0c1.5,0.3,2.6,1.5,2.8,2.9C25.5,6.9,25.5,7.2,25.5,7.5z M18.6,8.6
			c0,0.3,0,0.5,0.1,0.8c0,0.1,0.1,0.3,0.1,0.4c0.2,0.7,0.7,1.1,1.4,1.2c1,0.1,1.8-0.3,2.3-1.1c0.7-1,0.7-2.2,0.4-3.3
			c-0.2-0.7-0.8-1.1-1.6-1.1c-1,0-1.8,0.5-2.3,1.3C18.8,7.4,18.7,8,18.6,8.6z"/>
		<path class="st0" d="M37.4,3.5c1,0,1.8,0.3,2.5,0.8c0.2,0.2,0.3,0.4,0.5,0.6c0.1,0.1,0,0.2-0.1,0.2c-0.4,0.3-0.9,0.6-1.3,0.9
			c-0.1,0.1-0.2,0-0.3,0c-0.3-0.4-0.8-0.6-1.3-0.6c-0.5,0-1,0.5-0.8,1c0.1,0.2,0.2,0.3,0.3,0.4c0.3,0.2,0.5,0.3,0.8,0.4
			c0.5,0.2,0.9,0.4,1.3,0.7c0.7,0.5,1,1.2,0.9,2.1c-0.1,0.6-0.2,1.1-0.5,1.5c-0.4,0.5-0.9,0.8-1.4,1c-1,0.3-2,0.4-3,0
			c-1-0.4-1.6-1.2-1.9-2.2c0-0.1,0-0.2,0.1-0.2c0.5-0.2,1-0.4,1.5-0.6c0.2-0.1,0.2,0,0.3,0.1c0.2,0.5,0.4,0.9,0.9,1.2
			c0.5,0.2,0.9,0.2,1.4,0c0.6-0.3,0.7-0.9,0.2-1.4c-0.2-0.1-0.3-0.3-0.5-0.4c-0.5-0.3-1-0.5-1.4-0.8C35.1,8,34.7,7.6,34.5,7
			c-0.4-1.5,0.4-3,2-3.4C36.9,3.6,37.2,3.6,37.4,3.5z"/>
		<path class="st0" d="M29.1,12.9c-1.8,0-3-1.1-3.4-2.5c0-0.2,0-0.2,0.1-0.3c0.5-0.2,1-0.4,1.5-0.6c0.2-0.1,0.2-0.1,0.3,0.1
			c0.2,0.5,0.5,1,1.1,1.2c0.4,0.2,0.9,0.2,1.3,0c0.6-0.3,0.6-1,0.2-1.4c-0.3-0.3-0.7-0.4-1-0.6c-0.4-0.2-0.8-0.4-1.1-0.6
			c-0.5-0.4-0.9-0.9-1-1.5c-0.2-1.5,0.7-2.7,2-3c0.9-0.2,1.8-0.2,2.7,0.2c0.5,0.2,0.9,0.5,1.2,1C33,5.1,33,5.1,32.8,5.2
			c-0.4,0.3-0.8,0.6-1.2,0.9c-0.2,0.1-0.2,0.1-0.3,0c-0.4-0.4-0.9-0.6-1.4-0.6c-0.4,0-0.8,0.5-0.7,0.9c0,0.2,0.1,0.3,0.3,0.4
			c0.3,0.2,0.5,0.3,0.8,0.5c0.5,0.2,0.9,0.4,1.4,0.7c0.8,0.5,1,1.3,0.9,2.2c-0.1,0.5-0.2,1-0.5,1.5c-0.5,0.7-1.1,1-1.9,1.2
			C29.8,12.8,29.4,12.9,29.1,12.9z"/>
		<path class="st0" d="M58.1,5c0.3-0.3,0.6-0.6,1-0.9c0.8-0.5,1.7-0.7,2.7-0.4c0,0,0.1,0,0.1,0C62.1,3.8,62.1,3.8,62,4
			c-0.2,0.5-0.4,1.1-0.6,1.6c-0.1,0.1-0.1,0.2-0.3,0.1c-0.8-0.3-1.5-0.1-2.1,0.4c-0.7,0.5-1.1,1.3-1.4,2.1c-0.2,0.6-0.4,1.3-0.5,2
			c-0.2,0.8-0.3,1.6-0.5,2.4c0,0.1-0.1,0.2-0.2,0.2c-0.6,0-1.3,0-1.9,0c-0.2,0-0.2,0-0.2-0.2c0.5-2.4,0.9-4.7,1.4-7.1
			c0.1-0.5,0.2-1.1,0.3-1.6c0-0.2,0.1-0.2,0.2-0.2c0.6,0,1.2,0,1.8,0c0.2,0,0.2,0,0.2,0.2C58.2,4.3,58.2,4.6,58.1,5z"/>
		<path class="st0" d="M12.9,12.7c-0.3,0-0.6,0-0.9,0c-0.2,0-0.2,0-0.2-0.2c0.4-2.1,0.8-4.3,1.2-6.4c0.4-1.9,0.7-3.8,1.1-5.7
			c0.1-0.5,0-0.4,0.5-0.4c0.5,0,1.1,0,1.6,0c0.2,0,0.2,0,0.2,0.2c-0.3,1.6-0.6,3.2-0.9,4.8c-0.3,1.8-0.7,3.5-1,5.3
			c-0.1,0.8-0.3,1.5-0.4,2.3c0,0.1-0.1,0.2-0.2,0.2C13.6,12.7,13.3,12.7,12.9,12.7z"/>
		<path class="st0" d="M41.7,12.7c-0.3,0-0.6,0-0.9,0c-0.2,0-0.2,0-0.2-0.2c0.4-2.3,0.9-4.5,1.3-6.8c0.1-0.6,0.2-1.2,0.4-1.9
			c0-0.2,0.1-0.2,0.3-0.2c0.6,0,1.2,0,1.7,0c0.2,0,0.3,0,0.2,0.3c-0.4,1.9-0.7,3.7-1.1,5.6c-0.2,1-0.4,2-0.6,3c0,0.2,0,0.2-0.3,0.2
			C42.3,12.7,42,12.7,41.7,12.7z"/>
		<path class="st0" d="M42.6,1.4c0-0.7,0.6-1.3,1.3-1.3c0.7,0,1.3,0.6,1.3,1.3c0,0.7-0.6,1.3-1.3,1.3C43.1,2.7,42.6,2.1,42.6,1.4z"
			/>
		<path class="st0" d="M61.3,10.4c0.7,0,1.3,0.6,1.3,1.3c0,0.7-0.6,1.3-1.3,1.2c-0.7,0-1.3-0.6-1.3-1.3
			C60.1,10.9,60.6,10.4,61.3,10.4z"/>
	</g>
</g>
</svg>
