<?xml version="1.0" encoding="utf-8"?>
<!-- Generator: Adobe Illustrator 25.2.1, SVG Export Plug-In . SVG Version: 6.00 Build 0)  -->
<svg version="1.1" id="Layer_1" xmlns="http://www.w3.org/2000/svg" xmlns:xlink="http://www.w3.org/1999/xlink" x="0px" y="0px"
	 viewBox="0 0 68.2 25.1" style="enable-background:new 0 0 68.2 25.1;" xml:space="preserve">
<style type="text/css">
	.st0{fill:#D3E7F7;}
	.st1{fill:#0155A1;}
	.st2{fill:#FBA702;}
	.st3{fill:#FCFEFF;}
	.st4{fill:#036ED4;}
	.st5{fill:#006CD3;}
	.st6{fill:#050306;}
	.st7{fill:#03B1AE;}
	.st8{fill:#00AD39;}
	.st9{fill:#FF495C;}
	.st10{fill:#017EAE;}
	.st11{fill:#CA4929;}
	.st12{fill:#F59001;}
	.st13{fill:#CDD0D2;}
	.st14{fill:#0863FF;}
	.st15{fill:#F14D02;}
	.st16{fill:#FED853;}
	.st17{fill:#2C323B;}
	.st18{fill:#EE5B65;}
	.st19{fill:#32B3E8;}
	.st20{fill:#2A8AC6;}
	.st21{fill:#D6445D;}
	.st22{fill:#960A2C;}
	.st23{fill:#010101;}
	.st24{fill:#D72B11;}
	.st25{fill:#E41231;}
	.st26{fill:#F01523;}
	.st27{fill:#93DD01;}
	.st28{fill:#249633;}
	.st29{fill:#242424;}
	.st30{fill:#C80126;}
	.st31{fill:#020202;}
	.st32{fill:#959798;}
	.st33{fill:#EE1818;}
	.st34{fill:#242021;}
	.st35{fill:#002A3B;}
	.st36{fill:#205053;}
	.st37{fill:#235153;}
	.st38{fill:#15AA9E;}
	.st39{fill:#09AC9D;}
	.st40{fill:#05716B;}
	.st41{fill:#F49200;}
	.st42{fill:#E25100;}
	.st43{fill:#0223FE;}
	.st44{fill:#04CBFE;}
	.st45{fill:#F47264;}
	.st46{fill:#F24731;}
	.st47{fill:#F8A197;}
	.st48{fill:#233240;}
	.st49{fill:#FE6D52;}
	.st50{fill:#124FFF;}
	.st51{fill:#F56D58;}
	.st52{fill:#75C4E2;}
	.st53{fill:#E0044D;}
	.st54{fill:#3B267C;}
	.st55{fill:#DD1937;}
	.st56{fill:#01B3FE;}
	.st57{fill:#454545;}
	.st58{fill:#AB56B3;}
	.st59{fill:#031A28;}
	.st60{fill:#53CD8E;}
	.st61{fill:#1B0E65;}
	.st62{fill:#060250;}
	.st63{fill:#02AA47;}
	.st64{fill:#060605;}
	.st65{fill:#221E5D;}
	.st66{fill:#F2574D;}
	.st67{fill:#FE6F05;}
	.st68{fill:#D2D1D0;}
</style>
<g>
	<path class="st0" d="M25.3,18.7c-0.3,0.1-0.4,0.3-0.6,0.4c-1.1,1-2.4,1.6-3.9,1.6c-2.6,0-4.4-1.5-4.7-4.1C16,16,16,15.5,16,15
		c0-2.5,0-5,0-7.6c0-0.4,0.1-0.5,0.5-0.6c0.8-0.2,1.7-0.4,2.5-0.6c0,0.9,0,1.8,0,2.7c0,2,0,4,0,5.9c0,0.1,0,0.2,0,0.3
		c0,2.5,1.8,3.7,4.1,2.7c0.1-0.1,0.3-0.1,0.4-0.2c1-0.5,1.7-1.2,1.6-2.5c-0.2-2.6,0-5.2-0.1-7.7c0-0.4,0.1-0.6,0.5-0.7
		c0.7-0.1,1.4-0.3,2.2-0.5c0.3-0.1,0.4,0,0.4,0.3c0,4.5,0,9,0,13.4c0,0.3-0.1,0.4-0.4,0.4c-0.5,0-1,0-1.5,0c-0.7,0-1-0.3-1-1
		C25.3,19.2,25.3,19,25.3,18.7z"/>
	<path class="st0" d="M6.9,15.5c0.2-0.1,0.2-0.3,0.3-0.5c1.1-2.7,2.3-5.3,3.4-8c0.3-0.6,0.6-0.9,1.3-0.9c0.7,0,1.3,0,2,0
		c0.1,0.2,0,0.3-0.1,0.5c-1.7,4-3.4,7.9-5.1,11.9c-0.2,0.4-0.2,0.7,0,1.1c0.8,1.8,1.5,3.5,2.3,5.4c-0.9,0-1.8,0-2.6,0
		c-0.4,0-0.5-0.4-0.7-0.7c-1.5-3.4-2.9-6.8-4.4-10.3c-1-2.4-2.1-4.9-3.1-7.3c-0.2-0.4-0.2-0.6,0.3-0.6c0.5,0,1.1,0,1.6,0
		c0.6,0,1,0.2,1.2,0.8c1.2,2.7,2.3,5.4,3.5,8.1C6.8,15.3,6.8,15.4,6.9,15.5z"/>
	<path class="st0" d="M58.1,8.4c-1,0-2,0-3,0c-0.9,0-1.8,0-2.6,0C52,8.4,52,8.5,52,9c0,3.6,0,7.2,0,10.8c0,0.5-0.1,0.6-0.6,0.6
		c-0.6,0-1.1,0-1.7,0c-0.6,0-0.8-0.1-0.7-0.7c0-3.5,0-7.1,0-10.6c0-0.6-0.1-0.8-0.7-0.7c-0.2,0-0.4,0-0.6,0c-0.5,0-0.8-0.3-0.8-0.8
		c-0.1-1.4-0.1-1.4,1.3-1.4c0.9,0,0.9,0,0.9-0.9c0-0.6,0.1-1.3,0.2-1.9c0.8-2.8,3.3-3.5,5.4-3.4c0,0,0,0,0.1,0
		c1.2,0.2,1.4,0.5,1.1,1.7c-0.1,0.4-0.4,0.6-0.8,0.6c-0.3,0-0.7,0-1,0.1c-1.2,0.2-1.9,0.9-2,2.1c-0.2,1.7-0.2,1.7,1.5,1.7
		c1,0,2,0,3,0c0.5,0,0.9,0.2,1.1,0.7C57.7,7.4,57.9,7.9,58.1,8.4z"/>
	<path class="st0" d="M55.6,9.4c0.9,0,1.8,0,2.7,0c0.3,0,0.4,0.2,0.5,0.4c0.8,1.9,1.6,3.8,2.5,5.7c0.2-0.1,0.2-0.4,0.3-0.5
		c1.1-2.6,2.3-5.3,3.4-7.9c0.3-0.6,0.6-0.9,1.3-0.9c0.5,0,0.9,0,1.4,0c0.7,0,0.7,0,0.4,0.6c-0.8,1.9-1.6,3.7-2.4,5.6
		c-1.7,3.9-3.4,7.8-5,11.7c-0.3,0.7-0.7,1-1.5,1c-0.6-0.1-1.2,0-1.9,0c0.7-1.6,1.3-3.2,2.1-4.8c0.4-0.8,0.4-1.5,0-2.4
		c-1.2-2.6-2.3-5.2-3.4-7.8C55.8,9.9,55.7,9.7,55.6,9.4z"/>
	<path class="st0" d="M29.5,10.1c0-0.8,0-1.4,0-2c0-0.2,0.1-0.3,0.2-0.4c1.6-1.4,3.4-2,5.5-1.5c2,0.5,3.3,2.2,3.4,4.5
		c0.1,2.9,0,5.7,0,8.6c0,1.1,0,1.2-1.2,1.1c-0.6,0-1.4,0.3-1.7-0.1c-0.3-0.3-0.1-1.1-0.1-1.7c0-2.3,0-4.6,0-6.9c0-0.1,0-0.3,0-0.4
		c-0.1-2.4-1.7-3.5-4-2.7C30.9,8.9,30.3,9.4,29.5,10.1z"/>
	<path class="st0" d="M44.6,13.3c0,2.2,0,4.4,0,6.6c0,0.4-0.1,0.5-0.5,0.5c-0.7,0-1.3,0-2,0c-0.4,0-0.6-0.1-0.6-0.5
		c0-2.6,0-5.2,0-7.7c0-1.6,0-3.1,0-4.7c0-0.4,0.1-0.6,0.6-0.7c0.6-0.1,1.3-0.3,1.9-0.5c0.5-0.1,0.5,0,0.5,0.4
		C44.6,9,44.6,11.1,44.6,13.3z"/>
	<path class="st0" d="M43.1,0c1.1,0,2,0.8,2,1.9c0,1.1-1,2-2.1,2c-1.1,0-2-1-2-2C41.1,0.8,42,0,43.1,0z"/>
</g>
</svg>
