<svg xmlns="http://www.w3.org/2000/svg" width="404" height="65" viewBox="0 0 404 65">
    <g fill="none" fill-rule="evenodd">
        <g fill="#FFF" fill-rule="nonzero">
            <g>
                <g>
                    <path d="M96.2 28c3.3 0 5.9-1.3 8-3.9l4.3 4.4c-3.4 3.8-7.3 5.7-11.9 5.7-4.6 0-8.3-1.4-11.3-4.3s-4.4-6.5-4.4-10.9 1.5-8.1 4.5-11c3-2.9 6.7-4.4 11.1-4.4 4.9 0 9 1.9 12.2 5.6l-4.1 4.7c-2.1-2.6-4.7-3.9-7.8-3.9-2.5 0-4.6.8-6.4 2.4-1.8 1.6-2.7 3.8-2.7 6.6s.8 5 2.5 6.7c1.6 1.4 3.6 2.3 6 2.3zM113.7 33.8L113.7 4.1 120.3 4.1 120.3 27.9 133 27.9 133 33.8zM162 29.7c-3 2.9-6.7 4.4-11.1 4.4-4.4 0-8.1-1.5-11.1-4.4-3-2.9-4.5-6.6-4.5-10.9 0-4.4 1.5-8 4.5-10.9 3-2.9 6.7-4.4 11.1-4.4 4.4 0 8.1 1.5 11.1 4.4 3 2.9 4.5 6.6 4.5 10.9 0 4.4-1.5 8-4.5 10.9zm-2.3-10.9c0-2.6-.9-4.9-2.6-6.8-1.7-1.9-3.8-2.8-6.3-2.8s-4.6.9-6.3 2.8c-1.7 1.9-2.6 4.1-2.6 6.8 0 2.6.9 4.9 2.6 6.8 1.7 1.9 3.8 2.8 6.3 2.8s4.6-.9 6.3-2.8c1.8-1.9 2.6-4.1 2.6-6.8zM180 26.2c1.1 1.4 2.6 2.1 4.5 2.1s3.4-.7 4.4-2.1c1.1-1.4 1.6-3.3 1.6-5.6V4.2h6.6v16.6c0 4.3-1.2 7.6-3.6 9.9-2.4 2.3-5.4 3.5-9.1 3.5-3.7 0-6.8-1.2-9.2-3.5-2.4-2.3-3.6-5.6-3.6-9.9V4.2h6.6v16.4c.1 2.3.7 4.2 1.8 5.6zM226.7 8c2.8 2.6 4.3 6.2 4.3 10.8 0 4.6-1.4 8.3-4.1 11-2.8 2.7-7 4-12.6 4H204V4.1h10.5c5.3 0 9.4 1.3 12.2 3.9zm-4.8 17.7c1.6-1.5 2.4-3.8 2.4-6.7 0-2.9-.8-5.2-2.4-6.7-1.6-1.6-4.1-2.4-7.5-2.4h-3.7V28h4.2c3 0 5.3-.8 7-2.3zM268.7 4.1L275.3 4.1 275.3 33.8 268.7 33.8 254.5 15.2 254.5 33.8 247.9 33.8 247.9 4.1 254.1 4.1 268.7 23.2zM303.8 33.8l-2.8-6.4h-12.5l-2.8 6.4h-7.1l12.8-29.7h6.4l12.8 29.7h-6.8zM294.9 13l-3.7 8.6h7.4l-3.7-8.6zM324.8 9.9L324.8 33.9 318.2 33.9 318.2 9.9 309.8 9.9 309.8 4.2 333.3 4.2 333.3 9.9zM338 4.1L344.6 4.1 344.6 33.8 338 33.8zM362.9 23L370.5 4.1 377.7 4.1 365.8 33.8 360.2 33.8 348.3 4.1 355.5 4.1zM402.6 4.1L402.6 10 387.8 10 387.8 16.1 401.1 16.1 401.1 21.8 387.8 21.8 387.8 28 403.1 28 403.1 33.9 381.2 33.9 381.2 4.2 402.6 4.2zM88.6 59.1c1.8 0 3.3-.7 4.5-2.2l2.4 2.5c-1.9 2.1-4.1 3.2-6.7 3.2-2.6 0-4.7-.8-6.3-2.4-1.7-1.6-2.5-3.7-2.5-6.1 0-2.5.8-4.5 2.5-6.2 1.7-1.7 3.8-2.5 6.2-2.5 2.7 0 5 1 6.9 3.1l-2.3 2.6c-1.2-1.5-2.6-2.2-4.4-2.2-1.4 0-2.6.5-3.6 1.4-1 .9-1.5 2.1-1.5 3.7s.5 2.8 1.4 3.7c.9 1 2.1 1.4 3.4 1.4zM112 60.1c-1.7 1.6-3.8 2.5-6.2 2.5-2.5 0-4.5-.8-6.2-2.5-1.7-1.6-2.5-3.7-2.5-6.1 0-2.4.8-4.5 2.5-6.1 1.7-1.6 3.8-2.5 6.2-2.5 2.5 0 4.5.8 6.2 2.5 1.7 1.6 2.5 3.7 2.5 6.1 0 2.4-.8 4.5-2.5 6.1zm-1.2-6.1c0-1.5-.5-2.8-1.4-3.8-1-1-2.1-1.6-3.5-1.6s-2.6.5-3.5 1.6c-1 1-1.4 2.3-1.4 3.8s.5 2.7 1.4 3.8c1 1 2.1 1.6 3.5 1.6s2.6-.5 3.5-1.6c.9-1 1.4-2.3 1.4-3.8zM132.6 51.9L128.1 61 125.9 61 121.4 51.9 121.4 62.4 117.7 62.4 117.7 45.7 122.7 45.7 127 54.8 131.3 45.7 136.3 45.7 136.3 62.4 132.6 62.4zM151.9 47.3c1.2 1 1.8 2.5 1.8 4.6 0 2.1-.6 3.6-1.8 4.5-1.2 1-3 1.4-5.5 1.4h-2.2v4.6h-3.7V45.7h5.9c2.5.1 4.3.6 5.5 1.6zm-2.7 6.5c.4-.5.7-1.2.7-2.2 0-1-.3-1.6-.9-2-.6-.4-1.5-.6-2.7-.6h-2.1v5.6h2.5c1.2 0 2-.3 2.5-.8zM161 58.1c.6.8 1.5 1.2 2.5 1.2s1.9-.4 2.5-1.2c.6-.8.9-1.8.9-3.2v-9.2h3.7V55c0 2.4-.7 4.3-2 5.6-1.3 1.3-3 1.9-5.1 1.9-2.1 0-3.8-.7-5.1-2-1.3-1.3-2-3.2-2-5.6v-9.3h3.7v9.2c0 1.5.3 2.6.9 3.3zM181.5 49L181.5 62.4 177.8 62.4 177.8 49 173.1 49 173.1 45.8 186.3 45.8 186.3 49zM189 45.8L192.7 45.8 192.7 62.5 189 62.5zM208.4 45.8L212.1 45.8 212.1 62.5 208.4 62.5 200.5 52.1 200.5 62.5 196.8 62.5 196.8 45.8 200.3 45.8 208.5 56.5 208.5 45.8zM227.1 54h3.7v5.9c-1.7 1.8-3.9 2.8-6.9 2.8-2.4 0-4.5-.8-6.2-2.4-1.7-1.6-2.5-3.7-2.5-6.1 0-2.5.8-4.5 2.5-6.2 1.7-1.7 3.7-2.5 6.1-2.5 2.4 0 4.5.8 6.2 2.4l-1.9 2.8c-.7-.7-1.4-1.1-2.1-1.3-.6-.2-1.3-.4-2-.4-1.4 0-2.6.5-3.6 1.4-1 1-1.5 2.2-1.5 3.8 0 1.6.5 2.8 1.4 3.8.9.9 2 1.4 3.3 1.4 1.3 0 2.4-.2 3.2-.7V54h.3zM251.8 45.8L251.8 49.1 244.1 49.1 244.1 52.7 251.4 52.7 251.4 56 244.1 56 244.1 62.5 240.4 62.5 240.4 45.8zM269 60.1c-1.7 1.6-3.8 2.5-6.2 2.5-2.5 0-4.5-.8-6.2-2.5-1.7-1.6-2.5-3.7-2.5-6.1 0-2.4.8-4.5 2.5-6.1 1.7-1.6 3.8-2.5 6.2-2.5 2.5 0 4.5.8 6.2 2.5 1.7 1.6 2.5 3.7 2.5 6.1 0 2.4-.8 4.5-2.5 6.1zm-1.3-6.1c0-1.5-.5-2.8-1.4-3.8-1-1-2.1-1.6-3.5-1.6s-2.6.5-3.5 1.6c-1 1-1.4 2.3-1.4 3.8s.5 2.7 1.4 3.8c1 1 2.1 1.6 3.5 1.6s2.6-.5 3.5-1.6c1-1 1.4-2.3 1.4-3.8zM279.1 58.1c.6.8 1.5 1.2 2.5 1.2s1.9-.4 2.5-1.2c.6-.8.9-1.8.9-3.2v-9.2h3.7V55c0 2.4-.7 4.3-2 5.6-1.3 1.3-3 1.9-5.1 1.9-2.1 0-3.8-.7-5.1-2-1.3-1.3-2-3.2-2-5.6v-9.3h3.7v9.2c-.1 1.5.3 2.6.9 3.3zM304.2 45.8L307.9 45.8 307.9 62.5 304.2 62.5 296.3 52.1 296.3 62.5 292.6 62.5 292.6 45.8 296.1 45.8 304.3 56.5 304.3 45.8zM324.7 48c1.6 1.5 2.4 3.5 2.4 6.1 0 2.6-.8 4.6-2.3 6.1-1.5 1.5-3.9 2.3-7.1 2.3H312V45.8h5.9c3 0 5.3.7 6.8 2.2zm-2.7 9.9c.9-.9 1.4-2.1 1.4-3.7s-.5-2.9-1.4-3.8c-.9-.9-2.3-1.3-4.2-1.3h-2.1v10.1h2.4c1.7-.1 3-.5 3.9-1.3zM341.7 62.4l-1.5-3.6h-7l-1.5 3.6h-4l7.2-16.7h3.6l7.2 16.7h-4zm-5-11.7l-2.1 4.8h4.2l-2.1-4.8zM353.5 49L353.5 62.4 349.8 62.4 349.8 49 345 49 345 45.8 358.2 45.8 358.2 49zM360.9 45.8L364.6 45.8 364.6 62.5 360.9 62.5zM382.7 60.1c-1.7 1.6-3.8 2.5-6.2 2.5-2.5 0-4.5-.8-6.2-2.5-1.7-1.6-2.5-3.7-2.5-6.1 0-2.4.8-4.5 2.5-6.1 1.7-1.6 3.8-2.5 6.2-2.5 2.5 0 4.5.8 6.2 2.5 1.7 1.6 2.5 3.7 2.5 6.1 0 2.4-.8 4.5-2.5 6.1zm-1.2-6.1c0-1.5-.5-2.8-1.4-3.8-1-1-2.1-1.6-3.5-1.6s-2.6.5-3.5 1.6c-1 1-1.4 2.3-1.4 3.8s.5 2.7 1.4 3.8c1 1 2.1 1.6 3.5 1.6s2.6-.5 3.5-1.6c.9-1 1.4-2.3 1.4-3.8zM400 45.8L403.7 45.8 403.7 62.5 400 62.5 392.1 52.1 392.1 62.5 388.4 62.5 388.4 45.8 391.9 45.8 400.1 56.5zM9.5 42.7L.4 42.7.4 64.1 21.7 64.1 21.7 54.9 9.5 54.9zM55.3 42.8L55.3 54.9 43.1 54.9 43.1 54.8 43.1 64.1 64.4 64.1 64.4 42.7 55.2 42.7zM.4 21.4L9.6 21.4 9.5 21.3 9.5 9.2 21.7 9.2 21.7 0 .4 0zM43.1 0L43.1 9.2 55.3 9.2 55.3 21.4 64.4 21.4 64.4 0z" transform="translate(-517 -3456) translate(-.629 3316) translate(517.629 140)"/>
                    <g opacity=".8">
                        <path d="M41.9 21.4L29.7 9.2 43.1 9.2 43.1 0 21.7 0 21.7 9.2 33.9 21.4zM30.9 42.7L22.9 42.7 33 52.8 35 54.9 21.7 54.9 21.7 64.1 43.1 64.1 43.1 54.8 37 48.8zM55.3 21.4L55.3 34.7 53.2 32.6 43.1 22.5 43.1 30.6 49.1 36.6 55.2 42.7 64.4 42.7 64.4 21.4zM21.7 33.5L9.6 21.4.4 21.4.4 42.7 9.5 42.7 9.5 29.4 21.7 41.6z" transform="translate(-517 -3456) translate(-.629 3316) translate(517.629 140)"/>
                    </g>
                </g>
            </g>
        </g>
    </g>
</svg>
