<svg width="433" height="249" viewBox="0 0 433 249" xmlns="http://www.w3.org/2000/svg" xmlns:xlink="http://www.w3.org/1999/xlink">
    <defs>
        <path id="a" d="M0 15.458h433v152H0z"/>
        <path id="h" d="M0 0h3.248v4.289H0z"/>
        <path id="j" d="M0 0h1.301v1.302H0z"/>
        <filter x="-19.4%" y="-24.3%" width="152.1%" height="159.7%" filterUnits="objectBoundingBox" id="c">
            <feOffset dx="11" dy="8" in="SourceAlpha" result="shadowOffsetOuter1"/>
            <feGaussianBlur stdDeviation="12.5" in="shadowOffsetOuter1" result="shadowBlurOuter1"/>
            <feColorMatrix values="0 0 0 0 0.0823529412 0 0 0 0 0.0980392157 0 0 0 0 0.270588235 0 0 0 1 0" in="shadowBlurOuter1"/>
        </filter>
        <filter x="-18.6%" y="-16.9%" width="137.1%" height="141.9%" filterUnits="objectBoundingBox" id="f">
            <feOffset dy="8" in="SourceAlpha" result="shadowOffsetOuter1"/>
            <feGaussianBlur stdDeviation="12.5" in="shadowOffsetOuter1" result="shadowBlurOuter1"/>
            <feColorMatrix values="0 0 0 0 0.0823529412 0 0 0 0 0.0980392157 0 0 0 0 0.270588235 0 0 0 1 0" in="shadowBlurOuter1"/>
        </filter>
        <rect id="b" x="0" y="0" width="165.047" height="144.083" rx="6"/>
        <rect id="e" x="0" y="0" width="223.624" height="197.917" rx="6"/>
    </defs>
    <g fill="none" fill-rule="evenodd">
        <g transform="translate(66.189 71)">
            <mask id="d" fill="#fff">
                <use xlink:href="#b"/>
            </mask>
            <use fill="#000" filter="url(#c)" xlink:href="#b"/>
            <use fill="#111A3D" xlink:href="#b"/>
            <path fill="#090C2A" mask="url(#d)" transform="rotate(-180 5.739 73.625)" d="M0 .396h11.478v146.458H0z"/>
            <path d="M-4.75 32.854h20.583a1.187 1.187 0 0 1 0 2.375H-4.751a1.187 1.187 0 1 1 0-2.375z" fill="#3F4E97" mask="url(#d)" transform="rotate(-90 5.541 34.042)"/>
            <text mask="url(#d)" font-family="Menlo-Regular, Menlo" font-size="5.866">
                            <tspan x="27.706" y="54.079" fill="#88F7B7">up login --profile=</tspan>
                            <tspan x="94.803" y="54.079" fill="#8FACFF">&lt;CHOOSE </tspan>
                            <tspan x="27.706" y="63.079" fill="#8FACFF">PROFILE NAME&gt;</tspan>
                            <tspan x="73.615" y="63.079" fill="#88F7B7"> --</tspan>
                            <tspan x="27.706" y="72.079" fill="#88F7B7">account=</tspan>
                            <tspan x="55.957" y="72.079" fill="#8FACFF">&lt;USERNAME&gt;</tspan>
                            <tspan x="91.272" y="72.079" fill="#88F7B7"> --</tspan>
                            <tspan x="27.706" y="81.079" fill="#88F7B7">username=</tspan>
                            <tspan x="59.489" y="81.079" fill="#8FACFF">&lt;YOUR USERNAME&gt;</tspan>
                            <tspan x="112.461" y="81.079" fill="#88F7B7"> --</tspan>
                            <tspan x="27.706" y="90.079" fill="#88F7B7">password=</tspan>
                            <tspan x="59.489" y="90.079" fill="#8FACFF">&lt;YOUR PASSWORD&gt;</tspan>
                            
                            
                            <tspan x="27.706" y="108.079" fill="#88F7B7">up controlplane attach $NAME --</tspan>
                            <tspan x="27.706" y="117.079" fill="#88F7B7">profile=</tspan>
                            <tspan x="55.957" y="117.079" fill="#8FACFF">&lt;PROFILE NAME&gt;</tspan>
                            <tspan x="105.398" y="117.079" fill="#88F7B7"> | up uxp </tspan>
                            <tspan x="27.706" y="126.079" fill="#88F7B7">connect -</tspan>
                        </text>
        </g>
        <g transform="translate(140.385 17.542)">
            <mask id="g" fill="#fff">
                <use xlink:href="#e"/>
            </mask>
            <use fill="#000" filter="url(#f)" xlink:href="#e"/>
            <use fill="#FFF" xlink:href="#e"/>
            <g mask="url(#g)">
                <path fill="#263B67" d="M0 0h22v283.149H0z"/>
                <g transform="translate(5.945 170.117)">
                    <circle fill="#EA595B" cx="6" cy="6" r="6"/>
                    <text font-family="Avenir-Medium, Avenir" font-size="4" font-weight="400" fill="#FFF">
                                        <tspan x="4.076" y="8.085">W</tspan>
                                    </text>
                </g>
                <text font-family="Avenir-Roman, Avenir" font-size="2.659" fill="#505A72" transform="translate(2.904 27.92)">
                                        <tspan x=".166" y="10.449">Control Planes</tspan>
                                    </text>
                <g stroke="#FFF" stroke-linecap="round" stroke-linejoin="round" stroke-width=".5">
                    <path d="M11.703 28.141 9.33 29.18l2.373 1.038 2.373-1.038zM9.33 31.908l2.373 1.039 2.373-1.039M9.33 30.579l2.373 1.038 2.373-1.038"/>
                </g>
                <text font-family="Avenir-Roman, Avenir" font-size="2.659" fill="#505A72" transform="translate(2.904 45.425)">
                                        <tspan x="3.418" y="10.449">Consoles</tspan>
                                    </text>
                <g transform="translate(9.108 45.425)" stroke="#A6AEC1" stroke-linecap="round" stroke-linejoin="round" stroke-width=".5">
                    <rect x=".332" y=".332" width="4.653" height="4.653" rx=".443"/>
                    <path d="M.332 1.994h4.654M1.994 4.986V1.994"/>
                </g>
                <text font-family="Avenir-Roman, Avenir" font-size="2.659" fill="#505A72" transform="translate(2.904 62.93)">
                                        <tspan x="1.474" y="10.449">Repositories</tspan>
                                    </text>
                <g stroke="#A6AEC1" stroke-width=".5">
                    <path d="M10.438 66.587h3.324v1.33h-3.324a.665.665 0 1 1 0-1.33z"/>
                    <path d="M10.396 63.263h3.366v4.653h-3.366c-.344 0-.623-.26-.623-.581v-3.49c0-.322.28-.582.623-.582z" stroke-linecap="round" stroke-linejoin="round"/>
                </g>
                <text font-family="Avenir-Roman, Avenir" font-size="2.659" fill="#505A72" transform="translate(2.904 80.436)">
                                        <tspan x="3.642" y="10.449">All Users</tspan>
                                    </text>
                <g transform="translate(9.33 80.879)" stroke="#A6AEC1" stroke-linecap="round" stroke-linejoin="round" stroke-width=".5">
                    <path d="M3.223 4.512v-.846a.806.806 0 0 0-.806-.806H.806A.806.806 0 0 0 0 3.666v.846M4.875 4.512v-.846a.806.806 0 0 0-.604-.78"/>
                    <circle cx="1.627" cy="1.007" r="1.007"/>
                    <path d="M3.61.033a1.007 1.007 0 0 1 0 1.951"/>
                </g>
                <g>
                    <text font-family="Avenir-Roman, Avenir" font-size="2.659" fill="#505A72" transform="translate(2.904 97.941)">
                                        <tspan x="5.12" y="10.449">Teams</tspan>
                                    </text>
                    <g stroke="#A6AEC1" stroke-linecap="round" stroke-linejoin="round" stroke-width=".5">
                        <path d="M11.804 98.384a2.253 2.253 0 1 1 0 4.506 2.253 2.253 0 0 1 0-4.506z"/>
                        <path d="M13.148 99.05a2.21 2.21 0 0 0-.716 1.63c0 .627.26 1.193.68 1.597M10.48 102.2c.394-.4.637-.949.637-1.555a2.21 2.21 0 0 0-.679-1.596"/>
                    </g>
                </g>
                <g>
                    <text font-family="Avenir-Roman, Avenir" font-size="2.659" fill="#505A72" transform="translate(2.904 115.446)">
                                        <tspan x="4.625" y="10.449">Robots</tspan>
                                    </text>
                    <g transform="translate(9.33 115.668)" stroke="#A6AEC1" stroke-linecap="round" stroke-linejoin="round" stroke-width=".5">
                        <rect width="4.875" height="4.875" rx="1.33"/>
                        <path d="M2.474 1.551a.923.923 0 1 1 0 1.847.923.923 0 0 1 0-1.847z"/>
                    </g>
                </g>
                <g>
                    <text font-family="Avenir-Roman, Avenir" font-size="2.659" fill="#505A72" transform="translate(2.904 132.789)">
                                        <tspan x="4.009" y="10.449">Settings</tspan>
                                    </text>
                    <g transform="translate(9.108 132.789)" stroke="#A6AEC1" stroke-linecap="round" stroke-linejoin="round" stroke-width=".5">
                        <circle cx="2.659" cy="2.659" r="1"/>
                        <path d="M4.299 3.324a.366.366 0 0 0 .073.403l.013.013a.443.443 0 1 1-.627.627l-.013-.013a.366.366 0 0 0-.403-.073.366.366 0 0 0-.222.335v.037a.443.443 0 0 1-.886 0v-.02a.366.366 0 0 0-.24-.334.366.366 0 0 0-.403.073l-.013.013a.443.443 0 1 1-.627-.627l.013-.013a.366.366 0 0 0 .073-.403.366.366 0 0 0-.335-.222H.665a.443.443 0 1 1 0-.886h.02a.366.366 0 0 0 .334-.24.366.366 0 0 0-.073-.403l-.013-.013A.443.443 0 1 1 1.56.95l.013.013a.366.366 0 0 0 .404.073h.017a.366.366 0 0 0 .222-.335V.665a.443.443 0 1 1 .886 0v.02c0 .145.088.277.222.334.137.06.296.032.403-.073L3.74.933a.443.443 0 1 1 .627.627l-.013.013a.366.366 0 0 0-.073.404v.017a.366.366 0 0 0 .335.222h.037a.443.443 0 0 1 0 .886h-.02a.366.366 0 0 0-.334.222z"/>
                    </g>
                </g>
                <g transform="translate(5.888 6.648)">
                    <rect fill="#6553C0" width="12.409" height="12.409" rx="2.216"/>
                    <path d="M6.113 5.575 6.1 6.782c0 1.16-1.117 1.396-1.505 1.396-.81 0-1.492-.493-1.492-1.396V5.507c0-.283.163-.452.426-.452.27 0 .433.17.433.452v1.179c0 .457.231.708.633.708.426 0 .659-.213.659-.708v-1.11c0-.283.163-.452.432-.452.264 0 .427.17.427.451" fill="#FFF"/>
                    <g transform="translate(6.702 5.018)">
                        <mask id="i" fill="#fff">
                            <use xlink:href="#h"/>
                        </mask>
                        <path d="M2.37 1.58c0-.476-.307-.796-.746-.796-.445 0-.765.332-.765.796s.32.797.765.797c.439 0 .746-.327.746-.797m.878 0c0 .96-.577 1.58-1.448 1.58-.395 0-.715-.138-.929-.376H.86v1.047c0 .282-.163.458-.433.458-.263 0-.426-.176-.426-.458V.49C0 .207.163.038.426.038c.232 0 .389.125.427.344h.012C1.078.138 1.398 0 1.8 0c.871 0 1.448.62 1.448 1.58" fill="#FFF" mask="url(#i)"/>
                    </g>
                    <g transform="translate(2.88 3.102)">
                        <mask id="k" fill="#fff">
                            <use xlink:href="#j"/>
                        </mask>
                        <path d="M1.301.65A.65.65 0 1 1 0 .652a.65.65 0 0 1 1.301 0" fill="#FFF" mask="url(#k)"/>
                    </g>
                </g>
            </g>
        </g>
        <rect x=".25" y=".25" width="179.427" height="26.848" rx="1.108" fill="#FFF" stroke="#DCDCDE" stroke-width=".5" transform="translate(172.566 50.648)"/>
        <g font-family="Avenir-Roman, Avenir">
            <text font-size="4.432" fill="#505A72" transform="translate(181.43 57.96)">
                                    <tspan x="0" y="10.648">UXP Instance</tspan>
                                </text>
            <text font-size="3.878" fill="#929394" transform="translate(181.43 57.96)">
                                    <tspan x="0" y="4">Name</tspan>
                                </text>
        </g>
        <g font-family="Avenir-Roman, Avenir">
            <text font-size="4.432" fill="#505A72" transform="translate(292.223 58.182)">
                                    <tspan x="0" y="10.648">Self-Hosted</tspan>
                                </text>
            <text font-size="3.878" fill="#929394" transform="translate(292.223 58.182)">
                                    <tspan x="0" y="4">Server</tspan>
                                </text>
        </g>
        <rect x=".25" y=".25" width="179.427" height="26.848" rx="1.108" fill="#FFF" stroke="#DCDCDE" stroke-width=".5" transform="translate(172.566 86.633)"/>
        <g font-family="Avenir-Roman, Avenir">
            <text font-size="4.432" fill="#505A72" transform="translate(181.43 93.945)">
                                    <tspan x="0" y="10.648">prod-crossplane-east</tspan>
                                </text>
            <text font-size="3.878" fill="#929394" transform="translate(181.43 93.945)">
                                    <tspan x="0" y="4">Name</tspan>
                                </text>
        </g>
        <g font-family="Avenir-Roman, Avenir">
            <text font-size="4.432" fill="#505A72" transform="translate(292.223 94.167)">
                                    <tspan x="0" y="10.648">Hosted</tspan>
                                </text>
            <text font-size="3.878" fill="#929394" transform="translate(292.223 94.167)">
                                    <tspan x="0" y="4">Server</tspan>
                                </text>
        </g>
        <g transform="translate(338.346 63.611)" stroke="#929394" stroke-linecap="round" stroke-linejoin="round" stroke-width=".665">
            <circle cx="3.49" cy=".698" r="1"/>
            <circle cx="6.282" cy=".698" r="1"/>
            <circle cx=".698" cy=".698" r="1"/>
        </g>
        <g stroke="#929394" stroke-linecap="round" stroke-linejoin="round" stroke-width=".665">
            <g transform="translate(338.346 99.176)">
                <circle cx="3.49" cy=".698" r="1"/>
                <circle cx="6.282" cy=".698" r="1"/>
                <circle cx=".698" cy=".698" r="1"/>
            </g>
        </g>
        <g>
            <rect x=".25" y=".25" width="179.427" height="26.848" rx="1.108" fill="#FFF" stroke="#DCDCDE" stroke-width=".5" transform="translate(172.566 122.617)"/>
            <g font-family="Avenir-Roman, Avenir">
                <text font-size="4.432" fill="#505A72" transform="translate(181.43 129.93)">
                                    <tspan x="0" y="10.648">test-crossplane-west</tspan>
                                </text>
                <text font-size="3.878" fill="#929394" transform="translate(181.43 129.93)">
                                    <tspan x="0" y="4">Name</tspan>
                                </text>
            </g>
            <g font-family="Avenir-Roman, Avenir">
                <text font-size="4.432" fill="#505A72" transform="translate(292.223 130.151)">
                                    <tspan x="0" y="10.648">Connected, Self-hosted</tspan>
                                </text>
                <text font-size="3.878" fill="#929394" transform="translate(292.223 130.151)">
                                    <tspan x="0" y="4">Server</tspan>
                                </text>
            </g>
        </g>
        <g>
            <rect x=".25" y=".25" width="179.427" height="26.848" rx="1.108" transform="translate(172.566 158.602)" fill="#FFF" stroke="#DCDCDE" stroke-width=".5"/>
            <g font-family="Avenir-Roman, Avenir">
                <text font-size="4.432" fill="#505A72" transform="translate(181.43 165.915)">
                                    <tspan x="0" y="10.648">test-crossplane-east</tspan>
                                </text>
                <text font-size="3.878" fill="#929394" transform="translate(181.43 165.915)">
                                    <tspan x="0" y="4">Name</tspan>
                                </text>
            </g>
            <g font-family="Avenir-Roman, Avenir">
                <text font-size="4.432" fill="#505A72" transform="translate(292.223 166.136)">
                                    <tspan x="0" y="10.648">Connected, Self-hosted</tspan>
                                </text>
                <text font-size="3.878" fill="#929394" transform="translate(292.223 166.136)">
                                    <tspan x="0" y="4">Server</tspan>
                                </text>
            </g>
            <text font-family="Avenir-Roman, Avenir" font-size="3.723" fill="#929394" transform="translate(233.864 166.136)">
                                    <tspan x="0" y="4">Status</tspan>
                                </text>
            <text font-family="Avenir-Roman, Avenir" font-size="4.254" fill="#505A72" transform="translate(233.864 166.136)">
                                    <tspan x="5" y="10.222">Healthy</tspan>
                                </text>
            <path d="M235.5 174a1.5 1.5 0 1 1 0 3 1.5 1.5 0 0 1 0-3z" fill="#3DC47E"/>
            <text font-family="Avenir-Roman, Avenir" font-size="3.723" fill="#929394" transform="translate(233.864 131.136)">
                                    <tspan x="0" y="4">Status</tspan>
                                </text>
            <text font-family="Avenir-Roman, Avenir" font-size="4.254" fill="#505A72" transform="translate(233.864 131.136)">
                                    <tspan x="5" y="10.222">Healthy</tspan>
                                </text>
            <path d="M235.5 139a1.5 1.5 0 1 1 0 3 1.5 1.5 0 0 1 0-3z" fill="#3DC47E"/>
            <g>
                <text font-family="Avenir-Roman, Avenir" font-size="3.723" fill="#929394" transform="translate(233.864 95.136)">
                                    <tspan x="0" y="4">Status</tspan>
                                </text>
                <text font-family="Avenir-Roman, Avenir" font-size="4.254" fill="#505A72" transform="translate(233.864 95.136)">
                                    <tspan x="5" y="10.222">Healthy</tspan>
                                </text>
                <path d="M235.5 103a1.5 1.5 0 1 1 0 3 1.5 1.5 0 0 1 0-3z" fill="#3DC47E"/>
            </g>
            <g>
                <text font-family="Avenir-Roman, Avenir" font-size="3.723" fill="#929394" transform="translate(233.864 59.136)">
                                    <tspan x="0" y="4">Status</tspan>
                                </text>
                <text font-family="Avenir-Roman, Avenir" font-size="4.254" fill="#505A72" transform="translate(233.864 59.136)">
                                    <tspan x="5" y="10.222">Healthy</tspan>
                                </text>
                <path d="M235.5 67a1.5 1.5 0 1 1 0 3 1.5 1.5 0 0 1 0-3z" fill="#3DC47E"/>
            </g>
        </g>
        <g>
            <text font-family="Avenir-Black, Avenir" font-size="7.479" font-weight="700" fill="#505A72" transform="translate(172.155 31.138)">
                                <tspan x="0" y="7.002">Control Planes</tspan>
                            </text>
            <g transform="translate(302.155 31.138)">
                <rect fill="#6553C0" width="51" height="11" rx="5.5"/>
                <text font-family="Avenir-Roman, Avenir" font-size="4.188" fill="#FFF">
                                    <tspan x="20.157" y="7">Creat</tspan>
                                    <tspan x="24.154" y="12.983">e </tspan>
                                    <tspan x="20" y="18.966">Contr</tspan>
                                    <tspan x="23.572" y="24.948">ol </tspan>
                                    <tspan x="20.159" y="30.931">Plane</tspan>
                                </text>
            </g>
        </g>
        <g transform="translate(94.264 106.417)" stroke-width=".791">
            <rect stroke="#88F7B7" x=".396" y=".396" width="9.499" height="9.5" rx="1.978"/>
            <g stroke="#8FACFF" stroke-linecap="round">
                <path d="M5.185 6.729v1.188M3.8 6.53h2.77M6.57 6.333V4c0-.679-.62-1.228-1.385-1.228S3.8 3.32 3.8 3.999v2.334"/>
            </g>
        </g>
    </g>
</svg>
