<svg width="1111" height="384" viewBox="0 0 1111 384" xmlns="http://www.w3.org/2000/svg" xmlns:xlink="http://www.w3.org/1999/xlink">
    <defs>
        <path id="a" d="M0 0h1094v384H0z"/>
        <path id="i" d="M0 0h8.208v10.84H0z"/>
        <path id="k" d="M0 0h3.289v3.29H0z"/>
        <filter x="-18.9%" y="-23.4%" width="151.3%" height="158.8%" filterUnits="objectBoundingBox" id="d">
            <feOffset dx="28" dy="22" in="SourceAlpha" result="shadowOffsetOuter1"/>
            <feGaussianBlur stdDeviation="31" in="shadowOffsetOuter1" result="shadowBlurOuter1"/>
            <feColorMatrix values="0 0 0 0 0.0823529412 0 0 0 0 0.0980392157 0 0 0 0 0.270588235 0 0 0 1 0" in="shadowBlurOuter1"/>
        </filter>
        <filter x="-18.4%" y="-16.4%" width="136.8%" height="141.6%" filterUnits="objectBoundingBox" id="g">
            <feOffset dy="22" in="SourceAlpha" result="shadowOffsetOuter1"/>
            <feGaussianBlur stdDeviation="31" in="shadowOffsetOuter1" result="shadowBlurOuter1"/>
            <feColorMatrix values="0 0 0 0 0.0823529412 0 0 0 0 0.0980392157 0 0 0 0 0.270588235 0 0 0 1 0" in="shadowBlurOuter1"/>
        </filter>
        <rect id="c" x="0" y="0" width="417" height="364" rx="7.84"/>
        <rect id="f" x="0" y="0" width="564.999" height="500" rx="10.08"/>
    </defs>
    <g fill="none" fill-rule="evenodd">
        <g transform="translate(27 54)" fill="#8CF0DE">
            <ellipse cx="77.5" cy="2.535" rx="2.5" ry="2.535"/>
            <ellipse cx="77.5" cy="17.744" rx="2.5" ry="2.535"/>
            <ellipse cx="77.5" cy="32.953" rx="2.5" ry="2.535"/>
            <ellipse cx="77.5" cy="48.163" rx="2.5" ry="2.535"/>
            <ellipse cx="77.5" cy="63.372" rx="2.5" ry="2.535"/>
            <ellipse cx="107.5" cy="2.535" rx="2.5" ry="2.535"/>
            <ellipse cx="107.5" cy="17.744" rx="2.5" ry="2.535"/>
            <ellipse cx="107.5" cy="32.953" rx="2.5" ry="2.535"/>
            <ellipse cx="107.5" cy="48.163" rx="2.5" ry="2.535"/>
            <ellipse cx="107.5" cy="63.372" rx="2.5" ry="2.535"/>
            <ellipse cx="137.5" cy="2.535" rx="2.5" ry="2.535"/>
            <ellipse cx="137.5" cy="17.744" rx="2.5" ry="2.535"/>
            <ellipse cx="137.5" cy="32.953" rx="2.5" ry="2.535"/>
            <ellipse cx="137.5" cy="48.163" rx="2.5" ry="2.535"/>
            <ellipse cx="137.5" cy="63.372" rx="2.5" ry="2.535"/>
            <ellipse cx="92.5" cy="2.535" rx="2.5" ry="2.535"/>
            <ellipse cx="92.5" cy="17.744" rx="2.5" ry="2.535"/>
            <ellipse cx="92.5" cy="32.953" rx="2.5" ry="2.535"/>
            <ellipse cx="92.5" cy="48.163" rx="2.5" ry="2.535"/>
            <ellipse cx="92.5" cy="63.372" rx="2.5" ry="2.535"/>
            <ellipse cx="122.5" cy="2.535" rx="2.5" ry="2.535"/>
            <ellipse cx="122.5" cy="17.744" rx="2.5" ry="2.535"/>
            <ellipse cx="122.5" cy="32.953" rx="2.5" ry="2.535"/>
            <ellipse cx="122.5" cy="48.163" rx="2.5" ry="2.535"/>
            <ellipse cx="122.5" cy="63.372" rx="2.5" ry="2.535"/>
            <ellipse cx="152.5" cy="2.535" rx="2.5" ry="2.535"/>
            <ellipse cx="152.5" cy="17.744" rx="2.5" ry="2.535"/>
            <ellipse cx="152.5" cy="32.953" rx="2.5" ry="2.535"/>
            <ellipse cx="152.5" cy="48.163" rx="2.5" ry="2.535"/>
            <ellipse cx="152.5" cy="63.372" rx="2.5" ry="2.535"/>
            <ellipse cx="182.5" cy="2.535" rx="2.5" ry="2.535"/>
            <ellipse cx="182.5" cy="17.744" rx="2.5" ry="2.535"/>
            <ellipse cx="182.5" cy="32.953" rx="2.5" ry="2.535"/>
            <ellipse cx="182.5" cy="48.163" rx="2.5" ry="2.535"/>
            <ellipse cx="182.5" cy="63.372" rx="2.5" ry="2.535"/>
            <ellipse cx="212.5" cy="2.535" rx="2.5" ry="2.535"/>
            <ellipse cx="212.5" cy="17.744" rx="2.5" ry="2.535"/>
            <ellipse cx="212.5" cy="32.953" rx="2.5" ry="2.535"/>
            <ellipse cx="212.5" cy="48.163" rx="2.5" ry="2.535"/>
            <ellipse cx="212.5" cy="63.372" rx="2.5" ry="2.535"/>
            <ellipse cx="167.5" cy="2.535" rx="2.5" ry="2.535"/>
            <ellipse cx="167.5" cy="17.744" rx="2.5" ry="2.535"/>
            <ellipse cx="167.5" cy="32.953" rx="2.5" ry="2.535"/>
            <ellipse cx="167.5" cy="48.163" rx="2.5" ry="2.535"/>
            <ellipse cx="167.5" cy="63.372" rx="2.5" ry="2.535"/>
            <ellipse cx="197.5" cy="2.535" rx="2.5" ry="2.535"/>
            <ellipse cx="197.5" cy="17.744" rx="2.5" ry="2.535"/>
            <ellipse cx="197.5" cy="32.953" rx="2.5" ry="2.535"/>
            <ellipse cx="197.5" cy="48.163" rx="2.5" ry="2.535"/>
            <ellipse cx="197.5" cy="63.372" rx="2.5" ry="2.535"/>
            <ellipse cx="2.5" cy="2.535" rx="2.5" ry="2.535"/>
            <ellipse cx="2.5" cy="17.744" rx="2.5" ry="2.535"/>
            <ellipse cx="2.5" cy="32.953" rx="2.5" ry="2.535"/>
            <ellipse cx="2.5" cy="48.163" rx="2.5" ry="2.535"/>
            <ellipse cx="2.5" cy="63.372" rx="2.5" ry="2.535"/>
            <ellipse cx="32.5" cy="2.535" rx="2.5" ry="2.535"/>
            <ellipse cx="32.5" cy="17.744" rx="2.5" ry="2.535"/>
            <ellipse cx="32.5" cy="32.953" rx="2.5" ry="2.535"/>
            <ellipse cx="32.5" cy="48.163" rx="2.5" ry="2.535"/>
            <ellipse cx="32.5" cy="63.372" rx="2.5" ry="2.535"/>
            <ellipse cx="62.5" cy="2.535" rx="2.5" ry="2.535"/>
            <ellipse cx="62.5" cy="17.744" rx="2.5" ry="2.535"/>
            <ellipse cx="62.5" cy="32.953" rx="2.5" ry="2.535"/>
            <ellipse cx="62.5" cy="48.163" rx="2.5" ry="2.535"/>
            <ellipse cx="62.5" cy="63.372" rx="2.5" ry="2.535"/>
            <ellipse cx="17.5" cy="2.535" rx="2.5" ry="2.535"/>
            <ellipse cx="17.5" cy="17.744" rx="2.5" ry="2.535"/>
            <ellipse cx="17.5" cy="32.953" rx="2.5" ry="2.535"/>
            <ellipse cx="17.5" cy="48.163" rx="2.5" ry="2.535"/>
            <ellipse cx="17.5" cy="63.372" rx="2.5" ry="2.535"/>
            <ellipse cx="47.5" cy="2.535" rx="2.5" ry="2.535"/>
            <ellipse cx="47.5" cy="17.744" rx="2.5" ry="2.535"/>
            <ellipse cx="47.5" cy="32.953" rx="2.5" ry="2.535"/>
            <ellipse cx="47.5" cy="48.163" rx="2.5" ry="2.535"/>
            <ellipse cx="47.5" cy="63.372" rx="2.5" ry="2.535"/>
            <ellipse cx="152.5" cy="78.581" rx="2.5" ry="2.535"/>
            <ellipse cx="152.5" cy="93.791" rx="2.5" ry="2.535"/>
            <ellipse cx="152.5" cy="109" rx="2.5" ry="2.535"/>
            <ellipse cx="152.5" cy="124.209" rx="2.5" ry="2.535"/>
            <ellipse cx="152.5" cy="139.419" rx="2.5" ry="2.535"/>
            <ellipse cx="182.5" cy="78.581" rx="2.5" ry="2.535"/>
            <ellipse cx="182.5" cy="93.791" rx="2.5" ry="2.535"/>
            <ellipse cx="182.5" cy="109" rx="2.5" ry="2.535"/>
            <ellipse cx="182.5" cy="124.209" rx="2.5" ry="2.535"/>
            <ellipse cx="182.5" cy="139.419" rx="2.5" ry="2.535"/>
            <ellipse cx="212.5" cy="78.581" rx="2.5" ry="2.535"/>
            <ellipse cx="212.5" cy="93.791" rx="2.5" ry="2.535"/>
            <ellipse cx="212.5" cy="109" rx="2.5" ry="2.535"/>
            <ellipse cx="212.5" cy="124.209" rx="2.5" ry="2.535"/>
            <ellipse cx="212.5" cy="139.419" rx="2.5" ry="2.535"/>
            <ellipse cx="167.5" cy="78.581" rx="2.5" ry="2.535"/>
            <ellipse cx="167.5" cy="93.791" rx="2.5" ry="2.535"/>
            <ellipse cx="167.5" cy="109" rx="2.5" ry="2.535"/>
            <ellipse cx="167.5" cy="124.209" rx="2.5" ry="2.535"/>
            <ellipse cx="167.5" cy="139.419" rx="2.5" ry="2.535"/>
            <ellipse cx="197.5" cy="78.581" rx="2.5" ry="2.535"/>
            <ellipse cx="197.5" cy="93.791" rx="2.5" ry="2.535"/>
            <ellipse cx="197.5" cy="109" rx="2.5" ry="2.535"/>
            <ellipse cx="197.5" cy="124.209" rx="2.5" ry="2.535"/>
            <ellipse cx="197.5" cy="139.419" rx="2.5" ry="2.535"/>
            <ellipse cx="2.5" cy="78.581" rx="2.5" ry="2.535"/>
            <ellipse cx="2.5" cy="93.791" rx="2.5" ry="2.535"/>
            <ellipse cx="2.5" cy="109" rx="2.5" ry="2.535"/>
            <ellipse cx="2.5" cy="124.209" rx="2.5" ry="2.535"/>
            <ellipse cx="2.5" cy="139.419" rx="2.5" ry="2.535"/>
            <ellipse cx="32.5" cy="78.581" rx="2.5" ry="2.535"/>
            <ellipse cx="32.5" cy="93.791" rx="2.5" ry="2.535"/>
            <ellipse cx="32.5" cy="109" rx="2.5" ry="2.535"/>
            <ellipse cx="32.5" cy="124.209" rx="2.5" ry="2.535"/>
            <ellipse cx="32.5" cy="139.419" rx="2.5" ry="2.535"/>
            <ellipse cx="62.5" cy="78.581" rx="2.5" ry="2.535"/>
            <ellipse cx="62.5" cy="93.791" rx="2.5" ry="2.535"/>
            <ellipse cx="62.5" cy="109" rx="2.5" ry="2.535"/>
            <ellipse cx="62.5" cy="124.209" rx="2.5" ry="2.535"/>
            <ellipse cx="62.5" cy="139.419" rx="2.5" ry="2.535"/>
            <ellipse cx="17.5" cy="78.581" rx="2.5" ry="2.535"/>
            <ellipse cx="17.5" cy="93.791" rx="2.5" ry="2.535"/>
            <ellipse cx="17.5" cy="109" rx="2.5" ry="2.535"/>
            <ellipse cx="17.5" cy="124.209" rx="2.5" ry="2.535"/>
            <ellipse cx="17.5" cy="139.419" rx="2.5" ry="2.535"/>
            <ellipse cx="47.5" cy="78.581" rx="2.5" ry="2.535"/>
            <ellipse cx="47.5" cy="93.791" rx="2.5" ry="2.535"/>
            <ellipse cx="47.5" cy="109" rx="2.5" ry="2.535"/>
            <ellipse cx="47.5" cy="124.209" rx="2.5" ry="2.535"/>
            <ellipse cx="47.5" cy="139.419" rx="2.5" ry="2.535"/>
            <ellipse cx="152.5" cy="154.628" rx="2.5" ry="2.535"/>
            <ellipse cx="152.5" cy="169.837" rx="2.5" ry="2.535"/>
            <ellipse cx="152.5" cy="185.047" rx="2.5" ry="2.535"/>
            <ellipse cx="152.5" cy="200.256" rx="2.5" ry="2.535"/>
            <ellipse cx="152.5" cy="215.465" rx="2.5" ry="2.535"/>
            <ellipse cx="182.5" cy="154.628" rx="2.5" ry="2.535"/>
            <ellipse cx="182.5" cy="169.837" rx="2.5" ry="2.535"/>
            <ellipse cx="182.5" cy="185.047" rx="2.5" ry="2.535"/>
            <ellipse cx="182.5" cy="200.256" rx="2.5" ry="2.535"/>
            <ellipse cx="182.5" cy="215.465" rx="2.5" ry="2.535"/>
            <ellipse cx="212.5" cy="154.628" rx="2.5" ry="2.535"/>
            <ellipse cx="212.5" cy="169.837" rx="2.5" ry="2.535"/>
            <ellipse cx="212.5" cy="185.047" rx="2.5" ry="2.535"/>
            <ellipse cx="212.5" cy="200.256" rx="2.5" ry="2.535"/>
            <ellipse cx="212.5" cy="215.465" rx="2.5" ry="2.535"/>
            <ellipse cx="167.5" cy="154.628" rx="2.5" ry="2.535"/>
            <ellipse cx="167.5" cy="169.837" rx="2.5" ry="2.535"/>
            <ellipse cx="167.5" cy="185.047" rx="2.5" ry="2.535"/>
            <ellipse cx="167.5" cy="200.256" rx="2.5" ry="2.535"/>
            <ellipse cx="167.5" cy="215.465" rx="2.5" ry="2.535"/>
            <ellipse cx="197.5" cy="154.628" rx="2.5" ry="2.535"/>
            <ellipse cx="197.5" cy="169.837" rx="2.5" ry="2.535"/>
            <ellipse cx="197.5" cy="185.047" rx="2.5" ry="2.535"/>
            <ellipse cx="197.5" cy="200.256" rx="2.5" ry="2.535"/>
            <ellipse cx="197.5" cy="215.465" rx="2.5" ry="2.535"/>
            <ellipse cx="2.5" cy="154.628" rx="2.5" ry="2.535"/>
            <ellipse cx="2.5" cy="169.837" rx="2.5" ry="2.535"/>
            <ellipse cx="2.5" cy="185.047" rx="2.5" ry="2.535"/>
            <ellipse cx="2.5" cy="200.256" rx="2.5" ry="2.535"/>
            <ellipse cx="2.5" cy="215.465" rx="2.5" ry="2.535"/>
            <ellipse cx="32.5" cy="154.628" rx="2.5" ry="2.535"/>
            <ellipse cx="32.5" cy="169.837" rx="2.5" ry="2.535"/>
            <ellipse cx="32.5" cy="185.047" rx="2.5" ry="2.535"/>
            <ellipse cx="32.5" cy="200.256" rx="2.5" ry="2.535"/>
            <ellipse cx="32.5" cy="215.465" rx="2.5" ry="2.535"/>
            <ellipse cx="62.5" cy="154.628" rx="2.5" ry="2.535"/>
            <ellipse cx="62.5" cy="169.837" rx="2.5" ry="2.535"/>
            <ellipse cx="62.5" cy="185.047" rx="2.5" ry="2.535"/>
            <ellipse cx="62.5" cy="200.256" rx="2.5" ry="2.535"/>
            <ellipse cx="62.5" cy="215.465" rx="2.5" ry="2.535"/>
            <ellipse cx="17.5" cy="154.628" rx="2.5" ry="2.535"/>
            <ellipse cx="17.5" cy="169.837" rx="2.5" ry="2.535"/>
            <ellipse cx="17.5" cy="185.047" rx="2.5" ry="2.535"/>
            <ellipse cx="17.5" cy="200.256" rx="2.5" ry="2.535"/>
            <ellipse cx="17.5" cy="215.465" rx="2.5" ry="2.535"/>
            <ellipse cx="47.5" cy="154.628" rx="2.5" ry="2.535"/>
            <ellipse cx="47.5" cy="169.837" rx="2.5" ry="2.535"/>
            <ellipse cx="47.5" cy="185.047" rx="2.5" ry="2.535"/>
            <ellipse cx="47.5" cy="200.256" rx="2.5" ry="2.535"/>
            <ellipse cx="47.5" cy="215.465" rx="2.5" ry="2.535"/>
            <ellipse cx="92.5" cy="78.581" rx="2.5" ry="2.535"/>
            <ellipse cx="92.5" cy="93.791" rx="2.5" ry="2.535"/>
            <ellipse cx="92.5" cy="109" rx="2.5" ry="2.535"/>
            <ellipse cx="92.5" cy="124.209" rx="2.5" ry="2.535"/>
            <ellipse cx="92.5" cy="139.419" rx="2.5" ry="2.535"/>
            <ellipse cx="122.5" cy="78.581" rx="2.5" ry="2.535"/>
            <ellipse cx="122.5" cy="93.791" rx="2.5" ry="2.535"/>
            <ellipse cx="122.5" cy="109" rx="2.5" ry="2.535"/>
            <ellipse cx="122.5" cy="124.209" rx="2.5" ry="2.535"/>
            <ellipse cx="122.5" cy="139.419" rx="2.5" ry="2.535"/>
            <ellipse cx="77.5" cy="78.581" rx="2.5" ry="2.535"/>
            <ellipse cx="77.5" cy="93.791" rx="2.5" ry="2.535"/>
            <ellipse cx="77.5" cy="109" rx="2.5" ry="2.535"/>
            <ellipse cx="77.5" cy="124.209" rx="2.5" ry="2.535"/>
            <ellipse cx="77.5" cy="139.419" rx="2.5" ry="2.535"/>
            <ellipse cx="107.5" cy="78.581" rx="2.5" ry="2.535"/>
            <ellipse cx="107.5" cy="93.791" rx="2.5" ry="2.535"/>
            <ellipse cx="107.5" cy="109" rx="2.5" ry="2.535"/>
            <ellipse cx="107.5" cy="124.209" rx="2.5" ry="2.535"/>
            <ellipse cx="107.5" cy="139.419" rx="2.5" ry="2.535"/>
            <ellipse cx="137.5" cy="78.581" rx="2.5" ry="2.535"/>
            <ellipse cx="137.5" cy="93.791" rx="2.5" ry="2.535"/>
            <ellipse cx="137.5" cy="109" rx="2.5" ry="2.535"/>
            <ellipse cx="137.5" cy="124.209" rx="2.5" ry="2.535"/>
            <ellipse cx="137.5" cy="139.419" rx="2.5" ry="2.535"/>
            <ellipse cx="92.5" cy="154.628" rx="2.5" ry="2.535"/>
            <ellipse cx="92.5" cy="169.837" rx="2.5" ry="2.535"/>
            <ellipse cx="92.5" cy="185.047" rx="2.5" ry="2.535"/>
            <ellipse cx="92.5" cy="200.256" rx="2.5" ry="2.535"/>
            <ellipse cx="92.5" cy="215.465" rx="2.5" ry="2.535"/>
            <ellipse cx="122.5" cy="154.628" rx="2.5" ry="2.535"/>
            <ellipse cx="122.5" cy="169.837" rx="2.5" ry="2.535"/>
            <ellipse cx="122.5" cy="185.047" rx="2.5" ry="2.535"/>
            <ellipse cx="122.5" cy="200.256" rx="2.5" ry="2.535"/>
            <ellipse cx="122.5" cy="215.465" rx="2.5" ry="2.535"/>
            <ellipse cx="77.5" cy="154.628" rx="2.5" ry="2.535"/>
            <ellipse cx="77.5" cy="169.837" rx="2.5" ry="2.535"/>
            <ellipse cx="77.5" cy="185.047" rx="2.5" ry="2.535"/>
            <ellipse cx="77.5" cy="200.256" rx="2.5" ry="2.535"/>
            <ellipse cx="77.5" cy="215.465" rx="2.5" ry="2.535"/>
            <ellipse cx="107.5" cy="154.628" rx="2.5" ry="2.535"/>
            <ellipse cx="107.5" cy="169.837" rx="2.5" ry="2.535"/>
            <ellipse cx="107.5" cy="185.047" rx="2.5" ry="2.535"/>
            <ellipse cx="107.5" cy="200.256" rx="2.5" ry="2.535"/>
            <ellipse cx="107.5" cy="215.465" rx="2.5" ry="2.535"/>
            <ellipse cx="137.5" cy="154.628" rx="2.5" ry="2.535"/>
            <ellipse cx="137.5" cy="169.837" rx="2.5" ry="2.535"/>
            <ellipse cx="137.5" cy="185.047" rx="2.5" ry="2.535"/>
            <ellipse cx="137.5" cy="200.256" rx="2.5" ry="2.535"/>
            <ellipse cx="137.5" cy="215.465" rx="2.5" ry="2.535"/>
        </g>
        <g transform="translate(896 181)" fill="#8CF0DE">
            <circle cx="152.5" cy="2.5" r="2.5"/>
            <circle cx="152.5" cy="17.5" r="2.5"/>
            <circle cx="152.5" cy="32.5" r="2.5"/>
            <circle cx="182.5" cy="2.5" r="2.5"/>
            <circle cx="182.5" cy="17.5" r="2.5"/>
            <circle cx="182.5" cy="32.5" r="2.5"/>
            <circle cx="212.5" cy="2.5" r="2.5"/>
            <circle cx="212.5" cy="17.5" r="2.5"/>
            <circle cx="212.5" cy="32.5" r="2.5"/>
            <circle cx="167.5" cy="2.5" r="2.5"/>
            <circle cx="167.5" cy="17.5" r="2.5"/>
            <circle cx="167.5" cy="32.5" r="2.5"/>
            <circle cx="197.5" cy="2.5" r="2.5"/>
            <circle cx="197.5" cy="17.5" r="2.5"/>
            <circle cx="197.5" cy="32.5" r="2.5"/>
            <circle cx="2.5" cy="2.5" r="2.5"/>
            <circle cx="2.5" cy="17.5" r="2.5"/>
            <circle cx="2.5" cy="32.5" r="2.5"/>
            <circle cx="32.5" cy="2.5" r="2.5"/>
            <circle cx="32.5" cy="17.5" r="2.5"/>
            <circle cx="32.5" cy="32.5" r="2.5"/>
            <circle cx="62.5" cy="2.5" r="2.5"/>
            <circle cx="62.5" cy="17.5" r="2.5"/>
            <circle cx="62.5" cy="32.5" r="2.5"/>
            <circle cx="17.5" cy="2.5" r="2.5"/>
            <circle cx="17.5" cy="17.5" r="2.5"/>
            <circle cx="17.5" cy="32.5" r="2.5"/>
            <circle cx="47.5" cy="2.5" r="2.5"/>
            <circle cx="47.5" cy="17.5" r="2.5"/>
            <circle cx="47.5" cy="32.5" r="2.5"/>
            <circle cx="152.5" cy="47.5" r="2.5"/>
            <circle cx="152.5" cy="62.5" r="2.5"/>
            <circle cx="152.5" cy="77.5" r="2.5"/>
            <circle cx="152.5" cy="92.5" r="2.5"/>
            <circle cx="152.5" cy="107.5" r="2.5"/>
            <circle cx="182.5" cy="47.5" r="2.5"/>
            <circle cx="182.5" cy="62.5" r="2.5"/>
            <circle cx="182.5" cy="77.5" r="2.5"/>
            <circle cx="182.5" cy="92.5" r="2.5"/>
            <circle cx="182.5" cy="107.5" r="2.5"/>
            <circle cx="212.5" cy="47.5" r="2.5"/>
            <circle cx="212.5" cy="62.5" r="2.5"/>
            <circle cx="212.5" cy="77.5" r="2.5"/>
            <circle cx="212.5" cy="92.5" r="2.5"/>
            <circle cx="212.5" cy="107.5" r="2.5"/>
            <circle cx="167.5" cy="47.5" r="2.5"/>
            <circle cx="167.5" cy="62.5" r="2.5"/>
            <circle cx="167.5" cy="77.5" r="2.5"/>
            <circle cx="167.5" cy="92.5" r="2.5"/>
            <circle cx="167.5" cy="107.5" r="2.5"/>
            <circle cx="197.5" cy="47.5" r="2.5"/>
            <circle cx="197.5" cy="62.5" r="2.5"/>
            <circle cx="197.5" cy="77.5" r="2.5"/>
            <circle cx="197.5" cy="92.5" r="2.5"/>
            <circle cx="197.5" cy="107.5" r="2.5"/>
            <circle cx="2.5" cy="47.5" r="2.5"/>
            <circle cx="2.5" cy="62.5" r="2.5"/>
            <circle cx="2.5" cy="77.5" r="2.5"/>
            <circle cx="2.5" cy="92.5" r="2.5"/>
            <circle cx="2.5" cy="107.5" r="2.5"/>
            <circle cx="32.5" cy="47.5" r="2.5"/>
            <circle cx="32.5" cy="62.5" r="2.5"/>
            <circle cx="32.5" cy="77.5" r="2.5"/>
            <circle cx="32.5" cy="92.5" r="2.5"/>
            <circle cx="32.5" cy="107.5" r="2.5"/>
            <circle cx="62.5" cy="47.5" r="2.5"/>
            <circle cx="62.5" cy="62.5" r="2.5"/>
            <circle cx="62.5" cy="77.5" r="2.5"/>
            <circle cx="62.5" cy="92.5" r="2.5"/>
            <circle cx="62.5" cy="107.5" r="2.5"/>
            <circle cx="17.5" cy="47.5" r="2.5"/>
            <circle cx="17.5" cy="62.5" r="2.5"/>
            <circle cx="17.5" cy="77.5" r="2.5"/>
            <circle cx="17.5" cy="92.5" r="2.5"/>
            <circle cx="17.5" cy="107.5" r="2.5"/>
            <circle cx="47.5" cy="47.5" r="2.5"/>
            <circle cx="47.5" cy="62.5" r="2.5"/>
            <circle cx="47.5" cy="77.5" r="2.5"/>
            <circle cx="47.5" cy="92.5" r="2.5"/>
            <circle cx="47.5" cy="107.5" r="2.5"/>
            <circle cx="92.5" cy="2.5" r="2.5"/>
            <circle cx="92.5" cy="17.5" r="2.5"/>
            <circle cx="92.5" cy="32.5" r="2.5"/>
            <circle cx="122.5" cy="2.5" r="2.5"/>
            <circle cx="122.5" cy="17.5" r="2.5"/>
            <circle cx="122.5" cy="32.5" r="2.5"/>
            <circle cx="77.5" cy="2.5" r="2.5"/>
            <circle cx="77.5" cy="17.5" r="2.5"/>
            <circle cx="77.5" cy="32.5" r="2.5"/>
            <circle cx="107.5" cy="2.5" r="2.5"/>
            <circle cx="107.5" cy="17.5" r="2.5"/>
            <circle cx="107.5" cy="32.5" r="2.5"/>
            <circle cx="137.5" cy="2.5" r="2.5"/>
            <circle cx="137.5" cy="17.5" r="2.5"/>
            <circle cx="137.5" cy="32.5" r="2.5"/>
            <circle cx="92.5" cy="47.5" r="2.5"/>
            <circle cx="92.5" cy="62.5" r="2.5"/>
            <circle cx="92.5" cy="77.5" r="2.5"/>
            <circle cx="92.5" cy="92.5" r="2.5"/>
            <circle cx="92.5" cy="107.5" r="2.5"/>
            <circle cx="122.5" cy="47.5" r="2.5"/>
            <circle cx="122.5" cy="62.5" r="2.5"/>
            <circle cx="122.5" cy="77.5" r="2.5"/>
            <circle cx="122.5" cy="92.5" r="2.5"/>
            <circle cx="122.5" cy="107.5" r="2.5"/>
            <circle cx="77.5" cy="47.5" r="2.5"/>
            <circle cx="77.5" cy="62.5" r="2.5"/>
            <circle cx="77.5" cy="77.5" r="2.5"/>
            <circle cx="77.5" cy="92.5" r="2.5"/>
            <circle cx="77.5" cy="107.5" r="2.5"/>
            <circle cx="107.5" cy="47.5" r="2.5"/>
            <circle cx="107.5" cy="62.5" r="2.5"/>
            <circle cx="107.5" cy="77.5" r="2.5"/>
            <circle cx="107.5" cy="92.5" r="2.5"/>
            <circle cx="107.5" cy="107.5" r="2.5"/>
            <circle cx="137.5" cy="47.5" r="2.5"/>
            <circle cx="137.5" cy="62.5" r="2.5"/>
            <circle cx="137.5" cy="77.5" r="2.5"/>
            <circle cx="137.5" cy="92.5" r="2.5"/>
            <circle cx="137.5" cy="107.5" r="2.5"/>
        </g>
        <g>
            <mask id="b" fill="#fff">
                <use xlink:href="#a"/>
            </mask>
            <g mask="url(#b)">
                <g transform="translate(104 96)">
                    <mask id="e" fill="#fff">
                        <use xlink:href="#c"/>
                    </mask>
                    <use fill="#000" filter="url(#d)" xlink:href="#c"/>
                    <use fill="#111A3D" xlink:href="#c"/>
                    <path fill="#090C2A" mask="url(#e)" transform="rotate(-180 14.5 186)" d="M0 1h29v370H0z"/>
                    <path d="M-12 83h52a3 3 0 0 1 0 6h-52a3 3 0 0 1 0-6z" fill="#3F4E97" mask="url(#e)" transform="rotate(-90 14 86)"/>
                    <text mask="url(#e)" font-family="Menlo-Regular, Menlo" font-size="14.824">
                                    <tspan x="70" y="95" fill="#88F7B7">up login --profile=</tspan>
                                    <tspan x="239.571" y="95" fill="#8FACFF">&lt;CHOOSE </tspan>
                                    <tspan x="70" y="112" fill="#8FACFF">PROFILE NAME&gt;</tspan>
                                    <tspan x="186.022" y="112" fill="#88F7B7"> --</tspan>
                                    <tspan x="70" y="129" fill="#88F7B7">account=</tspan>
                                    <tspan x="141.398" y="129" fill="#8FACFF">&lt;USERNAME&gt;</tspan>
                                    <tspan x="230.646" y="129" fill="#88F7B7"> --</tspan>
                                    <tspan x="70" y="146" fill="#88F7B7">username=</tspan>
                                    <tspan x="150.323" y="146" fill="#8FACFF">&lt;YOUR USERNAME&gt;</tspan>
                                    <tspan x="284.195" y="146" fill="#88F7B7"> --</tspan>
                                    <tspan x="70" y="163" fill="#88F7B7">password=</tspan>
                                    <tspan x="150.323" y="163" fill="#8FACFF">&lt;YOUR PASSWORD&gt;</tspan>
                                    
                                    
                                    <tspan x="70" y="197" fill="#88F7B7">up controlplane attach $NAME --</tspan>
                                    <tspan x="70" y="214" fill="#88F7B7">profile=</tspan>
                                    <tspan x="141.398" y="214" fill="#8FACFF">&lt;PROFILE NAME&gt;</tspan>
                                    <tspan x="266.346" y="214" fill="#88F7B7"> | up uxp </tspan>
                                    <tspan x="70" y="231" fill="#88F7B7">connect -</tspan>
                                </text>
                </g>
                <g transform="translate(425.001 62)">
                    <mask id="h" fill="#fff">
                        <use xlink:href="#f"/>
                    </mask>
                    <use fill="#000" filter="url(#g)" xlink:href="#f"/>
                    <use fill="#FFF" xlink:href="#f"/>
                    <g mask="url(#h)">
                        <path fill="#263B67" d="M0 0h49.356v715.325H0z"/>
                        <path fill="#DCE0E6" d="M49.356 0h-.448v715.325h.448z"/>
                        <text font-family="'Avenir-Roman', 'Arial', sans-serif" font-size="6.72" fill="#505A72" transform="translate(2.278 70.56)">
                                                <tspan x=".419" y="25.825">Control Planes</tspan>
                                            </text>
                        <g stroke="#FFF" stroke-linecap="round" stroke-linejoin="round" stroke-width="1.12">
                            <path d="m24.516 71.12-5.998 2.624 5.998 2.624 5.997-2.624zM18.518 80.64l5.998 2.624 5.997-2.624M18.518 77.28l5.998 2.624 5.997-2.624"/>
                        </g>
                        <text font-family="'Avenir-Roman', 'Arial', sans-serif" font-size="6.72" fill="#505A72" transform="translate(2.278 114.8)">
                                                <tspan x="8.637" y="25.825">Consoles</tspan>
                                            </text>
                        <g transform="translate(17.958 114.8)" stroke="#A6AEC1" stroke-linecap="round" stroke-linejoin="round" stroke-width="1.12">
                            <rect x=".84" y=".84" width="11.76" height="11.76" rx="1.12"/>
                            <path d="M.84 5.04H12.6M5.04 12.6V5.04"/>
                        </g>
                        <text font-family="'Avenir-Roman', 'Arial', sans-serif" font-size="6.72" fill="#505A72" transform="translate(2.278 159.04)">
                                                <tspan x="3.725" y="25.825">Repositories</tspan>
                                            </text>
                        <g stroke="#A6AEC1" stroke-width="1.12">
                            <path d="M21.318 168.28h8.4v3.36h-8.4a1.68 1.68 0 1 1 0-3.36z"/>
                            <path d="M21.213 159.88h8.505v11.76h-8.505c-.87 0-1.575-.658-1.575-1.47v-8.82c0-.812.705-1.47 1.575-1.47z" stroke-linecap="round" stroke-linejoin="round"/>
                        </g>
                        <text font-family="'Avenir-Roman', 'Arial', sans-serif" font-size="6.72" fill="#505A72" transform="translate(2.278 203.28)">
                                                <tspan x="9.205" y="25.825">All Users</tspan>
                                            </text>
                        <g transform="translate(18.518 204.4)" stroke="#A6AEC1" stroke-linecap="round" stroke-linejoin="round" stroke-width="1.12">
                            <path d="M8.145 11.404V9.265A2.037 2.037 0 0 0 6.11 7.23H2.036A2.036 2.036 0 0 0 0 9.265v2.139M12.32 11.404V9.265c0-.928-.629-1.738-1.527-1.97"/>
                            <circle cx="4.111" cy="2.545" r="2.545"/>
                            <path d="M9.125.083a2.545 2.545 0 0 1 0 4.932"/>
                        </g>
                        <g>
                            <text font-family="'Avenir-Roman', 'Arial', sans-serif" font-size="6.72" fill="#505A72" transform="translate(2.278 247.52)">
                                                <tspan x="12.938" y="25.825">Teams</tspan>
                                            </text>
                            <g stroke="#A6AEC1" stroke-linecap="round" stroke-linejoin="round" stroke-width="1.12">
                                <path d="M24.771 248.64a5.693 5.693 0 1 1 0 11.387 5.693 5.693 0 0 1 0-11.387z"/>
                                <path d="M28.167 250.32a5.585 5.585 0 0 0-1.809 4.122c0 1.585.658 3.016 1.716 4.034M21.426 258.282a5.582 5.582 0 0 0 1.608-3.928 5.584 5.584 0 0 0-1.716-4.034"/>
                            </g>
                        </g>
                        <g>
                            <text font-family="'Avenir-Roman', 'Arial', sans-serif" font-size="6.72" fill="#505A72" transform="translate(2.278 291.76)">
                                                <tspan x="11.688" y="25.825">Robots</tspan>
                                            </text>
                            <g transform="translate(18.518 292.32)" stroke="#A6AEC1" stroke-linecap="round" stroke-linejoin="round" stroke-width="1.12">
                                <rect width="12.32" height="12.32" rx="3.36"/>
                                <path d="M6.253 3.92a2.333 2.333 0 1 1 0 4.667 2.333 2.333 0 0 1 0-4.667z"/>
                            </g>
                        </g>
                        <g transform="translate(9.82 16.8)">
                            <rect fill="#6553C0" width="31.36" height="31.36" rx="5.6"/>
                            <path d="m15.448 14.09-.03 3.05c0 2.933-2.824 3.528-3.807 3.528-2.044 0-3.77-1.245-3.77-3.527v-3.224c0-.714.412-1.141 1.079-1.141.681 0 1.093.427 1.093 1.14v2.98c0 1.157.584 1.79 1.598 1.79 1.078 0 1.666-.538 1.666-1.79V14.09c0-.713.412-1.14 1.094-1.14.665 0 1.077.427 1.077 1.14" fill="#FFF"/>
                            <g transform="translate(16.938 12.68)">
                                <mask id="j" fill="#fff">
                                    <use xlink:href="#i"/>
                                </mask>
                                <path d="M5.99 3.993c0-1.204-.777-2.012-1.886-2.012-1.125 0-1.933.84-1.933 2.012 0 1.173.808 2.013 1.933 2.013 1.109 0 1.886-.824 1.886-2.013m2.218 0c0 2.425-1.458 3.994-3.66 3.994-.998 0-1.807-.349-2.346-.951h-.031v2.646c0 .713-.413 1.157-1.094 1.157C.412 10.84 0 10.395 0 9.682V1.236C0 .522.412.096 1.077.096c.586 0 .983.316 1.078.87h.031C2.726.349 3.534 0 4.548 0c2.202 0 3.66 1.569 3.66 3.993" fill="#FFF" mask="url(#j)"/>
                            </g>
                            <g transform="translate(7.28 7.84)">
                                <mask id="l" fill="#fff">
                                    <use xlink:href="#k"/>
                                </mask>
                                <path d="M3.289 1.645a1.644 1.644 0 1 1-3.289 0 1.644 1.644 0 0 1 3.289 0" fill="#FFF" mask="url(#l)"/>
                            </g>
                        </g>
                    </g>
                </g>
                <rect x=".28" y=".28" width="454.037" height="68.531" rx="2.8" fill="#FFF" stroke="#DCDCDE" stroke-width=".56" transform="translate(506.309 145.636)"/>
                <g font-family="'Avenir-Roman', 'Arial', sans-serif">
                    <text font-size="11.2" fill="#505A72" transform="translate(528.709 164.116)">
                                            <tspan x="0" y="27.8">UXP Instance</tspan>
                                        </text>
                    <text font-size="9.8" fill="#929394" transform="translate(528.709 164.116)">
                                            <tspan x="0" y="10">Name</tspan>
                                        </text>
                </g>
                <g font-family="'Avenir-Roman', 'Arial', sans-serif">
                    <text font-size="11.2" fill="#505A72" transform="translate(808.709 164.676)">
                                            <tspan x="0" y="27.8">Self-Hosted</tspan>
                                        </text>
                    <text font-size="9.8" fill="#929394" transform="translate(808.709 164.676)">
                                            <tspan x="0" y="10">Server</tspan>
                                        </text>
                </g>
                <text font-family="'Avenir-Roman', 'Arial', sans-serif" font-size="9.408" fill="#929394" transform="translate(681.394 164.676)">
                                            <tspan x="0" y="9">Status</tspan>
                                        </text>
                <path stroke="#505A72" stroke-width=".672" stroke-linecap="square" stroke-dasharray="0.6719999999999999,2.016" d="M681.747 196.406h40.294"/>
                <text font-family="'Avenir-Roman', 'Arial', sans-serif" font-size="10.752" fill="#505A72" transform="translate(681.394 180.906)">
                                                    <tspan x="11" y="11">Healthy</tspan>
                                                </text>
                <path d="M684.394 186.046a3 3 0 0 1 3 3v.72a3 3 0 1 1-6 0v-.72a3 3 0 0 1 3-3z" fill="#3DC47E"/>
                <g>
                    <rect x=".28" y=".28" width="454.037" height="68.531" rx="2.8" fill="#FFF" stroke="#DCDCDE" stroke-width=".56" transform="translate(506.309 236.545)"/>
                    <g font-family="'Avenir-Roman', 'Arial', sans-serif">
                        <text font-size="11.2" fill="#505A72" transform="translate(528.709 255.025)">
                                            <tspan x="0" y="27.8">prod-crossplane-east</tspan>
                                        </text>
                        <text font-size="9.8" fill="#929394" transform="translate(528.709 255.025)">
                                            <tspan x="0" y="10">Name</tspan>
                                        </text>
                    </g>
                    <g font-family="'Avenir-Roman', 'Arial', sans-serif">
                        <text font-size="11.2" fill="#505A72" transform="translate(808.709 255.585)">
                                            <tspan x="0" y="27.8">Hosted</tspan>
                                        </text>
                        <text font-size="9.8" fill="#929394" transform="translate(808.709 255.585)">
                                            <tspan x="0" y="10">Server</tspan>
                                        </text>
                    </g>
                    <text font-family="'Avenir-Roman', 'Arial', sans-serif" font-size="9.408" fill="#929394" transform="translate(681.394 255.585)">
                                            <tspan x="0" y="9">Status</tspan>
                                        </text>
                    <path stroke="#505A72" stroke-width=".672" stroke-linecap="square" stroke-dasharray="0.6719999999999999,2.016" d="M681.747 287.315h40.294"/>
                    <text font-family="'Avenir-Roman', 'Arial', sans-serif" font-size="10.752" fill="#505A72" transform="translate(681.394 271.815)">
                                                    <tspan x="11" y="11">Healthy</tspan>
                                                </text>
                    <path d="M684.394 276.955a3 3 0 0 1 3 3v.72a3 3 0 1 1-6 0v-.72a3 3 0 0 1 3-3z" fill="#3DC47E"/>
                </g>
                <g stroke="#929394" stroke-linecap="round" stroke-linejoin="round" stroke-width="1.68">
                    <g transform="translate(925.143 178.428)">
                        <circle cx="8.82" cy="1.764" r="1.764"/>
                        <circle cx="15.876" cy="1.764" r="1.764"/>
                        <circle cx="1.764" cy="1.764" r="1.764"/>
                    </g>
                </g>
                <g stroke="#929394" stroke-linecap="round" stroke-linejoin="round" stroke-width="1.68">
                    <g transform="translate(925.143 268.308)">
                        <circle cx="8.82" cy="1.764" r="1.764"/>
                        <circle cx="15.876" cy="1.764" r="1.764"/>
                        <circle cx="1.764" cy="1.764" r="1.764"/>
                    </g>
                </g>
                <g>
                    <rect x=".28" y=".28" width="454.037" height="68.531" rx="2.8" fill="#FFF" stroke="#DCDCDE" stroke-width=".56" transform="translate(506.309 327.455)"/>
                    <g font-family="'Avenir-Roman', 'Arial', sans-serif">
                        <text font-size="11.2" fill="#505A72" transform="translate(528.709 345.935)">
                                            <tspan x="0" y="27.8">test-crossplane-west</tspan>
                                        </text>
                        <text font-size="9.8" fill="#929394" transform="translate(528.709 345.935)">
                                            <tspan x="0" y="10">Name</tspan>
                                        </text>
                    </g>
                    <g font-family="'Avenir-Roman', 'Arial', sans-serif">
                        <text font-size="11.2" fill="#505A72" transform="translate(808.709 346.495)">
                                            <tspan x="0" y="27.8">Connected, Self-hosted</tspan>
                                        </text>
                        <text font-size="9.8" fill="#929394" transform="translate(808.709 346.495)">
                                            <tspan x="0" y="10">Server</tspan>
                                        </text>
                    </g>
                    <text font-family="'Avenir-Roman', 'Arial', sans-serif" font-size="9.408" fill="#929394" transform="translate(681.394 346.495)">
                                            <tspan x="0" y="9">Status</tspan>
                                        </text>
                    <path stroke="#505A72" stroke-width=".7" stroke-linecap="square" stroke-dasharray="0.6720000267028808,2.015999913215637" d="M681.85 378.224h52.087"/>
                    <text font-family="'Avenir-Roman', 'Arial', sans-serif" font-size="10.752" fill="#505A72" transform="translate(681.394 362.724)">
                                                    <tspan x="10" y="11">Unhealt</tspan>
                                                    <tspan x="10" y="27.8">hy</tspan>
                                                </text>
                    <path d="M683.894 367.864a2.5 2.5 0 0 1 2.5 2.5v1.72a2.5 2.5 0 0 1-5 0v-1.72a2.5 2.5 0 0 1 2.5-2.5z" fill="#ED2929"/>
                </g>
                <g>
                    <text font-family="'Avenir-Black', 'Arial Black', sans-serif" font-size="18.9" font-weight="700" fill="#505A72" transform="translate(505.27 96.348)">
                                        <tspan x="0" y="19">Control Planes</tspan>
                                    </text>
                    <g transform="translate(831.27 96.348)">
                        <rect fill="#6553C0" width="130" height="28" rx="14"/>
                        <text font-family="'Avenir-Roman', 'Arial', sans-serif" font-size="10.584" fill="#FFF">
                                            <tspan x="15.676" y="17">Create Control Plane</tspan>
                                        </text>
                    </g>
                </g>
                <g transform="translate(175 140)" stroke-width="2">
                    <rect stroke="#88F7B7" x="1" y="1" width="24" height="24" rx="5"/>
                    <g stroke="#8FACFF" stroke-linecap="round">
                        <path d="M13.1 17v3M9.6 16.5h7M16.6 16v-5.898C16.6 8.389 15.033 7 13.1 7s-3.5 1.389-3.5 3.102V16"/>
                    </g>
                </g>
            </g>
        </g>
    </g>
</svg>
