<svg xmlns="http://www.w3.org/2000/svg" width="24" height="20" viewBox="0 0 24 20">
    <g fill="none" fill-rule="evenodd">
        <g fill="#FFF">
            <g>
                <g>
                    <path d="M59 15.309c-.883.391-1.831.656-2.828.775 1.017-.61 1.797-1.574 2.165-2.724-.951.565-2.006.974-3.127 1.195-.898-.957-2.178-1.555-3.594-1.555-2.72 0-4.923 2.204-4.923 4.923 0 .386.042.761.127 1.122-4.092-.206-7.72-2.165-10.149-5.144-.425.727-.667 1.573-.667 2.476 0 1.707.87 3.214 2.191 4.097-.807-.026-1.567-.247-2.23-.616l-.001.061c0 2.386 1.697 4.375 3.95 4.828-.413.112-.848.173-1.297.173-.319 0-.627-.032-.927-.089.627 1.956 2.445 3.379 4.6 3.419-1.685 1.32-3.809 2.107-6.115 2.107-.398 0-.79-.023-1.175-.068 2.179 1.396 4.767 2.211 7.547 2.211 9.058 0 14.01-7.5 14.01-14.006 0-.214-.005-.425-.014-.637.962-.694 1.797-1.561 2.457-2.548" transform="translate(-204 -3817) translate(-1 3577) translate(170 227)"/>
                </g>
            </g>
        </g>
    </g>
</svg>
