<svg width="288" height="99" viewBox="0 0 288 99" xmlns="http://www.w3.org/2000/svg" xmlns:xlink="http://www.w3.org/1999/xlink">
    <defs>
        <filter x="-8.4%" y="-28.9%" width="116.8%" height="174.9%" filterUnits="objectBoundingBox" id="b">
            <feOffset dy="5" in="SourceAlpha" result="shadowOffsetOuter1"/>
            <feGaussianBlur stdDeviation="6.5" in="shadowOffsetOuter1" result="shadowBlurOuter1"/>
            <feColorMatrix values="0 0 0 0 0.192156863 0 0 0 0 0.250980392 0 0 0 0 0.466666667 0 0 0 0.365903628 0" in="shadowBlurOuter1"/>
        </filter>
        <rect id="a" x="0" y="0" width="262" height="58.727" rx="3.705"/>
    </defs>
    <g fill="none" fill-rule="evenodd">
        <g opacity=".277" transform="translate(49.521 64.61)" fill="#6C72FC">
            <circle cx="41.02" cy="1.323" r="1.323"/>
            <circle cx="41.02" cy="9.259" r="1.323"/>
            <circle cx="41.02" cy="17.195" r="1.323"/>
            <circle cx="41.02" cy="25.131" r="1.323"/>
            <circle cx="41.02" cy="33.067" r="1.323"/>
            <circle cx="56.899" cy="1.323" r="1.323"/>
            <circle cx="56.899" cy="9.259" r="1.323"/>
            <circle cx="56.899" cy="17.195" r="1.323"/>
            <circle cx="56.899" cy="25.131" r="1.323"/>
            <circle cx="56.899" cy="33.067" r="1.323"/>
            <circle cx="72.778" cy="1.323" r="1.323"/>
            <circle cx="72.778" cy="9.259" r="1.323"/>
            <circle cx="72.778" cy="17.195" r="1.323"/>
            <circle cx="72.778" cy="25.131" r="1.323"/>
            <circle cx="72.778" cy="33.067" r="1.323"/>
            <circle cx="48.96" cy="1.323" r="1.323"/>
            <circle cx="48.96" cy="9.259" r="1.323"/>
            <circle cx="48.96" cy="17.195" r="1.323"/>
            <circle cx="48.96" cy="25.131" r="1.323"/>
            <circle cx="48.96" cy="33.067" r="1.323"/>
            <circle cx="64.838" cy="1.323" r="1.323"/>
            <circle cx="64.838" cy="9.259" r="1.323"/>
            <circle cx="64.838" cy="17.195" r="1.323"/>
            <circle cx="64.838" cy="25.131" r="1.323"/>
            <circle cx="64.838" cy="33.067" r="1.323"/>
            <circle cx="80.717" cy="1.323" r="1.323"/>
            <circle cx="80.717" cy="9.259" r="1.323"/>
            <circle cx="80.717" cy="17.195" r="1.323"/>
            <circle cx="80.717" cy="25.131" r="1.323"/>
            <circle cx="80.717" cy="33.067" r="1.323"/>
            <circle cx="96.596" cy="1.323" r="1.323"/>
            <circle cx="96.596" cy="9.259" r="1.323"/>
            <circle cx="96.596" cy="17.195" r="1.323"/>
            <circle cx="96.596" cy="25.131" r="1.323"/>
            <circle cx="96.596" cy="33.067" r="1.323"/>
            <circle cx="112.475" cy="1.323" r="1.323"/>
            <circle cx="112.475" cy="9.259" r="1.323"/>
            <circle cx="112.475" cy="17.195" r="1.323"/>
            <circle cx="112.475" cy="25.131" r="1.323"/>
            <circle cx="112.475" cy="33.067" r="1.323"/>
            <circle cx="88.657" cy="1.323" r="1.323"/>
            <circle cx="88.657" cy="9.259" r="1.323"/>
            <circle cx="88.657" cy="17.195" r="1.323"/>
            <circle cx="88.657" cy="25.131" r="1.323"/>
            <circle cx="88.657" cy="33.067" r="1.323"/>
            <circle cx="104.535" cy="1.323" r="1.323"/>
            <circle cx="104.535" cy="9.259" r="1.323"/>
            <circle cx="104.535" cy="17.195" r="1.323"/>
            <circle cx="104.535" cy="25.131" r="1.323"/>
            <circle cx="104.535" cy="33.067" r="1.323"/>
            <circle cx="1.323" cy="1.323" r="1.323"/>
            <circle cx="1.323" cy="9.259" r="1.323"/>
            <circle cx="1.323" cy="17.195" r="1.323"/>
            <circle cx="1.323" cy="25.131" r="1.323"/>
            <circle cx="1.323" cy="33.067" r="1.323"/>
            <circle cx="17.202" cy="1.323" r="1.323"/>
            <circle cx="17.202" cy="9.259" r="1.323"/>
            <circle cx="17.202" cy="17.195" r="1.323"/>
            <circle cx="17.202" cy="25.131" r="1.323"/>
            <circle cx="17.202" cy="33.067" r="1.323"/>
            <circle cx="33.081" cy="1.323" r="1.323"/>
            <circle cx="33.081" cy="9.259" r="1.323"/>
            <circle cx="33.081" cy="17.195" r="1.323"/>
            <circle cx="33.081" cy="25.131" r="1.323"/>
            <circle cx="33.081" cy="33.067" r="1.323"/>
            <circle cx="9.263" cy="1.323" r="1.323"/>
            <circle cx="9.263" cy="9.259" r="1.323"/>
            <circle cx="9.263" cy="17.195" r="1.323"/>
            <circle cx="9.263" cy="25.131" r="1.323"/>
            <circle cx="9.263" cy="33.067" r="1.323"/>
            <circle cx="25.141" cy="1.323" r="1.323"/>
            <circle cx="25.141" cy="9.259" r="1.323"/>
            <circle cx="25.141" cy="17.195" r="1.323"/>
            <circle cx="25.141" cy="25.131" r="1.323"/>
            <circle cx="25.141" cy="33.067" r="1.323"/>
        </g>
        <g transform="translate(13 8)">
            <mask id="c" fill="#fff">
                <use xlink:href="#a"/>
            </mask>
            <use fill="#000" filter="url(#b)" xlink:href="#a"/>
            <use fill="#111A3D" xlink:href="#a"/>
            <text mask="url(#c)" font-family="Monaco" font-size="8.376" fill="#88F7B7">
                        <tspan x="37.58" y="30.219">kubectl apply -f postgres_instance.yaml</tspan>
                    </text>
            <path fill="#090C2A" mask="url(#c)" transform="rotate(-180 9.263 29.892)" d="M0 0h18.525v59.785H0z"/>
            <path d="M-3.17 25.923h24.865a2.646 2.646 0 1 1 0 5.293H-3.17a2.646 2.646 0 0 1 0-5.293z" fill="#3F4E97" mask="url(#c)" transform="rotate(-90 9.263 28.57)"/>
        </g>
    </g>
</svg>
