<svg height="190" viewBox="0 0 545 190" width="545" xmlns="http://www.w3.org/2000/svg" xmlns:xlink="http://www.w3.org/1999/xlink"><defs><rect id="a" height="111" rx="7" width="495"/><filter id="b" height="173.9%" width="116.6%" x="-8.3%" y="-30.6%"><feOffset dx="0" dy="7" in="SourceAlpha" result="shadowOffsetOuter1"/><feGaussianBlur in="shadowOffsetOuter1" result="shadowBlurOuter1" stdDeviation="12.5"/><feColorMatrix in="shadowBlurOuter1" type="matrix" values="0 0 0 0 0.192156863   0 0 0 0 0.250980392   0 0 0 0 0.466666667  0 0 0 0.353993663 0"/></filter></defs><g fill="none" fill-rule="evenodd"><g fill="#6c72fc" opacity=".277265"><circle cx="171.5" cy="127.5" r="2.5"/><circle cx="171.5" cy="142.5" r="2.5"/><circle cx="171.5" cy="157.5" r="2.5"/><circle cx="171.5" cy="172.5" r="2.5"/><circle cx="171.5" cy="187.5" r="2.5"/><circle cx="201.5" cy="127.5" r="2.5"/><circle cx="201.5" cy="142.5" r="2.5"/><circle cx="201.5" cy="157.5" r="2.5"/><circle cx="201.5" cy="172.5" r="2.5"/><circle cx="201.5" cy="187.5" r="2.5"/><circle cx="231.5" cy="127.5" r="2.5"/><circle cx="231.5" cy="142.5" r="2.5"/><circle cx="231.5" cy="157.5" r="2.5"/><circle cx="231.5" cy="172.5" r="2.5"/><circle cx="231.5" cy="187.5" r="2.5"/><circle cx="186.5" cy="127.5" r="2.5"/><circle cx="186.5" cy="142.5" r="2.5"/><circle cx="186.5" cy="157.5" r="2.5"/><circle cx="186.5" cy="172.5" r="2.5"/><circle cx="186.5" cy="187.5" r="2.5"/><circle cx="216.5" cy="127.5" r="2.5"/><circle cx="216.5" cy="142.5" r="2.5"/><circle cx="216.5" cy="157.5" r="2.5"/><circle cx="216.5" cy="172.5" r="2.5"/><circle cx="216.5" cy="187.5" r="2.5"/><circle cx="246.5" cy="127.5" r="2.5"/><circle cx="246.5" cy="142.5" r="2.5"/><circle cx="246.5" cy="157.5" r="2.5"/><circle cx="246.5" cy="172.5" r="2.5"/><circle cx="246.5" cy="187.5" r="2.5"/><circle cx="276.5" cy="127.5" r="2.5"/><circle cx="276.5" cy="142.5" r="2.5"/><circle cx="276.5" cy="157.5" r="2.5"/><circle cx="276.5" cy="172.5" r="2.5"/><circle cx="276.5" cy="187.5" r="2.5"/><circle cx="306.5" cy="127.5" r="2.5"/><circle cx="306.5" cy="142.5" r="2.5"/><circle cx="306.5" cy="157.5" r="2.5"/><circle cx="306.5" cy="172.5" r="2.5"/><circle cx="306.5" cy="187.5" r="2.5"/><circle cx="261.5" cy="127.5" r="2.5"/><circle cx="261.5" cy="142.5" r="2.5"/><circle cx="261.5" cy="157.5" r="2.5"/><circle cx="261.5" cy="172.5" r="2.5"/><circle cx="261.5" cy="187.5" r="2.5"/><circle cx="291.5" cy="127.5" r="2.5"/><circle cx="291.5" cy="142.5" r="2.5"/><circle cx="291.5" cy="157.5" r="2.5"/><circle cx="291.5" cy="172.5" r="2.5"/><circle cx="291.5" cy="187.5" r="2.5"/><circle cx="96.5" cy="127.5" r="2.5"/><circle cx="96.5" cy="142.5" r="2.5"/><circle cx="96.5" cy="157.5" r="2.5"/><circle cx="96.5" cy="172.5" r="2.5"/><circle cx="96.5" cy="187.5" r="2.5"/><circle cx="126.5" cy="127.5" r="2.5"/><circle cx="126.5" cy="142.5" r="2.5"/><circle cx="126.5" cy="157.5" r="2.5"/><circle cx="126.5" cy="172.5" r="2.5"/><circle cx="126.5" cy="187.5" r="2.5"/><circle cx="156.5" cy="127.5" r="2.5"/><circle cx="156.5" cy="142.5" r="2.5"/><circle cx="156.5" cy="157.5" r="2.5"/><circle cx="156.5" cy="172.5" r="2.5"/><circle cx="156.5" cy="187.5" r="2.5"/><circle cx="111.5" cy="127.5" r="2.5"/><circle cx="111.5" cy="142.5" r="2.5"/><circle cx="111.5" cy="157.5" r="2.5"/><circle cx="111.5" cy="172.5" r="2.5"/><circle cx="111.5" cy="187.5" r="2.5"/><circle cx="141.5" cy="127.5" r="2.5"/><circle cx="141.5" cy="142.5" r="2.5"/><circle cx="141.5" cy="157.5" r="2.5"/><circle cx="141.5" cy="172.5" r="2.5"/><circle cx="141.5" cy="187.5" r="2.5"/></g><g transform="translate(25 18)"><use fill="#000" filter="url(#b)" xlink:href="#a"/><use fill="#111a3d" fill-rule="evenodd" xlink:href="#a"/><path d="m0 0h29c3.3137085 0 6 2.6862915 6 6v99c0 3.313708-2.6862915 6-6 6h-29z" fill="#090c2a" transform="matrix(-1 0 0 -1 35 111)"/><text fill="#88f7b7" font-family="Monaco" font-size="15.824"><tspan x="71" y="58">kubectl apply -f postgres_instance.yaml</tspan></text><path d="m-6 49h47c2.7614237 0 5 2.2385763 5 5s-2.2385763 5-5 5h-47c-2.76142375 0-5-2.2385763-5-5s2.23857625-5 5-5z" fill="#3f4e97" transform="matrix(0 -1 1 0 -36.5 71.5)"/></g></g></svg>