<?xml version="1.0" encoding="UTF-8"?>
<svg width="274px" height="108px" viewBox="0 0 274 108" version="1.1" xmlns="http://www.w3.org/2000/svg" xmlns:xlink="http://www.w3.org/1999/xlink">
    <!-- Generator: Sketch 62 (91390) - https://sketch.com -->
    <title>Group 18 Copy</title>
    <desc>Created with Sketch.</desc>
    <g id="*Images" stroke="none" stroke-width="1" fill="none" fill-rule="evenodd">
        <g id="Group-18-Copy" fill-rule="nonzero">
            <g id="Standard-White" fill="#6550BE">
                <path d="M24.4204913,18.2623783 L24.3335744,27.061679 C24.3335744,35.5078162 16.0243177,37.2225735 13.1299846,37.2225735 C7.11533437,37.2183186 2.03504094,33.6313696 2.03504094,27.061679 L2.03504094,17.7645456 C2.03504094,15.7093898 3.24753185,14.4754453 5.20750818,14.4754453 C7.16748455,14.4754453 8.42343391,15.7093898 8.42343391,17.7645456 L8.42343391,26.3510972 C8.42343391,29.6827473 10.1617721,31.5081341 13.1299846,31.5081341 C16.3024519,31.5081341 18.0320984,29.955066 18.0320984,26.3510972 L18.0320984,18.2666333 C18.0320984,16.2157325 19.2445893,14.981788 21.2523699,14.981788 C23.2601506,14.981788 24.4204913,16.2114775 24.4204913,18.2623783 Z" id="Path"></path>
                <path d="M129.564274,17.7645456 L129.47301,27.061679 C129.47301,35.5078162 121.163754,37.2225735 118.273767,37.2225735 C112.259116,37.2225735 107.178823,33.6356246 107.178823,27.061679 L107.178823,17.7645456 C107.178823,15.7093898 108.391314,14.4754453 110.35129,14.4754453 C112.311267,14.4754453 113.567216,15.7093898 113.567216,17.7645456 L113.567216,26.3510972 C113.567216,29.6827473 115.305554,31.5081341 118.273767,31.5081341 C121.446234,31.5081341 123.17588,29.955066 123.17588,26.3510972 L123.17588,17.7645456 C123.17588,15.7093898 124.388371,14.4754453 126.391806,14.4754453 C128.395241,14.4754453 129.564274,15.7093898 129.564274,17.7645456 Z" id="Path"></path>
                <path d="M51.2151969,25.9025387 C51.2151969,32.8416243 46.8801207,37.3338581 40.326996,37.3338581 C37.3578859,37.3338581 34.9553664,36.336523 33.3522226,34.6123166 L33.2512026,34.6123166 L33.2512026,42.1853016 C33.2512026,44.2264577 32.030178,45.4942566 30.0009933,45.4942566 C27.9718086,45.4942566 26.7947058,44.2264577 26.7947058,42.1853016 L26.7947058,18.012604 C26.7947058,15.9714479 28.0201225,14.745909 30.0009933,14.745909 C31.7578632,14.745909 32.9217895,15.6544982 33.2072808,17.2434727 L33.2995165,17.2434727 C34.9026603,15.4727804 37.3051798,14.4754453 40.326996,14.4754453 C46.8757285,14.4754453 51.2151969,18.9634531 51.2151969,25.9025387 Z M44.6269351,25.9025387 C44.6269351,22.4583519 42.3166512,20.146732 39.018128,20.146732 C35.7196048,20.146732 33.2512026,22.5470978 33.2512026,25.9025387 C33.2512026,29.2579796 35.6581143,31.6625714 39.0049515,31.6625714 C42.3517885,31.6625714 44.6269351,29.3044656 44.6269351,25.9025387 Z" id="Shape"></path>
                <path d="M78.0099031,25.6067903 C78.0099031,32.6578498 73.6704343,37.2225735 67.121702,37.2225735 C64.1042779,37.2225735 61.7017583,36.2091448 60.0942225,34.3626432 L59.9975942,34.3626432 C59.8055463,35.9018095 58.4228601,37.0299098 56.8396206,36.939157 C54.8148283,36.939157 53.5894114,35.6509001 53.5894114,33.5768064 L53.5894114,7.49819207 C53.5894114,5.42409842 54.8148283,4.13584151 56.8396206,4.13584151 C58.8644134,4.13584151 60.0459086,5.42409842 60.0459086,7.49819207 L60.0459086,16.8079955 L60.1381442,16.8079955 C61.6973662,15.0087299 64.0911015,13.9953012 67.1173098,13.9953012 C73.6704343,13.9953012 78.0099031,18.5557307 78.0099031,25.6067903 Z M71.4216406,25.6067903 C71.4216406,22.1070256 69.1113567,19.7581038 65.8128336,19.7581038 C62.5143105,19.7581038 60.0634771,22.1972036 60.0634771,25.6067903 C60.0634771,29.0163769 62.4659966,31.4597709 65.8128336,31.4597709 C69.1596711,31.4597709 71.4084643,29.063613 71.4084643,25.6067903 L71.4216406,25.6067903 Z" id="Shape"></path>
                <path d="M92.5659519,14.4754453 C99.8348399,14.4754453 104.804609,19.0837904 104.804609,25.8384881 C104.804609,32.5931857 99.8348399,37.2225735 92.5659519,37.2225735 C85.2970639,37.2225735 80.3841171,32.5847687 80.3841171,25.8553222 C80.3841171,19.1258757 85.3407732,14.4754453 92.5659519,14.4754453 Z M92.5659519,31.5915545 C95.9403242,31.5915545 98.2481852,29.2431924 98.2481852,25.8553222 C98.2481852,22.4674521 95.9490661,20.1232984 92.5659519,20.1232984 C89.1828372,20.1232984 86.9405407,22.4253667 86.9405407,25.8553222 C86.9405407,29.2852777 89.2352889,31.5915545 92.5659519,31.5915545 Z" id="Shape"></path>
                <path d="M154.323938,24.6146031 L154.323938,33.8896766 C154.323938,35.9456015 153.118933,37.2225735 151.123549,37.2225735 C149.128164,37.2225735 147.974988,35.9456015 147.974988,33.8896766 L147.974988,25.3467337 C147.974988,21.9670145 146.398547,20.1877668 143.340685,20.1877668 C140.140296,20.1877668 138.287439,22.3160535 138.287439,25.942654 L138.287439,33.8896766 C138.287439,35.9456015 137.082434,37.2225735 135.087049,37.2225735 C133.091665,37.2225735 131.938488,35.9456015 131.938488,33.8896766 L131.938488,18.0850195 C131.938488,16.0290946 133.143493,14.747866 135.087049,14.747866 C136.625941,14.6489134 137.989878,15.7169221 138.239929,17.2166786 L138.334948,17.2166786 C139.863879,15.4331743 142.088171,14.4754453 145.007825,14.4754453 C151.084678,14.4754453 154.323938,18.0381972 154.323938,24.6146031 Z" id="Path"></path>
                <path d="M181.118644,7.49775576 L181.118644,33.5772796 C181.118644,35.6511041 179.893227,36.9391938 177.864043,36.9391938 C176.281535,37.0277663 174.900169,35.9008887 174.706069,34.3630143 L174.613833,34.3630143 C173.01069,36.2092763 170.60817,37.2225735 167.586354,37.2225735 C161.033229,37.2225735 156.698153,32.6584422 156.698153,25.6082977 C156.698153,18.5581531 161.033229,14.0154899 167.586354,14.0154899 C170.603778,14.0154899 173.006298,15.0287872 174.561127,16.8278192 L174.657755,16.8278192 L174.657755,7.49775576 C174.657755,5.42393125 175.883172,4.13584151 177.859651,4.13584151 C179.836129,4.13584151 181.118644,5.42393125 181.118644,7.49775576 Z M174.662147,25.604004 C174.662147,22.1948598 172.255236,19.7560765 168.908398,19.7560765 C165.561561,19.7560765 163.299591,22.1046935 163.299591,25.604004 C163.299591,29.1033145 165.623052,31.4562251 168.908398,31.4562251 C172.193745,31.4562251 174.662147,29.0174419 174.662147,25.604004 Z" id="Shape"></path>
                <ellipse id="Oval" cx="5.08760238" cy="5.16980186" rx="5.08760238" ry="5.16980186"></ellipse>
            </g>
            <g id="Group-2-Copy" transform="translate(145.707627, 59.211864)" fill="#6553C0" fill-opacity="0.3">
                <ellipse id="Oval-Copy-49" cx="92.3074443" cy="13.0614041" rx="1.88005585" ry="1.86591488"></ellipse>
                <ellipse id="Oval-Copy-43" cx="69.7467738" cy="13.0614041" rx="1.88005585" ry="1.86591488"></ellipse>
                <ellipse id="Oval-Copy-47" cx="24.4407261" cy="13.0614041" rx="1.88005585" ry="1.86591488"></ellipse>
                <ellipse id="Oval-Copy-63" cx="81.027109" cy="35.4523826" rx="1.88005585" ry="1.86591488"></ellipse>
                <ellipse id="Oval-Copy-65" cx="35.7210612" cy="35.4523826" rx="1.88005585" ry="1.86591488"></ellipse>
                <ellipse id="Oval-Copy-19" cx="126.148449" cy="35.4523826" rx="1.88005585" ry="1.86591488"></ellipse>
                <ellipse id="Oval-Copy-9" cx="114.868114" cy="13.0614041" rx="1.88005585" ry="1.86591488"></ellipse>
                <ellipse id="Oval-Copy-39" cx="47.1861034" cy="35.4523826" rx="1.88005585" ry="1.86591488"></ellipse>
                <ellipse id="Oval-Copy-41" cx="1.88005585" cy="35.4523826" rx="1.88005585" ry="1.86591488"></ellipse>
                <ellipse id="Oval" cx="103.587779" cy="1.86591488" rx="1.88005585" ry="1.86591488"></ellipse>
                <ellipse id="Oval-Copy-64" cx="81.027109" cy="46.6478718" rx="1.88005585" ry="1.86591488"></ellipse>
                <ellipse id="Oval-Copy-66" cx="35.7210612" cy="46.6478718" rx="1.88005585" ry="1.86591488"></ellipse>
                <ellipse id="Oval-Copy-21" cx="114.868114" cy="35.4523826" rx="1.88005585" ry="1.86591488"></ellipse>
                <ellipse id="Oval-Copy-18" cx="103.587779" cy="35.4523826" rx="1.88005585" ry="1.86591488"></ellipse>
                <ellipse id="Oval-Copy-54" cx="58.4664386" cy="1.86591488" rx="1.88005585" ry="1.86591488"></ellipse>
                <ellipse id="Oval-Copy-59" cx="13.160391" cy="1.86591488" rx="1.88005585" ry="1.86591488"></ellipse>
                <ellipse id="Oval-Copy-2" cx="126.148449" cy="1.86591488" rx="1.88005585" ry="1.86591488"></ellipse>
                <ellipse id="Oval-Copy" cx="114.868114" cy="1.86591488" rx="1.88005585" ry="1.86591488"></ellipse>
                <ellipse id="Oval-Copy-42" cx="69.7467738" cy="1.86591488" rx="1.88005585" ry="1.86591488"></ellipse>
                <ellipse id="Oval-Copy-53" cx="24.4407261" cy="1.86591488" rx="1.88005585" ry="1.86591488"></ellipse>
                <ellipse id="Oval-Copy-37" cx="47.1861034" cy="13.0614041" rx="1.88005585" ry="1.86591488"></ellipse>
                <ellipse id="Oval-Copy-67" cx="1.88005585" cy="13.0614041" rx="1.88005585" ry="1.86591488"></ellipse>
                <ellipse id="Oval-Copy-46" cx="69.7467738" cy="46.6478718" rx="1.88005585" ry="1.86591488"></ellipse>
                <ellipse id="Oval-Copy-68" cx="24.4407261" cy="46.6478718" rx="1.88005585" ry="1.86591488"></ellipse>
                <ellipse id="Oval-Copy-50" cx="92.3074443" cy="24.2568933" rx="1.88005585" ry="1.86591488"></ellipse>
                <ellipse id="Oval-Copy-51" cx="92.3074443" cy="35.4523826" rx="1.88005585" ry="1.86591488"></ellipse>
                <ellipse id="Oval-Copy-25" cx="126.148449" cy="46.6478718" rx="1.88005585" ry="1.86591488"></ellipse>
                <ellipse id="Oval-Copy-15" cx="114.868114" cy="24.2568933" rx="1.88005585" ry="1.86591488"></ellipse>
                <ellipse id="Oval-Copy-12" cx="103.587779" cy="24.2568933" rx="1.88005585" ry="1.86591488"></ellipse>
                <ellipse id="Oval-Copy-56" cx="58.4664386" cy="24.2568933" rx="1.88005585" ry="1.86591488"></ellipse>
                <ellipse id="Oval-Copy-69" cx="13.160391" cy="24.2568933" rx="1.88005585" ry="1.86591488"></ellipse>
                <ellipse id="Oval-Copy-62" cx="81.027109" cy="24.2568933" rx="1.88005585" ry="1.86591488"></ellipse>
                <ellipse id="Oval-Copy-70" cx="35.7210612" cy="24.2568933" rx="1.88005585" ry="1.86591488"></ellipse>
                <ellipse id="Oval-Copy-58" cx="58.4664386" cy="46.6478718" rx="1.88005585" ry="1.86591488"></ellipse>
                <ellipse id="Oval-Copy-71" cx="13.160391" cy="46.6478718" rx="1.88005585" ry="1.86591488"></ellipse>
                <ellipse id="Oval-Copy-7" cx="126.148449" cy="13.0614041" rx="1.88005585" ry="1.86591488"></ellipse>
                <ellipse id="Oval-Copy-60" cx="81.027109" cy="1.86591488" rx="1.88005585" ry="1.86591488"></ellipse>
                <ellipse id="Oval-Copy-72" cx="35.7210612" cy="1.86591488" rx="1.88005585" ry="1.86591488"></ellipse>
                <ellipse id="Oval-Copy-45" cx="69.7467738" cy="35.4523826" rx="1.88005585" ry="1.86591488"></ellipse>
                <ellipse id="Oval-Copy-73" cx="24.4407261" cy="35.4523826" rx="1.88005585" ry="1.86591488"></ellipse>
                <ellipse id="Oval-Copy-44" cx="69.7467738" cy="24.2568933" rx="1.88005585" ry="1.86591488"></ellipse>
                <ellipse id="Oval-Copy-74" cx="24.4407261" cy="24.2568933" rx="1.88005585" ry="1.86591488"></ellipse>
                <ellipse id="Oval-Copy-55" cx="58.4664386" cy="13.0614041" rx="1.88005585" ry="1.86591488"></ellipse>
                <ellipse id="Oval-Copy-75" cx="13.160391" cy="13.0614041" rx="1.88005585" ry="1.86591488"></ellipse>
                <ellipse id="Oval-Copy-57" cx="58.4664386" cy="35.4523826" rx="1.88005585" ry="1.86591488"></ellipse>
                <ellipse id="Oval-Copy-76" cx="13.160391" cy="35.4523826" rx="1.88005585" ry="1.86591488"></ellipse>
                <ellipse id="Oval-Copy-48" cx="92.3074443" cy="1.86591488" rx="1.88005585" ry="1.86591488"></ellipse>
                <ellipse id="Oval-Copy-40" cx="47.1861034" cy="46.6478718" rx="1.88005585" ry="1.86591488"></ellipse>
                <ellipse id="Oval-Copy-77" cx="1.88005585" cy="46.6478718" rx="1.88005585" ry="1.86591488"></ellipse>
                <ellipse id="Oval-Copy-38" cx="47.1861034" cy="24.2568933" rx="1.88005585" ry="1.86591488"></ellipse>
                <ellipse id="Oval-Copy-80" cx="1.88005585" cy="24.2568933" rx="1.88005585" ry="1.86591488"></ellipse>
                <ellipse id="Oval-Copy-27" cx="114.868114" cy="46.6478718" rx="1.88005585" ry="1.86591488"></ellipse>
                <ellipse id="Oval-Copy-36" cx="47.1861034" cy="1.86591488" rx="1.88005585" ry="1.86591488"></ellipse>
                <ellipse id="Oval-Copy-81" cx="1.88005585" cy="1.86591488" rx="1.88005585" ry="1.86591488"></ellipse>
                <ellipse id="Oval-Copy-13" cx="126.148449" cy="24.2568933" rx="1.88005585" ry="1.86591488"></ellipse>
                <ellipse id="Oval-Copy-6" cx="103.587779" cy="13.0614041" rx="1.88005585" ry="1.86591488"></ellipse>
                <ellipse id="Oval-Copy-52" cx="92.3074443" cy="46.6478718" rx="1.88005585" ry="1.86591488"></ellipse>
                <ellipse id="Oval-Copy-61" cx="81.027109" cy="13.0614041" rx="1.88005585" ry="1.86591488"></ellipse>
                <ellipse id="Oval-Copy-82" cx="35.7210612" cy="13.0614041" rx="1.88005585" ry="1.86591488"></ellipse>
                <ellipse id="Oval-Copy-24" cx="103.587779" cy="46.6478718" rx="1.88005585" ry="1.86591488"></ellipse>
            </g>
        </g>
    </g>
</svg>