<?xml version="1.0" encoding="utf-8"?>
<!-- Generator: Adobe Illustrator 25.2.1, SVG Export Plug-In . SVG Version: 6.00 Build 0)  -->
<svg version="1.1" id="Layer_1" xmlns="http://www.w3.org/2000/svg" xmlns:xlink="http://www.w3.org/1999/xlink" x="0px" y="0px"
	 viewBox="0 0 1025 376" style="enable-background:new 0 0 1025 376;" xml:space="preserve">
<style type="text/css">
	.st0{fill-rule:evenodd;clip-rule:evenodd;fill:#FFFFFF;stroke:#F5F7FA;}
	.st1{fill-rule:evenodd;clip-rule:evenodd;fill:#6553C0;fill-opacity:0.3;}
</style>
<g id="UXP">
	<g id="Group">
		<path id="Rectangle-Copy-6" class="st0" d="M17.9,0.5h989.2c9.6,0,17.4,7.8,17.4,17.4v272.2c0,9.6-7.8,17.4-17.4,17.4H17.9
			c-9.6,0-17.4-7.8-17.4-17.4V17.9C0.5,8.3,8.3,0.5,17.9,0.5z"/>
		<g id="Group-2-Copy" transform="translate(88.014311, 58.666667)">
			
				<image style="overflow:visible;enable-background:new    ;" width="430" height="106" id="Standard-_x28_2_x29_" xlink:href="5252F3123AB703C0.png"  transform="matrix(1.157 0 0 1.157 0.868 38.1814)">
			</image>
		</g>
		<g id="Group-4-Copy" transform="translate(441.000000, 267.000000)">
			<ellipse id="Oval-Copy-10" class="st1" cx="306.4" cy="29.3" rx="4.2" ry="4.2"/>
			<ellipse id="Oval-Copy-49" class="st1" cx="205.8" cy="29.3" rx="4.2" ry="4.2"/>
			<ellipse id="Oval-Copy-43" class="st1" cx="155.5" cy="29.3" rx="4.2" ry="4.2"/>
			<ellipse id="Oval-Copy-47" class="st1" cx="54.5" cy="29.3" rx="4.2" ry="4.2"/>
			<ellipse id="Oval-Copy-63" class="st1" cx="180.6" cy="79.5" rx="4.2" ry="4.2"/>
			<ellipse id="Oval-Copy-65" class="st1" cx="79.6" cy="79.5" rx="4.2" ry="4.2"/>
			<ellipse id="Oval-Copy-28" class="st1" cx="306.4" cy="104.6" rx="4.2" ry="4.2"/>
			<ellipse id="Oval-Copy-4" class="st1" cx="331.5" cy="4.2" rx="4.2" ry="4.2"/>
			<ellipse id="Oval-Copy-56" class="st1" cx="381.8" cy="54.4" rx="4.2" ry="4.2"/>
			<ellipse id="Oval-Copy-19" class="st1" cx="281.2" cy="79.5" rx="4.2" ry="4.2"/>
			<ellipse id="Oval-Copy-9" class="st1" cx="256.1" cy="29.3" rx="4.2" ry="4.2"/>
			<ellipse id="Oval-Copy-16" class="st1" cx="306.4" cy="54.4" rx="4.2" ry="4.2"/>
			<ellipse id="Oval-Copy-14" class="st1" cx="331.5" cy="54.4" rx="4.2" ry="4.2"/>
			<ellipse id="Oval-Copy-55" class="st1" cx="381.8" cy="29.3" rx="4.2" ry="4.2"/>
			<ellipse id="Oval-Copy-39" class="st1" cx="105.2" cy="79.5" rx="4.2" ry="4.2"/>
			<ellipse id="Oval-Copy-41" class="st1" cx="4.2" cy="79.5" rx="4.2" ry="4.2"/>
			<ellipse id="Oval" class="st1" cx="230.9" cy="4.2" rx="4.2" ry="4.2"/>
			<ellipse id="Oval-Copy-57" class="st1" cx="381.8" cy="79.5" rx="4.2" ry="4.2"/>
			<ellipse id="Oval-Copy-64" class="st1" cx="180.6" cy="104.6" rx="4.2" ry="4.2"/>
			<ellipse id="Oval-Copy-66" class="st1" cx="79.6" cy="104.6" rx="4.2" ry="4.2"/>
			<ellipse id="Oval-Copy-22" class="st1" cx="306.4" cy="79.5" rx="4.2" ry="4.2"/>
			<ellipse id="Oval-Copy-20" class="st1" cx="331.5" cy="79.5" rx="4.2" ry="4.2"/>
			<ellipse id="Oval-Copy-21" class="st1" cx="256.1" cy="79.5" rx="4.2" ry="4.2"/>
			<ellipse id="Oval-Copy-18" class="st1" cx="230.9" cy="79.5" rx="4.2" ry="4.2"/>
			<ellipse id="Oval-Copy-38" class="st1" cx="356.7" cy="54.4" rx="4.2" ry="4.2"/>
			<ellipse id="Oval-Copy-54" class="st1" cx="130.3" cy="4.2" rx="4.2" ry="4.2"/>
			<ellipse id="Oval-Copy-59" class="st1" cx="29.3" cy="4.2" rx="4.2" ry="4.2"/>
			<ellipse id="Oval-Copy-2" class="st1" cx="281.2" cy="4.2" rx="4.2" ry="4.2"/>
			<ellipse id="Oval-Copy" class="st1" cx="256.1" cy="4.2" rx="4.2" ry="4.2"/>
			<ellipse id="Oval-Copy-42" class="st1" cx="155.5" cy="4.2" rx="4.2" ry="4.2"/>
			<ellipse id="Oval-Copy-53" class="st1" cx="54.5" cy="4.2" rx="4.2" ry="4.2"/>
			<ellipse id="Oval-Copy-37" class="st1" cx="356.7" cy="29.3" rx="4.2" ry="4.2"/>
			<ellipse id="Oval-Copy-37_1_" class="st1" cx="105.2" cy="29.3" rx="4.2" ry="4.2"/>
			<ellipse id="Oval-Copy-67" class="st1" cx="4.2" cy="29.3" rx="4.2" ry="4.2"/>
			<ellipse id="Oval-Copy-46" class="st1" cx="155.5" cy="104.6" rx="4.2" ry="4.2"/>
			<ellipse id="Oval-Copy-68" class="st1" cx="54.5" cy="104.6" rx="4.2" ry="4.2"/>
			<ellipse id="Oval-Copy-50" class="st1" cx="205.8" cy="54.4" rx="4.2" ry="4.2"/>
			<ellipse id="Oval-Copy-40" class="st1" cx="356.7" cy="104.6" rx="4.2" ry="4.2"/>
			<ellipse id="Oval-Copy-51" class="st1" cx="205.8" cy="79.5" rx="4.2" ry="4.2"/>
			<ellipse id="Oval-Copy-25" class="st1" cx="281.2" cy="104.6" rx="4.2" ry="4.2"/>
			<ellipse id="Oval-Copy-15" class="st1" cx="256.1" cy="54.4" rx="4.2" ry="4.2"/>
			<ellipse id="Oval-Copy-39_1_" class="st1" cx="356.7" cy="79.5" rx="4.2" ry="4.2"/>
			<ellipse id="Oval-Copy-12" class="st1" cx="230.9" cy="54.4" rx="4.2" ry="4.2"/>
			<ellipse id="Oval-Copy-56_1_" class="st1" cx="130.3" cy="54.4" rx="4.2" ry="4.2"/>
			<ellipse id="Oval-Copy-69" class="st1" cx="29.3" cy="54.4" rx="4.2" ry="4.2"/>
			<ellipse id="Oval-Copy-62" class="st1" cx="180.6" cy="54.4" rx="4.2" ry="4.2"/>
			<ellipse id="Oval-Copy-70" class="st1" cx="79.6" cy="54.4" rx="4.2" ry="4.2"/>
			<ellipse id="Oval-Copy-36" class="st1" cx="356.7" cy="4.2" rx="4.2" ry="4.2"/>
			<ellipse id="Oval-Copy-58" class="st1" cx="130.3" cy="104.6" rx="4.2" ry="4.2"/>
			<ellipse id="Oval-Copy-71" class="st1" cx="29.3" cy="104.6" rx="4.2" ry="4.2"/>
			<ellipse id="Oval-Copy-7" class="st1" cx="281.2" cy="29.3" rx="4.2" ry="4.2"/>
			<ellipse id="Oval-Copy-60" class="st1" cx="180.6" cy="4.2" rx="4.2" ry="4.2"/>
			<ellipse id="Oval-Copy-72" class="st1" cx="79.6" cy="4.2" rx="4.2" ry="4.2"/>
			<ellipse id="Oval-Copy-45" class="st1" cx="155.5" cy="79.5" rx="4.2" ry="4.2"/>
			<ellipse id="Oval-Copy-73" class="st1" cx="54.5" cy="79.5" rx="4.2" ry="4.2"/>
			<ellipse id="Oval-Copy-44" class="st1" cx="155.5" cy="54.4" rx="4.2" ry="4.2"/>
			<ellipse id="Oval-Copy-74" class="st1" cx="54.5" cy="54.4" rx="4.2" ry="4.2"/>
			<ellipse id="Oval-Copy-8" class="st1" cx="331.5" cy="29.3" rx="4.2" ry="4.2"/>
			<ellipse id="Oval-Copy-26" class="st1" cx="331.5" cy="104.6" rx="4.2" ry="4.2"/>
			<ellipse id="Oval-Copy-55_1_" class="st1" cx="130.3" cy="29.3" rx="4.2" ry="4.2"/>
			<ellipse id="Oval-Copy-75" class="st1" cx="29.3" cy="29.3" rx="4.2" ry="4.2"/>
			<ellipse id="Oval-Copy-3" class="st1" cx="306.4" cy="4.2" rx="4.2" ry="4.2"/>
			<ellipse id="Oval-Copy-57_1_" class="st1" cx="130.3" cy="79.5" rx="4.2" ry="4.2"/>
			<ellipse id="Oval-Copy-76" class="st1" cx="29.3" cy="79.5" rx="4.2" ry="4.2"/>
			<ellipse id="Oval-Copy-48" class="st1" cx="205.8" cy="4.2" rx="4.2" ry="4.2"/>
			<ellipse id="Oval-Copy-58_1_" class="st1" cx="381.8" cy="104.6" rx="4.2" ry="4.2"/>
			<ellipse id="Oval-Copy-40_1_" class="st1" cx="105.2" cy="104.6" rx="4.2" ry="4.2"/>
			<ellipse id="Oval-Copy-77" class="st1" cx="4.2" cy="104.6" rx="4.2" ry="4.2"/>
			<ellipse id="Oval-Copy-38_1_" class="st1" cx="105.2" cy="54.4" rx="4.2" ry="4.2"/>
			<ellipse id="Oval-Copy-80" class="st1" cx="4.2" cy="54.4" rx="4.2" ry="4.2"/>
			<ellipse id="Oval-Copy-27" class="st1" cx="256.1" cy="104.6" rx="4.2" ry="4.2"/>
			<ellipse id="Oval-Copy-36_1_" class="st1" cx="105.2" cy="4.2" rx="4.2" ry="4.2"/>
			<ellipse id="Oval-Copy-81" class="st1" cx="4.2" cy="4.2" rx="4.2" ry="4.2"/>
			<ellipse id="Oval-Copy-54_1_" class="st1" cx="381.8" cy="4.2" rx="4.2" ry="4.2"/>
			<ellipse id="Oval-Copy-13" class="st1" cx="281.2" cy="54.4" rx="4.2" ry="4.2"/>
			<ellipse id="Oval-Copy-6" class="st1" cx="230.9" cy="29.3" rx="4.2" ry="4.2"/>
			<ellipse id="Oval-Copy-52" class="st1" cx="205.8" cy="104.6" rx="4.2" ry="4.2"/>
			<ellipse id="Oval-Copy-61" class="st1" cx="180.6" cy="29.3" rx="4.2" ry="4.2"/>
			<ellipse id="Oval-Copy-82" class="st1" cx="79.6" cy="29.3" rx="4.2" ry="4.2"/>
			<ellipse id="Oval-Copy-24" class="st1" cx="230.9" cy="104.6" rx="4.2" ry="4.2"/>
		</g>
	</g>
</g>
</svg>
