<?xml version="1.0" encoding="UTF-8"?>
<svg width="106px" height="105px" viewBox="0 0 106 105" version="1.1" xmlns="http://www.w3.org/2000/svg" xmlns:xlink="http://www.w3.org/1999/xlink">
    <!-- Generator: Sketch 62 (91390) - https://sketch.com -->
    <title>Group 16 Copy 3</title>
    <desc>Created with Sketch.</desc>
    <defs>
        <path d="M58.5728464,27.1202676 L53.5762476,20.3040981 L53.6340117,11.8416504 C53.6340117,11.0618344 53.1430164,10.3975467 52.4209646,10.1664901 L44.3628659,7.62486758 L39.4529133,0.750933928 C38.9908001,0.115528297 38.2109841,-0.144410371 37.4600502,0.115528297 L29.4597156,2.77267912 L21.4593811,0.0866462225 C20.7373292,-0.144410371 19.9286312,0.115528297 19.466518,0.722051854 L14.5565654,7.5959855 L6.49846669,10.137608 C5.77641483,10.3975467 5.28541957,11.0907165 5.28541957,11.8416504 L5.34318372,20.3040981 L0.34658489,27.1202676 C-0.115528297,27.7267912 -0.115528297,28.5932534 0.34658489,29.199777 L5.34318372,36.0159465 L5.28541957,44.4783942 C5.28541957,45.2582102 5.77641483,45.9224979 6.49846669,46.1535545 L14.5565654,48.695177 L19.466518,55.5691107 C19.8131029,56.0312239 20.3329802,56.2911625 20.8817396,56.2911625 C21.0550321,56.2911625 21.2572066,56.2622805 21.430499,56.2045163 L29.4308336,53.5184834 L37.4311681,56.2045163 C38.15322,56.4355729 38.961918,56.1756342 39.4240312,55.5691107 L44.3339838,48.695177 L52.3920825,46.1535545 C53.1141344,45.9224979 53.6340117,45.2293281 53.6051296,44.4783942 L53.5473655,36.0159465 L58.5439643,29.199777 C59.0349596,28.5932534 59.0349596,27.7267912 58.5728464,27.1202676 L58.5728464,27.1202676 Z" id="path-1"></path>
        <filter x="-73.1%" y="-58.7%" width="246.1%" height="252.9%" filterUnits="objectBoundingBox" id="filter-2">
            <feMorphology radius="0.541149847" operator="dilate" in="SourceAlpha" result="shadowSpreadOuter1"></feMorphology>
            <feOffset dx="0" dy="10" in="shadowSpreadOuter1" result="shadowOffsetOuter1"></feOffset>
            <feGaussianBlur stdDeviation="12.5" in="shadowOffsetOuter1" result="shadowBlurOuter1"></feGaussianBlur>
            <feComposite in="shadowBlurOuter1" in2="SourceAlpha" operator="out" result="shadowBlurOuter1"></feComposite>
            <feColorMatrix values="0 0 0 0 0.192156863   0 0 0 0 0.250980392   0 0 0 0 0.466666667  0 0 0 0.1 0" type="matrix" in="shadowBlurOuter1"></feColorMatrix>
        </filter>
        <path d="M0.112932496,7.57395074 C0.101979006,7.82628219 0.102533171,8.07898179 0.114593268,8.33126277 C0.111271724,8.39603288 0.104628636,8.4599726 0.104628636,8.5255731 L0.104628636,21.2827933 C0.104628636,23.7224673 2.09589427,25.7187153 4.52975565,25.7187153 L11.1894514,25.7187153 C13.6224824,25.7187153 15.6145784,23.7224673 15.6145784,21.2827933 L15.6145784,8.5255731 C15.6145784,8.45083836 15.6062745,8.37942516 15.602953,8.30635119 C15.6150417,8.06237398 15.6153188,7.81795474 15.6037834,7.57395074 C15.4161162,3.44859307 12.0198374,0.162755657 7.85877314,0.162755657 C3.69687849,0.162755657 0.300599733,3.44859307 0.112932496,7.57312035 L0.112932496,7.57395074 Z" id="path-3"></path>
        <path d="M0.112932496,7.57395074 C0.101979006,7.82628219 0.102533171,8.07898179 0.114593268,8.33126277 C0.111271724,8.39603288 0.104628636,8.4599726 0.104628636,8.5255731 L0.104628636,21.2827933 C0.104628636,23.7224673 2.09589427,25.7187153 4.52975565,25.7187153 L11.1894514,25.7187153 C13.6224824,25.7187153 15.6145784,23.7224673 15.6145784,21.2827933 L15.6145784,8.5255731 C15.6145784,8.45083836 15.6062745,8.37942516 15.602953,8.30635119 C15.6150417,8.06237398 15.6153188,7.81795474 15.6037834,7.57395074 C15.4161162,3.44859307 12.0198374,0.162755657 7.85877314,0.162755657 C3.69687849,0.162755657 0.300599733,3.44859307 0.112932496,7.57312035 L0.112932496,7.57395074 Z" id="path-5"></path>
        <path d="M0.112932496,7.57395074 C0.101979006,7.82628219 0.102533171,8.07898179 0.114593268,8.33126277 C0.111271724,8.39603288 0.104628636,8.4599726 0.104628636,8.5255731 L0.104628636,21.2827933 C0.104628636,23.7224673 2.09589427,25.7187153 4.52975565,25.7187153 L11.1894514,25.7187153 C13.6224824,25.7187153 15.6145784,23.7224673 15.6145784,21.2827933 L15.6145784,8.5255731 C15.6145784,8.45083836 15.6062745,8.37942516 15.602953,8.30635119 C15.6150417,8.06237398 15.6153188,7.81795474 15.6037834,7.57395074 C15.4161162,3.44859307 12.0198374,0.162755657 7.85877314,0.162755657 C3.69687849,0.162755657 0.300599733,3.44859307 0.112932496,7.57312035 L0.112932496,7.57395074 Z" id="path-7"></path>
    </defs>
    <g id="*Images" stroke="none" stroke-width="1" fill="none" fill-rule="evenodd">
        <g id="Group-16-Copy-3" transform="translate(-28.000000, 14.000000)">
            <rect id="Rectangle-21-Copy-2" x="0" y="2.8056872" width="147.769925" height="53.3080569" rx="8"></rect>
            <g id="Home-image1-additional" transform="translate(51.355450, 0.000000)">
                <g id="Shape-path" fill-rule="nonzero">
                    <use fill="black" fill-opacity="1" filter="url(#filter-2)" xlink:href="#path-1"></use>
                    <path stroke="#D2DCEA" stroke-width="0.541149847" d="M59.1862872,28.1707534 C59.1804142,28.5936114 59.0389623,29.015864 58.7584936,29.364783 L53.8185441,36.1036737 L53.8755047,44.4679952 C53.8921808,44.9015753 53.7531173,45.3192283 53.5045042,45.6625512 C53.2545206,46.0077665 52.8940107,46.2770283 52.4734726,46.411598 L44.5016027,48.9260229 L39.6392551,55.7330908 C39.3737243,56.0815999 39.0086683,56.3307132 38.6060757,56.4590761 C38.203425,56.5874574 37.7635989,56.5949849 37.3450494,56.4610204 L29.4308336,53.803901 L21.5160623,56.4612062 C21.3157499,56.527977 21.0820896,56.5617375 20.8817396,56.5617375 C20.2497264,56.5617375 19.6496535,56.2642496 19.2463421,55.7263792 L14.3889443,48.9260222 L6.41600202,46.4112566 C5.99697269,46.2771672 5.64545174,46.016628 5.39918659,45.6765476 C5.15567591,45.3402709 5.01484465,44.9259619 5.01485095,44.4765473 L5.07200369,36.1036709 L0.131361013,29.3637571 C-0.136135602,29.0126678 -0.270574924,28.5864937 -0.270574924,28.1600223 C-0.270574924,27.7335509 -0.136135602,27.3073768 0.128362526,26.9602995 L5.07200375,20.2163728 L5.01484465,11.8416504 C5.01484465,11.4090442 5.15572704,10.9927832 5.40147581,10.6475647 C5.64674818,10.3030154 5.99626619,10.0295751 6.41209164,9.88113685 L14.3889465,7.36513963 L19.2512941,0.558071757 C19.5168249,0.209562607 19.8818809,-0.0395506633 20.2844736,-0.16791353 C20.6871242,-0.296294888 21.1269504,-0.303822402 21.5454998,-0.169857886 L29.4601793,2.48741716 L37.3715423,-0.140161238 C37.8029666,-0.289500439 38.2425279,-0.289280531 38.6410298,-0.162221963 C39.0429396,-0.034076801 39.4039481,0.223579615 39.6730892,0.593665448 L44.530487,7.39402243 L52.5034293,9.90878801 C52.9224586,10.0428774 53.2739795,10.3034166 53.5202447,10.643497 C53.7637554,10.9797737 53.9045866,11.3940827 53.9045803,11.8434973 L53.8474276,20.2163729 L58.7880703,26.9562875 C59.0578447,27.3103664 59.1922599,27.7407204 59.1862872,28.1707534 Z" fill="#FFFFFF" fill-rule="evenodd"></path>
                </g>
                <g id="Group-16" transform="translate(21.407583, 11.943128)">
                    <path d="M7.76493952,10.7094883 C6.69060748,10.7113212 5.82091804,11.5832406 5.82183467,12.6575739 L5.82183467,30.9924968 C5.82117515,31.5085007 6.02552306,32.0036329 6.3899257,32.3689699 C6.75432833,32.7343069 7.24893567,32.9399221 7.76493952,32.9405824 C8.83862862,32.9405824 9.70887388,32.0686771 9.70887388,30.9924968 L9.70887388,12.6575739 C9.70979138,11.5832406 8.84010194,10.7113212 7.7657699,10.7094883" id="Path" fill="#F7D186" fill-rule="nonzero"></path>
                    <path d="M15.5647552,8.30635119 C15.5760301,8.06234789 15.5760301,7.81795405 15.5647552,7.57395074 C15.3787488,3.44859307 11.98247,0.161925271 7.82057538,0.161925271 C3.65868073,0.161925271 0.262401977,3.44859307 0.0747347403,7.57395074 C0.0629294071,7.82625677 0.0632065195,8.07898324 0.0755651263,8.33126277 C0.0730739683,8.39603288 0.0664308803,8.4599726 0.0664308803,8.5255731 L0.0664308803,21.2827933 C0.0664308803,23.7224673 2.05769652,25.7187153 4.49155789,25.7187153 L11.1512536,25.7187153 C13.5842846,25.7187153 15.5755503,23.7224673 15.5755503,21.2827933 L15.5755503,8.5255731 C15.5755503,8.45083836 15.5680768,8.37942516 15.5647552,8.30635119" id="Path" fill="#FF9234" fill-rule="nonzero"></path>
                    <g id="Group" transform="translate(0.000000, 0.000000)">
                        <g id="Clipped">
                            <mask id="mask-4" fill="white">
                                <use xlink:href="#path-3"></use>
                            </mask>
                            <g id="a"></g>
                            <polygon id="Path" fill="#FFCD3C" fill-rule="nonzero" mask="url(#mask-4)" points="20.2614185 7.81725384 1.02718749 27.0971561 -4.6692605 21.3865915 14.5641401 2.10668929"></polygon>
                        </g>
                    </g>
                    <g id="Group" transform="translate(0.000000, 0.000000)">
                        <g id="Clipped">
                            <mask id="mask-6" fill="white">
                                <use xlink:href="#path-5"></use>
                            </mask>
                            <g id="c"></g>
                            <polygon id="Path" fill="#F3807B" fill-rule="nonzero" mask="url(#mask-6)" points="14.546702 2.0884208 -4.6866986 21.368323 -11.7748735 14.26271 7.45686631 -5.01719223"></polygon>
                        </g>
                    </g>
                    <g id="Group" transform="translate(0.000000, 0.000000)">
                        <g id="Clipped">
                            <mask id="mask-8" fill="white">
                                <use xlink:href="#path-7"></use>
                            </mask>
                            <g id="e"></g>
                            <polygon id="Path" fill="#35D0BA" fill-rule="nonzero" mask="url(#mask-8)" points="25.976135 13.5460869 6.74273435 32.8251587 1.04628636 27.1145942 20.279687 7.83552233"></polygon>
                        </g>
                    </g>
                    <polyline id="Path" fill="#D8AE64" fill-rule="nonzero" points="6.34913138 25.7403053 9.72049856 29.1199764 9.72049856 25.7120722 6.34913138 25.7403053"></polyline>
                </g>
            </g>
        </g>
    </g>
</svg>