<?xml version="1.0" encoding="UTF-8"?>
<svg width="53px" height="51px" viewBox="0 0 53 51" version="1.1" xmlns="http://www.w3.org/2000/svg" xmlns:xlink="http://www.w3.org/1999/xlink">
    <!-- Generator: Sketch 62 (91390) - https://sketch.com -->
    <title>Group 16 Copy 4</title>
    <desc>Created with Sketch.</desc>
    <g id="*Images" stroke="none" stroke-width="1" fill="none" fill-rule="evenodd">
        <g id="Group-16-Copy-4" transform="translate(-36.000000, 0.000000)">
            <rect id="Rectangle-21-Copy-2" x="1.00351533e-14" y="0" width="148.768371" height="53.6682464" rx="8"></rect>
            <g id="Home-image1-additional" transform="translate(36.720379, 0.706161)" fill="#2FD3BC" fill-rule="nonzero">
                <path d="M51.9485364,24.0530945 L47.5170291,18.0078013 L47.5682604,10.5024161 C47.5682604,9.81079361 47.1327943,9.22163368 46.4924031,9.01670848 L39.345637,6.76253136 L34.9909767,0.666006877 C34.5811263,0.102462596 33.8895038,-0.128078246 33.2234969,0.102462596 L26.1279621,2.45910231 L19.0324273,0.0768469473 C18.3920361,-0.128078246 17.6747979,0.102462596 17.2649475,0.640391228 L12.9102871,6.73691571 L5.76352105,8.99109284 C5.12312982,9.22163368 4.68766379,9.83640926 4.68766379,10.5024161 L4.73889508,18.0078013 L0.307387789,24.0530945 C-0.102462596,24.5910231 -0.102462596,25.3594926 0.307387789,25.8974212 L4.73889508,31.9427144 L4.68766379,39.4480996 C4.68766379,40.1397221 5.12312982,40.7288821 5.76352105,40.9338073 L12.9102871,43.1879844 L17.2649475,49.2845089 C17.5723353,49.6943593 18.033417,49.9249001 18.5201143,49.9249001 C18.6738082,49.9249001 18.8531177,49.8992845 19.0068116,49.8480532 L26.1023464,47.4657978 L33.1978812,49.8480532 C33.8382725,50.0529783 34.5555106,49.8224375 34.965361,49.2845089 L39.3200214,43.1879844 L46.4667875,40.9338073 C47.1071787,40.7288821 47.5682604,40.1141065 47.5426447,39.4480996 L47.4914134,31.9427144 L51.9229207,25.8974212 C52.3583868,25.3594926 52.3583868,24.5910231 51.9485364,24.0530945 L51.9485364,24.0530945 Z M44.6993077,30.5082381 C44.4943825,30.7900102 44.3919199,31.097398 44.3919199,31.4304014 L44.4431512,38.2953954 L37.9111607,40.370263 C37.5781572,40.4727256 37.3220007,40.6776508 37.1170756,40.9594229 L33.1210343,46.5436344 L26.6146594,44.3663042 C26.3072716,44.2638417 25.9486525,44.2638417 25.6412648,44.3663042 L19.1348899,46.5436344 L15.1388486,40.9594229 C14.9339234,40.6776508 14.6521513,40.4727256 14.3447635,40.370263 L7.81277298,38.2953954 L7.86400427,31.4304014 C7.86400427,31.097398 7.76154168,30.7643946 7.55661649,30.5082381 L3.48372828,24.9752579 L7.55661649,19.4422777 C7.76154168,19.1605055 7.86400427,18.8531177 7.86400427,18.5201143 L7.81277298,11.6551203 L14.3447635,9.58025276 C14.6777669,9.47779017 14.9339234,9.27286498 15.1388486,8.99109284 L19.1348899,3.40688133 L25.6412648,5.5842115 C25.9486525,5.6866741 26.3072716,5.6866741 26.6146594,5.5842115 L33.1210343,3.40688133 L37.1170756,8.99109284 C37.3220007,9.27286498 37.6037729,9.47779017 37.9111607,9.58025276 L44.4431512,11.6551203 L44.3919199,18.5201143 C44.3919199,18.8531177 44.4943825,19.1861212 44.6993077,19.4422777 L48.7721959,24.9752579 L44.6993077,30.5082381 Z" id="Shape"></path>
                <path d="M33.7870412,18.033417 L23.2333937,28.61268 L18.468883,23.873785 C17.8541074,23.2590094 16.8807128,23.2590094 16.2659372,23.873785 C15.6511616,24.4885605 15.6511616,25.4619552 16.2659372,26.0767308 L22.1063052,31.9170988 C22.413693,32.2244866 22.7979277,32.3781805 23.2077781,32.3781805 C23.6176285,32.3781805 24.0018632,32.2244866 24.309251,31.9170988 L35.9643713,20.2363628 C36.5791469,19.6215872 36.5791469,18.6481925 35.9643713,18.033417 C35.3752114,17.4186414 34.3762011,17.4186414 33.7870412,18.033417 L33.7870412,18.033417 Z" id="Path"></path>
            </g>
        </g>
    </g>
</svg>