<?xml version="1.0" encoding="UTF-8"?>
<svg width="522px" height="277px" viewBox="0 0 522 277" version="1.1" xmlns="http://www.w3.org/2000/svg" xmlns:xlink="http://www.w3.org/1999/xlink">
    <!-- Generator: Sketch 62 (91390) - https://sketch.com -->
    <title>UXP-Page-Body-Image-2</title>
    <desc>Created with Sketch.</desc>
    <defs>
        <rect id="path-1" x="1.26323957" y="1.26323957" width="471.473521" height="162.453152" rx="13.0176768"></rect>
        <filter x="-9.1%" y="-20.4%" width="118.3%" height="153.0%" filterUnits="objectBoundingBox" id="filter-2">
            <feMorphology radius="0.575" operator="dilate" in="SourceAlpha" result="shadowSpreadOuter1"></feMorphology>
            <feOffset dx="0" dy="10" in="shadowSpreadOuter1" result="shadowOffsetOuter1"></feOffset>
            <feGaussianBlur stdDeviation="12.5" in="shadowOffsetOuter1" result="shadowBlurOuter1"></feGaussianBlur>
            <feComposite in="shadowBlurOuter1" in2="SourceAlpha" operator="out" result="shadowBlurOuter1"></feComposite>
            <feColorMatrix values="0 0 0 0 0.192156863   0 0 0 0 0.250980392   0 0 0 0 0.466666667  0 0 0 0.1 0" type="matrix" in="shadowBlurOuter1"></feColorMatrix>
        </filter>
    </defs>
    <g id="*Images" stroke="none" stroke-width="1" fill="none" fill-rule="evenodd">
        <g id="UXP-Page-Body-Image-2" transform="translate(24.000000, 0.000000)">
            <g id="Group" transform="translate(237.228904, 0.000000)" fill="#6553C0" fill-opacity="0.3" fill-rule="nonzero">
                <ellipse id="Oval-Copy-10" cx="140.257545" cy="13.408954" rx="1.91875392" ry="1.91556486"></ellipse>
                <ellipse id="Oval-Copy-49" cx="94.2074515" cy="13.408954" rx="1.91875392" ry="1.91556486"></ellipse>
                <ellipse id="Oval-Copy-43" cx="71.1824042" cy="13.408954" rx="1.91875392" ry="1.91556486"></ellipse>
                <ellipse id="Oval-Copy-47" cx="24.943801" cy="13.408954" rx="1.91875392" ry="1.91556486"></ellipse>
                <ellipse id="Oval-Copy-63" cx="82.6949279" cy="36.3957323" rx="1.91875392" ry="1.91556486"></ellipse>
                <ellipse id="Oval-Copy-65" cx="36.4563245" cy="36.3957323" rx="1.91875392" ry="1.91556486"></ellipse>
                <ellipse id="Oval-Copy-28" cx="140.257545" cy="47.8891214" rx="1.91875392" ry="1.91556486"></ellipse>
                <ellipse id="Oval-Copy-4" cx="151.770069" cy="1.91556486" rx="1.91875392" ry="1.91556486"></ellipse>
                <ellipse id="Oval-Copy-19" cx="128.745022" cy="36.3957323" rx="1.91875392" ry="1.91556486"></ellipse>
                <ellipse id="Oval-Copy-9" cx="117.232498" cy="13.408954" rx="1.91875392" ry="1.91556486"></ellipse>
                <ellipse id="Oval-Copy-16" cx="140.257545" cy="24.9023431" rx="1.91875392" ry="1.91556486"></ellipse>
                <ellipse id="Oval-Copy-14" cx="151.770069" cy="24.9023431" rx="1.91875392" ry="1.91556486"></ellipse>
                <ellipse id="Oval-Copy-39" cx="48.157357" cy="36.3957323" rx="1.91875392" ry="1.91556486"></ellipse>
                <ellipse id="Oval-Copy-41" cx="1.91875392" cy="36.3957323" rx="1.91875392" ry="1.91556486"></ellipse>
                <ellipse id="Oval" cx="105.719975" cy="1.91556486" rx="1.91875392" ry="1.91556486"></ellipse>
                <ellipse id="Oval-Copy-64" cx="82.6949279" cy="47.8891214" rx="1.91875392" ry="1.91556486"></ellipse>
                <ellipse id="Oval-Copy-66" cx="36.4563245" cy="47.8891214" rx="1.91875392" ry="1.91556486"></ellipse>
                <ellipse id="Oval-Copy-22" cx="140.257545" cy="36.3957323" rx="1.91875392" ry="1.91556486"></ellipse>
                <ellipse id="Oval-Copy-20" cx="151.770069" cy="36.3957323" rx="1.91875392" ry="1.91556486"></ellipse>
                <ellipse id="Oval-Copy-21" cx="117.232498" cy="36.3957323" rx="1.91875392" ry="1.91556486"></ellipse>
                <ellipse id="Oval-Copy-18" cx="105.719975" cy="36.3957323" rx="1.91875392" ry="1.91556486"></ellipse>
                <ellipse id="Oval-Copy-54" cx="59.6698806" cy="1.91556486" rx="1.91875392" ry="1.91556486"></ellipse>
                <ellipse id="Oval-Copy-59" cx="13.4312775" cy="1.91556486" rx="1.91875392" ry="1.91556486"></ellipse>
                <ellipse id="Oval-Copy-2" cx="128.745022" cy="1.91556486" rx="1.91875392" ry="1.91556486"></ellipse>
                <ellipse id="Oval-Copy" cx="117.232498" cy="1.91556486" rx="1.91875392" ry="1.91556486"></ellipse>
                <ellipse id="Oval-Copy-42" cx="71.1824042" cy="1.91556486" rx="1.91875392" ry="1.91556486"></ellipse>
                <ellipse id="Oval-Copy-53" cx="24.943801" cy="1.91556486" rx="1.91875392" ry="1.91556486"></ellipse>
                <ellipse id="Oval-Copy-37" cx="48.157357" cy="13.408954" rx="1.91875392" ry="1.91556486"></ellipse>
                <ellipse id="Oval-Copy-67" cx="1.91875392" cy="13.408954" rx="1.91875392" ry="1.91556486"></ellipse>
                <ellipse id="Oval-Copy-46" cx="71.1824042" cy="47.8891214" rx="1.91875392" ry="1.91556486"></ellipse>
                <ellipse id="Oval-Copy-68" cx="24.943801" cy="47.8891214" rx="1.91875392" ry="1.91556486"></ellipse>
                <ellipse id="Oval-Copy-50" cx="94.2074515" cy="24.9023431" rx="1.91875392" ry="1.91556486"></ellipse>
                <ellipse id="Oval-Copy-51" cx="94.2074515" cy="36.3957323" rx="1.91875392" ry="1.91556486"></ellipse>
                <ellipse id="Oval-Copy-25" cx="128.745022" cy="47.8891214" rx="1.91875392" ry="1.91556486"></ellipse>
                <ellipse id="Oval-Copy-15" cx="117.232498" cy="24.9023431" rx="1.91875392" ry="1.91556486"></ellipse>
                <ellipse id="Oval-Copy-12" cx="105.719975" cy="24.9023431" rx="1.91875392" ry="1.91556486"></ellipse>
                <ellipse id="Oval-Copy-56" cx="59.6698806" cy="24.9023431" rx="1.91875392" ry="1.91556486"></ellipse>
                <ellipse id="Oval-Copy-69" cx="13.4312775" cy="24.9023431" rx="1.91875392" ry="1.91556486"></ellipse>
                <ellipse id="Oval-Copy-62" cx="82.6949279" cy="24.9023431" rx="1.91875392" ry="1.91556486"></ellipse>
                <ellipse id="Oval-Copy-70" cx="36.4563245" cy="24.9023431" rx="1.91875392" ry="1.91556486"></ellipse>
                <ellipse id="Oval-Copy-58" cx="59.6698806" cy="47.8891214" rx="1.91875392" ry="1.91556486"></ellipse>
                <ellipse id="Oval-Copy-71" cx="13.4312775" cy="47.8891214" rx="1.91875392" ry="1.91556486"></ellipse>
                <ellipse id="Oval-Copy-7" cx="128.745022" cy="13.408954" rx="1.91875392" ry="1.91556486"></ellipse>
                <ellipse id="Oval-Copy-60" cx="82.6949279" cy="1.91556486" rx="1.91875392" ry="1.91556486"></ellipse>
                <ellipse id="Oval-Copy-72" cx="36.4563245" cy="1.91556486" rx="1.91875392" ry="1.91556486"></ellipse>
                <ellipse id="Oval-Copy-45" cx="71.1824042" cy="36.3957323" rx="1.91875392" ry="1.91556486"></ellipse>
                <ellipse id="Oval-Copy-73" cx="24.943801" cy="36.3957323" rx="1.91875392" ry="1.91556486"></ellipse>
                <ellipse id="Oval-Copy-44" cx="71.1824042" cy="24.9023431" rx="1.91875392" ry="1.91556486"></ellipse>
                <ellipse id="Oval-Copy-74" cx="24.943801" cy="24.9023431" rx="1.91875392" ry="1.91556486"></ellipse>
                <ellipse id="Oval-Copy-8" cx="151.770069" cy="13.408954" rx="1.91875392" ry="1.91556486"></ellipse>
                <ellipse id="Oval-Copy-26" cx="151.770069" cy="47.8891214" rx="1.91875392" ry="1.91556486"></ellipse>
                <ellipse id="Oval-Copy-55" cx="59.6698806" cy="13.408954" rx="1.91875392" ry="1.91556486"></ellipse>
                <ellipse id="Oval-Copy-75" cx="13.4312775" cy="13.408954" rx="1.91875392" ry="1.91556486"></ellipse>
                <ellipse id="Oval-Copy-3" cx="140.257545" cy="1.91556486" rx="1.91875392" ry="1.91556486"></ellipse>
                <ellipse id="Oval-Copy-57" cx="59.6698806" cy="36.3957323" rx="1.91875392" ry="1.91556486"></ellipse>
                <ellipse id="Oval-Copy-76" cx="13.4312775" cy="36.3957323" rx="1.91875392" ry="1.91556486"></ellipse>
                <ellipse id="Oval-Copy-48" cx="94.2074515" cy="1.91556486" rx="1.91875392" ry="1.91556486"></ellipse>
                <ellipse id="Oval-Copy-40" cx="48.157357" cy="47.8891214" rx="1.91875392" ry="1.91556486"></ellipse>
                <ellipse id="Oval-Copy-77" cx="1.91875392" cy="47.8891214" rx="1.91875392" ry="1.91556486"></ellipse>
                <ellipse id="Oval-Copy-38" cx="48.157357" cy="24.9023431" rx="1.91875392" ry="1.91556486"></ellipse>
                <ellipse id="Oval-Copy-80" cx="1.91875392" cy="24.9023431" rx="1.91875392" ry="1.91556486"></ellipse>
                <ellipse id="Oval-Copy-27" cx="117.232498" cy="47.8891214" rx="1.91875392" ry="1.91556486"></ellipse>
                <ellipse id="Oval-Copy-36" cx="48.157357" cy="1.91556486" rx="1.91875392" ry="1.91556486"></ellipse>
                <ellipse id="Oval-Copy-81" cx="1.91875392" cy="1.91556486" rx="1.91875392" ry="1.91556486"></ellipse>
                <ellipse id="Oval-Copy-13" cx="128.745022" cy="24.9023431" rx="1.91875392" ry="1.91556486"></ellipse>
                <ellipse id="Oval-Copy-6" cx="105.719975" cy="13.408954" rx="1.91875392" ry="1.91556486"></ellipse>
                <ellipse id="Oval-Copy-52" cx="94.2074515" cy="47.8891214" rx="1.91875392" ry="1.91556486"></ellipse>
                <ellipse id="Oval-Copy-61" cx="82.6949279" cy="13.408954" rx="1.91875392" ry="1.91556486"></ellipse>
                <ellipse id="Oval-Copy-82" cx="36.4563245" cy="13.408954" rx="1.91875392" ry="1.91556486"></ellipse>
                <ellipse id="Oval-Copy-24" cx="105.719975" cy="47.8891214" rx="1.91875392" ry="1.91556486"></ellipse>
            </g>
            <g id="Group-Copy-2" transform="translate(49.869936, 199.394498) rotate(90.000000) translate(-49.869936, -199.394498) translate(-27.041800, 174.443965)" fill="#6553C0" fill-opacity="0.3" fill-rule="nonzero">
                <ellipse id="Oval-Copy-10" cx="140.257545" cy="13.408954" rx="1.91875392" ry="1.91556486"></ellipse>
                <ellipse id="Oval-Copy-49" cx="94.2074515" cy="13.408954" rx="1.91875392" ry="1.91556486"></ellipse>
                <ellipse id="Oval-Copy-43" cx="71.1824042" cy="13.408954" rx="1.91875392" ry="1.91556486"></ellipse>
                <ellipse id="Oval-Copy-47" cx="24.943801" cy="13.408954" rx="1.91875392" ry="1.91556486"></ellipse>
                <ellipse id="Oval-Copy-63" cx="82.6949279" cy="36.3957323" rx="1.91875392" ry="1.91556486"></ellipse>
                <ellipse id="Oval-Copy-65" cx="36.4563245" cy="36.3957323" rx="1.91875392" ry="1.91556486"></ellipse>
                <ellipse id="Oval-Copy-28" cx="140.257545" cy="47.8891214" rx="1.91875392" ry="1.91556486"></ellipse>
                <ellipse id="Oval-Copy-4" cx="151.770069" cy="1.91556486" rx="1.91875392" ry="1.91556486"></ellipse>
                <ellipse id="Oval-Copy-19" cx="128.745022" cy="36.3957323" rx="1.91875392" ry="1.91556486"></ellipse>
                <ellipse id="Oval-Copy-9" cx="117.232498" cy="13.408954" rx="1.91875392" ry="1.91556486"></ellipse>
                <ellipse id="Oval-Copy-16" cx="140.257545" cy="24.9023431" rx="1.91875392" ry="1.91556486"></ellipse>
                <ellipse id="Oval-Copy-14" cx="151.770069" cy="24.9023431" rx="1.91875392" ry="1.91556486"></ellipse>
                <ellipse id="Oval-Copy-39" cx="48.157357" cy="36.3957323" rx="1.91875392" ry="1.91556486"></ellipse>
                <ellipse id="Oval-Copy-41" cx="1.91875392" cy="36.3957323" rx="1.91875392" ry="1.91556486"></ellipse>
                <ellipse id="Oval" cx="105.719975" cy="1.91556486" rx="1.91875392" ry="1.91556486"></ellipse>
                <ellipse id="Oval-Copy-64" cx="82.6949279" cy="47.8891214" rx="1.91875392" ry="1.91556486"></ellipse>
                <ellipse id="Oval-Copy-66" cx="36.4563245" cy="47.8891214" rx="1.91875392" ry="1.91556486"></ellipse>
                <ellipse id="Oval-Copy-22" cx="140.257545" cy="36.3957323" rx="1.91875392" ry="1.91556486"></ellipse>
                <ellipse id="Oval-Copy-20" cx="151.770069" cy="36.3957323" rx="1.91875392" ry="1.91556486"></ellipse>
                <ellipse id="Oval-Copy-21" cx="117.232498" cy="36.3957323" rx="1.91875392" ry="1.91556486"></ellipse>
                <ellipse id="Oval-Copy-18" cx="105.719975" cy="36.3957323" rx="1.91875392" ry="1.91556486"></ellipse>
                <ellipse id="Oval-Copy-54" cx="59.6698806" cy="1.91556486" rx="1.91875392" ry="1.91556486"></ellipse>
                <ellipse id="Oval-Copy-59" cx="13.4312775" cy="1.91556486" rx="1.91875392" ry="1.91556486"></ellipse>
                <ellipse id="Oval-Copy-2" cx="128.745022" cy="1.91556486" rx="1.91875392" ry="1.91556486"></ellipse>
                <ellipse id="Oval-Copy" cx="117.232498" cy="1.91556486" rx="1.91875392" ry="1.91556486"></ellipse>
                <ellipse id="Oval-Copy-42" cx="71.1824042" cy="1.91556486" rx="1.91875392" ry="1.91556486"></ellipse>
                <ellipse id="Oval-Copy-53" cx="24.943801" cy="1.91556486" rx="1.91875392" ry="1.91556486"></ellipse>
                <ellipse id="Oval-Copy-37" cx="48.157357" cy="13.408954" rx="1.91875392" ry="1.91556486"></ellipse>
                <ellipse id="Oval-Copy-67" cx="1.91875392" cy="13.408954" rx="1.91875392" ry="1.91556486"></ellipse>
                <ellipse id="Oval-Copy-46" cx="71.1824042" cy="47.8891214" rx="1.91875392" ry="1.91556486"></ellipse>
                <ellipse id="Oval-Copy-68" cx="24.943801" cy="47.8891214" rx="1.91875392" ry="1.91556486"></ellipse>
                <ellipse id="Oval-Copy-50" cx="94.2074515" cy="24.9023431" rx="1.91875392" ry="1.91556486"></ellipse>
                <ellipse id="Oval-Copy-51" cx="94.2074515" cy="36.3957323" rx="1.91875392" ry="1.91556486"></ellipse>
                <ellipse id="Oval-Copy-25" cx="128.745022" cy="47.8891214" rx="1.91875392" ry="1.91556486"></ellipse>
                <ellipse id="Oval-Copy-15" cx="117.232498" cy="24.9023431" rx="1.91875392" ry="1.91556486"></ellipse>
                <ellipse id="Oval-Copy-12" cx="105.719975" cy="24.9023431" rx="1.91875392" ry="1.91556486"></ellipse>
                <ellipse id="Oval-Copy-56" cx="59.6698806" cy="24.9023431" rx="1.91875392" ry="1.91556486"></ellipse>
                <ellipse id="Oval-Copy-69" cx="13.4312775" cy="24.9023431" rx="1.91875392" ry="1.91556486"></ellipse>
                <ellipse id="Oval-Copy-62" cx="82.6949279" cy="24.9023431" rx="1.91875392" ry="1.91556486"></ellipse>
                <ellipse id="Oval-Copy-70" cx="36.4563245" cy="24.9023431" rx="1.91875392" ry="1.91556486"></ellipse>
                <ellipse id="Oval-Copy-58" cx="59.6698806" cy="47.8891214" rx="1.91875392" ry="1.91556486"></ellipse>
                <ellipse id="Oval-Copy-71" cx="13.4312775" cy="47.8891214" rx="1.91875392" ry="1.91556486"></ellipse>
                <ellipse id="Oval-Copy-7" cx="128.745022" cy="13.408954" rx="1.91875392" ry="1.91556486"></ellipse>
                <ellipse id="Oval-Copy-60" cx="82.6949279" cy="1.91556486" rx="1.91875392" ry="1.91556486"></ellipse>
                <ellipse id="Oval-Copy-72" cx="36.4563245" cy="1.91556486" rx="1.91875392" ry="1.91556486"></ellipse>
                <ellipse id="Oval-Copy-45" cx="71.1824042" cy="36.3957323" rx="1.91875392" ry="1.91556486"></ellipse>
                <ellipse id="Oval-Copy-73" cx="24.943801" cy="36.3957323" rx="1.91875392" ry="1.91556486"></ellipse>
                <ellipse id="Oval-Copy-44" cx="71.1824042" cy="24.9023431" rx="1.91875392" ry="1.91556486"></ellipse>
                <ellipse id="Oval-Copy-74" cx="24.943801" cy="24.9023431" rx="1.91875392" ry="1.91556486"></ellipse>
                <ellipse id="Oval-Copy-8" cx="151.770069" cy="13.408954" rx="1.91875392" ry="1.91556486"></ellipse>
                <ellipse id="Oval-Copy-26" cx="151.770069" cy="47.8891214" rx="1.91875392" ry="1.91556486"></ellipse>
                <ellipse id="Oval-Copy-55" cx="59.6698806" cy="13.408954" rx="1.91875392" ry="1.91556486"></ellipse>
                <ellipse id="Oval-Copy-75" cx="13.4312775" cy="13.408954" rx="1.91875392" ry="1.91556486"></ellipse>
                <ellipse id="Oval-Copy-3" cx="140.257545" cy="1.91556486" rx="1.91875392" ry="1.91556486"></ellipse>
                <ellipse id="Oval-Copy-57" cx="59.6698806" cy="36.3957323" rx="1.91875392" ry="1.91556486"></ellipse>
                <ellipse id="Oval-Copy-76" cx="13.4312775" cy="36.3957323" rx="1.91875392" ry="1.91556486"></ellipse>
                <ellipse id="Oval-Copy-48" cx="94.2074515" cy="1.91556486" rx="1.91875392" ry="1.91556486"></ellipse>
                <ellipse id="Oval-Copy-40" cx="48.157357" cy="47.8891214" rx="1.91875392" ry="1.91556486"></ellipse>
                <ellipse id="Oval-Copy-77" cx="1.91875392" cy="47.8891214" rx="1.91875392" ry="1.91556486"></ellipse>
                <ellipse id="Oval-Copy-38" cx="48.157357" cy="24.9023431" rx="1.91875392" ry="1.91556486"></ellipse>
                <ellipse id="Oval-Copy-80" cx="1.91875392" cy="24.9023431" rx="1.91875392" ry="1.91556486"></ellipse>
                <ellipse id="Oval-Copy-27" cx="117.232498" cy="47.8891214" rx="1.91875392" ry="1.91556486"></ellipse>
                <ellipse id="Oval-Copy-36" cx="48.157357" cy="1.91556486" rx="1.91875392" ry="1.91556486"></ellipse>
                <ellipse id="Oval-Copy-81" cx="1.91875392" cy="1.91556486" rx="1.91875392" ry="1.91556486"></ellipse>
                <ellipse id="Oval-Copy-13" cx="128.745022" cy="24.9023431" rx="1.91875392" ry="1.91556486"></ellipse>
                <ellipse id="Oval-Copy-6" cx="105.719975" cy="13.408954" rx="1.91875392" ry="1.91556486"></ellipse>
                <ellipse id="Oval-Copy-52" cx="94.2074515" cy="47.8891214" rx="1.91875392" ry="1.91556486"></ellipse>
                <ellipse id="Oval-Copy-61" cx="82.6949279" cy="13.408954" rx="1.91875392" ry="1.91556486"></ellipse>
                <ellipse id="Oval-Copy-82" cx="36.4563245" cy="13.408954" rx="1.91875392" ry="1.91556486"></ellipse>
                <ellipse id="Oval-Copy-24" cx="105.719975" cy="47.8891214" rx="1.91875392" ry="1.91556486"></ellipse>
            </g>
            <g id="Group-Copy" transform="translate(0.000000, 55.768186)">
                <g id="Rectangle" fill-rule="nonzero">
                    <use fill="black" fill-opacity="1" filter="url(#filter-2)" xlink:href="#path-1"></use>
                    <use stroke="#D2DCEA" stroke-width="1.15" fill="#FFFFFF" xlink:href="#path-1"></use>
                </g>
                <path d="M3.81409499,0.231813773 L37,0.231813773 L37,0.231813773 L37,164.231814 L3.81409499,164.231814 C1.70762849,164.231814 0,162.534291 0,160.440291 L0,4.02333667 C0,1.9293364 1.70762849,0.231813773 3.81409499,0.231813773 Z" id="Rectangle" fill="#263B67" fill-rule="nonzero"></path>
                <rect id="Rectangle" fill="#505A72" fill-rule="nonzero" x="15.3030303" y="22.8631213" width="8.34343435" height="55.2540702" rx="4.17171718"></rect>
                <text id="provider.pkg.crossplane.io/upbound-provider-aws" fill="#333F5B" font-family="Avenir-Medium, Avenir" font-size="10.299663" font-weight="400">
                    <tspan x="60.1986534" y="87.3276503">provider.pkg.crossplane.io/upbound-provider-aws</tspan>
                </text>
                <text id="provider.pkg.crossplane.io/upbound-provider-gcp" fill="#333F5B" font-family="Avenir-Medium, Avenir" font-size="10.299663" font-weight="400">
                    <tspan x="60.1989648" y="104.247467">provider.pkg.crossplane.io/upbound-provider-gcp</tspan>
                </text>
                <text id="provider.pkg.crosspl" fill="#333F5B" font-family="Avenir-Medium, Avenir" font-size="10.299663" font-weight="400">
                    <tspan x="60.1986964" y="121.097772">provider.pkg.crossplane.io/upbound-provider-azure</tspan>
                </text>
                <text id="NAME" fill="#333F5B" font-family="Avenir-Medium, Avenir" font-size="10.299663" font-weight="400">
                    <tspan x="60.1986534" y="69.5210658">NAME</tspan>
                </text>
                <text id="True" fill="#6553C0" font-family="Avenir-Medium, Avenir" font-size="10.299663" font-weight="400">
                    <tspan x="319.242424" y="87.4320571">True</tspan>
                </text>
                <text id="True" fill="#6553C0" font-family="Avenir-Medium, Avenir" font-size="10.299663" font-weight="400">
                    <tspan x="319.243069" y="104.342755">True</tspan>
                </text>
                <text id="True" fill="#6553C0" font-family="Avenir-Medium, Avenir" font-size="10.299663" font-weight="400">
                    <tspan x="319.243069" y="121.193061">True</tspan>
                </text>
                <text id="INSTALLED" fill="#333F5B" font-family="Avenir-Medium, Avenir" font-size="10.299663" font-weight="400">
                    <tspan x="319.242424" y="69.5210658">INSTALLED</tspan>
                </text>
                <text id="HEALTHY" fill="#333F5B" font-family="Avenir-Medium, Avenir" font-size="10.299663" font-weight="400">
                    <tspan x="385.592593" y="69.5210658">HEALTHY</tspan>
                </text>
                <text id="True" fill="#6553C0" font-family="Avenir-Medium, Avenir" font-size="10.299663" font-weight="400">
                    <tspan x="385.592593" y="87.4320571">True</tspan>
                </text>
                <text id="True" fill="#6553C0" font-family="Avenir-Medium, Avenir" font-size="10.299663" font-weight="400">
                    <tspan x="385.592925" y="104.342755">True</tspan>
                </text>
                <text id="True" fill="#6553C0" font-family="Avenir-Medium, Avenir" font-size="10.299663" font-weight="400">
                    <tspan x="385.592925" y="121.193061">True</tspan>
                </text>
                <text id="(up)-kubectl-get-pkg" fill="#333F5B" font-family="Avenir-Medium, Avenir" font-size="10.299663" font-weight="400">
                    <tspan x="60.1986534" y="50.416009">(up) kubectl get pkg</tspan>
                </text>
            </g>
        </g>
    </g>
</svg>