<?xml version="1.0" encoding="UTF-8"?>
<svg width="163px" height="109px" viewBox="0 0 163 109" version="1.1" xmlns="http://www.w3.org/2000/svg" xmlns:xlink="http://www.w3.org/1999/xlink">
    <!-- Generator: Sketch 62 (91390) - https://sketch.com -->
    <title>Group 16 Copy 5</title>
    <desc>Created with Sketch.</desc>
    <defs>
        <path d="M0.371011783,24.8823417 C0.335026798,25.7113143 0.336847373,26.5414963 0.376467838,27.3703031 C0.365555727,27.5830892 0.343731505,27.7931474 0.343731505,28.0086616 L0.343731505,69.9193529 C0.343731505,77.9342986 6.8855422,84.4924774 14.8813917,84.4924774 L36.7601748,84.4924774 C44.7532963,84.4924774 51.297835,77.9342986 51.297835,69.9193529 L51.297835,28.0086616 C51.297835,27.7631391 51.2705547,27.5285287 51.2596426,27.2884622 C51.299357,26.4869354 51.3002674,25.6839565 51.2623706,24.8823417 C50.6458364,11.3294995 39.4882026,0.534693451 25.8180552,0.534693451 C12.1451798,0.534693451 0.987546068,11.3294995 0.371011783,24.8796137 L0.371011783,24.8823417 Z" id="path-1"></path>
        <path d="M0.371011783,24.8823417 C0.335026798,25.7113143 0.336847373,26.5414963 0.376467838,27.3703031 C0.365555727,27.5830892 0.343731505,27.7931474 0.343731505,28.0086616 L0.343731505,69.9193529 C0.343731505,77.9342986 6.8855422,84.4924774 14.8813917,84.4924774 L36.7601748,84.4924774 C44.7532963,84.4924774 51.297835,77.9342986 51.297835,69.9193529 L51.297835,28.0086616 C51.297835,27.7631391 51.2705547,27.5285287 51.2596426,27.2884622 C51.299357,26.4869354 51.3002674,25.6839565 51.2623706,24.8823417 C50.6458364,11.3294995 39.4882026,0.534693451 25.8180552,0.534693451 C12.1451798,0.534693451 0.987546068,11.3294995 0.371011783,24.8796137 L0.371011783,24.8823417 Z" id="path-3"></path>
        <path d="M0.371011783,24.8823417 C0.335026798,25.7113143 0.336847373,26.5414963 0.376467838,27.3703031 C0.365555727,27.5830892 0.343731505,27.7931474 0.343731505,28.0086616 L0.343731505,69.9193529 C0.343731505,77.9342986 6.8855422,84.4924774 14.8813917,84.4924774 L36.7601748,84.4924774 C44.7532963,84.4924774 51.297835,77.9342986 51.297835,69.9193529 L51.297835,28.0086616 C51.297835,27.7631391 51.2705547,27.5285287 51.2596426,27.2884622 C51.299357,26.4869354 51.3002674,25.6839565 51.2623706,24.8823417 C50.6458364,11.3294995 39.4882026,0.534693451 25.8180552,0.534693451 C12.1451798,0.534693451 0.987546068,11.3294995 0.371011783,24.8796137 L0.371011783,24.8823417 Z" id="path-5"></path>
    </defs>
    <g id="*Images" stroke="none" stroke-width="1" fill="none" fill-rule="evenodd">
        <g id="Group-16-Copy-5" transform="translate(-49.000000, 0.000000)">
            <rect id="Rectangle-21-Copy-2" x="0" y="12" width="210.671988" height="76" rx="8"></rect>
            <text id="+" font-family="Avenir-Black, Avenir" font-size="66.372569" font-weight="700" fill="#FFFFFF">
                <tspan x="46.135217" y="70.82622">+</tspan>
            </text>
            <g id="Group-16" transform="translate(160.000000, 0.000000)">
                <path d="M25.5097881,35.1833747 C21.9803359,35.1893964 19.1231864,38.053872 19.1261977,41.583328 L19.1261977,101.818182 C19.1240311,103.513385 19.7953656,105.14002 20.9925203,106.340244 C22.189675,107.540468 23.8145851,108.215966 25.5097881,108.218135 C29.037128,108.218135 31.8961036,105.353706 31.8961036,101.818182 L31.8961036,41.583328 C31.8991178,38.053872 29.0419683,35.1893964 25.5125161,35.1833747" id="Path" fill="#F7D186" fill-rule="nonzero"></path>
                <path d="M51.1341533,27.2884622 C51.1711942,26.4868497 51.1711942,25.6839542 51.1341533,24.8823417 C50.5230751,11.3294995 39.3654413,0.531965424 25.6925659,0.531965424 C12.0196905,0.531965424 0.862056789,11.3294995 0.245522503,24.8823417 C0.206739001,25.7112307 0.207649385,26.5415011 0.248250531,27.3703031 C0.240066448,27.5830892 0.218242225,27.7931474 0.218242225,28.0086616 L0.218242225,69.9193529 C0.218242225,77.9342986 6.76005292,84.4924774 14.7559024,84.4924774 L36.6346855,84.4924774 C44.627807,84.4924774 51.1696177,77.9342986 51.1696177,69.9193529 L51.1696177,28.0086616 C51.1696177,27.7631391 51.1450654,27.5285287 51.1341533,27.2884622" id="Path" fill="#FF9234" fill-rule="nonzero"></path>
                <g id="Group" transform="translate(0.000000, 0.000000)">
                    <g id="Clipped">
                        <mask id="mask-2" fill="white">
                            <use xlink:href="#path-1"></use>
                        </mask>
                        <g id="a"></g>
                        <polygon id="Path" fill="#FFCD3C" fill-rule="nonzero" mask="url(#mask-2)" points="66.5638787 25.6816538 3.37457041 89.0210036 -15.3397004 70.2603563 47.8468798 6.92100656"></polygon>
                    </g>
                </g>
                <g id="Group" transform="translate(0.000000, 0.000000)">
                    <g id="Clipped">
                        <mask id="mask-4" fill="white">
                            <use xlink:href="#path-3"></use>
                        </mask>
                        <g id="c"></g>
                        <polygon id="Path" fill="#F3807B" fill-rule="nonzero" mask="url(#mask-4)" points="47.7895912 6.86098995 -15.396989 70.2003397 -38.6834344 46.8566057 24.4976898 -16.482744"></polygon>
                    </g>
                </g>
                <g id="Group" transform="translate(0.000000, 0.000000)">
                    <g id="Clipped">
                        <mask id="mask-6" fill="white">
                            <use xlink:href="#path-5"></use>
                        </mask>
                        <g id="e"></g>
                        <polygon id="Path" fill="#35D0BA" fill-rule="nonzero" mask="url(#mask-6)" points="85.3381661 44.5023177 22.1515858 107.838939 3.43731505 89.0782922 66.6238953 25.7416704"></polygon>
                    </g>
                </g>
                <polyline id="Path" fill="#D8AE64" fill-rule="nonzero" points="20.8585007 84.5634062 31.9342936 95.6664794 31.9342936 84.4706532 20.8585007 84.5634062"></polyline>
            </g>
        </g>
    </g>
</svg>