<?xml version="1.0" encoding="UTF-8"?>
<svg width="472px" height="186px" viewBox="0 0 472 186" version="1.1" xmlns="http://www.w3.org/2000/svg" xmlns:xlink="http://www.w3.org/1999/xlink">
    <!-- Generator: Sketch 62 (91390) - https://sketch.com -->
    <title>Group 18</title>
    <desc>Created with Sketch.</desc>
    <g id="*Images" stroke="none" stroke-width="1" fill="none" fill-rule="evenodd">
        <g id="Group-18" fill-rule="nonzero">
            <g id="Standard-White" fill="#6550BE">
                <path d="M42.0674157,31.4592794 L41.9176902,46.6171988 C41.9176902,61.1667491 27.6039342,64.1206376 22.6180757,64.1206376 C12.2570723,64.1133079 3.50561798,57.9343301 3.50561798,46.6171988 L3.50561798,30.601699 C3.50561798,27.0614305 5.59428844,24.9358035 8.97059803,24.9358035 C12.3469077,24.9358035 14.5104409,27.0614305 14.5104409,30.601699 L14.5104409,45.3931309 C14.5104409,51.1323238 17.5049505,54.2767858 22.6180757,54.2767858 C28.0830558,54.2767858 31.0625929,51.6014276 31.0625929,45.3931309 L31.0625929,31.4666092 C31.0625929,27.9336706 33.1512633,25.8080436 36.6099219,25.8080436 C40.0685806,25.8080436 42.0674157,27.9263408 42.0674157,31.4592794 Z" id="Path"></path>
                <path d="M223.191011,30.601699 L223.033799,46.6171988 C223.033799,61.1667491 208.720043,64.1206376 203.741672,64.1206376 C193.380668,64.1206376 184.629214,57.9416599 184.629214,46.6171988 L184.629214,30.601699 C184.629214,27.0614305 186.717884,24.9358035 190.094193,24.9358035 C193.470503,24.9358035 195.634036,27.0614305 195.634036,30.601699 L195.634036,45.3931309 C195.634036,51.1323238 198.628546,54.2767858 203.741672,54.2767858 C209.206651,54.2767858 212.186188,51.6014276 212.186188,45.3931309 L212.186188,30.601699 C212.186188,27.0614305 214.274859,24.9358035 217.726031,24.9358035 C221.177203,24.9358035 223.191011,27.0614305 223.191011,30.601699 Z" id="Path"></path>
                <path d="M88.2247188,44.6204316 C88.2247188,56.5738929 80.7569962,64.3123395 69.4684019,64.3123395 C64.3537305,64.3123395 60.2150837,62.5943025 57.4534637,59.6241367 L57.2794439,59.6241367 L57.2794439,72.6695707 C57.2794439,76.1857228 55.1760731,78.3696682 51.6805432,78.3696682 C48.1850133,78.3696682 46.1573034,76.1857228 46.1573034,72.6695707 L46.1573034,31.0290112 C46.1573034,27.5128591 48.2682402,25.4017119 51.6805432,25.4017119 C54.706976,25.4017119 56.7119877,26.9668727 57.2037831,29.7040844 L57.3626708,29.7040844 C60.1242907,26.6538406 64.2629375,24.9358035 69.4684019,24.9358035 C80.7494301,24.9358035 88.2247188,32.6669704 88.2247188,44.6204316 Z M76.8755961,44.6204316 C76.8755961,38.6873798 72.8958371,34.7053194 67.2137095,34.7053194 C61.5315819,34.7053194 57.2794439,38.8402561 57.2794439,44.6204316 C57.2794439,50.4006071 61.4256568,54.5428237 67.1910113,54.5428237 C72.9563657,54.5428237 76.8755961,50.4806852 76.8755961,44.6204316 Z" id="Shape"></path>
                <path d="M134.382023,44.1109672 C134.382023,56.257318 126.906734,64.1206376 115.625706,64.1206376 C110.427807,64.1206376 106.28916,62.3748771 103.519974,59.1940423 L103.35352,59.1940423 C103.022693,61.8454529 100.640839,63.7887498 97.913507,63.6324165 C94.4255437,63.6324165 92.3146065,61.4132294 92.3146065,57.8403381 L92.3146065,12.9165936 C92.3146065,9.3437024 94.4255437,7.1245153 97.913507,7.1245153 C101.401471,7.1245153 103.436748,9.3437024 103.436748,12.9165936 L103.436748,28.9539192 L103.595635,28.9539192 C106.281594,25.8544545 110.405109,24.108694 115.61814,24.108694 C126.906734,24.108694 134.382023,31.9646164 134.382023,44.1109672 Z M123.032899,44.1109672 C123.032899,38.0821755 119.05314,34.0358577 113.371013,34.0358577 C107.688885,34.0358577 103.467012,38.2375186 103.467012,44.1109672 C103.467012,49.9844157 107.605658,54.193474 113.371013,54.193474 C119.136368,54.193474 123.010201,50.0657859 123.010201,44.1109672 L123.032899,44.1109672 Z" id="Shape"></path>
                <path d="M159.456676,24.9358035 C171.978264,24.9358035 180.539326,32.8742667 180.539326,44.5100962 C180.539326,56.1459258 171.978264,64.1206376 159.456676,64.1206376 C146.935088,64.1206376 138.47191,56.1314263 138.47191,44.5390952 C138.47191,32.946764 147.010383,24.9358035 159.456676,24.9358035 Z M159.456676,54.4204881 C165.269464,54.4204881 169.245049,50.3751344 169.245049,44.5390952 C169.245049,38.7030561 165.284523,34.664952 159.456676,34.664952 C153.628829,34.664952 149.766187,38.6305587 149.766187,44.5390952 C149.766187,50.4476317 153.719184,54.4204881 159.456676,54.4204881 Z" id="Shape"></path>
                <path d="M265.842697,42.401798 L265.842697,58.3792969 C265.842697,61.9208902 263.766922,64.1206376 260.329617,64.1206376 C256.892312,64.1206376 254.905818,61.9208902 254.905818,58.3792969 L254.905818,43.6629866 C254.905818,37.8409884 252.190198,34.776007 246.92264,34.776007 C241.409561,34.776007 238.217778,38.4422527 238.217778,44.6895354 L238.217778,58.3792969 C238.217778,61.9208902 236.142003,64.1206376 232.704698,64.1206376 C229.267393,64.1206376 227.280899,61.9208902 227.280899,58.3792969 L227.280899,31.1537563 C227.280899,27.6121629 229.356674,25.405083 232.704698,25.405083 C235.355636,25.2346245 237.705191,27.074406 238.135937,29.657928 L238.299618,29.657928 C240.933398,26.5856141 244.765025,24.9358035 249.794501,24.9358035 C260.262656,24.9358035 265.842697,31.0730989 265.842697,42.401798 Z" id="Path"></path>
                <path d="M312,12.915842 L312,57.8411531 C312,61.4135808 309.889063,63.6324798 306.393533,63.6324798 C303.667462,63.7850573 301.287882,61.8438666 300.953521,59.1946816 L300.794633,59.1946816 C298.033013,62.3751037 293.894366,64.1206376 288.688902,64.1206376 C277.400307,64.1206376 269.932584,56.2583384 269.932584,44.1135639 C269.932584,31.9687893 277.400307,24.1434716 288.688902,24.1434716 C293.8868,24.1434716 298.025447,25.8890056 300.70384,28.9880681 L300.870294,28.9880681 L300.870294,12.915842 C300.870294,9.34341441 302.98123,7.1245153 306.385967,7.1245153 C309.790704,7.1245153 312,9.34341441 312,12.915842 Z M300.87786,44.1061675 C300.87786,38.2334811 296.731647,34.0323654 290.966292,34.0323654 C285.200938,34.0323654 281.304405,38.0781582 281.304405,44.1061675 C281.304405,50.1341768 285.306863,54.1873659 290.966292,54.1873659 C296.625721,54.1873659 300.87786,49.9862502 300.87786,44.1061675 Z" id="Shape"></path>
                <ellipse id="Oval" cx="8.76404498" cy="8.90564408" rx="8.76404498" ry="8.90564408"></ellipse>
            </g>
            <g id="Group-2-Copy" transform="translate(251.000000, 102.000000)" fill="#6553C0" fill-opacity="0.3">
                <ellipse id="Oval-Copy-49" cx="159.011364" cy="22.499937" rx="3.23863636" ry="3.21427672"></ellipse>
                <ellipse id="Oval-Copy-43" cx="120.147727" cy="22.499937" rx="3.23863636" ry="3.21427672"></ellipse>
                <ellipse id="Oval-Copy-47" cx="42.1022727" cy="22.499937" rx="3.23863636" ry="3.21427672"></ellipse>
                <ellipse id="Oval-Copy-63" cx="139.579546" cy="61.0712576" rx="3.23863636" ry="3.21427672"></ellipse>
                <ellipse id="Oval-Copy-65" cx="61.5340909" cy="61.0712576" rx="3.23863636" ry="3.21427672"></ellipse>
                <ellipse id="Oval-Copy-19" cx="217.306818" cy="61.0712576" rx="3.23863636" ry="3.21427672"></ellipse>
                <ellipse id="Oval-Copy-9" cx="197.875" cy="22.499937" rx="3.23863636" ry="3.21427672"></ellipse>
                <ellipse id="Oval-Copy-39" cx="81.2840905" cy="61.0712576" rx="3.23863636" ry="3.21427672"></ellipse>
                <ellipse id="Oval-Copy-41" cx="3.23863636" cy="61.0712576" rx="3.23863636" ry="3.21427672"></ellipse>
                <ellipse id="Oval" cx="178.443182" cy="3.21427672" rx="3.23863636" ry="3.21427672"></ellipse>
                <ellipse id="Oval-Copy-64" cx="139.579546" cy="80.3569178" rx="3.23863636" ry="3.21427672"></ellipse>
                <ellipse id="Oval-Copy-66" cx="61.5340909" cy="80.3569178" rx="3.23863636" ry="3.21427672"></ellipse>
                <ellipse id="Oval-Copy-21" cx="197.875" cy="61.0712576" rx="3.23863636" ry="3.21427672"></ellipse>
                <ellipse id="Oval-Copy-18" cx="178.443182" cy="61.0712576" rx="3.23863636" ry="3.21427672"></ellipse>
                <ellipse id="Oval-Copy-54" cx="100.715909" cy="3.21427672" rx="3.23863636" ry="3.21427672"></ellipse>
                <ellipse id="Oval-Copy-59" cx="22.6704546" cy="3.21427672" rx="3.23863636" ry="3.21427672"></ellipse>
                <ellipse id="Oval-Copy-2" cx="217.306818" cy="3.21427672" rx="3.23863636" ry="3.21427672"></ellipse>
                <ellipse id="Oval-Copy" cx="197.875" cy="3.21427672" rx="3.23863636" ry="3.21427672"></ellipse>
                <ellipse id="Oval-Copy-42" cx="120.147727" cy="3.21427672" rx="3.23863636" ry="3.21427672"></ellipse>
                <ellipse id="Oval-Copy-53" cx="42.1022727" cy="3.21427672" rx="3.23863636" ry="3.21427672"></ellipse>
                <ellipse id="Oval-Copy-37" cx="81.2840905" cy="22.499937" rx="3.23863636" ry="3.21427672"></ellipse>
                <ellipse id="Oval-Copy-67" cx="3.23863636" cy="22.499937" rx="3.23863636" ry="3.21427672"></ellipse>
                <ellipse id="Oval-Copy-46" cx="120.147727" cy="80.3569178" rx="3.23863636" ry="3.21427672"></ellipse>
                <ellipse id="Oval-Copy-68" cx="42.1022727" cy="80.3569178" rx="3.23863636" ry="3.21427672"></ellipse>
                <ellipse id="Oval-Copy-50" cx="159.011364" cy="41.7855973" rx="3.23863636" ry="3.21427672"></ellipse>
                <ellipse id="Oval-Copy-51" cx="159.011364" cy="61.0712576" rx="3.23863636" ry="3.21427672"></ellipse>
                <ellipse id="Oval-Copy-25" cx="217.306818" cy="80.3569178" rx="3.23863636" ry="3.21427672"></ellipse>
                <ellipse id="Oval-Copy-15" cx="197.875" cy="41.7855973" rx="3.23863636" ry="3.21427672"></ellipse>
                <ellipse id="Oval-Copy-12" cx="178.443182" cy="41.7855973" rx="3.23863636" ry="3.21427672"></ellipse>
                <ellipse id="Oval-Copy-56" cx="100.715909" cy="41.7855973" rx="3.23863636" ry="3.21427672"></ellipse>
                <ellipse id="Oval-Copy-69" cx="22.6704545" cy="41.7855973" rx="3.23863636" ry="3.21427672"></ellipse>
                <ellipse id="Oval-Copy-62" cx="139.579546" cy="41.7855973" rx="3.23863636" ry="3.21427672"></ellipse>
                <ellipse id="Oval-Copy-70" cx="61.5340909" cy="41.7855973" rx="3.23863636" ry="3.21427672"></ellipse>
                <ellipse id="Oval-Copy-58" cx="100.715909" cy="80.3569178" rx="3.23863636" ry="3.21427672"></ellipse>
                <ellipse id="Oval-Copy-71" cx="22.6704546" cy="80.3569178" rx="3.23863636" ry="3.21427672"></ellipse>
                <ellipse id="Oval-Copy-7" cx="217.306818" cy="22.499937" rx="3.23863636" ry="3.21427672"></ellipse>
                <ellipse id="Oval-Copy-60" cx="139.579546" cy="3.21427672" rx="3.23863636" ry="3.21427672"></ellipse>
                <ellipse id="Oval-Copy-72" cx="61.5340909" cy="3.21427672" rx="3.23863636" ry="3.21427672"></ellipse>
                <ellipse id="Oval-Copy-45" cx="120.147727" cy="61.0712576" rx="3.23863636" ry="3.21427672"></ellipse>
                <ellipse id="Oval-Copy-73" cx="42.1022727" cy="61.0712576" rx="3.23863636" ry="3.21427672"></ellipse>
                <ellipse id="Oval-Copy-44" cx="120.147727" cy="41.7855973" rx="3.23863636" ry="3.21427672"></ellipse>
                <ellipse id="Oval-Copy-74" cx="42.1022727" cy="41.7855973" rx="3.23863636" ry="3.21427672"></ellipse>
                <ellipse id="Oval-Copy-55" cx="100.715909" cy="22.499937" rx="3.23863636" ry="3.21427672"></ellipse>
                <ellipse id="Oval-Copy-75" cx="22.6704546" cy="22.499937" rx="3.23863636" ry="3.21427672"></ellipse>
                <ellipse id="Oval-Copy-57" cx="100.715909" cy="61.0712576" rx="3.23863636" ry="3.21427672"></ellipse>
                <ellipse id="Oval-Copy-76" cx="22.6704546" cy="61.0712576" rx="3.23863636" ry="3.21427672"></ellipse>
                <ellipse id="Oval-Copy-48" cx="159.011364" cy="3.21427672" rx="3.23863636" ry="3.21427672"></ellipse>
                <ellipse id="Oval-Copy-40" cx="81.2840905" cy="80.3569178" rx="3.23863636" ry="3.21427672"></ellipse>
                <ellipse id="Oval-Copy-77" cx="3.23863636" cy="80.3569178" rx="3.23863636" ry="3.21427672"></ellipse>
                <ellipse id="Oval-Copy-38" cx="81.2840905" cy="41.7855973" rx="3.23863636" ry="3.21427672"></ellipse>
                <ellipse id="Oval-Copy-80" cx="3.23863636" cy="41.7855973" rx="3.23863636" ry="3.21427672"></ellipse>
                <ellipse id="Oval-Copy-27" cx="197.875" cy="80.3569178" rx="3.23863636" ry="3.21427672"></ellipse>
                <ellipse id="Oval-Copy-36" cx="81.2840905" cy="3.21427672" rx="3.23863636" ry="3.21427672"></ellipse>
                <ellipse id="Oval-Copy-81" cx="3.23863636" cy="3.21427672" rx="3.23863636" ry="3.21427672"></ellipse>
                <ellipse id="Oval-Copy-13" cx="217.306818" cy="41.7855973" rx="3.23863636" ry="3.21427672"></ellipse>
                <ellipse id="Oval-Copy-6" cx="178.443182" cy="22.499937" rx="3.23863636" ry="3.21427672"></ellipse>
                <ellipse id="Oval-Copy-52" cx="159.011364" cy="80.3569178" rx="3.23863636" ry="3.21427672"></ellipse>
                <ellipse id="Oval-Copy-61" cx="139.579546" cy="22.499937" rx="3.23863636" ry="3.21427672"></ellipse>
                <ellipse id="Oval-Copy-82" cx="61.5340909" cy="22.499937" rx="3.23863636" ry="3.21427672"></ellipse>
                <ellipse id="Oval-Copy-24" cx="178.443182" cy="80.3569178" rx="3.23863636" ry="3.21427672"></ellipse>
            </g>
        </g>
    </g>
</svg>