<?xml version="1.0" encoding="UTF-8"?>
<svg width="1031px" height="606px" viewBox="0 0 1031 606" version="1.1" xmlns="http://www.w3.org/2000/svg" xmlns:xlink="http://www.w3.org/1999/xlink">
    <title>UXP-Page-Body-Image-2</title>
    <g id="UXP-Page-Body-Image-2" stroke="none" stroke-width="1" fill="none" fill-rule="evenodd">
        <g id="Group-2" transform="translate(0.000000, 3.000000)">
            <g id="Group" transform="translate(516.000000, 0.000000)" fill="#6553C0" fill-opacity="0.3">
                <ellipse id="Oval-Copy-10" transform="translate(306.367647, 29.289474) rotate(-360.000000) translate(-306.367647, -29.289474) " cx="306.367647" cy="29.2894737" rx="4.19117647" ry="4.18421053"></ellipse>
                <ellipse id="Oval-Copy-49" transform="translate(205.779412, 29.289474) rotate(-360.000000) translate(-205.779412, -29.289474) " cx="205.779412" cy="29.2894737" rx="4.19117647" ry="4.18421053"></ellipse>
                <ellipse id="Oval-Copy-43" transform="translate(155.485294, 29.289474) rotate(-360.000000) translate(-155.485294, -29.289474) " cx="155.485294" cy="29.2894737" rx="4.19117647" ry="4.18421053"></ellipse>
                <ellipse id="Oval-Copy-47" transform="translate(54.485294, 29.289474) rotate(-360.000000) translate(-54.485294, -29.289474) " cx="54.4852941" cy="29.2894737" rx="4.19117647" ry="4.18421053"></ellipse>
                <ellipse id="Oval-Copy-63" transform="translate(180.632353, 79.500000) rotate(-360.000000) translate(-180.632353, -79.500000) " cx="180.632353" cy="79.5" rx="4.19117647" ry="4.18421053"></ellipse>
                <ellipse id="Oval-Copy-65" transform="translate(79.632353, 79.500000) rotate(-360.000000) translate(-79.632353, -79.500000) " cx="79.6323529" cy="79.5" rx="4.19117647" ry="4.18421053"></ellipse>
                <ellipse id="Oval-Copy-28" transform="translate(306.367647, 104.605263) rotate(-360.000000) translate(-306.367647, -104.605263) " cx="306.367647" cy="104.605263" rx="4.19117647" ry="4.18421053"></ellipse>
                <ellipse id="Oval-Copy-4" transform="translate(331.514706, 4.184211) rotate(-360.000000) translate(-331.514706, -4.184211) " cx="331.514706" cy="4.18421053" rx="4.19117647" ry="4.18421053"></ellipse>
                <ellipse id="Oval-Copy-19" transform="translate(281.220588, 79.500000) rotate(-360.000000) translate(-281.220588, -79.500000) " cx="281.220588" cy="79.5" rx="4.19117647" ry="4.18421053"></ellipse>
                <ellipse id="Oval-Copy-9" transform="translate(256.073529, 29.289474) rotate(-360.000000) translate(-256.073529, -29.289474) " cx="256.073529" cy="29.2894737" rx="4.19117647" ry="4.18421053"></ellipse>
                <ellipse id="Oval-Copy-16" transform="translate(306.367647, 54.394737) rotate(-360.000000) translate(-306.367647, -54.394737) " cx="306.367647" cy="54.3947368" rx="4.19117647" ry="4.18421053"></ellipse>
                <ellipse id="Oval-Copy-14" transform="translate(331.514706, 54.394737) rotate(-360.000000) translate(-331.514706, -54.394737) " cx="331.514706" cy="54.3947368" rx="4.19117647" ry="4.18421053"></ellipse>
                <ellipse id="Oval-Copy-39" transform="translate(105.191176, 79.500000) rotate(-360.000000) translate(-105.191176, -79.500000) " cx="105.191176" cy="79.5" rx="4.19117647" ry="4.18421053"></ellipse>
                <ellipse id="Oval-Copy-41" transform="translate(4.191176, 79.500000) rotate(-360.000000) translate(-4.191176, -79.500000) " cx="4.19117647" cy="79.5" rx="4.19117647" ry="4.18421053"></ellipse>
                <ellipse id="Oval" transform="translate(230.926471, 4.184211) rotate(-360.000000) translate(-230.926471, -4.184211) " cx="230.926471" cy="4.18421053" rx="4.19117647" ry="4.18421053"></ellipse>
                <ellipse id="Oval-Copy-64" transform="translate(180.632353, 104.605263) rotate(-360.000000) translate(-180.632353, -104.605263) " cx="180.632353" cy="104.605263" rx="4.19117647" ry="4.18421053"></ellipse>
                <ellipse id="Oval-Copy-66" transform="translate(79.632353, 104.605263) rotate(-360.000000) translate(-79.632353, -104.605263) " cx="79.6323529" cy="104.605263" rx="4.19117647" ry="4.18421053"></ellipse>
                <ellipse id="Oval-Copy-22" transform="translate(306.367647, 79.500000) rotate(-360.000000) translate(-306.367647, -79.500000) " cx="306.367647" cy="79.5" rx="4.19117647" ry="4.18421053"></ellipse>
                <ellipse id="Oval-Copy-20" transform="translate(331.514706, 79.500000) rotate(-360.000000) translate(-331.514706, -79.500000) " cx="331.514706" cy="79.5" rx="4.19117647" ry="4.18421053"></ellipse>
                <ellipse id="Oval-Copy-21" transform="translate(256.073529, 79.500000) rotate(-360.000000) translate(-256.073529, -79.500000) " cx="256.073529" cy="79.5" rx="4.19117647" ry="4.18421053"></ellipse>
                <ellipse id="Oval-Copy-18" transform="translate(230.926471, 79.500000) rotate(-360.000000) translate(-230.926471, -79.500000) " cx="230.926471" cy="79.5" rx="4.19117647" ry="4.18421053"></ellipse>
                <ellipse id="Oval-Copy-54" transform="translate(130.338235, 4.184211) rotate(-360.000000) translate(-130.338235, -4.184211) " cx="130.338235" cy="4.18421053" rx="4.19117647" ry="4.18421053"></ellipse>
                <ellipse id="Oval-Copy-59" transform="translate(29.338235, 4.184211) rotate(-360.000000) translate(-29.338235, -4.184211) " cx="29.3382353" cy="4.18421053" rx="4.19117647" ry="4.18421053"></ellipse>
                <ellipse id="Oval-Copy-2" transform="translate(281.220588, 4.184211) rotate(-360.000000) translate(-281.220588, -4.184211) " cx="281.220588" cy="4.18421053" rx="4.19117647" ry="4.18421053"></ellipse>
                <ellipse id="Oval-Copy" transform="translate(256.073529, 4.184211) rotate(-360.000000) translate(-256.073529, -4.184211) " cx="256.073529" cy="4.18421053" rx="4.19117647" ry="4.18421053"></ellipse>
                <ellipse id="Oval-Copy-42" transform="translate(155.485294, 4.184211) rotate(-360.000000) translate(-155.485294, -4.184211) " cx="155.485294" cy="4.18421053" rx="4.19117647" ry="4.18421053"></ellipse>
                <ellipse id="Oval-Copy-53" transform="translate(54.485294, 4.184211) rotate(-360.000000) translate(-54.485294, -4.184211) " cx="54.4852941" cy="4.18421053" rx="4.19117647" ry="4.18421053"></ellipse>
                <ellipse id="Oval-Copy-37" transform="translate(105.191176, 29.289474) rotate(-360.000000) translate(-105.191176, -29.289474) " cx="105.191176" cy="29.2894737" rx="4.19117647" ry="4.18421053"></ellipse>
                <ellipse id="Oval-Copy-67" transform="translate(4.191176, 29.289474) rotate(-360.000000) translate(-4.191176, -29.289474) " cx="4.19117647" cy="29.2894737" rx="4.19117647" ry="4.18421053"></ellipse>
                <ellipse id="Oval-Copy-46" transform="translate(155.485294, 104.605263) rotate(-360.000000) translate(-155.485294, -104.605263) " cx="155.485294" cy="104.605263" rx="4.19117647" ry="4.18421053"></ellipse>
                <ellipse id="Oval-Copy-68" transform="translate(54.485294, 104.605263) rotate(-360.000000) translate(-54.485294, -104.605263) " cx="54.4852941" cy="104.605263" rx="4.19117647" ry="4.18421053"></ellipse>
                <ellipse id="Oval-Copy-50" transform="translate(205.779412, 54.394737) rotate(-360.000000) translate(-205.779412, -54.394737) " cx="205.779412" cy="54.3947368" rx="4.19117647" ry="4.18421053"></ellipse>
                <ellipse id="Oval-Copy-51" transform="translate(205.779412, 79.500000) rotate(-360.000000) translate(-205.779412, -79.500000) " cx="205.779412" cy="79.5" rx="4.19117647" ry="4.18421053"></ellipse>
                <ellipse id="Oval-Copy-25" transform="translate(281.220588, 104.605263) rotate(-360.000000) translate(-281.220588, -104.605263) " cx="281.220588" cy="104.605263" rx="4.19117647" ry="4.18421053"></ellipse>
                <ellipse id="Oval-Copy-15" transform="translate(256.073529, 54.394737) rotate(-360.000000) translate(-256.073529, -54.394737) " cx="256.073529" cy="54.3947368" rx="4.19117647" ry="4.18421053"></ellipse>
                <ellipse id="Oval-Copy-12" transform="translate(230.926471, 54.394737) rotate(-360.000000) translate(-230.926471, -54.394737) " cx="230.926471" cy="54.3947368" rx="4.19117647" ry="4.18421053"></ellipse>
                <ellipse id="Oval-Copy-56" transform="translate(130.338235, 54.394737) rotate(-360.000000) translate(-130.338235, -54.394737) " cx="130.338235" cy="54.3947368" rx="4.19117647" ry="4.18421053"></ellipse>
                <ellipse id="Oval-Copy-69" transform="translate(29.338235, 54.394737) rotate(-360.000000) translate(-29.338235, -54.394737) " cx="29.3382353" cy="54.3947368" rx="4.19117647" ry="4.18421053"></ellipse>
                <ellipse id="Oval-Copy-62" transform="translate(180.632353, 54.394737) rotate(-360.000000) translate(-180.632353, -54.394737) " cx="180.632353" cy="54.3947368" rx="4.19117647" ry="4.18421053"></ellipse>
                <ellipse id="Oval-Copy-70" transform="translate(79.632353, 54.394737) rotate(-360.000000) translate(-79.632353, -54.394737) " cx="79.6323529" cy="54.3947368" rx="4.19117647" ry="4.18421053"></ellipse>
                <ellipse id="Oval-Copy-58" transform="translate(130.338235, 104.605263) rotate(-360.000000) translate(-130.338235, -104.605263) " cx="130.338235" cy="104.605263" rx="4.19117647" ry="4.18421053"></ellipse>
                <ellipse id="Oval-Copy-71" transform="translate(29.338235, 104.605263) rotate(-360.000000) translate(-29.338235, -104.605263) " cx="29.3382353" cy="104.605263" rx="4.19117647" ry="4.18421053"></ellipse>
                <ellipse id="Oval-Copy-7" transform="translate(281.220588, 29.289474) rotate(-360.000000) translate(-281.220588, -29.289474) " cx="281.220588" cy="29.2894737" rx="4.19117647" ry="4.18421053"></ellipse>
                <ellipse id="Oval-Copy-60" transform="translate(180.632353, 4.184211) rotate(-360.000000) translate(-180.632353, -4.184211) " cx="180.632353" cy="4.18421053" rx="4.19117647" ry="4.18421053"></ellipse>
                <ellipse id="Oval-Copy-72" transform="translate(79.632353, 4.184211) rotate(-360.000000) translate(-79.632353, -4.184211) " cx="79.6323529" cy="4.18421053" rx="4.19117647" ry="4.18421053"></ellipse>
                <ellipse id="Oval-Copy-45" transform="translate(155.485294, 79.500000) rotate(-360.000000) translate(-155.485294, -79.500000) " cx="155.485294" cy="79.5" rx="4.19117647" ry="4.18421053"></ellipse>
                <ellipse id="Oval-Copy-73" transform="translate(54.485294, 79.500000) rotate(-360.000000) translate(-54.485294, -79.500000) " cx="54.4852941" cy="79.5" rx="4.19117647" ry="4.18421053"></ellipse>
                <ellipse id="Oval-Copy-44" transform="translate(155.485294, 54.394737) rotate(-360.000000) translate(-155.485294, -54.394737) " cx="155.485294" cy="54.3947368" rx="4.19117647" ry="4.18421053"></ellipse>
                <ellipse id="Oval-Copy-74" transform="translate(54.485294, 54.394737) rotate(-360.000000) translate(-54.485294, -54.394737) " cx="54.4852941" cy="54.3947368" rx="4.19117647" ry="4.18421053"></ellipse>
                <ellipse id="Oval-Copy-8" transform="translate(331.514706, 29.289474) rotate(-360.000000) translate(-331.514706, -29.289474) " cx="331.514706" cy="29.2894737" rx="4.19117647" ry="4.18421053"></ellipse>
                <ellipse id="Oval-Copy-26" transform="translate(331.514706, 104.605263) rotate(-360.000000) translate(-331.514706, -104.605263) " cx="331.514706" cy="104.605263" rx="4.19117647" ry="4.18421053"></ellipse>
                <ellipse id="Oval-Copy-55" transform="translate(130.338235, 29.289474) rotate(-360.000000) translate(-130.338235, -29.289474) " cx="130.338235" cy="29.2894737" rx="4.19117647" ry="4.18421053"></ellipse>
                <ellipse id="Oval-Copy-75" transform="translate(29.338235, 29.289474) rotate(-360.000000) translate(-29.338235, -29.289474) " cx="29.3382353" cy="29.2894737" rx="4.19117647" ry="4.18421053"></ellipse>
                <ellipse id="Oval-Copy-3" transform="translate(306.367647, 4.184211) rotate(-360.000000) translate(-306.367647, -4.184211) " cx="306.367647" cy="4.18421053" rx="4.19117647" ry="4.18421053"></ellipse>
                <ellipse id="Oval-Copy-57" transform="translate(130.338235, 79.500000) rotate(-360.000000) translate(-130.338235, -79.500000) " cx="130.338235" cy="79.5" rx="4.19117647" ry="4.18421053"></ellipse>
                <ellipse id="Oval-Copy-76" transform="translate(29.338235, 79.500000) rotate(-360.000000) translate(-29.338235, -79.500000) " cx="29.3382353" cy="79.5" rx="4.19117647" ry="4.18421053"></ellipse>
                <ellipse id="Oval-Copy-48" transform="translate(205.779412, 4.184211) rotate(-360.000000) translate(-205.779412, -4.184211) " cx="205.779412" cy="4.18421053" rx="4.19117647" ry="4.18421053"></ellipse>
                <ellipse id="Oval-Copy-40" transform="translate(105.191176, 104.605263) rotate(-360.000000) translate(-105.191176, -104.605263) " cx="105.191176" cy="104.605263" rx="4.19117647" ry="4.18421053"></ellipse>
                <ellipse id="Oval-Copy-77" transform="translate(4.191176, 104.605263) rotate(-360.000000) translate(-4.191176, -104.605263) " cx="4.19117647" cy="104.605263" rx="4.19117647" ry="4.18421053"></ellipse>
                <ellipse id="Oval-Copy-38" transform="translate(105.191176, 54.394737) rotate(-360.000000) translate(-105.191176, -54.394737) " cx="105.191176" cy="54.3947368" rx="4.19117647" ry="4.18421053"></ellipse>
                <ellipse id="Oval-Copy-80" transform="translate(4.191176, 54.394737) rotate(-360.000000) translate(-4.191176, -54.394737) " cx="4.19117647" cy="54.3947368" rx="4.19117647" ry="4.18421053"></ellipse>
                <ellipse id="Oval-Copy-27" transform="translate(256.073529, 104.605263) rotate(-360.000000) translate(-256.073529, -104.605263) " cx="256.073529" cy="104.605263" rx="4.19117647" ry="4.18421053"></ellipse>
                <ellipse id="Oval-Copy-36" transform="translate(105.191176, 4.184211) rotate(-360.000000) translate(-105.191176, -4.184211) " cx="105.191176" cy="4.18421053" rx="4.19117647" ry="4.18421053"></ellipse>
                <ellipse id="Oval-Copy-81" transform="translate(4.191176, 4.184211) rotate(-360.000000) translate(-4.191176, -4.184211) " cx="4.19117647" cy="4.18421053" rx="4.19117647" ry="4.18421053"></ellipse>
                <ellipse id="Oval-Copy-13" transform="translate(281.220588, 54.394737) rotate(-360.000000) translate(-281.220588, -54.394737) " cx="281.220588" cy="54.3947368" rx="4.19117647" ry="4.18421053"></ellipse>
                <ellipse id="Oval-Copy-6" transform="translate(230.926471, 29.289474) rotate(-360.000000) translate(-230.926471, -29.289474) " cx="230.926471" cy="29.2894737" rx="4.19117647" ry="4.18421053"></ellipse>
                <ellipse id="Oval-Copy-52" transform="translate(205.779412, 104.605263) rotate(-360.000000) translate(-205.779412, -104.605263) " cx="205.779412" cy="104.605263" rx="4.19117647" ry="4.18421053"></ellipse>
                <ellipse id="Oval-Copy-61" transform="translate(180.632353, 29.289474) rotate(-360.000000) translate(-180.632353, -29.289474) " cx="180.632353" cy="29.2894737" rx="4.19117647" ry="4.18421053"></ellipse>
                <ellipse id="Oval-Copy-82" transform="translate(79.632353, 29.289474) rotate(-360.000000) translate(-79.632353, -29.289474) " cx="79.6323529" cy="29.2894737" rx="4.19117647" ry="4.18421053"></ellipse>
                <ellipse id="Oval-Copy-24" transform="translate(230.926471, 104.605263) rotate(-360.000000) translate(-230.926471, -104.605263) " cx="230.926471" cy="104.605263" rx="4.19117647" ry="4.18421053"></ellipse>
            </g>
            <g id="Group-Copy-2" transform="translate(106.852941, 435.394737) rotate(-270.000000) translate(-106.852941, -435.394737) translate(-61.000000, 381.000000)" fill="#6553C0" fill-opacity="0.3">
                <ellipse id="Oval-Copy-10" transform="translate(306.367647, 29.289474) rotate(-360.000000) translate(-306.367647, -29.289474) " cx="306.367647" cy="29.2894737" rx="4.19117647" ry="4.18421053"></ellipse>
                <ellipse id="Oval-Copy-49" transform="translate(205.779412, 29.289474) rotate(-360.000000) translate(-205.779412, -29.289474) " cx="205.779412" cy="29.2894737" rx="4.19117647" ry="4.18421053"></ellipse>
                <ellipse id="Oval-Copy-43" transform="translate(155.485294, 29.289474) rotate(-360.000000) translate(-155.485294, -29.289474) " cx="155.485294" cy="29.2894737" rx="4.19117647" ry="4.18421053"></ellipse>
                <ellipse id="Oval-Copy-47" transform="translate(54.485294, 29.289474) rotate(-360.000000) translate(-54.485294, -29.289474) " cx="54.4852941" cy="29.2894737" rx="4.19117647" ry="4.18421053"></ellipse>
                <ellipse id="Oval-Copy-63" transform="translate(180.632353, 79.500000) rotate(-360.000000) translate(-180.632353, -79.500000) " cx="180.632353" cy="79.5" rx="4.19117647" ry="4.18421053"></ellipse>
                <ellipse id="Oval-Copy-65" transform="translate(79.632353, 79.500000) rotate(-360.000000) translate(-79.632353, -79.500000) " cx="79.6323529" cy="79.5" rx="4.19117647" ry="4.18421053"></ellipse>
                <ellipse id="Oval-Copy-28" transform="translate(306.367647, 104.605263) rotate(-360.000000) translate(-306.367647, -104.605263) " cx="306.367647" cy="104.605263" rx="4.19117647" ry="4.18421053"></ellipse>
                <ellipse id="Oval-Copy-4" transform="translate(331.514706, 4.184211) rotate(-360.000000) translate(-331.514706, -4.184211) " cx="331.514706" cy="4.18421053" rx="4.19117647" ry="4.18421053"></ellipse>
                <ellipse id="Oval-Copy-19" transform="translate(281.220588, 79.500000) rotate(-360.000000) translate(-281.220588, -79.500000) " cx="281.220588" cy="79.5" rx="4.19117647" ry="4.18421053"></ellipse>
                <ellipse id="Oval-Copy-9" transform="translate(256.073529, 29.289474) rotate(-360.000000) translate(-256.073529, -29.289474) " cx="256.073529" cy="29.2894737" rx="4.19117647" ry="4.18421053"></ellipse>
                <ellipse id="Oval-Copy-16" transform="translate(306.367647, 54.394737) rotate(-360.000000) translate(-306.367647, -54.394737) " cx="306.367647" cy="54.3947368" rx="4.19117647" ry="4.18421053"></ellipse>
                <ellipse id="Oval-Copy-14" transform="translate(331.514706, 54.394737) rotate(-360.000000) translate(-331.514706, -54.394737) " cx="331.514706" cy="54.3947368" rx="4.19117647" ry="4.18421053"></ellipse>
                <ellipse id="Oval-Copy-39" transform="translate(105.191176, 79.500000) rotate(-360.000000) translate(-105.191176, -79.500000) " cx="105.191176" cy="79.5" rx="4.19117647" ry="4.18421053"></ellipse>
                <ellipse id="Oval-Copy-41" transform="translate(4.191176, 79.500000) rotate(-360.000000) translate(-4.191176, -79.500000) " cx="4.19117647" cy="79.5" rx="4.19117647" ry="4.18421053"></ellipse>
                <ellipse id="Oval" transform="translate(230.926471, 4.184211) rotate(-360.000000) translate(-230.926471, -4.184211) " cx="230.926471" cy="4.18421053" rx="4.19117647" ry="4.18421053"></ellipse>
                <ellipse id="Oval-Copy-64" transform="translate(180.632353, 104.605263) rotate(-360.000000) translate(-180.632353, -104.605263) " cx="180.632353" cy="104.605263" rx="4.19117647" ry="4.18421053"></ellipse>
                <ellipse id="Oval-Copy-66" transform="translate(79.632353, 104.605263) rotate(-360.000000) translate(-79.632353, -104.605263) " cx="79.6323529" cy="104.605263" rx="4.19117647" ry="4.18421053"></ellipse>
                <ellipse id="Oval-Copy-22" transform="translate(306.367647, 79.500000) rotate(-360.000000) translate(-306.367647, -79.500000) " cx="306.367647" cy="79.5" rx="4.19117647" ry="4.18421053"></ellipse>
                <ellipse id="Oval-Copy-20" transform="translate(331.514706, 79.500000) rotate(-360.000000) translate(-331.514706, -79.500000) " cx="331.514706" cy="79.5" rx="4.19117647" ry="4.18421053"></ellipse>
                <ellipse id="Oval-Copy-21" transform="translate(256.073529, 79.500000) rotate(-360.000000) translate(-256.073529, -79.500000) " cx="256.073529" cy="79.5" rx="4.19117647" ry="4.18421053"></ellipse>
                <ellipse id="Oval-Copy-18" transform="translate(230.926471, 79.500000) rotate(-360.000000) translate(-230.926471, -79.500000) " cx="230.926471" cy="79.5" rx="4.19117647" ry="4.18421053"></ellipse>
                <ellipse id="Oval-Copy-54" transform="translate(130.338235, 4.184211) rotate(-360.000000) translate(-130.338235, -4.184211) " cx="130.338235" cy="4.18421053" rx="4.19117647" ry="4.18421053"></ellipse>
                <ellipse id="Oval-Copy-59" transform="translate(29.338235, 4.184211) rotate(-360.000000) translate(-29.338235, -4.184211) " cx="29.3382353" cy="4.18421053" rx="4.19117647" ry="4.18421053"></ellipse>
                <ellipse id="Oval-Copy-2" transform="translate(281.220588, 4.184211) rotate(-360.000000) translate(-281.220588, -4.184211) " cx="281.220588" cy="4.18421053" rx="4.19117647" ry="4.18421053"></ellipse>
                <ellipse id="Oval-Copy" transform="translate(256.073529, 4.184211) rotate(-360.000000) translate(-256.073529, -4.184211) " cx="256.073529" cy="4.18421053" rx="4.19117647" ry="4.18421053"></ellipse>
                <ellipse id="Oval-Copy-42" transform="translate(155.485294, 4.184211) rotate(-360.000000) translate(-155.485294, -4.184211) " cx="155.485294" cy="4.18421053" rx="4.19117647" ry="4.18421053"></ellipse>
                <ellipse id="Oval-Copy-53" transform="translate(54.485294, 4.184211) rotate(-360.000000) translate(-54.485294, -4.184211) " cx="54.4852941" cy="4.18421053" rx="4.19117647" ry="4.18421053"></ellipse>
                <ellipse id="Oval-Copy-37" transform="translate(105.191176, 29.289474) rotate(-360.000000) translate(-105.191176, -29.289474) " cx="105.191176" cy="29.2894737" rx="4.19117647" ry="4.18421053"></ellipse>
                <ellipse id="Oval-Copy-67" transform="translate(4.191176, 29.289474) rotate(-360.000000) translate(-4.191176, -29.289474) " cx="4.19117647" cy="29.2894737" rx="4.19117647" ry="4.18421053"></ellipse>
                <ellipse id="Oval-Copy-46" transform="translate(155.485294, 104.605263) rotate(-360.000000) translate(-155.485294, -104.605263) " cx="155.485294" cy="104.605263" rx="4.19117647" ry="4.18421053"></ellipse>
                <ellipse id="Oval-Copy-68" transform="translate(54.485294, 104.605263) rotate(-360.000000) translate(-54.485294, -104.605263) " cx="54.4852941" cy="104.605263" rx="4.19117647" ry="4.18421053"></ellipse>
                <ellipse id="Oval-Copy-50" transform="translate(205.779412, 54.394737) rotate(-360.000000) translate(-205.779412, -54.394737) " cx="205.779412" cy="54.3947368" rx="4.19117647" ry="4.18421053"></ellipse>
                <ellipse id="Oval-Copy-51" transform="translate(205.779412, 79.500000) rotate(-360.000000) translate(-205.779412, -79.500000) " cx="205.779412" cy="79.5" rx="4.19117647" ry="4.18421053"></ellipse>
                <ellipse id="Oval-Copy-25" transform="translate(281.220588, 104.605263) rotate(-360.000000) translate(-281.220588, -104.605263) " cx="281.220588" cy="104.605263" rx="4.19117647" ry="4.18421053"></ellipse>
                <ellipse id="Oval-Copy-15" transform="translate(256.073529, 54.394737) rotate(-360.000000) translate(-256.073529, -54.394737) " cx="256.073529" cy="54.3947368" rx="4.19117647" ry="4.18421053"></ellipse>
                <ellipse id="Oval-Copy-12" transform="translate(230.926471, 54.394737) rotate(-360.000000) translate(-230.926471, -54.394737) " cx="230.926471" cy="54.3947368" rx="4.19117647" ry="4.18421053"></ellipse>
                <ellipse id="Oval-Copy-56" transform="translate(130.338235, 54.394737) rotate(-360.000000) translate(-130.338235, -54.394737) " cx="130.338235" cy="54.3947368" rx="4.19117647" ry="4.18421053"></ellipse>
                <ellipse id="Oval-Copy-69" transform="translate(29.338235, 54.394737) rotate(-360.000000) translate(-29.338235, -54.394737) " cx="29.3382353" cy="54.3947368" rx="4.19117647" ry="4.18421053"></ellipse>
                <ellipse id="Oval-Copy-62" transform="translate(180.632353, 54.394737) rotate(-360.000000) translate(-180.632353, -54.394737) " cx="180.632353" cy="54.3947368" rx="4.19117647" ry="4.18421053"></ellipse>
                <ellipse id="Oval-Copy-70" transform="translate(79.632353, 54.394737) rotate(-360.000000) translate(-79.632353, -54.394737) " cx="79.6323529" cy="54.3947368" rx="4.19117647" ry="4.18421053"></ellipse>
                <ellipse id="Oval-Copy-58" transform="translate(130.338235, 104.605263) rotate(-360.000000) translate(-130.338235, -104.605263) " cx="130.338235" cy="104.605263" rx="4.19117647" ry="4.18421053"></ellipse>
                <ellipse id="Oval-Copy-71" transform="translate(29.338235, 104.605263) rotate(-360.000000) translate(-29.338235, -104.605263) " cx="29.3382353" cy="104.605263" rx="4.19117647" ry="4.18421053"></ellipse>
                <ellipse id="Oval-Copy-7" transform="translate(281.220588, 29.289474) rotate(-360.000000) translate(-281.220588, -29.289474) " cx="281.220588" cy="29.2894737" rx="4.19117647" ry="4.18421053"></ellipse>
                <ellipse id="Oval-Copy-60" transform="translate(180.632353, 4.184211) rotate(-360.000000) translate(-180.632353, -4.184211) " cx="180.632353" cy="4.18421053" rx="4.19117647" ry="4.18421053"></ellipse>
                <ellipse id="Oval-Copy-72" transform="translate(79.632353, 4.184211) rotate(-360.000000) translate(-79.632353, -4.184211) " cx="79.6323529" cy="4.18421053" rx="4.19117647" ry="4.18421053"></ellipse>
                <ellipse id="Oval-Copy-45" transform="translate(155.485294, 79.500000) rotate(-360.000000) translate(-155.485294, -79.500000) " cx="155.485294" cy="79.5" rx="4.19117647" ry="4.18421053"></ellipse>
                <ellipse id="Oval-Copy-73" transform="translate(54.485294, 79.500000) rotate(-360.000000) translate(-54.485294, -79.500000) " cx="54.4852941" cy="79.5" rx="4.19117647" ry="4.18421053"></ellipse>
                <ellipse id="Oval-Copy-44" transform="translate(155.485294, 54.394737) rotate(-360.000000) translate(-155.485294, -54.394737) " cx="155.485294" cy="54.3947368" rx="4.19117647" ry="4.18421053"></ellipse>
                <ellipse id="Oval-Copy-74" transform="translate(54.485294, 54.394737) rotate(-360.000000) translate(-54.485294, -54.394737) " cx="54.4852941" cy="54.3947368" rx="4.19117647" ry="4.18421053"></ellipse>
                <ellipse id="Oval-Copy-8" transform="translate(331.514706, 29.289474) rotate(-360.000000) translate(-331.514706, -29.289474) " cx="331.514706" cy="29.2894737" rx="4.19117647" ry="4.18421053"></ellipse>
                <ellipse id="Oval-Copy-26" transform="translate(331.514706, 104.605263) rotate(-360.000000) translate(-331.514706, -104.605263) " cx="331.514706" cy="104.605263" rx="4.19117647" ry="4.18421053"></ellipse>
                <ellipse id="Oval-Copy-55" transform="translate(130.338235, 29.289474) rotate(-360.000000) translate(-130.338235, -29.289474) " cx="130.338235" cy="29.2894737" rx="4.19117647" ry="4.18421053"></ellipse>
                <ellipse id="Oval-Copy-75" transform="translate(29.338235, 29.289474) rotate(-360.000000) translate(-29.338235, -29.289474) " cx="29.3382353" cy="29.2894737" rx="4.19117647" ry="4.18421053"></ellipse>
                <ellipse id="Oval-Copy-3" transform="translate(306.367647, 4.184211) rotate(-360.000000) translate(-306.367647, -4.184211) " cx="306.367647" cy="4.18421053" rx="4.19117647" ry="4.18421053"></ellipse>
                <ellipse id="Oval-Copy-57" transform="translate(130.338235, 79.500000) rotate(-360.000000) translate(-130.338235, -79.500000) " cx="130.338235" cy="79.5" rx="4.19117647" ry="4.18421053"></ellipse>
                <ellipse id="Oval-Copy-76" transform="translate(29.338235, 79.500000) rotate(-360.000000) translate(-29.338235, -79.500000) " cx="29.3382353" cy="79.5" rx="4.19117647" ry="4.18421053"></ellipse>
                <ellipse id="Oval-Copy-48" transform="translate(205.779412, 4.184211) rotate(-360.000000) translate(-205.779412, -4.184211) " cx="205.779412" cy="4.18421053" rx="4.19117647" ry="4.18421053"></ellipse>
                <ellipse id="Oval-Copy-40" transform="translate(105.191176, 104.605263) rotate(-360.000000) translate(-105.191176, -104.605263) " cx="105.191176" cy="104.605263" rx="4.19117647" ry="4.18421053"></ellipse>
                <ellipse id="Oval-Copy-77" transform="translate(4.191176, 104.605263) rotate(-360.000000) translate(-4.191176, -104.605263) " cx="4.19117647" cy="104.605263" rx="4.19117647" ry="4.18421053"></ellipse>
                <ellipse id="Oval-Copy-38" transform="translate(105.191176, 54.394737) rotate(-360.000000) translate(-105.191176, -54.394737) " cx="105.191176" cy="54.3947368" rx="4.19117647" ry="4.18421053"></ellipse>
                <ellipse id="Oval-Copy-80" transform="translate(4.191176, 54.394737) rotate(-360.000000) translate(-4.191176, -54.394737) " cx="4.19117647" cy="54.3947368" rx="4.19117647" ry="4.18421053"></ellipse>
                <ellipse id="Oval-Copy-27" transform="translate(256.073529, 104.605263) rotate(-360.000000) translate(-256.073529, -104.605263) " cx="256.073529" cy="104.605263" rx="4.19117647" ry="4.18421053"></ellipse>
                <ellipse id="Oval-Copy-36" transform="translate(105.191176, 4.184211) rotate(-360.000000) translate(-105.191176, -4.184211) " cx="105.191176" cy="4.18421053" rx="4.19117647" ry="4.18421053"></ellipse>
                <ellipse id="Oval-Copy-81" transform="translate(4.191176, 4.184211) rotate(-360.000000) translate(-4.191176, -4.184211) " cx="4.19117647" cy="4.18421053" rx="4.19117647" ry="4.18421053"></ellipse>
                <ellipse id="Oval-Copy-13" transform="translate(281.220588, 54.394737) rotate(-360.000000) translate(-281.220588, -54.394737) " cx="281.220588" cy="54.3947368" rx="4.19117647" ry="4.18421053"></ellipse>
                <ellipse id="Oval-Copy-6" transform="translate(230.926471, 29.289474) rotate(-360.000000) translate(-230.926471, -29.289474) " cx="230.926471" cy="29.2894737" rx="4.19117647" ry="4.18421053"></ellipse>
                <ellipse id="Oval-Copy-52" transform="translate(205.779412, 104.605263) rotate(-360.000000) translate(-205.779412, -104.605263) " cx="205.779412" cy="104.605263" rx="4.19117647" ry="4.18421053"></ellipse>
                <ellipse id="Oval-Copy-61" transform="translate(180.632353, 29.289474) rotate(-360.000000) translate(-180.632353, -29.289474) " cx="180.632353" cy="29.2894737" rx="4.19117647" ry="4.18421053"></ellipse>
                <ellipse id="Oval-Copy-82" transform="translate(79.632353, 29.289474) rotate(-360.000000) translate(-79.632353, -29.289474) " cx="79.6323529" cy="29.2894737" rx="4.19117647" ry="4.18421053"></ellipse>
                <ellipse id="Oval-Copy-24" transform="translate(230.926471, 104.605263) rotate(-360.000000) translate(-230.926471, -104.605263) " cx="230.926471" cy="104.605263" rx="4.19117647" ry="4.18421053"></ellipse>
            </g>
            <g id="Group-Copy" transform="translate(0.000000, 124.000000)">
                <rect id="Rectangle" stroke="#D2DCEA" stroke-width="1.15" fill="#FFFFFF" x="0.575" y="0.575" width="1029.85" height="354.85" rx="13.0176768"></rect>
                <path d="M8.23037897,0 L79.8417508,0 L79.8417508,0 L79.8417508,356 L8.23037897,356 C3.68486618,356 5.56664769e-16,352.315134 0,347.769621 L0,8.23037897 C-5.56664769e-16,3.68486618 3.68486618,6.16406767e-15 8.23037897,0 Z" id="Rectangle" fill="#333F5B"></path>
                <rect id="Rectangle" fill="#505A72" x="31.2424242" y="47.7560976" width="18.2247475" height="120.692683" rx="9.11237374"></rect>
                <text id="provider.pkg.crosspl" font-family="EncodeSansSemiCondensed-SemiBold, Encode Sans Semi Condensed" font-size="24.2996633" font-weight="500" line-spacing="36.4494949" letter-spacing="0.1" fill="#333F5B">
                    <tspan x="129.308923" y="186.502439">provider.pkg.crossplane.io/upbound-provider-aws</tspan>
                    <tspan x="129.308923" y="222.951934">provider.pkg.crossplane.io/upbound-provider-gcp</tspan>
                    <tspan x="129.308923" y="259.401429">provider.pkg.crossplane.io/upbound-provider-</tspan>
                    <tspan x="129.308923" y="295.850924">azure</tspan>
                </text>
                <text id="NAME" font-family="EncodeSansSemiCondensed-SemiBold, Encode Sans Semi Condensed" font-size="24.2996633" font-weight="500" line-spacing="36.4494949" letter-spacing="0.1" fill="#333F5B">
                    <tspan x="129.308923" y="147.429268">NAME</tspan>
                </text>
                <text id="True-True-True" font-family="EncodeSansSemiCondensed-SemiBold, Encode Sans Semi Condensed" font-size="24.2996633" font-weight="500" line-spacing="36.4494949" letter-spacing="0.1" fill="#6553C0">
                    <tspan x="695.143939" y="186.502439">True</tspan>
                    <tspan x="695.143939" y="222.951934">True</tspan>
                    <tspan x="695.143939" y="259.401429">True</tspan>
                </text>
                <text id="INSTALLED" font-family="EncodeSansSemiCondensed-SemiBold, Encode Sans Semi Condensed" font-size="24.2996633" font-weight="500" line-spacing="36.4494949" letter-spacing="0.1" fill="#333F5B">
                    <tspan x="695.143939" y="147.429268">INSTALLED</tspan>
                </text>
                <text id="HEALTHY" font-family="EncodeSansSemiCondensed-SemiBold, Encode Sans Semi Condensed" font-size="24.2996633" font-weight="500" line-spacing="36.4494949" letter-spacing="0.1" fill="#333F5B">
                    <tspan x="840.074074" y="147.429268">HEALTHY</tspan>
                </text>
                <text id="True-True-True-Copy" font-family="EncodeSansSemiCondensed-SemiBold, Encode Sans Semi Condensed" font-size="24.2996633" font-weight="500" line-spacing="36.4494949" letter-spacing="0.1" fill="#6553C0">
                    <tspan x="840.074074" y="186.502439">True</tspan>
                    <tspan x="840.074074" y="222.951934">True</tspan>
                    <tspan x="840.074074" y="259.401429">True</tspan>
                </text>
                <text id="(up)-kubectl-get-pkg" font-family="EncodeSansSemiCondensed-SemiBold, Encode Sans Semi Condensed" font-size="24.2996633" font-weight="500" line-spacing="36.4494949" letter-spacing="0.1" fill="#333F5B">
                    <tspan x="129.308923" y="105.75122">(up) kubectl get pkg</tspan>
                </text>
            </g>
        </g>
    </g>
</svg>