<?xml version="1.0" encoding="UTF-8"?>
<svg width="557px" height="399px" viewBox="0 0 557 399" version="1.1" xmlns="http://www.w3.org/2000/svg" xmlns:xlink="http://www.w3.org/1999/xlink">
    <!-- Generator: Sketch 62 (91390) - https://sketch.com -->
    <title>Group 4</title>
    <desc>Created with Sketch.</desc>
    <defs>
        <linearGradient x1="115.319827%" y1="55.929489%" x2="10.1454571%" y2="43.0990087%" id="linearGradient-1">
            <stop stop-color="#6D64F5" offset="0%"></stop>
            <stop stop-color="#3DE2CB" offset="100%"></stop>
        </linearGradient>
        <path d="M0.08059605,5.40526891 C0.0727789192,5.58534921 0.0731744083,5.76569225 0.081781286,5.94573654 C0.0794108139,5.99196074 0.0746698698,6.03759233 0.0746698698,6.08440915 L0.0746698698,15.1887997 C0.0746698698,16.9299114 1.49576787,18.3545651 3.23273127,18.3545651 L7.98552774,18.3545651 C9.72189853,18.3545651 11.1435891,16.9299114 11.1435891,15.1887997 L11.1435891,6.08440915 C11.1435891,6.03107353 11.137663,5.98010838 11.1352925,5.927958 C11.1439198,5.75383983 11.1441175,5.5794062 11.1358851,5.40526891 C11.0019534,2.46114261 8.57814576,0.116153131 5.60853689,0.116153131 C2.6383354,0.116153131 0.214527721,2.46114261 0.08059605,5.40467629 L0.08059605,5.40526891 Z" id="path-2"></path>
        <path d="M0.08059605,5.40526891 C0.0727789192,5.58534921 0.0731744083,5.76569225 0.081781286,5.94573654 C0.0794108139,5.99196074 0.0746698698,6.03759233 0.0746698698,6.08440915 L0.0746698698,15.1887997 C0.0746698698,16.9299114 1.49576787,18.3545651 3.23273127,18.3545651 L7.98552774,18.3545651 C9.72189853,18.3545651 11.1435891,16.9299114 11.1435891,15.1887997 L11.1435891,6.08440915 C11.1435891,6.03107353 11.137663,5.98010838 11.1352925,5.927958 C11.1439198,5.75383983 11.1441175,5.5794062 11.1358851,5.40526891 C11.0019534,2.46114261 8.57814576,0.116153131 5.60853689,0.116153131 C2.6383354,0.116153131 0.214527721,2.46114261 0.08059605,5.40467629 L0.08059605,5.40526891 Z" id="path-4"></path>
        <path d="M0.08059605,5.40526891 C0.0727789192,5.58534921 0.0731744083,5.76569225 0.081781286,5.94573654 C0.0794108139,5.99196074 0.0746698698,6.03759233 0.0746698698,6.08440915 L0.0746698698,15.1887997 C0.0746698698,16.9299114 1.49576787,18.3545651 3.23273127,18.3545651 L7.98552774,18.3545651 C9.72189853,18.3545651 11.1435891,16.9299114 11.1435891,15.1887997 L11.1435891,6.08440915 C11.1435891,6.03107353 11.137663,5.98010838 11.1352925,5.927958 C11.1439198,5.75383983 11.1441175,5.5794062 11.1358851,5.40526891 C11.0019534,2.46114261 8.57814576,0.116153131 5.60853689,0.116153131 C2.6383354,0.116153131 0.214527721,2.46114261 0.08059605,5.40467629 L0.08059605,5.40526891 Z" id="path-6"></path>
    </defs>
    <g id="Product" stroke="none" stroke-width="1" fill="none" fill-rule="evenodd">
        <g id="UXP" transform="translate(-815.000000, -331.000000)">
            <g id="Group-4" transform="translate(816.000000, 331.000000)">
                <g id="UXP-Page-Header-Image-Copy" transform="translate(392.500000, 83.000000) rotate(180.000000) translate(-392.500000, -83.000000) translate(229.000000, 0.000000)" fill="url(#linearGradient-1)" fill-rule="nonzero">
                    <g id="Group-2" transform="translate(0.000000, 0.558559)">
                        <path d="M0.188943429,47.0093338 L326.811057,0.188971276 L326.811057,113.615196 C326.811057,141.781719 303.977579,164.615196 275.811057,164.615196 L102.964365,164.615196 C85.5190854,164.615196 69.2841485,155.698219 59.9249984,140.975988 L0.188943429,47.0093338 L0.188943429,47.0093338 Z" id="Rectangle-Copy"></path>
                    </g>
                </g>
                <g id="UXP-Page-Header-Image" transform="translate(0.000000, 118.000000)">
                    <g id="Group-2">
                        <path d="M44.0362875,74.0120451 L554.679316,0.320683802 L554.679316,0.320683802 L554.679316,228.897551 C554.679316,257.064073 531.845838,279.897551 503.679316,279.897551 L51.3206838,279.897551 C23.1541616,279.897551 0.320683802,257.064073 0.320683802,228.897551 L0.320683802,124.489145 C0.320683802,99.1365599 18.9436416,77.6331878 44.0362875,74.0120451 Z" id="Rectangle-Copy" stroke="#D2DCEA" stroke-width="1.15" fill="#FFFFFF" fill-rule="nonzero"></path>
                        <path d="M51.3094083,124.514639 L51.3094083,228.907824 C51.3094083,257.069223 28.4800842,279.898547 0.318685792,279.898547 C0.212456416,279.898547 0.106227301,279.898215 0,279.897551 C0,279.897551 0,279.897551 0,279.897551 L0,73 C2.40111206,73.327577 4.80222412,73.6551541 7.20333617,73.9827311 C32.4716633,77.4300188 51.3094083,99.0122445 51.3094083,124.514639 Z" id="Rectangle-Copy-2" fill="#F4F8FF" fill-rule="nonzero" transform="translate(25.654704, 176.609117) scale(-1, 1) translate(-25.654704, -176.609117) "></path>
                        <rect id="Rectangle-Copy-3" fill="#505A72" fill-rule="nonzero" x="20.0775946" y="110.674103" width="11.7119302" height="77.5218235" rx="5.85596508"></rect>
                        <g id="(up)-up-uxp-install" transform="translate(73.098933, 102.495992)" font-family="Avenir-Medium, Avenir" font-size="18" font-weight="400">
                            <text id="(up)-up" fill="#333F5B">
                                <tspan x="0" y="18.4703126">(up) up</tspan>
                            </text>
                            <text id="uxp-install" fill="#6553C0">
                                <tspan x="64" y="18.6133571">uxp install</tspan>
                            </text>
                            <text id="UXP-1.9.0-up.3-installed" fill="#333F5B">
                                <tspan x="0" y="42.3837337">UXP 1.9.0-up.3 installed</tspan>
                            </text>
                            <text id="(up)-up-controlplane-pull-secret-create" fill="#333F5B">
                                <tspan x="0" y="66.1541102">(up) up controlplane pull-secret create</tspan>
                            </text>
                            <text id="-f-my-upbound-creds.json" fill="#333F5B">
                                <tspan x="0" y="89.9244868">-f my-upbound-creds.json</tspan>
                            </text>
                            <text id="(up)-kubectl-apply--f-upbound-official-provider.yaml" fill="#333F5B">
                                <tspan x="0" y="113.694863">(up) kubectl apply -f upbound-official-provider.yaml</tspan>
                            </text>
                        </g>
                    </g>
                </g>
                <g id="Group-2" transform="translate(273.000000, 37.000000)">
                    <g id="Group-3">
                        <g transform="translate(0.000000, 44.764605)" fill="#FFFFFF" font-family="Avenir-Heavy, Avenir" font-size="14" font-weight="600" id="Powered-by">
                            <g transform="translate(0.000000, 0.073312)">
                                <text>
                                    <tspan x="0" y="14.7226499">Powered by</tspan>
                                </text>
                            </g>
                        </g>
                        <g id="cross-logo" transform="translate(93.697165, 46.071735)">
                            <g id="Group-16" transform="translate(0.000000, 0.054521)">
                                <path d="M5.54157105,7.64299453 C4.77485712,7.64430264 4.15418959,8.26656163 4.15484376,9.03327639 L4.15484376,22.1182822 C4.15437308,22.4865364 4.30020917,22.8398953 4.56027084,23.1006238 C4.82033251,23.3613523 5.1733168,23.5080928 5.54157105,23.508564 C6.30782615,23.508564 6.92889034,22.8863151 6.92889034,22.1182822 L6.92889034,9.03327639 C6.92954513,8.26656163 6.3088776,7.64430264 5.54216367,7.64299453" id="Path" fill="#F7D186" fill-rule="nonzero"></path>
                                <path d="M11.1080321,5.927958 C11.1160786,5.75382121 11.1160786,5.5794057 11.1080321,5.40526891 C10.9752856,2.46114261 8.55147795,0.115560513 5.58127646,0.115560513 C2.61107497,0.115560513 0.187267293,2.46114261 0.0533356213,5.40526891 C0.0449105598,5.58533107 0.0451083254,5.76569329 0.0539282393,5.94573654 C0.0521503853,5.99196074 0.0474094412,6.03759233 0.0474094412,6.08440915 L0.0474094412,15.1887997 C0.0474094412,16.9299114 1.46850744,18.3545651 3.20547084,18.3545651 L7.95826732,18.3545651 C9.6946381,18.3545651 11.1157361,16.9299114 11.1157361,15.1887997 L11.1157361,6.08440915 C11.1157361,6.03107353 11.1104025,5.98010838 11.1080321,5.927958" id="Path" fill="#FF9234" fill-rule="nonzero"></path>
                                <g id="Group" transform="translate(0.000000, 0.000000)">
                                    <g id="Clipped">
                                        <mask id="mask-3" fill="white">
                                            <use xlink:href="#path-2"></use>
                                        </mask>
                                        <g id="a"></g>
                                        <polygon id="Path" fill="#FFCD3C" fill-rule="nonzero" mask="url(#mask-3)" points="14.4598796 5.57890599 0.733068484 19.338311 -3.3322911 15.262877 10.3939274 1.5034719"></polygon>
                                    </g>
                                </g>
                                <g id="Group" transform="translate(0.000000, 0.000000)">
                                    <g id="Clipped">
                                        <mask id="mask-5" fill="white">
                                            <use xlink:href="#path-4"></use>
                                        </mask>
                                        <g id="c"></g>
                                        <polygon id="Path" fill="#F3807B" fill-rule="nonzero" mask="url(#mask-5)" points="10.3814824 1.49043431 -3.34473607 15.2498394 -8.40332344 10.178807 5.32170977 -3.58059804"></polygon>
                                    </g>
                                </g>
                                <g id="Group" transform="translate(0.000000, 0.000000)">
                                    <g id="Clipped">
                                        <mask id="mask-7" fill="white">
                                            <use xlink:href="#path-6"></use>
                                        </mask>
                                        <g id="e"></g>
                                        <polygon id="Path" fill="#35D0BA" fill-rule="nonzero" mask="url(#mask-7)" points="18.5382767 9.66737767 4.81205828 23.4261901 0.746698698 19.350756 14.4729171 5.59194358"></polygon>
                                    </g>
                                </g>
                                <polyline id="Path" fill="#D8AE64" fill-rule="nonzero" points="4.53115734 18.3699732 6.93718648 20.7819285 6.93718648 18.3498242 4.53115734 18.3699732"></polyline>
                            </g>
                            <g id="Group" transform="translate(16.181363, 3.555708)" fill="#FFFFFF" fill-rule="nonzero">
                                <path d="M6.8667372,13.3682772 C3.32940028,13.3682772 0.466462648,10.4804496 0.466462648,6.93481601 C0.466462648,3.40696097 3.32940028,0.519133381 6.8667372,0.519133381 C8.71277004,0.520645175 10.4679011,1.32063228 11.6799807,2.71300527 C12.062812,3.16932114 12.0260696,3.82771976 11.5887175,4.21173623 C11.1513654,4.61353124 10.4769661,4.55841777 10.0935423,4.11988044 C9.27919594,3.18989228 8.10287515,2.65692931 6.8667372,2.65789179 C4.51404369,2.65789179 2.58210896,4.57738154 2.58210896,6.93481601 C2.58210896,9.31121424 4.51404369,11.2301114 6.8667372,11.2301114 C8.10649409,11.2301114 9.27276634,10.6997183 10.0935423,9.76753011 C10.4769661,9.32899278 11.1513654,9.27447193 11.5887175,9.67626694 C12.0260696,10.0602834 12.062812,10.718682 11.6799807,11.1755905 C10.4676822,12.567523 8.71258184,13.3670639 6.8667372,13.3682772 M18.8091754,4.57738154 C18.8091754,5.16170291 18.335081,5.63698255 17.7329811,5.63698255 C16.5661162,5.63698255 15.6908194,6.58754185 15.6908194,7.8853753 L15.6908194,12.3086762 C15.6908194,12.8929975 15.216725,13.3682772 14.6335889,13.3682772 C14.0493134,13.3669701 13.5763584,12.8929532 13.5763584,12.3086762 L13.5763584,4.35752026 C13.5763584,3.77260628 14.0504528,3.29791925 14.6335889,3.29791925 C15.1254619,3.29791925 15.5266642,3.62622963 15.6546697,4.08373074 C16.284123,3.71198016 17.0019482,3.51630269 17.7329811,3.51718792 C18.335081,3.51718792 18.8091754,3.99246756 18.8091754,4.57738154 M24.1877765,5.47282736 C22.5829669,5.47282736 21.2886892,6.78843936 21.2886892,8.39680465 C21.2886892,9.9873914 22.5829669,11.303596 24.1877765,11.303596 C25.7919935,11.303596 27.0862712,9.9873914 27.0862712,8.39680465 C27.0862712,6.78843936 25.7919935,5.47282736 24.1877765,5.47282736 M24.1877765,13.4233906 C21.4161021,13.4233906 19.1736355,11.1572194 19.1736355,8.39680465 C19.1736355,5.61861139 21.4161021,3.35244011 24.1871839,3.35244011 C26.9588584,3.35244011 29.2196961,5.61861139 29.2196961,8.39680465 C29.2196961,11.1572194 26.9588584,13.4233906 24.1877765,13.4233906 M30.9702897,11.5222721 C30.848908,11.2683807 30.8345095,10.976394 30.9303231,10.7117923 C31.0261368,10.4471906 31.2241444,10.2321173 31.4799412,10.1148043 C31.7333941,9.99164572 32.0259736,9.97660287 32.290721,10.0731184 C32.5554684,10.1696339 32.7697211,10.3694459 32.8844459,10.6268262 C33.0302299,10.9195795 33.4314323,11.2484825 34.1425739,11.2484825 C35.1269125,11.2484825 35.473594,10.6451974 35.473594,10.2428098 C35.473594,9.6946381 35.32781,9.52989029 33.9055267,9.16424498 C33.2672771,9.01846094 32.6106564,8.85430575 32.0458914,8.48866044 C31.2802289,7.97663847 30.8606554,7.20860553 30.8606554,6.25863885 C30.8606554,5.50956968 31.1889658,4.75931527 31.7537307,4.21173623 C32.3558306,3.62622963 33.1937925,3.29791925 34.1419813,3.29791925 C35.4919652,3.29791925 36.6404589,3.95572525 37.1323318,5.03429003 C37.3877502,5.56409054 37.150703,6.18515422 36.6226803,6.4411652 C36.369099,6.56299574 36.0771011,6.57741256 35.8127521,6.48115382 C35.548403,6.38489508 35.3340444,6.18609612 35.2181756,5.92973585 C35.1091339,5.69209603 34.7624524,5.41771389 34.1425739,5.41771389 C33.3040194,5.41771389 32.9934876,5.94751439 32.9934876,6.25923147 C32.9934876,6.62428417 33.0669722,6.7700682 34.4157708,7.11734235 C35.6010069,7.41009565 37.5880551,7.90315384 37.5880551,10.2428098 C37.5880551,11.0286212 37.2603373,11.8150254 36.6766086,12.3999393 C36.2208853,12.8384767 35.4184805,13.3682772 34.1425739,13.3682772 C32.7025122,13.3682772 31.4805338,12.6553577 30.9702897,11.5222721 M39.3386487,11.5222721 C39.2173051,11.2683072 39.2029926,10.9762606 39.2989217,10.7116476 C39.3948509,10.4470347 39.592991,10.2320078 39.8488928,10.1148043 C40.1023457,9.99164572 40.3949252,9.97660287 40.6596726,10.0731184 C40.92442,10.1696339 41.1386727,10.3694459 41.2533975,10.6268262 C41.3991815,10.9195795 41.8003839,11.2484825 42.5109329,11.2484825 C43.4958641,11.2484825 43.841953,10.6451974 43.841953,10.2428098 C43.841953,9.6946381 43.6961689,9.52989029 42.2738857,9.16424498 C41.6362287,9.01846094 40.979608,8.85430575 40.4142504,8.48866044 C39.6485879,7.97663847 39.2290144,7.20860553 39.2290144,6.25863885 C39.2290144,5.50956968 39.5573247,4.75931527 40.1226823,4.21173623 C40.7241896,3.62622963 41.5627441,3.29791925 42.5109329,3.29791925 C43.8603241,3.29791925 45.0094105,3.95572525 45.5012834,5.03429003 C45.7561092,5.56409054 45.519062,6.18515422 44.9910393,6.4411652 C44.7374332,6.56282663 44.4454996,6.57715539 44.1811984,6.48091403 C43.9168971,6.38467268 43.7025312,6.18598256 43.5865346,5.92973585 C43.4774929,5.69209603 43.1308114,5.41771389 42.5109329,5.41771389 C41.6723784,5.41771389 41.3624392,5.94751439 41.3624392,6.25923147 C41.3624392,6.62428417 41.4353312,6.7700682 42.7847224,7.11734235 C43.9699585,7.41009565 45.9570067,7.90315384 45.9570067,10.2428098 C45.9570067,11.0286212 45.6292889,11.8150254 45.0455602,12.3999393 C44.5892443,12.8384767 43.7874321,13.3682772 42.5109329,13.3682772 C41.0708711,13.3682772 39.8488928,12.6553577 39.3386487,11.5222721 M55.0370999,8.32391263 C55.0370999,6.64265532 53.9247559,5.41771389 52.3750598,5.41771389 C50.8431422,5.41771389 49.7313908,6.64265532 49.7313908,8.32391263 C49.7313908,10.0057626 50.8431422,11.2301114 52.3744672,11.2301114 C53.9247559,11.2301114 55.0370999,10.0057626 55.0370999,8.32391263 M57.151561,8.32391263 C57.151561,9.67626694 56.6958377,10.9195795 55.8389121,11.8517677 C54.9509596,12.824793 53.6923244,13.3760515 52.3750598,13.3688698 C51.4335305,13.368696 50.5133149,13.0885676 49.7313908,12.5640945 L49.7313908,16.8777611 C49.7313908,17.462675 49.2389252,17.9373621 48.6551965,17.9373621 C48.0707853,17.936381 47.5976381,17.462173 47.5979658,16.8777611 L47.5979658,4.35752026 C47.5979658,3.77260628 48.0720604,3.29791925 48.6551965,3.29791925 C49.1476621,3.29791925 49.5856068,3.64460079 49.6946485,4.11988044 C50.4859114,3.58420854 51.4195278,3.29791925 52.3750598,3.29791925 C53.724451,3.29791925 54.9458367,3.82771976 55.8389121,4.79665021 C56.6958377,5.72824573 57.151561,6.98933686 57.151561,8.32391263 M59.9416066,13.3682772 C59.3570995,13.3672965 58.8837834,12.893184 58.8837834,12.3086762 L58.8837834,1.59769817 C58.8837834,1.01278419 59.3578778,0.537504539 59.9416066,0.537504539 C60.5247427,0.537504539 61.0172083,1.01278419 61.0172083,1.59829078 L61.0172083,12.3086762 C61.0172083,12.8929975 60.5253353,13.3682772 59.9416066,13.3682772 M70.187972,8.34228379 C70.187972,6.64265532 69.0578495,5.41771389 67.5259319,5.41771389 C65.9762358,5.41771389 64.8638918,6.64265532 64.8638918,8.34228379 C64.8638918,10.0235411 65.9762358,11.2478899 67.5259319,11.2478899 C69.0578495,11.2478899 70.187972,10.0235411 70.187972,8.34228379 M72.3036184,4.35752026 L72.3036184,12.3086762 C72.3036184,12.8929975 71.8289313,13.3683468 71.2457952,13.3683468 C70.7349585,13.3683468 70.3153849,13.0215956 70.2063432,12.5457234 C69.4174999,13.0865006 68.4823244,13.3734835 67.5259319,13.3683468 C66.1771333,13.3683468 64.955155,12.8384767 64.061487,11.8511751 C63.2229325,10.9373581 62.7494307,9.67626694 62.7494307,8.34228379 C62.7494307,6.98992948 63.2235251,5.72883835 64.061487,4.81442875 C64.955155,3.82771976 66.1771333,3.29732663 67.5259319,3.29732663 C68.5108631,3.29732663 69.4400881,3.59007993 70.2063432,4.11988044 C70.3172214,3.63605057 70.7494307,3.29427052 71.2457952,3.29791925 C71.8289313,3.29791925 72.3030257,3.77260628 72.3030257,4.35752026 M82.4587207,7.66610663 L82.4587207,12.3080835 C82.4587207,12.8935901 81.9846262,13.3688698 81.3825263,13.3688698 C80.7977878,13.367562 80.3246403,12.8928231 80.3252958,12.3080835 L80.3252958,7.66610663 C80.3252958,6.58754185 79.7231959,5.41771389 78.3743973,5.41771389 C77.1530116,5.41771389 76.2409724,6.38664434 76.2409724,7.66610663 L76.2409724,12.3080835 C76.2409724,12.8935901 75.766878,13.3688698 75.1837419,13.3688698 C74.5987718,13.3678887 74.1252636,12.8930541 74.1259181,12.3080835 L74.1259181,4.35752026 C74.1263351,3.85912357 74.4740289,3.42838668 74.9611212,3.32283812 C75.4482135,3.21728957 75.9430213,3.46546391 76.1497093,3.91898293 C76.7879589,3.5165953 77.554214,3.29791925 78.3743973,3.29791925 C80.6897559,3.29791925 82.4587207,5.18007406 82.4587207,7.66551402 M86.359925,7.30046132 L91.15539,7.30046132 C90.7903373,6.03937019 89.7876276,5.4544562 88.784918,5.4544562 C87.8005794,5.4544562 86.7427563,6.03937019 86.359925,7.30046132 M88.8761811,13.4595403 C87.5267899,13.4595403 86.3054042,12.8746264 85.4117362,11.8879174 C84.5554032,10.9741004 84.0990873,9.71300926 84.0990873,8.37902611 C84.0990873,5.4906059 86.1228778,3.33406895 88.784918,3.33406895 C91.4653292,3.33406895 93.4162277,5.4544562 93.4162277,8.37902611 C93.4162277,8.96334747 92.9421333,9.43862712 92.3400334,9.43862712 L86.3782962,9.43862712 C86.7427563,10.5539342 87.6909451,11.3397457 88.8761811,11.3397457 C89.5896932,11.3397457 90.1959415,11.1886281 90.6291452,10.7720176 C90.7601138,10.6451974 90.8756743,10.4946724 90.9728637,10.3157018 C91.2769029,9.81501528 91.9272383,9.65223323 92.4312966,9.95064908 C92.9313273,10.2568713 93.0937375,10.9073032 92.7963493,11.4126377 C91.9755733,12.8935901 90.5538827,13.4595403 88.8761811,13.4595403" id="Shape"></path>
                            </g>
                        </g>
                        <g id="Standard-White" transform="translate(33.430412, 0.000000)" fill="#FFFFFF" fill-rule="nonzero">
                            <path d="M18.3912313,13.7535163 L18.3257737,20.380327 C18.3257737,26.7411681 12.0680182,28.032563 9.88827709,28.032563 C5.35860474,28.0293586 1.53260261,25.3280039 1.53260261,20.380327 L1.53260261,13.3785952 C1.53260261,11.8308439 2.44573742,10.9015523 3.92180838,10.9015523 C5.39787938,10.9015523 6.34374304,11.8308439 6.34374304,13.3785952 L6.34374304,19.8451832 C6.34374304,22.3542706 7.65289689,23.7289814 9.88827709,23.7289814 C12.2774829,23.7289814 13.580091,22.5593557 13.580091,19.8451832 L13.580091,13.7567207 C13.580091,12.2121739 14.4932257,11.2828823 16.0052985,11.2828823 C17.5173712,11.2828823 18.3912313,12.2089695 18.3912313,13.7535163 Z" id="Path"></path>
                            <path d="M97.5756998,13.3785952 L97.5069689,20.380327 C97.5069689,26.7411681 91.2492136,28.032563 89.0727456,28.032563 C84.543073,28.032563 80.7170711,25.3312084 80.7170711,20.380327 L80.7170711,13.3785952 C80.7170711,11.8308439 81.6302056,10.9015523 83.1062766,10.9015523 C84.5823476,10.9015523 85.5282113,11.8308439 85.5282113,13.3785952 L85.5282113,19.8451832 C85.5282113,22.3542706 86.8373652,23.7289814 89.0727456,23.7289814 C91.4619511,23.7289814 92.7645592,22.5593557 92.7645592,19.8451832 L92.7645592,13.3785952 C92.7645592,11.8308439 93.6776941,10.9015523 95.1864938,10.9015523 C96.6952936,10.9015523 97.5756998,11.8308439 97.5756998,13.3785952 Z" id="Path"></path>
                            <path d="M38.570499,19.5073709 C38.570499,24.7332415 35.3057248,28.1163721 30.3705238,28.1163721 C28.1344676,28.1163721 26.3251145,27.3652726 25.1177764,26.0667615 L25.0416976,26.0667615 L25.0416976,31.7700259 C25.0416976,33.3072339 24.122136,34.2620214 22.5939438,34.2620214 C21.0657515,34.2620214 20.1792677,33.3072339 20.1792677,31.7700259 L20.1792677,13.5654096 C20.1792677,12.0282016 21.1021371,11.1052403 22.5939438,11.1052403 C23.917054,11.1052403 24.7936145,11.7895047 25.0086199,12.9861718 L25.0780832,12.9861718 C26.2854212,11.6526518 28.0947743,10.9015523 30.3705238,10.9015523 C35.302417,10.9015523 38.570499,14.2815003 38.570499,19.5073709 Z M33.6088359,19.5073709 C33.6088359,16.9135313 31.8689461,15.1726353 29.3848067,15.1726353 C26.9006674,15.1726353 25.0416976,16.9803665 25.0416976,19.5073709 C25.0416976,22.0343753 26.8543585,23.8452891 29.3748834,23.8452891 C31.8954083,23.8452891 33.6088359,22.0693842 33.6088359,19.5073709 Z" id="Shape"></path>
                            <path d="M58.749767,19.2846408 C58.749767,24.5948398 55.4816847,28.032563 50.5497917,28.032563 C48.2773499,28.032563 46.4679968,27.2693432 45.257351,25.8787308 L45.1845796,25.8787308 C45.0399471,27.037887 43.9986371,27.8874667 42.8062891,27.8191202 C41.2814049,27.8191202 40.3585353,26.8489255 40.3585353,25.286912 L40.3585353,5.64693737 C40.3585353,4.08492391 41.2814049,3.11472922 42.8062891,3.11472922 C44.3311738,3.11472922 45.2209655,4.08492391 45.2209655,5.64693737 L45.2209655,12.658211 L45.2904288,12.658211 C46.464689,11.3031724 48.2674267,10.5399526 50.5464839,10.5399526 C55.4816847,10.5399526 58.749767,13.9744418 58.749767,19.2846408 Z M53.7881036,19.2846408 C53.7881036,16.6489452 52.0482137,14.8799569 49.5640744,14.8799569 C47.0799351,14.8799569 45.2341965,16.7168589 45.2341965,19.2846408 C45.2341965,21.8524228 47.0435496,23.6925587 49.5640744,23.6925587 C52.0845995,23.6925587 53.7781803,21.8879966 53.7781803,19.2846408 L53.7881036,19.2846408 Z" id="Shape"></path>
                            <path d="M69.7120223,10.9015523 C75.1862693,10.9015523 78.9290347,14.3721271 78.9290347,19.4591339 C78.9290347,24.5461408 75.1862693,28.032563 69.7120223,28.032563 C64.2377753,28.032563 60.537803,24.5398019 60.537803,19.4718119 C60.537803,14.4038218 64.2706931,10.9015523 69.7120223,10.9015523 Z M69.7120223,23.7918058 C72.2532841,23.7918058 73.9913493,22.023239 73.9913493,19.4718119 C73.9913493,16.9203847 72.2598677,15.1549873 69.7120223,15.1549873 C67.1641766,15.1549873 65.4754884,16.88869 65.4754884,19.4718119 C65.4754884,22.0549337 67.2036783,23.7918058 69.7120223,23.7918058 Z" id="Shape"></path>
                            <path d="M116.222365,18.5374182 L116.222365,25.5225365 C116.222365,27.070867 115.314868,28.032563 113.812131,28.032563 C112.309393,28.032563 111.440929,27.070867 111.440929,25.5225365 L111.440929,19.0887906 C111.440929,16.5435019 110.253701,15.2035389 107.950805,15.2035389 C105.540571,15.2035389 104.145172,16.8063655 104.145172,19.537582 L104.145172,25.5225365 C104.145172,27.070867 103.237675,28.032563 101.734938,28.032563 C100.232201,28.032563 99.3637362,27.070867 99.3637362,25.5225365 L99.3637362,13.6199462 C99.3637362,12.0716157 100.271233,11.1067141 101.734938,11.1067141 C102.893888,11.0321922 103.921077,11.8365166 104.109393,12.9659929 L104.180952,12.9659929 C105.3324,11.6228243 107.007529,10.9015523 109.206339,10.9015523 C113.782856,10.9015523 116.222365,13.584684 116.222365,18.5374182 Z" id="Path"></path>
                            <path d="M136.401633,5.64660878 L136.401633,25.2872683 C136.401633,26.8490791 135.478763,27.8191479 133.950571,27.8191479 C132.758774,27.8858524 131.718458,27.0371935 131.57228,25.8790103 L131.502817,25.8790103 C130.295479,27.2694422 128.486126,28.032563 126.210377,28.032563 C121.275175,28.032563 118.010401,24.5952859 118.010401,19.285776 C118.010401,13.9762662 121.275175,10.5551569 126.210377,10.5551569 C128.482818,10.5551569 130.292171,11.3182777 131.463124,12.6731404 L131.535895,12.6731404 L131.535895,5.64660878 C131.535895,4.08479801 132.458764,3.11472922 133.947263,3.11472922 C135.435762,3.11472922 136.401633,4.08479801 136.401633,5.64660878 Z M131.539203,19.2825425 C131.539203,16.7150937 129.726542,14.8784301 127.206017,14.8784301 C124.685492,14.8784301 122.981988,16.6471889 122.981988,19.2825425 C122.981988,21.917896 124.731801,23.6898884 127.206017,23.6898884 C129.680233,23.6898884 131.539203,21.8532248 131.539203,19.2825425 Z" id="Shape"></path>
                            <ellipse id="Oval" cx="3.83150655" cy="3.89341151" rx="3.83150655" ry="3.89341151"></ellipse>
                        </g>
                    </g>
                </g>
            </g>
        </g>
    </g>
</svg>