<?xml version="1.0" encoding="UTF-8"?>
<svg width="101px" height="76px" viewBox="0 0 101 76" version="1.1" xmlns="http://www.w3.org/2000/svg" xmlns:xlink="http://www.w3.org/1999/xlink">
    <!-- Generator: Sketch 62 (91390) - https://sketch.com -->
    <title>Group 16 Copy 6</title>
    <desc>Created with Sketch.</desc>
    <defs>
        <path d="M0.257792225,17.2891388 C0.232788573,17.8651385 0.234053573,18.4419786 0.261583287,19.0178632 C0.254001162,19.1657146 0.238836914,19.3116705 0.238836914,19.4614174 L0.238836914,48.5824611 C0.238836914,54.1515314 4.7843204,58.7083881 10.3401219,58.7083881 L25.5422811,58.7083881 C31.0961871,58.7083881 35.6435661,54.1515314 35.6435661,48.5824611 L35.6435661,19.4614174 C35.6435661,19.2908196 35.6246108,19.127804 35.6170287,18.9609972 C35.6446237,18.4040678 35.6452562,17.8461294 35.6189242,17.2891388 C35.1905342,7.8721405 27.4378121,0.371524088 17.939306,0.371524088 C8.43890429,0.371524088 0.686182245,7.8721405 0.257792225,17.2872433 L0.257792225,17.2891388 Z" id="path-1"></path>
        <path d="M0.257792225,17.2891388 C0.232788573,17.8651385 0.234053573,18.4419786 0.261583287,19.0178632 C0.254001162,19.1657146 0.238836914,19.3116705 0.238836914,19.4614174 L0.238836914,48.5824611 C0.238836914,54.1515314 4.7843204,58.7083881 10.3401219,58.7083881 L25.5422811,58.7083881 C31.0961871,58.7083881 35.6435661,54.1515314 35.6435661,48.5824611 L35.6435661,19.4614174 C35.6435661,19.2908196 35.6246108,19.127804 35.6170287,18.9609972 C35.6446237,18.4040678 35.6452562,17.8461294 35.6189242,17.2891388 C35.1905342,7.8721405 27.4378121,0.371524088 17.939306,0.371524088 C8.43890429,0.371524088 0.686182245,7.8721405 0.257792225,17.2872433 L0.257792225,17.2891388 Z" id="path-3"></path>
        <path d="M0.257792225,17.2891388 C0.232788573,17.8651385 0.234053573,18.4419786 0.261583287,19.0178632 C0.254001162,19.1657146 0.238836914,19.3116705 0.238836914,19.4614174 L0.238836914,48.5824611 C0.238836914,54.1515314 4.7843204,58.7083881 10.3401219,58.7083881 L25.5422811,58.7083881 C31.0961871,58.7083881 35.6435661,54.1515314 35.6435661,48.5824611 L35.6435661,19.4614174 C35.6435661,19.2908196 35.6246108,19.127804 35.6170287,18.9609972 C35.6446237,18.4040678 35.6452562,17.8461294 35.6189242,17.2891388 C35.1905342,7.8721405 27.4378121,0.371524088 17.939306,0.371524088 C8.43890429,0.371524088 0.686182245,7.8721405 0.257792225,17.2872433 L0.257792225,17.2891388 Z" id="path-5"></path>
    </defs>
    <g id="*Images" stroke="none" stroke-width="1" fill="none" fill-rule="evenodd">
        <g id="Group-16-Copy-6" transform="translate(-46.000000, 0.000000)">
            <rect id="Rectangle-21-Copy-2" x="0" y="8.33802817" width="146.382414" height="52.8075117" rx="8"></rect>
            <text id="+" font-family="Avenir-Black, Avenir" font-size="36.372569" font-weight="700" fill="#FFFFFF">
                <tspan x="44.0563949" y="48.7219745">+</tspan>
            </text>
            <g id="Group-16" transform="translate(111.173709, -0.000000)">
                <path d="M17.725111,24.4466641 C15.2727217,24.4508482 13.2874722,26.441188 13.2895646,28.89358 L13.2895646,70.7469059 C13.2880591,71.9247934 13.7545263,73.0550371 14.5863521,73.8889958 C15.4181779,74.7229545 16.5472234,75.1923145 17.725111,75.1938217 C20.1760326,75.1938217 22.1625508,73.2035141 22.1625508,70.7469059 L22.1625508,28.89358 C22.1646452,26.441188 20.1793958,24.4508482 17.7270065,24.4466641" id="Path" fill="#F7D186" fill-rule="nonzero"></path>
                <path d="M35.5298342,18.9609972 C35.5555716,18.4040082 35.5555716,17.8461278 35.5298342,17.2891388 C35.1052353,7.8721405 27.3525132,0.369628557 17.8521116,0.369628557 C8.35170986,0.369628557 0.598987816,7.8721405 0.170597796,17.2891388 C0.143649635,17.8650805 0.144282202,18.441982 0.172493327,19.0178632 C0.166806734,19.1657146 0.151642485,19.3116705 0.151642485,19.4614174 L0.151642485,48.5824611 C0.151642485,54.1515314 4.69712597,58.7083881 10.2529275,58.7083881 L25.4550866,58.7083881 C31.0089927,58.7083881 35.5544761,54.1515314 35.5544761,48.5824611 L35.5544761,19.4614174 C35.5544761,19.2908196 35.5374164,19.127804 35.5298342,18.9609972" id="Path" fill="#FF9234" fill-rule="nonzero"></path>
                <g id="Group" transform="translate(0.000000, 0.000000)">
                    <g id="Clipped">
                        <mask id="mask-2" fill="white">
                            <use xlink:href="#path-1"></use>
                        </mask>
                        <g id="a"></g>
                        <polygon id="Path" fill="#FFCD3C" fill-rule="nonzero" mask="url(#mask-2)" points="46.2509579 17.8445294 2.34477192 61.8549696 -10.6585712 48.8194025 33.2457193 4.80896231"></polygon>
                    </g>
                </g>
                <g id="Group" transform="translate(0.000000, 0.000000)">
                    <g id="Clipped">
                        <mask id="mask-4" fill="white">
                            <use xlink:href="#path-3"></use>
                        </mask>
                        <g id="c"></g>
                        <polygon id="Path" fill="#F3807B" fill-rule="nonzero" mask="url(#mask-4)" points="33.2059132 4.76726062 -10.6983773 48.7777008 -26.8786305 32.5576415 17.0218689 -11.4527987"></polygon>
                    </g>
                </g>
                <g id="Group" transform="translate(0.000000, 0.000000)">
                    <g id="Clipped">
                        <mask id="mask-6" fill="white">
                            <use xlink:href="#path-5"></use>
                        </mask>
                        <g id="e"></g>
                        <polygon id="Path" fill="#35D0BA" fill-rule="nonzero" mask="url(#mask-6)" points="59.2960027 30.9217982 15.3917122 74.9303429 2.38836914 61.8947758 46.2926596 17.8862311"></polygon>
                    </g>
                </g>
                <polyline id="Path" fill="#D8AE64" fill-rule="nonzero" points="14.4932305 58.7576719 22.1890866 66.4724833 22.1890866 58.6932238 14.4932305 58.7576719"></polyline>
            </g>
        </g>
    </g>
</svg>