<?xml version="1.0" encoding="UTF-8"?>
<svg width="74px" height="71px" viewBox="0 0 74 71" version="1.1" xmlns="http://www.w3.org/2000/svg" xmlns:xlink="http://www.w3.org/1999/xlink">
    <!-- Generator: Sketch 62 (91390) - https://sketch.com -->
    <title>Group 16 Copy</title>
    <desc>Created with Sketch.</desc>
    <g id="*Images" stroke="none" stroke-width="1" fill="none" fill-rule="evenodd">
        <g id="Group-16-Copy" transform="translate(-52.000000, -1.000000)">
            <rect id="Rectangle-21-Copy-2" x="1.42108547e-14" y="0" width="210.671988" height="76" rx="8"></rect>
            <g id="Home-image1-additional" transform="translate(52.000000, 1.000000)" fill="#2FD3BC" fill-rule="nonzero">
                <path d="M73.5647059,34.0617647 L67.2892157,25.5009804 L67.3617647,14.872549 C67.3617647,13.8931373 66.745098,13.0588235 65.8382353,12.7686275 L55.7176471,9.57647059 L49.5509804,0.943137255 C48.9705882,0.145098039 47.9911765,-0.181372549 47.0480392,0.145098039 L37,3.48235294 L26.9519608,0.108823529 C26.045098,-0.181372549 25.0294118,0.145098039 24.4490196,0.906862745 L18.2823529,9.54019608 L8.16176471,12.7323529 C7.25490196,13.0588235 6.63823529,13.9294118 6.63823529,14.872549 L6.71078431,25.5009804 L0.435294118,34.0617647 C-0.145098039,34.8235294 -0.145098039,35.9117647 0.435294118,36.6735294 L6.71078431,45.2343137 L6.63823529,55.8627451 C6.63823529,56.8421569 7.25490196,57.6764706 8.16176471,57.9666667 L18.2823529,61.1588235 L24.4490196,69.7921569 C24.8843137,70.372549 25.5372549,70.6990196 26.2264706,70.6990196 C26.4441176,70.6990196 26.6980392,70.6627451 26.9156863,70.5901961 L36.9637255,67.2166667 L47.0117647,70.5901961 C47.9186275,70.8803922 48.9343137,70.5539216 49.5147059,69.7921569 L55.6813725,61.1588235 L65.8019608,57.9666667 C66.7088235,57.6764706 67.3617647,56.8058824 67.3254902,55.8627451 L67.2529412,45.2343137 L73.5284314,36.6735294 C74.145098,35.9117647 74.145098,34.8235294 73.5647059,34.0617647 L73.5647059,34.0617647 Z M63.2990196,43.2029412 C63.0088235,43.6019608 62.8637255,44.0372549 62.8637255,44.5088235 L62.9362745,54.2303922 L53.6862745,57.1686275 C53.2147059,57.3137255 52.8519608,57.6039216 52.5617647,58.0029412 L46.9029412,65.9107843 L37.6892157,62.827451 C37.2539216,62.6823529 36.7460784,62.6823529 36.3107843,62.827451 L27.0970588,65.9107843 L21.4382353,58.0029412 C21.1480392,57.6039216 20.7490196,57.3137255 20.3137255,57.1686275 L11.0637255,54.2303922 L11.1362745,44.5088235 C11.1362745,44.0372549 10.9911765,43.5656863 10.7009804,43.2029412 L4.93333333,35.3676471 L10.7009804,27.5323529 C10.9911765,27.1333333 11.1362745,26.6980392 11.1362745,26.2264706 L11.0637255,16.504902 L20.3137255,13.5666667 C20.7852941,13.4215686 21.1480392,13.1313725 21.4382353,12.7323529 L27.0970588,4.8245098 L36.3107843,7.90784314 C36.7460784,8.05294118 37.2539216,8.05294118 37.6892157,7.90784314 L46.9029412,4.8245098 L52.5617647,12.7323529 C52.8519608,13.1313725 53.2509804,13.4215686 53.6862745,13.5666667 L62.9362745,16.504902 L62.8637255,26.2264706 C62.8637255,26.6980392 63.0088235,27.1696078 63.2990196,27.5323529 L69.0666667,35.3676471 L63.2990196,43.2029412 Z" id="Shape"></path>
                <path d="M47.8460784,25.5372549 L32.9009804,40.5186275 L26.1539216,33.8078431 C25.2833333,32.9372549 23.904902,32.9372549 23.0343137,33.8078431 C22.1637255,34.6784314 22.1637255,36.0568627 23.0343137,36.927451 L31.304902,45.1980392 C31.7401961,45.6333333 32.2843137,45.8509804 32.8647059,45.8509804 C33.445098,45.8509804 33.9892157,45.6333333 34.4245098,45.1980392 L50.9294118,28.6568627 C51.8,27.7862745 51.8,26.4078431 50.9294118,25.5372549 C50.095098,24.6666667 48.6803922,24.6666667 47.8460784,25.5372549 L47.8460784,25.5372549 Z" id="Path"></path>
            </g>
        </g>
    </g>
</svg>