<?xml version="1.0" encoding="UTF-8"?>
<svg width="131px" height="128px" viewBox="0 0 131 128" version="1.1" xmlns="http://www.w3.org/2000/svg" xmlns:xlink="http://www.w3.org/1999/xlink">
    <!-- Generator: Sketch 62 (91390) - https://sketch.com -->
    <title>Group 16 Copy 2</title>
    <desc>Created with Sketch.</desc>
    <defs>
        <path d="M83.5058824,38.6647059 L76.3823529,28.9470588 L76.4647059,16.8823529 C76.4647059,15.7705882 75.7647059,14.8235294 74.7352941,14.4941176 L63.2470588,10.8705882 L56.2470588,1.07058824 C55.5882353,0.164705882 54.4764706,-0.205882353 53.4058824,0.164705882 L42,3.95294118 L30.5941176,0.123529412 C29.5647059,-0.205882353 28.4117647,0.164705882 27.7529412,1.02941176 L20.7529412,10.8294118 L9.26470588,14.4529412 C8.23529412,14.8235294 7.53529412,15.8117647 7.53529412,16.8823529 L7.61764706,28.9470588 L0.494117647,38.6647059 C-0.164705882,39.5294118 -0.164705882,40.7647059 0.494117647,41.6294118 L7.61764706,51.3470588 L7.53529412,63.4117647 C7.53529412,64.5235294 8.23529412,65.4705882 9.26470588,65.8 L20.7529412,69.4235294 L27.7529412,79.2235294 C28.2470588,79.8823529 28.9882353,80.2529412 29.7705882,80.2529412 C30.0176471,80.2529412 30.3058824,80.2117647 30.5529412,80.1294118 L41.9588235,76.3 L53.3647059,80.1294118 C54.3941176,80.4588235 55.5470588,80.0882353 56.2058824,79.2235294 L63.2058824,69.4235294 L74.6941176,65.8 C75.7235294,65.4705882 76.4647059,64.4823529 76.4235294,63.4117647 L76.3411765,51.3470588 L83.4647059,41.6294118 C84.1647059,40.7647059 84.1647059,39.5294118 83.5058824,38.6647059 L83.5058824,38.6647059 Z" id="path-1"></path>
        <filter x="-51.2%" y="-41.2%" width="202.5%" height="207.3%" filterUnits="objectBoundingBox" id="filter-2">
            <feMorphology radius="0.541149847" operator="dilate" in="SourceAlpha" result="shadowSpreadOuter1"></feMorphology>
            <feOffset dx="0" dy="10" in="shadowSpreadOuter1" result="shadowOffsetOuter1"></feOffset>
            <feGaussianBlur stdDeviation="12.5" in="shadowOffsetOuter1" result="shadowBlurOuter1"></feGaussianBlur>
            <feComposite in="shadowBlurOuter1" in2="SourceAlpha" operator="out" result="shadowBlurOuter1"></feComposite>
            <feColorMatrix values="0 0 0 0 0.192156863   0 0 0 0 0.250980392   0 0 0 0 0.466666667  0 0 0 0.1 0" type="matrix" in="shadowBlurOuter1"></feColorMatrix>
        </filter>
        <path d="M0.161005113,10.7979973 C0.145388988,11.1577401 0.146179048,11.5180078 0.163372835,11.8776787 C0.158637391,11.9700199 0.149166502,12.0611772 0.149166502,12.1547022 L0.149166502,30.3423607 C0.149166502,33.8205447 2.98806548,36.6665468 6.45796245,36.6665468 L15.9525287,36.6665468 C19.4212418,36.6665468 22.2613246,33.8205447 22.2613246,30.3423607 L22.2613246,12.1547022 C22.2613246,12.0481547 22.249486,11.9463426 22.2447506,11.8421628 C22.2619851,11.4943305 22.2623802,11.1458679 22.2459344,10.7979973 C21.9783818,4.91657526 17.1363898,0.232036781 11.2040617,0.232036781 C5.27054974,0.232036781 0.428557728,4.91657526 0.161005113,10.7968135 L0.161005113,10.7979973 Z" id="path-3"></path>
        <path d="M0.161005113,10.7979973 C0.145388988,11.1577401 0.146179048,11.5180078 0.163372835,11.8776787 C0.158637391,11.9700199 0.149166502,12.0611772 0.149166502,12.1547022 L0.149166502,30.3423607 C0.149166502,33.8205447 2.98806548,36.6665468 6.45796245,36.6665468 L15.9525287,36.6665468 C19.4212418,36.6665468 22.2613246,33.8205447 22.2613246,30.3423607 L22.2613246,12.1547022 C22.2613246,12.0481547 22.249486,11.9463426 22.2447506,11.8421628 C22.2619851,11.4943305 22.2623802,11.1458679 22.2459344,10.7979973 C21.9783818,4.91657526 17.1363898,0.232036781 11.2040617,0.232036781 C5.27054974,0.232036781 0.428557728,4.91657526 0.161005113,10.7968135 L0.161005113,10.7979973 Z" id="path-5"></path>
        <path d="M0.161005113,10.7979973 C0.145388988,11.1577401 0.146179048,11.5180078 0.163372835,11.8776787 C0.158637391,11.9700199 0.149166502,12.0611772 0.149166502,12.1547022 L0.149166502,30.3423607 C0.149166502,33.8205447 2.98806548,36.6665468 6.45796245,36.6665468 L15.9525287,36.6665468 C19.4212418,36.6665468 22.2613246,33.8205447 22.2613246,30.3423607 L22.2613246,12.1547022 C22.2613246,12.0481547 22.249486,11.9463426 22.2447506,11.8421628 C22.2619851,11.4943305 22.2623802,11.1458679 22.2459344,10.7979973 C21.9783818,4.91657526 17.1363898,0.232036781 11.2040617,0.232036781 C5.27054974,0.232036781 0.428557728,4.91657526 0.161005113,10.7968135 L0.161005113,10.7979973 Z" id="path-7"></path>
    </defs>
    <g id="*Images" stroke="none" stroke-width="1" fill="none" fill-rule="evenodd">
        <g id="Group-16-Copy-2" transform="translate(-45.000000, 14.000000)">
            <rect id="Rectangle-21-Copy-2" x="0" y="4" width="210.671988" height="76" rx="8"></rect>
            <g id="Home-image1-additional" transform="translate(69.000000, 0.000000)">
                <g id="Shape-path" fill-rule="nonzero">
                    <use fill="black" fill-opacity="1" filter="url(#filter-2)" xlink:href="#path-1"></use>
                    <path stroke="#D2DCEA" stroke-width="0.541149847" d="M84.265284,40.1607584 C84.2572473,40.7394011 84.0635321,41.3172657 83.6791946,41.7944731 L76.6123555,51.4347854 L76.6939044,63.4013657 C76.7166789,63.9935025 76.5262401,64.5636623 76.1867833,65.032436 C75.8445003,65.5051125 75.3509474,65.8739053 74.7755077,66.0580435 L63.3735019,69.6543751 L56.4211062,79.3875095 C56.0571085,79.8652566 55.5566183,80.2066407 55.0047552,80.382597 C54.4531731,80.5584638 53.8506419,80.5690021 53.2785872,80.3859159 L41.9588235,76.5854176 L30.6385045,80.3861017 C30.3644257,80.4774613 30.0447046,80.5235161 29.7705882,80.5235161 C28.9049815,80.5235161 28.0836095,80.1153787 27.5327653,79.3807979 L20.5853201,69.6543746 L9.18224121,66.0577021 C8.60884834,65.8742164 8.12777187,65.5177658 7.79077582,65.0523903 C7.45733783,64.5919283 7.26471919,64.0245685 7.2647255,63.4099178 L7.34646703,51.4347835 L0.27889377,41.7933919 C-0.0869580159,41.3132114 -0.270574924,40.7302838 -0.270574924,40.1470588 C-0.270574924,39.5638338 -0.0869580159,38.9809063 0.275895284,38.5047378 L7.34646707,28.8593335 L7.26471919,16.8823529 C7.26471919,16.2897371 7.45797219,15.7196276 7.79458353,15.2467688 C8.1305013,14.7748844 8.60897204,14.400191 9.17827993,14.1964861 L20.5853216,10.5985661 L27.5377173,0.865431668 C27.9017151,0.387684595 28.4022052,0.0463005014 28.9540683,-0.129655854 C29.5056504,-0.305522606 30.1081817,-0.31606089 30.6802364,-0.132974696 L42.0004635,3.66767919 L53.3173744,-0.0909836522 C53.9077114,-0.295331057 54.5092238,-0.295425918 55.0545885,-0.121541524 C55.6050516,0.0539684407 56.0991756,0.4072217 56.4672347,0.913319755 L63.4146799,10.6397431 L74.8177588,14.2364156 C75.3911517,14.4199013 75.8722281,14.7763518 76.2092242,15.2417273 C76.5426622,15.7021893 76.7352808,16.2695492 76.7352745,16.8841998 L76.653533,28.8593336 L83.7211062,38.5007258 C84.0898566,38.9847107 84.2734475,39.5729834 84.265284,40.1607584 Z" fill="#FFFFFF" fill-rule="evenodd"></path>
                </g>
                <g id="Group-16" transform="translate(31.000000, 17.027027)">
                    <path d="M11.0702854,15.268257 C9.53863635,15.2708701 8.29874126,16.5139444 8.30004808,18.0455952 L8.30004808,44.1852488 C8.29910782,44.920903 8.59044166,45.626801 9.10996163,46.1476531 C9.62948161,46.6685051 10.3346313,46.9616457 11.0702854,46.962587 C12.6010178,46.962587 13.8417053,45.7195328 13.8417053,44.1852488 L13.8417053,18.0455952 C13.8430134,16.5139444 12.6031183,15.2708701 11.0714693,15.268257" id="Path" fill="#F7D186" fill-rule="nonzero"></path>
                    <path d="M22.190293,11.8421628 C22.2063673,11.4942933 22.2063673,11.1458669 22.190293,10.7979973 C21.9251081,4.91657526 17.0831161,0.23085292 11.1496041,0.23085292 C5.21609212,0.23085292 0.374100116,4.91657526 0.106547501,10.7979973 C0.089716925,11.1577039 0.0901119974,11.5180099 0.107731363,11.8776787 C0.104179779,11.9700199 0.0947088901,12.0611772 0.0947088901,12.1547022 L0.0947088901,30.3423607 C0.0947088901,33.8205447 2.93360787,36.6665468 6.40350483,36.6665468 L15.8980711,36.6665468 C19.3667842,36.6665468 22.2056832,33.8205447 22.2056832,30.3423607 L22.2056832,12.1547022 C22.2056832,12.0481547 22.1950284,11.9463426 22.190293,11.8421628" id="Path" fill="#FF9234" fill-rule="nonzero"></path>
                    <g id="Group" transform="translate(0.000000, 0.000000)">
                        <g id="Clipped">
                            <mask id="mask-4" fill="white">
                                <use xlink:href="#path-3"></use>
                            </mask>
                            <g id="a"></g>
                            <polygon id="Path" fill="#FFCD3C" fill-rule="nonzero" mask="url(#mask-4)" points="28.8862115 11.1448686 1.46443621 38.6317563 -6.65685112 30.4903433 20.7637403 3.00345568"></polygon>
                        </g>
                    </g>
                    <g id="Group" transform="translate(0.000000, 0.000000)">
                        <g id="Clipped">
                            <mask id="mask-6" fill="white">
                                <use xlink:href="#path-5"></use>
                            </mask>
                            <g id="c"></g>
                            <polygon id="Path" fill="#F3807B" fill-rule="nonzero" mask="url(#mask-6)" points="20.7388792 2.97741073 -6.6817122 30.4642984 -16.7871508 20.3339987 10.6310729 -7.15288893"></polygon>
                        </g>
                    </g>
                    <g id="Group" transform="translate(0.000000, 0.000000)">
                        <g id="Clipped">
                            <mask id="mask-8" fill="white">
                                <use xlink:href="#path-7"></use>
                            </mask>
                            <g id="e"></g>
                            <polygon id="Path" fill="#35D0BA" fill-rule="nonzero" mask="url(#mask-8)" points="37.0335438 19.3123266 9.61295235 46.7980303 1.49166502 38.6566174 28.9122564 11.1709136"></polygon>
                        </g>
                    </g>
                    <polyline id="Path" fill="#D8AE64" fill-rule="nonzero" points="9.05180217 36.6973272 13.8582783 41.515642 13.8582783 36.6570759 9.05180217 36.6973272"></polyline>
                </g>
            </g>
        </g>
    </g>
</svg>