<svg xmlns="http://www.w3.org/2000/svg" viewBox="0 0 48 48">
  <defs>
    <filter id="a">
      <feColorMatrix in="SourceGraphic" values="0 0 0 0 0.184314 0 0 0 0 0.827451 0 0 0 0 0.737255 0 0 0 1.000000 0"/>
    </filter>
  </defs>
  <g fill="none" fill-rule="evenodd" filter="url(#a)" transform="translate(-1151 -1291)">
    <path fill="#0E5F81" d="M1175 1294c-11.58 0-21 9.42-21 21s9.42 21 21 21 21-9.42 21-21-9.42-21-21-21m0 45c-13.234 0-24-10.766-24-24s10.766-24 24-24 24 10.766 24 24-10.766 24-24 24"/>
    <path stroke="#2C3E50" stroke-linecap="round" stroke-linejoin="round" stroke-width="3.025" d="M1171 1328.635c-5.733 1.696-5.733-3.03-8-3.635"/>
    <path fill="#D8D8D8" d="M1182.178 1335.106c-1.685 0-2.578-3.061-2.678-9.183 0-1.451.15-2.031-.75-2.902 4.2-.435 8.25-2.03 8.25-8.704-.002-1.734-.701-3.399-1.95-4.642.586-1.506.532-3.175-.15-4.643 0 0-1.65-.435-5.25 1.886-3.05-.768-6.25-.768-9.3 0-3.6-2.32-5.25-1.886-5.25-1.886-.682 1.468-.736 3.137-.15 4.643-1.249 1.243-1.948 2.908-1.95 4.642 0 6.673 4.05 8.269 8.25 8.704-.9.87-.9 1.741-.75 2.902-.122 5.249-.998 8.31-2.627 9.183-1.275.683 3.255 1.743 7.626 1.558 4-.17 7.887-1.558 6.68-1.558z"/>
  </g>
</svg>
