<svg xmlns="http://www.w3.org/2000/svg" viewBox="0 0 281 21">
  <g fill="#88F7B7" fill-rule="evenodd" transform="matrix(1 0 0 -1 0 21)">
    <circle cx="2" cy="2" r="2"/>
    <path d="M2 21c.736 0 1.403-.667 2-2-.597-1.333-1.264-2-2-2-1.105 0-2 .895-2 2s.895 2 2 2z"/>
    <circle cx="20" cy="2" r="2"/>
    <circle cx="54" cy="2" r="2"/>
    <circle cx="37" cy="2" r="2"/>
    <circle cx="71" cy="2" r="2"/>
    <circle cx="20" cy="19" r="2"/>
    <circle cx="54" cy="19" r="2"/>
    <circle cx="37" cy="19" r="2"/>
    <circle cx="71" cy="19" r="2"/>
    <circle cx="89" cy="2" r="2"/>
    <circle cx="123" cy="2" r="2"/>
    <circle cx="106" cy="2" r="2"/>
    <circle cx="140" cy="2" r="2"/>
    <circle cx="89" cy="19" r="2"/>
    <circle cx="123" cy="19" r="2"/>
    <circle cx="106" cy="19" r="2"/>
    <circle cx="140" cy="19" r="2"/>
    <circle cx="158" cy="2" r="2"/>
    <circle cx="192" cy="2" r="2"/>
    <circle cx="175" cy="2" r="2"/>
    <circle cx="209" cy="2" r="2"/>
    <circle cx="158" cy="19" r="2"/>
    <circle cx="192" cy="19" r="2"/>
    <circle cx="175" cy="19" r="2"/>
    <circle cx="209" cy="19" r="2"/>
    <circle cx="244" cy="2" r="2"/>
    <circle cx="227" cy="2" r="2"/>
    <circle cx="261" cy="2" r="2"/>
    <circle cx="244" cy="19" r="2"/>
    <circle cx="227" cy="19" r="2"/>
    <circle cx="261" cy="19" r="2"/>
    <circle cx="279" cy="2" r="2"/>
    <circle cx="279" cy="19" r="2"/>
  </g>
</svg>
