<svg width="64" height="64" viewBox="0 0 64 64" xmlns="http://www.w3.org/2000/svg" xmlns:xlink="http://www.w3.org/1999/xlink">
    <defs>
        <filter x="-3%" y="-3.7%" width="106.1%" height="114.8%" filterUnits="objectBoundingBox" id="a">
            <feOffset dy="2" in="SourceAlpha" result="shadowOffsetOuter1"/>
            <feColorMatrix values="0 0 0 0 0 0 0 0 0 0 0 0 0 0 0 0 0 0 0.1 0" in="shadowOffsetOuter1"/>
        </filter>
        <filter x="-3%" y="-3.7%" width="106.1%" height="114.8%" filterUnits="objectBoundingBox" id="d">
            <feOffset dy="2" in="SourceAlpha" result="shadowOffsetInner1"/>
            <feComposite in="shadowOffsetInner1" in2="SourceAlpha" operator="arithmetic" k2="-1" k3="1" result="shadowInnerInner1"/>
            <feColorMatrix values="0 0 0 0 1 0 0 0 0 1 0 0 0 0 1 0 0 0 0.19263549 0" in="shadowInnerInner1"/>
        </filter>
        <filter x="-12.6%" y="-63%" width="125.1%" height="351.9%" filterUnits="objectBoundingBox" id="e">
            <feOffset dy="2" in="SourceAlpha" result="shadowOffsetOuter1"/>
            <feColorMatrix values="0 0 0 0 1 0 0 0 0 1 0 0 0 0 1 0 0 0 0.147180944 0" in="shadowOffsetOuter1"/>
        </filter>
        <filter x="-19.9%" y="-9.9%" width="139.9%" height="139.7%" filterUnits="objectBoundingBox" id="g">
            <feOffset dy="2" in="SourceAlpha" result="shadowOffsetOuter1"/>
            <feColorMatrix values="0 0 0 0 1 0 0 0 0 1 0 0 0 0 1 0 0 0 0.147180944 0" in="shadowOffsetOuter1"/>
        </filter>
        <filter x="-19.9%" y="-9.9%" width="139.9%" height="139.7%" filterUnits="objectBoundingBox" id="i">
            <feOffset dy="2" in="SourceAlpha" result="shadowOffsetOuter1"/>
            <feColorMatrix values="0 0 0 0 1 0 0 0 0 1 0 0 0 0 1 0 0 0 0.147180944 0" in="shadowOffsetOuter1"/>
        </filter>
        <filter x="-10.2%" y="-3.9%" width="120.3%" height="115.6%" filterUnits="objectBoundingBox" id="k">
            <feOffset dy="1" in="SourceAlpha" result="shadowOffsetOuter1"/>
            <feColorMatrix values="0 0 0 0 1 0 0 0 0 1 0 0 0 0 1 0 0 0 0.147180944 0" in="shadowOffsetOuter1"/>
        </filter>
        <path d="M37 32H4l2.64-7.9.015-.041h27.69a2.4 2.4 0 0 1 .014.04L37 32zM6.962 22.47V7.383A2.386 2.386 0 0 1 9.352 5h22.296a2.386 2.386 0 0 1 2.389 2.382v15.089H6.962z" id="b"/>
        <path d="M17.314 27.235a.795.795 0 1 0 0 1.589h6.37a.795.795 0 1 0 0-1.589h-6.37z" id="f"/>
        <path id="h" d="m16.08 9.821-1.34-.973-3.674 5.036 3.673 5.036 1.342-.973-2.963-4.063z"/>
        <path id="j" d="m24.338 9.821 2.963 4.063-2.963 4.063 1.342.973 3.672-5.036-3.672-5.036z"/>
        <path id="l" d="m21.244 7.467-3.318 12.408 1.603.426 3.318-12.408z"/>
        <linearGradient x1="81.607%" y1="-38.779%" x2="37.311%" y2="50%" id="c">
            <stop stop-color="#9CB3FF" offset="0%"/>
            <stop stop-color="#637CFF" offset="100%"/>
        </linearGradient>
    </defs>
    <g fill="none" fill-rule="evenodd">
        <rect fill="#3DE2CB" opacity=".2" width="64" height="64" rx="16"/>
        <path d="M12 12h40v40H12z"/>
        <g fill-rule="nonzero" transform="translate(12 12)">
            <use fill="#000" filter="url(#a)" xlink:href="#b"/>
            <use fill="url(#c)" xlink:href="#b"/>
            <use fill="#000" filter="url(#d)" xlink:href="#b"/>
        </g>
        <g transform="translate(12 12)">
            <use fill="#000" filter="url(#e)" xlink:href="#f"/>
            <use fill="#D8F9F5" xlink:href="#f"/>
        </g>
        <g transform="translate(12 12)">
            <use fill="#000" filter="url(#g)" xlink:href="#h"/>
            <use fill="#D8F9F5" xlink:href="#h"/>
        </g>
        <g transform="translate(12 12)">
            <use fill="#000" filter="url(#i)" xlink:href="#j"/>
            <use fill="#D8F9F5" xlink:href="#j"/>
        </g>
        <g transform="translate(12 12)">
            <use fill="#000" filter="url(#k)" xlink:href="#l"/>
            <use fill="#D8F9F5" xlink:href="#l"/>
        </g>
        <path d="M49 46c-.366 1.712-1.959 3-3.868 3H19.868c-1.91 0-3.502-1.288-3.868-3h33z" fill="#44D5E9"/>
    </g>
</svg>
