<svg width="64" height="64" viewBox="0 0 64 64" xmlns="http://www.w3.org/2000/svg" xmlns:xlink="http://www.w3.org/1999/xlink">
    <defs>
        <filter x="-2.9%" y="-2.7%" width="105.9%" height="110.8%" filterUnits="objectBoundingBox" id="a">
            <feOffset dy="2" in="SourceAlpha" result="shadowOffsetOuter1"/>
            <feColorMatrix values="0 0 0 0 0 0 0 0 0 0 0 0 0 0 0 0 0 0 0.1 0" in="shadowOffsetOuter1"/>
        </filter>
        <filter x="-2.9%" y="-2.7%" width="105.9%" height="110.8%" filterUnits="objectBoundingBox" id="d">
            <feOffset dy="2" in="SourceAlpha" result="shadowOffsetInner1"/>
            <feComposite in="shadowOffsetInner1" in2="SourceAlpha" operator="arithmetic" k2="-1" k3="1" result="shadowInnerInner1"/>
            <feColorMatrix values="0 0 0 0 1 0 0 0 0 1 0 0 0 0 1 0 0 0 0.19263549 0" in="shadowInnerInner1"/>
        </filter>
        <linearGradient x1="76.689%" y1="-82.62%" x2="39.285%" y2="50%" id="c">
            <stop stop-color="#9CB3FF" offset="0%"/>
            <stop stop-color="#637CFF" offset="100%"/>
        </linearGradient>
        <path d="M20 2c2.79 0 5.24 2.041 6.998 5.356 4.252-.377 7.691.759 9.225 3.512 1.472 2.643.785 6.136-1.49 9.633 2.275 3.496 2.962 6.988 1.49 9.631-1.534 2.753-4.973 3.89-9.226 3.512C25.24 36.959 22.79 39 20 39s-5.24-2.041-6.998-5.356c-4.252.377-7.691-.759-9.225-3.512-1.472-2.643-.785-6.135 1.489-9.632-2.274-3.496-2.961-6.989-1.489-9.632 1.534-2.753 4.973-3.89 9.226-3.512C14.76 4.041 17.21 2 20 2zm0 29.898-.285.11c-1.365.525-2.708.93-4.003 1.213 1.226 2.005 2.724 3.198 4.288 3.198s3.062-1.193 4.288-3.198A28.008 28.008 0 0 1 20 31.898zM33.06 22.74l-.21.245a29.395 29.395 0 0 1-3.494 3.38 27.274 27.274 0 0 1-1.254 4.788c2.792.098 4.934-.645 5.825-2.244.874-1.569.49-3.785-.867-6.169zm-26.117 0-.072.127c-1.299 2.335-1.654 4.501-.796 6.042.89 1.6 3.033 2.342 5.825 2.243a27.351 27.351 0 0 1-1.255-4.786 29.224 29.224 0 0 1-3.702-3.626zm6.862 5.938.014.046c.214.748.455 1.457.72 2.12a22.86 22.86 0 0 0 2.09-.505 36.02 36.02 0 0 1-2.824-1.661zm12.391 0-.092.06a36.803 36.803 0 0 1-2.73 1.601 23.08 23.08 0 0 0 2.088.504c.271-.675.517-1.4.734-2.165zM20 11.887l-.136.06a32.282 32.282 0 0 0-3.533 1.831 32.622 32.622 0 0 0-3.3 2.258 32.34 32.34 0 0 0-.306 4.464c0 1.547.108 3.046.306 4.464a32.548 32.548 0 0 0 3.3 2.258 32.223 32.223 0 0 0 3.67 1.892 32.323 32.323 0 0 0 3.668-1.892 32.622 32.622 0 0 0 3.3-2.258 32.34 32.34 0 0 0 .306-4.464c0-1.547-.108-3.046-.306-4.464a32.548 32.548 0 0 0-3.3-2.258A32.223 32.223 0 0 0 20 11.887zm-9.79 6.648-.241.249A23.627 23.627 0 0 0 8.466 20.5c.52.657 1.104 1.315 1.745 1.965a35.906 35.906 0 0 1 0-3.93zm19.579 0 .002.02a36.586 36.586 0 0 1-.001 3.91c.64-.65 1.224-1.308 1.743-1.964a23.776 23.776 0 0 0-1.744-1.966zM6.074 12.091c-.874 1.569-.49 3.785.867 6.169a29.18 29.18 0 0 1 3.704-3.625c.295-1.725.72-3.334 1.254-4.788-2.792-.098-4.934.645-5.825 2.244zm22.199-2.248-.172.004a27.349 27.349 0 0 1 1.255 4.787 29.224 29.224 0 0 1 3.702 3.626c1.357-2.384 1.742-4.6.868-6.17-.873-1.565-2.945-2.31-5.653-2.247zm-2.81.314-.195.037c-.616.124-1.249.28-1.895.467a36.02 36.02 0 0 1 2.823 1.661 22.22 22.22 0 0 0-.734-2.165zm-10.924 0-.019.044a22.045 22.045 0 0 0-.715 2.12 35.793 35.793 0 0 1 2.822-1.66 23.08 23.08 0 0 0-2.088-.504zM20 4.58c-1.564 0-3.062 1.193-4.288 3.198 1.385.303 2.824.745 4.287 1.323a28.08 28.08 0 0 1 4.289-1.323C23.062 5.774 21.564 4.58 20 4.58z" id="b"/>
    </defs>
    <g fill="none" fill-rule="evenodd">
        <rect fill="#3DE2CB" opacity=".2" width="64" height="64" rx="16"/>
        <path d="M12 12h40v40H12z"/>
        <g fill-rule="nonzero" transform="translate(12 12)">
            <use fill="#000" filter="url(#a)" xlink:href="#b"/>
            <use fill="url(#c)" xlink:href="#b"/>
            <use fill="#000" filter="url(#d)" xlink:href="#b"/>
        </g>
        <path d="M32 36.6a4 4 0 1 1 0-8 4 4 0 0 1 0 8z" fill="#44D5E9"/>
    </g>
</svg>
