<svg xmlns="http://www.w3.org/2000/svg" viewBox="0 0 75 75">
  <g fill="none" fill-rule="evenodd">
    <path d="M0 0h75v75H0z"/>
    <text fill="#7667F9" font-family="'Avenir-Black', 'Arial', sans-serif" font-size="8" font-weight="700">
      <tspan x="11.559" y="16.438">Application</tspan> <tspan x="23.347" y="25.438">Team</tspan>
    </text>
    <text fill="#2FD3BC" font-family="'Avenir-Black', 'Arial', sans-serif" font-size="8" font-weight="700">
      <tspan x="25.059" y="57.438">Platform</tspan> <tspan x="31.719" y="66.438">Team</tspan>
    </text>
    <rect width="61" height="40.87" x="3" y="3" stroke="#7667F9" stroke-width="1.95" rx="7"/>
    <rect width="61" height="40.87" x="11" y="31.13" stroke="#2FD3BC" stroke-width="1.95" rx="7"/>
    <path fill="#2FD3BC" stroke="#2FD3BC" stroke-width="1.95" d="M64 31v6c0 3.866-3.134 7-7 7H11v-6c0-3.866 3.134-7 7-7h46z"/>
    <path fill="#FFF" d="M35.313 36.079c.594 0 .953.375.953 1v2.613c0 1.015.509 1.57 1.392 1.57.94 0 1.45-.472 1.45-1.57v-2.46c0-.626.36-1 .953-1 .58 0 .939.374.939 1l-.027 2.675c0 2.572-2.46 3.093-3.315 3.093-1.78 0-3.283-1.092-3.283-3.093V37.08c0-.626.358-1.001.938-1.001zM35.5 32c.83 0 1.501.664 1.501 1.483 0 .819-.671 1.483-1.5 1.483s-1.5-.664-1.5-1.483c0-.819.671-1.483 1.5-1.483z"/>
  </g>
</svg>
