<svg xmlns="http://www.w3.org/2000/svg" xmlns:xlink="http://www.w3.org/1999/xlink" viewBox="0 0 35 35">
  <defs>
    <filter id="a">
      <feColorMatrix in="SourceGraphic" values="0 0 0 0 0.184314 0 0 0 0 0.827451 0 0 0 0 0.737255 0 0 0 1.000000 0"/>
    </filter>
    <path id="b" d="M0 35h35V0H0z"/>
  </defs>
  <g fill="none" fill-rule="evenodd" filter="url(#a)" transform="translate(-639 -1755)">
    <g transform="translate(639 1755)">
      <path fill="#0E5F81" d="M17.5 2.188C9.057 2.188 2.187 9.056 2.187 17.5S9.058 32.813 17.5 32.813c8.443 0 15.313-6.87 15.313-15.313 0-8.443-6.87-15.313-15.313-15.313M17.5 35C7.85 35 0 27.15 0 17.5S7.85 0 17.5 0 35 7.85 35 17.5 27.15 35 17.5 35"/>
      <mask id="c" fill="#fff">
        <use xlink:href="#b"/>
      </mask>
      <path fill="#0E5F81" d="M9.566 25.156h3.404V14.197H9.566zM11.27 12.7c-1.091 0-1.973-.885-1.973-1.975S10.18 8.75 11.27 8.75c1.087 0 1.97.885 1.97 1.975s-.883 1.976-1.97 1.976m14.433 12.455h-3.399v-5.33c0-1.27-.022-2.905-1.767-2.905-1.768 0-2.038 1.386-2.038 2.815v5.42h-3.396V14.197h3.258v1.499h.047c.454-.862 1.563-1.77 3.217-1.77 3.443 0 4.078 2.269 4.078 5.22v6.01z" mask="url(#c)"/>
    </g>
  </g>
</svg>
