<svg xmlns="http://www.w3.org/2000/svg" xmlns:xlink="http://www.w3.org/1999/xlink" viewBox="0 0 48 48">
  <defs>
    <filter id="a">
      <feColorMatrix in="SourceGraphic" values="0 0 0 0 0.184314 0 0 0 0 0.827451 0 0 0 0 0.737255 0 0 0 1.000000 0"/>
    </filter>
    <path id="b" d="M0 48h48V0H0z"/>
  </defs>
  <g fill="none" fill-rule="evenodd" filter="url(#a)" transform="translate(-1091 -1291)">
    <g transform="translate(1091 1291)">
      <path fill="#0E5F81" d="M24 3C12.42 3 3 12.42 3 24s9.42 21 21 21 21-9.42 21-21S35.58 3 24 3m0 45C10.766 48 0 37.234 0 24S10.766 0 24 0s24 10.766 24 24-10.766 24-24 24"/>
      <mask id="c" fill="#fff">
        <use xlink:href="#b"/>
      </mask>
      <path fill="#0E5F81" d="M13.12 34.5h4.668V19.471H13.12zm2.336-17.082c-1.497 0-2.706-1.214-2.706-2.709S13.96 12 15.456 12c1.49 0 2.703 1.214 2.703 2.71 0 1.494-1.212 2.708-2.703 2.708M35.25 34.5h-4.661v-7.31c0-1.742-.031-3.984-2.423-3.984-2.426 0-2.796 1.9-2.796 3.86V34.5h-4.657V19.47h4.467v2.056h.066c.622-1.182 2.143-2.427 4.41-2.427 4.723 0 5.594 3.11 5.594 7.159V34.5z" mask="url(#c)"/>
    </g>
  </g>
</svg>
