<svg xmlns="http://www.w3.org/2000/svg" viewBox="0 0 32 32">
  <defs>
    <filter id="a">
      <feColorMatrix in="SourceGraphic" values="0 0 0 0 0.184314 0 0 0 0 0.827451 0 0 0 0 0.737255 0 0 0 1.000000 0"/>
    </filter>
  </defs>
  <g fill="none" fill-rule="evenodd" filter="url(#a)" transform="translate(-122 -1297)">
    <path d="M122 1297h32v32h-32z"/>
    <path stroke="#2C3E50" stroke-linecap="round" stroke-linejoin="round" stroke-width="2" d="M138 1313v-8c0-1.473 1.194-2.667 2.667-2.667 1.472 0 2.666 1.194 2.666 2.667v8m0-2.667c0-1.472 1.194-2.666 2.667-2.666 1.473 0 2.667 1.194 2.667 2.666 0 1.473-1.194 2.667-2.667 2.667h-8m0 0h8c1.473 0 2.667 1.194 2.667 2.667 0 1.472-1.194 2.666-2.667 2.666h-8m2.667 0c1.472 0 2.666 1.194 2.666 2.667 0 1.473-1.194 2.667-2.666 2.667-1.473 0-2.667-1.194-2.667-2.667v-8m0 0v8c0 1.473-1.194 2.667-2.667 2.667-1.472 0-2.666-1.194-2.666-2.667v-8m0 2.667c0 1.472-1.194 2.666-2.667 2.666-1.473 0-2.667-1.194-2.667-2.666 0-1.473 1.194-2.667 2.667-2.667h8m0 0h-8c-1.473 0-2.667-1.194-2.667-2.667 0-1.472 1.194-2.666 2.667-2.666h8m-2.667 0c-1.472 0-2.666-1.194-2.666-2.667 0-1.473 1.194-2.667 2.666-2.667 1.473 0 2.667 1.194 2.667 2.667v8"/>
  </g>
</svg>
