<svg xmlns="http://www.w3.org/2000/svg" viewBox="0 0 35 35">
  <defs>
    <filter id="a">
      <feColorMatrix in="SourceGraphic" values="0 0 0 0 0.184314 0 0 0 0 0.827451 0 0 0 0 0.737255 0 0 0 1.000000 0"/>
    </filter>
  </defs>
  <g fill="none" fill-rule="evenodd" filter="url(#a)" transform="translate(-596 -1755)">
    <g fill="#0E5F81">
      <path d="M613.5 1757.188c-8.443 0-15.313 6.868-15.313 15.312s6.871 15.313 15.313 15.313c8.443 0 15.313-6.87 15.313-15.313 0-8.443-6.87-15.313-15.313-15.313m0 32.813c-9.65 0-17.5-7.85-17.5-17.5s7.85-17.5 17.5-17.5 17.5 7.85 17.5 17.5-7.85 17.5-17.5 17.5"/>
      <path d="M622.25 1767.074c-.644.285-1.335.478-2.062.565.741-.444 1.31-1.148 1.579-1.986-.694.412-1.463.71-2.28.871-.656-.698-1.588-1.134-2.621-1.134-1.983 0-3.59 1.608-3.59 3.59 0 .281.031.555.093.818-2.984-.15-5.63-1.579-7.4-3.75-.31.53-.487 1.147-.487 1.804 0 1.246.634 2.344 1.598 2.988-.589-.019-1.143-.18-1.627-.449v.045c0 1.74 1.237 3.19 2.88 3.52-.301.082-.618.126-.946.126-.232 0-.457-.023-.675-.065.456 1.427 1.782 2.464 3.354 2.493-1.23.963-2.777 1.537-4.46 1.537-.29 0-.575-.017-.856-.05 1.589 1.018 3.476 1.612 5.503 1.612 6.605 0 10.216-5.47 10.216-10.213 0-.156-.004-.31-.01-.464.701-.506 1.31-1.139 1.791-1.858"/>
    </g>
  </g>
</svg>
