<svg xmlns="http://www.w3.org/2000/svg" viewBox="0 0 48 48">
  <defs>
    <filter id="a">
      <feColorMatrix in="SourceGraphic" values="0 0 0 0 0.184314 0 0 0 0 0.827451 0 0 0 0 0.737255 0 0 0 1.000000 0"/>
    </filter>
  </defs>
  <g fill="none" fill-rule="evenodd" filter="url(#a)" transform="translate(-1031 -1291)">
    <g fill="#0E5F81">
      <path d="M1055 1294c-11.58 0-21 9.42-21 21s9.42 21 21 21 21-9.42 21-21-9.42-21-21-21m0 45c-13.234 0-24-10.766-24-24s10.766-24 24-24 24 10.766 24 24-10.766 24-24 24"/>
      <path d="M1067 1307.558c-.883.392-1.831.656-2.828.776 1.017-.61 1.797-1.575 2.165-2.724-.951.564-2.006.974-3.127 1.194-.898-.957-2.178-1.554-3.594-1.554-2.72 0-4.924 2.204-4.924 4.923 0 .385.043.761.128 1.122-4.092-.206-7.72-2.166-10.149-5.144-.425.727-.667 1.573-.667 2.475 0 1.708.87 3.215 2.191 4.097-.807-.025-1.567-.246-2.23-.615l-.001.061c0 2.386 1.697 4.375 3.95 4.827-.413.113-.848.173-1.298.173-.317 0-.626-.031-.926-.088.627 1.956 2.445 3.379 4.6 3.418-1.685 1.321-3.808 2.108-6.115 2.108-.398 0-.79-.023-1.175-.068 2.179 1.396 4.767 2.21 7.547 2.21 9.058 0 14.01-7.5 14.01-14.006 0-.213-.005-.425-.014-.636.962-.694 1.797-1.562 2.457-2.549"/>
    </g>
  </g>
</svg>
