<?xml version="1.0" encoding="utf-8"?>
<!-- Generator: Adobe Illustrator 25.2.1, SVG Export Plug-In . SVG Version: 6.00 Build 0)  -->
<svg version="1.1" id="Layer_1" xmlns="http://www.w3.org/2000/svg" xmlns:xlink="http://www.w3.org/1999/xlink" x="0px" y="0px"
	 viewBox="0 0 595.3 167.5" style="enable-background:new 0 0 595.3 167.5;" xml:space="preserve">
<style type="text/css">
	.st0{fill:#D3E7F7;}
	.st1{fill:#D3E7F7;}
	.st2{fill:#D3E7F7;}
	.st3{fill:#D3E7F7;}
</style>
<path class="st0" d="M24.1,79.3c0.7-2,0.7-4.1,1.1-6.2c3-15.4,10.5-28,22.7-37.9c9.7-7.9,20.9-12.6,33.3-13.8
	c21.3-2,39.3,5,53.9,20.5c3.8,4.1,6.9,8.6,9.5,13.6c0.2,0.3,0.3,0.7,0.4,1.1c-0.6,0.8-1.2,1.6-1.7,2.5c-2.7,4.5-5.7,8.9-8.3,13.5
	c-2.5,3.9-5,7.8-7.4,11.7c-4.8,7.6-9.6,15.3-14.4,22.9c-1.3-0.4-2-1.5-2.7-2.4c-2.1-2.6-4-5.4-5.8-8.2c-0.5-0.7-1.1-1.3-1.2-2.2
	c7.7-12.3,15.4-24.6,23.1-36.8c0.6-0.9,0.6-1.5-0.1-2.3c-12.4-15-28.2-21.5-47.4-18c-19.1,3.5-31.7,15.2-37.8,33.6
	c-3,9-2.8,18.2-0.3,27.3c-0.7,1.1-1.4,2.3-2.1,3.4c-2.6,4.2-5.1,8.3-7.7,12.5c-2.9-5.6-4.9-11.4-6-17.6c-0.4-2-0.4-4.1-1.1-6.1
	C24.1,86.7,24.1,83,24.1,79.3z"/>
<path class="st1" d="M31.2,114c2.6-4.2,5.2-8.3,7.7-12.5c0.7-1.1,1.4-2.3,2.1-3.4c0.5-0.3,0.7-0.8,1-1.3c1.8-2.9,3.6-5.7,5.4-8.6
	c5.4-8.6,10.8-17.2,16.2-25.8c0.9,0,1.4,0.7,2,1.3c2.9,3.3,5.2,7,7.6,10.7c0.1,0.2,0.1,0.5,0.2,0.8c-0.4,0.6-0.8,1.3-1.2,1.9
	c-7.4,11.9-14.9,23.8-22.3,35.6c-0.6,0.9-0.5,1.5,0.2,2.3c11.5,13.6,26.2,20,43.9,17.8c20.3-2.6,33.8-14.2,40.6-33.5
	c3.1-8.8,3-17.9,0.8-26.9c2.6-4.6,5.6-9,8.3-13.5c0.5-0.9,1.1-1.7,1.7-2.5c2.7,4.9,4.4,10.3,5.4,15.7c2.8,14.7,1,28.8-6.1,42
	c-9.9,18.4-25.4,29.4-46,33.2c-1.8,0.3-3.7,0.3-5.5,0.8c-3.4,0-6.8,0-10.1,0c-0.1-0.3-0.4-0.3-0.6-0.3c-12.8-1.2-24.2-5.8-34.2-13.8
	C40.9,128.8,35.2,122.1,31.2,114z"/>
<path class="st1" d="M186.7,114.1c3-5.5,5.9-10.7,8.7-16c7.7-14,15.3-28,22.9-42.1c0.5-0.9,1-1.3,2.1-1.3c2.7,0.1,5.5,0.1,8.3,0
	c0.9,0,1.2,0.2,1.3,1.2c2.1,14.4,4.2,28.8,6.3,43.1c0.7,4.7,1.4,9.3,2.1,14c0.1,0.8,0.1,1.1-0.8,1.1c-4.1,0-8.1,0-12.2,0
	c-0.9,0-1-0.3-1.1-1.1c-0.2-2.4-0.4-4.7-0.6-7.1c-0.1-0.9-0.3-1.2-1.3-1.2c-5.2,0.1-10.3,0-15.5,0c-0.8,0-1.2,0.3-1.5,1
	c-1.2,2.5-2.4,4.9-3.6,7.4c-0.3,0.6-0.6,1-1.4,1C196,114.1,191.5,114.1,186.7,114.1z M220.8,76.5c-0.1,0-0.2,0-0.3,0
	c-1.5,2.8-2.9,5.6-4.4,8.4c-1.4,2.8-2.9,5.6-4.4,8.6c3.5,0,6.7,0,10,0c0.8,0,0.9-0.3,0.8-0.9c-0.3-2.2-0.4-4.4-0.7-6.6
	C221.5,82.8,221.1,79.7,220.8,76.5z"/>
<path class="st1" d="M267.7,110.2c-2.7,2.4-5.6,3.8-8.9,4.2c-7.4,0.9-12.8-3.6-13.1-11.1c-0.2-3.5,0.7-6.9,1.4-10.3
	c1.5-7.5,3.1-15.1,4.5-22.6c0.2-0.9,0.5-1.2,1.4-1.2c3.6,0.1,7.1,0.1,10.7,0c1,0,1.2,0.3,1,1.2c-1.8,8.7-3.5,17.4-5.2,26
	c0,0,0,0.1,0,0.1c-0.6,3.1,0.1,5,2.2,5.9c2.1,0.9,5.5-0.3,6.9-2.5c0.8-1.2,1.2-2.5,1.4-3.9c1.7-8.4,3.4-16.8,5-25.2
	c0.2-1.3,0.6-1.8,2.1-1.8c3.4,0.1,6.9,0.1,10.3,0c0.9,0,1,0.2,0.9,1.1c-2.9,14.2-5.7,28.5-8.5,42.7c-0.2,0.9-0.4,1.1-1.3,1.1
	c-3.4,0-6.9-0.1-10.3,0c-1.1,0-1.1-0.4-0.9-1.2C267.3,112.1,267.4,111.3,267.7,110.2z"/>
<path class="st1" d="M464.2,72.7c2.6-2,5.4-3.4,8.7-3.8c7.3-0.8,12.6,3.8,13,11.2c0.2,3.8-0.8,7.4-1.5,11
	c-1.4,7.1-2.9,14.2-4.2,21.2c-0.3,1.3-0.7,1.9-2.2,1.8c-3.7-0.1-7.4,0-11.3,0c1-4.8,1.9-9.5,2.8-14.1c0.9-4.4,1.8-8.9,2.7-13.3
	c0.2-0.9,0.2-1.8,0.1-2.7c-0.2-1.9-1.7-3.3-3.7-3.4c-3-0.1-5.6,1.8-6.4,4.8c-0.7,2.6-1.2,5.3-1.8,8c-1.3,6.5-2.6,12.9-3.9,19.4
	c-0.2,1-0.6,1.4-1.7,1.3c-3.9-0.1-7.7,0-11.7,0c1.1-5.6,2.2-11.1,3.3-16.6c1.8-9.1,3.6-18.1,5.4-27.2c0.2-0.8,0.4-1.1,1.3-1.1
	c3.4,0,6.9,0.1,10.3,0c1,0,1.1,0.4,0.9,1.2C464.3,71.1,464,71.9,464.2,72.7c0,0-0.1,0-0.2,0c0,0.1,0,0.1,0,0.2
	C464.1,72.8,464.2,72.8,464.2,72.7z"/>
<path class="st1" d="M422,114.1c0.2-1.1,0.4-2.1,0.6-3.2c-1.2,0.8-2.3,1.6-3.4,2.2c-6.4,3.6-14.7,1-17.6-5.5
	c-3.6-7.9,0.6-17,8.8-19.6c2.5-0.8,5.1-1,7.7-1c2.6,0,5.1,0,7.7,0c0.8,0,1.3-0.2,1.3-1.1c0-0.5,0.2-1,0.3-1.6
	c0.3-2.8-1.1-4.4-3.9-4.7c-3.4-0.3-6.4,0.5-9,2.8c-0.6,0.6-0.9,0.6-1.4-0.1c-1.7-2.4-3.5-4.7-5.3-7.1c-0.5-0.7-0.4-1,0.2-1.5
	c2.4-1.9,4.9-3.4,7.9-4.1c4.8-1.2,9.7-1.4,14.5-0.2c7.7,1.9,11.4,7.6,9.9,15.4c-1.8,9.4-3.8,18.8-5.6,28.2c-0.1,0.5-0.1,1-0.9,1
	C429.9,114.1,426,114.1,422,114.1z M421.4,95.6C421.4,95.6,421.4,95.6,421.4,95.6c-1.3,0-2.5,0-3.8,0.2c-2.3,0.3-3.8,1.7-4.3,3.9
	c-0.5,2.2,0.6,3.9,2.8,4.4c2.7,0.6,7.3-1.2,8.4-5.7c0.7-2.8,0.8-2.8-2-2.8C422.2,95.6,421.8,95.6,421.4,95.6z"/>
<path class="st1" d="M554.6,95.8c-4,0-7.9,0-11.9,0c-0.9,0-1.1,0.3-1.2,1.1c-0.3,4.7,2.9,7.4,8.2,6.7c2.8-0.4,5.2-1.6,7.2-3.4
	c0.6-0.5,0.9-0.6,1.4,0.1c1.7,2.3,3.5,4.6,5.3,6.9c0.5,0.6,0.5,1-0.1,1.5c-3.9,3.3-8.4,5-13.4,5.7c-3.1,0.4-6.3,0.3-9.3-0.5
	c-6.6-1.6-11-6.4-11.5-13.1c-0.6-8.1,0.9-15.8,5.5-22.7c4.9-7.4,13.8-10.8,22.4-8.7c7.4,1.8,12.2,8.3,11.9,16.2c-0.1,3-0.6,6-1.2,9
	c-0.2,1.1-0.6,1.4-1.7,1.4C562.4,95.8,558.5,95.8,554.6,95.8z M549.9,87.2c1.9,0,3.8,0,5.6,0c0.5,0,0.9,0,1.1-0.7
	c1.2-4.1-1.9-7.8-6.1-7.1c-4,0.7-5.9,3.7-6.9,7.1c-0.3,0.9,0.4,0.6,0.7,0.6C546.2,87.2,548,87.2,549.9,87.2z"/>
<path class="st1" d="M319.8,97.8c0.6-6,1.6-13.4,5.6-20c4.7-7.6,14.6-11,23.1-8.1c5.9,2.1,9.5,6.2,9.7,12.5
	c0.2,8.2-1.3,16.3-5.7,23.4c-4.6,7.6-14.6,10.9-23.1,8C323.1,111.3,319.6,106.2,319.8,97.8z M345.3,86.2c0-3.1-0.7-4.7-2.2-5.4
	c-1.9-0.8-4.5-0.2-6,1.4c-1,1-1.6,2.3-2.1,3.6c-1.1,3.3-1.8,6.8-2.2,10.3c-0.2,1.2-0.3,2.5,0,3.7c0.4,1.9,1.7,2.9,3.6,3
	c2.8,0.1,4.9-1.3,6.1-4.4C344.2,94.3,344.9,89.9,345.3,86.2z"/>
<path class="st1" d="M379.4,93.7c2.4-4.9,4.8-9.9,7.2-14.8c1.4-2.9,2.9-5.9,4.3-8.8c0.3-0.6,0.6-0.9,1.3-0.9c4.2,0,8.5,0,12.8,0
	c0.1,0.6-0.3,0.9-0.5,1.3c-7.7,14.1-15.5,28.2-23.2,42.3c-0.5,0.9-1.1,1.3-2.1,1.2c-2.5-0.1-4.9-0.1-7.4,0c-0.8,0-1.2-0.2-1.3-1.1
	c-1.5-10.4-3.1-20.9-4.7-31.3c-0.6-3.7-1.1-7.3-1.7-11c-0.2-1.1-0.1-1.6,1.3-1.6c3.4,0.1,6.9,0.1,10.3,0c0.8,0,1.1,0.1,1.2,1.1
	c0.7,7.6,1.5,15.2,2.3,22.9c0,0.2,0,0.3,0.1,0.5C379.2,93.7,379.3,93.7,379.4,93.7z"/>
<path class="st1" d="M491.2,96.9c0.5-6.4,1.8-13.8,6.6-20.2c4.4-6,10.5-8.1,17.7-7.9c4.5,0.1,8.4,1.7,11.6,4.9c0.7,0.7,0.9,1.2,0,2
	c-2.7,2.3-5.4,4.7-8.1,7.1c-0.6,0.5-0.9,0.6-1.5-0.1c-2.9-3.6-7.1-2.2-9.1,0.3c-2.5,3.1-3.3,6.8-3.9,10.6c-0.3,1.8-0.4,3.5-0.1,5.3
	c0.7,3.3,2.6,4.5,5.9,3.7c1.5-0.4,2.8-1.2,4-2.3c0.5-0.4,0.7-0.4,1.1,0.1c2.1,2.7,4.1,5.5,6.2,8.2c0.3,0.4,0.4,0.7-0.1,1.1
	c-6.5,5.5-18.5,7-25.4,0.9C492.7,107.5,491.1,103.6,491.2,96.9z"/>
<path class="st1" d="M307.5,58.2c1.7,0,3.4,0.1,5.1,0c1.2-0.1,1.6,0.1,1.3,1.5c-0.8,3.4-1.4,6.8-2.1,10.2c-0.2,1-0.1,1.5,1.1,1.4
	c1.3-0.1,2.7,0,4.1,0c0.9,0,1.3,0.2,1.1,1.2c-0.5,2.4-1,4.8-1.4,7.2c-0.2,1.2-0.6,1.7-1.9,1.6c-1.4-0.1-2.8,0-4.2,0
	c-0.7,0-1,0.2-1.1,0.9c-1.1,5.7-2.3,11.3-3.4,17c-0.6,3,0.3,4,3.4,4c3.2,0,3.2,0,2.5,3.1c-0.5,2.3-0.9,4.5-1.3,6.8
	c-0.1,0.8-0.4,1.1-1.3,1.1c-2.6-0.1-5.2,0.1-7.8-0.3c-5.8-0.9-9.5-5.3-8.9-11.2c0.5-5.8,2.1-11.3,3.1-17c0.1-0.4,0.1-0.8,0.2-1.1
	c0.2-1,0.9-2.3,0.4-3.1c-0.5-0.8-1.9-0.2-2.8-0.3c-0.6,0-0.8-0.1-0.7-0.8c0.6-2.7,1.1-5.5,1.6-8.2c0.1-0.7,0.4-0.9,1.1-1
	c3-0.1,3-0.1,3.6-3c0.6-3,1.3-6,1.8-9.1c0.1-0.7,0.4-0.9,1.1-0.9C303.8,58.2,305.7,58.2,307.5,58.2z"/>
<path class="st2" d="M113.2,107.2c-0.4,1.3-1.4,1.7-2.7,1.7c-4.7-0.1-9.4-0.1-14,0c-1.4,0-2.2-0.4-2.9-1.6
	c-6.5-10.4-13-20.7-19.5-31c-0.2-0.4-0.3-0.8-0.8-0.9c-0.1-0.3-0.1-0.6-0.2-0.8c-2.4-3.7-4.7-7.4-7.6-10.7c-0.5-0.6-1-1.3-2-1.3
	c0.5-1.2,1.3-1.7,2.7-1.7c4.5,0.1,9,0.1,13.5,0c2-0.1,3.1,0.6,4.1,2.3c6.2,10,12.5,20,18.8,30c0.3,0.5,0.5,1.1,1.1,1.3
	c0.1,0.9,0.8,1.5,1.2,2.2c1.8,2.8,3.6,5.6,5.8,8.2C111.2,105.8,111.9,106.9,113.2,107.2z"/>
<path class="st3" d="M464.2,72.7c0,0.1-0.1,0.1-0.1,0.2c0-0.1,0-0.1,0-0.2C464.1,72.7,464.2,72.7,464.2,72.7
	C464.2,72.7,464.2,72.7,464.2,72.7z"/>
</svg>
