<?xml version="1.0" encoding="utf-8"?>
<!-- Generator: Adobe Illustrator 25.2.1, SVG Export Plug-In . SVG Version: 6.00 Build 0)  -->
<svg version="1.1" id="Layer_1" xmlns="http://www.w3.org/2000/svg" xmlns:xlink="http://www.w3.org/1999/xlink" x="0px" y="0px"
	 viewBox="0 0 386.1 159.7" style="enable-background:new 0 0 386.1 159.7;" xml:space="preserve">
<style type="text/css">
	.st0{fill:#4074D0;}
</style>
<path class="st0" d="M8.1,99.3c0.6-1.6,0.5-3.3,0.7-4.9c1.3-11.1,4.6-21.5,9.4-31.5c9.6-20.2,24.5-35.6,43.8-46.8
	c6.3-3.7,13.2-6.3,20.5-7.1c5.3-0.6,10.7-0.4,15.4,2.6c6.1,3.9,9.4,9.6,10.8,16.6c0.2,1.2,0.3,2.5,0.3,3.8c0,2.1-1.5,3.9-3.5,4
	c-2.4,0.2-4.1-1-4.6-3.2c-0.5-2.3-1.3-4.4-2.5-6.5c-3.2-5.5-7.6-7.4-13.8-6.1c-7.5,1.6-14.2,5.1-20.4,9.6
	C43.8,44.7,30.4,64.2,24.7,88.8c-2.2,9.6-2.8,19.2-0.6,28.9c0.7,3.3,2,6.4,3.5,9.3c3.2,6,8.3,9.3,14.8,10.7c7.6,1.7,15,0.3,22.2-2.3
	c10.3-3.8,19.2-9.9,27.4-17c3.7-3.2,6.9-6.9,10.4-10.3c4-3.8,8.6-6.7,14.3-7.4c5.2-0.6,10-0.1,13.8,4c2,2.2,3.2,4.8,4,7.6
	c1.5,4.9,2.4,9.9,3.4,14.8c0.2,1,0.4,1.9,0.8,2.8c1.2,3.6,4.3,4.9,7.8,3.1c2.1-1,3.7-2.6,5.3-4.3c5.2-5.6,9.1-12.1,13.3-18.4
	c2.1-3.1,2.5-6,1.9-9.6c-0.8-5.2-0.8-10.5-0.9-15.7c-0.2-6.1-0.1-12.2,0.2-18.3c0.5-11.1,1.3-22.1,3.8-32.9c1-4.3,2.3-8.6,4.5-12.5
	c0.8-1.5,1.8-2.9,3-4.1c4-4,9.9-3.8,13.7,0.5c2.8,3.2,4.1,7.2,4.9,11.3c1.7,7.6,1.7,15.3,0.8,23.1c-1.9,16.8-7,32.7-14.6,47.8
	c-1.4,2.7-1.8,5-1.2,7.9c1.3,6.1,2.8,12,5.4,17.7c0.6,1.3,1.3,2.6,2.3,3.8c2.2,2.7,4.5,3.2,7.6,1.6c2.3-1.3,4.4-3,6.4-4.7
	c4.3-3.5,8.7-6.9,13.6-9.7c2.9-1.6,5.9-2.8,9.4-2.8c5,0,9.9,3.5,11.4,8.3c0.3,1,0.6,2,0.9,3.2c1.2-1.7,2.3-3.3,3.5-4.9
	c3.7-5.1,7.7-9.9,13-13.5c3-2.1,6.3-3.7,10-3.8c6.2-0.1,10.9,2.7,14.6,7.5c2.1,2.7,3.5,5.9,4.5,9.2c0.2,0.5,0.2,1.1,0.6,1.6
	c1.7-3,3.5-5.9,5.7-8.5c3.3-3.9,7.1-7.2,12.2-8.6c7.2-2,14.8,0.7,19,6.8c2.5,3.6,4.3,7.5,5.9,11.5c1.7,4.1,4,7.8,7.6,10.6
	c4.7,3.6,10.2,4.5,15.9,4.3c7.3-0.2,13.7-3.4,20.2-6c1-0.4,1.9-0.6,2.9,0c0.9,0.6,1.2,1.4,1.1,2.4c-0.1,0.7-0.4,1.3-0.9,1.7
	c-9.5,7-19.9,11.4-31.9,11.2c-10.5-0.1-18.3-5.1-23.7-14c-2-3.3-3.3-6.9-4.4-10.5c-0.6-2.1-1.5-4.1-3-5.6c-1.9-1.9-3.9-2.3-6.3-1.1
	c-2.4,1.2-4.2,3.1-5.7,5.3c-2.6,3.7-4.1,7.9-5.8,12.1c-1.3,3.2-2.6,6.4-4.7,9.2c-2.5,3.3-5.6,4.3-9.1,3.1c-2.5-0.9-3.9-2.8-4.8-5.2
	c-0.8-2.2-1-4.6-1-7c-0.1-4.3-0.1-8.7-1.2-13c-0.6-2.2-1.7-4-3.5-5.4c-1.9-1.4-3.9-1.7-6.1-0.8c-3.3,1.3-5.9,3.6-8.3,6.1
	c-5,5.3-8.8,11.3-11.9,17.8c-1,2.1-2.1,4.2-3.7,6c-1.7,1.9-3.8,2.3-6.1,1.7c-2.2-0.6-3.3-2.2-3.7-4.4c-0.3-1.8-0.1-3.6-0.2-5.4
	c0-2.6-0.2-5.1-1.1-7.6c-1-2.9-1.6-3.1-4.2-1.5c-4.2,2.7-7.9,6-11.8,9.1c-3.2,2.5-6.5,5-10,7.2c-7.4,4.8-15.8,2.2-20.5-2.5
	c-4.5-4.4-7.1-9.7-9.2-15.5c-0.5-1.4-0.9-2.8-1.4-4.2c-0.5,0.4-0.7,0.9-1,1.3c-4,6-8.2,11.9-13.6,16.8c-3.5,3.2-7.4,5.5-12.2,6.2
	c-6.9,1-12.2-1.9-14.8-8.3c-0.3-0.8-0.6-1.6-1-2.7c-1.1,2.1-2.1,4-3.6,5.6c-4.5,5.1-10.3,7-16.9,5.5c-6.5-1.4-10-6-11.8-12.1
	c-0.5-1.8-0.5-1.8-1.9-0.5c-10.3,9.3-21.9,15.9-35.6,18.6c-6.7,1.4-13.6,2-20.3,0.6c-11.7-2.4-19.8-9.6-25-20.2
	c-2.8-5.8-4.2-11.9-4.8-18.3c0-0.3,0.1-0.7-0.3-0.9C8.1,107.9,8.1,103.6,8.1,99.3z M117.9,111.5c-0.4,0-0.8,0-1.2,0
	c-0.2,0-0.5,0.1-0.7,0.1c-4.6,1.2-7.8,4.1-9.9,8.3c-1.7,3.5-2,7.3-0.6,11c1.3,3.4,4.6,4.9,8.1,3.8c2.1-0.7,3.8-2,5.2-3.7
	c3.3-4,4.3-8.9,5.4-13.8c0-0.1,0-0.3-0.1-0.5C123.5,113.6,121.1,111.5,117.9,111.5z M184.7,27.7c-0.7,0.7-0.9,1.4-1.2,2.1
	c-1.4,3.9-2.1,8-2.7,12.1c-1.2,8.6-1.7,17.2-2,25.9c-0.1,4.9-0.1,9.8-0.2,14.8c0,0.4-0.1,0.9,0.3,1.3c0.1-0.2,0.2-0.4,0.3-0.6
	c6.7-15.3,9.4-31.2,7.3-47.8C186.3,32.8,185.8,30.2,184.7,27.7z"/>
</svg>
