<?xml version="1.0" encoding="utf-8"?>
<!-- Generator: Adobe Illustrator 19.0.0, SVG Export Plug-In . SVG Version: 6.00 Build 0)  -->
<svg version="1.1" id="layer" xmlns="http://www.w3.org/2000/svg" xmlns:xlink="http://www.w3.org/1999/xlink" x="0px" y="0px"
	 viewBox="-153 -46 652 652" style="enable-background:new -153 -46 652 652;" xml:space="preserve">
<path d="M29,289.1l8.9,9c-8,9-17.8,12.6-29.6,12.6c-21.3,0-36.7-15.1-36.7-36.1s15.5-36,36.8-36c11.7,0,21.6,3.6,29.6,12.6l-9,9
	c-5-5.7-12.1-9.2-19.7-9.5c-13.6,0-23.1,8.9-23.1,23.9c0,14.9,9.5,23.9,23.1,23.9C17.3,298.5,24,294.4,29,289.1z M47,237.6h13v72.2
	H47V237.6z M116.8,288.2H83.3c0.9,7.8,5.7,11.9,12.6,11.9c4.7,0.2,9.2-1.5,12.5-4.7l7.4,7.4c-5.7,5.3-13.3,8.2-21.1,8
	c-15.1,0-25-9.8-25-25.6s11.2-25.6,24.8-25.6c14.3,0,22.3,8.8,22.3,23.3L116.8,288.2z M103.3,279.4c0-5.4-3-9.7-9.2-9.7
	c-5.7,0-9.2,3.5-10.5,9.7H103.3z M155.6,302.9c-3.5,5.2-9.5,8.2-15.8,7.8c-8.7,0-15-5.7-15-14c0-10.5,9.1-16.3,30.1-16.3v-2.9
	c0-4.6-2.8-7.8-8.7-7.8c-5.4,0-10.5,2.6-13.6,7l-7.4-7.4c5.3-6.4,13.4-10,21.8-9.6c13,0,21.1,5.7,21.1,19.9v30.3h-12.2V302.9z
	 M138,295.4c0,3,2.2,5.3,6.8,5.3c6.2,0,9.9-4,9.9-10.2v-1.9C141.1,288.7,138,291.1,138,295.4z M192.8,292v17.8h-13v-49.2h13v10.2
	c3.4-8.1,9.9-11.1,17.5-11.1v13.9C196.4,273.5,192.8,279.8,192.8,292z M243.1,310.8c-9.4,0.2-18.7-2.9-26.1-8.7l7-10.9
	c5.5,4.5,12.4,7.1,19.5,7.4c8,0,11.9-2.9,11.9-8.2c0-13-35.5-3.4-35.5-30.5c0-13.2,10.9-21.3,25.2-21.3c8.7-0.3,17.2,2.7,23.8,8.3
	l-7,10.7c-4.6-4.1-10.4-6.4-16.5-6.7c-6.5,0-10.7,3.1-10.7,7.9c0,13.8,35.4,3.8,35.4,30.3C270,301.5,260.5,310.8,243.1,310.8z
	 M322.9,268.1l-8.2,8.2c-2.8-3.5-7.2-5.4-11.6-5.2c-7.4,0-12.6,4.7-12.6,14.1s5.2,14.1,12.6,14.1c4.5,0.2,8.8-1.8,11.6-5.2l8.2,8.2
	c-5.1,5.5-12.3,8.6-19.9,8.4c-15.1,0-26.1-9.7-26.1-25.6s10.9-25.6,26.1-25.6C310.6,259.5,317.8,262.5,322.9,268.1z M352.6,259.6
	c14.8,0,25.4,10.1,25.4,25.6s-10.6,25.6-25.4,25.6s-25.5-10.1-25.5-25.6C327.1,269.8,337.6,259.6,352.6,259.6z M352.6,299.4
	c7.8,0,12-5.5,12-14.1s-4.2-14.1-12-14.1c-7.8,0-12,5.5-12,14.1S344.7,299.3,352.6,299.4L352.6,299.4z M400.6,292v17.8h-13v-49.2h13
	v10.2c3.4-8.1,9.9-11.1,17.4-11.1v13.9C404.2,273.5,400.6,279.8,400.6,292z M468.9,288.2h-33.5c0.9,7.8,5.7,11.9,12.6,11.9
	c4.6,0.2,9.1-1.5,12.4-4.7l7.6,7.4c-5.7,5.3-13.3,8.2-21.1,8c-15.1,0-25-9.8-25-25.6s11.2-25.6,24.8-25.6c14.3,0,22.3,8.8,22.3,23.3
	L468.9,288.2z M455.5,279.4c0-5.4-3-9.7-9.2-9.7c-5.7,0-9.2,3.5-10.5,9.7H455.5z M-127.4,237.5V281c4.3-1.3,8.8-1.3,13.1,0v-30.3
	h46.1v46h-30.3c0.6,2.1,0.9,4.3,0.9,6.5c0,2.2-0.3,4.4-0.9,6.5h43.3v-72.2H-127.4z M-120.8,293.1c5.6,0,10.2,4.6,10.2,10.2
	s-4.6,10.2-10.2,10.2c-5.6,0-10.2-4.6-10.2-10.2S-126.4,293.1-120.8,293.1z"/>
</svg>
