<?xml version="1.0" encoding="utf-8"?>
<!-- Generator: Adobe Illustrator 23.0.1, SVG Export Plug-In . SVG Version: 6.00 Build 0)  -->
<svg version="1.1"
	 id="svg3004" xmlns:cc="http://creativecommons.org/ns#" xmlns:dc="http://purl.org/dc/elements/1.1/" xmlns:inkscape="http://www.inkscape.org/namespaces/inkscape" xmlns:rdf="http://www.w3.org/1999/02/22-rdf-syntax-ns#" xmlns:sodipodi="http://sodipodi.sourceforge.net/DTD/sodipodi-0.dtd" xmlns:svg="http://www.w3.org/2000/svg"
	 xmlns="http://www.w3.org/2000/svg" xmlns:xlink="http://www.w3.org/1999/xlink" x="0px" y="0px" width="170px" height="58.453px"
	 viewBox="0 0 170 58.453" enable-background="new 0 0 170 58.453" xml:space="preserve">
<g>
	<path id="path3048" inkscape:connector-curvature="0" fill="#002B45" d="M82.607,42.733c-0.519,0-0.648-0.192-0.648-0.642V16.426
		c0-0.448,0.129-0.641,0.648-0.641h12.511c4.864,0,7.652,2.694,7.652,7.122v12.64c0,4.491-2.788,7.186-7.652,7.186H82.607z
		 M94.341,37.279c1.816,0,2.527-0.77,2.527-2.695v-10.65c0-1.925-0.711-2.696-2.527-2.696h-6.483v16.042
		C87.858,37.279,94.341,37.279,94.341,37.279z M111.975,42.091c0,0.449-0.195,0.642-0.648,0.642h-4.604
		c-0.519,0-0.648-0.192-0.648-0.642V16.426c0-0.448,0.129-0.641,0.648-0.641h16.662c0.453,0,0.648,0.193,0.648,0.641v4.171
		c0,0.513-0.195,0.641-0.648,0.641h-11.411v5.84h9.984c0.455,0,0.584,0.128,0.584,0.576v4.236c0,0.448-0.129,0.578-0.584,0.578
		h-9.984C111.975,32.468,111.975,42.091,111.975,42.091z M127.795,42.733c-0.455,0-0.584-0.192-0.584-0.642V16.426
		c0-0.448,0.129-0.641,0.584-0.641h12.577c4.798,0,7.586,2.694,7.586,7.122v12.64c0,4.491-2.788,7.186-7.586,7.186H127.795z
		 M139.529,37.279c1.814,0,2.593-0.77,2.593-2.695v-10.65c0-1.925-0.779-2.696-2.593-2.696h-6.483v16.042
		C133.046,37.279,139.529,37.279,139.529,37.279z M151.846,42.797c-0.453,0-0.648-0.193-0.648-0.642v-4.171
		c0-0.513,0.195-0.642,0.648-0.642c0,0,5.512,0.128,9.726,0.128c1.814,0,2.527-0.128,2.527-2.054v-0.641
		c0-1.412-0.387-1.795-1.75-2.181l-5.965-1.99c-2.593-0.769-5.38-1.603-5.38-6.416v-2.053c0-4.491,2.788-6.544,7.652-6.544
		c4.212,0,9.076,0.128,9.076,0.128c0.453,0,0.648,0.128,0.648,0.641v4.171c0,0.45-0.195,0.643-0.648,0.643
		c0,0-4.409-0.13-8.299-0.13c-1.816,0-2.527,0-2.527,1.925v0.513c0,1.477,0.324,1.732,1.685,2.118l6.028,1.99
		c2.595,0.834,5.383,1.602,5.383,6.479v2.118c0,4.492-2.788,6.737-7.652,6.737C157.486,42.926,151.846,42.797,151.846,42.797"/>
	<path id="path3054" inkscape:connector-curvature="0" fill="#002B45" d="M48.116,58.261L81.893,0.706
		C82.088,0.385,81.828,0,81.504,0H34.242c-0.195,0-0.324,0.128-0.389,0.256L0.076,57.812c-0.195,0.321,0,0.642,0.389,0.642h47.262
		C47.856,58.453,47.987,58.389,48.116,58.261"/>
	<path id="path3060" inkscape:connector-curvature="0" fill="#FFFFFF" d="M54.339,38.049l-10.956-6.48
		c-0.066-0.065-0.195,0.063-0.129,0.128l6.547,10.779c0.066,0.128,0,0.257-0.063,0.257h-17.57c-0.066,0-0.129-0.128-0.129-0.257
		l6.612-10.779c0.066-0.128-0.066-0.193-0.129-0.193l-10.958,6.545c-0.063,0.064-0.193,0-0.193-0.064V20.596
		c0-0.128,0.129-0.193,0.193-0.128l10.958,6.479c0.063,0.065,0.195-0.063,0.129-0.128l-6.612-10.843
		c0-0.065,0.063-0.193,0.129-0.193h17.57c0.063,0,0.129,0.128,0.063,0.193L43.318,26.82c-0.063,0.065,0,0.193,0.131,0.128
		l10.89-6.479c0.066-0.065,0.195,0,0.195,0.128v17.389C54.534,38.049,54.405,38.113,54.339,38.049"/>
</g>
</svg>
