<?xml version="1.0" encoding="UTF-8"?>
<svg width="200px" height="70px" viewBox="0 0 200 70" version="1.1" xmlns="http://www.w3.org/2000/svg" xmlns:xlink="http://www.w3.org/1999/xlink">
    <!-- Generator: Sketch 63.1 (92452) - https://sketch.com -->
    <title>Group 13</title>
    <desc>Created with Sketch.</desc>
    <defs>
        <polygon id="path-1" points="0 0.120621053 96.0697981 0.120621053 96.0697981 69.7541649 0 69.7541649"></polygon>
        <linearGradient x1="131.351242%" y1="42.2876052%" x2="7.1024083%" y2="60.6583024%" id="linearGradient-3">
            <stop stop-color="#3DE2CB" offset="0%"></stop>
            <stop stop-color="#6D64F5" offset="100%"></stop>
        </linearGradient>
        <path d="M50.8377534,32.1801298 C50.8130891,32.1585158 50.7884249,32.1366561 50.7637607,32.1150421 C50.8211477,31.9929719 50.8685226,31.865007 50.9371429,31.7495684 C53.3796337,27.6397088 55.8250549,23.5313228 58.265348,19.4202351 C58.3415385,19.2920246 58.3705983,19.1355684 58.4216361,18.9921298 C58.2753602,18.9606912 58.1290842,18.9017439 57.9832967,18.9014982 C51.3698657,18.8970772 44.7566789,18.8970772 38.1432479,18.9007614 C37.9566789,18.9007614 37.7701099,18.9447263 37.5840293,18.9683053 C37.6514286,19.1544807 37.6912332,19.3571123 37.7903785,19.5241298 C40.2179731,23.600586 42.651917,27.6733579 45.0826862,31.7480947 C45.1564347,31.8721298 45.2096703,32.0086912 45.272674,32.1393579 C45.2477656,32.1592526 45.2231013,32.1791474 45.1981929,32.1992877 C45.0853724,32.1366561 44.9705983,32.0779544 44.8602198,32.011393 C40.8013675,29.5559895 36.7430037,27.0998491 32.6843956,24.6444456 C32.5803663,24.5815684 32.4780464,24.4833228 32.3681563,24.4727614 C32.2826862,24.4646561 32.1486203,24.5462 32.1049084,24.6257789 C32.0585104,24.7105158 32.0924542,24.8402 32.0924542,24.9502351 C32.0924542,31.6139895 32.0917216,38.2779895 32.0966056,44.9417439 C32.0968498,45.1126912 32.1576557,45.2838842 32.1903785,45.4548316 C32.3535043,45.3882702 32.52884,45.342586 32.6778022,45.2524456 C36.7554579,42.7808316 40.8301832,40.3047965 44.906862,37.8319544 C45.0167521,37.7651474 45.1442247,37.7273228 45.2633944,37.6757439 C45.2497192,37.8641298 45.1867155,37.9793228 45.1193162,38.091814 C42.6509402,42.2144456 40.1810989,46.3368316 37.7171184,50.4621649 C37.6426374,50.5864456 37.6277411,50.7468316 37.5852503,50.8905158 C37.7217582,50.9194982 37.8582662,50.9737789 37.9945299,50.9737789 C44.6685226,50.9777088 51.3427595,50.9777088 58.0167521,50.9732877 C58.1513065,50.9730421 58.2856166,50.9106561 58.4199267,50.8772526 C58.3769475,50.7443754 58.3376313,50.6100246 58.2890354,50.4791123 C58.2682784,50.4226211 58.2282295,50.3737439 58.1969719,50.3214281 C55.7662027,46.2464456 53.3351893,42.1714632 50.9058852,38.0952526 C50.838486,37.9820246 50.7913553,37.8565158 50.7344567,37.7369018 C50.7593651,37.7162702 50.7840293,37.6958842 50.8086935,37.6752526 C50.9217582,37.7381298 51.0365324,37.7970772 51.1471551,37.8641298 C52.7388523,38.8279193 54.3298168,39.7939193 55.921514,40.7579544 C58.4497192,42.2888667 60.9784127,43.8195333 63.5075946,45.3494632 C63.8499634,45.5567614 63.9473993,45.5000246 63.9581441,45.0920596 C63.9596093,45.0186211 63.9583883,44.9454281 63.9583883,44.8719895 C63.9583883,38.2448316 63.9593651,31.6176737 63.9535043,24.9905158 C63.9532601,24.8085158 63.8797558,24.6265158 63.8404396,24.4445158 C63.6778022,24.5098491 63.5024664,24.553814 63.3544811,24.6429719 C59.3002686,27.0831474 55.2489866,29.5279895 51.1972161,31.9716035 C51.0785348,32.0430772 50.9576557,32.1108667 50.8377534,32.1801298 L50.8377534,32.1801298 Z M95.7879365,0.120621053 C96.1486203,0.554375439 96.1537485,0.634445614 95.8570452,1.14777895 C84.4975824,20.8086912 73.1378755,40.4698491 61.7786569,60.1307614 C60.0213919,63.1717088 58.2660806,66.213393 56.5039316,69.251393 C56.3972161,69.4353579 56.2365324,69.587393 56.1014896,69.7541649 L-9.76800977e-05,69.7541649 L-9.76800977e-05,69.0205158 C0.0543589744,68.9421649 0.114432234,68.8672526 0.161807082,68.7847263 C3.80893773,62.4692526 7.45533578,56.1535333 11.1010012,49.8375684 C20.5691331,33.4342351 30.0362882,17.0309018 39.5078388,0.630024561 C39.6145543,0.445077193 39.7720635,0.289849123 39.9053968,0.120621053 L95.7879365,0.120621053 Z" id="path-4"></path>
        <polygon id="path-5" points="0.067960197 0.0308965027 22.2862027 0.0308965027 22.2862027 32.5291924 0.067960197 32.5291924"></polygon>
    </defs>
    <g id="Customer" stroke="none" stroke-width="1" fill="none" fill-rule="evenodd">
        <g id="Customer-Overview" transform="translate(-246.000000, -1121.000000)">
            <g id="Group-13" transform="translate(246.000000, 1121.000000)">
                <g id="Group-3" transform="translate(0.000000, 0.125018)">
                    <mask id="mask-2" fill="white">
                        <use xlink:href="#path-1"></use>
                    </mask>
                    <g id="Clip-2"></g>
                    <g id="Fill-1" mask="url(#mask-2)">
                        <use fill="url(#linearGradient-3)" xlink:href="#path-4"></use>
                        <use fill="#D3E7F7" xlink:href="#path-4"></use>
                    </g>
                </g>
                <g id="Group-6" transform="translate(177.533578, 18.791684)">
                    <mask id="mask-6" fill="white">
                        <use xlink:href="#path-5"></use>
                    </mask>
                    <g id="Clip-5"></g>
                    <path d="M22.2863492,25.8464561 C22.1720635,26.3558596 22.0863492,26.8738596 21.9393407,27.3736842 C21.1642491,30.0125614 19.3168742,31.5058947 16.7386081,32.1231228 C15.7544811,32.3586667 14.7246886,32.4679649 13.7115018,32.4996491 C11.9266422,32.5549123 10.1383639,32.5195439 8.35179487,32.4986667 C5.91028083,32.4701754 3.46876679,32.4210526 1.02749695,32.3780702 C0.495873016,32.3687368 0.327863248,32.2027018 0.326398046,31.6699649 C0.322490842,29.9828421 0.322002442,28.2957193 0.326886447,26.6085965 C0.328595849,26.0748772 0.494896215,25.9120351 1.03677656,25.9191579 C3.90393162,25.9569825 6.77035409,26.0112632 9.63726496,26.0390175 C10.9491087,26.0517895 12.2621734,26.0429474 13.5730403,25.9962807 C14.7864713,25.9532982 15.3010012,25.4141754 15.3610745,24.1895439 C15.3896459,23.604 15.3742613,23.0164912 15.3747497,22.4297193 C15.3754823,21.4170526 14.906862,20.7354737 13.9469109,20.4127368 C12.9112576,20.0649474 11.8741392,19.7218246 10.8365324,19.3801754 C8.79648352,18.7081754 6.75350427,18.0435439 4.71492063,17.3658947 C1.94715507,16.4453333 0.341782662,14.5405965 0.157655678,11.599614 C0.0482539683,9.84912281 0.0145543346,8.06940351 0.197704518,6.32947368 C0.535677656,3.11905263 2.36644689,1.13473684 5.49855922,0.413859649 C6.54349206,0.173403509 7.63579976,0.0405263158 8.70735043,0.0343859649 C12.0362882,0.0152280702 15.3659585,0.0795789474 18.6953846,0.114947368 C19.083663,0.119122807 19.4716972,0.145649123 19.8597314,0.162105263 C20.1952625,0.176105263 20.3864713,0.351964912 20.3874481,0.688947368 C20.3925763,2.48610526 20.3945299,4.28350877 20.3854945,6.08042105 C20.3835409,6.45350877 20.1789011,6.61757895 19.7488645,6.61168421 C18.6196825,6.59694737 17.4905006,6.56059649 16.3610745,6.54733333 C13.9796337,6.51933333 11.5981929,6.4977193 9.21675214,6.48150877 C8.91443223,6.47954386 8.60942613,6.51147368 8.30954823,6.55519298 C7.5781685,6.66203509 7.12078144,7.04445614 7.05533578,7.77196491 C6.9798779,8.60582456 6.99623932,9.45196491 7.02969475,10.2904912 C7.05435897,10.9045263 7.41211233,11.3520351 7.9820757,11.5642456 C8.99404151,11.9410175 10.0174847,12.2878246 11.0404396,12.6336491 C13.3745055,13.4225614 15.7246886,14.1655439 18.04337,14.9979298 C20.5342125,15.8919649 21.9139438,17.7161404 22.2187057,20.3606667 C22.2265201,20.4299298 22.262906,20.4957544 22.2863492,20.5632982 L22.2863492,25.8464561 Z" id="Fill-4" fill="#D3E7F7" mask="url(#mask-6)"></path>
                </g>
                <path d="M102.964493,25.5224667 L102.964493,44.6160105 L103.416752,44.6160105 C105.567668,44.6160105 107.718584,44.6187123 109.869499,44.6140456 C110.318339,44.6133088 110.7684,44.6025018 111.215775,44.5676246 C112.368889,44.4777298 113.126642,43.9133088 113.380122,42.8805018 C113.512479,42.3411333 113.575238,41.7713088 113.577436,41.214993 C113.593309,37.1572035 113.588121,33.0991684 113.583053,29.0411333 C113.582564,28.6267825 113.559365,28.2102211 113.514188,27.7985719 C113.376703,26.5434842 112.727863,25.819414 111.541538,25.5848526 C111.316142,25.5401509 111.083419,25.5126421 110.854115,25.5116596 C108.278046,25.5010982 105.701978,25.4971684 103.12591,25.4929903 C103.08,25.4927474 103.033846,25.5092035 102.964493,25.5224667 M96.0772053,35.0397649 C96.0772053,29.9896947 96.0772053,24.9398702 96.0772053,19.8900456 C96.0772053,19.155414 96.1940415,19.0284316 96.9139438,19.0284316 C101.971331,19.029414 107.028474,19.0220456 112.085617,19.0451333 C113.430427,19.0510281 114.74398,19.3155544 115.980611,19.8713789 C118.647521,21.0702211 120.002833,23.2220456 120.362051,26.0694491 C120.436777,26.6608877 120.444835,27.2636246 120.445568,27.8612035 C120.451673,32.8378351 120.452161,37.8144667 120.447033,42.7910982 C120.445324,44.3288877 120.148132,45.8040456 119.395018,47.1578702 C118.196728,49.3116596 116.276337,50.4186421 113.934701,50.8531333 C113.138852,51.0007474 112.318584,51.0744316 111.508816,51.0778702 C106.670476,51.0982561 101.831893,51.088186 96.9935531,51.0867123 C96.836044,51.0867123 96.6770696,51.0808175 96.5220024,51.0560105 C96.245812,51.0115544 96.094652,50.8403614 96.0814652,50.556186 C96.0758486,50.4341158 96.077558,50.3118 96.077558,50.1894842 C96.0772053,45.139414 96.0772053,40.0898351 96.0772053,35.0397649" id="Fill-7" fill="#D3E7F7"></path>
                <path d="M156.578608,44.561386 C156.63746,44.5837368 156.67116,44.6073158 156.704615,44.6073158 C159.281661,44.6051053 161.85895,44.6014211 164.436239,44.5957719 C164.581538,44.5955263 164.727326,44.5812807 164.872625,44.5675263 C166.015726,44.4611754 166.735873,43.904614 167.01304,42.8433158 C167.125617,42.4115263 167.179341,41.9519825 167.180562,41.5049649 C167.192772,37.212614 167.188904,32.9202632 167.18569,28.6279123 C167.185446,28.3476667 167.16591,28.0657018 167.131477,27.7874211 C166.972503,26.5094912 166.313407,25.7895965 165.109988,25.5759123 C164.895336,25.5378421 164.675311,25.5113158 164.457729,25.5108246 C161.88044,25.5012456 159.302906,25.497807 156.725861,25.4943684 C156.681172,25.4943684 156.636484,25.5184386 156.578608,25.5351404 L156.578608,44.561386 Z M149.697913,35.0416316 C149.697913,29.991807 149.697913,24.9419825 149.697913,19.8921579 C149.697913,19.1437719 149.810842,19.0277197 150.568352,19.0277197 C155.588864,19.029807 160.609866,19.0207193 165.630379,19.0447895 C167.18862,19.0524035 168.697778,19.3694912 170.090208,20.1085439 C172.472381,21.3734561 173.651136,23.4484035 173.982027,26.067386 C174.054799,26.6470351 174.065299,27.2374912 174.066032,27.8230351 C174.072381,32.7871404 174.072625,37.7514912 174.06823,42.7158421 C174.06652,44.394614 173.738315,45.9967544 172.847961,47.4412105 C171.618901,49.4348596 169.752967,50.4627544 167.518291,50.8569649 C166.66188,51.0080175 165.780562,51.0743333 164.909988,51.0780175 C160.15663,51.0986491 155.403516,51.0880877 150.650159,51.0871053 C150.492161,51.0871053 150.332698,51.0878421 150.177143,51.0657368 C149.870427,51.0220175 149.700464,50.8434561 149.699487,50.5214561 C149.699243,50.4114211 149.698266,50.301386 149.698266,50.1913509 C149.697913,45.1412807 149.697913,40.0917018 149.697913,35.0416316 L149.697913,35.0416316 Z" id="Fill-9" fill="#D3E7F7"></path>
                <path d="M131.843077,25.4896035 L131.843077,32.4127263 C132.005958,32.4208316 132.158828,32.434586 132.311697,32.434586 C135.946374,32.4360596 139.580806,32.4355684 143.215238,32.435814 C144.208889,32.435814 144.28044,32.5094982 144.28044,33.5251123 C144.28044,35.0410421 144.281661,36.5572175 144.280195,38.0729018 C144.279463,38.7613579 144.130989,38.9074982 143.4421,38.9074982 C139.734408,38.9077439 136.027204,38.9074982 132.319756,38.9077439 C132.175189,38.9077439 132.030867,38.9074982 131.829646,38.9074982 L131.829646,39.3557439 C131.829646,42.962586 131.82989,46.5689368 131.829402,50.1757789 C131.829402,50.9634632 131.706325,51.0872526 130.920488,51.0877439 C129.267253,51.0887263 127.614261,51.0882547 125.961026,51.0882547 C125.045763,51.0882547 124.948083,50.9887614 124.948083,50.0524807 C124.94773,44.037393 124.94773,38.0220596 124.94773,32.0069719 C124.94773,28.0334281 124.94773,24.0601298 124.94773,20.086586 C124.94773,19.1024105 125.023053,19.0270684 126.003028,19.0270684 C132.323907,19.0270684 138.645031,19.0270684 144.965665,19.0270684 C145.873846,19.0270684 145.972747,19.1264807 145.972991,20.0283754 C145.972991,21.5686211 145.973724,23.1093579 145.972503,24.6496035 C145.97177,25.3530421 145.836728,25.4893579 145.146862,25.4896035 C140.880195,25.4898491 136.613529,25.4896035 132.346862,25.4896035 L131.843077,25.4896035 Z" id="Fill-11" fill="#D3E7F7"></path>
            </g>
        </g>
    </g>
</svg>