<?xml version="1.0" encoding="utf-8"?>
<!-- Generator: Adobe Illustrator 25.2.1, SVG Export Plug-In . SVG Version: 6.00 Build 0)  -->
<svg version="1.1" id="Layer_1" xmlns="http://www.w3.org/2000/svg" xmlns:xlink="http://www.w3.org/1999/xlink" x="0px" y="0px"
	 viewBox="0 0 80 26" style="enable-background:new 0 0 80 26;" xml:space="preserve">
<style type="text/css">
	.st0{fill-rule:evenodd;clip-rule:evenodd;fill:#737574;}
	.st1{fill-rule:evenodd;clip-rule:evenodd;fill:#EC5B1F;}
	.st2{fill-rule:evenodd;clip-rule:evenodd;fill:#5F92C6;}
	.st3{fill-rule:evenodd;clip-rule:evenodd;fill:#F17F1B;}
	.st4{filter:url(#Adobe_OpacityMaskFilter);}
	.st5{fill-rule:evenodd;clip-rule:evenodd;fill:#FFFFFF;}
	.st6{mask:url(#mask-2_1_);fill-rule:evenodd;clip-rule:evenodd;fill:#F17F1B;}
	.st7{fill-rule:evenodd;clip-rule:evenodd;fill:#3F6D9A;}
	.st8{fill-rule:evenodd;clip-rule:evenodd;fill:#D3DD00;}
	.st9{fill-rule:evenodd;clip-rule:evenodd;fill:#EA5A22;}
	.st10{fill-rule:evenodd;clip-rule:evenodd;fill:#8ABF2D;}
</style>
<desc>Created with Sketch.</desc>
<path id="Fill-1" class="st0" d="M24.5,5.5L24.5,5.5c-0.3,0-0.6,0-0.9,0c-1,0-0.9-0.2-0.9,1c0,0.3,0.1,0.4,0.4,0.4
	c0.4,0,0.8,0,1.3,0c0.3,0,0.4,0.1,0.4,0.4c0,0.4,0,0.8-0.1,1.2c-0.1,0.4-0.3,0.8-0.7,1.1c-1.4,1-3.6,0.2-4-1.6
	c-0.2-1.3-0.2-2.6,0-3.9c0.2-1.3,1-2,2.3-2.1C23.2,1.7,24,2,24.7,2.6c0.2,0.2,0.4,0.2,0.6-0.1c0.6-0.7,0.6-0.8-0.2-1.3
	c-1-0.7-2.2-0.8-3.4-0.7c-2,0.3-3.4,1.6-3.6,3.7c-0.1,1.1-0.1,2.3,0,3.4c0.1,1.3,0.7,2.5,2,3.1c1.2,0.6,2.4,0.6,3.6,0.3
	c1.4-0.3,2.3-1.2,2.5-2.6c0.1-0.9,0.1-1.8,0.1-2.6c0-0.2-0.1-0.3-0.4-0.3C25.5,5.5,25,5.5,24.5,5.5"/>
<path id="Fill-3" class="st0" d="M40.2,6.8c0-1.1,0-2.2,0-3.2c0-0.5,0-0.5-0.5-0.5c-0.2,0-0.5,0-0.7,0c-0.5,0-0.5,0-0.5,0.5
	c0,1.9,0,3.8,0,5.7c0,0.3-0.1,0.5-0.4,0.5c-0.5,0-1,0.1-1.5,0.1c-0.7,0-1.2-0.4-1.3-1.1c-0.1-0.4-0.1-0.8-0.1-1.2c0-1.3,0-2.7,0-4
	c0-0.3-0.1-0.4-0.4-0.4c-0.3,0-0.6,0-1,0c-0.2,0-0.4,0.1-0.4,0.3c0,1.6,0,3.3,0,4.9c0,1.5,0.8,2.4,2.3,2.7c1.4,0.3,2.8,0,4.2-0.4
	c0.3-0.1,0.4-0.2,0.4-0.5C40.2,9,40.2,7.9,40.2,6.8"/>
<path id="Fill-5" class="st0" d="M17.7,19.7L17.7,19.7c0,1.2,0,2.3,0,3.5c0,1.4,0.9,2.4,2.2,2.5c0.5,0.1,1.1,0,1.6-0.1
	c0.5-0.1,0.6-0.1,0.6-0.6c0-0.7,0-0.6-0.6-0.6c-1.4,0.1-1.8-0.2-1.9-1.3c-0.1-1.3,0-2.6,0-3.9c0-0.2,0.1-0.3,0.3-0.3
	c0.5,0,0.9,0,1.4,0c0.9,0,0.8,0.1,0.9-0.9c0-0.3-0.1-0.4-0.4-0.4c-0.6,0-1.2,0-1.7,0c-0.3,0-0.4-0.1-0.4-0.4c0-0.5,0-1,0-1.5
	c0-0.3-0.1-0.4-0.4-0.3c-0.3,0.1-0.6,0.2-1,0.2c-0.3,0-0.4,0.2-0.4,0.5C17.7,17.3,17.7,18.5,17.7,19.7"/>
<path id="Fill-7" class="st0" d="M28.4,21.7c0-0.4,0-0.8,0.1-1.1c0.1-1.3,0.9-1.9,2.1-1.8c0.4,0,0.7,0.2,1,0.4
	c0.3,0.1,0.4,0.1,0.6-0.1c0.1-0.1,0.1-0.1,0.2-0.2c0.3-0.4,0.3-0.5-0.1-0.7c-0.9-0.6-2-0.7-3-0.5c-1.3,0.3-2.2,1.1-2.5,2.4
	c-0.2,1.1-0.2,2.2,0,3.2c0.2,1.2,1,2,2.1,2.3c1.2,0.3,2.3,0.2,3.4-0.4c0.5-0.3,0.5-0.3,0.2-0.8c-0.1-0.1-0.1-0.2-0.2-0.2
	c-0.1-0.2-0.3-0.2-0.5-0.1c-0.3,0.2-0.6,0.3-0.9,0.4c-1.3,0.3-2.2-0.3-2.4-1.6C28.4,22.4,28.4,22,28.4,21.7"/>
<path id="Fill-9" class="st0" d="M28,7.3c0,1.1,0,2.2,0,3.2c0,0.3,0.1,0.4,0.4,0.4c0.3,0,0.6,0,0.9,0c0.4,0,0.5-0.1,0.5-0.5
	c0-1.9,0-3.7,0-5.6c0-0.3,0.1-0.5,0.4-0.5c0.4,0,0.8-0.1,1.2-0.1c0.9,0,0.8,0.2,0.8-0.9c0,0,0,0,0,0C32,3.2,31.9,3,31.8,3
	c-1.2-0.1-2.4,0.1-3.5,0.6C28,3.7,28,3.8,28,4.1C28,5.2,28,6.3,28,7.3"/>
<path id="Fill-11" class="st0" d="M41.6,21.9L41.6,21.9c0,1.1,0,2.2,0,3.3c0,0.3,0.1,0.4,0.4,0.4c0.3,0,0.5,0,0.8,0
	c0.5,0,0.5,0,0.5-0.5c0-1.8,0-3.7,0-5.5c0-0.3,0.1-0.5,0.4-0.6c0.4,0,0.8-0.1,1.2-0.1c0.8,0,0.8,0.1,0.8-0.8c0-0.3-0.1-0.4-0.4-0.4
	c-1.2,0-2.3,0.1-3.4,0.6c-0.3,0.1-0.4,0.3-0.4,0.6C41.7,19.7,41.6,20.8,41.6,21.9"/>
<path id="Fill-13" class="st0" d="M23.3,21.6L23.3,21.6c0,1.2,0,2.4,0,3.6c0,0.3,0.1,0.4,0.4,0.4c0.3,0,0.7,0,1,0
	c0.3,0,0.3-0.1,0.3-0.3c0-0.2,0-0.4,0-0.7c0-2.1,0-4.3,0-6.4c0-0.4,0-0.5-0.5-0.5c-0.3,0-0.6,0-0.9,0c-0.3,0-0.4,0.1-0.4,0.4
	C23.4,19.2,23.3,20.4,23.3,21.6"/>
<path id="Fill-15" class="st0" d="M47.1,21.6L47.1,21.6c0,1.2,0,2.4,0,3.6c0,0.3,0.1,0.4,0.4,0.4c0.3,0,0.7,0,1,0
	c0.2,0,0.4-0.1,0.3-0.4c0-0.2,0-0.4,0-0.5c0-2.2,0-4.4,0-6.5c0-0.4,0-0.5-0.5-0.5c-0.3,0-0.6,0-0.9,0c-0.3,0-0.4,0.1-0.4,0.4
	C47.1,19.2,47.1,20.4,47.1,21.6"/>
<path id="Fill-17" class="st0" d="M38.9,15.1L38.9,15.1c0,0,0-0.1,0-0.1c0-0.6,0-0.6-0.6-0.4c-0.9,0.3-1.7,0.5-2.6,0.8
	c-0.6,0.2-0.7,0.3-0.6,0.9c0,0.1,0.2,0.2,0.3,0.2c1-0.2,2.1-0.4,3.1-0.6c0.2,0,0.3-0.2,0.3-0.4C38.9,15.3,38.9,15.2,38.9,15.1"/>
<path id="Fill-19" class="st0" d="M25.2,15.4c0-0.7-0.3-1-1-1c-0.7,0-1,0.4-1,1.1c0,0.6,0.4,1,1,1C24.9,16.5,25.2,16.1,25.2,15.4"/>
<path id="Fill-21" class="st0" d="M48.9,15.5c0-0.7-0.3-1.1-1-1.1c-0.6,0-1,0.3-1,1c0,0.7,0.3,1.1,1,1.1
	C48.6,16.5,48.9,16.1,48.9,15.5"/>
<path id="Fill-23" class="st0" d="M1.7,18L1.7,18c0,0.4,0,0.8,0,1.2c0,0.3,0.1,0.3,0.3,0.3c0.4,0,0.9,0,1.3,0c0.4,0,0.9,0,1.3-0.1
	c0.7-0.2,1-0.7,1-1.5c0-0.7-0.4-1.2-1.1-1.4c-0.9-0.3-1.8-0.2-2.7-0.1c-0.1,0-0.2,0.2-0.2,0.3C1.7,17.2,1.7,17.6,1.7,18 M1.7,22.6
	c0,0.5,0,0.9,0,1.4c0,0.2,0.1,0.3,0.3,0.3c0.9,0,1.8,0.1,2.6,0c1-0.1,1.5-0.8,1.5-1.8c0-0.9-0.5-1.5-1.5-1.6c-0.9-0.1-1.7,0-2.6-0.1
	c-0.2,0-0.3,0.1-0.3,0.3C1.7,21.6,1.7,22.1,1.7,22.6 M6.2,19.9c0.2,0.2,0.5,0.3,0.7,0.5c1.6,1.3,1.2,3.9-0.6,4.8
	c-0.6,0.3-1.3,0.5-2,0.5c-1.3,0-2.5,0-3.8-0.2C0.1,25.4,0,25.3,0,24.9c0-3.1,0-6.1,0-9.2c0-0.3,0-0.5,0.3-0.5c1.6-0.2,3.2-0.4,4.7,0
	c1.1,0.3,1.9,0.8,2.2,2c0.2,1,0,1.8-0.8,2.5C6.3,19.7,6.3,19.8,6.2,19.9"/>
<path id="Fill-25" class="st0" d="M24.5,5.5c0.5,0,1,0,1.5,0c0.2,0,0.4,0.1,0.4,0.3c0,0.9,0,1.8-0.1,2.6c-0.2,1.4-1.1,2.2-2.5,2.6
	c-1.2,0.3-2.5,0.3-3.6-0.3c-1.3-0.6-1.9-1.7-2-3.1c-0.1-1.1-0.1-2.3,0-3.4c0.2-2,1.6-3.4,3.6-3.7c1.2-0.2,2.3,0,3.4,0.7
	c0.8,0.5,0.8,0.6,0.2,1.3c-0.2,0.2-0.4,0.3-0.6,0.1C24,2,23.2,1.7,22.2,1.8C21,2,20.2,2.6,20,3.9c-0.2,1.3-0.2,2.6,0,3.9
	c0.3,1.7,2.5,2.6,4,1.6c0.4-0.3,0.6-0.6,0.7-1.1c0.1-0.4,0-0.8,0.1-1.2c0-0.3-0.1-0.4-0.4-0.4c-0.4,0-0.8,0-1.3,0
	c-0.3,0-0.4-0.1-0.4-0.4c0-1.2-0.1-1,0.9-1C23.9,5.4,24.2,5.5,24.5,5.5L24.5,5.5z"/>
<path id="Fill-27" class="st0" d="M47.4,6.9c-0.1-0.5-0.1-1.1-0.3-1.7c-0.1-0.5-0.5-0.9-1.1-1c-0.7-0.1-1.4-0.1-2.1,0.1
	c-0.2,0.1-0.3,0.2-0.3,0.4c0,1.5,0,3,0,4.6c0,0.2,0.1,0.4,0.3,0.4c0.6,0,1.3,0.1,1.9,0.1c0.6-0.1,1.1-0.5,1.2-1.1
	C47.3,8.1,47.3,7.6,47.4,6.9 M42,8.9c0-1.6,0-3.2,0-4.8c0-0.3,0.1-0.5,0.4-0.6c1.5-0.6,3.1-0.9,4.7-0.3c1,0.4,1.7,1.1,1.9,2.2
	c0.2,1.1,0.2,2.1,0,3.2c-0.3,1.5-1.3,2.3-2.8,2.5c-0.7,0.1-1.4,0.1-2.1-0.1c-0.3-0.1-0.4,0-0.4,0.3c0,0.8,0,1.6,0,2.5
	c0,0.3-0.1,0.5-0.4,0.5c-0.3,0-0.5,0-0.8,0c-0.5,0-0.5,0-0.5-0.5c0-1.4,0-2.8,0-4.2C42,9.3,42,9.1,42,8.9"/>
<path id="Fill-29" class="st0" d="M14.5,21.8c0-0.6,0-1-0.1-1.4c-0.2-1.3-0.9-1.9-2.2-1.7c-0.7,0.1-1.2,0.5-1.4,1.3
	c-0.2,1-0.2,2.1,0,3.1c0.2,0.9,0.7,1.4,1.7,1.4c1,0,1.6-0.4,1.8-1.3C14.5,22.7,14.5,22.1,14.5,21.8 M16.3,21.6
	c-0.1,0.5-0.1,1.1-0.2,1.6c-0.3,1.3-1.2,2.2-2.6,2.3c-0.7,0.1-1.5,0.1-2.2-0.1C10,25.2,9.2,24.3,9.1,23c-0.1-0.9-0.1-1.9,0-2.8
	c0.2-1.6,1.5-2.6,3.2-2.7c0.8,0,1.6,0,2.3,0.4c1.2,0.6,1.6,1.7,1.7,2.9C16.3,21.1,16.2,21.3,16.3,21.6
	C16.3,21.6,16.3,21.6,16.3,21.6"/>
<path id="Fill-31" class="st0" d="M55.9,7.1C55.9,7.1,55.9,7.1,55.9,7.1c-0.1-0.4,0-0.9-0.1-1.3c-0.1-1.1-0.6-1.5-1.7-1.6
	c-1-0.1-1.8,0.4-1.9,1.4c-0.1,0.9-0.1,1.8,0,2.7c0.1,1.2,0.8,1.8,2.2,1.6c0.8-0.1,1.3-0.5,1.4-1.4C55.9,8,55.9,7.5,55.9,7.1
	L55.9,7.1z M57.7,7.1c0,0.5,0,1-0.1,1.5c-0.2,1.2-1,2-2.2,2.4c-1.1,0.3-2.2,0.3-3.2-0.2c-0.9-0.4-1.5-1.2-1.6-2.1
	c-0.1-1-0.2-2.1,0-3.1c0.2-1.6,1.4-2.6,3-2.7c0.5,0,0.9,0,1.4,0.1c1.6,0.3,2.6,1.4,2.7,3.1C57.6,6.4,57.6,6.7,57.7,7.1L57.7,7.1z"/>
<path id="Fill-33" class="st0" d="M55.9,21.6c0-0.5,0-1-0.1-1.5c-0.2-0.9-0.8-1.4-1.8-1.4c-1,0-1.7,0.5-1.7,1.4c-0.1,1-0.1,2,0,3
	c0.1,0.9,0.8,1.4,1.8,1.4c1,0,1.6-0.5,1.8-1.4C55.9,22.6,55.9,22.1,55.9,21.6 M57.7,21.6c0,0.5,0,1-0.1,1.4
	c-0.3,1.4-1.4,2.5-2.8,2.6c-0.7,0-1.3,0-2-0.1c-1.3-0.3-2.1-1.2-2.3-2.5c-0.1-0.9-0.2-1.8-0.1-2.7c0.2-1.8,1.4-2.8,3.2-2.9
	c0.8,0,1.6,0,2.3,0.4c1.1,0.6,1.6,1.5,1.7,2.7C57.7,20.9,57.6,21.3,57.7,21.6C57.6,21.6,57.7,21.6,57.7,21.6"/>
<path id="Fill-35" class="st0" d="M40.2,6.8c0,1.1,0,2.2,0,3.3c0,0.3-0.1,0.5-0.4,0.5c-1.4,0.4-2.8,0.7-4.2,0.4
	c-1.4-0.3-2.2-1.2-2.3-2.7c-0.1-1.6,0-3.3,0-4.9c0-0.3,0.1-0.3,0.4-0.3c0.3,0,0.6,0,1,0c0.3,0,0.4,0.1,0.4,0.4c0,1.3,0,2.7,0,4
	c0,0.4,0,0.8,0.1,1.2c0.1,0.7,0.6,1.1,1.3,1.1c0.5,0,1,0,1.5-0.1c0.3,0,0.4-0.2,0.4-0.5c0-1.9,0-3.8,0-5.7c0-0.5,0-0.5,0.5-0.5
	c0.2,0,0.5,0,0.7,0c0.5,0,0.5,0,0.5,0.5C40.2,4.7,40.2,5.8,40.2,6.8"/>
<path id="Fill-37" class="st0" d="M38.3,23.2L38.3,23.2c0-0.3,0-0.6,0-0.9c0-0.1-0.1-0.3-0.2-0.3c-0.7,0-1.3,0-2,0.1
	c-0.7,0.1-0.9,0.5-0.9,1.1c0,0.7,0.3,1.1,0.9,1.2c0.6,0.1,1.1,0,1.7,0c0.4,0,0.5-0.2,0.5-0.6C38.3,23.6,38.3,23.4,38.3,23.2
	 M39.9,22.6c0,0.7,0,1.4,0,2.1c0,0.3-0.1,0.5-0.4,0.6c-1.3,0.5-2.6,0.6-4,0.3c-1.9-0.3-2.2-1.8-1.8-3.3c0.1-0.4,0.4-0.8,0.9-0.9
	c0.5-0.2,1-0.3,1.6-0.4c0.6-0.1,1.2,0,1.7,0c0.2,0,0.4,0,0.4-0.3c0-1.3-0.5-2.1-2-1.9c-0.5,0.1-0.9,0.3-1.4,0.4
	c-0.2,0.1-0.3,0.1-0.5-0.1c-0.6-0.7-0.6-0.7,0.2-1.2c1.2-0.6,2.5-0.7,3.7-0.2c0.9,0.4,1.4,1.2,1.5,2.1
	C39.9,20.8,39.8,21.7,39.9,22.6C39.8,22.6,39.9,22.6,39.9,22.6"/>
<path id="Fill-39" class="st0" d="M17.7,19.7c0-1.2,0-2.3,0-3.5c0-0.3,0.1-0.4,0.4-0.5c0.3,0,0.7-0.1,1-0.2c0.3-0.1,0.4,0,0.4,0.3
	c0,0.5,0,1,0,1.5c0,0.3,0.1,0.4,0.4,0.4c0.6,0,1.2,0,1.7,0c0.3,0,0.4,0.1,0.4,0.4c0,1,0,0.9-0.9,0.9c-0.5,0-0.9,0-1.4,0
	c-0.2,0-0.3,0.1-0.3,0.3c0,1.3,0,2.6,0,3.9c0,1.1,0.5,1.4,1.9,1.3C22,24.3,22,24.3,22,25c0,0.5,0,0.6-0.6,0.6
	c-0.5,0.1-1.1,0.1-1.6,0.1c-1.3-0.1-2.1-1.1-2.2-2.5C17.6,22,17.7,20.8,17.7,19.7L17.7,19.7z"/>
<path id="Fill-41" class="st0" d="M28.4,21.7c0,0.3,0,0.7,0.1,1.1c0.2,1.3,1.1,1.9,2.4,1.6c0.3-0.1,0.6-0.2,0.9-0.4
	c0.2-0.1,0.4-0.1,0.5,0.1c0.1,0.1,0.1,0.2,0.2,0.2c0.4,0.5,0.3,0.5-0.2,0.8c-1.1,0.6-2.2,0.7-3.4,0.4c-1.2-0.3-1.9-1.1-2.1-2.3
	c-0.2-1.1-0.2-2.2,0-3.2c0.3-1.3,1.2-2.1,2.5-2.4c1.1-0.2,2.1-0.2,3,0.5c0.4,0.3,0.4,0.4,0.1,0.7c-0.1,0.1-0.1,0.1-0.2,0.2
	c-0.2,0.3-0.3,0.3-0.6,0.1c-0.3-0.2-0.7-0.3-1-0.4c-1.3-0.1-2,0.5-2.1,1.8C28.4,20.9,28.4,21.2,28.4,21.7"/>
<path id="Fill-43" class="st0" d="M28,7.3c0-1.1,0-2.2,0-3.2c0-0.3,0.1-0.4,0.3-0.5c1.1-0.5,2.3-0.7,3.5-0.6c0.1,0,0.2,0.2,0.3,0.3
	c0,0,0,0,0,0c0,1.1,0.1,0.9-0.8,0.9c-0.4,0-0.8,0.1-1.2,0.1c-0.3,0-0.4,0.2-0.4,0.5c0,1.9,0,3.7,0,5.6c0,0.5,0,0.5-0.5,0.5
	c-0.3,0-0.6,0-0.9,0c-0.3,0-0.4-0.1-0.4-0.4C28,9.5,28,8.4,28,7.3"/>
<path id="Fill-45" class="st0" d="M41.6,21.9c0-1.1,0-2.1,0-3.2c0-0.3,0.1-0.5,0.4-0.6c1.1-0.5,2.2-0.6,3.4-0.6
	c0.3,0,0.4,0.1,0.4,0.4c0,1,0.1,0.8-0.8,0.8c-0.4,0-0.8,0.1-1.2,0.1c-0.3,0-0.4,0.2-0.4,0.6c0,1.8,0,3.7,0,5.5c0,0.5,0,0.5-0.5,0.5
	c-0.3,0-0.5,0-0.8,0c-0.3,0-0.4-0.1-0.4-0.4C41.7,24,41.6,23,41.6,21.9L41.6,21.9z"/>
<path id="Fill-47" class="st0" d="M23.3,21.6c0-1.2,0-2.3,0-3.5c0-0.3,0.1-0.5,0.4-0.4c0.3,0,0.6,0,0.9,0c0.5,0,0.5,0,0.5,0.5
	c0,2.1,0,4.3,0,6.4c0,0.2,0,0.4,0,0.7c0,0.2-0.1,0.4-0.3,0.3c-0.3,0-0.7,0-1,0c-0.3,0-0.4-0.1-0.4-0.4C23.4,24,23.4,22.8,23.3,21.6
	L23.3,21.6z"/>
<path id="Fill-49" class="st0" d="M47.1,21.6c0-1.2,0-2.3,0-3.5c0-0.3,0.1-0.5,0.4-0.4c0.3,0,0.6,0,0.9,0c0.5,0,0.5,0,0.5,0.5
	c0,2.2,0,4.4,0,6.5c0,0.2,0,0.4,0,0.5c0,0.2-0.1,0.4-0.3,0.4c-0.3,0-0.7,0-1,0c-0.3,0-0.4-0.1-0.4-0.4C47.1,24,47.1,22.8,47.1,21.6
	L47.1,21.6z"/>
<path id="Fill-51" class="st0" d="M38.9,15.1c0,0.1,0,0.3,0,0.4c0,0.2-0.1,0.4-0.3,0.4c-1,0.2-2.1,0.4-3.1,0.6
	c-0.1,0-0.3-0.1-0.3-0.2c-0.1-0.6,0-0.7,0.6-0.9c0.9-0.3,1.7-0.5,2.6-0.8c0.6-0.2,0.6-0.2,0.6,0.4C38.9,15,38.9,15,38.9,15.1
	L38.9,15.1z"/>
<path id="Fill-53" class="st0" d="M25.2,15.4c0,0.7-0.3,1-1,1c-0.6,0-1-0.4-1-1c0-0.7,0.4-1.1,1-1.1C24.9,14.4,25.2,14.8,25.2,15.4"
	/>
<path id="Fill-55" class="st0" d="M48.9,15.5c0,0.7-0.3,1-1,1c-0.7,0-1-0.3-1-1.1c0-0.7,0.4-1,1-1C48.6,14.4,48.9,14.8,48.9,15.5"/>
<path id="Fill-57" class="st1" d="M77.6,24.2c0.6-0.6,1.1-1.2,1.5-2c0.3-0.6,0.5-1.3,0.7-2.1c0.1-0.4,0.1-0.8,0.2-1.3
	c0-0.1,0-0.1,0-0.2c0-0.1,0-0.3,0-0.4l0-0.2c0-0.1,0-0.1,0-0.2c0,0,0,0,0,0c0-0.7-0.2-1.3-0.4-1.9c-0.3-0.9-0.8-1.8-1.4-2.5
	c0,0,0,0,0,0c0,0-0.1-0.1-0.1-0.1c0,0,0,0-0.1-0.1c-0.1-0.1-0.3-0.3-0.4-0.4c0,0-0.1,0-0.1-0.1c-0.1,0-0.1-0.1-0.2-0.2c0,0,0,0,0,0
	c-0.1,0-0.1-0.1-0.2-0.1c-0.1,0-0.2-0.1-0.2-0.2c-0.1,0-0.2-0.1-0.2-0.2c-0.1,0-0.2-0.1-0.3-0.2c-0.2-0.1-0.4-0.2-0.5-0.3
	c0,0-0.1,0-0.1,0c0,0,0,0,0,0c0,0-0.1,0.1-0.1,0.1c0,0,0,0,0,0c0,0-0.1,0.1-0.1,0.1c0,0-0.1,0.1-0.1,0.1c-0.3,0.3-0.6,0.5-1,0.8l0,0
	c0,0-0.1,0.1-0.1,0.1c0,0,0,0,0,0c0,0-0.1,0.1-0.1,0.1c0,0,0,0,0,0c0,0,0,0,0,0c0,0,0,0,0.1,0c0,0,0,0,0,0c0,0,0,0,0.1,0
	c0,0,0,0,0,0c0,0,0,0,0.1,0c0,0,0,0,0,0c0,0,0,0,0.1,0c0,0,0,0,0,0c0,0,0.1,0,0.1,0c0,0,0,0,0,0c0,0,0,0,0.1,0c0,0,0,0,0,0
	c0,0,0,0,0.1,0c0,0,0,0,0,0c0,0,0.1,0,0.1,0c0.3,0.1,0.7,0.3,1.1,0.5c0.3,0.2,0.5,0.4,0.7,0.5c0.1,0.1,0.3,0.2,0.4,0.3l0.1,0.1
	c0.2,0.2,0.4,0.4,0.5,0.6c0,0,0.1,0.1,0.1,0.1c0.2,0.3,0.3,0.5,0.5,0.7c0,0.1,0,0.1,0.1,0.1c0.1,0.3,0.3,0.6,0.3,0.9
	c0.1,0.3,0.1,0.5,0.2,0.8c0,0.2,0.1,0.3,0.1,0.5c0,0.1,0,0.1,0,0.2c0,0.2,0,0.5,0,0.7c0,0.1,0,0.2,0,0.3c0,0.2,0,0.4-0.1,0.7
	c0,0.1,0,0.1,0,0.2c0,0,0,0.1,0,0.1c0,0.2-0.1,0.4-0.1,0.6c0,0.1,0,0.2-0.1,0.2c0,0.2-0.1,0.3-0.2,0.5c0,0,0,0.1,0,0.1
	c0,0,0,0.1,0,0.1c-0.1,0.2-0.1,0.3-0.2,0.5c0,0.1-0.1,0.2-0.1,0.2c-0.1,0.2-0.2,0.4-0.3,0.6l-0.1,0.1c-0.2,0.2-0.3,0.4-0.5,0.7
	c-0.2,0.2-0.4,0.5-0.6,0.7c-0.2,0.1-0.3,0.3-0.5,0.4c-0.1,0.1-0.2,0.1-0.2,0.2c-0.1,0.1-0.2,0.1-0.3,0.2c-0.1,0-0.1,0.1-0.2,0.1
	c0,0-0.1,0-0.1,0.1c0,0,0,0,0,0c0,0,0,0-0.1,0c0,0,0,0,0,0c0,0,0,0-0.1,0c0,0,0,0,0,0c0,0,0,0-0.1,0c0,0,0,0,0,0c0,0,0,0-0.1,0
	c0,0,0,0,0,0c0,0,0,0-0.1,0c0,0,0,0,0,0c0,0,0,0-0.1,0c0,0,0,0,0,0c0,0,0,0,0,0c0.4-0.1,0.7-0.2,1-0.3C76.2,25.3,77,24.8,77.6,24.2"
	/>
<path id="Fill-59" class="st2" d="M78,1.2L78,1.2c-0.2-0.2-0.4-0.3-0.7-0.4c0,0,0,0-0.1,0c0,0-0.1,0-0.1,0l0,0
	c-0.5-0.3-1.1-0.4-1.7-0.6C75.1,0.1,74.6,0,73.9,0c-0.1,0-0.2,0-0.4,0c-0.1,0-0.2,0-0.3,0c-0.1,0-0.1,0-0.2,0c0,0,0.1,0,0.1,0
	c0,0,0,0,0,0c0.1,0,0.1,0,0.2,0c0,0,0,0,0,0c0.1,0,0.1,0,0.2,0c0,0,0,0,0,0c0.1,0,0.1,0,0.2,0c0,0,0,0,0,0c0.1,0,0.1,0,0.2,0
	c0.7,0.2,1.3,0.6,1.7,1.1c0.2,0.2,0.3,0.4,0.4,0.5c0.3,0.5,0.3,1.1,0.1,1.8C76,4,75.8,4.4,75.6,4.9c-0.1,0.3-0.3,0.5-0.5,0.8
	c-0.2,0.3-0.5,0.7-0.7,1C74,7,73.7,7.4,73.2,7.9c-0.4,0.5-0.9,0.9-1.3,1.3c-0.2,0.2-0.4,0.4-0.6,0.6c-0.1,0.1-0.3,0.3-0.4,0.5
	c-0.1,0.1-0.2,0.2-0.3,0.3c0,0-0.1,0.1-0.1,0.1c0,0,0,0,0,0c0,0-0.1,0.1-0.1,0.1c0,0,0,0,0,0c0,0,0,0,0.1,0c0,0,0,0,0,0
	c0,0,0,0,0.1,0c0,0,0,0,0,0c0,0,0,0,0,0c0,0,0,0,0,0c0,0,0,0,0,0c0,0,0,0,0,0c0,0,0,0,0,0c0,0,0,0,0,0c0,0,0,0,0,0c0,0,0,0,0,0
	c0,0,0,0,0.1,0c0,0,0,0,0,0c0,0,0,0,0.1,0c0,0,0,0,0,0c0,0,0,0,0,0c0,0,0,0,0,0c0,0,0,0,0,0c0,0,0,0,0,0c0,0,0,0,0,0c0,0,0,0,0,0
	c0,0,0,0,0,0c0,0,0,0,0,0c0,0,0,0,0,0c0,0,0,0,0,0c0,0,0,0,0.1,0c0.2-0.1,0.5-0.1,0.7-0.1c0,0,0.1,0,0.1,0c0,0,0,0,0,0
	c0,0,0.1,0,0.1,0c0,0,0,0,0,0c0,0,0.1,0,0.1,0c0,0,0,0,0,0c0,0,0.1,0,0.1,0c0,0,0,0,0,0c0,0,0.1,0,0.1,0c0,0,0,0,0,0c0,0,0,0,0.1,0
	c0,0,0,0,0,0c0.1,0,0.1,0,0.2,0c0,0,0,0,0,0c0.1,0,0.1,0,0.2,0c0,0,0.1,0,0.1,0c0.2,0,0.4,0,0.6,0.1l0.1,0c0,0,0.1,0,0.1,0
	c0.3,0.1,0.6,0.1,0.9,0.2c0,0,0.1,0,0.1,0c0,0,0,0,0,0c0,0,0,0,0.1,0c0,0,0,0,0,0c0,0,0,0,0.1,0c0,0,0,0,0,0c0,0,0,0,0,0
	c0,0,0,0,0,0c0,0,0,0,0,0c0,0,0,0,0,0c0,0,0,0,0,0c0,0,0,0,0,0c0,0,0,0,0,0c0,0,0,0,0,0c0,0,0,0,0,0c0,0,0,0,0.1,0c0,0,0,0,0,0
	c0.1-0.1,0.1-0.1,0.2-0.2c0,0,0.1-0.1,0.1-0.1l0,0c0,0,0,0,0.1-0.1c0.1-0.1,0.2-0.2,0.4-0.3c0.1-0.1,0.2-0.2,0.3-0.2
	c0,0,0.1-0.1,0.1-0.1c0,0,0.1-0.1,0.1-0.1c0,0,0,0,0,0c0.1-0.1,0.1-0.1,0.2-0.2c0.1-0.1,0.2-0.2,0.3-0.3c0,0,0,0,0,0
	c0,0,0,0,0.1-0.1c0-0.1,0.1-0.1,0.1-0.1c0,0,0,0,0,0c0,0,0,0,0.1-0.1c0-0.1,0.1-0.1,0.2-0.2c0.1-0.1,0.1-0.2,0.2-0.2
	c0,0,0,0,0.1-0.1c0,0,0,0,0-0.1c0-0.1,0.1-0.1,0.2-0.2c0.1-0.2,0.2-0.4,0.4-0.5c0-0.1,0.1-0.1,0.1-0.1c0,0,0,0,0,0
	c0.4-0.6,0.6-1.1,0.8-1.6c0.1-0.4,0.2-0.8,0.2-1.1c0,0,0,0,0,0c0,0,0-0.1,0-0.2c0-0.2,0-0.3,0-0.5c0,0,0-0.1,0-0.1
	c0-0.5-0.2-1-0.4-1.4l0,0c0,0,0,0,0-0.1c0,0,0-0.1-0.1-0.1l0,0c-0.1-0.2-0.3-0.4-0.5-0.6l0,0c0,0-0.1-0.1-0.1-0.1c0,0,0,0,0,0
	c0,0,0,0,0,0l0,0c0,0,0,0-0.1,0c0,0,0,0,0-0.1c-0.1,0-0.2-0.1-0.2-0.2c-0.1,0-0.2-0.1-0.3-0.2C78.1,1.3,78,1.2,78,1.2"/>
<path id="Fill-61" class="st3" d="M69.9,16.9C69.9,17,69.9,17,69.9,16.9C69.9,17,69.9,17,69.9,16.9c-0.1,0.1-0.1,0.2-0.2,0.2
	c0,0,0,0,0,0c0,0-0.1,0.1-0.1,0.1c0,0,0,0,0,0c0,0-0.1,0.1-0.1,0.1c0,0,0,0,0,0c0,0-0.1,0.1-0.1,0.1c0,0,0,0,0,0
	c0,0-0.1,0.1-0.1,0.1l0,0c0,0,0,0-0.1,0.1c0,0.2,0.1,0.3,0.2,0.5c0.1,0.2,0.3,0.5,0.5,0.7c0.2,0.2,0.3,0.3,0.5,0.4l0,0
	c0.1,0.1,0.2,0.1,0.4,0.2c0.3,0.1,0.5,0.2,0.7,0.2c0.1,0,0.1,0,0.2,0c0.1,0.1,0.2,0,0.3,0c0.1,0,0.1,0,0.2,0c0,0,0.1,0,0.1,0
	c0.1,0,0.2,0,0.3-0.1c0,0,0,0,0.1,0c0.1,0,0.2-0.1,0.3-0.1c0,0,0.1,0,0.1,0c0,0,0,0,0,0c0,0,0,0,0.1,0c0,0,0,0,0,0c0,0,0,0,0.1,0
	c-0.3,0.1-0.6,0.2-0.9,0.2c-0.6,0-1.3-0.2-1.7-0.7c-0.5-0.5-0.7-1.1-0.7-1.8C69.9,17.1,69.9,17,69.9,16.9"/>
<g id="Clip-64">
</g>
<defs>
	<filter id="Adobe_OpacityMaskFilter" filterUnits="userSpaceOnUse" x="67.2" y="13.4" width="11.1" height="12.6">
		<feColorMatrix  type="matrix" values="1 0 0 0 0  0 1 0 0 0  0 0 1 0 0  0 0 0 1 0"/>
	</filter>
</defs>
<mask maskUnits="userSpaceOnUse" x="67.2" y="13.4" width="11.1" height="12.6" id="mask-2_1_">
	<g class="st4">
		<polygon id="path-1_1_" class="st5" points="67.2,13.4 78.3,13.4 78.3,26 67.2,26 		"/>
	</g>
</mask>
<path id="Fill-63" class="st6" d="M72.9,25.9c0.2,0,0.4-0.1,0.6-0.1c0.2,0,0.3-0.1,0.6-0.2l0,0c0.3-0.1,0.5-0.2,0.7-0.3
	c0.1,0,0.2-0.1,0.2-0.1c0.1-0.1,0.2-0.1,0.3-0.2c0.1-0.1,0.2-0.1,0.3-0.2c0.2-0.1,0.3-0.2,0.5-0.3c0.2-0.2,0.4-0.4,0.6-0.6
	c0.2-0.2,0.3-0.4,0.5-0.6l0.1-0.1c0.1-0.2,0.2-0.4,0.3-0.5c0-0.1,0.1-0.2,0.1-0.3c0.1-0.1,0.1-0.3,0.2-0.4c0,0,0-0.1,0-0.1
	c0,0,0-0.1,0-0.1c0.1-0.2,0.1-0.3,0.1-0.4c0-0.1,0-0.2,0.1-0.2c0.1-0.2,0.1-0.4,0.1-0.6c0-0.1,0-0.1,0-0.2c0-0.2,0.1-0.4,0.1-0.6
	c0-0.1,0-0.2,0-0.3c0-0.2,0-0.4,0-0.7c0-0.1,0-0.1,0-0.2c0-0.2,0-0.3-0.1-0.4c-0.1-0.3-0.1-0.5-0.2-0.8c-0.1-0.3-0.2-0.5-0.3-0.8
	c0-0.1,0-0.1-0.1-0.2c-0.1-0.2-0.2-0.4-0.4-0.7c0,0-0.1-0.1-0.1-0.1c-0.1-0.2-0.3-0.4-0.5-0.5L76.6,15c-0.1-0.1-0.2-0.2-0.4-0.3
	c-0.2-0.2-0.4-0.3-0.7-0.5c-0.3-0.2-0.7-0.4-1-0.5c-0.3-0.1-0.6-0.2-0.9-0.3c0,0,0,0-0.1,0c0,0,0,0,0,0c0,0,0,0,0,0c0,0,0,0,0,0
	c0,0,0,0,0,0c0,0,0,0,0,0c0,0,0,0,0,0c0,0,0,0-0.1,0.1c-0.2,0.1-0.3,0.3-0.5,0.4c-0.1,0.1-0.2,0.2-0.3,0.2l0,0
	c-0.1,0.1-0.2,0.2-0.3,0.3c0,0-0.1,0.1-0.1,0.1c0,0,0,0,0,0c0,0-0.1,0.1-0.1,0.1c0,0,0,0,0,0c0,0,0,0,0,0c0.1,0,0.2,0,0.3,0
	c0.6,0,1.3,0.2,1.7,0.7c0.5,0.5,0.7,1.1,0.7,1.8c0,0.3,0,0.5-0.1,0.8c0,0,0,0,0,0c0,0,0,0,0,0c0,0,0,0,0,0c0,0,0,0,0,0c0,0,0,0,0,0
	c0,0,0,0,0,0c0,0,0,0,0,0c0,0,0,0,0,0c0,0,0,0,0,0c0,0,0,0,0,0c0,0,0,0,0,0c0,0,0,0,0,0c0,0,0,0,0,0c0,0,0,0,0,0c0,0,0,0,0,0
	c0,0,0,0,0,0c0,0.4-0.2,0.7-0.4,1.2c-0.1,0.2-0.3,0.5-0.5,0.7c-0.2,0.2-0.3,0.3-0.5,0.5c-0.2,0.1-0.4,0.2-0.6,0.3
	c-0.4,0.2-0.8,0.3-1.3,0.3c-0.4,0-0.7,0-1.1-0.1c-0.4-0.1-0.7-0.2-1-0.4c0,0-0.1-0.1-0.1-0.1c-0.3-0.2-0.6-0.4-0.8-0.6
	c-0.1-0.1-0.2-0.2-0.2-0.2c0,0,0,0.1-0.1,0.1c0,0.1-0.1,0.2-0.1,0.2c0,0,0,0.1,0,0.1c0,0.1-0.1,0.2-0.1,0.3c0,0.1-0.1,0.2-0.1,0.2
	c-0.1,0.2-0.1,0.4-0.2,0.5c0,0,0,0.1,0,0.1c0,0.1-0.1,0.2-0.1,0.3c0,0,0,0,0,0.1c0,0,0,0,0,0.1c0,0.1,0,0.2,0,0.2c0,0.1,0,0.1,0,0.2
	c0,0,0,0.1,0,0.1c-0.1,0.2-0.1,0.4-0.1,0.7c0,0.1,0,0.3,0,0.5c0,0,0,0,0,0l0,0c0,0,0,0,0,0.1c0,0,0,0.1,0,0.1c0,0,0,0,0,0
	c0,0,0,0,0,0c0,0.1,0,0.1,0,0.2c0,0,0,0.1,0,0.1c0.1,0.2,0.2,0.5,0.4,0.7c0.1,0.1,0.2,0.3,0.3,0.4c0,0,0,0,0,0c0,0,0,0,0,0
	c0,0,0,0,0,0c0,0,0,0,0,0c0,0,0,0,0,0c0,0,0,0,0,0c0,0,0,0,0,0c0,0,0,0,0,0c0,0,0,0,0,0c0,0,0,0,0,0c0,0,0,0,0,0c0,0,0,0,0,0
	c0,0,0,0,0,0c0,0,0,0,0,0c0,0,0,0,0,0c0,0,0,0,0,0c0.2,0.1,0.4,0.2,0.7,0.3c0.4,0.1,0.7,0.3,1,0.4c0.1,0,0.1,0,0.2,0.1c0,0,0,0,0,0
	c0,0,0,0,0,0c0,0,0,0,0,0c0,0,0,0,0,0c0,0,0,0,0,0c0,0,0,0,0,0c0,0,0,0,0,0c0,0,0,0,0,0c0,0,0,0,0,0h0c0,0,0,0,0,0c0,0,0,0,0,0
	c0,0,0,0,0,0c0,0,0,0,0,0c0,0,0,0,0,0c0,0,0,0,0,0c0,0,0,0,0,0c0,0,0,0,0,0c0,0,0.1,0,0.1,0c0.2,0,0.4,0.1,0.7,0.1
	c0.1,0,0.1,0,0.2,0c0.1,0,0.1,0,0.2,0c0,0,0.1,0,0.1,0c0,0,0.1,0,0.1,0c0.2,0,0.3,0,0.5,0c0,0,0.1,0,0.1,0
	C72.5,25.9,72.7,25.9,72.9,25.9"/>
<path id="Fill-66" class="st7" d="M68.5,18.2c0.1-0.1,0.1-0.2,0.2-0.3c0-0.1,0.1-0.2,0.1-0.2c0,0,0,0,0,0c0,0,0,0,0,0c0,0,0,0,0,0
	c0,0,0,0,0,0c0,0,0,0,0,0c0,0,0,0,0,0c0,0,0,0,0,0c0,0,0,0,0,0c0,0,0,0,0,0c0-0.1,0-0.1,0-0.2c0,0,0,0,0-0.1c0-0.3-0.1-0.6,0-0.9
	c0,0,0-0.1,0-0.1c0-0.2,0.1-0.4,0.1-0.6c0-0.1,0-0.2,0.1-0.2c0.1-0.2,0.2-0.5,0.3-0.7c0.1-0.2,0.3-0.4,0.4-0.6
	c0.1-0.1,0.2-0.2,0.3-0.3c0.3-0.2,0.5-0.4,0.8-0.6c0.3-0.2,0.6-0.3,1-0.4l0,0c0.2,0,0.4-0.1,0.6-0.1c0,0,0.1,0,0.1,0
	c0.1,0,0.2,0,0.2,0c0,0,0.1,0,0.1,0c0,0,0,0,0,0c0,0,0.1,0,0.2,0c0,0,0,0,0,0c0,0,0,0,0,0c0,0,0.1,0,0.2,0c0,0,0,0,0,0c0,0,0,0,0,0
	c0,0,0.1,0,0.1,0c0,0,0,0,0.1,0c0,0,0,0,0,0c0,0,0,0,0,0c0,0,0,0,0,0c0,0,0,0,0,0c0,0,0,0,0,0c0,0,0,0,0,0c0,0,0,0,0,0c0,0,0,0,0,0
	c0,0,0,0,0,0c0.2-0.1,0.4-0.3,0.5-0.4l0,0c0.3-0.3,0.6-0.5,1-0.8c0,0,0.1-0.1,0.1-0.1c0,0,0.1-0.1,0.1-0.1c-0.1-0.1-0.3-0.1-0.4-0.2
	c-0.1,0-0.2,0-0.3-0.1c-0.2-0.1-0.5-0.1-0.7-0.2l-0.1,0c-0.2,0-0.4-0.1-0.5-0.1c0,0-0.1,0-0.1,0c0,0-0.1,0-0.1,0c-0.2,0-0.4,0-0.6,0
	c-0.1,0-0.1,0-0.2,0c0,0-0.1,0-0.1,0c-0.2,0-0.4,0.1-0.6,0.1c-0.3,0.1-0.7,0.2-1,0.3c-0.1,0-0.1,0-0.2,0.1c-0.4,0.2-0.7,0.4-0.9,0.6
	c0,0,0,0,0,0c0,0,0,0,0,0c0,0,0,0,0,0c0,0,0,0,0,0c0,0,0,0,0,0c0,0,0,0,0,0c0,0,0,0,0,0c0,0,0,0,0,0c0,0,0,0,0,0c0,0,0,0,0,0
	c0,0,0,0,0,0c0,0,0,0,0,0c0,0,0,0,0,0c0,0,0,0,0,0c0,0,0,0,0,0c0,0,0,0,0,0c0,0,0,0,0,0c0,0-0.1,0.1-0.1,0.1c0,0,0,0-0.1,0.1
	c0,0-0.1,0.1-0.1,0.1c0,0,0,0,0,0c-0.1,0.1-0.1,0.1-0.2,0.2c0,0,0,0,0,0c-0.1,0.1-0.1,0.1-0.2,0.2c0,0-0.1,0.1-0.1,0.1c0,0,0,0,0,0
	c0,0,0,0,0,0c0,0,0,0,0,0c0,0,0,0,0,0c0,0,0,0,0,0c0,0,0,0,0,0c0,0,0,0,0,0c0,0,0,0,0,0c0,0,0,0,0,0l-0.1,0.1c0,0,0,0,0,0
	c0,0,0,0,0,0c0,0,0,0,0,0c0,0,0,0,0,0c0,0,0,0,0,0c0,0,0,0,0,0c0,0,0,0,0,0c0,0,0,0,0,0c0,0,0,0,0,0c0,0,0,0,0,0c0,0,0,0,0,0
	c0,0,0,0,0,0c0,0,0,0,0,0c0,0,0,0,0,0c0,0,0,0,0,0c0,0,0,0,0,0c0,0,0,0,0,0c0,0,0,0,0,0c0,0,0,0,0,0c0,0,0,0,0,0c0,0,0,0,0,0
	c0,0,0,0,0,0c0,0,0,0,0,0c0,0,0,0,0,0c0,0,0,0,0,0c0,0,0,0,0,0c0,0,0,0,0,0c0,0,0,0,0,0c0,0,0,0,0,0c0,0,0,0,0,0c0,0,0,0,0,0
	c0,0,0,0,0,0c0,0,0,0,0,0c0,0,0,0,0,0c0,0,0,0.1-0.1,0.1c-0.2,0.4-0.3,0.8-0.4,1.2c-0.1,0.4-0.1,0.9,0,1.3l0,0
	c0,0.3,0.1,0.6,0.2,0.9c0.1,0.5,0.3,0.9,0.5,1.4c0,0,0.1-0.1,0.1-0.1C68.3,18.5,68.4,18.3,68.5,18.2"/>
<path id="Fill-68" class="st8" d="M66.2,4.2c-0.1,0.3-0.3,0.6-0.3,0.9c0,0,0,0,0,0.1c0,0.2-0.1,0.3-0.1,0.5c0,0.2-0.1,0.4-0.1,0.6
	c0,0.1,0,0.2,0,0.2c0,0.1,0,0.2,0,0.3c0,0.5,0.1,1,0.2,1.5c0.1,0.3,0.2,0.6,0.3,1c0,0.1,0.1,0.2,0.1,0.3c0.2,0.5,0.4,0.9,0.7,1.4
	c0.3,0.5,0.6,0.9,0.9,1.3c0,0,0.1,0.1,0.1,0.1c0,0,0,0,0,0c0,0,0,0,0,0c0,0,0,0,0,0l0,0c0.2-0.2,0.3-0.4,0.5-0.6
	c0.1-0.1,0.1-0.1,0.2-0.2c0,0,0,0,0,0c0,0,0,0,0,0c0,0,0,0,0,0c0,0,0,0,0,0c0,0,0,0,0,0c0,0,0,0,0,0c0,0,0,0,0,0c0,0,0,0,0,0
	c0,0,0,0,0,0c0,0,0,0,0,0c0,0,0,0,0,0c0,0,0,0,0,0c0,0,0,0,0,0c0,0,0,0,0,0c0,0,0,0,0,0c0,0,0,0,0,0c0,0,0,0,0,0c0,0,0,0,0,0
	c0,0,0,0,0,0c0,0,0,0,0,0c0,0,0,0,0,0c0,0,0,0,0,0c0,0,0,0,0,0c0,0,0,0,0,0c0,0,0,0,0,0c0.2-0.2,0.3-0.4,0.5-0.6
	c0.2-0.3,0.5-0.5,0.8-0.8c0.1-0.1,0.2-0.2,0.3-0.3c0-0.1,0.1-0.1,0.1-0.2c0.1-0.1,0.2-0.2,0.2-0.2c0.1-0.1,0.2-0.3,0.4-0.4
	c0.4-0.4,0.8-0.9,1.3-1.3c0.4-0.5,0.8-0.9,1.1-1.2c0,0,0,0,0.1-0.1c0.4-0.5,0.8-1,1.2-1.7c0.1-0.2,0.2-0.3,0.2-0.4c0,0,0-0.1,0-0.1
	c0.1-0.2,0.2-0.4,0.2-0.6c0-0.1,0.1-0.3,0.1-0.4c0-0.1,0-0.1,0-0.2c0-0.3-0.1-0.6-0.2-0.8c-0.1-0.1-0.1-0.2-0.2-0.3
	c0,0-0.1-0.1-0.1-0.1c-0.4-0.4-0.9-0.7-1.5-0.9c-0.4-0.1-0.9-0.2-1.3-0.2c-0.2,0-0.5,0-0.7,0c-0.1,0-0.2,0-0.3,0c0,0-0.1,0-0.2,0
	c0,0-0.1,0-0.1,0c0,0,0,0,0,0c0,0-0.1,0-0.1,0l0,0c0,0,0,0-0.1,0c0,0-0.1,0-0.1,0c0,0-0.1,0-0.1,0c0,0-0.1,0-0.1,0
	c-0.3,0.1-0.6,0.3-0.8,0.4c-0.6,0.3-1.2,0.6-1.6,0.9c-0.3,0.2-0.7,0.5-1.1,0.8c0,0.1,0,0.1-0.1,0.2c0,0,0,0,0,0.1c0,0,0,0,0,0
	c0,0,0,0,0,0.1c0,0,0,0,0,0c0,0-0.1,0.1-0.1,0.1c0,0,0,0,0,0c0,0,0,0,0,0c0,0-0.1,0.1-0.1,0.1C66.5,3.5,66.3,3.9,66.2,4.2"/>
<path id="Fill-70" class="st1" d="M73,20.2c-0.1,0-0.1,0-0.2,0.1c0,0,0,0-0.1,0c-0.1,0-0.3,0.1-0.5,0.1c-0.2,0.1-0.4,0.1-0.6,0
	c0,0,0,0-0.1,0c-0.3,0-0.7-0.1-0.9-0.3c-0.1-0.1-0.3-0.2-0.4-0.2l0,0c-0.2-0.1-0.3-0.2-0.5-0.4c-0.2-0.2-0.4-0.5-0.6-0.8
	c0-0.1-0.1-0.1-0.1-0.2c0,0,0,0.1-0.1,0.1c-0.1,0.1-0.1,0.2-0.2,0.4c-0.1,0.1-0.1,0.2-0.2,0.3l0,0c0.1,0.1,0.2,0.2,0.3,0.3
	c0.2,0.2,0.5,0.5,0.9,0.6c0.1,0,0.1,0.1,0.2,0.1c0.2,0.1,0.5,0.2,0.7,0.3c0.2,0.1,0.5,0.1,0.7,0.1c0.1,0,0.2,0,0.2,0
	c0.4,0,0.8-0.1,1.1-0.2C72.7,20.3,72.8,20.2,73,20.2"/>
<path id="Fill-72" class="st2" d="M65.7,22.1c0.1,0.4,0.3,0.7,0.4,1.1c0,0.1,0.1,0.1,0.1,0.2c0.2,0.4,0.4,0.7,0.7,1
	c0-0.1,0-0.1-0.1-0.2c0,0,0,0,0-0.1c0,0,0-0.1,0-0.1c0-0.1-0.1-0.2-0.1-0.4c0,0,0,0,0,0c0,0,0,0,0,0c0-0.1,0-0.1,0-0.2c0,0,0,0,0,0
	c0-0.1,0-0.1,0-0.2c0,0,0-0.1,0-0.1c0,0,0-0.1,0-0.1c0-0.3,0-0.5,0.1-0.8c0-0.1,0-0.2,0.1-0.3c0,0,0-0.1,0-0.1c0,0,0,0,0,0
	c0-0.1,0-0.2,0.1-0.2c0-0.1,0.1-0.2,0.1-0.3c0-0.1,0-0.1,0-0.2c0.1-0.2,0.1-0.4,0.2-0.6c0-0.1,0.1-0.2,0.1-0.2
	c0.1-0.1,0.1-0.3,0.2-0.4c0-0.1,0.1-0.1,0.1-0.2c0.1-0.1,0.1-0.2,0.2-0.3c0,0,0,0,0,0c0-0.1-0.1-0.1-0.1-0.2c-0.3-0.5-0.5-1-0.6-1.5
	c-0.1-0.3-0.2-0.6-0.2-1l0,0c0-0.5,0-0.9,0.1-1.4c0,0,0,0,0,0c-0.2,0.3-0.3,0.5-0.4,0.7c-0.1,0.2-0.2,0.4-0.3,0.6l0,0
	c-0.1,0.3-0.2,0.6-0.3,0.9c-0.1,0.4-0.2,0.8-0.3,1.3l0,0.1c0,0.1,0,0.2-0.1,0.4c0,0,0,0.1,0,0.1c0,0.1,0,0.2,0,0.3
	c0,0.2,0,0.3,0,0.5c0,0.1,0,0.2,0,0.3c0,0.1,0,0.2,0,0.3c0,0.1,0,0.2,0,0.3c0,0,0,0,0,0c0,0,0,0,0,0c0,0.1,0,0.1,0,0.2
	C65.6,21.4,65.6,21.7,65.7,22.1"/>
<path id="Fill-74" class="st9" d="M69.6,15.1c-0.2,0.3-0.3,0.5-0.3,0.8c0,0.2-0.1,0.4-0.1,0.7c0,0.2,0,0.4,0,0.6
	c0.2-0.3,0.5-0.6,0.7-0.9c0,0,0.1-0.1,0.1-0.1c0.1-0.1,0.2-0.2,0.3-0.3c0.1-0.2,0.3-0.3,0.5-0.5c0,0,0.1-0.1,0.1-0.1
	c0.1-0.1,0.3-0.2,0.4-0.4c0,0,0,0,0,0c0-0.1,0.1-0.1,0.2-0.2c0.2-0.2,0.4-0.3,0.5-0.5c0.1-0.1,0.2-0.2,0.4-0.3l0,0
	c0.1-0.1,0.2-0.2,0.3-0.2c0.1-0.1,0.2-0.1,0.3-0.2c0,0-0.1,0-0.1,0c0,0,0,0,0,0h0c0,0,0,0-0.1,0c0,0-0.1,0-0.1,0c0,0,0,0,0,0
	c-0.1,0-0.2,0-0.3,0c0,0,0,0,0,0c0,0,0,0,0,0c0,0,0,0,0,0c-0.1,0-0.2,0-0.4,0.1l0,0c-0.3,0.1-0.6,0.2-0.9,0.4
	c-0.3,0.2-0.5,0.3-0.8,0.6C70,14.5,69.8,14.8,69.6,15.1"/>
<path id="Fill-76" class="st10" d="M65.6,23c-0.1-0.3-0.2-0.6-0.3-0.8c-0.1-0.3-0.1-0.5-0.2-0.8c0-0.1,0-0.2,0-0.3
	c0-0.1,0-0.1,0-0.2c0,0,0-0.1,0-0.1c0,0,0,0,0,0c0-0.1,0-0.2,0-0.3c0-0.1,0-0.2,0-0.3c0-0.1,0-0.2,0-0.3c0-0.2,0-0.4,0-0.6
	c0-0.1,0-0.2,0-0.3c0-0.2,0-0.4,0.1-0.5l0-0.1c0.1-0.4,0.2-0.9,0.4-1.3c0.1-0.3,0.2-0.6,0.3-0.9l0,0c0.1-0.2,0.2-0.4,0.3-0.7
	c0.2-0.4,0.4-0.8,0.7-1.2c0.1-0.1,0.1-0.2,0.2-0.3c0,0,0-0.1,0.1-0.1c0.1-0.1,0.2-0.2,0.3-0.4c0.1-0.1,0.1-0.2,0.2-0.2c0,0,0,0,0,0
	c0,0,0,0,0,0c0,0,0,0,0,0c0,0,0,0,0,0c0,0,0,0,0,0c0,0,0,0,0,0c0,0,0,0,0,0c0,0,0,0,0,0c0,0,0,0,0,0l0,0c0,0,0,0,0,0c0,0,0,0,0,0
	c0,0,0,0,0,0c0,0,0,0,0,0c0,0,0,0,0,0c0,0,0,0,0,0c0,0,0,0,0,0c0,0,0,0,0,0c0,0,0,0,0,0c0,0,0,0,0,0c0,0,0,0,0,0c0,0,0,0,0,0
	c0,0,0,0,0,0c0,0,0,0,0,0c-0.1-0.1-0.1-0.1-0.2-0.2c0,0,0,0,0,0c0,0,0,0-0.1-0.1c-0.3-0.4-0.6-0.8-0.9-1.4c-0.3-0.5-0.5-1-0.8-1.5
	c-0.2-0.5-0.4-0.9-0.5-1.3c-0.2-0.7-0.3-1.3-0.3-2c0-0.3,0-0.6,0.1-0.9c0-0.2,0.1-0.4,0.1-0.6c0-0.1,0-0.1,0.1-0.2c0,0,0,0,0,0
	c0-0.1,0-0.1,0.1-0.2c0,0,0,0,0,0c0-0.1,0-0.1,0.1-0.2c0,0,0,0,0,0c0,0,0-0.1,0.1-0.1c0,0,0,0,0,0c0,0,0,0,0,0c0,0,0,0.1-0.1,0.1
	c0,0.1-0.1,0.1-0.2,0.2c0,0,0,0.1-0.1,0.1c0,0.1-0.1,0.1-0.2,0.2c0,0-0.1,0.1-0.1,0.1c0,0.1-0.1,0.1-0.1,0.2c0,0,0,0,0,0
	c-0.1,0.1-0.2,0.3-0.3,0.4c0,0.1-0.1,0.1-0.1,0.2c0,0,0,0,0,0.1c0,0,0,0.1-0.1,0.1c0,0.1-0.1,0.2-0.2,0.3c0,0,0,0.1-0.1,0.1
	c0,0,0,0.1-0.1,0.1c0,0.1,0,0.1-0.1,0.2c-0.1,0.2-0.2,0.3-0.3,0.5l0,0c0,0,0,0.1-0.1,0.1c0,0.1-0.1,0.2-0.2,0.3c0,0,0,0,0,0.1
	c-0.1,0.2-0.1,0.4-0.3,0.5c0,0,0,0,0,0c0,0,0,0.1-0.1,0.2c0,0.1-0.1,0.2-0.1,0.2c0,0,0,0,0,0.1c-0.2,0.6-0.5,1.1-0.6,1.7
	c-0.1,0.3-0.2,0.6-0.3,1c0,0,0,0,0,0c0,0,0,0.1-0.1,0.2c0,0.1,0,0.2-0.1,0.3c0,0.1,0,0.2,0,0.2c0,0.1,0,0.3-0.1,0.3c0,0,0,0,0,0
	c0,0.1,0,0.2,0,0.3c0,0.1,0,0.2,0,0.3c0,0,0,0.1,0,0.1c0,0.1,0,0.1,0,0.2c0,0.1,0,0.2,0,0.3c0,0,0,0,0,0l0,0c0,0.1,0,0.3,0,0.4
	c0,0.1,0,0.1,0,0.1l0,0.8c0,0,0,0.1,0,0.1c0,0.1,0,0.2,0,0.3c0,0.2,0,0.3,0,0.5c0,0,0,0.1,0,0.1c0,0.1,0,0.2,0,0.3
	c0,0.1,0,0.2,0,0.2c0,0,0,0.1,0,0.1c0.1,0.1,0.1,0.2,0.1,0.3c0,0,0,0.1,0,0.1c0.1,0.4,0.2,0.8,0.3,1.1c0.1,0.4,0.3,0.7,0.4,1.2
	c0,0,0,0,0,0c0,0,0,0.1,0,0.1c0.1,0.1,0.1,0.1,0.1,0.2l0,0c0.1,0.1,0.1,0.3,0.2,0.4c0,0,0,0.1,0.1,0.1c0,0,0,0.1,0,0.1
	c0,0,0.1,0.1,0.1,0.1c0.1,0,0.1,0.1,0.1,0.1c0,0,0,0,0,0c0,0,0,0.1,0.1,0.1c0,0.1,0.1,0.2,0.1,0.3c0,0,0.1,0.1,0.1,0.1
	c0.1,0.1,0.2,0.2,0.2,0.3c0,0,0.1,0.1,0.1,0.1c0,0,0,0,0,0c0,0,0.1,0.1,0.1,0.2c0,0,0.1,0.1,0.1,0.1c0.1,0.1,0.2,0.2,0.3,0.3
	c0,0,0,0,0.1,0.1c0,0,0,0.1,0.1,0.1l0,0c0.1,0.1,0.2,0.1,0.3,0.3c0,0,0,0,0,0c0,0,0,0,0,0.1c0,0,0.1,0,0.1,0.1
	c0.1,0,0.1,0.1,0.2,0.2c0.1,0.1,0.2,0.2,0.3,0.3c0.1,0,0.1,0.1,0.1,0.1c0.1,0,0.1,0.1,0.2,0.2c0,0,0,0,0.1,0c0,0,0,0,0,0
	C65.7,23.4,65.7,23.2,65.6,23"/>
</svg>
