<?xml version="1.0" encoding="utf-8"?>
<!-- Generator: Adobe Illustrator 25.2.1, SVG Export Plug-In . SVG Version: 6.00 Build 0)  -->
<svg version="1.1" id="Layer_1" xmlns="http://www.w3.org/2000/svg" xmlns:xlink="http://www.w3.org/1999/xlink" x="0px" y="0px"
	 viewBox="0 0 146.5 38.1" style="enable-background:new 0 0 146.5 38.1;" xml:space="preserve">
<style type="text/css">
	.st0{fill:#E80326;}
	.st1{fill:#3B3C3D;}
</style>
<g>
	<path class="st0" d="M34.7,19.6c0,7.4-5.9,13.1-13.4,13.1c-7.2,0-13.1-6-13-13.2c0-7.3,6-13.1,13.5-13.1
		C28.9,6.5,34.7,12.4,34.7,19.6z M20,20.8c0.8-0.3,1.2,0,1.6,0.5c0.6,0.8,1.1,1.6,1.7,2.4c0.5,0.8,1.3,1.3,2.2,1.5
		c2.2,0.6,4.7-0.8,5.4-3c0.7-2.5-0.6-5-3.1-5.6c-0.7-0.2-0.9-0.5-1.2-1.1c-0.8-2.2-2.7-3.5-5.1-3.6c-2.4,0-4.3,1.3-5.1,3.5
		c-0.2,0.7-0.5,1-1.2,1.2c-1.8,0.5-2.9,1.7-3.1,3.6c-0.3,1.8,0.3,3.3,1.9,4.4c1.5,1.1,3.1,1.1,4.8,0.3C20,24,20,24,20.9,25.3
		c0.2,0.2,0.3,0.4,0.5,0.6c1,1,2.4,1,3.5-0.1c-0.5-0.1-1.1,0.1-1.5-0.4C22.3,24,21.2,22.4,20,20.8z"/>
	<path class="st1" d="M41.3,17.1c1.4-1.8,3-3.5,4.3-5.3c0.7-1,1.6-0.9,2.6-0.8c0.7,0.1,0.2,0.5,0.1,0.7c-1,1.3-2,2.5-3.1,3.7
		c-0.4,0.5-0.4,0.9-0.1,1.4c1.4,2.3,2.7,4.6,4.1,6.9c-2,0.4-2.1,0.4-3.1-1.3c-0.8-1.4-1.6-2.7-2.3-4.1c-0.3-0.5-0.4-0.6-0.9-0.1
		c-1.3,1.3-2.1,2.7-1.7,4.6c0.1,0.7,0.1,1.1-0.9,1.1c-1,0-1-0.5-1-1.2c0-3.5,0-7,0-10.6c0-0.8,0-1.2,1-1.2c1,0,1,0.5,1,1.2
		c0,1.6,0,3.3,0,4.9C41.1,17,41.2,17,41.3,17.1z"/>
	<path class="st1" d="M67.6,23.4c-0.4,0.1-0.8,0.3-1.2,0.3c-2.1,0.4-3.6-0.6-4-2.7c-0.2-1-0.2-1.9-0.1-2.9c0.2-2.5,1.4-3.5,4-3.5
		c0.9,0,1.7,0,2.6,0c0.6,0,0.8,0.2,0.8,0.8c0,3.1,0,6.2,0,9.3c0,1.6-0.7,2.8-2.3,3.4c-1.6,0.6-3.1,0.4-4.4-0.7
		c-0.3-0.2-0.5-0.5-0.1-0.8c0.4-0.3,0.5-1,1.2-0.6c0.3,0.2,0.6,0.5,0.9,0.6C66.9,27.1,68,25.7,67.6,23.4z M67.8,18.3
		C67.8,18.3,67.8,18.3,67.8,18.3c0-0.5,0-1,0-1.5c0-0.4-0.1-0.5-0.5-0.5c-2.1-0.3-3,0.4-3.1,2.5c0,0.6,0,1.2,0.1,1.8
		c0.2,0.9,0.7,1.5,1.7,1.5c1,0,1.5-0.6,1.7-1.5C67.8,19.8,67.8,19.1,67.8,18.3z"/>
	<path class="st1" d="M136.8,15.2c0-1.3,0-2.4,0-3.6c0-0.8,0.4-0.7,0.9-0.7c0.5,0,1-0.1,1,0.7c0,3.8,0,7.6,0,11.4
		c0,0.6-0.2,0.8-0.8,0.8c-1.2,0-2.3,0-3.5,0c-1.7,0-2.9-1.1-3-2.7c-0.1-1-0.1-2.1,0-3.1C131.9,15.5,133.7,14.5,136.8,15.2z
		 M136.8,20C136.8,20,136.8,20,136.8,20c-0.1-0.6,0-1.2-0.1-1.8c-0.1-0.9-0.8-1.5-1.7-1.5c-0.9,0-1.6,0.5-1.7,1.5
		c-0.1,0.6-0.1,1.2-0.1,1.8c0,1.7,0.5,1.9,2.5,2c1.7,0.1,0.8-1.2,1-1.8C136.8,20.1,136.8,20,136.8,20z"/>
	<path class="st1" d="M102.7,17.4c0.1,0.8,0.1,1.6,0.2,2.3c0.2,1.4,1,2.2,2.3,2.3c1.1,0.1,2.3-0.5,2.7-1.6c0.4-1.2,1.2-0.8,1.9-0.8
		c0.5,0,0.3,0.4,0.2,0.7c-0.4,2.1-2.3,3.6-4.7,3.6c-2.3-0.1-4.1-1.6-4.4-3.7c-0.2-1.9-0.2-3.8,0-5.7c0.2-2.1,2.1-3.6,4.5-3.7
		c2.3,0,4.2,1.4,4.5,3.6c0.1,0.3,0.2,0.8-0.3,0.7c-0.6-0.1-1.3,0.4-1.6-0.5c-0.2-0.6-0.5-1.1-1-1.5c-1.5-1.2-3.8-0.3-4.1,1.6
		C102.7,15.6,102.7,16.5,102.7,17.4z"/>
	<path class="st1" d="M130.2,19.3c0,1.2,0,2.5,0,3.7c0,0.6-0.1,0.9-0.8,0.8c-1.1-0.1-2.3,0-3.4,0c-1.8,0-3.1-1.2-3.2-3
		c-0.1-1.8,0-3.7,0-5.5c0-0.9,0.6-0.6,1-0.6c0.4,0,0.9-0.2,0.9,0.6c0,1.5,0,3.1,0,4.6c0,1.7,1.6,2.7,3.2,2c0.4-0.2,0.3-0.6,0.3-0.9
		c0-1.8,0.1-3.7,0-5.5c0-0.8,0.3-0.9,1-0.9c0.6,0,1.1,0,1,0.9C130.2,16.8,130.2,18.1,130.2,19.3z"/>
	<path class="st1" d="M114.2,19.2c0-1.9,0.4-3.5,2.3-4.3c2.3-0.9,4.6,0.4,5.1,2.8c0.2,0.9,0.2,1.9,0.1,2.8c-0.3,2.3-1.8,3.5-3.8,3.5
		c-2.1,0-3.5-1.5-3.7-3.7C114.2,19.9,114.2,19.5,114.2,19.2z M120,19.3c0-0.5-0.1-0.9-0.1-1.3c-0.2-1-0.8-1.5-1.8-1.6
		c-1,0-1.6,0.5-1.8,1.5c-0.2,1-0.2,1.9,0,2.9c0.2,1,0.9,1.5,1.8,1.4c0.9,0,1.5-0.6,1.7-1.5C119.9,20.2,119.9,19.7,120,19.3z"/>
	<path class="st1" d="M86.2,19.5c-0.1,2.6-1.1,4-3.1,4.4c-0.6,0.1-1.2,0.1-1.8-0.1c-2.5-0.7-3.2-3.4-2.5-6.5
		c0.5-2.1,2.5-3.1,4.6-2.6C85.2,15.2,86.2,16.9,86.2,19.5z M84.2,19.4c0-0.6,0-1.2-0.2-1.8c-0.3-0.9-0.9-1.3-1.8-1.2
		c-0.8,0-1.4,0.5-1.6,1.3c-0.3,1.1-0.3,2.2,0,3.3c0.2,0.8,0.8,1.2,1.7,1.2c0.8,0,1.4-0.4,1.7-1.2C84.2,20.5,84.2,19.9,84.2,19.4z"/>
	<path class="st1" d="M74.3,14.6c0.9,0,1.7,0.2,2.5,0.7c0.3,0.2,0.8,0.4,0.4,0.8c-0.4,0.4-0.6,1.2-1.4,0.7c-0.5-0.3-1.1-0.5-1.7-0.5
		c-0.5,0-0.9,0.1-1,0.7c-0.1,0.5,0.2,0.9,0.7,1c0.7,0.3,1.5,0.5,2.2,0.7c1.3,0.5,1.9,1.3,1.9,2.4c0,1.1-0.7,2.1-1.9,2.5
		c-1.5,0.5-3,0.3-4.3-0.5c-0.3-0.2-1-0.5-0.6-0.9c0.4-0.4,0.8-1.4,1.7-0.6c0.7,0.6,1.5,0.7,2.3,0.6c0.5-0.1,0.8-0.3,0.8-0.8
		c0-0.4-0.2-0.7-0.6-0.9c-0.6-0.2-1.3-0.4-1.9-0.6c-1.9-0.6-2.6-1.5-2.4-3C71.2,15.5,72.5,14.6,74.3,14.6z"/>
	<path class="st1" d="M60.9,19.3c0,1.3,0,2.5,0,3.8c0,0.9-0.5,0.7-1,0.7c-0.5,0-0.9,0-0.9-0.7c0.1-1.9,0-3.8,0-5.7
		c0-0.6-0.2-0.8-0.8-0.8c-2.4,0-2.8,0.3-2.8,2.7c0,1.3,0,2.6,0,3.9c0,0.8-0.5,0.7-1,0.7c-0.5,0-1,0.1-0.9-0.7c0.1-1.8,0-3.7,0-5.5
		c0.1-1.6,1.3-2.8,2.9-2.9c1.2,0,2.5,0,3.7,0c0.6,0,0.7,0.2,0.7,0.7C60.9,16.7,60.9,18,60.9,19.3z"/>
	<path class="st1" d="M87.8,20c0-0.7,0-1.5,0-2.2c0-0.6,0.4-1.5-0.8-1.5c-0.4,0-0.2-0.6-0.2-0.9c0-0.2-0.1-0.6,0.3-0.6
		c0.9,0.1,0.7-0.5,0.8-1c0.1-2.1,1.1-3,3.2-2.9c0.7,0,0.7,0.3,0.7,0.8c0,0.5,0,0.9-0.7,0.8c-0.8-0.1-1.3,0.1-1.3,1.1
		c0,0.8,0.1,1.3,1.1,1.1c0.7-0.1,0.8,0.3,0.8,0.8c0,0.6-0.2,0.8-0.8,0.7c-1-0.2-1.1,0.3-1.1,1.1c0,1.8,0,3.7,0,5.5
		c0,0.9-0.4,0.8-1,0.9c-0.7,0-1-0.1-1-0.9C87.9,22,87.8,21,87.8,20z"/>
	<path class="st1" d="M96,23.8c-1.7,0-2.6-0.8-2.7-2.5c0-1.4,0-2.8,0-4.3c0-0.4,0-0.8-0.6-0.7c-0.6,0.1-0.5-0.4-0.5-0.8
		c0-0.3-0.2-0.9,0.4-0.8c0.7,0,0.6-0.4,0.6-0.8c0-0.3,0-0.6,0-0.9c-0.1-0.8,0.2-1,1-1c0.8,0,1,0.2,0.9,1c0,0.3,0,0.5,0,0.8
		c-0.1,0.7,0.1,1.1,0.9,0.9c0.6-0.1,1,0,1,0.8c0,0.8-0.4,0.9-1,0.8c-0.7-0.1-0.9,0.2-0.9,0.9c0.1,1.3,0,2.5,0,3.8
		c0,0.6,0.2,1.1,0.8,1.1c1-0.1,1,0.4,1,1.1C97,24.2,96.2,23.6,96,23.8z"/>
	<path class="st1" d="M111.2,17.2c0-1.8,0.1-3.7,0-5.5c0-0.9,0.4-0.8,1-0.8c0.7,0,0.9,0.1,0.9,0.8c0,3.7,0,7.5,0,11.2
		c0,0.7-0.2,0.9-0.9,0.8c-0.6,0-1.1,0-1-0.8C111.3,21.1,111.2,19.2,111.2,17.2z"/>
	<path class="st1" d="M50.3,19.2c0-1.3,0-2.5,0-3.8c0-0.7,0.4-0.7,0.8-0.6c0.4,0.1,1.1-0.3,1.1,0.6c0,2.6,0,5.2,0,7.9
		c0,0.9-0.7,0.5-1.1,0.6c-0.5,0.1-0.8,0-0.8-0.7C50.3,21.8,50.3,20.5,50.3,19.2z"/>
	<path class="st1" d="M51.2,12.8c-0.9,0.3-0.9-0.3-0.9-1c-0.1-0.9,0.4-0.9,1.1-0.9c0.8-0.1,0.9,0.3,0.9,1
		C52.3,12.7,51.9,13,51.2,12.8z"/>
	<path class="st0" d="M18.1,18.6c-0.4-2.1,0.1-3.6,1.5-4.4c1.3-0.8,2.9-0.7,4.1,0.3c1.2,1,1.6,2.4,1.1,3.8c0.4,0.3,0.8,0,1.2-0.1
		c1.5-0.3,2.9,0.7,3.1,2.2c0.2,1.5-0.7,2.8-2.2,3c-0.9,0.1-1.6-0.1-2.2-0.9c-0.5-0.6-0.9-1.3-1.4-1.9c-0.8-1-2-1.3-3-0.5
		c-0.5,0.3-0.8,0.3-1.3-0.1c0,2-0.6,3-1.9,3.3c-1.1,0.3-2.3-0.1-3-1.1c-0.6-0.9-0.5-2.3,0.2-3.1C15.4,18,16.4,17.9,18.1,18.6z"/>
</g>
</svg>
