<?xml version="1.0" encoding="utf-8"?>
<!-- Generator: Adobe Illustrator 25.2.1, SVG Export Plug-In . SVG Version: 6.00 Build 0)  -->
<svg version="1.1" id="Layer_1" xmlns="http://www.w3.org/2000/svg" xmlns:xlink="http://www.w3.org/1999/xlink" x="0px" y="0px"
	 viewBox="0 0 159 50.6" style="enable-background:new 0 0 159 50.6;" xml:space="preserve">
<style type="text/css">
	.st0{fill:#14B8FA;}
	.st1{fill:#9FA7B0;}
</style>
<path class="st0" d="M23.5,34.2c0-2.9,0-5.7,0-8.5c0-0.3-0.2-0.4-0.4-0.5c-5.9-3.4-11.7-6.9-17.6-10.3c-0.5-0.3-0.6-0.5-0.3-1
	c0.3-0.4,0.6-0.8,1.1-1.1C12,9.6,17.5,6.4,23.1,3.2c1-0.6,1.9-0.5,2.8,0c5.5,3.2,11,6.3,16.5,9.5c1,0.6,1.5,1.4,1.5,2.6
	c0,6.3,0,12.7,0,19c0,1.1-0.4,1.9-1.4,2.4c-5.6,3.2-11.1,6.4-16.7,9.6c-0.9,0.5-1.8,0.5-2.7,0c-5.6-3.2-11.1-6.4-16.7-9.6
	c-0.9-0.5-1.3-1.3-1.3-2.3c0-3.3,0-6.6,0-10c0-0.7,0-0.7,0.6-0.3c5.8,3.3,11.5,6.6,17.3,9.8C23.1,34,23.3,34.1,23.5,34.2z M6.9,26.9
	c0,0.2,0,0.2,0,0.3c0,2.4,0,4.8,0,7.2c0,0.4,0.2,0.6,0.6,0.8c5.5,3.2,10.9,6.3,16.4,9.5c0.5,0.3,0.8,0.3,1.3,0
	c5.4-3.1,10.8-6.3,16.2-9.4c0.5-0.3,0.7-0.6,0.7-1.2c0-6.2,0-12.5,0-18.7c0-0.6-0.2-0.9-0.7-1.2c-5.4-3.1-10.8-6.2-16.2-9.4
	c-0.5-0.3-0.8-0.3-1.3,0c-5.1,3-10.3,6-15.5,8.9c-0.2,0.1-0.4,0.1-0.5,0.4c2.2,1.3,4.4,2.6,6.6,3.9c0.3,0.2,0.5,0.1,0.8,0
	c2.7-1.6,5.5-3.1,8.2-4.7c0.7-0.4,1.4-0.4,2.1,0c2.8,1.6,5.6,3.2,8.4,4.8c0.7,0.4,1.1,1,1.1,1.8c0,3.2,0,6.5,0,9.7
	c0,0.8-0.3,1.4-1,1.8c-2.8,1.6-5.6,3.2-8.4,4.8c-0.8,0.5-1.5,0.5-2.2,0c-4-2.3-7.9-4.5-11.9-6.8C9.9,28.6,8.4,27.8,6.9,26.9z
	 M32.3,19.3c-0.1-0.1-0.1-0.1-0.1-0.2c-2.5-1.4-4.9-2.8-7.4-4.3c-0.3-0.2-0.5-0.1-0.7,0.1c-2.1,1.2-4.1,2.4-6.2,3.6
	c-0.4,0.2-0.8,0.4-1.2,0.8c0.1,0.1,0.1,0.1,0.2,0.1c2.4,1.4,4.7,2.8,7.1,4.2c0.3,0.2,0.5,0.1,0.7,0c1.7-1,3.4-1.9,5.1-2.9
	C30.5,20.2,31.4,19.7,32.3,19.3z M33.2,20.9c-0.1,0-0.2,0-0.2,0c-2.5,1.4-4.9,2.8-7.4,4.1c-0.3,0.2-0.3,0.4-0.3,0.6c0,2.7,0,5.3,0,8
	c0,0.5,0.1,0.6,0.5,0.3c2.1-1.3,4.3-2.5,6.5-3.7c0.6-0.4,0.9-0.8,0.9-1.5C33.2,26.2,33.2,23.5,33.2,20.9z"/>
<path class="st1" d="M85.1,29.3c-2.5-1.8-3.1-5.1-1.5-7.4c0.7-1,1.8-1.5,2.9-1.8c1.3-0.4,2.6-0.5,4-0.5c3.2,0,6.4,0,9.6,0
	c0.5,0,0.7,0.1,0.6,0.6c0,0.8,0,1.6,0,2.4c0,0.5-0.2,0.6-0.6,0.6c-0.6,0-1.2,0-1.8,0c0.9,1.3,0.8,2.6,0.3,3.9
	c-0.5,1.4-1.6,2.1-3,2.6c-1.9,0.6-3.8,0.6-5.8,0.6c-0.3,0-0.6,0-0.9,0c-0.2,0-0.5,0-0.5,0.3c-0.1,0.3,0.1,0.5,0.3,0.6
	c0.6,0.2,1.2,0.3,1.8,0.4c1.8,0.3,3.6,0.6,5.3,1c1.6,0.4,3,1.2,3.3,3c0.6,2.9-0.7,4.9-3.6,5.6c-2.4,0.6-4.9,0.6-7.3,0.4
	c-1.5-0.1-3-0.3-4.5-0.5c-0.4-0.1-0.5-0.2-0.5-0.6c0-0.9,0-1.9,0-2.8c0-0.4,0.2-0.5,0.6-0.5c2.6,0.2,5.2,0.3,7.8,0.3
	c0.4,0,0.8,0,1.1-0.1c0.4-0.1,0.7-0.2,0.7-0.7c0-0.4-0.3-0.6-0.7-0.7c-1.4-0.3-2.7-0.5-4.1-0.7c-0.7-0.1-1.4-0.2-2.1-0.4
	C83.6,34,83.2,31,85.1,29.3z M91.4,23.3C91.4,23.3,91.4,23.3,91.4,23.3c-0.4,0-0.8,0-1.1,0c-0.5,0-1,0.1-1.3,0.6
	C88.1,25,88.7,26.7,90,27c0.6,0.1,1.3,0.1,2,0c0.7-0.2,1.1-0.7,1.1-1.4c0-0.4,0-0.9,0-1.3c-0.1-1-0.2-1-1.2-1
	C91.8,23.3,91.6,23.3,91.4,23.3z"/>
<path class="st1" d="M146.3,19.3c1.3,0,2.5,0,3.7,0.3c2.4,0.6,3.9,2.1,4.4,4.5c0.5,2.2,0.5,4.5,0,6.7c-0.5,2.4-2,3.9-4.4,4.5
	c-2.5,0.5-5,0.5-7.5,0c-2.4-0.6-3.9-2.1-4.4-4.5c-0.5-2.3-0.5-4.6,0.1-6.9c0.6-2.3,2.1-3.6,4.3-4.2
	C143.8,19.4,145.1,19.3,146.3,19.3z M143.8,27.5c0,0.9,0,1.9,0.2,2.8c0.2,0.6,0.5,1.1,1.2,1.3c0.6,0.2,1.3,0.2,2,0.1
	c0.8-0.1,1.2-0.6,1.4-1.3c0.4-1.8,0.4-3.7,0-5.5c-0.2-0.9-0.8-1.4-1.6-1.5c-2-0.2-2.9,0.4-3.1,2.2C143.8,26.2,143.8,26.8,143.8,27.5
	z"/>
<path class="st1" d="M81.3,27.7c0,1.1-0.1,2.4-0.5,3.7c-0.6,2-1.9,3.3-3.9,3.8c-2.5,0.6-5.1,0.6-7.6,0.1c-2.7-0.6-4.3-2.2-4.7-5
	c-0.3-2.1-0.4-4.3,0.2-6.4c0.6-2.3,2.1-3.8,4.4-4.3c2.4-0.5,4.8-0.6,7.3,0c3,0.7,4.3,2.5,4.7,5.4C81.3,25.8,81.3,26.7,81.3,27.7z
	 M75.4,27.4c0-0.5-0.1-1.2-0.1-1.9c-0.1-1.4-0.7-2-1.8-2.2c-1.8-0.3-2.8,0.4-3,2.2c-0.2,1.4-0.2,2.9,0.1,4.3
	c0.2,1.3,0.9,1.8,2.2,1.9c0.2,0,0.4,0,0.6,0c1.1,0,1.7-0.6,1.9-1.6C75.3,29.2,75.4,28.4,75.4,27.4z"/>
<path class="st1" d="M110.7,23.5c-1.2,0-2.3,0-3.5,0c-0.4,0-0.4,0.2-0.4,0.5c-0.1,0.5,0.1,1.1-0.3,1.4c-0.4,0.3-1,0.1-1.5,0.1
	c-0.6,0-1.2,0-1.7,0c-0.3,0-0.5-0.1-0.5-0.4c0-1.6,0-3.3,0-4.9c0-0.4,0.2-0.4,0.5-0.4c4.5,0,9.1,0,13.6,0c0.3,0,0.5,0.1,0.5,0.4
	c0,1,0,2.1,0,3.1c0,0.3-0.2,0.5-0.4,0.7c-2.4,2.3-4.8,4.5-7.2,6.8c-0.2,0.2-0.4,0.3-0.6,0.7c1.3,0,2.5,0,3.7,0
	c0.2,0,0.4-0.1,0.4-0.4c0-0.3,0.1-0.5,0.1-0.8c0-0.7,0.3-0.8,0.9-0.8c0.9,0.1,1.9,0,2.8,0c0.4,0,0.5,0.1,0.5,0.5c0,1.6,0,3.2,0,4.8
	c0,0.5-0.3,0.5-0.6,0.5c-3.5,0-7,0-10.6,0c-1.1,0-2.2,0-3.3,0c-0.4,0-0.6-0.1-0.6-0.6c0-0.9,0-1.8,0-2.8c0-0.4,0.1-0.6,0.4-0.8
	c2.5-2.4,5-4.7,7.6-7.1c0.1-0.1,0.3-0.2,0.4-0.3C110.7,23.6,110.7,23.6,110.7,23.5z"/>
<path class="st1" d="M60,22c0,2.6,0,5.2,0,7.7c0,1,0.4,1.4,1.4,1.5c0.1,0,0.1,0,0.2,0c1.3,0,1.3,0,1.5,1.3c0.1,0.7,0.2,1.3,0.3,1.9
	c0.1,0.4,0,0.6-0.4,0.8c-1.8,0.5-3.6,0.7-5.5,0.3c-2-0.5-3.2-2-3.2-4.2c0-4.3,0-8.6,0-12.9c0-0.1,0-0.3,0-0.4c0-0.3-0.1-0.4-0.4-0.4
	c-1.4-0.1-1.4-0.1-1.4-1.5c0-0.7,0-1.4,0-2.2c0-0.4,0.1-0.5,0.5-0.5c2.2,0,4.4,0,6.6,0c0.4,0,0.5,0.2,0.5,0.5C60,16.6,60,19.3,60,22
	z"/>
<path class="st1" d="M134.7,25.4c0,1.7,0,3.4,0,5c0,0.5,0.2,0.7,0.7,0.7c1.1,0.1,1.1,0.1,1.1,1.3c0,0.8,0,1.6,0,2.4
	c0,0.3-0.1,0.4-0.4,0.4c-2.8,0-5.7,0-8.5,0c-0.3,0-0.4-0.1-0.4-0.4c0-1,0-2.1,0-3.1c0-0.4,0.2-0.5,0.5-0.5c1.3-0.2,1.3-0.2,1.3-1.5
	c0-1.8,0-3.6,0-5.3c0-0.4-0.1-0.5-0.5-0.5c-1.3-0.1-1.3-0.1-1.3-1.4c0-0.8,0-1.5,0-2.3c0-0.3,0.1-0.5,0.4-0.5c2.2,0,4.4,0,6.7,0
	c0.5,0,0.4,0.3,0.4,0.6C134.7,22,134.7,23.7,134.7,25.4z"/>
<path class="st1" d="M131.8,12.7c0.4,0,0.9,0,1.3,0c1,0,1.5,0.5,1.6,1.6c0,0.6,0,1.2,0,1.9c0,0.9-0.4,1.4-1.3,1.5
	c-1.1,0.1-2.2,0.1-3.3,0c-0.7-0.1-1.1-0.5-1.1-1.2c0-0.8,0-1.6,0-2.4c0-0.8,0.6-1.3,1.4-1.3c0,0,0,0,0.1,0
	C130.9,12.7,131.3,12.7,131.8,12.7z"/>
<path class="st1" d="M125,32.6c0,0.4,0,0.8,0,1.3c-0.1,0.9-0.5,1.4-1.4,1.4c-0.8,0-1.6,0-2.5,0c-0.9,0-1.4-0.5-1.4-1.4
	c0-0.8,0-1.7,0-2.5c0-0.8,0.5-1.2,1.3-1.4c0.9-0.1,1.7-0.1,2.6,0c0.9,0.1,1.3,0.5,1.3,1.4C125,31.8,125,32.2,125,32.6z"/>
</svg>
