<?xml version="1.0" encoding="utf-8"?>
<!-- Generator: Adobe Illustrator 25.2.1, SVG Export Plug-In . SVG Version: 6.00 Build 0)  -->
<svg version="1.1" id="Layer_1" xmlns="http://www.w3.org/2000/svg" xmlns:xlink="http://www.w3.org/1999/xlink" x="0px" y="0px"
	 viewBox="0 0 53.8 53.7" style="enable-background:new 0 0 53.8 53.7;" xml:space="preserve">
<style type="text/css">
	.st0{fill:#D3E7F7;}
	.st1{fill:#0155A1;}
	.st2{fill:#FBA702;}
	.st3{fill:#FCFEFF;}
	.st4{fill:#036ED4;}
	.st5{fill:#006CD3;}
	.st6{fill:#050306;}
	.st7{fill:#03B1AE;}
	.st8{fill:#00AD39;}
	.st9{fill:#FF495C;}
	.st10{fill:#017EAE;}
	.st11{fill:#CA4929;}
	.st12{fill:#F59001;}
	.st13{fill:#CDD0D2;}
	.st14{fill:#0863FF;}
	.st15{fill:#F14D02;}
	.st16{fill:#FED853;}
	.st17{fill:#2C323B;}
	.st18{fill:#EE5B65;}
	.st19{fill:#32B3E8;}
	.st20{fill:#2A8AC6;}
	.st21{fill:#D6445D;}
	.st22{fill:#960A2C;}
	.st23{fill:#010101;}
	.st24{fill:#D72B11;}
	.st25{fill:#E41231;}
	.st26{fill:#F01523;}
	.st27{fill:#93DD01;}
	.st28{fill:#249633;}
	.st29{fill:#242424;}
	.st30{fill:#C80126;}
	.st31{fill:#020202;}
	.st32{fill:#959798;}
	.st33{fill:#EE1818;}
	.st34{fill:#242021;}
	.st35{fill:#002A3B;}
	.st36{fill:#205053;}
	.st37{fill:#235153;}
	.st38{fill:#15AA9E;}
	.st39{fill:#09AC9D;}
	.st40{fill:#05716B;}
	.st41{fill:#F49200;}
	.st42{fill:#E25100;}
	.st43{fill:#0223FE;}
	.st44{fill:#04CBFE;}
	.st45{fill:#F47264;}
	.st46{fill:#F24731;}
	.st47{fill:#F8A197;}
	.st48{fill:#233240;}
	.st49{fill:#FE6D52;}
	.st50{fill:#124FFF;}
	.st51{fill:#F56D58;}
	.st52{fill:#75C4E2;}
	.st53{fill:#E0044D;}
	.st54{fill:#3B267C;}
	.st55{fill:#DD1937;}
	.st56{fill:#01B3FE;}
	.st57{fill:#454545;}
	.st58{fill:#AB56B3;}
	.st59{fill:#031A28;}
	.st60{fill:#53CD8E;}
	.st61{fill:#1B0E65;}
	.st62{fill:#060250;}
	.st63{fill:#02AA47;}
	.st64{fill:#060605;}
	.st65{fill:#221E5D;}
	.st66{fill:#F2574D;}
	.st67{fill:#FE6F05;}
	.st68{fill:#D2D1D0;}
</style>
<g>
	<path class="st0" d="M53.8,34.7C53.8,34.7,53.8,34.8,53.8,34.7c-0.2,1-0.9,1.5-1.8,1.6c-0.3,0-0.6,0-0.9,0c-0.8,0-1.7,0-2.5,0
		c-0.2,0-0.2,0-0.2-0.2c0-0.3,0-0.6,0-1c0-0.1,0-0.2,0.2-0.2c0.7,0,1.4,0,2.1,0c0.3,0,0.6,0,0.8,0c0.1,0,0.2,0,0.4-0.1
		c0.2-0.1,0.3-0.2,0.3-0.5c0-0.2-0.1-0.3-0.3-0.4c-0.1-0.1-0.3-0.1-0.4-0.1c-0.5,0-0.9,0-1.4,0c-0.3,0-0.5,0-0.7-0.1
		c-0.7-0.2-1.1-0.8-1.2-1.6c0-1.1,0.6-1.9,1.8-2.1c0.2,0,0.5-0.1,0.7-0.1c1,0,1.9,0,2.9,0c0,0,0.1,0,0.1,0c0,0.1,0,0.1-0.1,0.2
		c-0.2,0.3-0.3,0.7-0.5,1c-0.1,0.1-0.1,0.2-0.3,0.2c-0.8,0-1.6,0-2.4,0c-0.1,0-0.2,0-0.4,0c-0.3,0.1-0.4,0.3-0.4,0.5
		c0,0.2,0.2,0.4,0.4,0.5c0.1,0,0.2,0,0.3,0c0.6,0,1.1,0,1.7,0c0.4,0,0.7,0.1,1,0.4c0.3,0.3,0.5,0.6,0.6,1c0,0.1,0,0.2,0,0.3
		C53.8,34.3,53.8,34.5,53.8,34.7z"/>
	<path class="st0" d="M41.8,20.4c-0.1-0.1-0.1-0.2-0.2-0.3c-0.3-0.7-0.6-1.3-0.9-2c-0.1-0.2-0.2-0.2-0.3-0.2c-2,0-4,0-6,0
		c-0.9,0-1.8,0.3-2.6,0.8c0,0-0.1,0-0.1,0.1c0,0,0,0-0.1,0c0-0.2,0-0.5,0-0.7c0-0.2,0-0.2-0.2-0.2c-0.1,0-0.1,0-0.2,0
		c-6.2,0-12.5,0-18.7,0c-0.3,0-0.3,0-0.4,0.3c-0.2,0.5-0.4,1-0.5,1.5c-0.1,0-0.1-0.1-0.1-0.1c-0.2-0.5-0.3-1-0.5-1.5
		c-0.1-0.2-0.1-0.2-0.3-0.2c-1.3,0-2.6,0-3.8,0c-0.3,0-0.2,0-0.2,0.2c0,0.7,0,1.3,0,2c0,0.1,0,0.2,0,0.3c-0.1,0-0.1-0.1-0.1-0.1
		c-0.3-0.7-0.6-1.4-0.9-2.1c-0.1-0.2-0.2-0.3-0.4-0.2c-1,0-2,0-3,0c-0.2,0-0.3,0.1-0.3,0.2c-0.6,1.4-1.2,2.7-1.8,4.1
		c0,0.1,0,0.2-0.2,0.2c0-0.1,0-0.2,0-0.3C0,14.9,0,7.6,0,0.3C0,0,0,0,0.3,0C18,0,35.7,0,53.4,0c0.3,0,0.3,0,0.3,0.3
		c0,9.5,0,18.9,0,28.4c0,0.1,0,0.1,0,0.2c0,0.1,0,0.1-0.1,0.1c-0.1,0-0.2,0-0.2,0c-10.6,0-21.1,0-31.7,0c-0.2,0-0.4,0.1-0.5,0.3
		c-0.2,0.3-0.5,0.6-0.8,1c-0.1,0-0.1-0.1-0.2-0.1c-0.2-0.3-0.5-0.6-0.7-0.9C19.4,29,19.3,29,19.1,29c-2,0-4,0-6,0
		c-0.8,0-1.6,0-2.4,0c-0.2,0-0.2,0-0.2,0.2c0,2.7,0,5.3,0,8c0,0.2,0,0.2,0.2,0.2c2.8,0,5.6,0,8.4,0c0.2,0,0.3,0,0.3-0.2
		c0.3-0.4,0.5-0.7,0.8-1.1c0.3,0.3,0.5,0.6,0.7,1c0.2,0.2,0.3,0.3,0.6,0.3c1.6,0,3.1,0,4.7,0c0.3,0,0.3,0,0.3-0.3c0-0.5,0-1,0-1.5
		c0-0.1,0-0.2,0.2-0.2c0.5,0,1,0,1.5,0c0.3,0,0.7-0.1,1-0.2c0,0,0.1,0,0.1,0c0,0.1,0,0.2,0,0.2c0,0.6,0,1.2,0,1.8
		c0,0.2,0,0.2,0.2,0.2c1,0,2.1,0,3.1,0c0.2,0,0.2,0,0.2-0.2c0-0.3,0-0.7,0-1c0.1,0,0.1,0.1,0.2,0.1c0.3,0.3,0.5,0.6,0.8,1
		c0.1,0.1,0.2,0.2,0.4,0.2c1,0,2,0,3,0c4.8,0,9.6,0,14.3,0c0.7,0,1.3-0.1,2-0.5c0,0,0.1-0.1,0.1,0c0.1,0.1,0,0.1,0,0.2
		c0,5.5,0,10.9,0,16.4c0,0.2,0,0.2-0.2,0.2c0,0-0.1,0-0.1,0c-17.6,0-35.3,0-52.9,0c-0.4,0-0.4,0-0.4-0.4c0-8.9,0-17.7,0-26.6
		c0-0.4,0-0.4,0.4-0.4c0.6,0,1.3,0,1.9,0c0.1,0,0.2,0,0.3-0.2c0.1-0.3,0.3-0.6,0.4-1C3,25.1,3.1,25,3.2,25c0.4,0,0.7,0,1.1,0
		c0.1,0,0.2,0,0.2,0.2c0.1,0.3,0.3,0.7,0.4,1c0,0.1,0.1,0.2,0.2,0.2c0.1,0,0.1,0,0.2,0c6.5,0,13,0,19.6,0c0.4,0,0.3,0,0.3-0.4
		c0-0.3,0-0.6,0-0.9c0.1,0,0.1,0.1,0.2,0.2c0.3,0.3,0.5,0.6,0.8,1c0.1,0.1,0.2,0.2,0.3,0.2c1.7,0,3.4,0,5.1,0c0.2,0,0.2,0,0.2-0.2
		c0-0.2,0-0.4,0-0.6c0.1,0,0.1,0,0.2,0.1c0.7,0.5,1.4,0.8,2.3,0.8c1.1,0,2.2,0,3.3,0c0.3,0,0.3,0,0.4-0.2c0.1-0.3,0.2-0.6,0.4-0.9
		c0-0.1,0.1-0.2,0.2-0.2c0.4,0,0.7,0,1.1,0c0.1,0,0.2,0,0.2,0.1c0.1,0.3,0.2,0.6,0.4,0.9c0.1,0.3,0,0.3,0.4,0.3c1.2,0,2.3,0,3.5,0
		c0.5,0,0.9,0,1.4,0c0.2,0,0.2,0,0.2-0.2c0-0.4,0-0.8,0-1.2c0.1,0,0.1,0.1,0.1,0.1c0.2,0.4,0.5,0.7,0.7,1.1c0.1,0.1,0.1,0.2,0.3,0.2
		c1.1,0,2.2,0,3.3,0c0.2,0,0.2,0,0.2-0.2c0-2.7,0-5.3,0-8c0-0.2,0-0.2-0.2-0.2c-1.1,0-2.1,0-3.2,0c-0.2,0-0.2,0-0.2,0.2
		c0,0.4,0,0.8,0,1.2c-0.1,0-0.1-0.1-0.2-0.2c-0.2-0.4-0.5-0.7-0.7-1.1c-0.1-0.1-0.2-0.2-0.3-0.2c-1.1,0-2.1,0-3.2,0
		c-0.2,0-0.2,0-0.2,0.2C41.8,18.9,41.8,19.7,41.8,20.4z"/>
	<path class="st0" d="M11.7,23c0.3-0.8,0.5-1.5,0.8-2.2c0.2-0.6,0.4-1.1,0.6-1.7c0-0.2,0.1-0.2,0.3-0.2c0.7,0,1.4,0,2,0
		c0.2,0,0.2,0,0.2,0.2c0,2,0,3.9,0,5.9c0,0.2,0,0.2-0.2,0.2c-0.4,0-0.7,0-1.1,0c-0.3,0-0.3,0-0.3-0.3c0-1,0-2,0-3.1
		c0-0.4,0-0.8,0-1.2c-0.1,0.1-0.1,0.2-0.1,0.3c-0.5,1.3-1,2.7-1.4,4c-0.1,0.3,0,0.2-0.3,0.2c-0.3,0-0.6,0-0.9,0
		c-0.2,0-0.2,0-0.3-0.2c-0.4-1-0.7-2-1.1-3c-0.2-0.4-0.3-0.9-0.5-1.4c-0.1,0.1,0,0.2,0,0.3c0,1.3,0,2.6,0,3.9c0,0.1,0,0.1,0,0.2
		c0,0.1,0,0.2-0.2,0.2c-0.4,0-0.8,0-1.2,0c-0.1,0-0.2,0-0.2-0.2c0-0.1,0-0.1,0-0.2c0-1.9,0-3.8,0-5.7c0,0,0-0.1,0-0.1
		c0-0.2,0-0.2,0.2-0.2c0.7,0,1.4,0,2.1,0c0.2,0,0.2,0.1,0.3,0.2c0.4,1.2,0.8,2.4,1.3,3.5C11.6,22.8,11.6,22.9,11.7,23z"/>
	<path class="st0" d="M47.4,22.8c0-0.7,0-1.4,0-2.1c0-0.5,0-1.1,0-1.6c0-0.2,0-0.2,0.2-0.2c0.4,0,0.8,0,1.2,0c0.2,0,0.2,0,0.2,0.2
		c0,0.3,0,0.6,0,0.9c0,1.6,0,3.2,0,4.8c0,0.1,0,0.1,0,0.2c0,0.1-0.1,0.2-0.2,0.2c-0.5,0-1.1,0-1.6,0c-0.2,0-0.2-0.1-0.3-0.2
		c-0.8-1.2-1.5-2.4-2.3-3.6c-0.1-0.1-0.1-0.2-0.2-0.2c0,0.1,0,0.1,0,0.2c0,1.1,0,2.3,0,3.4c0,0.1,0,0.1,0,0.2c0,0.2,0,0.2-0.2,0.2
		c-0.4,0-0.8,0-1.2,0c-0.1,0-0.2,0-0.2-0.2c0,0,0-0.1,0-0.1c0-1.9,0-3.8,0-5.7c0-0.3,0-0.3,0.3-0.3c0.5,0,1,0,1.5,0
		c0.2,0,0.3,0.1,0.4,0.2c0.7,1.2,1.5,2.3,2.2,3.5C47.3,22.7,47.4,22.8,47.4,22.8C47.4,22.8,47.4,22.8,47.4,22.8z"/>
	<path class="st0" d="M26.7,23c0.7,0.8,1.3,1.5,2.1,2.3c-0.2,0-0.3,0-0.4,0c-0.4,0-0.9,0-1.3,0c-0.1,0-0.2,0-0.3-0.2
		c-0.5-0.6-1.1-1.2-1.6-1.9C25,23.1,24.9,23,24.7,23c-0.4,0-0.4,0-0.4,0.4c0,0.6,0,1.1,0,1.7c0,0.2,0,0.2-0.2,0.2
		c-0.4,0-0.8,0-1.2,0c-0.1,0-0.2,0-0.2-0.2c0,0,0,0,0,0c0-2,0-4,0-5.9c0-0.1,0-0.2,0.2-0.2c1.2,0,2.5,0,3.7,0
		c0.9,0.1,1.6,0.6,1.8,1.4C28.7,21.7,27.9,22.8,26.7,23C26.8,22.9,26.8,22.9,26.7,23z M25.3,21.7c0.3,0,0.5,0,0.8,0
		c0.2,0,0.4-0.1,0.5-0.2c0.3-0.3,0.3-0.7,0-0.9c-0.1-0.1-0.3-0.2-0.5-0.2c-0.6,0-1.1,0-1.7,0c-0.1,0-0.2,0-0.2,0.2c0,0.3,0,0.7,0,1
		c0,0.1,0.1,0.2,0.2,0.2C24.7,21.7,25,21.7,25.3,21.7z"/>
	<path class="st0" d="M34.4,34c0.7,0.8,1.3,1.5,2,2.3c0,0.1-0.1,0.1-0.2,0.1c-0.5,0-1,0-1.5,0c-0.1,0-0.2-0.1-0.3-0.2
		c-0.5-0.6-1.1-1.3-1.6-1.9c-0.1-0.1-0.2-0.2-0.4-0.2c-0.4,0-0.4,0-0.4,0.4c0,0.5,0,1.1,0,1.6c0,0.2,0,0.2-0.2,0.2
		c-0.4,0-0.8,0-1.2,0c-0.1,0-0.2,0-0.2-0.1c0,0,0-0.1,0-0.1c0-1.9,0-3.8,0-5.7c0-0.3,0-0.3,0.3-0.3c1.1,0,2.2,0,3.2,0
		c0.5,0,1,0.1,1.5,0.5c0.6,0.5,0.8,1.2,0.7,2c-0.2,0.8-0.7,1.2-1.4,1.4C34.5,34,34.5,34,34.4,34z M32.9,31.4c-0.3,0-0.6,0-0.8,0
		c-0.1,0-0.2,0-0.2,0.2c0,0.3,0,0.7,0,1c0,0.1,0,0.2,0.2,0.2c0.3,0,0.6,0,0.9,0c0.3,0,0.6,0,0.8,0c0.3,0,0.6-0.3,0.6-0.6
		c0-0.3-0.2-0.6-0.5-0.7c-0.1,0-0.2,0-0.3,0C33.4,31.4,33.2,31.4,32.9,31.4z"/>
	<path class="st0" d="M11.5,33.1c0-0.9,0-1.9,0-2.8c0-0.1,0-0.1,0-0.2c0-0.1,0-0.1,0.1-0.1c0.1,0,0.1,0,0.2,0c1.5,0,3.1,0,4.6,0
		c0.3,0,0.3,0,0.3,0.3c0,0.3,0,0.6,0,0.9c0,0.2,0,0.2-0.2,0.2c-1,0-1.9,0-2.9,0c-0.1,0-0.3-0.1-0.4,0c-0.1,0.1,0,0.3,0,0.4
		c0,0.2,0,0.3,0,0.5c0,0.1,0,0.1,0.1,0.1c0.1,0,0.1,0,0.2,0c1,0,1.9,0,2.9,0c0.1,0,0.1,0,0.2,0c0.1,0,0.1,0,0.1,0.1
		c0,0.4,0,0.8,0,1.1c0,0.1,0,0.1-0.1,0.1c-0.1,0-0.1,0-0.2,0c-1,0-1.9,0-2.9,0c-0.1,0-0.1,0-0.2,0c-0.1,0-0.1,0-0.1,0.1
		c0,0.3,0,0.6,0,0.9c0,0.1,0,0.1,0.1,0.1c0.1,0,0.1,0,0.2,0c1,0,2,0,3,0c0.1,0,0.1,0,0.2,0c0.1,0,0.1,0,0.1,0.1c0,0.4,0,0.8,0,1.1
		c0,0.1,0,0.1-0.1,0.1c-0.1,0-0.1,0-0.2,0c-1.5,0-3.1,0-4.6,0c0,0,0,0,0,0c-0.3,0-0.3,0-0.3-0.3C11.5,35.1,11.5,34.1,11.5,33.1z"/>
	<path class="st0" d="M36.7,33.2c0-1,0-1.9,0-2.9c0-0.1,0-0.1,0-0.2c0-0.1,0-0.1,0.1-0.1c0,0,0.1,0,0.1,0c1.5,0,3.1,0,4.6,0
		c0,0,0.1,0,0.1,0c0.1,0,0.1,0,0.1,0.1c0,0.4,0,0.8,0,1.1c0,0.1-0.1,0.1-0.2,0.1c-0.7,0-1.5,0-2.2,0c-0.3,0-0.7,0-1,0
		c-0.1,0-0.2,0.1-0.2,0.2c0,0.2,0,0.5,0,0.7c0,0.1,0.1,0.2,0.2,0.2c0.4,0,0.7,0,1.1,0c0.7,0,1.3,0,2,0c0.2,0,0.2,0,0.2,0.2
		c0,0.3,0,0.6,0,0.9c0,0.2,0,0.2-0.2,0.2c-1,0-2,0-3,0c-0.3,0-0.3,0-0.3,0.3c0,0.2,0,0.4,0,0.7c0,0.1,0,0.2,0.2,0.2
		c0.4,0,0.8,0,1.2,0c0.7,0,1.3,0,2,0c0.2,0,0.2,0,0.2,0.2c0,0.3,0,0.7,0,1c0,0.1,0,0.2-0.1,0.2c-0.1,0-0.1,0-0.2,0c-1.5,0-3,0-4.6,0
		c-0.3,0-0.3,0-0.3-0.3C36.7,35.1,36.7,34.1,36.7,33.2z"/>
	<path class="st0" d="M16.7,22.1c0-1,0-2,0-2.9c0-0.2,0-0.2,0.2-0.2c1.6,0,3.1,0,4.7,0c0.2,0,0.2,0,0.2,0.2c0,0.3,0,0.6,0,1
		c0,0.2,0,0.2-0.2,0.2c-1,0-2,0-2.9,0c-0.4,0-0.4,0-0.4,0.4c0,0.2,0,0.3,0,0.5c0,0.1,0,0.2,0.2,0.2c0.3,0,0.5,0,0.8,0
		c0.8,0,1.6,0,2.3,0c0.2,0,0.2,0,0.2,0.2c0,0.3,0,0.6,0,0.9c0,0.2,0,0.2-0.2,0.2c-0.9,0-1.9,0-2.8,0c0,0-0.1,0-0.1,0
		c-0.3,0-0.3,0-0.3,0.3c0,0.2,0,0.5,0,0.7c0,0.1,0,0.1,0.1,0.1c0.1,0,0.2,0,0.2,0c1,0,1.9,0,2.9,0c0.1,0,0.1,0,0.2,0
		c0.1,0,0.1,0,0.1,0.1c0,0.4,0,0.8,0,1.2c0,0.1,0,0.1-0.1,0.1c-0.1,0-0.1,0-0.2,0c-1.5,0-3.1,0-4.6,0c-0.3,0-0.3,0-0.3-0.3
		C16.7,24,16.7,23.1,16.7,22.1z"/>
	<path class="st0" d="M7.5,25.3c-0.5,0-1.1,0-1.6,0c-0.1,0-0.1-0.1-0.2-0.2c-0.1-0.3-0.2-0.6-0.4-0.9C5.2,24.1,5.2,24,5,24
		c-0.8,0-1.7,0-2.5,0c-0.2,0-0.2,0.1-0.3,0.2c-0.1,0.3-0.2,0.6-0.4,0.9c0,0.1-0.1,0.2-0.2,0.2c-0.5,0-1,0-1.6,0c0-0.1,0-0.1,0-0.2
		c0.9-2,1.7-4,2.5-5.9C2.7,19,2.8,19,3,19c0.5,0,1.1,0,1.6,0c0.2,0,0.2,0.1,0.3,0.2c0.8,2,1.7,4,2.5,5.9C7.5,25.1,7.5,25.2,7.5,25.3
		z M3.7,20.4c-0.3,0.8-0.6,1.5-0.9,2.2c0.6,0,1.2,0,1.8,0C4.3,21.9,4.1,21.2,3.7,20.4z"/>
	<path class="st0" d="M42.7,25.3c-0.2,0-0.5,0-0.7,0c-0.3,0-0.5,0-0.8,0c-0.3,0-0.2,0-0.3-0.2c-0.1-0.3-0.2-0.6-0.3-0.9
		c0-0.1-0.1-0.2-0.2-0.2c-0.9,0-1.7,0-2.6,0c-0.1,0-0.2,0-0.2,0.2c-0.1,0.3-0.3,0.6-0.4,0.9c0,0.1-0.1,0.2-0.2,0.2
		c-0.5,0-0.9,0-1.4,0c-0.2,0-0.2,0-0.1-0.2c0.4-0.9,0.8-1.8,1.1-2.7c0.5-1.1,0.9-2.2,1.4-3.2c0.1-0.2,0.2-0.2,0.3-0.2
		c0.5,0,1,0,1.6,0c0.2,0,0.3,0,0.3,0.2c0.8,2,1.7,3.9,2.5,5.9C42.6,25.1,42.7,25.2,42.7,25.3z M39.8,22.6c-0.3-0.7-0.6-1.4-0.9-2.2
		c-0.3,0.8-0.6,1.5-0.9,2.2C38.7,22.6,39.2,22.6,39.8,22.6z"/>
	<path class="st0" d="M47.9,30c-0.2,0.3-0.3,0.6-0.4,1c-0.1,0.1-0.1,0.3-0.2,0.4c-0.1,0.1-0.3,0-0.5,0c-0.7,0-1.4,0-2.1,0
		c-0.1,0-0.2,0-0.4,0C44.1,31.5,44,31.7,44,32c0,0.3,0.2,0.4,0.4,0.5c0.1,0,0.2,0,0.3,0c0.6,0,1.1,0,1.7,0c0.2,0,0.5,0.1,0.7,0.2
		c0.6,0.3,0.9,0.8,0.9,1.5c0,0.2,0,0.5-0.1,0.7c-0.2,0.8-0.8,1.4-1.7,1.4c-0.3,0-0.5,0-0.8,0c-0.9,0-1.8,0-2.6,0
		c-0.2,0-0.2,0-0.2-0.2c0-0.3,0-0.6,0-1c0-0.2,0-0.2,0.2-0.2c1,0,1.9,0,2.9,0c0.1,0,0.3,0,0.4,0c0.2-0.1,0.4-0.2,0.4-0.5
		c0-0.2-0.1-0.4-0.3-0.5c-0.1,0-0.2-0.1-0.4-0.1c-0.5,0-0.9,0-1.4,0c-0.3,0-0.5,0-0.8-0.1c-0.7-0.2-1-0.7-1.1-1.4c0-0.2,0-0.5,0-0.7
		c0.1-0.7,0.5-1.1,1.2-1.4c0.3-0.1,0.6-0.2,0.9-0.2C45.7,30,46.8,30,47.9,30z"/>
	<path class="st0" d="M23.9,33.1c0-1,0-1.9,0-2.9c0-0.2,0-0.2,0.2-0.2c1.1,0,2.2,0,3.3,0c0.2,0,0.4,0,0.6,0.1
		c1.3,0.3,1.7,1.3,1.6,2.3c-0.1,1.3-1.2,1.8-2.1,1.9c-0.5,0-1.1,0-1.6,0c-0.1,0-0.1,0-0.2,0c-0.2,0-0.2,0-0.2,0.2c0,0.4,0,0.7,0,1.1
		c0,0.2,0,0.3,0,0.5c0,0.1,0,0.1-0.1,0.1c-0.5,0-0.9,0-1.4,0c-0.1,0-0.1,0-0.1-0.1c0-0.1,0-0.1,0-0.2C23.9,35,23.9,34.1,23.9,33.1z
		 M26.5,32.9C26.5,32.9,26.5,32.9,26.5,32.9c0.3,0,0.5,0,0.8,0c0.5,0,0.8-0.3,0.7-0.8c0-0.4-0.3-0.6-0.7-0.7c-0.5,0-1.1,0-1.6,0
		c-0.1,0-0.2,0-0.2,0.2c0,0.4,0,0.8,0,1.2c0,0.1,0.1,0.2,0.2,0.2C26,32.9,26.2,32.9,26.5,32.9z"/>
	<path class="st0" d="M23.7,30c0,0.1-0.1,0.2-0.1,0.2c-0.7,0.9-1.5,1.8-2.2,2.7c-0.2,0.2-0.2,0.1,0,0.3c0.7,0.9,1.4,1.8,2.1,2.7
		c0.1,0.1,0.1,0.2,0.2,0.2c0,0.1-0.1,0-0.1,0c-0.5,0-1.1,0-1.6,0c-0.1,0-0.2-0.1-0.3-0.2c-0.4-0.5-0.8-1-1.2-1.5
		c-0.1-0.1-0.1-0.1-0.2-0.2c-0.1,0.1-0.1,0.1-0.2,0.2c-0.4,0.5-0.8,1-1.1,1.5c-0.1,0.1-0.2,0.2-0.3,0.2c-0.5,0-1,0-1.5,0
		c-0.1,0-0.1,0-0.2,0c0.1-0.1,0.2-0.2,0.2-0.3c0.7-0.9,1.4-1.7,2.1-2.6c0.2-0.2,0.2-0.2,0-0.3c-0.7-0.9-1.5-1.9-2.2-2.8
		c-0.1-0.1-0.1-0.1-0.2-0.2c0.1,0,0.2,0,0.2,0c0.5,0,1,0,1.5,0c0.2,0,0.3,0.1,0.3,0.2c0.4,0.5,0.8,1,1.2,1.6
		c0.1,0.1,0.1,0.2,0.2,0.2c0.1,0,0.1-0.1,0.2-0.2c0.4-0.5,0.8-1,1.2-1.6c0.1-0.1,0.2-0.2,0.3-0.2C22.6,30,23.1,30,23.7,30z"/>
	<path class="st0" d="M35.1,23.9c0,0.1,0,0.2,0,0.2c-0.2,0.3-0.3,0.7-0.5,1c-0.1,0.1-0.1,0.2-0.3,0.2c-1.4,0-2.3-0.7-2.7-2
		c-0.2-0.8-0.2-1.6,0-2.3c0.3-1,1-1.7,2.1-1.9C34,19,34.2,19,34.5,19c0.5,0,1.1,0,1.6,0c0.2,0,0.2,0,0.2,0.2c0,0.4,0,0.7,0,1.1
		c0,0.1,0,0.2-0.2,0.2c-0.5,0-1,0-1.5,0c-0.9,0-1.4,0.6-1.5,1.3c0,0.3,0,0.5,0,0.8c0.1,0.8,0.6,1.2,1.4,1.3
		C34.7,23.9,34.9,23.9,35.1,23.9z"/>
	<path class="st0" d="M29.1,22.1c0-1,0-1.9,0-2.9c0-0.1,0-0.1,0-0.2c0-0.1,0-0.2,0.2-0.2c0.4,0,0.9,0,1.3,0c0.1,0,0.1,0,0.1,0.1
		c0,0.1,0,0.1,0,0.2c0,1.9,0,3.8,0,5.7c0,0.3,0,0.3-0.3,0.3c-0.4,0-0.7,0-1.1,0c-0.2,0-0.2,0-0.2-0.2C29.1,24.1,29.1,23.1,29.1,22.1
		z"/>
</g>
</svg>
