<?xml version="1.0" encoding="utf-8"?>
<!-- Generator: Adobe Illustrator 25.2.1, SVG Export Plug-In . SVG Version: 6.00 Build 0)  -->
<svg version="1.1" id="Layer_1" xmlns="http://www.w3.org/2000/svg" xmlns:xlink="http://www.w3.org/1999/xlink" x="0px" y="0px"
	 viewBox="0 0 95 21" style="enable-background:new 0 0 95 21;" xml:space="preserve">
<style type="text/css">
	.st0{fill:#D3E7F7;}
	.st1{fill:#0155A1;}
	.st2{fill:#FBA702;}
	.st3{fill:#FCFEFF;}
	.st4{fill:#036ED4;}
	.st5{fill:#006CD3;}
	.st6{fill:#050306;}
	.st7{fill:#03B1AE;}
	.st8{fill:#00AD39;}
	.st9{fill:#FF495C;}
	.st10{fill:#017EAE;}
	.st11{fill:#CA4929;}
	.st12{fill:#F59001;}
	.st13{fill:#CDD0D2;}
	.st14{fill:#0863FF;}
	.st15{fill:#F14D02;}
	.st16{fill:#FED853;}
	.st17{fill:#2C323B;}
	.st18{fill:#EE5B65;}
	.st19{fill:#32B3E8;}
	.st20{fill:#2A8AC6;}
	.st21{fill:#D6445D;}
	.st22{fill:#960A2C;}
	.st23{fill:#010101;}
	.st24{fill:#D72B11;}
	.st25{fill:#E41231;}
	.st26{fill:#F01523;}
	.st27{fill:#93DD01;}
	.st28{fill:#249633;}
	.st29{fill:#242424;}
	.st30{fill:#C80126;}
	.st31{fill:#020202;}
	.st32{fill:#959798;}
	.st33{fill:#EE1818;}
	.st34{fill:#242021;}
	.st35{fill:#002A3B;}
	.st36{fill:#205053;}
	.st37{fill:#235153;}
	.st38{fill:#15AA9E;}
	.st39{fill:#09AC9D;}
	.st40{fill:#05716B;}
	.st41{fill:#F49200;}
	.st42{fill:#E25100;}
	.st43{fill:#0223FE;}
	.st44{fill:#04CBFE;}
	.st45{fill:#F47264;}
	.st46{fill:#F24731;}
	.st47{fill:#F8A197;}
	.st48{fill:#233240;}
	.st49{fill:#FE6D52;}
	.st50{fill:#124FFF;}
	.st51{fill:#F56D58;}
	.st52{fill:#75C4E2;}
	.st53{fill:#E0044D;}
	.st54{fill:#3B267C;}
	.st55{fill:#DD1937;}
	.st56{fill:#01B3FE;}
	.st57{fill:#454545;}
	.st58{fill:#AB56B3;}
	.st59{fill:#031A28;}
	.st60{fill:#53CD8E;}
	.st61{fill:#1B0E65;}
	.st62{fill:#060250;}
	.st63{fill:#02AA47;}
	.st64{fill:#060605;}
	.st65{fill:#221E5D;}
	.st66{fill:#F2574D;}
	.st67{fill:#FE6F05;}
	.st68{fill:#D2D1D0;}
</style>
<g>
	<path class="st65" d="M32.3,10.3c1.2,0.2,2.1,0.7,2.4,1.8c0.4,1.2,0.3,2.3-0.5,3.3c-0.6,0.7-1.4,1-2.2,1.2c-0.5,0.1-1,0.1-1.5,0.1
		c-1.7,0-3.4,0-5.1,0c-0.2,0-0.2-0.1-0.2-0.2c0-4,0-8,0-12c0-0.2,0.1-0.2,0.2-0.2c1.6,0,3.1,0,4.7,0c0.8,0,1.6,0.2,2.3,0.6
		c1,0.5,1.5,1.4,1.6,2.5c0,0.9-0.1,1.7-0.7,2.3C33,9.9,32.7,10.1,32.3,10.3z M29.1,15c0.5,0,0.9,0,1.4,0c0.4,0,0.7,0,1.1-0.1
		c0.4-0.1,0.8-0.3,1-0.6c0.8-1.1,0.2-2.6-1.1-2.9c-0.2,0-0.3-0.1-0.5-0.1c-1.3-0.1-2.5,0-3.8-0.1c-0.1,0-0.2,0.1-0.2,0.2
		c0,1.2,0,2.3,0,3.5c0,0.1,0.1,0.2,0.2,0.2C27.9,15,28.5,15,29.1,15z M27.1,7.7c0,0.5,0,1.1,0,1.6c0,0.1,0,0.2,0.1,0.2
		c1,0,2,0.1,3-0.1c0.6-0.1,1.1-0.2,1.4-0.7c0.7-1,0.1-2.4-1.1-2.7C30.5,6,30.3,6,30.1,6c-1,0-1.9,0-2.9,0c-0.1,0-0.2,0.1-0.2,0.2
		C27.1,6.7,27.1,7.2,27.1,7.7z"/>
	<path class="st65" d="M63.2,9.8c0.1,0,0.1-0.1,0.1-0.1C64,8.6,65,8.2,66.3,8.2c0.8,0,1.5,0.2,2.1,0.8c0.6,0.6,0.9,1.3,0.9,2.1
		c0.1,0.7,0,1.4,0,2.1c0,1.1,0,2.2,0,3.3c0,0.2,0,0.2-0.2,0.2c-0.5,0-0.9,0-1.4,0c-0.2,0-0.2-0.1-0.2-0.3c0-1.4,0-2.8,0-4.3
		c0-0.3,0-0.7-0.1-1c-0.2-0.7-0.5-1.2-1.2-1.3c-0.8-0.2-1.5,0-2,0.7c-0.4,0.4-0.5,1-0.5,1.5c0,1.5,0,2.9,0,4.4
		c0,0.2-0.1,0.3-0.3,0.2c-0.5,0-0.9,0-1.4,0c-0.2,0-0.2-0.1-0.2-0.2c0-1.5,0-3.1,0-4.6c0-0.2,0-0.5-0.1-0.7c-0.3-1.3-1.7-1.7-2.8-1
		c-0.7,0.5-0.9,1.1-0.9,1.9c0,1.5,0,2.9,0,4.4c0,0.2,0,0.3-0.3,0.3c-0.4,0-0.9,0-1.3,0c-0.2,0-0.3,0-0.3-0.3c0-2.6,0-5.2,0-7.8
		c0,0,0-0.1,0-0.1c0-0.1,0-0.2,0.2-0.2c0.5,0,0.9,0,1.4,0c0.1,0,0.2,0.1,0.2,0.2c0,0.4,0.1,0.7,0.1,1.2c0.6-1.1,1.5-1.6,2.7-1.6
		C61.8,8.2,62.7,8.7,63.2,9.8z"/>
	<path class="st65" d="M52.6,9.6c0-0.3,0.1-0.7,0.1-1c0-0.1,0-0.2,0.2-0.2c0.5,0,0.9,0,1.4,0c0.1,0,0.2,0.1,0.2,0.2c0,2.7,0,5.3,0,8
		c0,0.1,0,0.2-0.2,0.2c-0.5,0-0.9,0-1.4,0c-0.1,0-0.2,0-0.2-0.2c0-0.3-0.1-0.7-0.1-1c0,0,0,0-0.1,0c-0.6,1-1.6,1.4-2.7,1.4
		c-2.2,0.1-4-1.7-4.2-3.8c-0.1-1.4,0.2-2.6,1.2-3.7c1.2-1.4,3.5-1.7,5-0.7C52.1,9,52.4,9.2,52.6,9.6z M52.7,12.5c0-0.1,0-0.1,0-0.2
		c-0.1-1.7-1.7-2.9-3.3-2.3c-1.1,0.3-1.7,1.2-1.8,2.3c-0.2,1.8,1.1,3.3,3.1,2.9C51.9,15,52.7,13.9,52.7,12.5z"/>
	<path class="st65" d="M41.1,13.1c-1,0-2.1,0-3.1,0c-0.2,0-0.2,0-0.2,0.2c0.3,1.3,1.1,2,2.5,2c0.5,0,1-0.1,1.5-0.3
		c0.4-0.2,0.7-0.4,0.8-0.8c0-0.1,0.1-0.1,0.2-0.1c0.5,0,0.9,0,1.4,0c0.2,0,0.2,0.1,0.2,0.2c-0.3,0.9-0.9,1.6-1.7,2
		c-1.5,0.7-3,0.7-4.5,0c-1.3-0.6-2-1.8-2.2-3.2c-0.2-1.5,0.2-2.8,1.2-3.9c0.7-0.7,1.5-1,2.4-1.1c1-0.1,2,0,2.9,0.5
		c1.2,0.7,1.9,1.8,2,3.2c0,0.3,0,0.7,0,1c0,0.2-0.1,0.2-0.2,0.2C43.3,13.1,42.2,13.1,41.1,13.1z M40.2,11.8c0.7,0,1.5,0,2.2,0
		c0.1,0,0.2,0,0.2-0.2c-0.1-0.5-0.3-0.9-0.6-1.3c-0.5-0.6-1.2-0.7-1.9-0.6c-1.2,0.1-2,0.8-2.2,1.9c0,0.2,0,0.2,0.2,0.2
		C38.7,11.8,39.5,11.8,40.2,11.8z"/>
	<path class="st65" d="M78.8,14.1c-0.2,1-0.8,1.7-1.6,2.2c-1.5,0.9-4.2,0.9-5.7-0.7c-0.9-0.9-1.2-2-1.1-3.3c0.1-1.6,0.7-2.9,2.2-3.7
		c1.6-0.8,4.1-0.7,5.4,0.9c0.8,1,1.1,2.1,1,3.3c0,0.2-0.1,0.3-0.3,0.3c-2.1,0-4.1,0-6.2,0c-0.2,0-0.3,0-0.2,0.3c0.2,1.2,1.1,2,2.4,2
		c0.5,0,1.1,0,1.6-0.3c0.4-0.2,0.7-0.4,0.8-0.8c0-0.1,0-0.1,0.2-0.1C77.7,14.1,78.2,14.1,78.8,14.1z M74.6,11.8c0.7,0,1.5,0,2.2,0
		c0.2,0,0.2-0.1,0.2-0.2c-0.2-1-0.8-1.7-1.8-1.8c-1.4-0.2-2.5,0.3-2.9,1.8c0,0.2,0,0.3,0.2,0.2C73.2,11.8,73.9,11.8,74.6,11.8z"/>
	<path class="st65" d="M90.5,14.5c0.4-0.9,0.7-1.8,1.1-2.7c0.5-1.1,0.9-2.2,1.3-3.3c0.1-0.1,0.1-0.2,0.3-0.2c0.5,0,1.1,0,1.6,0
		c0.2,0,0.2,0,0.2,0.2c-1,2.2-1.9,4.4-2.9,6.6c-0.8,1.7-1.5,3.4-2.3,5.2c-0.1,0.1-0.1,0.2-0.3,0.2c-0.6,0-1.2,0-1.8,0
		c0.2-0.4,0.4-0.8,0.5-1.2c0.4-0.9,0.8-1.8,1.2-2.7c0.1-0.2,0.1-0.3,0-0.5c-1.1-2.5-2.2-5.1-3.4-7.6c-0.1-0.2,0-0.2,0.2-0.2
		c0.5,0,1,0,1.5,0c0.2,0,0.3,0,0.3,0.2c0.8,1.9,1.6,3.8,2.3,5.7C90.5,14.3,90.5,14.4,90.5,14.5z"/>
	<path class="st66" d="M2.2,3.8c0.3-0.2,0.7-0.4,1.1-0.6c0.5-0.3,1.1-0.6,1.6-0.9c0.1-0.1,0.2-0.1,0.3,0c2.6,1.5,5.3,3,7.9,4.6
		c0.7,0.4,0.9,1.3,0.5,1.9c-0.4,0.7-1.2,0.9-1.9,0.6C10.5,8.6,9.2,7.9,8,7.2C6.1,6.1,4.3,5,2.4,4C2.3,3.9,2.3,3.9,2.2,3.8z"/>
	<path class="st66" d="M19.2,7.6c0,1.1,0,2.1,0,3.2c0,0.1-0.1,0.2-0.2,0.2c-2.3,1.3-4.6,2.6-6.8,3.9c-0.3,0.2-0.6,0.4-1,0.6
		c-0.7,0.4-1.6,0.2-2-0.5c-0.4-0.7-0.2-1.6,0.5-2c3.1-1.8,6.2-3.6,9.3-5.4C19.1,7.7,19.1,7.7,19.2,7.6z"/>
	<path class="st66" d="M7.4,20.4c-0.7-0.4-1.3-0.7-1.9-1.1c0,0,0,0,0,0c-0.3-0.2-0.7-0.3-0.9-0.6c-0.1-0.3,0-0.7,0-1
		c0-2.7,0-5.5,0-8.2c0-0.7,0.5-1.3,1.2-1.4C6.5,8,7.2,8.5,7.4,9.2c0,0.1,0,0.3,0,0.4c0,3.5,0,7.1,0,10.6C7.4,20.3,7.4,20.3,7.4,20.4
		z"/>
	<path class="st66" d="M6.7,1.2c0.6-0.3,1.2-0.7,1.7-1c0.9-0.4,1.8-0.3,2.6,0.1c2.2,1.2,4.4,2.5,6.5,3.8c0.7,0.4,1,1.3,0.6,2
		c-0.4,0.7-1.3,0.9-2,0.5c-1.3-0.7-2.5-1.4-3.8-2.2c-1.8-1-3.6-2.1-5.4-3.1C6.9,1.3,6.8,1.3,6.7,1.2z"/>
	<path class="st66" d="M19.2,12.9c0,0.7,0.1,1.5-0.1,2.2c-0.1,0.8-0.6,1.5-1.3,1.9c-2.2,1.3-4.4,2.6-6.6,3.8c-0.7,0.4-1.6,0.1-2-0.5
		c-0.4-0.7-0.2-1.6,0.5-2c3.1-1.8,6.2-3.6,9.4-5.4C19.1,12.9,19.1,12.9,19.2,12.9z"/>
	<path class="st66" d="M2.9,17.8c-0.7-0.4-1.4-0.7-2-1.2C0.3,16,0,15.3,0,14.4C0,12,0,9.5,0,7c0-0.8,0.5-1.4,1.2-1.5
		c0.7-0.1,1.4,0.3,1.6,0.9c0.1,0.1,0.1,0.3,0.1,0.5c0,3.6,0,7.2,0,10.8C2.9,17.7,2.9,17.7,2.9,17.8z"/>
	<path class="st65" d="M81.9,9.9c0.4-0.7,0.9-1.3,1.7-1.6c0.5-0.2,1.1-0.2,1.6-0.1c0.2,0,0.2,0.1,0.2,0.3c0,0.4,0,0.9,0,1.3
		c0,0.2-0.1,0.2-0.2,0.2c-0.4-0.1-0.9-0.1-1.3,0c-1,0.2-1.5,0.9-1.7,1.9C82,12.3,82,12.7,82,13.1c0,1.2,0,2.3,0,3.5
		c0,0.2,0,0.2-0.2,0.2c-0.5,0-1,0-1.4,0c-0.2,0-0.2,0-0.2-0.2c0-2.7,0-5.3,0-8c0-0.2,0.1-0.2,0.2-0.2c0.4,0,0.9,0,1.3,0
		c0.2,0,0.2,0.1,0.2,0.2C81.8,9,81.9,9.5,81.9,9.9z"/>
</g>
</svg>
