<?xml version="1.0" encoding="utf-8"?>
<!-- Generator: Adobe Illustrator 25.2.1, SVG Export Plug-In . SVG Version: 6.00 Build 0)  -->
<svg version="1.1" id="Layer_1" xmlns="http://www.w3.org/2000/svg" xmlns:xlink="http://www.w3.org/1999/xlink" x="0px" y="0px"
	 viewBox="0 0 61.3 29.2" style="enable-background:new 0 0 61.3 29.2;" xml:space="preserve">
<style type="text/css">
	.st0{fill:#D3E7F7;}
	.st1{fill:#0155A1;}
	.st2{fill:#FBA702;}
	.st3{fill:#FCFEFF;}
	.st4{fill:#036ED4;}
	.st5{fill:#006CD3;}
	.st6{fill:#050306;}
	.st7{fill:#03B1AE;}
	.st8{fill:#00AD39;}
	.st9{fill:#FF495C;}
	.st10{fill:#017EAE;}
	.st11{fill:#CA4929;}
	.st12{fill:#F59001;}
	.st13{fill:#CDD0D2;}
	.st14{fill:#0863FF;}
	.st15{fill:#F14D02;}
	.st16{fill:#FED853;}
	.st17{fill:#2C323B;}
	.st18{fill:#EE5B65;}
	.st19{fill:#32B3E8;}
	.st20{fill:#2A8AC6;}
	.st21{fill:#D6445D;}
	.st22{fill:#960A2C;}
	.st23{fill:#010101;}
	.st24{fill:#D72B11;}
	.st25{fill:#E41231;}
	.st26{fill:#F01523;}
	.st27{fill:#93DD01;}
	.st28{fill:#249633;}
	.st29{fill:#242424;}
	.st30{fill:#C80126;}
	.st31{fill:#020202;}
	.st32{fill:#959798;}
	.st33{fill:#EE1818;}
	.st34{fill:#242021;}
	.st35{fill:#002A3B;}
	.st36{fill:#205053;}
	.st37{fill:#235153;}
	.st38{fill:#15AA9E;}
	.st39{fill:#09AC9D;}
	.st40{fill:#05716B;}
	.st41{fill:#F49200;}
	.st42{fill:#E25100;}
	.st43{fill:#0223FE;}
	.st44{fill:#04CBFE;}
	.st45{fill:#F47264;}
	.st46{fill:#F24731;}
	.st47{fill:#F8A197;}
	.st48{fill:#233240;}
	.st49{fill:#FE6D52;}
	.st50{fill:#124FFF;}
	.st51{fill:#F56D58;}
	.st52{fill:#75C4E2;}
	.st53{fill:#E0044D;}
	.st54{fill:#3B267C;}
	.st55{fill:#DD1937;}
	.st56{fill:#01B3FE;}
	.st57{fill:#454545;}
	.st58{fill:#AB56B3;}
	.st59{fill:#031A28;}
	.st60{fill:#53CD8E;}
	.st61{fill:#1B0E65;}
	.st62{fill:#060250;}
	.st63{fill:#02AA47;}
	.st64{fill:#060605;}
	.st65{fill:#221E5D;}
	.st66{fill:#F2574D;}
	.st67{fill:#FE6F05;}
	.st68{fill:#D2D1D0;}
</style>
<g>
	<path class="st0" d="M26.7,0c0,4.3,0,8.7,0,13c-0.9,0-1.8,0-2.7,0c0-3,0-6.1,0-9.1c0,0,0,0,0,0c0,0.1-0.1,0.1-0.1,0.2
		C22.9,7,22,9.9,21,12.8c-0.1,0.2-0.1,0.2-0.3,0.2c-0.6,0-1.3,0-1.9,0c-0.2,0-0.2,0-0.3-0.2c-1-2.9-1.9-5.9-2.9-8.8
		c0-0.1,0-0.1-0.1-0.2c0,3,0,6.1,0,9.1c-0.9,0-1.8,0-2.6,0c0-0.1,0-0.1,0-0.2c0-4.3,0-8.5,0-12.8c0,0,0,0,0,0c1.3,0,2.5,0,3.8,0
		c0,0.1,0.1,0.1,0.1,0.2c1,2.9,1.9,5.9,2.9,8.8c0.1,0.2,0.1,0.4,0.2,0.6c0-0.1,0.1-0.2,0.1-0.2c0.7-2.2,1.4-4.4,2.2-6.6
		C22.4,1.9,22.7,0.9,23,0C24.2,0,25.5,0,26.7,0z"/>
	<path class="st0" d="M45.1,0c-0.4,1.8-0.9,3.7-1.3,5.5c-0.6,2.4-1.2,4.9-1.8,7.3c0,0.2-0.1,0.2-0.3,0.2c-0.9,0-1.8,0-2.6,0
		c-0.2,0-0.2-0.1-0.3-0.2c-0.7-2.9-1.5-5.9-2.2-8.8c0,0,0-0.1-0.1-0.2c-0.1,0.5-0.2,0.9-0.4,1.4c-0.7,2.5-1.3,5.1-2,7.6
		c0,0.2-0.1,0.2-0.3,0.2c-0.9,0-1.8,0-2.7,0c-0.2,0-0.2,0-0.3-0.2C30,8.6,29,4.3,28.1,0c0,0,0,0,0,0c1,0,2,0,3,0c0,0.1,0,0.1,0,0.2
		c0.5,2.5,1,5.1,1.6,7.6c0.1,0.5,0.2,1,0.3,1.6c0-0.1,0-0.1,0.1-0.2C33.5,7,34,4.8,34.6,2.6C34.8,1.7,35,0.9,35.2,0
		c0.9,0,1.9,0,2.8,0c0,0.1,0,0.1,0,0.2c0.6,2.7,1.3,5.4,1.9,8c0.1,0.4,0.2,0.7,0.3,1.1c0,0,0,0,0,0c0.7-3.1,1.3-6.2,2-9.3
		C43.2,0,44.1,0,45.1,0z"/>
	<path class="st0" d="M7,0c0.4,0.1,0.8,0.1,1.3,0.2C8.9,0.3,9.6,0.5,10.1,1c0.9,0.8,1.1,1.8,1,2.9c-0.1,1-0.7,1.8-1.6,2.3
		C9.6,6.2,9.8,6.3,10,6.4c1,0.5,1.4,1.4,1.5,2.5c0,0.7,0,1.4-0.4,2c-0.4,0.9-1.2,1.4-2.1,1.7c-1,0.3-2,0.4-3,0.4c-1.8,0-3.6,0-5.4,0
		c-0.1,0-0.1,0-0.2,0c0-4.4,0-8.7,0-13C2.6,0,4.8,0,7,0z M3.2,10.8c0.1,0,0.1,0,0.2,0c0.9,0,1.9,0,2.8,0c0.4,0,0.7,0,1.1-0.1
		c0.6-0.1,1.1-0.4,1.3-1.1c0-0.2,0.1-0.5,0-0.8C8.6,8.1,8.2,7.7,7.5,7.5C7.2,7.4,6.9,7.4,6.7,7.4c-1.1,0-2.2,0-3.3,0
		c0,0-0.1,0-0.1,0C3.2,8.5,3.2,9.7,3.2,10.8z M3.2,5.1c0.9,0,1.7,0,2.5,0c0.4,0,0.8,0,1.2,0C7.7,5,8.2,4.6,8.3,3.9
		C8.4,3.1,8,2.5,7.1,2.3c-0.3,0-0.5-0.1-0.8-0.1c-1,0-1.9,0-2.9,0c-0.1,0-0.1,0-0.2,0C3.2,3.2,3.2,4.2,3.2,5.1z"/>
	<path class="st0" d="M0,21.8c0.1-0.4,0.1-0.8,0.2-1.2c0.3-1.7,1.1-3.2,2.6-4.2c0.8-0.5,1.6-0.8,2.5-0.9c1.1-0.1,2.2-0.1,3.2,0.2
		c1.5,0.4,2.4,1.4,3,2.8c0.1,0.3,0.2,0.7,0.4,1c-0.9,0.2-1.8,0.4-2.6,0.6c-0.1-0.3-0.2-0.6-0.4-0.8c-0.5-0.9-1.2-1.4-2.2-1.5
		c-1-0.1-2,0.1-2.7,0.9c-0.4,0.4-0.7,0.9-0.8,1.5c-0.4,1.4-0.4,2.8,0,4.3c0.3,1,0.9,1.9,2,2.2c1.1,0.3,2.2,0.2,3.2-0.5
		c0.5-0.4,0.8-0.9,0.8-1.6c0-0.2,0-0.4,0-0.6c-0.7,0-1.4,0-2.1,0c0-0.7,0-1.3,0-2c1.6,0,3.2,0,4.8,0c0,2.3,0,4.6,0,6.9
		c-0.6,0-1.2,0-1.8,0C10,28.5,9.9,28,9.8,27.6c-0.1,0.1-0.2,0.2-0.2,0.2C8.9,28.6,8,29,6.9,29.1c-1.1,0.1-2.2,0.1-3.2-0.3
		c-1.6-0.6-2.7-1.7-3.3-3.3c-0.3-0.7-0.4-1.4-0.4-2.2c0-0.1,0-0.1,0-0.2C0,22.7,0,22.3,0,21.8z"/>
	<path class="st0" d="M21.7,23.4c0.9,1.9,1.9,3.7,2.8,5.5c-0.1,0-0.1,0-0.2,0c-0.9,0-1.9,0-2.8,0c-0.1,0-0.2,0-0.3-0.2
		c-0.7-1.6-1.5-3.2-2.2-4.7c-0.1-0.1-0.1-0.2-0.3-0.2c-0.8,0-1.6,0-2.4,0c-0.1,0-0.1,0-0.2,0c0,1.7,0,3.4,0,5.1c-0.9,0-1.9,0-2.8,0
		c0-4.3,0-8.7,0-13c0.1,0,0.1,0,0.1,0c2.1,0,4.2,0,6.3,0c0.8,0,1.6,0.1,2.3,0.5c1.1,0.6,1.6,1.5,1.8,2.7c0.1,0.7,0.1,1.5-0.2,2.2
		c-0.3,0.9-1,1.5-1.8,1.9C21.8,23.3,21.8,23.3,21.7,23.4z M16.1,18.1c0,1.2,0,2.3,0,3.5c0.8,0,1.6,0,2.3,0c0.3,0,0.7,0,1,0
		c1.1-0.1,1.7-0.9,1.6-1.9c-0.1-0.8-0.5-1.3-1.3-1.5c-0.2,0-0.5-0.1-0.7-0.1c-0.9,0-1.9,0-2.8,0C16.2,18.1,16.2,18.1,16.1,18.1z"/>
	<path class="st0" d="M24.6,22.6c0-1.2,0.1-2.4,0.6-3.5c0.8-1.8,2.2-3,4.2-3.3c1.3-0.2,2.5-0.2,3.8,0.1c1.9,0.6,3.1,1.8,3.7,3.7
		c0.6,2,0.6,4-0.1,5.9c-0.8,2.1-2.4,3.3-4.6,3.7c-1.2,0.2-2.5,0.1-3.7-0.3c-1.9-0.7-3-2-3.6-3.9c-0.1-0.4-0.2-0.8-0.2-1.2
		C24.7,23.4,24.7,23,24.6,22.6z M34.5,22.4c0-0.7-0.1-1.4-0.3-2.1c-0.6-1.8-2-2.7-3.8-2.4c-1.2,0.2-2,1-2.4,2.1
		c-0.6,1.5-0.6,3.1,0,4.6c0.3,0.8,0.7,1.4,1.4,1.8c1.7,1,3.8,0.4,4.7-1.4C34.4,24.2,34.5,23.3,34.5,22.4z"/>
	<path class="st0" d="M46.6,15.9c0.9,0,1.9,0,2.8,0c0,0,0,0.1,0,0.1c0,2.7,0,5.4,0,8.1c0,0.9-0.2,1.7-0.6,2.5
		c-0.6,1.2-1.5,2-2.8,2.3c-1.4,0.4-2.8,0.4-4.1,0c-1.8-0.5-2.9-1.7-3.3-3.5c-0.1-0.5-0.2-1.1-0.2-1.7c0-2.6,0-5.1,0-7.7
		c0-0.1,0-0.1,0-0.2c0.9,0,1.9,0,2.8,0c0,0.1,0,0.1,0,0.2c0,2.6,0,5.2,0,7.8c0,0.4,0,0.7,0.1,1.1c0.2,1.1,1,1.8,2.2,1.9
		c0.4,0,0.8,0,1.2-0.1c1.1-0.2,1.7-0.9,1.8-2c0-0.3,0.1-0.6,0.1-1c0-2.6,0-5.1,0-7.7C46.6,16,46.6,16,46.6,15.9z"/>
	<path class="st0" d="M53.6,24.2c0,0.8,0,1.6,0,2.4c0,0.8,0,1.5,0,2.3c-0.9,0-1.8,0-2.8,0c0-4.3,0-8.7,0-13c0.1,0,0.1,0,0.2,0
		c2,0,3.9,0,5.9,0c0.7,0,1.4,0.1,2.1,0.4c1.4,0.6,2.1,1.6,2.3,3.1c0.1,0.8,0,1.7-0.3,2.5c-0.6,1.2-1.6,1.9-2.8,2.2
		c-0.6,0.1-1.1,0.2-1.7,0.2c-0.9,0-1.7,0-2.6,0C53.7,24.2,53.7,24.2,53.6,24.2z M53.6,18.1c0,1.3,0,2.6,0,3.9c0,0,0,0,0.1,0
		c0.9,0,1.9,0,2.8,0c1.2-0.1,1.9-0.8,2-1.9c0.1-0.9-0.5-1.7-1.4-1.9c-0.2,0-0.4-0.1-0.6-0.1c-0.6,0-1.2,0-1.8,0
		C54.3,18.1,54,18.1,53.6,18.1z"/>
</g>
</svg>
