<?xml version="1.0" encoding="utf-8"?>
<!-- Generator: Adobe Illustrator 25.2.1, SVG Export Plug-In . SVG Version: 6.00 Build 0)  -->
<svg version="1.1" id="Layer_1" xmlns="http://www.w3.org/2000/svg" xmlns:xlink="http://www.w3.org/1999/xlink" x="0px" y="0px"
	 viewBox="0 0 87.8 16.1" style="enable-background:new 0 0 87.8 16.1;" xml:space="preserve">
<style type="text/css">
	.st0{fill:#D3E7F7;}
	.st1{fill:#0155A1;}
	.st2{fill:#FBA702;}
	.st3{fill:#FCFEFF;}
	.st4{fill:#036ED4;}
	.st5{fill:#006CD3;}
	.st6{fill:#050306;}
	.st7{fill:#03B1AE;}
	.st8{fill:#00AD39;}
	.st9{fill:#FF495C;}
	.st10{fill:#017EAE;}
	.st11{fill:#CA4929;}
	.st12{fill:#F59001;}
	.st13{fill:#CDD0D2;}
	.st14{fill:#0863FF;}
	.st15{fill:#F14D02;}
	.st16{fill:#FED853;}
	.st17{fill:#2C323B;}
	.st18{fill:#EE5B65;}
	.st19{fill:#32B3E8;}
	.st20{fill:#2A8AC6;}
	.st21{fill:#D6445D;}
	.st22{fill:#960A2C;}
	.st23{fill:#010101;}
	.st24{fill:#D72B11;}
	.st25{fill:#E41231;}
	.st26{fill:#F01523;}
	.st27{fill:#93DD01;}
	.st28{fill:#249633;}
	.st29{fill:#242424;}
	.st30{fill:#C80126;}
	.st31{fill:#020202;}
	.st32{fill:#959798;}
	.st33{fill:#EE1818;}
	.st34{fill:#242021;}
	.st35{fill:#002A3B;}
	.st36{fill:#205053;}
	.st37{fill:#235153;}
	.st38{fill:#15AA9E;}
	.st39{fill:#09AC9D;}
	.st40{fill:#05716B;}
	.st41{fill:#F49200;}
	.st42{fill:#E25100;}
	.st43{fill:#0223FE;}
	.st44{fill:#04CBFE;}
	.st45{fill:#F47264;}
	.st46{fill:#F24731;}
	.st47{fill:#F8A197;}
	.st48{fill:#233240;}
	.st49{fill:#FE6D52;}
	.st50{fill:#124FFF;}
	.st51{fill:#F56D58;}
	.st52{fill:#75C4E2;}
	.st53{fill:#E0044D;}
	.st54{fill:#3B267C;}
	.st55{fill:#DD1937;}
	.st56{fill:#01B3FE;}
	.st57{fill:#454545;}
	.st58{fill:#AB56B3;}
	.st59{fill:#031A28;}
	.st60{fill:#53CD8E;}
	.st61{fill:#1B0E65;}
	.st62{fill:#060250;}
	.st63{fill:#02AA47;}
	.st64{fill:#060605;}
	.st65{fill:#221E5D;}
	.st66{fill:#F2574D;}
	.st67{fill:#FE6F05;}
	.st68{fill:#D2D1D0;}
</style>
<g>
	<path class="st31" d="M87.8,14.3c-0.9,0-1.8,0-2.6,0c-0.2,0-0.4-0.1-0.5-0.3c-1.1-1.2-2.1-2.4-3.2-3.7c-0.2-0.2-0.3-0.3-0.6-0.3
		c-0.5,0-1,0-1.5,0c-0.4,0-0.5,0.1-0.5,0.5c0,1.1,0,2.1,0,3.2c0,0.5-0.1,0.6-0.6,0.6c-0.5,0-1,0-1.4,0c-0.3,0-0.4-0.1-0.4-0.4
		c0-4,0-7.9,0-11.9c0-0.3,0.1-0.4,0.4-0.4c2,0,4.1,0,6.1,0c1.6,0.1,3,0.8,3.7,2.3c0.7,1.5,0.6,3-0.3,4.4C86,9,85.3,9.4,84.5,9.7
		C84,9.9,84,9.9,84.4,10.3c1.1,1.2,2.1,2.4,3.2,3.6C87.7,14,87.8,14.1,87.8,14.3z M81.2,3.9c-0.7,0-1.3,0-1.9,0
		c-0.3,0-0.4,0.1-0.4,0.4c0,1.1,0,2.2,0,3.4C78.9,7.8,79,8,79.3,8c1.3,0,2.6,0.1,3.9-0.1C84,7.8,84.7,7,84.8,6.1
		c0.1-1-0.5-1.8-1.4-2.1C82.6,3.8,81.8,3.9,81.2,3.9z"/>
	<path class="st31" d="M21.8,8c0-2,0-3.9,0-5.9c0-0.4,0.1-0.5,0.5-0.5c1.6,0,3.2,0,4.8,0c3.4,0.1,5.8,2.4,6,5.8
		c0.1,2.1-0.4,3.9-2,5.4c-1.1,1-2.5,1.4-3.9,1.5c-1.6,0-3.3,0-4.9,0c-0.4,0-0.5-0.1-0.5-0.5C21.8,11.9,21.8,9.9,21.8,8z M24.2,7.9
		c0,1.2,0,2.4,0,3.6c0,0.4,0.1,0.5,0.5,0.5c0.8,0,1.6,0,2.3,0c1.1,0,2.1-0.4,2.8-1.3c1.1-1.4,1.2-3,0.6-4.6
		c-0.4-1.1-1.2-1.8-2.3-2.1c-1.1-0.3-2.3-0.1-3.4-0.2c-0.4,0-0.5,0.1-0.5,0.5C24.2,5.6,24.2,6.8,24.2,7.9z"/>
	<path class="st31" d="M35.6,8c0-1.9,0-3.8,0-5.7c0-0.5,0.1-0.7,0.7-0.6c2.7,0,5.5,0,8.2,0c0.5,0,0.7,0.2,0.6,0.7c0,0.4,0,0.7,0,1.1
		C45.2,3.9,45,4,44.6,4c-2,0-4,0-6,0c-0.5,0-0.6,0.1-0.6,0.6c0,0.6,0,1.2,0,1.8c0,0.4,0.1,0.5,0.5,0.5c1.9,0,3.9,0,5.8,0
		c0.4,0,0.6,0.1,0.6,0.6c0,0.4,0,0.8,0,1.1c0.1,0.5-0.2,0.6-0.6,0.6c-1.9,0-3.7,0-5.6,0c-0.7,0-0.7,0-0.7,0.7c0,0.6,0,1.2,0,1.7
		c0,0.4,0.1,0.5,0.5,0.5c2,0,4,0,6.1,0c0.5,0,0.7,0.2,0.6,0.6c0,0.4,0,0.9,0,1.3c0,0.3-0.1,0.4-0.5,0.4c-2.9,0-5.7,0-8.6,0
		c-0.4,0-0.5-0.1-0.5-0.5C35.6,11.9,35.6,9.9,35.6,8z"/>
	<path class="st31" d="M69.7,14.4c-1.1,0.1-1.9-0.5-2.4-1.6c-1.1-2.5-2.3-4.9-3.4-7.4C63.9,5.3,63.9,5,63.6,5
		c-0.3,0-0.3,0.3-0.4,0.4c-1.1,2.5-2.2,4.9-3.4,7.4c-0.6,1.3-1.5,1.8-2.9,1.6c-0.3-0.1-0.3-0.2-0.2-0.4c0.5-1.1,1-2.2,1.5-3.3
		C59.6,8,60.8,5.4,62,2.8c0.3-0.7,0.9-1.1,1.6-1.2c0.8,0,1.3,0.4,1.7,1.1c1.4,2.9,2.7,5.9,4.1,8.8c0.3,0.7,0.7,1.4,1,2.2
		c0.3,0.6,0.2,0.6-0.4,0.6C69.9,14.4,69.8,14.4,69.7,14.4z"/>
	<path class="st67" d="M8.5,0c1.1,0.1,2.5-0.1,3.8,0.1c2.7,0.4,4.5,2.6,4.6,5.3c0,2.3,0,4.5,0,6.8c0,0.4-0.1,0.4-0.5,0.4
		C15,12.5,14,11.2,14,9.7c0-1.4,0-2.7,0-4.1c0-1.7-1-2.7-2.7-2.7C9.8,2.9,8.3,3,6.9,2.9C5.5,2.8,4.4,1.8,4.2,0.4
		C4.2,0.1,4.3,0,4.6,0C5.8,0,7,0,8.5,0z"/>
	<path class="st68" d="M0,7.5C0,6.4,0,5.2,0,4c0-0.5,0.2-0.6,0.6-0.5C1.9,3.8,2.8,5,2.9,6.4c0,1.4,0.1,2.8,0,4.1
		c-0.1,1.3,1.1,2.8,2.7,2.7c1.2-0.1,2.5,0,3.8,0c1,0,1.9,0.2,2.6,1c0.4,0.5,0.6,1.1,0.7,1.7c0.1,0.4-0.3,0.2-0.4,0.2
		c-2.2,0-4.3,0-6.5,0c-0.8,0-1.5-0.1-2.2-0.4C1.5,15,0,13,0,10.9C0,9.8,0,8.6,0,7.5z"/>
	<path class="st31" d="M47.6,8c0-2,0-3.9,0-5.9c0-0.4,0.1-0.6,0.5-0.5c0.4,0,0.9,0,1.3,0c0.4,0,0.5,0.1,0.5,0.5c0,3.1,0,6.2,0,9.4
		c0,0.7,0,0.7,0.7,0.7c1.4,0,2.9,0,4.3,0c0.3,0,0.5,0.1,0.5,0.5c-0.1,0.6,0.2,1.3-0.1,1.7c-0.3,0.3-1.1,0.1-1.6,0.1
		c-1.9,0-3.8,0-5.6,0c-0.4,0-0.5-0.1-0.5-0.5C47.6,11.9,47.6,10,47.6,8z"/>
	<path class="st31" d="M71.7,7.2c0-1.7,0-3.4,0-5.1c0-0.5,0.2-0.5,0.6-0.4c1.1,0.2,1.8,1,1.8,2.1c0,3.4,0,6.8,0,10.1
		c0,0.3-0.2,0.4-0.4,0.4c-1.1-0.1-1.9-1-1.9-2.1C71.7,10.5,71.7,8.9,71.7,7.2z"/>
</g>
</svg>
