<?xml version="1.0" encoding="utf-8"?>
<!-- Generator: Adobe Illustrator 25.2.1, SVG Export Plug-In . SVG Version: 6.00 Build 0)  -->
<svg version="1.1" id="Layer_1" xmlns="http://www.w3.org/2000/svg" xmlns:xlink="http://www.w3.org/1999/xlink" x="0px" y="0px"
	 viewBox="0 0 93.3 23.5" style="enable-background:new 0 0 93.3 23.5;" xml:space="preserve">
<style type="text/css">
	.st0{fill:#D3E7F7;}
	.st1{fill:#0155A1;}
	.st2{fill:#FBA702;}
	.st3{fill:#FCFEFF;}
	.st4{fill:#036ED4;}
	.st5{fill:#006CD3;}
	.st6{fill:#050306;}
	.st7{fill:#03B1AE;}
	.st8{fill:#00AD39;}
	.st9{fill:#FF495C;}
	.st10{fill:#017EAE;}
	.st11{fill:#CA4929;}
	.st12{fill:#F59001;}
	.st13{fill:#CDD0D2;}
	.st14{fill:#0863FF;}
	.st15{fill:#F14D02;}
	.st16{fill:#FED853;}
	.st17{fill:#2C323B;}
	.st18{fill:#EE5B65;}
	.st19{fill:#32B3E8;}
	.st20{fill:#2A8AC6;}
	.st21{fill:#D6445D;}
	.st22{fill:#960A2C;}
	.st23{fill:#010101;}
	.st24{fill:#D72B11;}
	.st25{fill:#E41231;}
	.st26{fill:#F01523;}
	.st27{fill:#93DD01;}
	.st28{fill:#249633;}
	.st29{fill:#242424;}
	.st30{fill:#C80126;}
	.st31{fill:#020202;}
	.st32{fill:#959798;}
	.st33{fill:#EE1818;}
	.st34{fill:#242021;}
	.st35{fill:#002A3B;}
	.st36{fill:#205053;}
	.st37{fill:#235153;}
	.st38{fill:#15AA9E;}
	.st39{fill:#09AC9D;}
	.st40{fill:#05716B;}
	.st41{fill:#F49200;}
	.st42{fill:#E25100;}
	.st43{fill:#0223FE;}
	.st44{fill:#04CBFE;}
	.st45{fill:#F47264;}
	.st46{fill:#F24731;}
	.st47{fill:#F8A197;}
	.st48{fill:#233240;}
	.st49{fill:#FE6D52;}
	.st50{fill:#124FFF;}
	.st51{fill:#F56D58;}
	.st52{fill:#75C4E2;}
	.st53{fill:#E0044D;}
	.st54{fill:#3B267C;}
	.st55{fill:#DD1937;}
	.st56{fill:#01B3FE;}
	.st57{fill:#454545;}
	.st58{fill:#AB56B3;}
	.st59{fill:#031A28;}
	.st60{fill:#53CD8E;}
	.st61{fill:#1B0E65;}
	.st62{fill:#060250;}
	.st63{fill:#02AA47;}
	.st64{fill:#060605;}
	.st65{fill:#221E5D;}
	.st66{fill:#F2574D;}
	.st67{fill:#FE6F05;}
	.st68{fill:#D2D1D0;}
</style>
<g>
	<path class="st58" d="M11.1,23.5c-0.1-0.1-0.3,0-0.4-0.1c-2.7-0.3-5-1.3-7-3.2c-1.9-1.8-3-3.9-3.5-6.5c-0.1-0.6-0.2-1.3-0.2-2
		c0-1,0.8-1.8,1.8-1.9c1.1-0.1,2,0.7,2.1,1.8C4,12.4,4,13.1,4.2,13.7c0.5,1.8,1.4,3.2,2.9,4.3c1.1,0.8,2.4,1.4,3.8,1.5
		c2.3,0.3,4.3-0.4,6.1-1.9c1.5-1.3,2.3-2.9,2.6-4.8c0.3-2.4-0.3-4.5-2-6.3C16.3,5.1,14.8,4.3,13,4c-0.5-0.1-0.9-0.1-1.4-0.1
		c-1.1,0-1.9-0.7-2-1.8c-0.1-0.9,0.6-1.9,1.5-2.1C11.6,0,12,0,12.4,0c1.1,0.1,2.2,0.3,3.2,0.6c1.5,0.5,2.9,1.3,4.1,2.4
		c1.9,1.8,3.1,4,3.6,6.5c0.5,2.8,0.1,5.5-1.4,8c-1.1,1.9-2.6,3.3-4.5,4.4c-1.3,0.7-2.6,1.2-4,1.3c-0.3,0-0.6,0.1-0.9,0.1
		c0,0-0.1,0-0.1,0C12,23.5,11.6,23.5,11.1,23.5z"/>
	<path class="st59" d="M40.6,8.4C40.8,8.2,41,8,41.3,7.8c1.1-0.7,2.2-0.9,3.4-0.4c0.9,0.4,1.3,1.1,1.5,1.9c0.1,0.4,0.1,0.8,0.1,1.3
		c0,1.8,0,3.6,0,5.4c0,0.1,0,0.2-0.2,0.2c-0.6,0-1.2,0-1.8,0c-0.1,0-0.2,0-0.2-0.2c0-1.8,0-3.6,0-5.4c0-0.2,0-0.5-0.1-0.7
		c-0.2-0.7-0.6-1-1.3-1.1c-0.7,0-1.3,0.3-1.9,0.8c-0.1,0.1-0.2,0.2-0.2,0.4c0,2,0,4,0,6c0,0.1,0,0.2-0.2,0.2c-0.6,0-1.2,0-1.8,0
		c-0.1,0-0.1,0-0.1-0.1c0-2.9,0-5.7,0-8.6c0-0.1,0-0.1,0.1-0.1c0.4,0,0.8,0,1.2,0c0.3,0,0.5,0.2,0.6,0.5C40.5,8,40.6,8.2,40.6,8.4z"
		/>
	<path class="st59" d="M76.3,12.1c-0.9,0-1.8,0-2.7,0c-0.1,0-0.1,0-0.1,0.1c0,0.4,0.1,0.9,0.3,1.3c0.4,0.8,1.1,1.1,1.9,1.2
		c0.6,0,1.2-0.1,1.8-0.4c0.2-0.1,0.3-0.2,0.5-0.3c0.3-0.2,0.6-0.1,0.8,0.2c0.2,0.2,0.3,0.4,0.5,0.6c0.1,0.1,0.1,0.1,0,0.2
		c-0.5,0.5-1.1,0.9-1.8,1.1c-1,0.3-2,0.3-3.1,0.1c-1.2-0.3-2-1-2.5-2.1c-0.7-1.5-0.8-3-0.1-4.5c0.6-1.4,1.7-2.1,3.2-2.3
		c0.8-0.1,1.6,0,2.3,0.3c1.1,0.5,1.7,1.4,2,2.5c0.1,0.5,0.2,1,0.1,1.5c0,0.4-0.2,0.5-0.6,0.5C78,12.1,77.2,12.1,76.3,12.1z
		 M75.5,10.8c0.5,0,1,0,1.6,0c0.1,0,0.2,0,0.4,0c0,0,0.1,0,0.1-0.1c0-0.5-0.1-1-0.5-1.4c-0.4-0.4-1-0.6-1.5-0.5
		c-0.7,0-1.3,0.3-1.6,1c-0.2,0.3-0.3,0.6-0.3,0.9c0,0.1,0,0.1,0.1,0.1C74.3,10.8,74.9,10.8,75.5,10.8z"/>
	<path class="st59" d="M52.4,12.1c-0.9,0-1.8,0-2.7,0c-0.1,0-0.1,0-0.1,0.1c0,0.5,0.1,0.9,0.3,1.3c0.4,0.8,1.1,1.1,1.9,1.2
		c0.6,0,1.2-0.1,1.8-0.4c0.2-0.1,0.3-0.2,0.5-0.3c0.3-0.2,0.5-0.1,0.8,0.2c0.2,0.2,0.3,0.4,0.5,0.6c0.1,0.1,0.1,0.1,0,0.2
		c-0.5,0.5-1.1,0.9-1.8,1.1c-1,0.3-2.1,0.3-3.1,0.1c-1.2-0.3-2-1.1-2.5-2.2c-0.6-1.5-0.7-3-0.1-4.4c0.6-1.4,1.7-2.1,3.2-2.3
		c0.8-0.1,1.6,0,2.4,0.3c1.1,0.5,1.7,1.4,2,2.5c0.1,0.5,0.2,1.1,0.1,1.6c0,0.3-0.2,0.4-0.5,0.4C54.2,12.1,53.3,12.1,52.4,12.1z
		 M51.6,10.8c0.6,0,1.2,0,1.9,0c0,0,0.1,0,0.1-0.1c0-0.5-0.1-1-0.5-1.4c-0.4-0.4-1-0.6-1.6-0.6c-0.7,0-1.3,0.3-1.6,1
		c-0.2,0.3-0.3,0.6-0.3,0.9c0,0.1,0,0.2,0.1,0.2C50.4,10.7,51,10.8,51.6,10.8z"/>
	<path class="st59" d="M85,12.1c-0.9,0-1.8,0-2.7,0c-0.1,0-0.1,0-0.1,0.1c0,0.5,0.1,0.9,0.3,1.3c0.4,0.8,1.1,1.1,1.9,1.2
		c0.7,0,1.3-0.1,1.8-0.4c0.2-0.1,0.3-0.2,0.5-0.2c0.3-0.2,0.5-0.1,0.8,0.2c0.2,0.2,0.3,0.4,0.5,0.6c0.1,0.1,0.1,0.1,0,0.2
		c-0.5,0.5-1.1,0.9-1.8,1.1c-1,0.3-2,0.3-3,0.1c-1.2-0.3-2.1-1-2.6-2.1c-0.7-1.5-0.8-3-0.1-4.6c0.6-1.4,1.7-2.1,3.2-2.3
		c0.8-0.1,1.6,0,2.4,0.3c1.2,0.5,1.8,1.5,2,2.7c0.1,0.5,0.1,1,0.1,1.4c0,0.3-0.2,0.4-0.5,0.4C86.8,12.1,85.9,12.1,85,12.1z
		 M84.2,10.8c0.5,0,1.1,0,1.6,0c0.4,0,0.4,0,0.4-0.4c-0.1-0.6-0.3-1-0.8-1.3c-0.4-0.2-0.8-0.3-1.2-0.3c-0.7,0-1.3,0.3-1.6,1
		c-0.2,0.3-0.3,0.6-0.3,0.9c0,0.1,0,0.1,0.1,0.1C83,10.8,83.6,10.8,84.2,10.8z"/>
	<path class="st59" d="M34.4,12.1c-0.9,0-1.8,0-2.7,0c-0.1,0-0.1,0-0.1,0.2c0.1,0.5,0.2,1,0.4,1.5c0.4,0.7,1.1,1,1.8,1
		c0.6,0,1.2-0.1,1.8-0.4c0.2-0.1,0.3-0.2,0.5-0.3c0.3-0.2,0.6-0.1,0.8,0.2c0.2,0.2,0.3,0.4,0.5,0.6c0.1,0.1,0.1,0.1,0,0.2
		c-0.5,0.5-1.1,0.9-1.9,1.1c-1,0.3-2.1,0.3-3.1,0.1c-1.2-0.3-2.1-1.1-2.6-2.2c-0.6-1.4-0.7-2.9,0-4.4c0.7-1.5,1.9-2.3,3.5-2.4
		c0.7-0.1,1.4,0,2.1,0.3c1.2,0.5,1.8,1.5,2,2.7c0.1,0.5,0.1,0.9,0.1,1.4c0,0.3-0.2,0.4-0.5,0.4C36.1,12.1,35.2,12.1,34.4,12.1z
		 M33.6,10.8c0.6,0,1.2,0,1.7,0c0.1,0,0.1,0,0.2,0c0.1,0,0.1,0,0.1-0.1c0-0.7-0.2-1.3-0.8-1.7c-0.4-0.2-0.8-0.3-1.2-0.3
		c-0.7,0-1.3,0.3-1.6,1c-0.2,0.3-0.3,0.6-0.3,0.9c0,0.1,0,0.1,0.1,0.1C32.3,10.8,33,10.8,33.6,10.8z"/>
	<path class="st59" d="M67.1,14.1c0.1-0.2,0.1-0.5,0.1-0.7c0.2-0.8,0.5-1.6,0.8-2.4c0.4-1.1,0.8-2.2,1.2-3.2
		c0.1-0.4,0.3-0.5,0.7-0.5c0.5,0,1,0,1.5,0c0,0,0.1,0,0.2,0c-0.2,0.4-0.3,0.9-0.5,1.3c-1,2.5-2,5-3,7.4c0,0.1-0.1,0.2-0.2,0.2
		c-0.6,0-1.1,0-1.7,0c-0.1,0-0.1,0-0.2-0.1c-1.2-2.9-2.3-5.8-3.5-8.7c0,0,0,0,0-0.1c0.3,0,0.5,0,0.8,0c0.3,0,0.6,0,1,0
		c0.3,0,0.5,0.1,0.6,0.4c0.6,1.7,1.2,3.4,1.8,5.1C66.9,13.2,67,13.6,67.1,14.1z"/>
	<path class="st59" d="M58.6,8.9c0.3-0.5,0.6-0.9,1.1-1.3C60.4,7.1,61.2,7,62,7.3c0,0,0,0,0,0c0.2,0.1,0.2,0.1,0.2,0.3
		C62.2,8.1,62.1,8.6,62,9c0,0.3-0.2,0.3-0.4,0.3c-0.2,0-0.4-0.1-0.5-0.1c-1-0.1-1.7,0.3-2.1,1.1c-0.1,0.2-0.2,0.4-0.2,0.6
		c0,1.7,0,3.4,0,5.1c0,0.2,0,0.2-0.2,0.2c-0.6,0-1.2,0-1.8,0c-0.1,0-0.1,0-0.1-0.1c0-2.9,0-5.7,0-8.6c0-0.1,0-0.1,0.1-0.1
		c0.4,0,0.8,0,1.1,0c0.4,0,0.6,0.1,0.6,0.6c0,0.2,0,0.3,0.1,0.5C58.6,8.6,58.6,8.7,58.6,8.9z"/>
	<path class="st60" d="M4.7,7.1c-1.2,0-2.2-1-2.2-2.2c0-1.3,1.1-2.2,2.3-2.2c1.2,0,2.2,1,2.1,2.2C6.9,6.2,5.9,7.2,4.7,7.1z"/>
	<path class="st59" d="M91.1,7.2c-1.2,0-2.2-1-2.2-2.2c0-1.2,1-2.2,2.2-2.2c1.2,0,2.2,1,2.2,2.2C93.3,6.2,92.4,7.2,91.1,7.2z
		 M93,4.9c0-1.1-0.8-1.9-1.9-1.9c-1,0-1.9,0.9-1.9,1.9c0,1.1,0.9,1.9,2,1.9C92.2,6.8,93,6,93,4.9z"/>
	<path class="st59" d="M91.5,5.1c0.3,0.4,0.5,0.8,0.8,1.2c-0.2,0-0.3,0-0.5,0c-0.1,0-0.1-0.1-0.2-0.1c-0.2-0.3-0.3-0.5-0.5-0.8
		c-0.1-0.1-0.3-0.2-0.4-0.1c-0.1,0,0,0.1,0,0.1c0,0.3,0,0.6,0,0.8c0,0.1,0,0.1-0.1,0.1c-0.4,0-0.4,0-0.4-0.3c0-0.7,0-1.5,0-2.2
		c0-0.1,0-0.2,0.1-0.1c0.4,0,0.8,0,1.2,0.1c0.4,0.1,0.6,0.3,0.6,0.7C92.1,4.7,91.9,5,91.5,5.1C91.6,5.1,91.5,5.1,91.5,5.1z
		 M90.7,4.4c0,0.1,0,0.2,0,0.4c0,0,0,0.1,0.1,0.1c0.2,0,0.4,0,0.6,0c0.2-0.1,0.3-0.2,0.3-0.5c0-0.2-0.1-0.3-0.3-0.4
		c-0.2,0-0.4,0-0.5,0c-0.1,0-0.1,0-0.1,0.1C90.7,4.2,90.7,4.3,90.7,4.4z"/>
</g>
</svg>
