<?xml version="1.0" encoding="utf-8"?>
<!-- Generator: Adobe Illustrator 25.2.1, SVG Export Plug-In . SVG Version: 6.00 Build 0)  -->
<svg version="1.1" id="Layer_1" xmlns="http://www.w3.org/2000/svg" xmlns:xlink="http://www.w3.org/1999/xlink" x="0px" y="0px"
	 viewBox="0 0 65.9 19.3" style="enable-background:new 0 0 65.9 19.3;" xml:space="preserve">
<style type="text/css">
	.st0{fill:#D3E7F7;}
	.st1{fill:#0155A1;}
	.st2{fill:#FBA702;}
	.st3{fill:#FCFEFF;}
	.st4{fill:#036ED4;}
	.st5{fill:#006CD3;}
	.st6{fill:#050306;}
	.st7{fill:#03B1AE;}
	.st8{fill:#00AD39;}
	.st9{fill:#FF495C;}
	.st10{fill:#017EAE;}
	.st11{fill:#CA4929;}
	.st12{fill:#F59001;}
	.st13{fill:#CDD0D2;}
	.st14{fill:#0863FF;}
	.st15{fill:#F14D02;}
	.st16{fill:#FED853;}
	.st17{fill:#2C323B;}
	.st18{fill:#EE5B65;}
	.st19{fill:#32B3E8;}
	.st20{fill:#2A8AC6;}
	.st21{fill:#D6445D;}
	.st22{fill:#960A2C;}
	.st23{fill:#010101;}
	.st24{fill:#D72B11;}
	.st25{fill:#E41231;}
	.st26{fill:#F01523;}
	.st27{fill:#93DD01;}
	.st28{fill:#249633;}
	.st29{fill:#242424;}
	.st30{fill:#C80126;}
	.st31{fill:#020202;}
	.st32{fill:#959798;}
	.st33{fill:#EE1818;}
	.st34{fill:#242021;}
	.st35{fill:#002A3B;}
	.st36{fill:#205053;}
	.st37{fill:#235153;}
	.st38{fill:#15AA9E;}
	.st39{fill:#09AC9D;}
	.st40{fill:#05716B;}
	.st41{fill:#F49200;}
	.st42{fill:#E25100;}
	.st43{fill:#0223FE;}
	.st44{fill:#04CBFE;}
	.st45{fill:#F47264;}
	.st46{fill:#F24731;}
	.st47{fill:#F8A197;}
	.st48{fill:#233240;}
	.st49{fill:#FE6D52;}
	.st50{fill:#124FFF;}
	.st51{fill:#F56D58;}
	.st52{fill:#75C4E2;}
	.st53{fill:#E0044D;}
	.st54{fill:#3B267C;}
	.st55{fill:#DD1937;}
	.st56{fill:#01B3FE;}
	.st57{fill:#454545;}
	.st58{fill:#AB56B3;}
	.st59{fill:#031A28;}
	.st60{fill:#53CD8E;}
	.st61{fill:#1B0E65;}
	.st62{fill:#060250;}
	.st63{fill:#02AA47;}
	.st64{fill:#060605;}
	.st65{fill:#221E5D;}
	.st66{fill:#F2574D;}
	.st67{fill:#FE6F05;}
	.st68{fill:#D2D1D0;}
</style>
<g>
	<path class="st43" d="M25.2,6.4c0-0.1,0-0.1,0-0.1c0-0.7,0-0.7,0.8-0.7c0.7,0,1.5,0,2.2,0c0.2,0,0.3,0,0.3,0.3c0,2.9,0,5.8,0,8.8
		c0,3-2.2,4.4-4.3,4.6c-1.7,0.2-3.4,0-4.8-1.2c-0.6-0.5-1.1-1.1-1.3-1.9c-0.1-0.3,0-0.4,0.3-0.4c1,0,2,0,3,0c0.2,0,0.3,0,0.4,0.2
		c0.1,0.3,0.3,0.4,0.6,0.5c1,0.4,2.5,0.2,2.9-1.5c0.1-0.4,0-0.9,0-1.4c-0.1,0-0.1,0-0.1,0c-1.3,1.3-2.8,1.3-4.4,0.8
		c-1.6-0.6-2.4-1.8-2.7-3.4c-0.2-1.3,0-2.5,0.7-3.6C19.9,5.4,23.2,4.5,25.2,6.4z M23.4,12.2c1.1,0,2.1-1,2.1-2.1
		c0-1.1-1-2.1-2.1-2.1c-1.1,0-2,1-2,2.1C21.3,11.3,22.2,12.2,23.4,12.2z"/>
	<path class="st43" d="M7.3,13.8c-0.1,0-0.1,0-0.1,0c-1.4,1.3-3,1.3-4.6,0.7c-1.7-0.7-2.4-2-2.6-3.8c-0.1-1.6,0.3-3,1.5-4.1
		C2.7,5.4,4.7,5,6.2,5.7c0.4,0.2,0.8,0.5,1.1,0.8c0.1,0,0.1-0.1,0.1-0.2c0-0.7,0-0.7,0.7-0.7c0.8,0,1.5,0,2.3,0c0.2,0,0.3,0,0.3,0.3
		c0,2.8,0,5.6,0,8.4c0,3.4-2.3,4.8-4.6,5c-1.8,0.1-3.4-0.2-4.8-1.4c-0.5-0.5-0.9-1.1-1.1-1.8c-0.1-0.2,0-0.3,0.2-0.3
		c1,0,2.1,0,3.1,0c0.1,0,0.2,0,0.3,0.1c0.6,0.9,2,1.1,2.8,0.4c0.5-0.4,0.7-0.9,0.7-1.5C7.3,14.5,7.3,14.1,7.3,13.8z M5.4,12.2
		c1.1,0,2.1-0.9,2.1-2C7.5,9,6.5,8.1,5.4,8c-1.1,0-2.1,0.9-2.1,2C3.3,11.2,4.2,12.2,5.4,12.2z"/>
	<path class="st43" d="M53.8,10.8c-1,0-2,0-3,0c-0.3,0-0.4,0.1-0.3,0.4c0.2,0.7,0.4,1.3,1.2,1.5c0.8,0.2,1.6,0.1,2.2-0.6
		c0.1-0.1,0.2-0.2,0.3-0.2c0.9,0,1.7,0,2.6,0c0.3,0,0.3,0.1,0.2,0.3c-0.5,1.3-1.3,2.1-2.6,2.5c-1.3,0.4-2.7,0.4-4,0
		c-2.2-0.7-3.5-2.8-3.2-5.1c0.3-2.8,2.4-4.5,5.4-4.3c1.3,0.1,2.4,0.4,3.3,1.4c1,1.1,1.3,2.4,1.3,3.8c0,0.2-0.2,0.2-0.3,0.2
		C55.9,10.8,54.8,10.8,53.8,10.8z M52.3,8.9c0.5,0,1.1,0,1.6,0c0.1,0,0.2,0,0.2-0.2c-0.2-0.7-0.9-1.2-1.8-1.2
		c-0.9,0-1.6,0.4-1.8,1.2c-0.1,0.2,0,0.3,0.2,0.3C51.3,8.9,51.8,8.9,52.3,8.9z"/>
	<path class="st43" d="M33.8,15c-1.2,0-2.3-0.3-3.4-0.9c-0.2-0.1-0.3-0.2-0.1-0.4c0.3-0.5,0.6-1.1,0.9-1.7c0.1-0.2,0.2-0.3,0.5-0.1
		c0.7,0.4,1.4,0.7,2.2,0.7c0.2,0,0.5,0,0.7-0.1c0.2-0.1,0.3-0.2,0.3-0.5c0-0.2-0.1-0.4-0.3-0.5c-0.2-0.1-0.3-0.1-0.5-0.2
		c-0.5-0.1-0.9-0.2-1.4-0.3c-1.3-0.4-2-1.3-1.8-2.7c0.1-1.1,0.7-2,1.7-2.4c1.7-0.7,3.4-0.6,5.1,0c0.2,0.1,0.2,0.1,0.1,0.3
		c-0.3,0.6-0.6,1.1-0.9,1.7c-0.1,0.2-0.2,0.2-0.3,0.1c-0.4-0.2-0.7-0.3-1.1-0.3c-0.3-0.1-0.7-0.1-1,0.1C34.2,7.8,34,7.9,34,8.2
		c0,0.3,0.2,0.4,0.4,0.5c0.4,0.1,0.9,0.2,1.3,0.3C35.9,9,36,9,36.1,9.1c2.1,0.6,2.8,3.1,1.3,4.7c-0.8,0.8-1.8,1.1-2.9,1.2
		C34.2,15,34,15,33.8,15z"/>
	<path class="st43" d="M44.2,11.5c0,1,0,1.9,0,2.9c0,0.2-0.1,0.3-0.3,0.3c-0.9,0-1.8,0-2.7,0c-0.3,0-0.4-0.1-0.3-0.3
		c0-1.9,0-3.8,0-5.7c0-0.3-0.1-0.4-0.4-0.4c-0.3,0-0.7,0-1,0c-0.2,0-0.2-0.1-0.2-0.2c0-0.8,0-1.5,0-2.3c0-0.2,0.1-0.2,0.2-0.2
		c0.3,0,0.7,0,1,0c0.3,0,0.4-0.1,0.4-0.4c0-0.8,0-1.6,0-2.3c0-0.2,0.1-0.3,0.3-0.3c0.9,0,1.8,0,2.7,0c0.3,0,0.3,0.1,0.3,0.3
		c0,0.8,0,1.6,0,2.3c0,0.3,0.1,0.3,0.3,0.3c0.3,0,0.7,0,1,0c0.2,0,0.3,0,0.3,0.3c0,0.7,0,1.4,0,2.1c0,0.2-0.1,0.3-0.3,0.3
		c-0.3,0-0.6,0-1,0c-0.3,0-0.4,0.1-0.4,0.4C44.2,9.6,44.2,10.5,44.2,11.5z"/>
	<path class="st43" d="M62.3,6.9c0.2,0,0.2-0.2,0.2-0.2c0.8-1,1.9-1.3,3.2-1.2c0.2,0,0.2,0.1,0.2,0.2c0,0.9,0,1.8,0,2.8
		c-0.3-0.1-0.5-0.2-0.7-0.2c-1.7-0.4-2.9,0.5-2.9,2.3c0,1.2,0,2.4,0,3.7c0,0.3-0.1,0.4-0.4,0.4c-0.9,0-1.7,0-2.6,0
		c-0.2,0-0.3-0.1-0.3-0.3c0-2.8,0-5.7,0-8.5c0-0.2,0-0.3,0.3-0.3c0.9,0,1.8,0,2.7,0c0.2,0,0.3,0.1,0.3,0.3
		C62.3,6.2,62.3,6.6,62.3,6.9z"/>
	<path class="st43" d="M16.1,10.2c0,1.4,0,2.8,0,4.2c0,0.3-0.1,0.3-0.4,0.3c-0.9,0-1.7,0-2.6,0c-0.2,0-0.3,0-0.3-0.3
		c0-2.8,0-5.7,0-8.5c0-0.2,0.1-0.3,0.3-0.3c0.9,0,1.8,0,2.6,0c0.3,0,0.4,0.1,0.4,0.4C16.1,7.4,16.1,8.8,16.1,10.2z"/>
	<path class="st44" d="M16.3,1.8c0,1-0.8,1.8-1.8,1.8c-1,0-1.9-0.8-1.8-1.9c0-1,0.8-1.8,1.9-1.8C15.5,0,16.3,0.8,16.3,1.8z"/>
</g>
</svg>
