<?xml version="1.0" encoding="utf-8"?>
<!-- Generator: Adobe Illustrator 25.2.1, SVG Export Plug-In . SVG Version: 6.00 Build 0)  -->
<svg version="1.1" id="Layer_1" xmlns="http://www.w3.org/2000/svg" xmlns:xlink="http://www.w3.org/1999/xlink" x="0px" y="0px"
	 viewBox="0 0 50.9 40" style="enable-background:new 0 0 50.9 40;" xml:space="preserve">
<style type="text/css">
	.st0{fill:#D3E7F7;}
	.st1{fill:#0155A1;}
	.st2{fill:#FBA702;}
	.st3{fill:#FCFEFF;}
	.st4{fill:#036ED4;}
	.st5{fill:#006CD3;}
	.st6{fill:#050306;}
	.st7{fill:#03B1AE;}
	.st8{fill:#00AD39;}
	.st9{fill:#FF495C;}
	.st10{fill:#017EAE;}
	.st11{fill:#CA4929;}
	.st12{fill:#F59001;}
	.st13{fill:#CDD0D2;}
	.st14{fill:#0863FF;}
	.st15{fill:#F14D02;}
	.st16{fill:#FED853;}
	.st17{fill:#2C323B;}
	.st18{fill:#EE5B65;}
	.st19{fill:#32B3E8;}
	.st20{fill:#2A8AC6;}
	.st21{fill:#D6445D;}
	.st22{fill:#960A2C;}
	.st23{fill:#010101;}
	.st24{fill:#D72B11;}
	.st25{fill:#E41231;}
	.st26{fill:#F01523;}
	.st27{fill:#93DD01;}
	.st28{fill:#249633;}
	.st29{fill:#242424;}
	.st30{fill:#C80126;}
	.st31{fill:#020202;}
	.st32{fill:#959798;}
	.st33{fill:#EE1818;}
	.st34{fill:#242021;}
	.st35{fill:#002A3B;}
	.st36{fill:#205053;}
	.st37{fill:#235153;}
	.st38{fill:#15AA9E;}
	.st39{fill:#09AC9D;}
	.st40{fill:#05716B;}
	.st41{fill:#F49200;}
	.st42{fill:#E25100;}
	.st43{fill:#0223FE;}
	.st44{fill:#04CBFE;}
	.st45{fill:#F47264;}
	.st46{fill:#F24731;}
	.st47{fill:#F8A197;}
	.st48{fill:#233240;}
	.st49{fill:#FE6D52;}
	.st50{fill:#124FFF;}
	.st51{fill:#F56D58;}
	.st52{fill:#75C4E2;}
	.st53{fill:#E0044D;}
	.st54{fill:#3B267C;}
	.st55{fill:#DD1937;}
	.st56{fill:#01B3FE;}
	.st57{fill:#454545;}
	.st58{fill:#AB56B3;}
	.st59{fill:#031A28;}
	.st60{fill:#53CD8E;}
	.st61{fill:#1B0E65;}
	.st62{fill:#060250;}
	.st63{fill:#02AA47;}
	.st64{fill:#060605;}
	.st65{fill:#221E5D;}
	.st66{fill:#F2574D;}
	.st67{fill:#FE6F05;}
	.st68{fill:#D2D1D0;}
</style>
<g>
	<path class="st0" d="M17,10.2c0-2.3,0-4.6,0-6.8c0-1.6,1.1-3,2.7-3.3C19.9,0,20.1,0,20.4,0c3.4,0,6.8,0,10.2,0
		c1.5,0,3.1,1.1,3.4,2.9c0.1,0.5,0.1,0.5-0.4,0.5c-4.2,0-8.5,0-12.7,0c-0.1,0-0.1,0-0.2,0c-0.2,0-0.2,0-0.2,0.2c0,0.2,0,0.4,0,0.5
		c0,4.3,0,8.6,0,12.9c0,0.1,0,0.1,0,0.2c0,0.2-0.1,0.3-0.3,0.3c-0.8,0-1.6,0-2.4,0c-0.1,0-0.3,0-0.4,0c-0.2,0-0.2-0.1-0.2-0.2
		c0-1.1,0-2.3,0-3.4C17,12.7,17,11.4,17,10.2z"/>
	<path class="st0" d="M33.9,13.7c0,2.2,0,4.4,0,6.7c0,1.3-0.5,2.3-1.6,3c-0.5,0.3-1.1,0.5-1.7,0.5c-3.5,0-6.9,0-10.4,0
		c-1.7,0-3.1-1.4-3.2-3c0,0,0-0.1,0-0.1c0-0.1,0-0.2,0.2-0.2c0.1,0,0.1,0,0.2,0c4.3,0,8.6,0,12.9,0c0.3,0,0.3,0,0.3-0.3
		c0-4.5,0-9,0-13.5c0-0.3,0-0.3,0.3-0.3c0.9,0,1.8,0,2.7,0c0.3,0,0.3,0,0.3,0.3C33.9,9,33.9,11.4,33.9,13.7z"/>
	<path class="st0" d="M4.3,36.9C4,37.3,3.5,37.6,3,37.7c-1.4,0.2-2.7-0.5-2.9-2.1c-0.1-0.7-0.1-1.4,0.2-2c0.5-1.4,2-1.8,3.1-1.4
		c0.3,0.1,0.6,0.3,0.9,0.6c0,0,0.1,0.1,0.2,0.2c0-0.2,0-0.4,0-0.6c0-0.1,0-0.2,0.2-0.2c0.3,0,0.7,0,1,0c0.1,0,0.2,0.1,0.2,0.2
		c0,0.1,0,0.2,0,0.3c0,1.6,0,3.3,0,4.9c0,1.3-0.8,2.2-2.1,2.3c-0.8,0.1-1.7,0.1-2.5-0.3c-0.2-0.1-0.4-0.3-0.6-0.4
		c-0.1-0.1-0.1-0.1-0.1-0.2c0.2-0.3,0.3-0.6,0.5-0.9c0.1-0.2,0.2-0.1,0.3,0c0.6,0.5,1.3,0.6,2.1,0.5c0.7-0.1,1-0.6,1-1.3
		C4.4,37.2,4.4,37.1,4.3,36.9C4.3,36.9,4.3,36.9,4.3,36.9z M2.9,33.4c-0.9,0-1.5,0.6-1.5,1.5c0,0.9,0.6,1.5,1.5,1.5
		c0.9,0,1.5-0.6,1.5-1.5C4.4,34,3.8,33.4,2.9,33.4z"/>
	<path class="st0" d="M31.1,36.9C31,37,31,37,31,37c-0.7,0.8-1.5,1-2.5,0.7c-0.9-0.3-1.5-0.9-1.7-1.8c-0.2-0.8-0.2-1.7,0.2-2.5
		c0.7-1.6,2.9-1.8,3.9-0.6c0,0,0.1,0.1,0.1,0.1c0-0.1,0-0.2,0-0.3c0-0.8,0-1.7,0-2.5c0-0.2,0.1-0.3,0.2-0.2c0.3,0,0.6,0,0.9,0
		c0.2,0,0.3,0.1,0.3,0.3c0,1.3,0,2.6,0,3.8c0,1.1,0,2.2,0,3.4c0,0.3,0,0.3-0.3,0.3c-0.3,0-0.6,0-0.9,0c-0.2,0-0.3-0.1-0.3-0.3
		C31.1,37.3,31.1,37.1,31.1,36.9z M29.7,36.4c0.9,0,1.5-0.6,1.5-1.5c0-0.9-0.6-1.5-1.5-1.5c-0.9,0-1.5,0.6-1.5,1.5
		C28.2,35.8,28.8,36.4,29.7,36.4z"/>
	<path class="st0" d="M36.4,32c1.5,0,2.6,0.8,2.9,2.1c0.4,1.7-0.5,3.3-2.2,3.6c-1.4,0.3-2.9-0.3-3.4-1.8c-0.6-1.6,0.1-3.5,2-3.9
		C35.9,32,36.2,32,36.4,32z M36.4,33.4c-0.9,0-1.5,0.6-1.5,1.5c0,0.9,0.6,1.5,1.5,1.5c0.9,0,1.5-0.6,1.5-1.5
		C37.9,34,37.3,33.4,36.4,33.4z"/>
	<path class="st0" d="M43.2,32c1.4,0,2.5,0.8,2.8,2.1c0.5,1.7-0.4,3.3-2.1,3.7c-1.4,0.3-2.9-0.4-3.4-1.6c-0.6-1.5,0-3.4,1.8-3.9
		C42.5,32.1,42.9,32,43.2,32z M44.7,34.9c0-0.9-0.6-1.5-1.5-1.5c-0.9,0-1.5,0.6-1.5,1.5c0,0.9,0.6,1.5,1.5,1.5
		C44,36.4,44.7,35.8,44.7,34.9z"/>
	<path class="st0" d="M13.1,36.9C13,37,13,37,12.9,37.1c-0.5,0.8-1.7,0.9-2.5,0.6c-0.7-0.3-1-0.9-1-1.6c0-0.8,0.5-1.4,1.2-1.6
		c0.4-0.1,0.9-0.1,1.3-0.2c0.2,0,0.5,0,0.7-0.1c0.1,0,0.3-0.1,0.3-0.2c0-0.2,0-0.3-0.1-0.5c-0.1-0.1-0.2-0.2-0.4-0.2
		c-0.4-0.1-0.9-0.1-1.3,0.1c-0.2,0.1-0.4,0.2-0.5,0.4c-0.1,0.1-0.2,0.1-0.3,0c-0.2-0.2-0.5-0.3-0.7-0.5c-0.1-0.1-0.1-0.2-0.1-0.3
		c0.2-0.4,0.6-0.7,1-0.8c0.7-0.3,1.5-0.3,2.3-0.1c0.8,0.2,1.3,0.8,1.4,1.6c0,0.3,0,0.6,0,1c0,0.9,0,1.8,0,2.7c0,0.2-0.1,0.3-0.2,0.2
		c-0.3,0-0.7,0-1,0c-0.2,0-0.2-0.1-0.2-0.2C13.1,37.3,13.1,37.2,13.1,36.9z M13,35.2c-0.3,0-0.5,0-0.8,0.1c-0.3,0.1-0.6,0.1-0.9,0.2
		C11,35.6,11,35.8,11,36.1c0,0.2,0.2,0.4,0.4,0.5c0.2,0.1,0.5,0.1,0.7,0C12.7,36.5,13.2,35.9,13,35.2z"/>
	<path class="st0" d="M18,32c0.8,0,1.5,0.2,2,0.6c0.2,0.1,0.2,0.2,0,0.4c-0.2,0.2-0.4,0.4-0.5,0.7c-0.1,0.1-0.2,0.1-0.3,0
		c-0.5-0.4-1-0.5-1.6-0.4c-0.1,0-0.2,0-0.3,0.1c-0.2,0.1-0.2,0.5,0,0.6c0.3,0.1,0.6,0.2,0.9,0.3c0.3,0.1,0.7,0.2,1,0.3
		c0.6,0.3,0.9,0.8,0.9,1.5c0,0.7-0.3,1.3-1,1.5c-1.1,0.4-2.3,0.4-3.3-0.2c-0.6-0.3-0.6-0.4-0.2-0.9c0.1-0.1,0.2-0.3,0.3-0.4
		c0.1-0.2,0.2-0.2,0.3,0c0.6,0.5,1.2,0.6,1.9,0.5c0.1,0,0.2,0,0.2-0.1c0.1-0.1,0.2-0.2,0.2-0.3c0-0.1-0.1-0.3-0.2-0.3
		c-0.3-0.1-0.6-0.2-0.8-0.2c-0.4-0.1-0.7-0.2-1.1-0.3c-0.7-0.3-1-0.8-0.9-1.6c0-0.7,0.4-1.1,1-1.4C17.2,32.1,17.6,32,18,32z"/>
	<path class="st0" d="M23.6,32c0.8,0,1.4,0.2,2,0.6c0.2,0.1,0.2,0.2,0,0.4c-0.2,0.2-0.3,0.4-0.5,0.7c-0.1,0.1-0.2,0.2-0.3,0.1
		c-0.5-0.4-1-0.5-1.6-0.4c-0.1,0-0.2,0-0.3,0.1c-0.1,0.1-0.2,0.2-0.2,0.3c0,0.1,0.1,0.2,0.2,0.3c0.3,0.1,0.6,0.2,0.9,0.3
		c0.3,0.1,0.7,0.2,1,0.3c0.6,0.3,0.9,0.7,0.9,1.4c0,0.7-0.2,1.3-0.9,1.6c-1.2,0.5-2.3,0.4-3.4-0.2c-0.5-0.3-0.5-0.3-0.2-0.8
		c0.1-0.2,0.3-0.3,0.4-0.5c0.1-0.1,0.2-0.1,0.3,0c0.5,0.5,1.2,0.6,1.9,0.5c0.1,0,0.2,0,0.2-0.1c0.1-0.1,0.2-0.2,0.2-0.3
		c0-0.1-0.1-0.3-0.2-0.3c-0.3-0.1-0.5-0.2-0.8-0.2c-0.4-0.1-0.8-0.2-1.1-0.3c-0.6-0.3-0.9-0.8-0.9-1.5c0-0.7,0.4-1.2,1-1.5
		C22.8,32.1,23.2,32,23.6,32z"/>
	<path class="st0" d="M48.5,33c0,0,0.1-0.1,0.1-0.1c0.4-0.5,0.9-0.8,1.5-0.8c0.2,0,0.4,0,0.6,0c0.2,0,0.2,0.1,0.2,0.3
		c0,0.4,0,0.7,0,1.1c0,0.2-0.1,0.2-0.2,0.2c-0.3-0.1-0.7-0.1-1,0c-0.7,0.2-1.1,0.7-1.2,1.5c0,0.8,0,1.5,0,2.3c0,0.2-0.1,0.3-0.3,0.3
		c-0.3,0-0.6,0-1,0c-0.1,0-0.2-0.1-0.2-0.2c0-1.7,0-3.4,0-5.1c0-0.1,0.1-0.2,0.2-0.2c0.3,0,0.7,0,1,0c0.1,0,0.2,0.1,0.2,0.2
		C48.4,32.6,48.4,32.8,48.5,33C48.4,33,48.5,33,48.5,33z"/>
	<path class="st0" d="M8.4,33.8c0,1.2,0,2.4,0,3.6c0,0.3,0,0.3-0.3,0.3c-0.3,0-0.6,0-0.9,0c-0.2,0-0.2-0.1-0.2-0.2
		c0-2.4,0-4.9,0-7.3c0-0.2,0.1-0.2,0.2-0.2c0.3,0,0.6,0,0.9,0c0.3,0,0.3,0,0.3,0.3C8.4,31.4,8.4,32.6,8.4,33.8z"/>
</g>
</svg>
