<?xml version="1.0" encoding="utf-8"?>
<!-- Generator: Adobe Illustrator 25.2.1, SVG Export Plug-In . SVG Version: 6.00 Build 0)  -->
<svg version="1.1" id="Layer_1" xmlns="http://www.w3.org/2000/svg" xmlns:xlink="http://www.w3.org/1999/xlink" x="0px" y="0px"
	 viewBox="0 0 39.9 40.1" style="enable-background:new 0 0 39.9 40.1;" xml:space="preserve">
<style type="text/css">
	.st0{fill:#D3E7F7;}
	.st1{fill:#0155A1;}
	.st2{fill:#FBA702;}
	.st3{fill:#FCFEFF;}
	.st4{fill:#036ED4;}
	.st5{fill:#006CD3;}
	.st6{fill:#050306;}
	.st7{fill:#03B1AE;}
	.st8{fill:#00AD39;}
	.st9{fill:#FF495C;}
	.st10{fill:#017EAE;}
	.st11{fill:#CA4929;}
	.st12{fill:#F59001;}
	.st13{fill:#CDD0D2;}
	.st14{fill:#0863FF;}
	.st15{fill:#F14D02;}
	.st16{fill:#FED853;}
	.st17{fill:#2C323B;}
	.st18{fill:#EE5B65;}
	.st19{fill:#32B3E8;}
	.st20{fill:#2A8AC6;}
	.st21{fill:#D6445D;}
	.st22{fill:#960A2C;}
	.st23{fill:#010101;}
	.st24{fill:#D72B11;}
	.st25{fill:#E41231;}
	.st26{fill:#F01523;}
	.st27{fill:#93DD01;}
	.st28{fill:#249633;}
	.st29{fill:#242424;}
	.st30{fill:#C80126;}
	.st31{fill:#020202;}
	.st32{fill:#959798;}
	.st33{fill:#EE1818;}
	.st34{fill:#242021;}
	.st35{fill:#002A3B;}
	.st36{fill:#205053;}
	.st37{fill:#235153;}
	.st38{fill:#15AA9E;}
	.st39{fill:#09AC9D;}
	.st40{fill:#05716B;}
	.st41{fill:#F49200;}
	.st42{fill:#E25100;}
	.st43{fill:#0223FE;}
	.st44{fill:#04CBFE;}
	.st45{fill:#F47264;}
	.st46{fill:#F24731;}
	.st47{fill:#F8A197;}
	.st48{fill:#233240;}
	.st49{fill:#FE6D52;}
	.st50{fill:#124FFF;}
	.st51{fill:#F56D58;}
	.st52{fill:#75C4E2;}
	.st53{fill:#E0044D;}
	.st54{fill:#3B267C;}
	.st55{fill:#DD1937;}
	.st56{fill:#01B3FE;}
	.st57{fill:#454545;}
	.st58{fill:#AB56B3;}
	.st59{fill:#031A28;}
	.st60{fill:#53CD8E;}
	.st61{fill:#1B0E65;}
	.st62{fill:#060250;}
	.st63{fill:#02AA47;}
	.st64{fill:#060605;}
	.st65{fill:#221E5D;}
	.st66{fill:#F2574D;}
	.st67{fill:#FE6F05;}
	.st68{fill:#D2D1D0;}
</style>
<g id="_x33_tLkZm_2_">
	<g>
		<path class="st0" d="M12.6,6c0,4.6,0,9,0,13.5c-1.9,0-3.8,0-5.8,0c0-4.5,0-9,0-13.5c-0.4,0-0.7,0-1,0c0,4.5,0,8.9,0,13.5
			c-2,0-3.9,0-5.8,0C0,13,0,6.6,0,0c0.2,0,0.4,0,0.6,0c4.6,0,9.2,0,13.8,0c0.5,0,0.8,0.1,1.1,0.5c1.2,1.2,2.4,2.4,3.6,3.6
			c0.2,0.2,0.4,0.5,0.4,0.8c0,4.8,0,9.5,0,14.3c0,0.1,0,0.2,0,0.3c-2,0-3.9,0-6,0c0-0.3,0-0.5,0-0.7c0-3.7,0-7.4,0-11.2
			C13.5,6.9,13.2,6.5,12.6,6z"/>
		<path class="st0" d="M13.5,26.4c-4.6,0-9,0-13.5,0c0-2,0-3.9,0-5.9c6.5,0,12.9,0,19.4,0c0,0.9,0,1.8,0,2.7c0,1.7,0,3.4,0,5
			c0,0.3-0.2,0.7-0.4,0.9c-1.2,1.2-2.5,2.5-3.7,3.7c-0.2,0.2-0.6,0.3-0.9,0.3c-2.3,0-4.7,0.1-7,0c-0.7,0-1.1,0.3-1.6,0.9
			c4.6,0,9,0,13.5,0c0,2,0,3.9,0,5.9c-6.4,0-12.9,0-19.4,0c0-0.2,0-0.4,0-0.6c0-2.4,0-4.8,0-7.3c0-0.3,0.1-0.7,0.3-0.9
			c1.2-1.2,2.4-2.4,3.6-3.6c0.2-0.2,0.5-0.3,0.8-0.3c2.3,0,4.7-0.1,7,0C12.6,27.5,13,27.1,13.5,26.4z"/>
		<path class="st0" d="M33,7c0,1.9,0,3.8,0,5.7c-2.2,0-4.4,0-6.8,0c0.5,0.6,0.8,1,1.6,1c1.8-0.1,3.6,0,5.4,0c0.2,0,0.5,0,0.7,0
			c0-0.2,0-0.4,0-0.6c0-1.8,0-3.7,0-5.5C34,6.7,33.3,6,32.5,6C28.7,6,25,6,21.2,6c-0.2,0-0.5,0-0.7,0c0-2,0-4,0-6c0.2,0,0.5,0,0.7,0
			c4.6,0,9.1,0,13.7,0c0.3,0,0.7,0.2,1,0.4c1.2,1.2,2.5,2.4,3.7,3.7c0.2,0.2,0.4,0.5,0.4,0.8c0,4.7,0,9.5,0,14.2c0,0.1,0,0.3,0,0.5
			c-0.2,0-0.4,0-0.6,0c-4.7,0-9.5,0-14.2,0c-0.2,0-0.5-0.1-0.6-0.2c-1.3-1.2-2.5-2.5-3.7-3.7c-0.2-0.2-0.3-0.5-0.3-0.7
			c0-1.1,0-2.2,0-3.3c0-0.2,0.1-0.5,0.3-0.7c1.2-1.2,2.4-2.4,3.7-3.6C24.6,7.1,24.8,7,25.1,7C27.7,7,30.3,7,33,7z"/>
		<path class="st0" d="M39.9,20.6c0,1.3,0,2.6,0,3.8c0,1.3,0,2.6,0,4c0,0.2-0.1,0.5-0.3,0.7c-1.3,1.3-2.6,2.6-3.9,3.9
			c-0.1,0.1-0.4,0.3-0.5,0.3c-2.6,0-5.2,0-7.8,0c-0.1,0-0.1,0-0.2-0.1c0-1.9,0-3.8,0-5.7c0.9,0,1.7,0,2.6,0c0.8,0,1.6-0.1,2.5,0
			c0.8,0.1,1.3-0.3,1.7-0.9c-0.2,0-0.3-0.1-0.5-0.1c-1.9,0-3.9,0-5.8,0c-0.7,0-1.4,0.7-1.4,1.4c0,2.1,0,4.1,0,6.3
			c4.6,0,9.1,0,13.7,0c0,2,0,3.9,0,5.9c-0.2,0-0.5,0-0.7,0c-4.6,0-9.3,0-13.9,0c-0.3,0-0.7-0.2-1-0.4c-1.2-1.1-2.4-2.3-3.5-3.5
			c-0.2-0.2-0.4-0.6-0.4-0.9c0-3.4,0-6.8,0-10.2c0-0.2,0.1-0.5,0.3-0.6c1.2-1.2,2.5-2.5,3.7-3.7c0.2-0.2,0.4-0.3,0.7-0.3
			c4.8,0,9.6,0,14.4,0C39.6,20.5,39.7,20.6,39.9,20.6z"/>
	</g>
</g>
</svg>
