<?xml version="1.0" encoding="utf-8"?>
<!-- Generator: Adobe Illustrator 28.0.0, SVG Export Plug-In . SVG Version: 6.00 Build 0)  -->
<svg version="1.1" id="Layer_1" xmlns="http://www.w3.org/2000/svg" xmlns:xlink="http://www.w3.org/1999/xlink" x="0px" y="0px"
	 viewBox="0 0 800.43 152.26" style="enable-background:new 0 0 800.43 152.26;" xml:space="preserve">
<style type="text/css">
	.st0{fill:#D3E7F7;}
</style>
<g>
	<path class="st0" d="M4.11,3.87c47.19,0,94.37,0,141.86,0c0,39.22,0,78,0,117.18c-18.17,0-36.2,0-54.71,0c0-23.07,0-46.16,0-69.7
		c-10.62,0-20.78,0-31.45,0c0,23.27,0,46.35,0,69.71c-18.91,0-37.3,0-55.7,0C4.11,82,4.11,42.94,4.11,3.87z"/>
	<path class="st0" d="M275.7,75.72c0-24.6,0-47.86,0-71.52c8.68,0,17.02,0,25.63,0c0,38.95,0,77.75,0,117.19
		c-7.01,0-13.78,0.19-20.53-0.15c-1.39-0.07-2.94-1.9-3.99-3.25c-16.88-21.93-33.7-43.92-50.53-65.89c-0.8-1.05-1.65-2.06-3.33-4.14
		c0,25.07,0,49.02,0,73.17c-8.96,0-17.18,0-25.67,0c0-39.13,0-77.92,0-117.3c7.64,0,15.08-0.17,22.5,0.15
		c1.37,0.06,2.9,1.91,3.93,3.26c15.85,20.84,31.62,41.74,47.42,62.63C272.33,71.44,273.57,72.99,275.7,75.72z"/>
	<path class="st0" d="M728.32,110.51c0,12.95,0,24.82,0,37.07c-8.48,0-16.7,0-25.28,0c0-38.42,0-76.85,0-115.53
		c8.34,0,16.42,0,25.12,0c0,3.53,0,7.04,0,10.54c0.93,0,1.41,0.13,1.52-0.02c16.21-21.3,54.78-15.12,64.73,15.73
		c4.84,15.03,4.31,30.03-3.26,44.23c-12.44,23.33-44.62,27.26-60.52,9.86C730.22,111.93,729.68,111.6,728.32,110.51z M771.5,76.78
		c0.08-16.35-11.99-27.41-26.49-24.28c-11.6,2.51-19.15,16-16.46,29.45c2.32,11.62,10.37,19.15,20.68,19.34
		C762.16,101.54,771.43,91.33,771.5,76.78z"/>
	<path class="st0" d="M623.85,110.65c0,12.89,0,24.74,0,36.93c-8.66,0-16.87,0-25.4,0c0-38.4,0-76.69,0-115.39
		c8.18,0,16.37,0,25.06,0c0.16,3.52,0.31,7.03,0.51,11.47c6.21-6.95,12.66-11.69,21.13-12.92c19.49-2.85,37.03,7.26,43.93,25.66
		c4.81,12.82,4.84,25.93,0.62,38.9C680.51,123.55,644.82,132.82,623.85,110.65z M644.98,101.3c13.06,0.05,22.79-11.47,21.92-25.96
		c-0.72-12.01-7.73-21.11-17.65-22.91c-13.08-2.38-23.51,5.99-25.68,20.61C621.36,87.98,631.4,101.24,644.98,101.3z"/>
	<path class="st0" d="M470.43,121.45c3.57-8.57,6.8-16.32,10.03-24.07c12.39-29.75,24.84-59.48,37.09-89.28
		c1.34-3.26,2.93-4.62,6.53-4.38c6.28,0.41,13.99-1.76,18.5,1.14c4.27,2.75,5.26,10.6,7.62,16.24
		c13.17,31.57,26.32,63.16,39.46,94.74c0.62,1.5,1.18,3.03,2.13,5.5c-8.93,0-17.29,0.1-25.63-0.14c-0.93-0.03-2.11-1.86-2.64-3.08
		c-2.81-6.52-5.32-13.18-8.27-19.65c-0.64-1.41-2.63-3.11-4.03-3.14c-14.3-0.23-28.61-0.14-43.4-0.14c-3,7.25-6.19,14.46-8.95,21.83
		c-1.22,3.25-2.77,4.68-6.45,4.51C485.47,121.23,478.49,121.45,470.43,121.45z M546.23,72.3c-5.18-12.57-10.07-24.45-15.36-37.28
		c-5.33,13.01-10.23,24.95-15.28,37.28C526.07,72.3,535.69,72.3,546.23,72.3z"/>
	<path class="st0" d="M401.53,85.46c-20.82,0-41.07,0-62.07,0c1.31,6.78,4.33,11.92,10.18,14.65c12.3,5.73,23.24,2.39,33.3-6.35
		c4.85,4.24,9.55,8.36,14.56,12.74c-6.8,8.75-15.49,14.08-26.14,15.84c-18.75,3.11-35.61-0.53-47.98-15.98
		c-20.95-26.18-7.36-67.34,24.5-75c26.86-6.46,51.06,10.97,53.59,38.76C401.91,75,401.53,79.95,401.53,85.46z M376.6,69.31
		c-1.29-11.61-8.85-18.92-18.73-18.67c-9.86,0.25-17.8,8.29-18.26,18.67C351.86,69.31,364.09,69.31,376.6,69.31z"/>
	<path class="st0" d="M443.35,31.67c7.2,0,13.8,0,20.76,0c0,7.39,0,14.39,0,21.85c-6.61,0-13.2,0-20.64,0c0,2.98,0,5.54,0,8.1
		c0,9.6-0.02,19.2,0.01,28.79c0.02,8.12,2.94,10.79,11.07,9.74c3.08-0.4,6.06-1.51,9.77-2.48c0,6.14,0.13,12.16-0.12,18.16
		c-0.05,1.1-1.39,2.61-2.51,3.14c-10.23,4.83-20.89,5.74-31.42,1.49c-9.9-4-12.29-12.92-12.51-22.42
		c-0.29-12.74-0.08-25.48-0.09-38.23c0-1.8,0-3.6,0-5.86c-3.57-0.18-6.82-0.34-10.44-0.51c0-7.12,0-14.12,0-21.63
		c3.46,0,6.7,0,10.37,0c0-7.72,0-14.93,0-22.5c8.66,0,16.89,0,25.74,0C443.35,16.61,443.35,23.95,443.35,31.67z"/>
</g>
</svg>
