<?xml version="1.0" encoding="utf-8"?>
<!-- Generator: Adobe Illustrator 25.2.1, SVG Export Plug-In . SVG Version: 6.00 Build 0)  -->
<svg version="1.1" id="Layer_1" xmlns="http://www.w3.org/2000/svg" xmlns:xlink="http://www.w3.org/1999/xlink" x="0px" y="0px"
	 viewBox="0 0 76.8 20.5" style="enable-background:new 0 0 76.8 20.5;" xml:space="preserve">
<style type="text/css">
	.st0{fill:#D3E7F7;}
	.st1{fill:#0155A1;}
	.st2{fill:#FBA702;}
	.st3{fill:#FCFEFF;}
	.st4{fill:#036ED4;}
	.st5{fill:#006CD3;}
	.st6{fill:#050306;}
	.st7{fill:#03B1AE;}
	.st8{fill:#00AD39;}
	.st9{fill:#FF495C;}
	.st10{fill:#017EAE;}
	.st11{fill:#CA4929;}
	.st12{fill:#F59001;}
	.st13{fill:#CDD0D2;}
	.st14{fill:#0863FF;}
	.st15{fill:#F14D02;}
	.st16{fill:#FED853;}
	.st17{fill:#2C323B;}
	.st18{fill:#EE5B65;}
	.st19{fill:#32B3E8;}
	.st20{fill:#2A8AC6;}
	.st21{fill:#D6445D;}
	.st22{fill:#960A2C;}
	.st23{fill:#010101;}
	.st24{fill:#D72B11;}
	.st25{fill:#E41231;}
	.st26{fill:#F01523;}
	.st27{fill:#93DD01;}
	.st28{fill:#249633;}
	.st29{fill:#242424;}
	.st30{fill:#C80126;}
	.st31{fill:#020202;}
	.st32{fill:#959798;}
	.st33{fill:#EE1818;}
	.st34{fill:#242021;}
	.st35{fill:#002A3B;}
	.st36{fill:#205053;}
	.st37{fill:#235153;}
	.st38{fill:#15AA9E;}
	.st39{fill:#09AC9D;}
	.st40{fill:#05716B;}
	.st41{fill:#F49200;}
	.st42{fill:#E25100;}
	.st43{fill:#0223FE;}
	.st44{fill:#04CBFE;}
	.st45{fill:#F47264;}
	.st46{fill:#F24731;}
	.st47{fill:#F8A197;}
	.st48{fill:#233240;}
	.st49{fill:#FE6D52;}
	.st50{fill:#124FFF;}
	.st51{fill:#F56D58;}
	.st52{fill:#75C4E2;}
	.st53{fill:#E0044D;}
	.st54{fill:#3B267C;}
	.st55{fill:#DD1937;}
	.st56{fill:#01B3FE;}
	.st57{fill:#454545;}
	.st58{fill:#AB56B3;}
	.st59{fill:#031A28;}
	.st60{fill:#53CD8E;}
	.st61{fill:#1B0E65;}
	.st62{fill:#060250;}
	.st63{fill:#02AA47;}
	.st64{fill:#060605;}
	.st65{fill:#221E5D;}
	.st66{fill:#F2574D;}
	.st67{fill:#FE6F05;}
	.st68{fill:#D2D1D0;}
</style>
<g>
	<path class="st0" d="M21.5,20.5c-0.6-0.1-1.1-0.1-1.7-0.3c-3.2-0.7-4.6-3.1-5-5.5c-0.3-1.8-0.2-3.6,0.6-5.3
		c1.1-2.1,2.8-3.3,5.2-3.5c1.4-0.1,2.7,0,4,0.7c1.9,1,2.9,2.6,3.3,4.6c0.2,0.9,0.2,1.9,0.2,2.8c0,0.3-0.1,0.4-0.4,0.4
		c-1,0-1.9,0-2.9,0c-1.6,0-3.2,0-4.8,0c-0.2,0-0.4,0-0.6,0c-0.5,0.1-0.7,0.3-0.5,0.8c0.3,0.9,1,1.5,1.9,1.7c0.6,0.1,1.1,0,1.7,0
		c0.5,0,0.8-0.3,1.1-0.7c0.2-0.2,0.4-0.3,0.7-0.3c0.9,0,1.8,0,2.6,0c0.4,0,0.6,0.2,0.5,0.6c-0.6,2.1-2.1,3.3-4.2,3.7
		c-0.5,0.1-1,0.1-1.5,0.2C21.7,20.5,21.6,20.5,21.5,20.5z M21.5,11.8C21.5,11.8,21.5,11.8,21.5,11.8c0.7,0,1.3,0,2,0
		c0.3,0,0.6-0.2,0.5-0.5c-0.2-0.8-0.6-1.6-1.4-1.9c-1.4-0.5-3.2-0.2-3.7,1.7c-0.1,0.3,0,0.5,0.3,0.6c0.2,0.1,0.3,0.1,0.5,0.1
		C20.2,11.8,20.9,11.8,21.5,11.8z"/>
	<path class="st0" d="M64.3,14.5c-1.4,0-2.7,0-4.1,0c-0.4,0-0.6,0.3-0.5,0.7c0.3,1,1.3,1.9,2.4,1.9c1,0.1,1.9-0.1,2.6-1
		C64.7,16,64.9,16,65,16c0.9,0,1.8,0,2.7,0c0.5,0,0.7,0.2,0.5,0.7c-0.3,0.9-0.8,1.7-1.5,2.3C66,19.7,65,20.1,64,20.3
		c-1.6,0.2-3.1,0.2-4.6-0.4c-2-0.8-3.2-2.4-3.7-4.4c-0.5-2.3-0.4-4.6,0.9-6.6c1.2-1.9,2.9-2.8,5.1-2.9c1,0,2,0,3,0.4
		c2.2,0.9,3.4,2.5,3.9,4.7c0.2,0.9,0.2,1.9,0.3,2.9c0,0.4-0.1,0.5-0.5,0.5C67,14.4,65.6,14.4,64.3,14.5
		C64.3,14.5,64.3,14.5,64.3,14.5z M62.2,11.8c0.7,0,1.3,0,2,0c0.3,0,0.6-0.3,0.6-0.5c-0.2-0.9-0.6-1.6-1.6-2c-1.2-0.4-3-0.2-3.5,1.7
		c-0.1,0.4,0.1,0.7,0.5,0.7C60.8,11.8,61.5,11.8,62.2,11.8z"/>
	<path class="st0" d="M0,13.1C0,11,0,8.9,0,6.7c0-0.4,0.1-0.5,0.5-0.6c0.9,0,1.8,0,2.7,0c0.3,0,0.4,0.2,0.5,0.4C4,7.5,4,7.4,4.7,6.9
		c1-0.7,2-1,3.2-1c1.2,0,2.2,0.2,3.2,0.9c1.2,0.9,1.8,2.1,2,3.6c0.1,1.2,0.1,2.4,0.1,3.6c0,1.9,0,3.7,0,5.6c0,0.4-0.1,0.5-0.5,0.5
		c-1,0-2,0-3.1,0c-0.3,0-0.4-0.1-0.4-0.5c0-2.5,0-5,0-7.5c0-0.4,0-0.8-0.1-1.2c-0.1-0.8-0.8-1.6-1.6-1.7c-0.6,0-1.2,0-1.7,0.1
		C4.7,9.7,4.2,10.6,4,11.7c-0.1,0.7-0.1,1.4-0.1,2.1c0,2,0,3.9-0.1,5.9c0,0.3-0.1,0.5-0.5,0.5c-1,0-2,0-2.9,0C0.1,20.1,0,20,0,19.6
		C0,17.4,0,15.3,0,13.1z"/>
	<path class="st0" d="M51.7,12.9c0,1,0,2,0,3c0,0.6,0.2,0.8,0.8,0.9c0.5,0,1.1,0,1.6,0.1c0.6,0,0.7,0.1,0.7,0.7c0,0.7,0,1.4,0,2.1
		c0,0.4-0.1,0.5-0.5,0.5c-1.1,0-2.2,0-3.4-0.1c-1.7-0.2-3.1-1.8-3.1-3.6c0-2.2,0-4.3-0.1-6.5c0-0.6-0.1-0.7-0.7-0.8
		c-0.2,0-0.5,0-0.7,0c-0.2,0-0.4-0.1-0.4-0.4c0-0.8,0-1.6,0-2.3c0-0.3,0.2-0.4,0.4-0.4c0.3,0,0.5,0,0.8,0c0.4,0,0.7-0.2,0.7-0.7
		c0-0.8,0-1.6,0-2.4c0-0.3,0.1-0.4,0.4-0.4c1.1,0,2.1,0,3.2,0c0.2,0,0.3,0.1,0.3,0.4c0,0.8,0,1.7,0,2.5c0,0.3,0.1,0.5,0.4,0.5
		c0.2,0,0.3,0.1,0.5,0.1c0.6,0,1.3,0,1.9,0c0.3,0,0.5,0.1,0.5,0.5c0,0.7,0,1.5,0,2.2c0,0.4-0.1,0.5-0.5,0.5c-0.7,0-1.4,0-2.1,0
		c-0.4,0-0.6,0.2-0.6,0.6C51.6,11,51.6,11.9,51.7,12.9C51.6,12.9,51.6,12.9,51.7,12.9z"/>
	<path class="st0" d="M70.4,8.6c0-2.7,0-5.4,0-8c0-0.4,0.1-0.5,0.5-0.5c0.9,0,1.9,0,2.8,0c0.5,0,0.6,0.1,0.6,0.6c0,4.5,0,9,0,13.5
		c0,0.6,0,1.2,0.1,1.9c0,0.7,0.3,0.9,1,0.9c0.3,0,0.6,0,1,0c0.4,0,0.5,0.1,0.5,0.5c0,0.8,0,1.7,0,2.5c0,0.2-0.1,0.3-0.3,0.3
		c-1.1,0-2.2,0-3.2-0.2c-1.4-0.3-2.2-1.3-2.7-2.6c-0.1-0.4-0.2-0.8-0.2-1.2C70.4,13.7,70.4,11.2,70.4,8.6
		C70.4,8.6,70.4,8.6,70.4,8.6z"/>
	<path class="st0" d="M30.4,6.2c0.8-0.3,1.3,0.2,1.8,1c1.3,1.8,2.7,3.6,4.1,5.4c0.3,0.4,0.3,1,0,1.3c-1.6,2-3.1,4-4.6,6.1
		c-0.1,0.2-0.3,0.3-0.5,0.3c-0.6,0-1.2,0-1.8,0c-0.5,0-0.7-0.1-0.7-0.7c0-0.6,0-1.1,0-1.7c0-0.1,0.1-0.3,0.2-0.4
		c0.9-1.3,1.9-2.5,2.9-3.8c0.2-0.3,0.2-0.5,0-0.8c-0.8-1.1-1.6-2.2-2.5-3.3c-0.4-0.5-0.6-1-0.5-1.6c0-0.4,0-0.7,0-1.1
		c0-0.4,0.1-0.5,0.5-0.5C29.6,6.1,29.9,6.2,30.4,6.2z"/>
	<path class="st0" d="M44.8,7.7c0.2,0.7-0.2,1.3-0.7,1.9c-0.8,1-1.6,2.1-2.4,3.1c-0.2,0.2-0.2,0.4,0,0.6c1,1.3,1.9,2.5,2.8,3.8
		c0.1,0.2,0.2,0.4,0.2,0.6c0,0.6,0,1.2,0,1.8c0,0.4-0.1,0.5-0.5,0.5c-0.7,0-1.4,0-2.1,0c-0.1,0-0.3-0.2-0.4-0.3
		c-1.2-1.6-2.4-3.1-3.6-4.7c-0.4-0.5-0.7-0.9-1.1-1.4c-0.2-0.3-0.2-0.9,0-1.2c1.6-2.1,3.2-4.1,4.7-6.2c0.1-0.1,0.2-0.2,0.3-0.2
		c0.7,0,1.5,0,2.2,0c0.3,0,0.4,0.1,0.4,0.4C44.8,6.9,44.8,7.3,44.8,7.7z"/>
</g>
</svg>
