<?xml version="1.0" encoding="utf-8"?>
<!-- Generator: Adobe Illustrator 25.2.1, SVG Export Plug-In . SVG Version: 6.00 Build 0)  -->
<svg version="1.1" id="Layer_1" xmlns="http://www.w3.org/2000/svg" xmlns:xlink="http://www.w3.org/1999/xlink" x="0px" y="0px"
	 viewBox="0 0 68.3 12.5" style="enable-background:new 0 0 68.3 12.5;" xml:space="preserve">
<style type="text/css">
	.st0{fill:#D3E7F7;}
	.st1{fill:#0155A1;}
	.st2{fill:#FBA702;}
	.st3{fill:#FCFEFF;}
	.st4{fill:#036ED4;}
	.st5{fill:#006CD3;}
	.st6{fill:#050306;}
	.st7{fill:#03B1AE;}
	.st8{fill:#00AD39;}
	.st9{fill:#FF495C;}
	.st10{fill:#017EAE;}
	.st11{fill:#CA4929;}
	.st12{fill:#F59001;}
	.st13{fill:#CDD0D2;}
	.st14{fill:#0863FF;}
	.st15{fill:#F14D02;}
	.st16{fill:#FED853;}
	.st17{fill:#2C323B;}
	.st18{fill:#EE5B65;}
	.st19{fill:#32B3E8;}
	.st20{fill:#2A8AC6;}
	.st21{fill:#D6445D;}
	.st22{fill:#960A2C;}
	.st23{fill:#010101;}
	.st24{fill:#D72B11;}
	.st25{fill:#E41231;}
	.st26{fill:#F01523;}
	.st27{fill:#93DD01;}
	.st28{fill:#249633;}
	.st29{fill:#242424;}
	.st30{fill:#C80126;}
	.st31{fill:#020202;}
	.st32{fill:#959798;}
	.st33{fill:#EE1818;}
	.st34{fill:#242021;}
	.st35{fill:#002A3B;}
	.st36{fill:#205053;}
	.st37{fill:#235153;}
	.st38{fill:#15AA9E;}
	.st39{fill:#09AC9D;}
	.st40{fill:#05716B;}
	.st41{fill:#F49200;}
	.st42{fill:#E25100;}
	.st43{fill:#0223FE;}
	.st44{fill:#04CBFE;}
	.st45{fill:#F47264;}
	.st46{fill:#F24731;}
	.st47{fill:#F8A197;}
	.st48{fill:#233240;}
	.st49{fill:#FE6D52;}
	.st50{fill:#124FFF;}
	.st51{fill:#F56D58;}
	.st52{fill:#75C4E2;}
	.st53{fill:#E0044D;}
	.st54{fill:#3B267C;}
	.st55{fill:#DD1937;}
	.st56{fill:#01B3FE;}
	.st57{fill:#454545;}
	.st58{fill:#AB56B3;}
	.st59{fill:#031A28;}
	.st60{fill:#53CD8E;}
	.st61{fill:#1B0E65;}
	.st62{fill:#060250;}
	.st63{fill:#02AA47;}
	.st64{fill:#060605;}
	.st65{fill:#221E5D;}
	.st66{fill:#F2574D;}
	.st67{fill:#FE6F05;}
	.st68{fill:#D2D1D0;}
</style>
<g>
	<path class="st33" d="M20.8,0c0,0.1,0,0.2,0,0.3c0,3.3,0,6.5,0,9.8c0,0.4,0,0.9,0,1.3c0,0.4,0.2,0.7,0.6,0.8c0.1,0,0.2,0,0.2,0.1
		c0,0-0.1,0-0.1,0c-1,0-2,0-3.1,0c0,0-0.1,0-0.1,0c0-0.1,0.1-0.1,0.1-0.1c0,0,0.1,0,0.1-0.1c0.4-0.1,0.6-0.5,0.6-0.9
		c0-0.3,0.1-0.6,0.1-0.9c0-2.9,0-5.7,0-8.6c0-0.3,0-0.7,0-1c0-0.4-0.3-0.6-0.6-0.7c0,0-0.1,0-0.1,0C19.3,0,20,0,20.8,0z"/>
	<path class="st34" d="M56.4,12.1c-1.1,0-2.2,0-3.3,0c0,0,0,0,0,0c0.1-0.1,0.2-0.1,0.4-0.1c0.2-0.1,0.4-0.2,0.4-0.5
		C54,11,54,10.6,54,10.2c0-1.5,0-3,0-4.5c0-0.1,0-0.3,0-0.4c0-0.4-0.3-0.6-0.6-0.7c-0.1,0-0.1,0-0.2-0.1c0,0,0.1,0,0.1,0
		c0.7,0,1.4,0,2.1,0c0.1,0,0.1,0,0.1,0.1c0,0.5,0,0.9,0,1.4c0,0,0,0.1,0,0.1c0.1,0,0-0.1,0.1-0.1c0.4-1.1,1.1-1.7,2.3-1.8
		c0.6-0.1,1.1,0,1.6,0.4C59.8,5.1,60,5.5,60.1,6c0,0.1,0,0.2,0,0.3c0.1-0.2,0.1-0.4,0.2-0.5c0.5-1,1.5-1.6,2.6-1.5
		c0.2,0,0.4,0.1,0.6,0.1c0.7,0.2,1,0.7,1.2,1.4c0.1,0.3,0.1,0.6,0.1,0.9c0,1.2,0,2.4,0,3.6c0,0.3,0,0.6,0.1,0.9
		c0.1,0.4,0.2,0.6,0.6,0.7c0.1,0,0.2,0,0.3,0.1c-1,0-2.1,0-3.1,0c0,0,0.1,0,0.1-0.1c0.3-0.1,0.4-0.3,0.5-0.5c0.1-0.3,0.1-0.7,0.1-1
		c0-1.3,0-2.6,0-3.9c0-0.3,0-0.5-0.1-0.8c-0.1-0.8-0.8-1.1-1.5-0.9c-0.7,0.2-1.1,0.7-1.3,1.4c-0.1,0.4-0.1,0.7-0.2,1.1
		c0,1.2,0,2.3,0,3.5c0,0.2,0,0.5,0.1,0.7c0.1,0.2,0.2,0.4,0.4,0.4c0.1,0,0.3,0.1,0.4,0.2c-1.1,0-2.2,0-3.3,0c0,0,0,0,0,0
		c0.1,0,0.2-0.1,0.4-0.1c0.2-0.1,0.4-0.3,0.4-0.5c0.1-0.3,0.1-0.6,0.1-0.8c0-1.4,0-2.8,0-4.2c0-0.2,0-0.4-0.1-0.6
		c-0.2-0.8-0.9-1.2-1.7-0.9c-0.6,0.2-1,0.7-1.2,1.4c-0.1,0.4-0.2,0.8-0.2,1.2c0,1.1,0,2.3,0,3.4c0,0.2,0,0.4,0.1,0.6
		c0.1,0.2,0.2,0.4,0.4,0.4C56.2,11.9,56.3,12,56.4,12.1C56.5,12.1,56.5,12.1,56.4,12.1z"/>
	<path class="st33" d="M15.8,7.6C16,7.4,16,7.2,16,7c0-0.5,0-1.1,0-1.6c0-0.5-0.2-0.7-0.7-0.7c-0.3,0-0.6,0-0.9,0.1
		C14.1,4.9,14,5.1,14,5.4c0,0.2,0,0.5,0,0.7c-0.1,0.3-0.3,0.5-0.6,0.6c-0.1,0-0.2,0-0.3,0c-0.3,0-0.5-0.2-0.5-0.5
		c-0.1-0.5,0.2-0.9,0.6-1.1c0.6-0.4,1.4-0.5,2.1-0.5c0.5,0,1,0.1,1.5,0.3c0.6,0.3,0.9,0.8,0.9,1.5c0,1.4,0,2.7,0,4.1
		c0,0.4,0,0.7,0,1.1c0,0.4,0.3,0.7,0.8,0.6c0,0,0,0,0.1,0c0,0,0,0,0,0c-0.5,0.2-1,0.2-1.5,0.2c-0.1,0-0.2,0-0.3,0
		c-0.3,0-0.5-0.2-0.6-0.5c-0.1-0.2-0.1-0.4-0.1-0.7c0,0.1-0.1,0.2-0.1,0.2c-0.3,0.6-0.9,0.9-1.6,1c-0.5,0-0.9,0-1.3-0.3
		c-0.7-0.4-0.9-1-0.9-1.8c0-0.7,0.5-1.1,1.1-1.4c0.4-0.2,0.7-0.2,1.1-0.4c0.3-0.1,0.6-0.2,0.9-0.4C15.3,8.1,15.6,7.9,15.8,7.6
		c0,0.1,0,0.1,0,0.1c-0.1,0.2-0.3,0.3-0.5,0.5c-0.3,0.2-0.6,0.3-0.8,0.5c-0.3,0.2-0.5,0.4-0.6,0.7c-0.1,0.2-0.2,0.5-0.2,0.8
		c0,0.5,0,0.9,0.2,1.3c0.3,0.6,1.1,0.7,1.6,0.2c0.3-0.3,0.5-0.7,0.5-1.2c0-0.9,0-1.9,0-2.8C15.9,7.7,15.9,7.7,15.8,7.6
		C15.9,7.6,15.8,7.7,15.8,7.6C15.8,7.7,15.8,7.7,15.8,7.6z"/>
	<path class="st34" d="M46.3,8.1c0-1.1,0.5-2.2,1.7-3c1.3-0.9,2.9-0.9,4.1,0.1C53,5.9,53.5,6.9,53.6,8c0.1,1.1-0.2,2.1-0.9,2.9
		c-0.8,0.9-1.7,1.4-2.9,1.4c-0.9,0-1.6-0.4-2.2-1C46.7,10.6,46.4,9.6,46.3,8.1z M48,8.4c0,0.4,0,0.7,0.1,1.1
		c0.1,0.6,0.2,1.2,0.5,1.8c0.1,0.3,0.3,0.5,0.5,0.7c0.7,0.6,1.9,0.3,2.3-0.5c0.4-0.7,0.5-1.6,0.6-2.4c0.1-0.6,0-1.3-0.1-1.9
		c-0.1-0.6-0.2-1.1-0.5-1.6C51,4.4,50,4.4,49.3,4.7c-0.4,0.2-0.6,0.6-0.8,1C48.1,6.5,48,7.5,48,8.4z"/>
	<path class="st34" d="M33.2,8.3c0,1.5-0.7,2.9-2.1,3.6c-0.6,0.3-1.2,0.5-1.9,0.4c-0.9-0.1-1.6-0.5-2.2-1.1
		c-1.5-1.6-1.4-4.3,0.2-5.7c0.7-0.7,1.6-1,2.6-1c1.5,0.1,2.6,0.9,3.2,2.3C33.1,7.3,33.1,7.8,33.2,8.3z M31.6,8.4c0-0.2,0-0.4,0-0.7
		C31.4,7,31.3,6.4,31,5.7c-0.3-0.6-0.7-1.1-1.5-1.1c-0.6,0-1.1,0.2-1.4,0.7C28,5.6,27.8,6,27.7,6.4c-0.3,1.1-0.3,2.3-0.1,3.4
		c0.1,0.6,0.2,1.1,0.5,1.6c0.5,0.9,1.5,0.9,2.1,0.7c0.4-0.2,0.7-0.6,0.9-1C31.4,10.3,31.5,9.4,31.6,8.4z"/>
	<path class="st33" d="M9.6,7.9c-0.7,0-1.5,0-2.2,0c-0.1,0-0.1,0-0.1,0.1c0,0.8,0,1.7,0.2,2.5c0.1,0.4,0.3,0.8,0.5,1.1
		c0.4,0.5,0.9,0.7,1.5,0.6c1-0.1,1.6-0.7,2-1.5c0.1-0.3,0.2-0.5,0.3-0.8c0,0,0-0.1,0.1-0.1c0.1,0,0,0.1,0,0.1
		c-0.2,0.7-0.4,1.3-0.9,1.8c-0.5,0.5-1.1,0.7-1.7,0.7c-0.6,0-1.2-0.1-1.8-0.3c-0.8-0.3-1.3-1-1.5-1.7C5.6,9.5,5.6,8.8,5.6,8
		c0-0.7,0.2-1.3,0.6-1.9c0.6-1,1.5-1.5,2.6-1.6c0.7,0,1.4,0.1,2,0.5c0.7,0.5,1,1.1,1.2,1.9c0,0.3,0,0.6-0.1,0.8c0,0,0,0.1-0.1,0.1
		c0,0-0.1,0-0.1,0C11,7.9,10.3,7.9,9.6,7.9z M8.7,7.7c0.4,0,0.9,0,1.3,0c0.3,0,0.4-0.1,0.4-0.4c0-0.5,0-1-0.1-1.5
		C10.1,5.5,10,5.2,9.8,5C9.5,4.6,9.1,4.5,8.7,4.5C8.4,4.6,8.2,4.6,8,4.8C7.8,5,7.6,5.2,7.5,5.5C7.3,6.2,7.3,6.9,7.2,7.6
		c0,0.1,0,0.1,0.1,0.1C7.8,7.7,8.2,7.7,8.7,7.7z"/>
	<path class="st33" d="M0.1,4.7c0,0,0.1,0,0.1,0c0.7,0,1.3,0,2,0c0.1,0,0.2,0,0.2,0.2c0,0.6,0,1.2,0,1.8c0.1-0.3,0.2-0.6,0.3-0.8
		C3,5.3,3.4,4.9,3.9,4.7c0.4-0.2,0.8-0.2,1.2-0.1C5.4,4.8,5.6,5,5.6,5.4c0,0.2,0,0.3,0,0.5C5.5,6.4,4.8,6.6,4.4,6.2
		C4.2,6,4.1,5.8,4,5.5C3.9,5,3.6,5.1,3.4,5.3c-0.4,0.4-0.7,1-0.8,1.5C2.5,7.2,2.5,7.6,2.5,8c0,1,0,1.9,0,2.9c0,0.3,0,0.5,0.1,0.7
		C2.6,11.8,2.7,12,2.9,12c0.1,0.1,0.3,0.1,0.5,0.2c-1.1,0-2.2,0-3.3,0c0,0,0,0,0,0c0.1,0,0.1-0.1,0.2-0.1c0.1,0,0.2-0.1,0.3-0.1
		c0.2-0.1,0.3-0.2,0.3-0.4c0.1-0.3,0.1-0.6,0.1-0.9c0-1.7,0-3.4,0-5.2c0-0.5-0.2-0.7-0.7-0.8C0.2,4.7,0.1,4.7,0.1,4.7z"/>
	<path class="st34" d="M33,4.7c0,0,0.1,0,0.1,0c0.7,0,1.3,0,2,0c0.1,0,0.2,0,0.2,0.2c0,0.6,0,1.2,0,1.8c0-0.1,0.1-0.2,0.1-0.3
		c0.2-0.7,0.6-1.3,1.2-1.7c0.5-0.3,0.9-0.4,1.4-0.1c0.5,0.3,0.7,1.1,0.2,1.5c-0.3,0.3-0.9,0.3-1.1-0.1c-0.2-0.2-0.2-0.4-0.3-0.6
		c0-0.1,0-0.2-0.1-0.2c-0.1-0.1-0.2-0.1-0.4,0c-0.3,0.2-0.4,0.4-0.6,0.7c-0.3,0.5-0.4,1.1-0.4,1.7c0,1.1,0,2.2,0,3.4
		c0,0.2,0,0.4,0.1,0.6c0,0.2,0.2,0.4,0.4,0.4c0.1,0.1,0.3,0.1,0.4,0.2c-1.1,0-2.2,0-3.3,0c0.2-0.1,0.3-0.1,0.4-0.2
		c0.2-0.1,0.4-0.2,0.4-0.5c0.1-0.3,0.1-0.6,0.1-0.8c0-1.7,0-3.4,0-5.2c0-0.5-0.2-0.7-0.7-0.8C33.1,4.7,33,4.7,33,4.7z"/>
	<path class="st34" d="M21.7,4.6c0.1,0,0.2-0.1,0.3-0.1c0.6-0.2,1.1-0.6,1.4-1.2c0.3-0.6,0.6-1.2,0.8-1.8c0,0,0-0.1,0.1-0.1
		c0,0,0,0.1,0,0.1c0,1,0,1.9,0,2.9c0,0.1,0,0.2,0.2,0.2c0.5,0,1,0,1.4,0c0,0,0.1,0,0.1,0c0,0,0.1,0,0.1,0c0,0,0,0,0,0
		c0,0-0.1,0-0.1,0c-0.5,0-1,0-1.5,0c-0.1,0-0.1,0-0.1,0.1c0,2.1-0.1,4.1-0.1,6.2c0,0.2,0,0.4,0.1,0.6c0.1,0.3,0.3,0.5,0.6,0.5
		c0.6,0.1,1-0.2,1.4-0.6c0-0.1,0.1-0.1,0.1-0.2c0,0,0-0.1,0.1-0.1c0.1,0,0,0.1,0,0.1c-0.1,0.2-0.2,0.3-0.4,0.4
		c-0.6,0.5-1.3,0.7-2.1,0.6c-0.7-0.1-1.4-0.7-1.4-1.6c0-1.6,0-3.3,0.1-4.9c0-0.3,0-0.6,0-1c0-0.1,0-0.2-0.1-0.1c-0.3,0-0.5,0-0.8,0
		C21.8,4.7,21.7,4.7,21.7,4.6C21.7,4.7,21.7,4.6,21.7,4.6z"/>
	<path class="st34" d="M41.9,8.1c0,0.9,0,1.7,0.3,2.6c0.1,0.4,0.3,0.8,0.6,1.1c0.3,0.3,0.7,0.4,1.1,0.4c0.9,0,1.5-0.5,2-1.2
		c0.2-0.4,0.4-0.7,0.5-1.1c0,0,0,0,0,0c0,0,0-0.1,0.1-0.1c0.1,0,0,0.1,0,0.1c-0.2,0.6-0.4,1.1-0.8,1.6c-0.4,0.5-0.9,0.8-1.4,0.9
		c-0.6,0.1-1.1,0.1-1.7-0.1c-1.3-0.4-2-1.3-2.2-2.6c-0.1-0.7-0.2-1.5,0-2.2C40.6,6,41.5,5,42.8,4.6c0.9-0.3,1.9-0.1,2.7,0.4
		c0.4,0.2,0.7,0.6,0.7,1c0.1,0.4-0.2,0.8-0.6,0.8c-0.4,0.1-0.8-0.1-0.9-0.5c-0.1-0.3-0.1-0.6-0.2-0.8c0-0.1,0-0.2-0.1-0.3
		c-0.1-0.5-0.4-0.7-0.9-0.7c-0.2,0-0.4,0-0.5,0.1c-0.4,0.1-0.6,0.4-0.7,0.7C42.1,5.9,42,6.4,42,6.9C41.9,7.3,41.9,7.7,41.9,8.1z"/>
	<path class="st34" d="M37.6,11.5c0-0.5,0.4-1,1-1c0.6,0,1,0.4,1,0.9c0,0.5-0.4,1-1,1C38,12.5,37.6,12.1,37.6,11.5z"/>
	<path class="st34" d="M68.3,4.7c0,0.8-0.5,1.3-1.2,1.4c-0.9,0-1.4-0.6-1.4-1.2c0-0.8,0.5-1.4,1.3-1.4C67.8,3.5,68.3,4.1,68.3,4.7z
		 M68.1,4.8c0-0.6-0.6-1.1-1.1-1.1c-0.7,0-1.2,0.6-1.2,1.1c0,0.6,0.6,1.1,1.1,1.1C67.7,5.9,68.1,5.4,68.1,4.8z"/>
	<path class="st33" d="M15.8,7.7C15.8,7.7,15.8,7.7,15.8,7.7C15.8,7.7,15.8,7.7,15.8,7.7C15.8,7.7,15.8,7.7,15.8,7.7
		C15.8,7.7,15.8,7.7,15.8,7.7z"/>
	<path class="st33" d="M18.4,12.1C18.4,12.1,18.5,12.1,18.4,12.1c0.1,0,0.1,0,0.1,0C18.5,12.1,18.5,12.1,18.4,12.1
		C18.4,12.1,18.4,12.1,18.4,12.1z"/>
	<path class="st33" d="M18.5,12.1C18.5,12.1,18.5,12,18.5,12.1C18.6,12,18.6,12.1,18.5,12.1C18.5,12.1,18.5,12.1,18.5,12.1
		C18.5,12.1,18.5,12.1,18.5,12.1z"/>
	<path class="st33" d="M18.5,12C18.6,12,18.6,12,18.5,12C18.6,12,18.6,12.1,18.5,12C18.6,12.1,18.6,12,18.5,12z"/>
	<path class="st34" d="M67.3,4.9c0.1,0.2,0.2,0.3,0.3,0.5c-0.1,0-0.2,0-0.3,0c-0.1,0-0.1,0-0.1-0.1C67.2,5.2,67.1,5.1,67,5
		c0,0,0-0.1-0.1-0.1c-0.2,0-0.2,0-0.2,0.2c0,0,0,0.1,0,0.1c0,0.1,0,0.2-0.2,0.2c-0.1,0-0.2,0-0.2-0.2c0-0.4,0-0.7,0-1.1
		c0-0.1,0-0.1,0.1-0.1c0.2,0,0.3,0,0.5,0c0.3,0,0.5,0.1,0.5,0.4C67.7,4.6,67.6,4.7,67.3,4.9z M67,4.3C67,4.3,67,4.3,67,4.3
		c0,0-0.1,0-0.1,0c0,0-0.1,0-0.1,0.1c0,0.1,0,0.2,0,0.3c0,0,0,0,0.1,0c0.1,0,0.2,0,0.3,0c0.1,0,0.2-0.1,0.2-0.2
		c0-0.1-0.1-0.1-0.2-0.1C67,4.3,67,4.3,67,4.3z"/>
</g>
</svg>
