<?xml version="1.0" encoding="utf-8"?>
<!-- Generator: Adobe Illustrator 25.2.1, SVG Export Plug-In . SVG Version: 6.00 Build 0)  -->
<svg version="1.1" id="Layer_1" xmlns="http://www.w3.org/2000/svg" xmlns:xlink="http://www.w3.org/1999/xlink" x="0px" y="0px"
	 viewBox="0 0 90.4 14.4" style="enable-background:new 0 0 90.4 14.4;" xml:space="preserve">
<style type="text/css">
	.st0{fill:#D3E7F7;}
	.st1{fill:#0155A1;}
	.st2{fill:#FBA702;}
	.st3{fill:#FCFEFF;}
	.st4{fill:#036ED4;}
	.st5{fill:#006CD3;}
	.st6{fill:#050306;}
	.st7{fill:#03B1AE;}
	.st8{fill:#00AD39;}
	.st9{fill:#FF495C;}
	.st10{fill:#017EAE;}
	.st11{fill:#CA4929;}
	.st12{fill:#F59001;}
	.st13{fill:#CDD0D2;}
	.st14{fill:#0863FF;}
	.st15{fill:#F14D02;}
	.st16{fill:#FED853;}
	.st17{fill:#2C323B;}
	.st18{fill:#EE5B65;}
	.st19{fill:#32B3E8;}
	.st20{fill:#2A8AC6;}
	.st21{fill:#D6445D;}
	.st22{fill:#960A2C;}
	.st23{fill:#010101;}
	.st24{fill:#D72B11;}
	.st25{fill:#E41231;}
	.st26{fill:#F01523;}
	.st27{fill:#93DD01;}
	.st28{fill:#249633;}
	.st29{fill:#242424;}
	.st30{fill:#C80126;}
	.st31{fill:#020202;}
	.st32{fill:#959798;}
	.st33{fill:#EE1818;}
	.st34{fill:#242021;}
	.st35{fill:#002A3B;}
	.st36{fill:#205053;}
	.st37{fill:#235153;}
	.st38{fill:#15AA9E;}
	.st39{fill:#09AC9D;}
	.st40{fill:#05716B;}
	.st41{fill:#F49200;}
	.st42{fill:#E25100;}
	.st43{fill:#0223FE;}
	.st44{fill:#04CBFE;}
	.st45{fill:#F47264;}
	.st46{fill:#F24731;}
	.st47{fill:#F8A197;}
	.st48{fill:#233240;}
	.st49{fill:#FE6D52;}
	.st50{fill:#124FFF;}
	.st51{fill:#F56D58;}
	.st52{fill:#75C4E2;}
	.st53{fill:#E0044D;}
	.st54{fill:#3B267C;}
	.st55{fill:#DD1937;}
	.st56{fill:#01B3FE;}
	.st57{fill:#454545;}
	.st58{fill:#AB56B3;}
	.st59{fill:#031A28;}
	.st60{fill:#53CD8E;}
	.st61{fill:#1B0E65;}
	.st62{fill:#060250;}
	.st63{fill:#02AA47;}
	.st64{fill:#060605;}
	.st65{fill:#221E5D;}
	.st66{fill:#F2574D;}
	.st67{fill:#FE6F05;}
	.st68{fill:#D2D1D0;}
</style>
<g>
	<path class="st0" d="M25.8,7.4c0,0.6,0,1.3,0,2c-0.2,1.6-0.8,3.1-2.1,4.1c-0.8,0.6-1.7,0.9-2.7,1c-1.3,0.1-2.4-0.3-3.6-0.9
		c-1.5-0.8-2.9-1.5-4.4-2.3c-0.2-0.1-0.3,0-0.4,0c-1.5,0.8-3.1,1.6-4.6,2.4c-0.9,0.5-1.9,0.7-3,0.7c-1.9,0-3.4-0.9-4.3-2.6
		c-0.5-0.9-0.7-1.9-0.8-3c0-1.1,0-2.1,0-3.2c0-1.6,0.5-3,1.6-4.2c0.9-0.9,2-1.4,3.3-1.5c1.4-0.1,2.6,0.3,3.8,0.9
		c1.3,0.7,2.7,1.3,4,1.9c0.1,0.1,0.2,0.1,0.4,0c1.5-0.7,3.1-1.5,4.6-2.2C18.6,0.2,19.5,0,20.4,0c2.4,0,4.4,1.5,5,3.8
		c0.3,0.9,0.3,1.7,0.3,2.6C25.8,6.7,25.8,7,25.8,7.4z M14.9,4C15,4.1,15,4.1,15.1,4.2c1.8,1.5,1.8,4.4,0,5.9c-0.2,0.1-0.2,0.1,0,0.2
		c1,0.5,2.1,1.1,3.1,1.6c0.8,0.4,1.5,0.7,2.4,0.7c1.2,0,2.1-0.5,2.7-1.5c0.4-0.6,0.6-1.3,0.6-2c0-1.1,0-2.1,0-3.2
		c0-0.6-0.1-1.1-0.3-1.6c-0.4-1.1-1.1-1.9-2.2-2.3c-0.9-0.2-1.7-0.1-2.6,0.2c-0.6,0.2-1.1,0.5-1.7,0.8C16.4,3.3,15.7,3.6,14.9,4z
		 M10.9,4C10.8,4,10.8,4,10.9,4c-1.1-0.5-2-1-3-1.5C7.2,2.2,6.4,1.9,5.6,1.9C4.5,1.8,3.5,2.1,2.8,3C2.1,3.8,1.9,4.7,1.9,5.8
		c0,0.9,0,1.8,0,2.7c0,0.8,0.1,1.5,0.4,2.3c0.4,1,1.2,1.6,2.2,1.8c0.9,0.2,1.7,0,2.5-0.3c1.3-0.6,2.5-1.3,3.8-1.9
		c0.1-0.1,0.1-0.1,0-0.1C9.3,8.9,9,6.8,9.8,5.2C10.1,4.7,10.4,4.4,10.9,4z M12.8,9c0.5,0,0.8-0.1,1.1-0.4c0.8-0.8,0.9-2,0.2-2.8
		c-0.6-0.8-1.8-0.8-2.4,0c-0.4,0.6-0.6,1.2-0.4,1.8C11.5,8.5,12.1,9,12.8,9z"/>
	<path class="st0" d="M56.3,6.5c0-1.3,0-2.7,0-4c0-0.4,0.1-0.7,0.5-0.9c0.1-0.1,0.3-0.1,0.4-0.1c1,0,1.9,0,2.9,0
		c1.2,0.1,2.3,0.4,3.3,1.2c0.8,0.7,1.3,1.6,1.5,2.7c0.2,1.1,0.1,2.1-0.3,3.1c-0.6,1.4-1.6,2.2-3,2.6c-0.6,0.2-1.3,0.3-1.9,0.3
		c-0.8,0-1.6,0-2.5,0c-0.6,0-0.9-0.4-0.9-0.9C56.3,9.2,56.3,7.8,56.3,6.5z M57.9,6.5c0,1.1,0,2.3,0,3.4c0,0.1,0,0.2,0.2,0.2
		c0.5,0,1,0,1.6,0c0.4,0,0.7,0,1.1-0.1c1.2-0.3,2-0.9,2.4-2.1c0.3-0.8,0.3-1.5,0.1-2.3c-0.1-0.7-0.4-1.3-0.9-1.7
		c-0.6-0.6-1.4-0.8-2.3-0.9c-0.7-0.1-1.3,0-2,0c-0.2,0-0.2,0-0.2,0.2C57.9,4.2,57.9,5.4,57.9,6.5z"/>
	<path class="st0" d="M36.3,7.4c0.6,0.7,1.1,1.3,1.6,1.9c0.4,0.5,0.8,0.9,1.1,1.4c0.1,0.2,0.1,0.2,0,0.4c-0.4,0.5-1.1,0.5-1.6,0.1
		c-0.2-0.2-0.4-0.5-0.6-0.7c-0.8-0.9-1.5-1.9-2.3-2.8c-0.1-0.1-0.1-0.1-0.2-0.1c-0.3,0-0.5,0-0.8,0c-0.1,0-0.2,0-0.2,0.2
		c0,1,0,2,0,3c0,0.5-0.2,0.8-0.7,0.8c-0.1,0-0.1,0-0.2,0c-0.4,0-0.6-0.2-0.6-0.6c0-0.1,0-0.2,0-0.3c0-2.7,0-5.4,0-8.1
		c0-0.1,0-0.2,0-0.3c0.1-0.4,0.4-0.6,0.9-0.6c1.1,0,2.2,0,3.3,0c0.5,0,1,0.1,1.5,0.3c1,0.4,1.6,1.2,1.7,2.3c0.1,0.6,0,1.3-0.3,1.8
		c-0.4,0.8-1.2,1.2-2,1.4C36.7,7.4,36.5,7.4,36.3,7.4z M33.5,4.6c0,0.5,0,1.1,0,1.6c0,0.1,0,0.2,0.1,0.2c0.8,0,1.6,0,2.4,0
		c1.1-0.1,1.7-0.7,1.7-1.7c0-0.9-0.4-1.4-1.2-1.7c-0.2-0.1-0.4-0.1-0.7-0.1c-0.7,0-1.5,0-2.2,0c-0.1,0-0.1,0-0.1,0.1
		C33.5,3.5,33.5,4.1,33.5,4.6z"/>
	<path class="st0" d="M74.8,10.4c-0.4,0.5-0.8,0.8-1.3,1c-0.9,0.3-1.7,0.3-2.6,0c-0.8-0.3-1.3-1.1-1.2-2c0.1-1.1,0.7-1.6,1.6-1.9
		c0.7-0.3,1.5-0.4,2.2-0.4c0.4,0,0.8,0,1.2-0.1c0.1,0,0.1,0,0.1-0.2c0-1.1-0.6-1.7-1.7-1.7c-0.9,0-1.7,0.4-2.1,1.2
		c0,0,0,0.1-0.1,0.1c-0.3,0-0.6-0.1-0.8-0.4c-0.2-0.2-0.1-0.5,0-0.8c0.2-0.4,0.6-0.7,1-0.9c1.1-0.5,2.3-0.6,3.5-0.2
		c1,0.3,1.7,1.2,1.7,2.3c0,1,0,2.1,0,3.1c0,0.6,0,1.1,0,1.7c0,0.1,0,0.2-0.2,0.2c-0.2,0.1-0.5,0.1-0.7,0c-0.4-0.1-0.5-0.4-0.6-0.8
		C74.9,10.6,74.9,10.5,74.8,10.4z M74.8,8.4c0-0.1,0-0.2,0-0.2c0-0.1,0-0.2-0.2-0.1c-0.6,0-1.2,0.1-1.8,0.2
		c-0.4,0.1-0.8,0.2-1.2,0.4c-0.4,0.2-0.6,0.6-0.6,1.1c0.1,0.5,0.4,0.7,0.8,0.8c0.3,0.1,0.5,0.1,0.8,0.1C74,10.5,74.9,9.6,74.8,8.4z"
		/>
	<path class="st0" d="M44.6,8.2c-0.9,0-1.7,0-2.6,0c-0.2,0-0.2,0-0.2,0.2c0.3,1.3,1.2,2.1,2.6,2c0.9,0,1.6-0.4,2.1-1.1
		c0-0.1,0.1-0.1,0.2-0.1c0.6,0.1,0.9,0.7,0.5,1.2c-0.2,0.3-0.5,0.5-0.8,0.7c-1.3,0.6-2.6,0.7-3.9,0.1c-1.1-0.4-1.7-1.3-2-2.4
		c-0.3-1.3-0.1-2.5,0.7-3.5c0.8-1.1,2-1.6,3.4-1.4c1.1,0.1,2,0.6,2.6,1.5c0.5,0.7,0.6,1.6,0.6,2.4c0,0.2-0.1,0.3-0.4,0.3
		C46.4,8.2,45.5,8.2,44.6,8.2z M44,7.1c0.7,0,1.4,0,2.1,0c0.1,0,0.2,0,0.2-0.2c-0.2-1.5-1.3-2.2-2.6-1.9c-1,0.2-1.5,0.9-1.7,1.8
		c0,0.1,0,0.2,0.1,0.2C42.6,7.1,43.3,7.1,44,7.1z"/>
	<path class="st0" d="M86.9,9.9c0.2-0.6,0.4-1.1,0.6-1.7c0.4-1.1,0.8-2.2,1.2-3.4c0-0.1,0.1-0.2,0.2-0.4c0.3-0.6,1-0.6,1.5-0.2
		c0.1,0.1,0,0.2,0,0.2c-0.5,1.3-1,2.5-1.4,3.8c-0.7,1.7-1.3,3.5-2,5.2c-0.1,0.2-0.2,0.4-0.3,0.5c-0.4,0.5-1,0.4-1.4,0
		c-0.1-0.1,0-0.1,0-0.2c0.4-0.9,0.7-1.8,1.1-2.7c0-0.1,0-0.1,0.1-0.2c-0.4,0-0.6-0.3-0.7-0.6c-0.8-2-1.7-3.9-2.5-5.8
		c-0.1-0.2,0-0.3,0.1-0.4c0.4-0.4,1.1-0.3,1.4,0.2c0.2,0.3,0.3,0.7,0.5,1.1c0.6,1.4,1.1,2.8,1.6,4.2C86.8,9.8,86.8,9.9,86.9,9.9z"/>
	<path class="st0" d="M51.7,11.6c-0.8,0-1.6-0.1-2.3-0.5c-0.3-0.2-0.6-0.4-0.8-0.7c-0.2-0.4-0.1-0.9,0.3-1.1c0.1,0,0.2,0,0.2,0
		c0.7,0.8,1.7,1.1,2.7,1c0.3,0,0.6-0.1,0.9-0.2c0.3-0.2,0.5-0.4,0.5-0.8c0-0.4-0.2-0.6-0.5-0.7c-0.5-0.2-1-0.3-1.5-0.4
		c-0.5-0.1-0.9-0.2-1.3-0.4c-1.5-0.7-1.3-2.6-0.3-3.3c0.6-0.4,1.2-0.6,1.9-0.7c0.7,0,1.5,0,2.1,0.4c0.3,0.1,0.6,0.3,0.8,0.7
		c0.3,0.4,0.1,0.9-0.3,1.1c-0.1,0.1-0.2,0.1-0.3,0c-0.8-0.9-1.9-1.1-2.9-0.8c-0.5,0.1-0.7,0.5-0.7,0.9c0,0.3,0.2,0.5,0.5,0.7
		C51,6.9,51.4,7,51.9,7.1c0.6,0.1,1.2,0.3,1.8,0.5c1.5,0.7,1.2,2.5,0.4,3.2c-0.6,0.5-1.2,0.7-1.9,0.7C52,11.6,51.8,11.6,51.7,11.6z"
		/>
	<path class="st0" d="M79.7,5.2c0.1-0.3,0.2-0.5,0.4-0.7c0.6-0.7,1.6-0.8,2.1-0.5c0.6,0.2,0.8,1.1,0.3,1.6c-0.1,0.1-0.2,0.1-0.3,0
		c-0.8-0.5-1.7-0.2-2.1,0.6c-0.2,0.4-0.3,0.9-0.3,1.3c-0.1,1,0,2,0,3c0,0.1,0,0.2,0,0.3c0,0.4-0.2,0.6-0.6,0.6c0,0-0.1,0-0.1,0
		c-0.6,0-0.8-0.2-0.8-0.8c0-2.1,0-4.3,0-6.4c0-0.2,0.1-0.2,0.2-0.3c0.6-0.2,1.2,0.1,1.3,0.8C79.6,5,79.7,5.1,79.7,5.2z"/>
	<path class="st0" d="M66.7,7.8c0-1,0-2,0-3c0-0.3,0-0.6,0.3-0.7C67.3,4,67.6,4,68,4.2c0.1,0.1,0.1,0.2,0.2,0.3c0,0.1,0,0.3,0,0.4
		c0,2,0,3.9,0,5.9c0,0.6-0.2,0.8-0.8,0.8c-0.5,0-0.7-0.2-0.7-0.7C66.7,9.8,66.7,8.8,66.7,7.8z"/>
	<path class="st0" d="M68.3,1.7c0,0.7-0.5,0.9-1.1,0.8c-0.7-0.1-1-0.7-0.6-1.3C66.7,1,66.9,0.9,67,0.9c0.3-0.1,0.5-0.1,0.8,0
		C68.2,1,68.3,1.2,68.3,1.7z"/>
</g>
</svg>
