<?xml version="1.0" encoding="utf-8"?>
<!-- Generator: Adobe Illustrator 25.2.1, SVG Export Plug-In . SVG Version: 6.00 Build 0)  -->
<svg version="1.1" id="Layer_1" xmlns="http://www.w3.org/2000/svg" xmlns:xlink="http://www.w3.org/1999/xlink" x="0px" y="0px"
	 viewBox="0 0 58.2 17.3" style="enable-background:new 0 0 58.2 17.3;" xml:space="preserve">
<style type="text/css">
	.st0{fill:#D3E7F7;}
	.st1{fill:#0155A1;}
	.st2{fill:#FBA702;}
	.st3{fill:#FCFEFF;}
	.st4{fill:#036ED4;}
	.st5{fill:#006CD3;}
	.st6{fill:#050306;}
	.st7{fill:#03B1AE;}
	.st8{fill:#00AD39;}
	.st9{fill:#FF495C;}
	.st10{fill:#017EAE;}
	.st11{fill:#CA4929;}
	.st12{fill:#F59001;}
	.st13{fill:#CDD0D2;}
	.st14{fill:#0863FF;}
	.st15{fill:#F14D02;}
	.st16{fill:#FED853;}
	.st17{fill:#2C323B;}
	.st18{fill:#EE5B65;}
	.st19{fill:#32B3E8;}
	.st20{fill:#2A8AC6;}
	.st21{fill:#D6445D;}
	.st22{fill:#960A2C;}
	.st23{fill:#010101;}
	.st24{fill:#D72B11;}
	.st25{fill:#E41231;}
	.st26{fill:#F01523;}
	.st27{fill:#93DD01;}
	.st28{fill:#249633;}
	.st29{fill:#242424;}
	.st30{fill:#C80126;}
	.st31{fill:#020202;}
	.st32{fill:#959798;}
	.st33{fill:#EE1818;}
	.st34{fill:#242021;}
	.st35{fill:#002A3B;}
	.st36{fill:#205053;}
	.st37{fill:#235153;}
	.st38{fill:#15AA9E;}
	.st39{fill:#09AC9D;}
	.st40{fill:#05716B;}
	.st41{fill:#F49200;}
	.st42{fill:#E25100;}
	.st43{fill:#0223FE;}
	.st44{fill:#04CBFE;}
	.st45{fill:#F47264;}
	.st46{fill:#F24731;}
	.st47{fill:#F8A197;}
	.st48{fill:#233240;}
	.st49{fill:#FE6D52;}
	.st50{fill:#124FFF;}
	.st51{fill:#F56D58;}
	.st52{fill:#75C4E2;}
	.st53{fill:#E0044D;}
	.st54{fill:#3B267C;}
	.st55{fill:#DD1937;}
	.st56{fill:#01B3FE;}
	.st57{fill:#454545;}
	.st58{fill:#AB56B3;}
	.st59{fill:#031A28;}
	.st60{fill:#53CD8E;}
	.st61{fill:#1B0E65;}
	.st62{fill:#060250;}
	.st63{fill:#02AA47;}
	.st64{fill:#060605;}
	.st65{fill:#221E5D;}
	.st66{fill:#F2574D;}
	.st67{fill:#FE6F05;}
	.st68{fill:#D2D1D0;}
</style>
<g>
	<path class="st0" d="M0,3.9c0.6,0,1.2,0,1.8,0c0.1,0,0.1,0,0.1-0.1c0-0.8,0-1.6,0-2.4c0-0.1,0-0.1,0.1-0.1c0.9,0,1.8,0,2.8,0
		c0.1,0,0.1,0,0.1,0.1c0,0.8,0,1.6,0,2.3c0,0.2,0,0.2,0.2,0.2c0.8,0,1.6,0,2.4,0c0.1,0,0.1,0,0.1,0.1c0,0.7,0,1.3,0,2
		c0,0.1,0,0.1-0.1,0.1c-0.8,0-1.7,0-2.5,0c-0.1,0-0.1,0-0.1,0.1c0,1,0,2,0,3c0,0.2,0,0.4,0.1,0.6c0.1,0.6,0.5,0.9,1.1,0.9
		c0.4,0,0.8,0,1.1-0.1c0.1,0,0.3-0.1,0.4-0.2c0,0.1,0,0.1,0,0.1c0,0.7,0,1.4,0,2c0,0.1,0,0.1-0.1,0.1c-0.3,0.1-0.6,0.1-0.8,0.2
		C6.2,13,5.8,13,5.3,13c-0.6,0-1.2-0.1-1.8-0.3c-0.7-0.3-1.2-0.7-1.5-1.3c-0.1-0.3-0.2-0.7-0.2-1.1c0-1.4,0-2.7,0-4.1
		c0-0.1,0-0.1-0.1-0.1c-0.6,0-1.2,0-1.8,0C0,5.3,0,4.6,0,3.9z"/>
	<path class="st0" d="M43.2,11.9c-0.2,0.2-0.3,0.4-0.5,0.5c-0.4,0.3-0.9,0.5-1.5,0.6c-1,0.1-1.9,0-2.7-0.5c-0.6-0.3-0.9-0.9-1.2-1.5
		c-0.3-0.7-0.4-1.4-0.5-2.1c0-0.7,0-1.4,0.1-2.1c0.2-0.7,0.4-1.3,0.9-1.9c0.6-0.7,1.4-1,2.3-1.1c1-0.1,1.9,0.1,2.7,0.6
		c0.2,0.1,0.4,0.3,0.6,0.5c0,0.1,0.1,0.2,0.2,0.1c0.1,0,0-0.1,0-0.2c0-0.3,0-0.6,0-0.9c0-0.1,0-0.1,0.1-0.1c0.7,0,1.5,0,2.2,0
		c0.1,0,0.1,0,0.1,0.1c0,0.7,0,1.3,0,2c0,2.2,0,4.3,0,6.5c0,0.8-0.1,1.5-0.3,2.2c-0.4,1.2-1.3,2-2.5,2.4c-0.9,0.3-1.8,0.4-2.7,0.3
		c-0.6,0-1.2-0.1-1.8-0.3c-0.8-0.2-1.5-0.5-2.1-1c-0.1,0-0.1-0.1,0-0.1c0.4-0.6,0.8-1.2,1.2-1.8c0-0.1,0.1-0.1,0.1,0
		c1,0.7,2.1,0.9,3.3,0.8c0.4,0,0.7-0.1,1.1-0.3c0.5-0.3,0.8-0.8,0.9-1.4C43.3,12.8,43.2,12.3,43.2,11.9
		C43.2,11.9,43.2,11.9,43.2,11.9z M43.5,8.3c0-0.5-0.1-0.9-0.3-1.4c-0.7-1.2-2.5-1.3-3.3-0.1c-0.6,1-0.6,2,0,2.9
		c0.7,1.1,2.3,1.1,3.1,0.1C43.4,9.4,43.5,8.9,43.5,8.3z"/>
	<path class="st0" d="M33.8,11.7c-0.2,0.2-0.3,0.3-0.4,0.5c-0.5,0.4-1,0.7-1.6,0.8c-0.8,0.1-1.6,0.1-2.4-0.3
		c-0.8-0.4-1.3-0.9-1.4-1.8c-0.2-1.2,0.2-2.3,1.4-3c0.6-0.3,1.3-0.5,1.9-0.6c0.8-0.1,1.6-0.1,2.4-0.1c0.1,0,0.1,0,0.1-0.1
		c0-0.8-0.7-1.3-1.3-1.4c-0.8-0.2-1.5,0-2.1,0.5c-0.2,0.1-0.4,0.3-0.5,0.5c0,0-0.1,0.1-0.1,0c-0.4-0.5-0.9-0.9-1.4-1.4
		c0,0,0-0.1,0-0.1c0.8-0.7,1.8-1.1,2.8-1.3c0.8-0.1,1.7-0.1,2.5,0.1c0.6,0.1,1.2,0.4,1.6,0.9c0.5,0.5,0.7,1.1,0.9,1.8
		c0.1,0.4,0.1,0.8,0.1,1.3c0,1.6,0,3.2,0,4.9c0,0.1,0,0.1-0.1,0.1c-0.7,0-1.5,0-2.2,0c-0.1,0-0.1,0-0.1-0.1
		C33.8,12.3,33.8,12,33.8,11.7z M33.7,9.3c0-0.1,0-0.3,0-0.4c0-0.1,0-0.1-0.1-0.1c-0.2,0-0.4,0-0.6,0c-0.5,0-1,0-1.5,0.1
		c-0.5,0.1-0.9,0.4-1.1,0.9c-0.2,0.3-0.1,0.6,0.2,0.9c0.2,0.2,0.4,0.3,0.6,0.3c0.6,0.1,1.1,0,1.6-0.2c0.4-0.2,0.7-0.4,0.8-0.8
		C33.7,9.8,33.7,9.5,33.7,9.3z"/>
	<path class="st0" d="M46.5,8.2c0-1.1,0.4-2.1,1.1-3.1c0.7-0.8,1.6-1.3,2.6-1.4c1-0.1,1.9,0,2.8,0.4c1.1,0.6,1.9,1.5,2.2,2.7
		c0.4,1.4,0.3,2.7-0.5,4c-0.6,1-1.4,1.6-2.5,1.9c-1.2,0.3-2.4,0.2-3.5-0.3c-0.9-0.5-1.5-1.2-1.9-2.2C46.7,9.6,46.5,9,46.5,8.2z
		 M53,8.3c0-0.1,0-0.3,0-0.4c0-0.1,0-0.2,0-0.2c-0.2-0.9-0.9-1.7-2-1.6c-0.7,0-1.2,0.3-1.5,0.9c-0.3,0.6-0.4,1.3-0.3,2
		c0.2,1,0.9,1.7,2.1,1.6c0.6,0,1.1-0.3,1.4-0.8C52.9,9.3,53,8.8,53,8.3z"/>
	<path class="st0" d="M23.5,12.8c-0.5,0-0.9,0-1.4,0c-0.1,0-0.1,0-0.1-0.1c-1.2-2.9-2.4-5.8-3.6-8.7c0-0.1,0-0.1,0.1-0.1
		c0.9,0,1.8,0,2.7,0c0.1,0,0.1,0,0.1,0.1c0.7,1.9,1.4,3.9,2.2,5.8c0,0.1,0,0.1,0.1,0.1c0.1,0,0.1-0.1,0.1-0.1c0.7-1.9,1.3-3.9,2-5.8
		c0-0.1,0.1-0.1,0.2-0.1c0.8,0,1.7,0,2.5,0c0.1,0,0.1,0,0.1,0.1c-1.1,2.9-2.3,5.8-3.4,8.7c0,0.1-0.1,0.1-0.1,0.1
		C24.4,12.8,23.9,12.8,23.5,12.8z"/>
	<path class="st0" d="M11.1,5.3c0.2-0.3,0.4-0.6,0.7-0.9c0.4-0.4,0.9-0.6,1.5-0.7c0.4,0,0.7,0,1.1,0c0.1,0,0.2,0.1,0.1,0.2
		c0,0.7,0,1.5,0,2.2c0,0.1,0,0.1-0.1,0.1c-0.4-0.1-0.9-0.2-1.4-0.1c-0.5,0-0.9,0.2-1.3,0.4c-0.3,0.2-0.5,0.6-0.6,1
		C11.1,8.1,11,8.6,11,9.2c0,1.2,0,2.4,0,3.6c0,0.1,0,0.1-0.1,0.1c-0.8,0-1.7,0-2.5,0c-0.1,0-0.1,0-0.1-0.1c0-2.9,0-5.8,0-8.7
		c0-0.1,0-0.1,0.1-0.1c0.9,0,1.7,0,2.6,0c0.1,0,0.1,0,0.1,0.1C11.1,4.4,11.1,4.9,11.1,5.3z"/>
	<path class="st0" d="M18,8.3c0,1.4,0,2.9,0,4.3c0,0.1,0,0.1-0.1,0.1c-0.8,0-1.6,0-2.5,0c-0.1,0-0.1,0-0.1-0.1c0-2.9,0-5.8,0-8.7
		c0-0.1,0-0.1,0.1-0.1c0.8,0,1.7,0,2.5,0C18,3.9,18,3.9,18,4C18,5.4,18,6.9,18,8.3z"/>
	<path class="st0" d="M18,1.5c0,0.8-0.7,1.5-1.5,1.5c-0.8,0-1.5-0.7-1.5-1.5c0-0.8,0.7-1.5,1.5-1.5C17.4,0,18,0.7,18,1.5z"/>
	<path class="st0" d="M58.2,5.1c0,0.8-0.7,1.5-1.5,1.5c-0.8,0-1.5-0.7-1.5-1.5c0-0.8,0.7-1.5,1.5-1.5C57.6,3.7,58.2,4.3,58.2,5.1z
		 M55.6,5.2c0,0.7,0.5,1.2,1.2,1.2c0.6,0,1.2-0.5,1.2-1.1C58,4.5,57.4,4,56.8,4C56.1,4,55.6,4.5,55.6,5.2z"/>
	<path class="st0" d="M57.6,5.8C57.5,5.8,57.5,5.8,57.6,5.8c-0.4,0-0.4,0-0.7-0.4c0,0,0-0.1-0.1-0.1c0-0.1-0.1,0-0.1,0
		c-0.1,0,0,0.1,0,0.1c0,0.1,0,0.2,0,0.3c0,0.1,0,0.1-0.1,0.1c-0.3,0-0.3,0-0.3-0.3c0-0.3,0-0.7,0-1c0-0.1,0-0.1,0.1-0.1
		c0.2,0,0.4,0,0.6,0c0.2,0,0.3,0.1,0.4,0.2c0.1,0.2,0,0.3-0.1,0.5c0,0,0,0-0.1,0.1c-0.1,0.1-0.1,0.1,0,0.2c0.1,0.1,0.1,0.1,0.2,0.2
		C57.4,5.7,57.5,5.7,57.6,5.8z M56.7,5c0.1,0,0.1,0,0.2,0C57,5,57,5,57,4.9c0-0.1,0-0.1-0.1-0.1c-0.1-0.1-0.2,0-0.3,0c0,0,0,0,0,0
		c0,0.1,0,0.2,0,0.2C56.6,5.1,56.7,5,56.7,5z"/>
</g>
</svg>
