<?xml version="1.0" encoding="utf-8"?>
<!-- Generator: Adobe Illustrator 25.2.1, SVG Export Plug-In . SVG Version: 6.00 Build 0)  -->
<svg version="1.1" id="Layer_1" xmlns="http://www.w3.org/2000/svg" xmlns:xlink="http://www.w3.org/1999/xlink" x="0px" y="0px"
	 viewBox="0 0 83.9 17" style="enable-background:new 0 0 83.9 17;" xml:space="preserve">
<style type="text/css">
	.st0{fill:#D3E7F7;}
	.st1{fill:#0155A1;}
	.st2{fill:#FBA702;}
	.st3{fill:#FCFEFF;}
	.st4{fill:#036ED4;}
	.st5{fill:#006CD3;}
	.st6{fill:#050306;}
	.st7{fill:#03B1AE;}
	.st8{fill:#00AD39;}
	.st9{fill:#FF495C;}
	.st10{fill:#017EAE;}
	.st11{fill:#CA4929;}
	.st12{fill:#F59001;}
	.st13{fill:#CDD0D2;}
	.st14{fill:#0863FF;}
	.st15{fill:#F14D02;}
	.st16{fill:#FED853;}
	.st17{fill:#2C323B;}
	.st18{fill:#EE5B65;}
	.st19{fill:#32B3E8;}
	.st20{fill:#2A8AC6;}
	.st21{fill:#D6445D;}
	.st22{fill:#960A2C;}
	.st23{fill:#010101;}
	.st24{fill:#D72B11;}
	.st25{fill:#E41231;}
	.st26{fill:#F01523;}
	.st27{fill:#93DD01;}
	.st28{fill:#249633;}
	.st29{fill:#242424;}
	.st30{fill:#C80126;}
	.st31{fill:#020202;}
	.st32{fill:#959798;}
	.st33{fill:#EE1818;}
	.st34{fill:#242021;}
	.st35{fill:#002A3B;}
	.st36{fill:#205053;}
	.st37{fill:#235153;}
	.st38{fill:#15AA9E;}
	.st39{fill:#09AC9D;}
	.st40{fill:#05716B;}
	.st41{fill:#F49200;}
	.st42{fill:#E25100;}
	.st43{fill:#0223FE;}
	.st44{fill:#04CBFE;}
	.st45{fill:#F47264;}
	.st46{fill:#F24731;}
	.st47{fill:#F8A197;}
	.st48{fill:#233240;}
	.st49{fill:#FE6D52;}
	.st50{fill:#124FFF;}
	.st51{fill:#F56D58;}
	.st52{fill:#75C4E2;}
	.st53{fill:#E0044D;}
	.st54{fill:#3B267C;}
	.st55{fill:#DD1937;}
	.st56{fill:#01B3FE;}
	.st57{fill:#454545;}
	.st58{fill:#AB56B3;}
	.st59{fill:#031A28;}
	.st60{fill:#53CD8E;}
	.st61{fill:#1B0E65;}
	.st62{fill:#060250;}
	.st63{fill:#02AA47;}
	.st64{fill:#060605;}
	.st65{fill:#221E5D;}
	.st66{fill:#F2574D;}
	.st67{fill:#FE6F05;}
	.st68{fill:#D2D1D0;}
</style>
<g>
	<path class="st0" d="M28,4.9c0.8,0,1.4,0,2.1,0c0.1,0,0.3,0.3,0.4,0.5c0.5,2.3,0.9,4.6,1.4,6.8c0.1,0.3,0.1,0.5,0.3,0.8
		c0.1-0.2,0.2-0.4,0.2-0.6c0.7-2.3,1.3-4.5,2-6.8c0.2-0.6,0.4-0.9,1.1-0.8c0.4,0.1,0.9,0,1.3,0c0.5,0,0.6,0.2,0.8,0.6
		c0.6,2.3,1.3,4.5,2,6.8c0.1,0.3,0.2,0.6,0.4,0.9c0.1-0.2,0.1-0.4,0.2-0.6c0.5-2.4,1-4.7,1.4-7.1c0.1-0.4,0.3-0.6,0.7-0.5
		c0.5,0,1.1,0,1.7,0c-0.2,0.8-0.3,1.5-0.4,2.2c-0.6,3-1.3,6-1.9,9c-0.1,0.4-0.2,0.6-0.7,0.6c-0.6,0-1.2,0-1.8,0
		c-0.5,0-0.6-0.2-0.7-0.6c-0.7-2.4-1.4-4.9-2.1-7.3c-0.1-0.2-0.2-0.5-0.3-0.7c-0.1,0-0.1,0-0.2,0c-0.3,1-0.6,2-0.9,3
		c-0.5,1.7-1,3.4-1.4,5c-0.1,0.4-0.3,0.5-0.7,0.5c-0.6,0-1.2,0-1.8,0c-0.5,0-0.7-0.2-0.8-0.6c-0.6-3.1-1.3-6.2-2-9.3
		C28.3,6.2,28.2,5.6,28,4.9z"/>
	<path class="st0" d="M15.1,6.9c0.2-0.4,0.4-0.6,0.5-0.9c0.8-1.4,1.3-1.6,2.9-1.2c1.7,0.4,2.7,1.6,2.8,3.5c0,1.7,0,3.3,0,5
		c0,1.9-1.3,3.2-3.3,3.5c-1.9,0.3-3.7,0.1-5.5-0.2C12,16.5,12,16.1,12,15.8c0-4.8,0-9.6,0-14.4c0-0.2,0-0.4,0-0.7
		c0-0.4,0.2-0.5,0.5-0.5C13,0.2,13.5,0.1,14,0c0.1,0,0.3,0.2,0.4,0.3c0.1,0.1,0,0.3,0,0.5c0,4.3,0,8.6,0,12.9c0,0.9,0,1,1,1
		c0.8,0,1.6,0,2.3-0.1c0.7-0.1,1.1-0.6,1.1-1.3c0-1.6,0.1-3.3,0-4.9c0-0.9-0.7-1.4-1.8-1.4C16.4,6.9,15.8,6.9,15.1,6.9z"/>
	<path class="st0" d="M83.7,16.4c-1.2,0.2-2.3,0.5-3.4,0.6c-0.9,0.1-1.7,0-2.6-0.2c-1.8-0.4-2.8-1.5-3-3.5c-0.1-1.7-0.1-3.4,0.1-5.1
		c0.2-2.1,1.7-3.3,3.9-3.4c0.7,0,1.3,0,2,0.1c1.9,0.3,3.1,1.7,3.2,3.6c0,0.9,0,1.8,0,2.7c0,0.5-0.1,0.7-0.7,0.7c-1.7,0-3.3,0-5,0
		c-1.3,0-1.1,0-1.1,1.1c0,0.1,0,0.2,0,0.3c0.1,0.9,0.6,1.5,1.5,1.5c1.1,0,2.2,0,3.2-0.2c0.5-0.1,0.8,0,1,0.5
		C83.1,15.4,83.4,15.8,83.7,16.4z M79.4,9.7C79.4,9.7,79.4,9.7,79.4,9.7c0.3,0,0.7,0,1,0c1.3,0,1.1,0.1,1.1-1.2c0-0.7-0.3-1.3-1-1.6
		c-1.9-0.8-3.5,0.2-3.4,2.3c0,0.4,0.2,0.5,0.5,0.5C78.3,9.7,78.8,9.7,79.4,9.7z"/>
	<path class="st0" d="M65.8,16.3c-0.7,0.2-1.3,0.4-2,0.5c-1.4,0.2-2.8,0.3-4.2,0c-1.7-0.5-2.7-1.7-2.7-3.4c0-1.5,0-3.1,0-4.6
		c0.1-2.3,1.6-3.9,3.9-4c0.8,0,1.7,0,2.5,0.2c1.5,0.4,2.3,1.4,2.5,2.9C66,9,66,10.2,66,11.3c0,0.5-0.3,0.4-0.6,0.4
		c-1.8,0-3.6,0-5.3,0c-0.8,0-0.8,0-0.8,0.8c0,1.9,0.7,2.3,2.9,2.2c0.7,0,1.4-0.2,2.1-0.3c0.2,0,0.4,0,0.5,0.1
		C65.1,15.1,65.4,15.6,65.8,16.3z M61.5,9.7c0.5,0,1.1,0,1.6,0c0.2,0,0.4-0.1,0.5-0.2C64,9,63.5,7.4,62.9,7.1
		c-0.9-0.5-1.9-0.5-2.8,0c-0.8,0.4-0.8,1.3-0.9,2.1c0,0.4,0.2,0.6,0.5,0.5C60.4,9.7,60.9,9.7,61.5,9.7z"/>
	<path class="st0" d="M9.3,10.7c0,1.7,0,3.4,0,5.1c0,0.5-0.2,0.7-0.7,0.8c-1.9,0.3-3.8,0.6-5.8,0.1C1,16.3,0.1,15.1,0,13.2
		c0-2.6,0-5.2,0-7.7C0,5,0.2,4.9,0.6,4.9c1.8,0,1.8,0,1.8,1.7c0,1.9,0,3.9,0,5.8c0,1.6,0.6,2.3,2.3,2.3c0.5,0,1,0,1.5,0
		c0.5,0,0.8-0.2,0.8-0.8c0-2.8,0-5.5,0-8.3c0-0.6,0.2-0.7,0.7-0.7c1.6,0,1.6,0,1.6,1.7C9.3,8,9.3,9.4,9.3,10.7z"/>
	<path class="st0" d="M48.1,8.4c0,2.5,0,5.1,0,7.6c0,0.5-0.1,0.7-0.7,0.7c-1.8,0-1.8,0-1.8-1.8c0-4.6,0-9.3,0-13.9
		c0-0.6,0.2-0.8,0.7-0.8c0.4,0,0.8-0.1,1.2-0.2c0.5-0.1,0.5,0.2,0.5,0.5c0,2.1,0,4.3,0,6.4C48.1,7.4,48.1,7.9,48.1,8.4z"/>
	<path class="st0" d="M48.8,6.9c0.4-0.7,0.7-1.3,1.1-1.9c0.2-0.2,0.6-0.4,0.9-0.4c2.5-0.2,4.1,1.2,4.1,3.8c0,2.6,0,5.2,0,7.7
		c0,0.4-0.1,0.6-0.5,0.5c-0.4,0-0.9,0-1.3,0c-0.5,0-0.6-0.2-0.6-0.6c0-2.4,0-4.8,0-7.1c0-1.4-0.6-2-2-2C50,6.9,49.4,6.9,48.8,6.9z"
		/>
	<path class="st0" d="M70.3,11c0,1.7,0,3.4,0,5.1c0,0.5-0.1,0.7-0.6,0.6c-0.4,0-0.9,0-1.3,0c-0.4,0-0.5-0.1-0.5-0.5
		c0-3.5,0-7,0-10.5c0-0.3,0.1-0.5,0.5-0.5c0.5,0,1,0,1.5,0c0.4,0,0.5,0.2,0.5,0.6C70.3,7.6,70.3,9.3,70.3,11z"/>
	<path class="st0" d="M23.5,10.7c0-1.7,0-3.5,0-5.2c0-0.5,0.1-0.7,0.6-0.6c0.4,0,0.8,0,1.1,0c0.5,0,0.6,0.1,0.6,0.6
		c0,1.2,0,2.5,0,3.7c0,2.3,0,4.5,0,6.8c0,0.5-0.1,0.7-0.6,0.7c-1.7,0-1.7,0-1.7-1.7C23.5,13.6,23.5,12.2,23.5,10.7z"/>
	<path class="st0" d="M74.9,5c-0.4,0.8-0.8,1.4-1.2,2c-0.1,0.1-0.3,0.2-0.4,0.2c-0.8,0-1.6,0-2.5,0c0.4-0.7,0.7-1.4,1.2-2
		C72.1,5,72.5,5,72.8,5C73.5,5,74.1,5,74.9,5z"/>
	<path class="st0" d="M24.7,1.3c1.3,0,1.2-0.2,1.2,1.2c0,0,0,0,0,0.1c0,1,0,1-1,1c-1.4,0-1.4,0-1.4-1.4c0-0.8,0-0.8,0.8-0.8
		C24.5,1.3,24.6,1.3,24.7,1.3z"/>
</g>
</svg>
