<?xml version="1.0" encoding="utf-8"?>
<!-- Generator: Adobe Illustrator 25.2.1, SVG Export Plug-In . SVG Version: 6.00 Build 0)  -->
<svg version="1.1" id="Layer_1" xmlns="http://www.w3.org/2000/svg" xmlns:xlink="http://www.w3.org/1999/xlink" x="0px" y="0px"
	 viewBox="0 0 67.6 22.2" style="enable-background:new 0 0 67.6 22.2;" xml:space="preserve">
<style type="text/css">
	.st0{fill:#D3E7F7;}
	.st1{fill:#0155A1;}
	.st2{fill:#FBA702;}
	.st3{fill:#FCFEFF;}
	.st4{fill:#036ED4;}
	.st5{fill:#006CD3;}
	.st6{fill:#050306;}
	.st7{fill:#03B1AE;}
	.st8{fill:#00AD39;}
	.st9{fill:#FF495C;}
	.st10{fill:#017EAE;}
	.st11{fill:#CA4929;}
	.st12{fill:#F59001;}
	.st13{fill:#CDD0D2;}
	.st14{fill:#0863FF;}
	.st15{fill:#F14D02;}
	.st16{fill:#FED853;}
	.st17{fill:#2C323B;}
	.st18{fill:#EE5B65;}
	.st19{fill:#32B3E8;}
	.st20{fill:#2A8AC6;}
	.st21{fill:#D6445D;}
	.st22{fill:#960A2C;}
	.st23{fill:#010101;}
	.st24{fill:#D72B11;}
	.st25{fill:#E41231;}
	.st26{fill:#F01523;}
	.st27{fill:#93DD01;}
	.st28{fill:#249633;}
	.st29{fill:#242424;}
	.st30{fill:#C80126;}
	.st31{fill:#020202;}
	.st32{fill:#959798;}
	.st33{fill:#EE1818;}
	.st34{fill:#242021;}
	.st35{fill:#002A3B;}
	.st36{fill:#205053;}
	.st37{fill:#235153;}
	.st38{fill:#15AA9E;}
	.st39{fill:#09AC9D;}
	.st40{fill:#05716B;}
	.st41{fill:#F49200;}
	.st42{fill:#E25100;}
	.st43{fill:#0223FE;}
	.st44{fill:#04CBFE;}
	.st45{fill:#F47264;}
	.st46{fill:#F24731;}
	.st47{fill:#F8A197;}
	.st48{fill:#233240;}
	.st49{fill:#FE6D52;}
	.st50{fill:#124FFF;}
	.st51{fill:#F56D58;}
	.st52{fill:#75C4E2;}
	.st53{fill:#E0044D;}
	.st54{fill:#3B267C;}
	.st55{fill:#DD1937;}
	.st56{fill:#01B3FE;}
	.st57{fill:#454545;}
	.st58{fill:#AB56B3;}
	.st59{fill:#031A28;}
	.st60{fill:#53CD8E;}
	.st61{fill:#1B0E65;}
	.st62{fill:#060250;}
	.st63{fill:#02AA47;}
	.st64{fill:#060605;}
	.st65{fill:#221E5D;}
	.st66{fill:#F2574D;}
	.st67{fill:#FE6F05;}
	.st68{fill:#D2D1D0;}
</style>
<g>
	<path class="st0" d="M37.6,22.2c-0.3-0.1-0.6-0.1-0.8-0.1c-1.5-0.1-3-0.4-4.4-0.9c-0.2-0.1-0.3-0.2-0.2-0.4
		c0.2-1.4,0.5-2.8,0.7-4.2c0-0.3,0-0.3,0.3-0.2c1.2,0.6,2.4,1.1,3.7,1.2c1.2,0.1,2.3,0.2,3.5-0.1c0.5-0.1,0.9-0.3,1.3-0.7
		c0.7-0.6,0.7-1.6,0.1-2.3c-0.5-0.6-1.1-0.9-1.8-1.3c-1.1-0.5-2.1-1.1-3.1-1.8c-1-0.8-1.9-1.6-2.2-2.9c-0.6-1.8-0.2-3.6,0.9-5.1
		c1-1.4,2.4-2.3,4-2.9c3-1,6-0.9,8.9,0.2c0.2,0.1,0.2,0.2,0.2,0.3c-0.2,1.4-0.5,2.8-0.7,4.1c0,0.2-0.1,0.2-0.3,0.1
		c-1.5-0.7-3-1-4.7-0.9c-0.8,0-1.5,0.2-2.2,0.6c-0.6,0.4-0.9,1-0.7,1.6c0.1,0.4,0.4,0.7,0.7,0.9c0.8,0.6,1.6,1,2.5,1.4
		c0.9,0.4,1.7,0.9,2.4,1.5c2.2,1.8,2.6,4.1,1.7,6.7c-0.7,2-2.2,3.2-4.1,4c-1.7,0.7-3.5,0.9-5.3,0.9c-0.1,0-0.2,0-0.4,0
		C37.8,22.2,37.7,22.2,37.6,22.2z"/>
	<path class="st0" d="M0,0.4c0-0.3,0.2-0.3,0.5-0.3c2.6,0,5.2,0,7.8,0c0.3,0,0.6,0,0.9,0.1c1,0.2,1.5,0.7,1.7,1.7
		c0.6,2.9,1.1,5.8,1.7,8.6c0,0.1,0,0.2,0,0.2c0,0,0,0,0-0.1c-1.3-3.4-3.7-5.9-6.7-7.8C5.7,2.8,5.6,2.8,5.5,2.8
		c0-0.1-0.1-0.1-0.2-0.1C3.7,1.7,2,1,0.1,0.6c0,0-0.1,0-0.1,0C0,0.5,0,0.4,0,0.4z"/>
	<path class="st0" d="M47.6,21.9c0.3-0.8,0.6-1.5,0.9-2.2c2.4-5.8,4.9-11.6,7.3-17.4c0.5-1.3,1.5-1.9,2.8-1.9c1.4,0,2.8,0,4.3,0
		c0.2,0,0.2,0.1,0.2,0.2c0.7,3.5,1.5,7,2.2,10.5c0.7,3.5,1.5,6.9,2.2,10.4c0.1,0.4,0.1,0.4-0.3,0.4c-1.5,0-3,0-4.5,0
		c-0.2,0-0.3-0.1-0.3-0.3c-0.2-0.9-0.4-1.8-0.5-2.7c0-0.2-0.1-0.3-0.3-0.3c-2.2,0-4.4,0-6.6,0c-0.2,0-0.3,0.1-0.3,0.2
		c-0.3,0.9-0.7,1.9-1,2.8c0,0.1-0.1,0.2-0.3,0.2c-1.8,0-3.7,0-5.5,0C47.7,21.9,47.7,21.9,47.6,21.9z M59.2,6.3
		c0,0.1-0.1,0.1-0.1,0.1c-0.9,2.6-1.9,5.1-2.8,7.7c-0.1,0.2,0,0.2,0.2,0.2c1.4,0,2.8,0,4.2,0c0.2,0,0.2-0.1,0.2-0.2
		C60.3,11.5,59.8,8.9,59.2,6.3z"/>
	<path class="st0" d="M4.7,3.3c0.1,0,0.2,0.1,0.3,0.1c3.3,2,5.8,4.7,7.2,8.3c0,0,0,0,0,0.1c0,0,0,0,0,0c0,0,0,0.1,0,0.1
		c0.2,1,0.4,1.9,0.6,2.9c0,0,0,0.1,0.1,0.1c0-0.1,0.1-0.2,0.1-0.2c1.8-4.7,3.5-9.4,5.2-14.1c0-0.1,0.1-0.2,0.3-0.2
		c1.9,0,3.8,0,5.7,0c0,0.1,0,0.2-0.1,0.3c-2.9,7-5.7,14-8.6,21c-0.1,0.2-0.1,0.2-0.3,0.2c-1.8,0-3.6,0-5.5,0c-0.2,0-0.2-0.1-0.3-0.2
		c-1.6-6-3.2-12-4.8-18.1C4.8,3.5,4.8,3.4,4.7,3.3z"/>
	<path class="st0" d="M25.9,21.9c-0.8,0-1.7,0-2.5,0c-0.2,0-0.2,0-0.2-0.2c0.7-4.4,1.4-8.7,2.1-13.1c0.4-2.6,0.9-5.3,1.3-7.9
		c0-0.2,0.1-0.2,0.3-0.2c1.7,0,3.4,0,5.1,0c0.2,0,0.3,0.1,0.2,0.3c-0.3,1.7-0.6,3.4-0.8,5.1c-0.4,2.3-0.7,4.5-1.1,6.8
		c-0.4,2.3-0.7,4.5-1.1,6.8c-0.1,0.8-0.3,1.6-0.4,2.4c0,0.2-0.1,0.2-0.2,0.2C27.6,21.9,26.7,21.9,25.9,21.9z"/>
	<path class="st0" d="M12.3,11.9c0,0,0-0.1,0-0.1C12.4,11.8,12.3,11.9,12.3,11.9z"/>
</g>
</svg>
