<?xml version="1.0" encoding="utf-8"?>
<!-- Generator: Adobe Illustrator 25.2.1, SVG Export Plug-In . SVG Version: 6.00 Build 0)  -->
<svg version="1.1" id="Layer_1" xmlns="http://www.w3.org/2000/svg" xmlns:xlink="http://www.w3.org/1999/xlink" x="0px" y="0px"
	 viewBox="0 0 106.6 20.1" style="enable-background:new 0 0 106.6 20.1;" xml:space="preserve">
<style type="text/css">
	.st0{fill:#D3E7F7;}
	.st1{fill:#0155A1;}
	.st2{fill:#FBA702;}
	.st3{fill:#FCFEFF;}
	.st4{fill:#036ED4;}
	.st5{fill:#006CD3;}
	.st6{fill:#050306;}
	.st7{fill:#03B1AE;}
	.st8{fill:#00AD39;}
	.st9{fill:#FF495C;}
	.st10{fill:#017EAE;}
	.st11{fill:#CA4929;}
	.st12{fill:#F59001;}
	.st13{fill:#CDD0D2;}
	.st14{fill:#0863FF;}
	.st15{fill:#F14D02;}
	.st16{fill:#FED853;}
	.st17{fill:#2C323B;}
	.st18{fill:#EE5B65;}
	.st19{fill:#32B3E8;}
	.st20{fill:#2A8AC6;}
	.st21{fill:#D6445D;}
	.st22{fill:#960A2C;}
	.st23{fill:#010101;}
	.st24{fill:#D72B11;}
	.st25{fill:#E41231;}
	.st26{fill:#F01523;}
	.st27{fill:#93DD01;}
	.st28{fill:#249633;}
	.st29{fill:#242424;}
	.st30{fill:#C80126;}
	.st31{fill:#020202;}
	.st32{fill:#959798;}
	.st33{fill:#EE1818;}
	.st34{fill:#242021;}
	.st35{fill:#002A3B;}
	.st36{fill:#205053;}
	.st37{fill:#235153;}
	.st38{fill:#15AA9E;}
	.st39{fill:#09AC9D;}
	.st40{fill:#05716B;}
	.st41{fill:#F49200;}
	.st42{fill:#E25100;}
	.st43{fill:#0223FE;}
	.st44{fill:#04CBFE;}
	.st45{fill:#F47264;}
	.st46{fill:#F24731;}
	.st47{fill:#F8A197;}
	.st48{fill:#233240;}
	.st49{fill:#FE6D52;}
	.st50{fill:#124FFF;}
	.st51{fill:#F56D58;}
	.st52{fill:#75C4E2;}
	.st53{fill:#E0044D;}
	.st54{fill:#3B267C;}
	.st55{fill:#DD1937;}
	.st56{fill:#01B3FE;}
	.st57{fill:#454545;}
	.st58{fill:#AB56B3;}
	.st59{fill:#031A28;}
	.st60{fill:#53CD8E;}
	.st61{fill:#1B0E65;}
	.st62{fill:#060250;}
	.st63{fill:#02AA47;}
	.st64{fill:#060605;}
	.st65{fill:#221E5D;}
	.st66{fill:#F2574D;}
	.st67{fill:#FE6F05;}
	.st68{fill:#D2D1D0;}
</style>
<g>
	<path class="st0" d="M42.5,11.2c1,0,1.9,0,2.8,0c0.1,0,0.2,0.1,0.2,0.2c0.1,0.7,0.5,1.1,1.1,1.2c0.7,0.2,1.5,0.4,2.3,0.4
		c1.4,0,2.7,0,4.1-0.1c0.3,0,0.6-0.1,0.9-0.3c0.4-0.2,0.6-0.5,0.6-0.9c0-0.4-0.2-0.7-0.7-0.8c-0.9-0.2-1.8-0.3-2.7-0.4
		c-1.8-0.1-3.5-0.1-5.2-0.5c-0.8-0.2-1.5-0.4-2.1-1c-1.3-1.3-1.1-3.6,0.5-4.5c0.8-0.5,1.7-0.7,2.6-0.8c2.1-0.3,4.2-0.3,6.2,0
		C54,3.8,55,4.1,55.8,4.9c0.7,0.7,1.1,1.5,1.1,2.5c-1,0-2,0-3,0c-0.2-0.9-0.6-1.3-1.8-1.4c-1.7-0.2-3.4-0.2-5,0
		c-0.2,0-0.5,0.1-0.7,0.2C46,6.3,45.9,6.5,45.9,7c0,0.4,0.2,0.7,0.6,0.8C47,7.9,47.6,8,48.2,8.1c1.6,0.1,3.2,0.2,4.7,0.4
		c0.8,0.1,1.6,0.2,2.4,0.5c1.8,0.6,2.2,1.8,2,3.5c-0.2,1.1-0.9,1.8-1.9,2.3c-1,0.4-2,0.6-3,0.7c-1.9,0.1-3.8,0.1-5.6-0.1
		c-1.2-0.2-2.3-0.4-3.3-1.3C42.8,13.2,42.5,12.3,42.5,11.2z"/>
	<path class="st0" d="M92.9,3.6c0.1,0,0.2,0,0.3,0c3,0,6,0,9,0c1.9,0,3.4,1,4,2.7c0.7,1.8,0.1,3.9-1.3,5c-0.8,0.6-1.8,0.9-2.9,0.9
		c-1.9,0-3.8,0-5.8,0c-0.1,0-0.3,0-0.4,0c0,1,0,2.1,0,3.1c-1,0-2,0-3,0C92.9,11.3,92.9,7.5,92.9,3.6z M95.9,9.6c0.2,0,0.3,0,0.4,0
		c1.7,0,3.4,0,5.1,0c0.2,0,0.4,0,0.6,0c0.6-0.1,1-0.3,1.3-0.8c0.6-1.3-0.1-2.5-1.6-2.6c-1.9,0-3.8,0-5.7,0c-0.1,0-0.1,0-0.2,0
		C95.9,7.3,95.9,8.4,95.9,9.6z"/>
	<path class="st0" d="M80,15.2c-1,0-2,0-3,0c0-3.9,0-7.7,0-11.6c0.1,0,0.2,0,0.3,0c3,0,6,0,9.1,0c2.2,0,3.9,1.4,4.2,3.5
		c0.4,2.8-1.3,4.9-4.1,5c-2,0.1-4.1,0-6.1,0c-0.3,0-0.4,0.1-0.4,0.4C80,13.4,80,14.3,80,15.2z M80,9.6c0.2,0,0.3,0,0.4,0
		c1.7,0,3.4,0,5.1,0c0.2,0,0.4,0,0.6,0c0.5-0.1,1-0.3,1.2-0.8c0.7-1.3-0.1-2.6-1.5-2.7c-1.9,0-3.8,0-5.7,0c-0.1,0-0.1,0-0.2,0
		C80,7.3,80,8.4,80,9.6z"/>
	<path class="st0" d="M41.2,15.2c-1.1,0-2.1,0-3.2,0c-0.1,0-0.2-0.1-0.3-0.2c-0.3-0.7-0.7-1.3-1-2c-0.1-0.2-0.2-0.3-0.4-0.3
		c-2.1,0-4.3,0-6.4,0c-0.2,0-0.3,0.1-0.4,0.3c-0.3,0.7-0.7,1.3-1,2c-0.1,0.2-0.2,0.3-0.4,0.3c-0.9,0-1.8,0-2.7,0c-0.1,0-0.2,0-0.3,0
		c0.4-0.8,0.8-1.5,1.1-2.2c1.5-3,3.1-6,4.6-8.9c0.2-0.4,0.4-0.5,0.8-0.5c1.1,0,2.2,0,3.3,0c0.2,0,0.3,0.1,0.4,0.2
		c1.9,3.7,3.9,7.4,5.8,11.2C41.1,15,41.1,15.1,41.2,15.2z M35.5,10.5c-0.8-1.6-1.6-3.1-2.3-4.7c-0.8,1.6-1.6,3.1-2.4,4.7
		C32.4,10.5,33.9,10.5,35.5,10.5z"/>
	<path class="st0" d="M58.8,15.2c0.6-1.3,1.3-2.4,1.9-3.6c1.3-2.6,2.7-5.2,4-7.7c0.1-0.2,0.2-0.3,0.5-0.3c1.2,0,2.3,0,3.5,0
		c0.2,0,0.3,0,0.4,0.2c1.9,3.7,3.9,7.5,5.8,11.2c0,0.1,0.1,0.1,0.1,0.3c-0.4,0-0.7,0-1,0c-0.7,0-1.3,0-2,0c-0.2,0-0.4-0.1-0.5-0.3
		c-0.3-0.7-0.7-1.3-1-1.9c-0.1-0.2-0.2-0.3-0.4-0.3c-2.1,0-4.3,0-6.4,0c-0.2,0-0.3,0.1-0.4,0.3c-0.3,0.7-0.7,1.3-1,2
		c0,0.1-0.2,0.2-0.2,0.2C61,15.2,60,15.2,58.8,15.2z M69.3,10.5c-0.8-1.6-1.6-3.1-2.3-4.7c-0.8,1.6-1.6,3.1-2.4,4.7
		C66.1,10.5,67.7,10.5,69.3,10.5z"/>
	<path class="st0" d="M1.1,15.2C0.7,13.8,0.4,12.4,0,11c0.8-0.3,1.5-0.6,2.2-1c1.9-1.1,3.1-2.8,3.6-5C5.9,4.9,6,4.8,6,4.7
		C7.5,4.3,8.9,4,10.4,3.6c0,2.5-0.7,4.8-2.2,6.8C6.5,12.8,4.1,14.4,1.1,15.2z"/>
	<path class="st0" d="M12.1,0c1.4,0.4,2.8,0.8,4.2,1.1C16.1,2,16,2.9,16,3.8c0.1,2.1,0.9,3.8,2.5,5.3c0.2,0.2,0.2,0.3,0.2,0.6
		c-0.4,1.3-0.7,2.6-1,3.9c0,0.1-0.1,0.2-0.1,0.3C12.7,11.2,10.4,5.1,12.1,0z"/>
	<path class="st0" d="M19.7,17c-1,1-2.1,2.1-3.1,3.1c-0.2-0.2-0.5-0.5-0.8-0.7c-2.1-1.6-4.5-2.1-7.1-1.3c-0.2,0.1-0.4,0.1-0.6-0.1
		c-0.9-1-1.9-1.9-2.8-2.9C5.2,15,5.1,14.9,5,14.8C9.7,12.1,16,13,19.7,17z"/>
</g>
</svg>
