<?xml version="1.0" encoding="utf-8"?>
<!-- Generator: Adobe Illustrator 25.2.1, SVG Export Plug-In . SVG Version: 6.00 Build 0)  -->
<svg version="1.1" id="Layer_1" xmlns="http://www.w3.org/2000/svg" xmlns:xlink="http://www.w3.org/1999/xlink" x="0px" y="0px"
	 viewBox="0 0 52.3 9.7" style="enable-background:new 0 0 52.3 9.7;" xml:space="preserve">
<style type="text/css">
	.st0{fill:#D3E7F7;}
	.st1{fill:#0155A1;}
	.st2{fill:#FBA702;}
	.st3{fill:#FCFEFF;}
	.st4{fill:#036ED4;}
	.st5{fill:#006CD3;}
	.st6{fill:#050306;}
	.st7{fill:#03B1AE;}
	.st8{fill:#00AD39;}
	.st9{fill:#FF495C;}
	.st10{fill:#017EAE;}
	.st11{fill:#CA4929;}
	.st12{fill:#F59001;}
	.st13{fill:#CDD0D2;}
	.st14{fill:#0863FF;}
	.st15{fill:#F14D02;}
	.st16{fill:#FED853;}
	.st17{fill:#2C323B;}
	.st18{fill:#EE5B65;}
	.st19{fill:#32B3E8;}
	.st20{fill:#2A8AC6;}
	.st21{fill:#D6445D;}
	.st22{fill:#960A2C;}
	.st23{fill:#010101;}
	.st24{fill:#D72B11;}
	.st25{fill:#E41231;}
	.st26{fill:#F01523;}
	.st27{fill:#93DD01;}
	.st28{fill:#249633;}
	.st29{fill:#242424;}
	.st30{fill:#C80126;}
	.st31{fill:#020202;}
	.st32{fill:#959798;}
	.st33{fill:#EE1818;}
	.st34{fill:#242021;}
	.st35{fill:#002A3B;}
	.st36{fill:#205053;}
	.st37{fill:#235153;}
	.st38{fill:#15AA9E;}
	.st39{fill:#09AC9D;}
	.st40{fill:#05716B;}
	.st41{fill:#F49200;}
	.st42{fill:#E25100;}
	.st43{fill:#0223FE;}
	.st44{fill:#04CBFE;}
	.st45{fill:#F47264;}
	.st46{fill:#F24731;}
	.st47{fill:#F8A197;}
	.st48{fill:#233240;}
	.st49{fill:#FE6D52;}
	.st50{fill:#124FFF;}
	.st51{fill:#F56D58;}
	.st52{fill:#75C4E2;}
	.st53{fill:#E0044D;}
	.st54{fill:#3B267C;}
	.st55{fill:#DD1937;}
	.st56{fill:#01B3FE;}
	.st57{fill:#454545;}
	.st58{fill:#AB56B3;}
	.st59{fill:#031A28;}
	.st60{fill:#53CD8E;}
	.st61{fill:#1B0E65;}
	.st62{fill:#060250;}
	.st63{fill:#02AA47;}
	.st64{fill:#060605;}
	.st65{fill:#221E5D;}
	.st66{fill:#F2574D;}
	.st67{fill:#FE6F05;}
	.st68{fill:#D2D1D0;}
</style>
<g>
	<path class="st0" d="M4.5,0c0.4,0,0.9,0,1.2,0.1c0.4,0.1,0.7,0.2,1,0.4C7,0.7,7.2,0.9,7.3,1.2c0.1,0.3,0.2,0.7,0.2,1.1
		c0,0.5-0.1,0.9-0.3,1.2C7,3.8,6.6,4.1,6.2,4.3c0.6,0.2,1,0.5,1.3,0.9C7.8,5.6,8,6.1,8,6.7C8,7.2,7.9,7.6,7.7,8
		C7.5,8.3,7.2,8.6,6.9,8.8C6.6,9,6.2,9.2,5.8,9.3C5.4,9.4,5,9.5,4.6,9.5L0,9.5V0H4.5z M4.2,3.8c0.4,0,0.7-0.1,0.9-0.3
		c0.2-0.2,0.3-0.5,0.3-0.9c0-0.2,0-0.4-0.1-0.5S5.2,1.9,5.1,1.8C4.9,1.8,4.8,1.7,4.6,1.6s-0.3,0-0.5,0h-2v2.2
		C2.1,3.8,4.2,3.8,4.2,3.8z M4.3,7.9c0.2,0,0.4,0,0.6-0.1c0.2,0,0.3-0.1,0.5-0.2c0.1-0.1,0.2-0.2,0.3-0.4c0.1-0.2,0.1-0.4,0.1-0.6
		c0-0.5-0.1-0.8-0.4-1.1C5.2,5.3,4.8,5.2,4.4,5.2H2.1v2.6L4.3,7.9L4.3,7.9z"/>
	<path class="st0" d="M10.9,7.9c0.3,0.3,0.7,0.4,1.2,0.4c0.4,0,0.7-0.1,1-0.3c0.3-0.2,0.4-0.4,0.5-0.6h1.7c-0.3,0.8-0.7,1.4-1.2,1.8
		c-0.5,0.3-1.2,0.5-2,0.5c-0.5,0-1-0.1-1.5-0.3C10.2,9.3,9.9,9,9.6,8.7C9.3,8.4,9,8,8.9,7.5C8.7,7.1,8.6,6.6,8.6,6.1
		c0-0.5,0.1-1,0.2-1.4c0.2-0.4,0.4-0.8,0.7-1.2c0.3-0.3,0.7-0.6,1.1-0.8c0.4-0.2,0.9-0.3,1.4-0.3c0.6,0,1.1,0.1,1.5,0.3
		s0.8,0.5,1.1,0.9C15,4.1,15.2,4.5,15.4,5c0.1,0.5,0.1,1,0.1,1.5h-5C10.5,7.1,10.7,7.6,10.9,7.9z M13.1,4.3C12.9,4,12.5,3.9,12,3.9
		c-0.3,0-0.5,0.1-0.8,0.2c-0.2,0.1-0.3,0.2-0.5,0.4c-0.1,0.1-0.2,0.3-0.2,0.5s-0.1,0.3-0.1,0.4h3.1C13.5,4.8,13.3,4.5,13.1,4.3z
		 M10.1,0.7h3.8v0.9h-3.8V0.7z"/>
	<path class="st0" d="M18.1,0v3.6h0c0.2-0.4,0.5-0.7,0.9-0.9s0.7-0.3,1.1-0.3c0.5,0,0.9,0.1,1.2,0.2C21.7,2.8,22,3,22.2,3.2
		c0.2,0.2,0.3,0.5,0.4,0.9s0.1,0.7,0.1,1.2v4.2h-1.9V5.6c0-0.6-0.1-1-0.3-1.3c-0.2-0.3-0.5-0.4-0.9-0.4c-0.5,0-0.9,0.2-1.1,0.4
		c-0.2,0.3-0.3,0.8-0.3,1.5v3.6h-1.9V0H18.1z"/>
	<path class="st0" d="M24,3.6c0.2-0.3,0.4-0.5,0.8-0.7c0.3-0.2,0.7-0.3,1-0.4c0.4-0.1,0.8-0.1,1.1-0.1c0.3,0,0.7,0,1.1,0.1
		c0.3,0,0.7,0.1,1,0.3c0.3,0.1,0.5,0.3,0.7,0.6C29.9,3.6,30,4,30,4.4V8c0,0.3,0,0.6,0.1,0.9c0,0.3,0.1,0.5,0.2,0.7h-1.9
		c-0.1-0.1-0.1-0.2-0.1-0.3c0-0.1,0-0.2,0-0.3c-0.3,0.3-0.7,0.5-1.1,0.7c-0.4,0.1-0.8,0.2-1.2,0.2c-0.3,0-0.6,0-0.9-0.1
		c-0.3-0.1-0.5-0.2-0.8-0.4C24,9,23.8,8.8,23.7,8.5c-0.1-0.3-0.2-0.5-0.2-0.9c0-0.4,0.1-0.7,0.2-1C23.9,6.4,24,6.2,24.2,6
		c0.2-0.1,0.5-0.3,0.8-0.3s0.5-0.1,0.9-0.2c0.3,0,0.5-0.1,0.8-0.1c0.3,0,0.5-0.1,0.7-0.1c0.2-0.1,0.4-0.1,0.5-0.2
		c0.1-0.1,0.2-0.2,0.2-0.4c0-0.2,0-0.4-0.1-0.5c-0.1-0.1-0.2-0.2-0.3-0.3c-0.1-0.1-0.2-0.1-0.4-0.1c-0.1,0-0.3,0-0.5,0
		c-0.4,0-0.7,0.1-0.9,0.2c-0.2,0.2-0.3,0.4-0.4,0.8h-1.9C23.7,4.3,23.8,3.9,24,3.6z M27.8,6.3c-0.1,0-0.2,0.1-0.4,0.1
		c-0.1,0-0.3,0-0.4,0.1c-0.1,0-0.3,0-0.4,0.1c-0.1,0-0.3,0.1-0.4,0.1c-0.1,0-0.3,0.1-0.3,0.2c-0.1,0.1-0.2,0.2-0.2,0.3
		c-0.1,0.1-0.1,0.3-0.1,0.4s0,0.3,0.1,0.4c0.1,0.1,0.1,0.2,0.2,0.3c0.1,0.1,0.2,0.1,0.4,0.1c0.1,0,0.3,0,0.4,0
		c0.4,0,0.7-0.1,0.9-0.2c0.2-0.1,0.3-0.3,0.4-0.4C28,7.6,28,7.4,28,7.3c0-0.2,0-0.3,0-0.4V6.1C28,6.2,27.9,6.3,27.8,6.3z"/>
	<path class="st0" d="M32.8,2.6v1h0c0.2-0.4,0.5-0.7,0.9-0.9s0.8-0.3,1.2-0.3c0.5,0,0.9,0.1,1.2,0.2c0.3,0.1,0.6,0.3,0.8,0.6
		c0.2,0.2,0.3,0.5,0.4,0.9c0.1,0.3,0.1,0.7,0.1,1.2v4.2h-1.9V5.6c0-0.6-0.1-1-0.3-1.3c-0.2-0.3-0.5-0.4-1-0.4
		c-0.5,0-0.9,0.2-1.1,0.5c-0.2,0.3-0.3,0.8-0.3,1.5v3.6h-1.9V2.6C30.9,2.6,32.8,2.6,32.8,2.6z"/>
	<path class="st0" d="M41.7,3.8c-0.3,0-0.5,0.1-0.8,0.2c-0.2,0.1-0.4,0.3-0.5,0.5c-0.1,0.2-0.2,0.4-0.3,0.7C40,5.6,40,5.8,40,6.1
		c0,0.2,0,0.5,0.1,0.8c0.1,0.3,0.1,0.5,0.3,0.7c0.1,0.2,0.3,0.4,0.5,0.5c0.2,0.1,0.4,0.2,0.8,0.2c0.4,0,0.8-0.1,1.1-0.4
		c0.2-0.2,0.4-0.6,0.4-1H45c-0.1,0.9-0.5,1.6-1.1,2.1c-0.6,0.5-1.3,0.7-2.3,0.7c-0.5,0-1-0.1-1.4-0.3c-0.4-0.2-0.8-0.4-1.1-0.7
		c-0.3-0.3-0.5-0.7-0.7-1.1c-0.2-0.4-0.2-0.9-0.2-1.4c0-0.5,0.1-1,0.2-1.5c0.2-0.4,0.4-0.9,0.7-1.2c0.3-0.3,0.7-0.6,1.1-0.8
		c0.4-0.2,0.9-0.3,1.5-0.3c0.4,0,0.8,0.1,1.2,0.2c0.4,0.1,0.7,0.3,1,0.5c0.3,0.2,0.5,0.5,0.7,0.8c0.2,0.3,0.3,0.7,0.3,1.2H43
		C42.9,4.3,42.5,3.8,41.7,3.8z"/>
	<path class="st0" d="M47.8,7.9c0.3,0.3,0.7,0.4,1.2,0.4c0.4,0,0.7-0.1,1-0.3c0.3-0.2,0.4-0.4,0.5-0.6h1.6c-0.3,0.8-0.7,1.4-1.2,1.8
		c-0.5,0.3-1.2,0.5-2,0.5c-0.5,0-1-0.1-1.5-0.3C47,9.3,46.7,9,46.4,8.7c-0.3-0.3-0.5-0.7-0.7-1.1c-0.2-0.4-0.2-0.9-0.2-1.5
		c0-0.5,0.1-1,0.2-1.4c0.2-0.4,0.4-0.8,0.7-1.2c0.3-0.3,0.7-0.6,1.1-0.8C48,2.5,48.4,2.4,49,2.4c0.6,0,1.1,0.1,1.5,0.3
		c0.4,0.2,0.8,0.5,1.1,0.9C51.8,4.1,52,4.5,52.2,5c0.1,0.5,0.2,1,0.1,1.5h-5C47.3,7.1,47.5,7.6,47.8,7.9L47.8,7.9z M50,4.3
		c-0.2-0.2-0.6-0.4-1.1-0.4c-0.3,0-0.5,0.1-0.8,0.2c-0.2,0.1-0.4,0.2-0.5,0.4c-0.1,0.1-0.2,0.3-0.2,0.5c0,0.2-0.1,0.3-0.1,0.4h3.1
		C50.4,4.8,50.2,4.5,50,4.3L50,4.3z"/>
</g>
</svg>
