<?xml version="1.0" encoding="utf-8"?>
<!-- Generator: Adobe Illustrator 25.2.1, SVG Export Plug-In . SVG Version: 6.00 Build 0)  -->
<svg version="1.1" id="Layer_1" xmlns="http://www.w3.org/2000/svg" xmlns:xlink="http://www.w3.org/1999/xlink" x="0px" y="0px"
	 viewBox="0 0 102.3 48.3" style="enable-background:new 0 0 102.3 48.3;" xml:space="preserve">
<style type="text/css">
	.st0{fill:#D3E7F7;}
	.st1{fill:#0155A1;}
	.st2{fill:#FBA702;}
	.st3{fill:#FCFEFF;}
	.st4{fill:#036ED4;}
	.st5{fill:#006CD3;}
	.st6{fill:#050306;}
	.st7{fill:#03B1AE;}
	.st8{fill:#00AD39;}
	.st9{fill:#FF495C;}
	.st10{fill:#017EAE;}
	.st11{fill:#CA4929;}
	.st12{fill:#F59001;}
	.st13{fill:#CDD0D2;}
	.st14{fill:#0863FF;}
	.st15{fill:#F14D02;}
	.st16{fill:#FED853;}
	.st17{fill:#2C323B;}
	.st18{fill:#EE5B65;}
	.st19{fill:#32B3E8;}
	.st20{fill:#2A8AC6;}
	.st21{fill:#D6445D;}
	.st22{fill:#960A2C;}
	.st23{fill:#010101;}
	.st24{fill:#D72B11;}
	.st25{fill:#E41231;}
	.st26{fill:#F01523;}
	.st27{fill:#93DD01;}
	.st28{fill:#249633;}
	.st29{fill:#242424;}
	.st30{fill:#C80126;}
	.st31{fill:#020202;}
	.st32{fill:#959798;}
	.st33{fill:#EE1818;}
	.st34{fill:#242021;}
	.st35{fill:#002A3B;}
	.st36{fill:#205053;}
	.st37{fill:#235153;}
	.st38{fill:#15AA9E;}
	.st39{fill:#09AC9D;}
	.st40{fill:#05716B;}
	.st41{fill:#F49200;}
	.st42{fill:#E25100;}
	.st43{fill:#0223FE;}
	.st44{fill:#04CBFE;}
	.st45{fill:#F47264;}
	.st46{fill:#F24731;}
	.st47{fill:#F8A197;}
	.st48{fill:#233240;}
	.st49{fill:#FE6D52;}
	.st50{fill:#124FFF;}
	.st51{fill:#F56D58;}
	.st52{fill:#75C4E2;}
	.st53{fill:#E0044D;}
	.st54{fill:#3B267C;}
	.st55{fill:#DD1937;}
	.st56{fill:#01B3FE;}
	.st57{fill:#454545;}
	.st58{fill:#AB56B3;}
	.st59{fill:#031A28;}
	.st60{fill:#53CD8E;}
	.st61{fill:#1B0E65;}
	.st62{fill:#060250;}
	.st63{fill:#02AA47;}
	.st64{fill:#060605;}
	.st65{fill:#221E5D;}
	.st66{fill:#F2574D;}
	.st67{fill:#FE6F05;}
	.st68{fill:#D2D1D0;}
</style>
<g>
	<path class="st0" d="M25,0c0.4,0,0.7,0,1.1,0.1c0.6,0.1,1.2,0.1,1.8,0.2c0.6,0.1,0.9,0.6,0.9,1.2c0,0.6-0.5,1-1.1,1
		c-0.3,0-0.7-0.1-1-0.1c-1.1-0.1-2.3-0.2-3.4-0.1c-0.9,0.1-1.8,0.2-2.7,0.3c-1.9,0.3-3.8,0.9-5.6,1.7c-4.4,2-7.7,5.2-10.1,9.4
		c-0.2,0.4-0.3,0.8,0,1.3c0.4,0.7,1.4,0.7,1.9-0.1c0.5-0.9,1-1.7,1.6-2.5c2.8-3.7,6.5-6.2,11.1-7.3c0.9-0.2,1.7-0.3,2.6-0.4
		c0.5-0.1,1,0.2,1.2,0.7c0.2,0.4,0,0.9-0.3,1.3c-0.2,0.2-0.5,0.2-0.8,0.3c-1.9,0.2-3.8,0.8-5.5,1.6c-3.6,1.8-6.3,4.5-8.1,8
		c-0.9,1.9-1.5,3.8-1.7,5.9c-0.1,0.8-0.1,1.7-0.1,2.5c0,0.6,0.5,1.1,1.1,1c0.6,0,1.1-0.5,1-1.1c0-1.2,0-2.4,0.3-3.6
		c0.5-2.7,1.7-5.1,3.5-7.2c2.3-2.6,5.2-4.3,8.6-5c1.4-0.3,2.9-0.4,4.3-0.2c1,0.1,1.9,0.2,2.8,0.5c0.5,0.2,0.9,0.6,0.8,1.2
		c-0.1,0.6-0.5,1-1.1,1c-0.2,0-0.5,0-0.7-0.1c-1.5-0.4-2.9-0.5-4.4-0.3c-5.9,0.6-10.4,4.9-11.6,10.2c-1,4.5,0.1,8.5,3.3,11.9
		c1.9,2,4.2,3.3,6.9,3.9c1.2,0.3,2.5,0.3,3.8,0.2c3.2-0.3,6-1.6,8.3-3.9c0.4-0.4,0.7-0.8,1.1-1.1c1.1-1,2.4-1.4,3.9-1.3
		c2.6,0.1,4.7,1.8,5.3,4.4c0.4,1.8-0.1,3.5-1.4,4.9c-1.1,1.2-2.3,2.4-3.7,3.4c-2.9,2.2-6.2,3.6-9.8,4.3c-1.9,0.4-3.8,0.5-5.7,0.5
		c-5.3-0.2-10-1.9-14.2-5.3c-3.7-3-6.4-6.7-7.9-11.3c-0.5-1.5-0.8-3-1-4.5C0,25.9,0,24.5,0,23.1C0.3,17.8,2.1,13,5.5,8.9
		c2.2-2.7,4.9-4.8,8-6.4c2.1-1,4.2-1.7,6.5-2.1C21,0.2,22.2,0.1,23.3,0c0.1,0,0.1,0,0.2,0C24,0,24.5,0,25,0z"/>
	<path class="st0" d="M13.2,24.3c0.1-3,1-5.5,3-7.6c0.3-0.4,0.7-0.6,1.3-0.5c0.4,0.1,0.7,0.4,0.8,0.8c0.1,0.4,0,0.8-0.3,1.1
		c-0.9,0.9-1.6,2-2,3.2c-1.8,5,1.3,10.4,6.4,11.5c2.1,0.4,4.1,0.2,6-0.9c0.3-0.2,0.7-0.2,1-0.1c0.4,0.1,0.8,0.5,0.8,0.9
		c0,0.5-0.1,0.8-0.5,1.1c-0.9,0.5-1.9,0.9-2.9,1.1c-3.8,0.8-7.2-0.1-10-2.7c-2-1.8-3.2-4.2-3.4-6.9C13.2,24.9,13.2,24.5,13.2,24.3z"
		/>
	<path class="st0" d="M86.6,23.9c0.4,0.3,0.7,0.7,0.9,1.2c0.9,2-0.6,4.3-2.8,4.3c-1.3,0-2.7,0-4,0c-0.5,0-1-0.4-1-1c0-0.7,0-1.4,0-2
		c0-2.2,0-4.3,0-6.5c0-0.7,0.4-1.1,1.1-1.1c1.1,0,2.2,0,3.3,0c1.8,0,3.2,1.4,3.2,3.2c0,0.6-0.2,1.1-0.5,1.6
		C86.7,23.8,86.6,23.8,86.6,23.9C86.6,23.9,86.6,23.9,86.6,23.9z M81.7,25.1c0,0.8,0,1.6,0,2.4c1,0,1.9,0,2.9,0
		c0.6,0,1.1-0.5,1.2-1.1c0.1-0.6-0.3-1.2-1-1.3c0,0-0.1,0-0.1,0C83.7,25.1,82.7,25.1,81.7,25.1z M81.7,23.2c0.8,0,1.6,0,2.3,0
		c0.7,0,1.2-0.5,1.2-1.2c0-0.7-0.5-1.2-1.2-1.2c-0.7,0-1.4,0-2.1,0c-0.1,0-0.1,0-0.2,0C81.7,21.6,81.7,22.4,81.7,23.2z"/>
	<path class="st0" d="M72.2,29.5c-3,0-5.3-2.4-5.3-5.3c0-2.9,2.4-5.3,5.3-5.3c2.9,0,5.3,2.4,5.3,5.3C77.5,27.1,75.1,29.5,72.2,29.5z
		 M75.6,24.2c0-1.8-1.5-3.4-3.3-3.4c-1.8,0-3.4,1.5-3.4,3.3c0,1.9,1.5,3.4,3.3,3.5C74,27.5,75.6,26.1,75.6,24.2z"/>
	<path class="st0" d="M60.3,29.5c-3,0-5.3-2-5.7-4.6c-0.4-2.9,1.6-5.5,4.5-5.9c2.1-0.3,4.2,0.6,5.3,2.4c0.4,0.6,0.1,1.4-0.6,1.5
		c-0.4,0.1-0.8-0.1-1.1-0.5c-0.5-0.8-1.3-1.3-2.3-1.5c-1.4-0.3-2.9,0.5-3.6,1.7c-0.7,1.3-0.5,2.9,0.6,3.9c1.6,1.6,4.1,1.3,5.3-0.5
		c0.3-0.5,0.9-0.6,1.4-0.3c0.5,0.3,0.6,0.9,0.3,1.4C63.4,28.6,61.9,29.4,60.3,29.5z"/>
	<path class="st0" d="M26.1,4.5c1.4,0.1,2.8,0.4,4.2,0.9c3.3,1.1,6.2,2.9,8.7,5.3c0.8,0.8,1.5,1.7,2.3,2.5c0.3,0.4,0.4,0.9,0.1,1.3
		c-0.2,0.4-0.7,0.6-1.3,0.5c-0.3-0.1-0.5-0.2-0.7-0.4c-0.7-0.8-1.3-1.6-2-2.3c-2.8-2.7-6.2-4.6-10-5.4c-0.5-0.1-0.9-0.1-1.4-0.2
		c-0.6-0.1-1.1-0.6-1-1.2C24.9,4.9,25.4,4.5,26.1,4.5C26,4.5,26,4.5,26.1,4.5z"/>
	<path class="st0" d="M92.7,27.5c0.1,0,0.2,0,0.3,0c1.3,0,2.6,0,3.8,0c0.4,0,0.7,0.2,0.9,0.5c0.2,0.3,0.1,0.7-0.1,1
		c-0.2,0.3-0.4,0.4-0.8,0.4c-1.7,0-3.5,0-5.2,0c-0.5,0-0.9-0.4-0.9-1c0-2.9,0-5.8,0-8.7c0-0.5,0.4-1,1-1c0.5,0,1,0.4,1,1
		c0,0.8,0,1.5,0,2.3c0,1.8,0,3.5,0,5.3C92.7,27.4,92.7,27.5,92.7,27.5z"/>
	<path class="st0" d="M31.3,0.9c0.2,0,0.3,0,0.5,0.1c3.4,1.3,6.5,3.1,9.2,5.5c0.2,0.2,0.5,0.4,0.7,0.7c0.5,0.6,0.4,1.5-0.3,1.8
		c-0.5,0.2-1.1,0.1-1.4-0.2c-2.6-2.5-5.6-4.4-8.9-5.6c-0.6-0.2-0.9-0.7-0.8-1.2C30.3,1.3,30.7,1,31.3,0.9z"/>
	<path class="st0" d="M23.9,13.2c1.9,0,3.4,0.3,4.9,1c0.6,0.3,0.9,0.9,0.6,1.5c-0.3,0.6-1,0.8-1.6,0.6c-0.7-0.3-1.4-0.5-2.1-0.7
		c-1.6-0.3-3.1-0.2-4.6,0.4c-0.3,0.1-0.7,0.1-1,0c-0.4-0.2-0.6-0.6-0.6-1c0-0.5,0.3-0.8,0.7-1c0.7-0.2,1.4-0.4,2.1-0.5
		C23,13.2,23.6,13.2,23.9,13.2z"/>
	<path class="st0" d="M102.3,24.2c0,1.4,0,2.9,0,4.3c0,0.4-0.2,0.7-0.5,0.9c-0.3,0.2-0.7,0.2-1-0.1c-0.3-0.2-0.4-0.5-0.4-0.8
		c0-2.9,0-5.8,0-8.7c0-0.5,0.4-1,1-1c0.5,0,1,0.4,1,1C102.3,21.3,102.3,22.7,102.3,24.2z"/>
	<path class="st0" d="M35.9,17.1c-0.4,0-0.8-0.2-1-0.6c-1.1-1.5-2.5-2.8-4.1-3.7c-0.6-0.4-0.8-1-0.5-1.5c0.3-0.5,1.1-0.7,1.6-0.4
		c1.1,0.6,2.1,1.4,3,2.3c0.7,0.7,1.3,1.4,1.9,2.2c0.4,0.5,0.2,1.3-0.4,1.6C36.3,17,36.1,17.1,35.9,17.1z"/>
</g>
</svg>
