<?xml version="1.0" encoding="utf-8"?>
<!-- Generator: Adobe Illustrator 25.2.1, SVG Export Plug-In . SVG Version: 6.00 Build 0)  -->
<svg version="1.1" id="Layer_1" xmlns="http://www.w3.org/2000/svg" xmlns:xlink="http://www.w3.org/1999/xlink" x="0px" y="0px"
	 viewBox="0 0 66.5 13.6" style="enable-background:new 0 0 66.5 13.6;" xml:space="preserve">
<style type="text/css">
	.st0{fill:#D3E7F7;}
	.st1{fill:#0155A1;}
	.st2{fill:#FBA702;}
	.st3{fill:#FCFEFF;}
	.st4{fill:#036ED4;}
	.st5{fill:#006CD3;}
	.st6{fill:#050306;}
	.st7{fill:#03B1AE;}
	.st8{fill:#00AD39;}
	.st9{fill:#FF495C;}
	.st10{fill:#017EAE;}
	.st11{fill:#CA4929;}
	.st12{fill:#F59001;}
	.st13{fill:#CDD0D2;}
	.st14{fill:#0863FF;}
	.st15{fill:#F14D02;}
	.st16{fill:#FED853;}
	.st17{fill:#2C323B;}
	.st18{fill:#EE5B65;}
	.st19{fill:#32B3E8;}
	.st20{fill:#2A8AC6;}
	.st21{fill:#D6445D;}
	.st22{fill:#960A2C;}
	.st23{fill:#010101;}
	.st24{fill:#D72B11;}
	.st25{fill:#E41231;}
	.st26{fill:#F01523;}
	.st27{fill:#93DD01;}
	.st28{fill:#249633;}
	.st29{fill:#242424;}
	.st30{fill:#C80126;}
	.st31{fill:#020202;}
	.st32{fill:#959798;}
	.st33{fill:#EE1818;}
	.st34{fill:#242021;}
	.st35{fill:#002A3B;}
	.st36{fill:#205053;}
	.st37{fill:#235153;}
	.st38{fill:#15AA9E;}
	.st39{fill:#09AC9D;}
	.st40{fill:#05716B;}
	.st41{fill:#F49200;}
	.st42{fill:#E25100;}
	.st43{fill:#0223FE;}
	.st44{fill:#04CBFE;}
	.st45{fill:#F47264;}
	.st46{fill:#F24731;}
	.st47{fill:#F8A197;}
	.st48{fill:#233240;}
	.st49{fill:#FE6D52;}
	.st50{fill:#124FFF;}
	.st51{fill:#F56D58;}
	.st52{fill:#75C4E2;}
	.st53{fill:#E0044D;}
	.st54{fill:#3B267C;}
	.st55{fill:#DD1937;}
	.st56{fill:#01B3FE;}
	.st57{fill:#454545;}
	.st58{fill:#AB56B3;}
	.st59{fill:#031A28;}
	.st60{fill:#53CD8E;}
	.st61{fill:#1B0E65;}
	.st62{fill:#060250;}
	.st63{fill:#02AA47;}
	.st64{fill:#060605;}
	.st65{fill:#221E5D;}
	.st66{fill:#F2574D;}
	.st67{fill:#FE6F05;}
	.st68{fill:#D2D1D0;}
</style>
<g>
	<path class="st0" d="M40.7,7.4c-0.7,0-1.4,0-2.1,0c-0.2,0-0.2,0.1-0.2,0.2c0.2,0.5,0.7,0.8,1.2,0.9c0.6,0.1,1.2,0,1.7-0.2
		c0.1,0,0.2-0.1,0.3-0.1c0.1-0.1,0.3,0,0.4,0.1c0.2,0.2,0.4,0.4,0.6,0.6c0.2,0.2,0.2,0.3,0,0.5c-1.2,0.8-2.5,1-3.9,0.5
		c-1.2-0.4-1.9-1.5-1.9-2.8c0-1,0.2-2,1.1-2.7c0.8-0.6,1.7-0.8,2.6-0.7c0.8,0.1,1.5,0.3,2,0.9C43,5,43.2,5.7,43.2,6.5
		c0,0.2,0,0.4,0,0.6c0,0.2-0.1,0.3-0.3,0.3c-0.4,0-0.8,0-1.2,0C41.4,7.4,41,7.4,40.7,7.4z M38.5,6c1,0,2,0,3,0
		c0.2,0,0.1-0.1,0.1-0.2c-0.1-0.4-0.3-0.7-0.7-0.8c-0.6-0.2-1.1-0.2-1.7,0.1C38.8,5.3,38.6,5.6,38.5,6z"/>
	<path class="st0" d="M26.1,6.8c0,1.9-1.3,3.2-3.2,3.2c-1.8,0-3.2-1.3-3.2-3.2c0-1.9,1.4-3.2,3.2-3.2C24.7,3.6,26.1,4.9,26.1,6.8z
		 M24.5,6.8c0-0.1,0-0.2,0-0.3c-0.1-1-1-1.7-2-1.4c-0.7,0.2-1.1,0.7-1.2,1.5c-0.1,0.7,0.1,1.3,0.6,1.7c0.5,0.4,1.1,0.4,1.7,0.2
		C24.2,8.1,24.4,7.5,24.5,6.8z"/>
	<path class="st0" d="M62.5,9.1c-0.3,0.3-0.6,0.5-1,0.6c-1.6,0.6-3.2-0.3-3.5-2c0-0.3-0.1-0.6-0.1-0.8c0-0.9,0-1.7,0-2.6
		c0-0.4,0.2-0.6,0.6-0.6c0.1,0,0.3,0,0.4,0c0.4,0,0.6,0.2,0.6,0.6c0,0.9,0,1.7,0,2.6c0,0.2,0,0.5,0.1,0.7c0.2,0.5,0.5,0.8,1,0.9
		c0.5,0.1,1-0.1,1.4-0.5c0.3-0.3,0.4-0.7,0.4-1.1c0-0.9,0-1.8,0-2.6c0-0.4,0.2-0.6,0.6-0.6c0.2,0,0.3,0,0.5,0c0.3,0,0.5,0.2,0.5,0.5
		c0,0.2,0,0.4,0,0.5c0,1.5,0,3,0,4.5c0,0.4-0.2,0.6-0.6,0.6c0,0,0,0,0,0C62.7,9.8,62.7,9.8,62.5,9.1z"/>
	<path class="st0" d="M28.1,4.4C28.5,4,29,3.7,29.6,3.6c1.4-0.2,2.6,0.5,3,2c0.1,0.3,0.1,0.7,0.1,1c0,0.9,0,1.7,0,2.6
		c0,0.5-0.2,0.6-0.6,0.6c-0.1,0-0.3,0-0.4,0c-0.4,0-0.6-0.2-0.6-0.6c0-0.9,0-1.8,0-2.7c0-0.2,0-0.4-0.1-0.5c-0.2-0.6-0.6-1-1.2-1
		c-0.7-0.1-1.3,0.3-1.5,0.9c-0.1,0.3-0.2,0.5-0.2,0.8c0,0.8,0,1.6,0,2.4c0,0.5-0.1,0.7-0.7,0.7c-0.1,0-0.3,0-0.4,0
		c-0.3,0-0.4-0.2-0.5-0.4c0-0.1,0-0.1,0-0.2c0-1.6,0-3.3,0-4.9c0-0.5,0.2-0.6,0.6-0.6C27.9,3.7,27.9,3.7,28.1,4.4z"/>
	<path class="st0" d="M45.2,4.4c0.5-0.4,0.9-0.7,1.5-0.8c1.4-0.2,2.5,0.5,2.9,1.8c0.1,0.4,0.2,0.8,0.2,1.2c0,0.9,0,1.7,0,2.6
		c0,0.4-0.2,0.6-0.6,0.6c-0.1,0-0.3,0-0.4,0c-0.4,0-0.5-0.2-0.5-0.5c0-0.9,0-1.8,0-2.7c0-0.2,0-0.3-0.1-0.5c-0.1-0.6-0.6-0.9-1.1-1
		c-0.6-0.1-1.2,0.2-1.5,0.7c-0.2,0.3-0.3,0.6-0.3,1c0,0.8,0,1.7,0,2.5c0,0.4-0.2,0.6-0.6,0.6c-0.2,0-0.4,0-0.5,0
		c-0.2,0-0.4-0.2-0.5-0.4c0-0.1,0-0.2,0-0.3c0-1.6,0-3.2,0-4.8c0-0.5,0.2-0.7,0.7-0.7c0.1,0,0.2,0,0.2,0c0.3,0,0.5,0.1,0.6,0.4
		C45.1,4.2,45.1,4.3,45.2,4.4z"/>
	<path class="st0" d="M17.1,3.6c0.7,0,1.3,0.1,1.9,0.5c0.1,0,0.1,0.1,0.2,0.1c0.3,0.2,0.3,0.4,0.1,0.7c-0.1,0.2-0.3,0.3-0.4,0.5
		c-0.2,0.1-0.3,0.1-0.5,0c-0.4-0.3-0.9-0.4-1.4-0.3c-0.7,0.1-1.1,0.6-1.2,1.4c-0.1,0.7,0,1.3,0.6,1.8c0.4,0.4,1.5,0.5,2,0
		C18.6,7.9,18.7,8,19,8.2c0.2,0.2,0.3,0.3,0.5,0.5c0.2,0.2,0.1,0.3,0,0.5c-1.5,1.3-4,0.9-5-0.8c-0.9-1.5-0.6-4.1,2-4.7
		C16.7,3.6,16.9,3.6,17.1,3.6z"/>
	<path class="st0" d="M54.3,6.3c0-1,0-1.9,0-2.9c0-1,0.6-1.9,1.4-2.2c0.5-0.2,1-0.1,1.5-0.1c0,0,0.1,0,0.1,0
		c0.3,0.1,0.4,0.4,0.3,0.9c0,0.3-0.2,0.4-0.5,0.4c-0.1,0-0.3,0-0.4,0c-0.6,0-0.9,0.3-0.9,0.9c0,0.4,0,0.4,0.3,0.4c0.2,0,0.5,0,0.7,0
		c0.3,0,0.5,0.2,0.5,0.5c0,0.7-0.1,0.9-0.8,0.9c-0.2,0-0.4,0-0.5,0c-0.2,0-0.2,0-0.2,0.2c0,0.9,0,1.7,0,2.6c0,0.5,0,0.9,0,1.4
		c0,0.4-0.2,0.6-0.6,0.6c-0.1,0-0.3,0-0.4,0c-0.3,0-0.5-0.2-0.5-0.5C54.3,8.3,54.3,7.3,54.3,6.3z"/>
	<path class="st0" d="M52,6.5c0,0.4,0,0.7,0,1.1c0,0.6,0.2,0.8,0.8,0.8c0.1,0,0.2,0,0.3,0c0.2,0,0.4,0.2,0.4,0.5
		c0,0.3,0.1,0.8-0.3,0.9c-0.7,0.1-1.4,0.1-2-0.3c-0.5-0.4-0.7-0.9-0.7-1.5c0-1.8,0-3.5,0-5.3c0-0.3,0.2-0.5,0.5-0.5
		c0.2,0,0.4,0,0.6,0c0.3,0,0.5,0.2,0.5,0.5c0,0.3,0,0.5,0,0.8c0,0.2,0,0.2,0.2,0.2c0.3,0,0.6,0,0.9,0c0.3,0,0.5,0.2,0.5,0.5
		c0,0.6-0.1,0.9-0.8,0.8c-0.2,0-0.5,0-0.7,0c-0.1,0-0.2,0-0.1,0.1c0,0,0,0,0,0C52,5.7,52,6.1,52,6.5z"/>
	<path class="st0" d="M33.5,5.3c0-0.9,0-1.8,0-2.6c0-0.4,0.2-0.6,0.6-0.6c0.2,0,0.3,0,0.5,0c0.3,0,0.5,0.2,0.5,0.5
		c0,0.3,0,0.6,0,0.9c0,0.1,0,0.2,0.2,0.1c0.3,0,0.7,0,1,0c0.3,0,0.5,0.1,0.5,0.4c0,0.2,0,0.4,0,0.5c0,0.3-0.2,0.4-0.5,0.4
		c-0.3,0-0.7,0-1,0c-0.1,0-0.2,0-0.2,0.1c0,0.8,0,1.7,0,2.5c0,0.5,0.3,0.7,0.7,0.7c0,0,0,0,0,0c0.7,0,0.9,0.3,0.8,0.9
		c0,0.2-0.2,0.4-0.4,0.4c-0.4,0-0.9,0-1.3-0.1C34,9.5,33.5,8.9,33.5,8c0,0,0-0.1,0-0.1C33.5,7,33.5,6.2,33.5,5.3z"/>
	<path class="st0" d="M66.5,6c0,1.1,0,2.2,0,3.3c0,0.4-0.2,0.6-0.6,0.6c-0.2,0-0.3,0-0.5,0c-0.3,0-0.5-0.2-0.5-0.5
		c0-0.1,0-0.1,0-0.2c0-2.1,0-4.3,0-6.4c0-0.5,0.2-0.6,0.6-0.6c0.1,0,0.3,0,0.4,0c0.3,0,0.5,0.2,0.5,0.5C66.5,3.8,66.5,4.9,66.5,6z"
		/>
	<path class="st0" d="M2.3,1.7c0.3,0,0.5-0.1,0.8-0.1c0.7,0,1.3,0.5,1.4,1.2c0.1,0.4,0,0.8-0.2,1.1C4.2,4.1,4,4.2,3.8,4.3
		c0,0-0.1,0,0,0c0,0,0,0,0,0C3.6,4.4,3.3,4.5,3,4.5c-1.1,0-1.8-1-1.4-2c0-0.1,0-0.1,0-0.2c0,0,0,0,0,0c0.1,0,0-0.1,0-0.1
		C1.9,2.1,2,1.9,2.2,1.8C2.3,1.8,2.3,1.8,2.3,1.7C2.3,1.7,2.3,1.7,2.3,1.7C2.3,1.7,2.3,1.7,2.3,1.7L2.3,1.7z"/>
	<path class="st0" d="M4.4,9.7c0,0.2,0.1,0.3,0.1,0.5c0.2,1.2-1,2.1-2.1,1.6c-0.1,0-0.1-0.1-0.2,0c0,0,0,0,0,0c0,0,0-0.1-0.1-0.1
		c0,0,0,0,0,0c0-0.1,0-0.1-0.1-0.1c-0.2-0.1-0.3-0.3-0.4-0.5c0,0,0-0.1,0-0.1c0,0,0,0,0,0c0-0.1,0-0.1,0-0.2c-0.2-0.6,0-1.2,0.5-1.6
		C2.6,9,3.2,8.9,3.8,9.2c0,0,0.1,0,0.1,0C4.1,9.4,4.2,9.6,4.4,9.7z"/>
	<path class="st0" d="M2.3,1.7C2.3,1.8,2.3,1.8,2.3,1.7C2.2,1.8,2.3,1.8,2.3,1.7z"/>
	<path class="st0" d="M1.7,2.3C1.7,2.3,1.7,2.4,1.7,2.3C1.7,2.3,1.7,2.3,1.7,2.3z"/>
	<path class="st0" d="M2.1,11.7C2.1,11.7,2.2,11.7,2.1,11.7C2.1,11.7,2.1,11.7,2.1,11.7z"/>
	<path class="st0" d="M2.2,11.7C2.2,11.7,2.2,11.8,2.2,11.7C2.2,11.8,2.2,11.8,2.2,11.7z"/>
	<path class="st0" d="M2.3,1.7C2.3,1.7,2.3,1.7,2.3,1.7C2.3,1.7,2.3,1.7,2.3,1.7z"/>
	<path class="st0" d="M3.8,4.4C3.8,4.4,3.8,4.4,3.8,4.4C3.8,4.4,3.8,4.4,3.8,4.4z"/>
	<path class="st0" d="M1.6,11.2C1.7,11.2,1.7,11.2,1.6,11.2C1.7,11.2,1.7,11.2,1.6,11.2z"/>
	<path class="st0" d="M11.1,9.1c-0.6-0.2-1.2-0.1-1.7,0.4c-0.9,0.8-1.9,1.2-3.1,1c-0.4,0-0.7-0.2-1-0.3c0.1,1.2-0.7,2.2-1.8,2.4
		c1,0.6,2.2,0.9,3.4,0.9c1.8-0.1,3.4-0.7,4.6-2C12.4,10.8,12.1,9.5,11.1,9.1z"/>
	<path class="st0" d="M11.6,1.9C9.5,0,7.1-0.5,4.4,0.5C4.1,0.6,3.8,0.7,3.5,0.8c1.1,0.2,1.9,1.3,1.8,2.5C5.7,3.1,6.2,3,6.7,3
		c1.1,0,2,0.4,2.8,1.1c0.4,0.4,0.9,0.5,1.5,0.4C12.1,4.1,12.4,2.7,11.6,1.9z"/>
	<path class="st0" d="M3.1,5.9c0-0.2,0.1-0.4,0.2-0.6c-0.4,0-0.9,0-1.3-0.3C1.9,5,1.9,5,1.8,5C1.5,4.8,1.3,4.5,1,4.2
		C1,4,0.9,3.8,0.8,3.6C0.6,4,0.4,4.4,0.3,4.9C0.1,5.3,0.1,5.7,0,6.1C0,6.6,0,7,0,7.4c0,0,0,0.1,0,0.1C0.1,8.4,0.4,9.3,0.8,10
		c0.1-0.5,0.3-0.9,0.8-1.3c0.5-0.4,1.1-0.6,1.7-0.5C3,7.5,2.9,6.7,3.1,5.9z"/>
</g>
</svg>
