<?xml version="1.0" encoding="utf-8"?>
<!-- Generator: Adobe Illustrator 25.2.1, SVG Export Plug-In . SVG Version: 6.00 Build 0)  -->
<svg version="1.1" id="Layer_1" xmlns="http://www.w3.org/2000/svg" xmlns:xlink="http://www.w3.org/1999/xlink" x="0px" y="0px"
	 viewBox="0 0 90.3 23.4" style="enable-background:new 0 0 90.3 23.4;" xml:space="preserve">
<style type="text/css">
	.st0{fill:#D3E7F7;}
	.st1{fill:#0155A1;}
	.st2{fill:#FBA702;}
	.st3{fill:#FCFEFF;}
	.st4{fill:#036ED4;}
	.st5{fill:#006CD3;}
	.st6{fill:#050306;}
	.st7{fill:#03B1AE;}
	.st8{fill:#00AD39;}
	.st9{fill:#FF495C;}
	.st10{fill:#017EAE;}
	.st11{fill:#CA4929;}
	.st12{fill:#F59001;}
	.st13{fill:#CDD0D2;}
	.st14{fill:#0863FF;}
	.st15{fill:#F14D02;}
	.st16{fill:#FED853;}
	.st17{fill:#2C323B;}
	.st18{fill:#EE5B65;}
	.st19{fill:#32B3E8;}
	.st20{fill:#2A8AC6;}
	.st21{fill:#D6445D;}
	.st22{fill:#960A2C;}
	.st23{fill:#010101;}
	.st24{fill:#D72B11;}
	.st25{fill:#E41231;}
	.st26{fill:#F01523;}
	.st27{fill:#93DD01;}
	.st28{fill:#249633;}
	.st29{fill:#242424;}
	.st30{fill:#C80126;}
	.st31{fill:#020202;}
	.st32{fill:#959798;}
	.st33{fill:#EE1818;}
	.st34{fill:#242021;}
	.st35{fill:#002A3B;}
	.st36{fill:#205053;}
	.st37{fill:#235153;}
	.st38{fill:#15AA9E;}
	.st39{fill:#09AC9D;}
	.st40{fill:#05716B;}
	.st41{fill:#F49200;}
	.st42{fill:#E25100;}
	.st43{fill:#0223FE;}
	.st44{fill:#04CBFE;}
	.st45{fill:#F47264;}
	.st46{fill:#F24731;}
	.st47{fill:#F8A197;}
	.st48{fill:#233240;}
	.st49{fill:#FE6D52;}
	.st50{fill:#124FFF;}
	.st51{fill:#F56D58;}
	.st52{fill:#75C4E2;}
	.st53{fill:#E0044D;}
	.st54{fill:#3B267C;}
	.st55{fill:#DD1937;}
	.st56{fill:#01B3FE;}
	.st57{fill:#454545;}
	.st58{fill:#AB56B3;}
	.st59{fill:#031A28;}
	.st60{fill:#53CD8E;}
	.st61{fill:#1B0E65;}
	.st62{fill:#060250;}
	.st63{fill:#02AA47;}
	.st64{fill:#060605;}
	.st65{fill:#221E5D;}
	.st66{fill:#F2574D;}
	.st67{fill:#FE6F05;}
	.st68{fill:#D2D1D0;}
</style>
<g>
	<path class="st0" d="M86.7,0c0,0.4,0,0.7,0,1.1c0,1.5,0,2.9,0,4.4c0,0.1,0,0.2,0,0.3c1.2,0,2.4,0,3.6,0c0,0.8,0,1.5,0,2.2
		c-0.6,0-1.2,0-1.8,0c-0.6,0-1.2,0-1.8,0c0,0.1,0,0.2,0,0.2c0,1.3,0,2.5,0,3.8c0,1.8,1.3,3.3,3.1,3.5c0.2,0,0.3,0,0.5,0.1
		c0,0.2,0.1,1.9,0,2.1c-0.3,0-0.5,0-0.8,0c-2.3-0.4-4.2-2-4.7-4.3c-0.1-0.4-0.2-0.9-0.2-1.3c0-1.2,0-2.5,0-3.7c0-0.1,0-0.2,0-0.3
		c-0.3,0-0.5,0-0.7,0c-0.3,0-0.5,0-0.8,0c-0.2,0-0.5,0-0.7,0c-0.1-0.2-0.1-1.8,0-2.2c0.7,0,1.4,0,2.1,0c0-0.1,0-0.1,0-0.2
		c0-1.8,0-3.6,0-5.4c0,0,0-0.1,0-0.1C85.2,0,85.9,0,86.7,0z"/>
	<path class="st0" d="M16.9,6.2c-0.8,0-1.6,0-2.4,0c0-0.1-0.1-0.1-0.1-0.2c-1-1.8-2.5-3-4.6-3.3C7.2,2.3,5.1,3.1,3.5,5.2
		C2.5,6.5,2.2,8,2.3,9.6c0.2,2.8,2.4,5.1,5.1,5.7c2.8,0.6,5.6-0.8,6.9-3.2c0,0,0.1-0.1,0.1-0.1c0-0.1,0.1-0.2,0.2-0.2
		c0.2,0,0.4,0,0.6,0c0.5,0,1,0,1.4,0c0.1,0,0.1,0,0.2,0c-0.9,2.9-4.1,6-8.5,5.8C3.9,17.5,0.1,13.9,0,9.1c-0.1-4.6,3.4-8.2,7.6-8.7
		C12.4-0.2,15.9,3,16.9,6.2z"/>
	<path class="st0" d="M33.9,7.3C34,7.2,34,7.2,34.1,7.2c1-0.7,2.2-1.1,3.5-1.1c2.9,0.1,5.1,2.2,5.5,4.7c0.6,3.1-1.4,6.2-4.5,6.8
		c-3.4,0.7-6.3-1.6-6.8-4.6c-0.1-0.4-0.1-0.8-0.1-1.2c0-3.7,0-7.4,0-11.2c0-0.1,0-0.2,0-0.2c0.8,0,1.5,0,2.3,0
		C33.9,2.7,33.9,5,33.9,7.3z M37.5,8.4c-2-0.1-3.5,1.5-3.6,3.3c-0.1,2,1.3,3.7,3.3,3.8c2,0.1,3.6-1.4,3.7-3.3
		C41.1,10.1,39.6,8.5,37.5,8.4z"/>
	<path class="st0" d="M47.2,13c0,0.1,0,0.2,0.1,0.2c0.5,1.3,1.5,2,2.9,2.2c1.1,0.1,2-0.2,2.8-0.9c0.1-0.1,0.2-0.1,0.4-0.1
		c0.7,0,1.5,0,2.2,0c0.1,0,0.1,0,0.2,0c-0.1,0.7-1.4,2.1-2.5,2.6c-1.1,0.6-2.3,0.8-3.6,0.6c-3.2-0.5-5.4-3.5-4.8-6.7
		c0.6-3.2,3.7-5.3,6.9-4.6c3.3,0.7,5.1,3.9,4.4,6.8C53.3,13,50.3,13,47.2,13z M47.2,10.8c2.3,0,4.5,0,6.7,0c-0.2-1.3-2-2.5-3.4-2.4
		c-0.9,0-1.7,0.4-2.4,1C47.7,9.7,47.4,10.2,47.2,10.8z"/>
	<path class="st0" d="M23.1,23.4c-0.8,0-1.6,0-2.4,0c0-0.1,0-0.2,0.1-0.3c0.7-1.8,1.4-3.5,2.1-5.3c0.1-0.2,0.1-0.3,0-0.5
		c-1.5-3.7-2.9-7.4-4.4-11.1c0-0.1-0.1-0.1-0.1-0.2c0.2,0,2.1-0.1,2.4,0c1.1,2.8,2.2,5.6,3.4,8.4c0,0,0,0,0,0c0,0,0,0,0,0
		c0,0,0,0,0,0c1.1-2.8,2.2-5.6,3.3-8.3c0,0,0,0,0,0c0.8,0,1.6,0,2.4,0C27.7,11.9,25.4,17.7,23.1,23.4z"/>
	<path class="st0" d="M81.9,17.7c-0.8,0-1.5,0-2.2,0c0-0.1,0-0.2,0-0.3c0-1.8,0-3.7,0-5.5c0-1.5-0.7-2.5-2-3.2c-2.1-1-4.7,0.3-5,2.6
		c0,0.2,0,0.4,0,0.7c0,1.8,0,3.6,0,5.4c0,0.1,0,0.2,0,0.3c-0.7,0-1.5,0-2.2,0c0-0.1,0-0.1,0-0.2c0-1.9,0-3.8,0-5.7
		c0-2.7,1.9-5.1,4.8-5.6c3.1-0.6,6.2,1.5,6.7,4.7c0.1,0.3,0.1,0.7,0.1,1c0,1.9,0,3.7,0,5.6C81.9,17.5,81.9,17.6,81.9,17.7z"/>
	<path class="st0" d="M64.2,6.1c0,0.8,0,1.5,0,2.2c-0.2,0-0.4,0-0.6,0.1c-1.4,0.2-2.6,1.4-2.9,2.8c0,0.3-0.1,0.5-0.1,0.8
		c0,1.8,0,3.6,0,5.3c0,0.1,0,0.2,0,0.3c-0.2,0.1-2.1,0.1-2.3,0c0-0.1,0-0.1,0-0.2c0-1.8,0-3.7,0-5.5c0-2.7,1.9-5.1,4.5-5.7
		C63.4,6.1,63.8,6.1,64.2,6.1z"/>
	<path class="st0" d="M66,17.6c0-3.9,0-7.7,0-11.5c0.7,0,1.5,0,2.2,0c0,0.2,0,11.3,0,11.5C67.5,17.6,66.8,17.6,66,17.6z"/>
	<path class="st0" d="M70.6,0.2c-0.1,1.3-0.6,2.3-1.7,2.9c-1.2,0.7-2.5,0.8-3.7,0c-1.1-0.7-1.7-1.7-1.7-3
		C63.7,0.2,70.3,0.2,70.6,0.2z"/>
</g>
</svg>
