<?xml version="1.0" encoding="utf-8"?>
<!-- Generator: Adobe Illustrator 25.2.1, SVG Export Plug-In . SVG Version: 6.00 Build 0)  -->
<svg version="1.1" id="Layer_1" xmlns="http://www.w3.org/2000/svg" xmlns:xlink="http://www.w3.org/1999/xlink" x="0px" y="0px"
	 viewBox="0 0 71.7 38.1" style="enable-background:new 0 0 71.7 38.1;" xml:space="preserve">
<style type="text/css">
	.st0{fill:#D3E7F7;}
	.st1{fill:#0155A1;}
	.st2{fill:#FBA702;}
	.st3{fill:#FCFEFF;}
	.st4{fill:#036ED4;}
	.st5{fill:#006CD3;}
	.st6{fill:#050306;}
	.st7{fill:#03B1AE;}
	.st8{fill:#00AD39;}
	.st9{fill:#FF495C;}
	.st10{fill:#017EAE;}
	.st11{fill:#CA4929;}
	.st12{fill:#F59001;}
	.st13{fill:#CDD0D2;}
	.st14{fill:#0863FF;}
	.st15{fill:#F14D02;}
	.st16{fill:#FED853;}
	.st17{fill:#2C323B;}
	.st18{fill:#EE5B65;}
	.st19{fill:#32B3E8;}
	.st20{fill:#2A8AC6;}
	.st21{fill:#D6445D;}
	.st22{fill:#960A2C;}
	.st23{fill:#010101;}
	.st24{fill:#D72B11;}
	.st25{fill:#E41231;}
	.st26{fill:#F01523;}
	.st27{fill:#93DD01;}
	.st28{fill:#249633;}
	.st29{fill:#242424;}
	.st30{fill:#C80126;}
	.st31{fill:#020202;}
	.st32{fill:#959798;}
	.st33{fill:#EE1818;}
	.st34{fill:#242021;}
	.st35{fill:#002A3B;}
	.st36{fill:#205053;}
	.st37{fill:#235153;}
	.st38{fill:#15AA9E;}
	.st39{fill:#09AC9D;}
	.st40{fill:#05716B;}
	.st41{fill:#F49200;}
	.st42{fill:#E25100;}
	.st43{fill:#0223FE;}
	.st44{fill:#04CBFE;}
	.st45{fill:#F47264;}
	.st46{fill:#F24731;}
	.st47{fill:#F8A197;}
	.st48{fill:#233240;}
	.st49{fill:#FE6D52;}
	.st50{fill:#124FFF;}
	.st51{fill:#F56D58;}
	.st52{fill:#75C4E2;}
	.st53{fill:#E0044D;}
	.st54{fill:#3B267C;}
	.st55{fill:#DD1937;}
	.st56{fill:#01B3FE;}
	.st57{fill:#454545;}
	.st58{fill:#AB56B3;}
	.st59{fill:#031A28;}
	.st60{fill:#53CD8E;}
	.st61{fill:#1B0E65;}
	.st62{fill:#060250;}
	.st63{fill:#02AA47;}
	.st64{fill:#060605;}
	.st65{fill:#221E5D;}
	.st66{fill:#F2574D;}
	.st67{fill:#FE6F05;}
	.st68{fill:#D2D1D0;}
</style>
<g>
	<path class="st0" d="M35.9,15.7c-0.2-0.4-0.4-0.8-0.5-1.2c-1.1-2.6-2.2-5.2-3.3-7.8C32,6.3,31.9,6,31.7,5.8c-0.4-0.5-1.4-0.6-1.8,0
		c-0.2,0.3-0.4,0.7-0.5,1.1c-0.7,1.9-1.4,3.8-2.1,5.7c0,0.1-0.1,0.1-0.2,0.1c-1.2,0-2.3,0-3.5,0c-0.1,0-0.1,0-0.1-0.1
		c0-3.3,1.1-6.1,3.3-8.5c1.8-1.9,3.9-3.1,6.5-3.7c1-0.2,2-0.3,3-0.3c2.9,0.1,5.5,1.1,7.8,3c2,1.7,3.4,3.8,4.1,6.3
		c0.2,0.9,0.4,1.7,0.4,2.6c0,0.3,0,0.5,0,0.8c0,0.1,0,0.1-0.1,0.1c-0.8,0-1.6-0.1-2.4-0.1c-0.4,0-0.7,0-1.1,0c-0.1,0-0.2,0-0.2-0.2
		c-0.7-2-1.4-3.9-2.1-5.9c-0.1-0.3-0.2-0.5-0.4-0.8c-0.5-0.7-1.4-0.7-1.9-0.1C40.1,6,40,6.2,39.9,6.4c-1.3,3-2.6,5.9-3.8,8.9
		C36,15.4,36,15.5,35.9,15.7z"/>
	<path class="st0" d="M31.1,9.8c0.2,0.4,0.3,0.7,0.5,1.1c0.8,1.9,1.6,3.8,2.4,5.7c0.3,0.6,0.5,1.2,0.8,1.8c0.3,0.7,0.7,0.8,1.4,0.8
		c0.5,0,0.8-0.3,1-0.7c0.8-1.7,1.6-3.4,2.4-5.2c0.5-1.1,1-2.2,1.6-3.3c0,0,0-0.1,0.1-0.1c0.1,0.3,0.2,0.6,0.3,0.9c0.4,1,0.7,2,1.1,3
		c0.1,0.4,0.3,0.7,0.5,1c0.2,0.2,0.5,0.4,0.8,0.4c1.3,0,2.7,0,4,0c0.2,0,0.2,0,0.1,0.2c-0.5,1.7-1.2,3.3-2.4,4.7
		c-1.2,1.5-2.7,2.7-4.4,3.5c-1.1,0.6-2.3,0.9-3.6,1.1c-0.7,0.1-1.4,0.2-2.1,0.1c-1.6-0.1-3.2-0.4-4.7-1.1c-1.6-0.7-3-1.7-4.2-3
		c-1.4-1.5-2.3-3.3-2.8-5.3c0-0.2,0-0.2,0.1-0.2c1.1,0,2.2,0,3.4,0c0.3,0,0.5,0,0.8,0c0.6-0.1,0.9-0.4,1.2-0.9
		c0.3-0.5,0.4-1,0.6-1.5c0.4-1,0.8-2,1.1-3C31,9.9,31,9.9,31.1,9.8z"/>
	<path class="st0" d="M6.6,32.8C6.4,33,6.2,33.2,6,33.5c-0.5,0.6-0.9,1.1-1.4,1.7c0,0.1-0.1,0.1-0.2,0.2c-0.4,0.4-0.9,0.3-1.2-0.1
		c-0.6-0.8-1.1-1.6-1.7-2.3c0,0-0.1-0.1-0.1-0.1c0,0.1,0,0.1,0,0.2c0,1.4,0,2.7,0,4.1c0,0.5-0.3,0.9-0.8,0.9c-0.4,0-0.7-0.3-0.7-0.7
		c0,0,0-0.1,0-0.1c0-2.2,0-4.4,0-6.6c0-0.4,0.2-0.6,0.5-0.8c0.3-0.1,0.6,0,0.8,0.2c0.2,0.2,0.4,0.4,0.5,0.7c0.7,1,1.4,1.9,2.1,2.9
		c0.1,0.1,0.1,0.1,0.2,0C5,32.3,5.8,31.2,6.7,30c0.2-0.3,0.5-0.4,0.8-0.3C7.8,29.8,8,30.1,8,30.4c0,0,0,0.1,0,0.1c0,2.2,0,4.3,0,6.5
		c0,0.1,0,0.3-0.1,0.4c-0.1,0.3-0.4,0.5-0.8,0.4c-0.3-0.1-0.5-0.3-0.6-0.6c0-0.1,0-0.2,0-0.2c0-1.3,0-2.7,0-4
		C6.6,32.9,6.6,32.9,6.6,32.8z"/>
	<path class="st0" d="M14.8,38c-1.3,0-2.3-0.3-3.2-1c-0.7-0.6-1.1-1.3-1.3-2.1c-0.2-1-0.2-1.9,0.2-2.8c0.4-1.1,1.2-1.8,2.3-2.3
		c0.6-0.2,1.1-0.3,1.7-0.3c0.7,0,1.4,0.2,2,0.5c0.8,0.4,1.5,1.1,1.9,1.9c0.2,0.5,0.3,1,0.4,1.5c0.1,0.7,0,1.4-0.3,2.1
		c-0.4,1.1-1.2,1.8-2.3,2.3C15.7,38,15.1,38,14.8,38z M14.5,31c-1.4,0-2.8,1-2.8,2.8c0,1.8,1.3,2.8,2.8,2.8c1.5,0,2.8-1,2.8-2.8
		C17.3,32,16,31,14.5,31z"/>
	<path class="st0" d="M21.2,33.9c0-1.1,0-2.2,0-3.3c0-0.4,0.2-0.7,0.5-0.8c0.1,0,0.1,0,0.2,0c1.1,0,2.1,0,3.2,0
		c1.3,0,2.4,0.9,2.6,2.2c0.2,1.1-0.3,2.3-1.4,2.7c-0.1,0-0.1,0.1,0,0.1c0.5,0.6,0.9,1.2,1.4,1.7c0.3,0.4,0.3,0.8,0,1.1
		c-0.4,0.4-1,0.3-1.3-0.1c-0.6-0.8-1.1-1.6-1.7-2.4c-0.1-0.1-0.1-0.1-0.3-0.1c-0.5,0-1,0-1.5,0c-0.1,0-0.2,0-0.2,0.2
		c0,0.7,0,1.3,0,2c0,0.3-0.2,0.6-0.5,0.7c-0.3,0.1-0.7,0-0.9-0.2c-0.2-0.2-0.2-0.4-0.2-0.6C21.2,36,21.2,34.9,21.2,33.9z M24,31.2
		c-0.4,0-0.7,0-1.1,0c-0.1,0-0.1,0-0.1,0.1c0,0.7,0,1.5,0,2.2c0,0.1,0,0.1,0.1,0.1c0.7,0,1.4,0,2.1,0c0.6,0,1-0.3,1.2-0.9
		c0.2-0.7-0.2-1.6-1.2-1.6C24.6,31.2,24.3,31.2,24,31.2z"/>
	<path class="st0" d="M47.9,33.9c0-1.1,0-2.2,0-3.3c0-0.4,0.2-0.7,0.5-0.8c0.1,0,0.2,0,0.3,0c1.3,0,2.7,0,4,0c0.2,0,0.5,0,0.7,0.2
		c0.2,0.2,0.3,0.5,0.2,0.8c-0.1,0.3-0.4,0.5-0.8,0.5c-1.1,0-2.1,0-3.2,0c-0.2,0-0.2,0-0.2,0.2c0,0.5,0,0.9,0,1.4
		c0,0.2,0,0.2,0.2,0.2c0.9,0,1.9,0,2.8,0c0.3,0,0.6,0.2,0.7,0.5c0.1,0.4,0,0.7-0.3,0.9c-0.1,0.1-0.3,0.1-0.4,0.1c-0.9,0-1.9,0-2.8,0
		c-0.1,0-0.2,0-0.2,0.2c0,0.5,0,1,0,1.4c0,0.1,0,0.2,0.2,0.2c1.1,0,2.3,0,3.4,0c0.3,0,0.5,0.1,0.7,0.3c0.2,0.3,0.2,0.5,0.1,0.8
		c-0.1,0.3-0.4,0.4-0.7,0.4c-0.4,0-0.9,0-1.3,0c-1,0-2,0-3,0c-0.1,0-0.2,0-0.3,0c-0.3-0.1-0.5-0.4-0.5-0.8
		C47.9,36.1,47.9,35,47.9,33.9z"/>
	<path class="st0" d="M45.4,33.9c0,1.1,0,2.2,0,3.3c0,0.4-0.2,0.6-0.5,0.7c-0.5,0.2-1-0.2-1-0.8c0-0.8,0-1.6,0-2.3
		c0-0.1,0-0.1-0.1-0.1c-1.2,0-2.3,0-3.5,0c-0.1,0-0.1,0-0.1,0.2c0,0.8,0,1.5,0,2.3c0,0.2,0,0.4-0.2,0.6c-0.2,0.2-0.6,0.3-0.9,0.2
		c-0.3-0.1-0.4-0.4-0.4-0.8c0-0.4,0-0.8,0-1.2c0-1.7,0-3.4,0-5.1c0-0.1,0-0.2,0-0.3c0-0.3,0.3-0.6,0.7-0.6c0.4,0,0.7,0.1,0.8,0.5
		c0,0.1,0,0.2,0,0.3c0,0.8,0,1.5,0,2.3c0,0.1,0,0.2,0.2,0.2c1.2,0,2.3,0,3.5,0c0.1,0,0.2,0,0.2-0.2c0-0.8,0-1.5,0-2.3
		c0-0.7,0.7-0.9,1.2-0.7c0.3,0.1,0.4,0.4,0.4,0.7C45.4,31.7,45.4,32.8,45.4,33.9z"/>
	<path class="st0" d="M30,33.8c0-1.1,0-2.1,0-3.2c0-0.5,0.3-0.9,0.9-0.9c0.9,0,1.8,0,2.6,0c0.8,0,1.4,0.2,2,0.7
		c0.4,0.4,0.7,0.9,0.8,1.5c0.1,0.7,0.1,1.4-0.2,2.1c-0.4,0.8-1.1,1.3-2,1.5c-0.5,0.1-0.9,0-1.4,0.1c-0.3,0-0.6,0-1,0
		c-0.1,0-0.2,0-0.2,0.2c0,0.5,0,1,0,1.4c0,0.4-0.3,0.6-0.6,0.7c-0.5,0.1-1-0.3-1-0.8C30,36,30,34.9,30,33.8z M31.5,32.6
		c0,0.4,0,0.9,0,1.3c0,0.1,0,0.1,0.1,0.1c0.6,0,1.2,0,1.8,0c0.1,0,0.2,0,0.4,0c0.6-0.1,1.2-0.8,1.1-1.5c0-0.7-0.7-1.4-1.4-1.4
		c-0.6,0-1.2,0-1.8,0c-0.1,0-0.1,0-0.1,0.1C31.5,31.8,31.5,32.2,31.5,32.6z"/>
	<path class="st0" d="M63.1,32.8c0,0.7,0,1.4,0,2.2c0,0.9-0.3,1.7-1,2.3c-0.5,0.5-1.1,0.7-1.8,0.8c-0.9,0.2-1.8,0.1-2.6-0.4
		c-1-0.5-1.6-1.4-1.7-2.5c0-0.2,0-0.4,0-0.6c0-1.3,0-2.7,0-4c0-0.4,0.2-0.7,0.6-0.8c0.5-0.1,1,0.2,1,0.7c0,0.1,0,0.1,0,0.2
		c0,1.3,0,2.7,0,4c0,1,0.6,1.7,1.5,1.9c0.7,0.1,1.3,0,1.9-0.4c0.3-0.3,0.5-0.6,0.6-1.1c0-0.2,0-0.4,0-0.6c0-1.2,0-2.5,0-3.7
		c0-0.2,0-0.3,0-0.4c0.1-0.4,0.5-0.6,0.9-0.5c0.4,0.1,0.6,0.4,0.6,0.8C63.1,31.3,63.1,32,63.1,32.8C63.1,32.8,63.1,32.8,63.1,32.8z"
		/>
	<path class="st0" d="M68.5,29.4c0.8,0,1.5,0.2,2.2,0.6c0.1,0.1,0.2,0.2,0.3,0.3c0.2,0.3,0.2,0.6-0.1,0.9c-0.2,0.2-0.5,0.2-0.8,0.1
		c-0.7-0.4-1.5-0.6-2.3-0.4c-0.3,0.1-0.6,0.2-0.7,0.5c-0.2,0.4-0.1,0.9,0.3,1.1c0.3,0.2,0.6,0.3,1,0.4c0.7,0.2,1.3,0.3,2,0.6
		c0.5,0.2,0.9,0.5,1.1,1c0.4,0.8,0.3,1.9-0.3,2.5c-0.5,0.5-1.1,0.8-1.7,1c-1.1,0.2-2.2,0.1-3.2-0.4c-0.2-0.1-0.5-0.2-0.6-0.4
		c-0.2-0.2-0.3-0.5-0.2-0.8c0.1-0.3,0.3-0.4,0.6-0.5c0.2,0,0.4,0,0.5,0.1c0.7,0.5,1.5,0.7,2.4,0.6c0.4,0,0.7-0.1,1-0.5
		c0.2-0.3,0.4-0.7,0.2-1c-0.1-0.2-0.3-0.3-0.4-0.4c-0.4-0.2-0.9-0.3-1.3-0.5c-0.6-0.2-1.2-0.3-1.7-0.6c-0.6-0.3-1-0.8-1.1-1.4
		c-0.2-1.1,0.2-2,1.2-2.5C67.3,29.5,67.8,29.4,68.5,29.4z"/>
</g>
</svg>
