<?xml version="1.0" encoding="utf-8"?>
<!-- Generator: Adobe Illustrator 25.2.1, SVG Export Plug-In . SVG Version: 6.00 Build 0)  -->
<svg version="1.1" id="Layer_1" xmlns="http://www.w3.org/2000/svg" xmlns:xlink="http://www.w3.org/1999/xlink" x="0px" y="0px"
	 viewBox="0 0 105.1 26.6" style="enable-background:new 0 0 105.1 26.6;" xml:space="preserve">
<style type="text/css">
	.st0{fill:#D3E7F7;}
	.st1{fill:#0155A1;}
	.st2{fill:#FBA702;}
	.st3{fill:#FCFEFF;}
	.st4{fill:#036ED4;}
	.st5{fill:#006CD3;}
	.st6{fill:#050306;}
	.st7{fill:#03B1AE;}
	.st8{fill:#00AD39;}
	.st9{fill:#FF495C;}
	.st10{fill:#017EAE;}
	.st11{fill:#CA4929;}
	.st12{fill:#F59001;}
	.st13{fill:#CDD0D2;}
	.st14{fill:#0863FF;}
	.st15{fill:#F14D02;}
	.st16{fill:#FED853;}
	.st17{fill:#2C323B;}
	.st18{fill:#EE5B65;}
	.st19{fill:#32B3E8;}
	.st20{fill:#2A8AC6;}
	.st21{fill:#D6445D;}
	.st22{fill:#960A2C;}
	.st23{fill:#010101;}
	.st24{fill:#D72B11;}
	.st25{fill:#E41231;}
	.st26{fill:#F01523;}
	.st27{fill:#93DD01;}
	.st28{fill:#249633;}
	.st29{fill:#242424;}
	.st30{fill:#C80126;}
	.st31{fill:#020202;}
	.st32{fill:#959798;}
	.st33{fill:#EE1818;}
	.st34{fill:#242021;}
	.st35{fill:#002A3B;}
	.st36{fill:#205053;}
	.st37{fill:#235153;}
	.st38{fill:#15AA9E;}
	.st39{fill:#09AC9D;}
	.st40{fill:#05716B;}
	.st41{fill:#F49200;}
	.st42{fill:#E25100;}
	.st43{fill:#0223FE;}
	.st44{fill:#04CBFE;}
	.st45{fill:#F47264;}
	.st46{fill:#F24731;}
	.st47{fill:#F8A197;}
	.st48{fill:#233240;}
	.st49{fill:#FE6D52;}
	.st50{fill:#124FFF;}
	.st51{fill:#F56D58;}
	.st52{fill:#75C4E2;}
	.st53{fill:#E0044D;}
	.st54{fill:#3B267C;}
	.st55{fill:#DD1937;}
	.st56{fill:#01B3FE;}
	.st57{fill:#454545;}
	.st58{fill:#AB56B3;}
	.st59{fill:#031A28;}
	.st60{fill:#53CD8E;}
	.st61{fill:#1B0E65;}
	.st62{fill:#060250;}
	.st63{fill:#02AA47;}
	.st64{fill:#060605;}
	.st65{fill:#221E5D;}
	.st66{fill:#F2574D;}
	.st67{fill:#FE6F05;}
	.st68{fill:#D2D1D0;}
</style>
<g>
	<path class="st0" d="M16.8,26.5c-2.5,0-5,0.1-7.5,0c-4-0.1-7-2-8.6-5.7c-1.6-3.6-0.3-8.4,2.9-10.8c0.6-0.5,1-1,1.3-1.7
		c2.5-7.1,11-10.4,17.7-6.9c2.9,1.5,5,3.9,6.2,7c0.2,0.6,0.6,1.1,1.1,1.5c2.9,2.2,4.1,5.2,3.6,8.8c-0.6,3.8-2.8,6.3-6.4,7.5
		c-1,0.3-2,0.4-3.1,0.4C21.5,26.5,19.2,26.5,16.8,26.5C16.8,26.5,16.8,26.5,16.8,26.5z M16.7,23.3C16.7,23.2,16.7,23.2,16.7,23.3
		c2.4-0.1,4.9-0.1,7.3-0.1c1.8,0,3.4-0.6,4.6-1.9c2.6-2.9,2-7.1-1.3-9.2c-0.7-0.4-1.1-1-1.4-1.8c-0.8-2.7-2.4-4.7-4.9-5.9
		C15.8,1.7,9.2,4.5,7.6,10.2c-0.3,0.9-0.7,1.5-1.5,2c-2.2,1.3-3.2,3.8-2.7,6.2c0.6,2.9,3,4.8,6.1,4.8C11.9,23.3,14.3,23.3,16.7,23.3
		z"/>
	<path class="st0" d="M44.2,19.7c0,1.9,0,3.6,0,5.3c0,1.2-0.2,1.5-1.4,1.5c-0.8,0-1.5,0-2.3,0c-1,0-1.3-0.3-1.3-1.3
		c0-3.3,0-6.7,0-10c0-2.5,0-5.1,0-7.6c0-1.2,0.3-1.5,1.5-1.5c0.6,0,1.1,0,1.7,0c1.4,0,1.5,0.1,1.7,1.4c3-3,9.7-1.9,11,3.9
		c0.6,2.6,0.3,5-1.4,7.1c-1.8,2.3-5.4,3.2-8,2C45.1,20.5,44.7,20.1,44.2,19.7z M50.7,13.6c0-0.2,0-0.5-0.1-0.8
		c-0.2-1.2-0.8-2-1.9-2.4c-1.1-0.4-2.2-0.2-3,0.6c-1.1,1-1.2,2.4-0.9,3.7c0.4,2,2.4,3.1,4.2,2.2C50.3,16.2,50.7,15,50.7,13.6z"/>
	<path class="st0" d="M105.1,13.5c0,4-2.7,7-6.7,7.5c-2.4,0.3-4.7-0.1-6.7-1.6c-2.5-1.9-3.3-4.5-2.7-7.5c0.6-3,2.6-4.9,5.5-5.7
		c1.9-0.5,3.9-0.4,5.7,0.3C103.4,7.6,105.1,10.2,105.1,13.5z M100,13.5c0-0.3,0-0.6-0.1-0.9c-0.2-1.5-1.3-2.6-2.7-2.6
		c-1.6-0.1-2.8,0.8-3.1,2.4C94,12.9,94,13.5,94,14.1c0.2,2.1,2,3.3,3.9,2.7C99.2,16.4,100,15.1,100,13.5z"/>
	<path class="st0" d="M80.5,15.4c0.8-2,1.6-3.8,2.3-5.7c0.3-0.8,0.7-1.6,1-2.4c0.2-0.5,0.6-0.8,1.2-0.8c0.8,0,1.5,0,2.3,0
		c1,0,1.4,0.5,1,1.5c-1.5,3.7-3,7.5-4.5,11.2c-0.2,0.5-0.4,0.9-0.6,1.3c-0.2,0.4-0.5,0.6-0.9,0.6c-1.3,0-2.6,0-3.8,0
		c-0.5,0-0.8-0.2-0.9-0.6c-1.7-4.2-3.4-8.4-5.1-12.6c-0.3-0.8,0.1-1.4,1-1.4c0.9,0,1.8,0,2.7,0c0.6,0,1,0.2,1.2,0.8
		c0.9,2.5,1.9,4.9,2.9,7.4C80.3,15,80.4,15.1,80.5,15.4z"/>
	<path class="st0" d="M62.6,11.2c0,2.9,0,5.8,0,8.6c0,1.1-0.3,1.4-1.4,1.4c-0.8,0-1.6,0-2.4,0c-0.9,0-1.3-0.3-1.3-1.2
		c0-5.9,0-11.8,0-17.7c0-0.9,0.3-1.2,1.2-1.2c0.9,0,1.8,0,2.7,0c0.9,0,1.2,0.3,1.2,1.3C62.6,5.3,62.6,8.3,62.6,11.2z"/>
	<path class="st0" d="M70.6,13.9c0,2,0,4.1,0,6.1c0,0.9-0.3,1.2-1.2,1.2c-0.9,0-1.8,0-2.7,0c-0.7,0-1.1-0.3-1.1-1.1
		c0-0.6,0-1.2,0-1.8c0-3.5,0-6.9,0-10.4c0-1.3,0.2-1.5,1.5-1.5c0.8,0,1.6,0,2.4,0c0.8,0,1.1,0.3,1.1,1.2
		C70.6,9.7,70.6,11.8,70.6,13.9z"/>
	<path class="st0" d="M68.1,5.4c-0.5,0-0.9,0-1.4,0c-0.7,0-1-0.3-1.1-1c0-0.8,0-1.6,0-2.4c0-0.6,0.4-0.9,1-0.9c1,0,2,0,3,0
		c0.7,0,1,0.4,1,1c0,0.8,0,1.5,0,2.3c0,0.7-0.4,1-1.1,1C69,5.4,68.5,5.4,68.1,5.4z"/>
	<path class="st0" d="M16.7,20.1c-1.4,0-1.4,0-1.4-1.5c0-1.3,0.1-1.3,1.5-1.3c1.2,0,1.3,0.1,1.3,1.6C18.2,20,18,20.1,16.7,20.1z"/>
	<path class="st0" d="M16.7,12.1c-0.3,0-0.6,0.1-0.9-0.1c-0.7-0.4-0.3-1.2-0.4-1.8c-0.1-0.4,0-0.8,0.5-0.9c0.6-0.1,1.3-0.2,1.9,0
		c0.8,0.3,0.4,1.2,0.5,1.8c0,0.4,0,0.8-0.5,0.9C17.3,12.1,17,12.1,16.7,12.1z"/>
	<path class="st0" d="M16.7,16.1c-1.4,0-1.4,0-1.3-1.6c0-1.2,0.1-1.3,1.5-1.3c1.2,0,1.3,0.1,1.3,1.6C18.2,16,18,16.1,16.7,16.1z"/>
	<path class="st0" d="M19.3,10.6c0-0.2,0-0.4,0-0.7c0-0.5,0.3-0.7,0.8-0.7c0.4,0,0.8,0,1.2,0c0.5,0,0.8,0.3,0.8,0.8
		c0,0.1,0,0.2,0,0.2c0,1.8,0,1.8-1.8,1.8c-0.8,0-1-0.2-1-1C19.3,10.9,19.3,10.8,19.3,10.6C19.3,10.6,19.3,10.6,19.3,10.6z"/>
	<path class="st0" d="M12.8,16.1c-0.2,0-0.4,0-0.7,0c-0.5,0-0.7-0.3-0.7-0.7c0-0.1,0-0.1,0-0.2c0-2,0.1-2.1,2-1.9
		c0.5,0,0.7,0.3,0.8,0.8c0,0.2,0,0.4,0,0.7C14.2,16,14.1,16.1,12.8,16.1z"/>
	<path class="st0" d="M20.7,16.1c-0.2,0-0.4,0-0.6,0c-0.5,0-0.8-0.3-0.8-0.7c0-0.4,0-0.9,0-1.3c0-0.5,0.3-0.7,0.8-0.8
		c0.4,0,0.8,0,1.2,0c0.7,0,0.8,0.2,0.8,1.7c0,0.9-0.2,1.1-0.8,1.1C21.1,16.1,20.9,16.1,20.7,16.1z"/>
	<path class="st0" d="M14.2,10.6c0,0.2,0,0.4,0,0.5c0,0.1,0,0.3,0,0.4c-0.5,0.9-1.4,0.4-2.1,0.5c-0.5,0-0.7-0.4-0.7-0.9
		c0-1.9-0.1-2,1.7-1.9c0.9,0,1.1,0.2,1.1,1.1C14.2,10.4,14.2,10.5,14.2,10.6z"/>
	<path class="st0" d="M14.2,18.7c0,0.2,0,0.4,0,0.7c0,0.3-0.1,0.5-0.3,0.6c-0.3,0.2-1.9,0.2-2.1,0c-0.2-0.1-0.3-0.3-0.3-0.5
		c0-0.5,0-1,0-1.5c0.1-0.7,0.5-0.8,2-0.7c0.6,0,0.8,0.3,0.8,0.9C14.2,18.3,14.2,18.5,14.2,18.7C14.2,18.7,14.2,18.7,14.2,18.7z"/>
	<path class="st0" d="M22.1,18.7c0,0.2,0,0.4,0,0.6c0,0.1,0,0.3-0.1,0.4c-0.5,0.9-1.4,0.4-2.1,0.4c-0.5,0-0.6-0.4-0.6-0.9
		c-0.1-1.9,0-1.9,1.7-1.9c1,0,1.1,0.1,1.1,1.1C22.1,18.5,22.1,18.6,22.1,18.7z"/>
</g>
</svg>
