<?xml version="1.0" encoding="utf-8"?>
<!-- Generator: Adobe Illustrator 25.2.1, SVG Export Plug-In . SVG Version: 6.00 Build 0)  -->
<svg version="1.1" id="Layer_1" xmlns="http://www.w3.org/2000/svg" xmlns:xlink="http://www.w3.org/1999/xlink" x="0px" y="0px"
	 viewBox="0 0 77.3 15.5" style="enable-background:new 0 0 77.3 15.5;" xml:space="preserve">
<style type="text/css">
	.st0{fill:#D3E7F7;}
	.st1{fill:#0155A1;}
	.st2{fill:#FBA702;}
	.st3{fill:#FCFEFF;}
	.st4{fill:#036ED4;}
	.st5{fill:#006CD3;}
	.st6{fill:#050306;}
	.st7{fill:#03B1AE;}
	.st8{fill:#00AD39;}
	.st9{fill:#FF495C;}
	.st10{fill:#017EAE;}
	.st11{fill:#CA4929;}
	.st12{fill:#F59001;}
	.st13{fill:#CDD0D2;}
	.st14{fill:#0863FF;}
	.st15{fill:#F14D02;}
	.st16{fill:#FED853;}
	.st17{fill:#2C323B;}
	.st18{fill:#EE5B65;}
	.st19{fill:#32B3E8;}
	.st20{fill:#2A8AC6;}
	.st21{fill:#D6445D;}
	.st22{fill:#960A2C;}
	.st23{fill:#010101;}
	.st24{fill:#D72B11;}
	.st25{fill:#E41231;}
	.st26{fill:#F01523;}
	.st27{fill:#93DD01;}
	.st28{fill:#249633;}
	.st29{fill:#242424;}
	.st30{fill:#C80126;}
	.st31{fill:#020202;}
	.st32{fill:#959798;}
	.st33{fill:#EE1818;}
	.st34{fill:#242021;}
	.st35{fill:#002A3B;}
	.st36{fill:#205053;}
	.st37{fill:#235153;}
	.st38{fill:#15AA9E;}
	.st39{fill:#09AC9D;}
	.st40{fill:#05716B;}
	.st41{fill:#F49200;}
	.st42{fill:#E25100;}
	.st43{fill:#0223FE;}
	.st44{fill:#04CBFE;}
	.st45{fill:#F47264;}
	.st46{fill:#F24731;}
	.st47{fill:#F8A197;}
	.st48{fill:#233240;}
	.st49{fill:#FE6D52;}
	.st50{fill:#124FFF;}
	.st51{fill:#F56D58;}
	.st52{fill:#75C4E2;}
	.st53{fill:#E0044D;}
	.st54{fill:#3B267C;}
	.st55{fill:#DD1937;}
	.st56{fill:#01B3FE;}
	.st57{fill:#454545;}
	.st58{fill:#AB56B3;}
	.st59{fill:#031A28;}
	.st60{fill:#53CD8E;}
	.st61{fill:#1B0E65;}
	.st62{fill:#060250;}
	.st63{fill:#02AA47;}
	.st64{fill:#060605;}
	.st65{fill:#221E5D;}
	.st66{fill:#F2574D;}
	.st67{fill:#FE6F05;}
	.st68{fill:#D2D1D0;}
</style>
<g>
	<path class="st0" d="M15.3,15.5C15.3,15.5,15.3,15.5,15.3,15.5C15.3,15.5,15.3,15.5,15.3,15.5c-0.8-0.6-1.5-1.3-2.2-1.9
		c-0.1-0.1-0.1-0.2-0.1-0.3c1.8-4.3,3.6-8.6,5.3-12.9c0,0,0-0.1,0.1-0.1c0.4,1,0.7,1.9,1.1,2.9c0.1,0.3,0.3,0.7,0.4,1
		c0,0,0,0.1-0.1,0.1c-0.6,1.5-1.2,3-1.8,4.6c-0.4,0.9-0.7,1.8-1.1,2.6c0,0,0,0,0,0c-0.4,0.9-0.8,1.9-1.1,2.8
		C15.6,14.7,15.5,15.1,15.3,15.5z"/>
	<path class="st0" d="M10.9,13.6c-0.2,0.3-0.5,0.6-0.9,0.8c-0.8,0.6-1.8,0.9-2.8,1c-0.1,0-0.3,0-0.4,0.1c-0.4,0-0.8,0-1.3,0
		c-0.2,0-0.4-0.1-0.7-0.1c-1.3-0.2-2.5-0.7-3.5-1.7C0.6,13,0.2,12.2,0,11.2C0,11,0,11,0.1,11c1,0,2,0,2.9,0c0.1,0,0.1,0,0.2,0.1
		c0.3,1,1,1.5,2,1.7C6.1,13,7,13,7.8,12.6c0.8-0.4,1.3-1,1.4-1.9c0-0.1,0-0.2,0-0.4c0.1,0,0.1,0,0.1,0c0.2,0.1,0.4,0.2,0.5,0.4
		c0.3,0.3,0.5,0.5,0.6,0.9C10.8,12.3,10.9,12.9,10.9,13.6z"/>
	<path class="st0" d="M10.9,13.6c0.1-0.7-0.1-1.3-0.4-1.9c-0.2-0.3-0.4-0.6-0.6-0.9c-0.2-0.1-0.3-0.3-0.5-0.4c0,0-0.1,0-0.1,0
		c0-0.1-0.1-0.1-0.1-0.1C8.3,9.8,7.5,9.5,6.6,9.3c-1-0.2-1.9-0.4-2.9-0.7C3.1,8.5,2.4,8.2,1.9,7.8C1,7.2,0.5,6.3,0.4,5.3
		C0.2,4.1,0.5,3,1.2,2c0.7-0.9,1.6-1.5,2.7-1.8C5,0,6-0.1,7.1,0.1C8,0.2,8.8,0.5,9.5,1c1.1,0.7,1.8,1.8,2.1,3.1
		c0.1,0.3,0.1,0.3-0.2,0.3c-0.9,0-1.8,0-2.7,0c-0.1,0-0.2,0-0.2-0.1c-0.4-1-1.2-1.5-2.2-1.6c-0.7-0.1-1.4,0-2,0.3C3.4,3.3,3,4,2.9,5
		c0,0.1,0,0.1,0.1,0.2C3.7,5.6,4.5,5.8,5.2,6c1,0.2,2,0.5,3,0.7C9.2,7,10,7.4,10.7,8.1c0.7,0.7,1,1.5,1.1,2.4c0.1,1.1-0.2,2-0.8,2.9
		C11,13.5,11,13.6,10.9,13.6z"/>
	<path class="st0" d="M19.9,4.2c-0.1-0.3-0.2-0.7-0.4-1c-0.4-1-0.7-1.9-1.1-2.9c0.7,0,1.5,0,2.2,0c0.2,0,0.5,0,0.7,0
		c0.1,0,0.2,0,0.3,0.2c0.7,1.9,1.5,3.8,2.2,5.8c1.1,3,2.3,6,3.4,8.9c0.1,0.2,0.1,0.2-0.1,0.2c-1,0-1.9,0-2.9,0c-0.1,0-0.2,0-0.2-0.1
		c-0.4-1.1-0.8-2.2-1.3-3.3c0,0,0-0.1-0.1-0.1c-0.2-0.5-0.4-1-0.5-1.4c-0.1-0.4-0.3-0.8-0.4-1.1c0,0,0-0.1,0-0.1
		C21.1,7.4,20.5,5.8,19.9,4.2z"/>
	<path class="st0" d="M47.9,7.8c0,2.4,0,4.9,0,7.3c0,0.2,0,0.2-0.2,0.2c-0.9,0-1.8,0-2.8,0c-0.1,0-0.2,0-0.2-0.2c0-4.9,0-9.8,0-14.7
		c0-0.1,0-0.2,0.2-0.2c0.9,0,1.9,0,2.8,0c0.1,0,0.2,0,0.2,0.2C47.9,2.9,47.9,5.3,47.9,7.8z"/>
	<path class="st0" d="M39,10.5c0-3.3,0-6.7,0-10c0-0.2,0-0.2,0.2-0.2c0.9,0,1.8,0,2.7,0c0.1,0,0.2,0,0.2,0.2c0,4.9,0,9.8,0,14.7
		c0,0.1,0,0.2-0.2,0.2c-0.9,0-1.8,0-2.7,0c0,0-0.1,0-0.1,0C39,13.7,39,12.1,39,10.5z"/>
	<path class="st0" d="M39,10.5c0,1.6,0,3.2,0,4.8c-0.3-0.4-0.6-0.8-0.9-1.3c-2-3-4.1-6.1-6.1-9.1c0,0,0-0.1-0.1-0.1
		c-0.2-0.3-0.3-0.5-0.5-0.8c-0.8-1.2-1.6-2.4-2.4-3.6c0-0.1-0.1-0.1-0.1-0.1c0-0.1,0.1-0.1,0.1-0.1c0.9,0,1.9,0,2.8,0
		c0.2,0,0.4,0,0.5,0c0.1,0.1,0.2,0.3,0.3,0.4c2.1,3.2,4.2,6.5,6.3,9.7C39,10.4,39,10.5,39,10.5z"/>
	<path class="st0" d="M28.9,0.3C29,0.3,29,0.4,29,0.4c0.8,1.2,1.6,2.4,2.4,3.6c0.2,0.3,0.3,0.5,0.5,0.8c-0.1,0,0,0.1,0,0.2
		c0,3.4,0,6.7,0,10.1c0,0.2,0,0.2-0.2,0.2c-0.9,0-1.8,0-2.7,0c-0.1,0-0.2,0-0.2-0.2c0-4.9,0-9.8,0-14.7C28.9,0.4,28.9,0.3,28.9,0.3z
		"/>
	<path class="st0" d="M56.5,3c-0.1,0-0.1,0-0.2,0c-2.1,0-4.3,0-6.4,0c-0.1,0-0.2,0-0.2-0.2c0-0.8,0-1.6,0-2.4c0-0.1,0-0.2,0.2-0.2
		c3.7,0,7.3,0,11,0c0.1,0,0.2,0,0.2,0.1c0.5,0.8,1,1.7,1.5,2.5c0,0,0.1,0.1,0,0.1c-0.1,0-0.1,0-0.2,0c-1.8,0-3.6,0-5.5,0
		C56.7,3,56.6,3,56.5,3z"/>
	<path class="st0" d="M70.4,6.6c0.7-1.2,1.4-2.4,2-3.6c0.5-0.9,1-1.8,1.5-2.6C74,0.3,74,0.2,74.2,0.2c1,0,2,0,3,0
		c0.2,0,0.2,0,0.1,0.2c-1.8,3.1-3.6,6.1-5.4,9.2c-1,0-2.1,0-3.1,0c0.2-0.4,0.5-0.8,0.7-1.2C69.8,7.8,70.1,7.2,70.4,6.6z"/>
	<path class="st0" d="M57.7,5.5c0,0.4,0,0.8,0,1.2c0,2.8,0,5.6,0,8.4c0,0.1,0,0.2-0.2,0.2c-0.9,0-1.9,0-2.8,0c-0.1,0-0.1,0-0.1-0.1
		c0-2.6,0-5.3,0-7.9c0,0,0,0,0-0.1c0.1,0,0.3-0.1,0.4-0.2c0.5-0.3,1.1-0.6,1.6-0.8C56.9,5.9,57.3,5.7,57.7,5.5z"/>
	<path class="st0" d="M70.4,6.6c-0.3,0.6-0.6,1.1-1,1.7c-0.2,0.4-0.5,0.8-0.7,1.2c0,0,0,0,0,0c-0.4-0.8-0.9-1.5-1.3-2.3
		c-1.3-2.3-2.7-4.6-4-6.9c0,0,0-0.1-0.1-0.1c0,0,0.1,0,0.2,0c1,0,2.1,0,3.1,0c0.1,0,0.2,0,0.2,0.1c1.2,2,2.3,4.1,3.5,6.1
		C70.3,6.5,70.3,6.6,70.4,6.6z"/>
	<path class="st0" d="M21.7,9.1c0.2,0.4,0.3,0.7,0.4,1.1c0.2,0.5,0.4,1,0.5,1.4c-0.9,0.5-1.9,1-2.8,1.5c-1.5,0.8-2.9,1.5-4.4,2.3
		c-0.1,0-0.1,0.1-0.2,0.1c0.1-0.4,0.3-0.8,0.5-1.2c0.4-1,0.8-1.9,1.1-2.8c0,0,0,0,0,0c0,0,0.1,0,0.1-0.1c1.4-0.7,2.9-1.4,4.3-2.1
		C21.5,9.2,21.6,9.2,21.7,9.1z"/>
	<path class="st0" d="M68.7,9.6C68.8,9.6,68.8,9.6,68.7,9.6c1.1,0,2.1,0,3.1,0c0,1.8,0,3.7,0,5.5c0,0.2,0,0.2-0.2,0.2
		c-0.9,0-1.8,0-2.7,0c-0.1,0-0.2,0-0.2-0.2C68.7,13.3,68.7,11.4,68.7,9.6z"/>
	<path class="st0" d="M57.7,5.5c-0.4,0.2-0.8,0.4-1.1,0.6c-0.5,0.3-1.1,0.6-1.6,0.8c-0.1,0.1-0.3,0.2-0.4,0.2c0-1,0-2.1,0-3.1
		c0-0.1,0.1-0.1,0.1-0.2c0.6-0.3,1.1-0.5,1.7-0.8c0.1,0,0.1-0.1,0.1-0.1c0.1,0,0.2,0,0.4,0c1.8,0,3.6,0,5.5,0c0.1,0,0.1,0,0.2,0
		c-0.1,0.1-0.3,0.2-0.5,0.3C60.6,4,59.2,4.7,57.7,5.5C57.8,5.5,57.7,5.5,57.7,5.5z"/>
</g>
</svg>
