<?xml version="1.0" encoding="utf-8"?>
<!-- Generator: Adobe Illustrator 25.2.1, SVG Export Plug-In . SVG Version: 6.00 Build 0)  -->
<svg version="1.1" id="Layer_1" xmlns="http://www.w3.org/2000/svg" xmlns:xlink="http://www.w3.org/1999/xlink" x="0px" y="0px"
	 viewBox="0 0 79.5 19.2" style="enable-background:new 0 0 79.5 19.2;" xml:space="preserve">
<style type="text/css">
	.st0{fill:#D3E7F7;}
	.st1{fill:#0155A1;}
	.st2{fill:#FBA702;}
	.st3{fill:#FCFEFF;}
	.st4{fill:#036ED4;}
	.st5{fill:#006CD3;}
	.st6{fill:#050306;}
	.st7{fill:#03B1AE;}
	.st8{fill:#00AD39;}
	.st9{fill:#FF495C;}
	.st10{fill:#017EAE;}
	.st11{fill:#CA4929;}
	.st12{fill:#F59001;}
	.st13{fill:#CDD0D2;}
	.st14{fill:#0863FF;}
	.st15{fill:#F14D02;}
	.st16{fill:#FED853;}
	.st17{fill:#2C323B;}
	.st18{fill:#EE5B65;}
	.st19{fill:#32B3E8;}
	.st20{fill:#2A8AC6;}
	.st21{fill:#D6445D;}
	.st22{fill:#960A2C;}
	.st23{fill:#010101;}
	.st24{fill:#D72B11;}
	.st25{fill:#E41231;}
	.st26{fill:#F01523;}
	.st27{fill:#93DD01;}
	.st28{fill:#249633;}
	.st29{fill:#242424;}
	.st30{fill:#C80126;}
	.st31{fill:#020202;}
	.st32{fill:#959798;}
	.st33{fill:#EE1818;}
	.st34{fill:#242021;}
	.st35{fill:#002A3B;}
	.st36{fill:#205053;}
	.st37{fill:#235153;}
	.st38{fill:#15AA9E;}
	.st39{fill:#09AC9D;}
	.st40{fill:#05716B;}
	.st41{fill:#F49200;}
	.st42{fill:#E25100;}
	.st43{fill:#0223FE;}
	.st44{fill:#04CBFE;}
	.st45{fill:#F47264;}
	.st46{fill:#F24731;}
	.st47{fill:#F8A197;}
	.st48{fill:#233240;}
	.st49{fill:#FE6D52;}
	.st50{fill:#124FFF;}
	.st51{fill:#F56D58;}
	.st52{fill:#75C4E2;}
	.st53{fill:#E0044D;}
	.st54{fill:#3B267C;}
	.st55{fill:#DD1937;}
	.st56{fill:#01B3FE;}
	.st57{fill:#454545;}
	.st58{fill:#AB56B3;}
	.st59{fill:#031A28;}
	.st60{fill:#53CD8E;}
	.st61{fill:#1B0E65;}
	.st62{fill:#060250;}
	.st63{fill:#02AA47;}
	.st64{fill:#060605;}
	.st65{fill:#221E5D;}
	.st66{fill:#F2574D;}
	.st67{fill:#FE6F05;}
	.st68{fill:#D2D1D0;}
</style>
<g>
	<path class="st0" d="M9.6,19.2C4.3,19.2,0,14.9,0,9.6C0,4.3,4.3,0,9.6,0c5.3,0,9.6,4.3,9.6,9.6C19.2,14.9,14.9,19.1,9.6,19.2z
		 M9.5,1C8.8,1,8.1,1.1,7.3,1.3C6,1.7,4.9,2.3,3.9,3.1C3,4,2.3,4.9,1.8,6C1.3,7,1.1,8,1,9.1c0,0.9,0,1.8,0.3,2.7
		c0.5,1.8,1.5,3.3,2.9,4.5c1.2,1,2.7,1.6,4.2,1.8c0.1,0,0.1,0,0.1-0.1c0-0.5,0.1-1,0.1-1.6c0-0.3,0-0.7,0.1-1
		c0.1-0.7,0.1-1.5,0.2-2.2c0-0.4,0-0.7,0.1-1.1c0-0.6,0.1-1.1,0.1-1.7c0-0.1,0-0.1-0.1-0.2c-0.3-0.2-0.4-0.6-0.3-1
		C8.8,9,9.1,8.7,9.5,8.6c0.3,0,0.7,0.1,0.9,0.5c0.2,0.4,0.1,0.8-0.2,1.1c-0.2,0.1-0.2,0.3-0.2,0.5c0,0.2,0,0.3,0,0.5
		c0.1,0.7,0.1,1.4,0.2,2.2c0,0.3,0,0.7,0.1,1c0.1,0.7,0.1,1.5,0.2,2.2c0,0.4,0.1,0.9,0.1,1.3c0,0.1,0,0.1,0.1,0.1
		c0.3,0,0.5-0.1,0.8-0.1c1.8-0.4,3.3-1.3,4.5-2.6c0.5-0.6,1-1.3,1.4-2c0.7-1.4,0.9-2.8,0.8-4.4c-0.1-1-0.3-1.9-0.7-2.8
		c-0.8-1.9-2.2-3.3-4-4.3C12.2,1.3,10.9,1,9.5,1z"/>
	<path class="st0" d="M32.6,10.5c0-0.9,0-1.8,0-2.7c0-0.1,0-0.2,0.2-0.2c0.4,0,0.7,0,1.1,0c0.1,0,0.1,0,0.1,0.1c0,0.2,0,0.3,0,0.5
		c0,0,0,0.1,0,0.1c0,0,0.1,0,0.1-0.1c0.5-0.8,1.4-0.9,2.2-0.7c0.7,0.2,1,0.7,1.1,1.4c0,0.2,0.1,0.5,0.1,0.7c0,1.2,0,2.4,0,3.6
		c0,0.1,0,0.2-0.2,0.2c-0.4,0-0.8,0-1.2,0c-0.1,0-0.2,0-0.2-0.2c0-1.1,0-2.1,0-3.2c0-0.2,0-0.5-0.1-0.7c-0.1-0.4-0.3-0.6-0.6-0.6
		c-0.4,0-0.7,0.1-0.9,0.4c-0.2,0.3-0.2,0.5-0.2,0.8c0,0.3,0,0.5,0,0.8c0,0.8,0,1.7,0,2.5c0,0.1,0,0.1-0.1,0.1c-0.4,0-0.8,0-1.2,0
		c-0.1,0-0.1,0-0.1-0.1C32.6,12.4,32.6,11.5,32.6,10.5z"/>
	<path class="st0" d="M21.4,11.6c0.3,0.1,0.6,0.3,0.9,0.4c0.4,0.2,0.9,0.3,1.3,0.2c0.7-0.1,1-0.7,0.6-1.3c-0.2-0.2-0.4-0.4-0.6-0.5
		c-0.3-0.2-0.6-0.4-0.9-0.5c-0.9-0.6-1.3-1.5-1.1-2.6c0.2-0.8,0.9-1.4,1.7-1.5c0.9-0.1,1.7,0.1,2.4,0.5c0.1,0,0.1,0.1,0.1,0.2
		c-0.1,0.3-0.3,0.7-0.4,1c0,0.1-0.1,0.1-0.2,0.1c-0.4-0.2-0.8-0.3-1.2-0.4c-0.1,0-0.1,0-0.2,0c-0.4,0-0.6,0.2-0.8,0.4
		c-0.1,0.3-0.1,0.7,0.2,1c0.2,0.2,0.5,0.3,0.7,0.5c0.4,0.2,0.8,0.4,1.1,0.7c0.7,0.6,0.9,1.4,0.7,2.3c-0.2,0.9-0.8,1.3-1.6,1.5
		c-0.9,0.2-1.8,0.1-2.6-0.3c-0.1,0-0.1-0.1-0.1-0.2C21.4,12.6,21.4,12.1,21.4,11.6C21.4,11.7,21.4,11.7,21.4,11.6z"/>
	<path class="st0" d="M48.3,10.5c0,0.6-0.1,1.1-0.3,1.6c-0.4,1-1.1,1.5-2.1,1.5c-1.1,0.1-2-0.5-2.4-1.4c-0.1-0.3-0.2-0.6-0.3-0.9
		c-0.1-0.7-0.1-1.4,0.2-2.1c0.4-0.9,1.1-1.5,2.1-1.5C47,7.5,48,8.3,48.2,9.7C48.3,10,48.3,10.3,48.3,10.5z M44.7,10.6
		c0,0.2,0,0.4,0,0.6c0,0.2,0.1,0.4,0.2,0.7c0.2,0.3,0.4,0.5,0.8,0.5c0.4,0,0.6-0.2,0.8-0.5c0.2-0.3,0.2-0.7,0.2-1c0-0.5,0-1-0.2-1.4
		c-0.1-0.3-0.3-0.5-0.6-0.5c-0.5-0.1-0.9,0.1-1.1,0.6C44.8,9.8,44.7,10.2,44.7,10.6z"/>
	<path class="st0" d="M31.2,11.9c0,0.4,0,0.8,0,1.1c0,0.1,0,0.1-0.1,0.1c-0.4,0.2-0.7,0.3-1.1,0.3c-0.5,0-1,0.1-1.5-0.1
		c-0.9-0.2-1.4-0.8-1.7-1.7c-0.3-0.9-0.2-1.9,0.1-2.8c0.4-1,1.1-1.5,2.1-1.5c0.3,0,0.7,0,1,0.1c0.9,0.3,1.3,0.9,1.5,1.8
		c0.1,0.5,0.1,0.9,0.1,1.4c0,0.1-0.1,0.1-0.1,0.1c-0.4,0-0.8,0-1.2,0c-0.6,0-1.3,0-1.9,0c-0.1,0-0.2,0-0.1,0.1
		c0,0.2,0.1,0.4,0.2,0.6c0.2,0.4,0.5,0.6,1,0.7c0.6,0,1.2-0.1,1.7-0.4C31,12,31.1,12,31.2,11.9z M29.1,9.9c0.3,0,0.6,0,0.8,0
		c0.1,0,0.1,0,0.1-0.1c0-0.2-0.1-0.4-0.1-0.6c-0.2-0.4-0.4-0.5-0.8-0.5c-0.4,0-0.7,0.2-0.8,0.5c-0.1,0.2-0.1,0.4-0.2,0.6
		c0,0.1,0,0.1,0.1,0.1C28.5,9.9,28.8,9.9,29.1,9.9z"/>
	<path class="st0" d="M65,12.7c0.3-1.6,0.8-3.2,1.2-4.8c0-0.1,0.1-0.2,0.2-0.2c0.2,0,0.4,0,0.7,0c0.1,0,0.1,0,0.2,0.1
		c0.4,1.6,0.9,3.2,1.2,4.8c0-0.2,0.1-0.5,0.1-0.7c0.2-1.1,0.5-2.2,0.7-3.3c0.1-0.3,0.1-0.6,0.2-0.8c0-0.1,0.1-0.1,0.2-0.1
		c0.2,0,0.4,0,0.6,0c0.1,0,0.2,0,0.1,0.2c-0.3,1.3-0.6,2.5-0.9,3.8c-0.1,0.5-0.3,1.1-0.4,1.6c0,0.1-0.1,0.2-0.2,0.2
		c-0.3,0-0.5,0-0.8,0c-0.1,0-0.1,0-0.2-0.1c-0.4-1.5-0.8-3-1.1-4.5c0,0,0-0.1-0.1-0.1c0,0.2-0.1,0.4-0.1,0.5
		c-0.3,1.4-0.7,2.8-1.1,4.2c0,0.1-0.1,0.1-0.1,0.1c-0.3,0-0.5,0-0.8,0c-0.1,0-0.1,0-0.2-0.1c-0.2-0.9-0.5-1.9-0.7-2.8
		c-0.2-0.9-0.4-1.8-0.6-2.6c0-0.1,0-0.2,0.1-0.2c0.2,0,0.4,0,0.7,0c0.1,0,0.1,0,0.2,0.1C64.4,9.5,64.8,11,65,12.7
		C65,12.7,65,12.7,65,12.7z"/>
	<path class="st0" d="M38.5,11.9c0.4,0.2,0.8,0.3,1.2,0.4c0.3,0.1,0.5,0.1,0.8,0.1c0.4,0,0.5-0.3,0.5-0.6c0-0.2-0.1-0.3-0.2-0.3
		c-0.2-0.2-0.5-0.3-0.8-0.4c-0.3-0.1-0.6-0.3-0.8-0.4c-0.7-0.5-0.9-1.4-0.5-2.2c0.2-0.4,0.6-0.7,1.1-0.8c0.9-0.2,1.8-0.1,2.6,0.3
		c0.1,0,0.1,0.1,0,0.1C42.2,8.4,42.1,8.7,42,9c0,0.1-0.1,0.1-0.2,0.1c-0.3-0.2-0.7-0.3-1-0.3c-0.2,0-0.3,0-0.5,0
		C40.1,8.8,40,8.9,40,9c0,0.2,0,0.3,0.1,0.4c0.2,0.2,0.4,0.2,0.6,0.3c0.3,0.1,0.6,0.3,0.9,0.4c0.4,0.2,0.8,0.6,0.9,1.1
		c0.2,1-0.2,1.9-1.4,2.2c-0.8,0.2-1.6,0.1-2.4-0.2c-0.2-0.1-0.2-0.1-0.2-0.3C38.5,12.7,38.5,12.3,38.5,11.9z"/>
	<path class="st0" d="M75.1,12.4c0,0.3,0,0.5,0,0.7c0,0.1,0,0.1-0.1,0.1c-1,0.4-1.9,0.5-2.9,0c-0.5-0.3-0.8-0.7-1-1.3
		c-0.3-1-0.3-2,0.1-2.9c0.5-1.1,1.6-1.7,2.7-1.3C74.7,8,75,8.6,75.2,9.3c0.1,0.5,0.1,1,0.1,1.4c0,0.1-0.1,0.1-0.2,0.1c-1,0-2,0-3,0
		c-0.1,0-0.1,0-0.2,0c-0.1,0-0.1,0-0.1,0.1c0,0.4,0.1,0.8,0.3,1.2c0.2,0.5,0.6,0.7,1.1,0.7c0.6,0,1.1-0.1,1.7-0.3
		C75,12.4,75,12.4,75.1,12.4z M73.1,10c0.4,0,0.7,0,1.1,0c0.1,0,0.1,0,0.1-0.1c0-0.2,0-0.5-0.1-0.7c-0.1-0.4-0.4-0.7-0.8-0.7
		c-0.5-0.1-0.9,0-1.2,0.4c-0.2,0.3-0.3,0.7-0.4,1c0,0.1,0,0.1,0.1,0.1C72.4,10,72.8,10,73.1,10z"/>
	<path class="st0" d="M62.6,10.7c0,0.5-0.1,1-0.3,1.5c-0.4,0.9-1.1,1.3-2,1.4c-1,0-1.7-0.4-2.1-1.3c-0.3-0.6-0.4-1.3-0.3-2
		c0-0.4,0.1-0.9,0.3-1.3c0.4-0.9,1.1-1.4,2.1-1.4c1,0,1.7,0.4,2.1,1.3C62.5,9.5,62.6,10.1,62.6,10.7z M61.7,10.5
		c0-0.2,0-0.5-0.1-0.8c-0.1-0.8-0.5-1.2-1.2-1.2c-0.7-0.1-1.2,0.2-1.5,0.9c-0.1,0.3-0.1,0.5-0.1,0.8c0,0.6,0,1.2,0.2,1.7
		c0.1,0.4,0.4,0.7,0.8,0.9c0.2,0.1,0.4,0.1,0.6,0.1c0.5,0,0.9-0.3,1.1-0.8C61.6,11.6,61.7,11.1,61.7,10.5z"/>
	<path class="st0" d="M49.4,10.6c0-0.9,0-1.9,0-2.8c0-0.1,0-0.1,0.1-0.1c0.4,0,0.7,0,1.1,0c0.1,0,0.1,0,0.1,0.1c0,0.2,0,0.4,0,0.7
		c0,0,0,0.1,0,0.1c0,0,0.1,0,0.1-0.1C51,8.3,51,8.2,51.1,8.1c0.4-0.5,1-0.6,1.6-0.5c0.1,0,0.1,0,0.1,0.1c0,0.4,0,0.9,0,1.3
		c0,0.1,0,0.1-0.1,0.1c-0.3,0-0.7-0.1-1,0.1C51.3,9.3,51.1,9.6,51,10c0,0.2,0,0.4,0,0.6c0,0.9,0,1.8,0,2.7c0,0.1,0,0.2-0.2,0.2
		c-0.4,0-0.8,0-1.2,0c-0.2,0-0.2,0-0.2-0.2C49.4,12.4,49.4,11.5,49.4,10.6z"/>
	<path class="st0" d="M55.9,10.1c0,1.1,0,2.1,0,3.2c0,0.1,0,0.2-0.2,0.2c-0.2,0-0.4,0-0.6,0c-0.1,0-0.1,0-0.1-0.1c0-0.6,0-1.2,0-1.8
		c0-1.5,0-3,0-4.6c0-0.2,0-0.2-0.2-0.2c-0.6,0-1.2,0-1.7,0c-0.1,0-0.2,0-0.2-0.2c0-0.2,0-0.4,0-0.6c0-0.1,0-0.1,0.1-0.1
		c0.3,0,0.5,0,0.8,0c1.4,0,2.7,0,4.1,0C58,5.9,58,5.9,58,6c0,0.2,0,0.4,0,0.5c0,0.1,0,0.1-0.1,0.1c-0.6,0-1.2,0-1.8,0
		c-0.1,0-0.2,0-0.2,0.2C55.9,8,55.9,9,55.9,10.1z"/>
	<path class="st0" d="M77.4,8.8c0.1-0.1,0.1-0.2,0.2-0.3c0.4-0.7,1-0.9,1.8-0.8c0.1,0,0.1,0,0.1,0.1c0,0.2-0.1,0.5-0.1,0.7
		c0,0.1,0,0.1-0.1,0.1c-0.1,0-0.2,0-0.3,0c-0.7,0-1.2,0.3-1.4,0.9c-0.1,0.3-0.2,0.7-0.2,1c0,0.9,0,1.9,0,2.8c0,0.1,0,0.2-0.2,0.2
		c-0.2,0-0.4,0-0.6,0c-0.1,0-0.1,0-0.1-0.1c0,0,0-0.1,0-0.1c0-1.8,0-3.6,0-5.4c0-0.1,0-0.2,0.2-0.2c0.2,0,0.4,0,0.5,0
		c0.1,0,0.1,0,0.1,0.1c0,0.2,0,0.5,0,0.7C77.4,8.7,77.4,8.7,77.4,8.8C77.4,8.8,77.4,8.8,77.4,8.8z"/>
	<path class="st0" d="M9.6,5.6c-2,0-3.7,1.5-3.9,3.4c-0.2,1.4,0.2,2.5,1.2,3.5c0.2,0.1,0.3,0.3,0.5,0.4c0.1,0,0.1,0.1,0.1,0.2
		c-0.1,0.4-0.1,0.8-0.2,1.3c0,0.1-0.1,0.1-0.1,0.1c-1-0.5-1.7-1.2-2.3-2.1c-0.5-0.9-0.8-1.9-0.7-3c0.1-1.1,0.5-2.1,1.2-3
		c0.8-1,1.8-1.6,3-1.9c1.5-0.3,3,0,4.3,0.9c1,0.7,1.6,1.6,2,2.7c0.6,1.9,0.2,3.6-1,5.2c-0.5,0.5-1,1-1.6,1.3
		c-0.1,0.1-0.2,0.1-0.2-0.1c0-0.4-0.1-0.7-0.1-1.1c0-0.1,0-0.2,0.1-0.3c1-0.7,1.5-1.6,1.7-2.8c0.2-1.8-0.9-3.6-2.7-4.2
		C10.4,5.7,10,5.6,9.6,5.6z"/>
</g>
</svg>
