<?xml version="1.0" encoding="utf-8"?>
<!-- Generator: Adobe Illustrator 25.2.1, SVG Export Plug-In . SVG Version: 6.00 Build 0)  -->
<svg version="1.1" id="Layer_1" xmlns="http://www.w3.org/2000/svg" xmlns:xlink="http://www.w3.org/1999/xlink" x="0px" y="0px"
	 viewBox="0 0 79.3 15.2" style="enable-background:new 0 0 79.3 15.2;" xml:space="preserve">
<style type="text/css">
	.st0{fill:#D3E7F7;}
	.st1{fill:#0155A1;}
	.st2{fill:#FBA702;}
	.st3{fill:#FCFEFF;}
	.st4{fill:#036ED4;}
	.st5{fill:#006CD3;}
	.st6{fill:#050306;}
	.st7{fill:#03B1AE;}
	.st8{fill:#00AD39;}
	.st9{fill:#FF495C;}
	.st10{fill:#017EAE;}
	.st11{fill:#CA4929;}
	.st12{fill:#F59001;}
	.st13{fill:#CDD0D2;}
	.st14{fill:#0863FF;}
	.st15{fill:#F14D02;}
	.st16{fill:#FED853;}
	.st17{fill:#2C323B;}
	.st18{fill:#EE5B65;}
	.st19{fill:#32B3E8;}
	.st20{fill:#2A8AC6;}
	.st21{fill:#D6445D;}
	.st22{fill:#960A2C;}
	.st23{fill:#010101;}
	.st24{fill:#D72B11;}
	.st25{fill:#E41231;}
	.st26{fill:#F01523;}
	.st27{fill:#93DD01;}
	.st28{fill:#249633;}
	.st29{fill:#242424;}
	.st30{fill:#C80126;}
	.st31{fill:#020202;}
	.st32{fill:#959798;}
	.st33{fill:#EE1818;}
	.st34{fill:#242021;}
	.st35{fill:#002A3B;}
	.st36{fill:#205053;}
	.st37{fill:#235153;}
	.st38{fill:#15AA9E;}
	.st39{fill:#09AC9D;}
	.st40{fill:#05716B;}
	.st41{fill:#F49200;}
	.st42{fill:#E25100;}
	.st43{fill:#0223FE;}
	.st44{fill:#04CBFE;}
	.st45{fill:#F47264;}
	.st46{fill:#F24731;}
	.st47{fill:#F8A197;}
	.st48{fill:#233240;}
	.st49{fill:#FE6D52;}
	.st50{fill:#124FFF;}
	.st51{fill:#F56D58;}
	.st52{fill:#75C4E2;}
	.st53{fill:#E0044D;}
	.st54{fill:#3B267C;}
	.st55{fill:#DD1937;}
	.st56{fill:#01B3FE;}
	.st57{fill:#454545;}
	.st58{fill:#AB56B3;}
	.st59{fill:#031A28;}
	.st60{fill:#53CD8E;}
	.st61{fill:#1B0E65;}
	.st62{fill:#060250;}
	.st63{fill:#02AA47;}
	.st64{fill:#060605;}
	.st65{fill:#221E5D;}
	.st66{fill:#F2574D;}
	.st67{fill:#FE6F05;}
	.st68{fill:#D2D1D0;}
</style>
<g>
	<path class="st0" d="M38.9,10c0.6,0.8,1.2,1.7,1.8,2.5c0.1,0.2,0,0.2-0.1,0.3c-1.1,1-2.3,1.7-3.8,2.1c-2,0.5-4,0.3-5.8-0.7
		c-2.3-1.2-3.5-3.2-3.8-5.8c-0.2-1.8,0.2-3.5,1.2-5c1.2-1.8,2.9-2.9,5.1-3.2c2.2-0.4,4.3,0.1,6.2,1.4C40.4,2,40.4,2,39.9,2.8
		c-0.4,0.6-0.7,1.2-1.1,1.7c-0.1,0.2-0.2,0.3-0.4,0.1c-1-0.7-2-1.2-3.3-1.3c-2.5-0.1-4.3,1.7-4.3,4.2c0,1.9,1.1,3.5,2.7,4.1
		c1.5,0.5,2.8,0.1,4.1-0.6C38.1,10.7,38.5,10.4,38.9,10z"/>
	<path class="st0" d="M25.2,10c0.4,0.6,0.8,1.2,1.3,1.8c0.1,0.2,0.2,0.3,0.3,0.5c0.3,0.4,0.3,0.4-0.1,0.7c-1.8,1.6-3.9,2.2-6.2,2.1
		c-1.5-0.1-3-0.6-4.2-1.5c-1.6-1.2-2.5-2.8-2.7-4.8c-0.3-2,0.1-3.9,1.3-5.6c1.3-1.8,3.1-2.8,5.3-3.1c2.2-0.3,4.2,0.2,6,1.6
		c0.5,0.4,0.5,0.4,0.2,1c-0.4,0.6-0.8,1.3-1.2,1.9c-0.1,0.2-0.2,0.3-0.4,0.1c-1.1-0.8-2.3-1.4-3.7-1.3c-2.2,0.1-3.8,1.6-3.9,3.8
		c-0.1,1.6,0.4,3,1.7,3.9c1.4,1,3,1,4.5,0.2C24.1,10.9,24.6,10.5,25.2,10z"/>
	<path class="st0" d="M7,10.8C7.5,8.3,8.4,6,9.1,3.7c0.3-1.1,0.7-2.1,1-3.2c0.1-0.2,0.2-0.3,0.4-0.3c1.2,0,2.3,0,3.5,0
		c-0.3,0.8-0.5,1.5-0.8,2.2c-1.4,4-2.9,8.1-4.3,12.1c-0.1,0.2-0.2,0.3-0.5,0.3c-1,0-2.1,0-3.1,0c-0.2,0-0.3-0.1-0.4-0.3
		C3.4,9.9,1.7,5.2,0,0.5C0,0.3,0,0.2,0.2,0.2c1.1,0,2.2,0,3.3,0c0.2,0,0.3,0,0.4,0.2c0.9,3,1.9,5.9,2.7,8.9C6.8,9.8,6.9,10.3,7,10.8
		z"/>
	<path class="st0" d="M74.4,15.2c-2.9,0-5.1-2.1-5.4-4.9c-0.2-1.7,0.3-3.3,1.5-4.6c2.5-2.6,7.2-1.9,8.5,2.2c0.2,0.5,0.2,1.1,0.3,1.6
		c0,0.3-0.1,0.3-0.3,0.3c-2.8,0-5.6,0-8.4,0c-0.6,0-0.6,0-0.5,0.6c0.2,1.4,0.8,2.6,2.1,3.3c1.5,1,4.2,1,5.6-1
		c0.2-0.3,0.4-0.4,0.7-0.3c0.2,0,0.6-0.1,0.6,0.1c0.1,0.2-0.2,0.4-0.3,0.6C77.7,14.5,76.2,15.2,74.4,15.2z M74.2,9.1
		c1.1,0,2.2,0,3.3,0c0.9,0,0.9,0,0.6-0.8c-0.5-1.8-2-3-3.7-3.1c-2.2-0.1-4,1.5-4.3,3.7c0,0.3,0.1,0.3,0.3,0.3
		C71.6,9.1,72.9,9.1,74.2,9.1z"/>
	<path class="st0" d="M48.5,7.5c0-2.3,0-4.6,0-6.9c0-0.3,0.1-0.4,0.4-0.4c0.6,0,0.6,0,0.6,0.7c0,4.3,0,8.5,0,12.8
		c0,0.3,0.1,0.4,0.4,0.4c2.2,0,4.4,0,6.6,0c0.3,0,0.4,0.1,0.4,0.4c0,0.5,0,0.5-0.5,0.5c-2.5,0-5,0-7.5,0c-0.3,0-0.4-0.1-0.3-0.3
		C48.5,12.2,48.5,9.8,48.5,7.5z"/>
	<path class="st0" d="M64.6,13.7c0.8-2.4,1.8-4.6,2.7-7c0.3-0.6,0.5-1.3,0.8-1.9c0.1-0.2,0.2-0.3,0.5-0.3c0.7,0,0.7,0,0.4,0.6
		c-1.3,3.1-2.6,6.3-3.9,9.4c-0.1,0.2-0.2,0.3-0.4,0.3c-0.2,0-0.4,0.1-0.6-0.2c-1.3-3.3-2.7-6.5-4-9.7c-0.1-0.2-0.1-0.3,0.2-0.3
		c0.7,0,0.7,0,0.9,0.6c1.1,2.8,2.3,5.5,3.3,8.4C64.5,13.6,64.5,13.7,64.6,13.7z"/>
	<path class="st0" d="M58,9.7c0-1.6,0-3.2,0-4.8c0-0.3,0.1-0.3,0.3-0.3c0.6,0,0.6,0,0.6,0.6c0,3.1,0,6.2,0,9.3c0,0.3,0,0.4-0.4,0.4
		c-0.6,0-0.6,0-0.6-0.6C58,12.7,58,11.2,58,9.7z"/>
	<path class="st0" d="M44.2,6.4c0.6,0,1.1,0.5,1.1,1.1c0,0.6-0.5,1.1-1.1,1.1c-0.6,0-1.1-0.5-1.1-1.1C43.1,6.9,43.6,6.4,44.2,6.4z"
		/>
	<path class="st0" d="M44.2,13c-0.6,0-1.1-0.5-1.1-1.1c0-0.6,0.5-1.1,1.1-1.1c0.6,0,1.1,0.5,1.1,1.1C45.3,12.5,44.8,13,44.2,13z"/>
	<path class="st0" d="M44.2,4.2c-0.6,0-1.1-0.5-1.1-1.1c0-0.6,0.5-1.1,1.1-1.1c0.6,0,1.1,0.6,1.1,1.2C45.3,3.8,44.8,4.3,44.2,4.2z"
		/>
	<path class="st0" d="M59.1,0.9c0,0.7,0,0.7-0.7,0.7c-0.7,0-0.7,0-0.7-0.7c0-0.7,0-0.7,0.7-0.7C59.1,0.2,59.1,0.2,59.1,0.9z"/>
</g>
</svg>
