<?xml version="1.0" encoding="UTF-8"?>
<svg width="297px" height="270px" viewBox="0 0 297 270" version="1.1" xmlns="http://www.w3.org/2000/svg" xmlns:xlink="http://www.w3.org/1999/xlink">
    <!-- Generator: Sketch 62 (91390) - https://sketch.com -->
    <title>Group 18</title>
    <desc>Created with Sketch.</desc>
    <defs>
        <linearGradient x1="45.1643803%" y1="0%" x2="45.1643794%" y2="100%" id="linearGradient-1">
            <stop stop-color="#0D2436" offset="0%"></stop>
            <stop stop-color="#1B3549" offset="23.9681472%"></stop>
            <stop stop-color="#1B3549" offset="76.183266%"></stop>
            <stop stop-color="#0D2436" offset="100%"></stop>
        </linearGradient>
        <polygon id="path-2" points="0.0226582459 0.0436453624 17.5360433 0.0436453624 17.5360433 16.6081384 0.0226582459 16.6081384"></polygon>
        <polygon id="path-4" points="0.0117706458 0.00615655577 16.4671679 0.00615655577 16.4671679 9.53411546 0.0117706458 9.53411546"></polygon>
        <polygon id="path-6" points="2.43705089e-05 0.105731949 24.3699476 0.105731949 24.3699476 5.5862069 2.43705089e-05 5.5862069"></polygon>
        <linearGradient x1="120.06734%" y1="-57.1279399%" x2="27.0037071%" y2="60.9660852%" id="linearGradient-8">
            <stop stop-color="#FFFCF0" offset="0%"></stop>
            <stop stop-color="#FAAD13" offset="100%"></stop>
        </linearGradient>
        <linearGradient x1="120.362444%" y1="-86.3252935%" x2="24.6948336%" y2="91.4560676%" id="linearGradient-9">
            <stop stop-color="#F8F7FF" offset="0%"></stop>
            <stop stop-color="#6D64F5" offset="100%"></stop>
        </linearGradient>
        <linearGradient x1="33.8403579%" y1="-16.1273549%" x2="63.3769322%" y2="107.75482%" id="linearGradient-10">
            <stop stop-color="#3DE2CB" offset="0%"></stop>
            <stop stop-color="#6D64F5" offset="100%"></stop>
        </linearGradient>
        <linearGradient x1="36.6230678%" y1="32.259375%" x2="63.3769322%" y2="73.803125%" id="linearGradient-11">
            <stop stop-color="#C9C3FF" offset="0%"></stop>
            <stop stop-color="#6D64F5" offset="100%"></stop>
        </linearGradient>
        <polygon id="path-12" points="0 0 4 0 4 5.5 0 5.5"></polygon>
        <polygon id="path-14" points="0 0 4 0 4 5.5 0 5.5"></polygon>
        <polygon id="path-16" points="0 0 4 0 4 5.5 0 5.5"></polygon>
        <polygon id="path-18" points="0 0 4 0 4 5.5 0 5.5"></polygon>
        <polygon id="path-20" points="0 0 4 0 4 5.5 0 5.5"></polygon>
        <polygon id="path-22" points="0 0 4 0 4 5.5 0 5.5"></polygon>
        <polygon id="path-24" points="0 0 4 0 4 5.5 0 5.5"></polygon>
        <polygon id="path-26" points="0 0 4.03333333 0 4.03333333 5.5 0 5.5"></polygon>
        <polygon id="path-28" points="0 0 4.03333333 0 4.03333333 5.5 0 5.5"></polygon>
        <polygon id="path-30" points="0 0 4.03333333 0 4.03333333 5.5 0 5.5"></polygon>
        <polygon id="path-32" points="0 0 4.03333333 0 4.03333333 5.5 0 5.5"></polygon>
        <polygon id="path-34" points="0 0 4.03333333 0 4.03333333 5.5 0 5.5"></polygon>
        <polygon id="path-36" points="0 0 4.03333333 0 4.03333333 5.5 0 5.5"></polygon>
        <polygon id="path-38" points="0 0 4.03333333 0 4.03333333 5.5 0 5.5"></polygon>
        <polygon id="path-40" points="0 0 4.03333333 0 4.03333333 5.5 0 5.5"></polygon>
        <polygon id="path-42" points="0 0 4.03333333 0 4.03333333 5.5 0 5.5"></polygon>
        <polygon id="path-44" points="0 0 4.03333333 0 4.03333333 5.5 0 5.5"></polygon>
        <polygon id="path-46" points="0.08428 0.120142815 7.69234667 0.120142815 7.69234667 10.0385185 0.08428 10.0385185"></polygon>
        <polygon id="path-48" points="0 0.000129861111 16.9985833 0.000129861111 16.9985833 10.7430556 0 10.7430556"></polygon>
        <polygon id="path-50" points="0.0508819444 0.0125729167 11.0449826 0.0125729167 11.0449826 8.56498368 0.0508819444 8.56498368"></polygon>
        <polygon id="path-52" points="0 22.5360382 16.9985833 22.5360382 16.9985833 0.0590277778 0 0.0590277778"></polygon>
        <polygon id="path-54" points="0 0.000129861111 16.9985833 0.000129861111 16.9985833 10.7430556 0 10.7430556"></polygon>
        <polygon id="path-56" points="0.014888408 0.0492881944 7.88640529 0.0492881944 7.88640529 7.53422882 0.014888408 7.53422882"></polygon>
        <polygon id="path-58" points="0 20.5514062 16.9985833 20.5514062 16.9985833 0.0590277778 0 0.0590277778"></polygon>
        <linearGradient x1="105.447519%" y1="45.7869863%" x2="-4.14975725%" y2="53.7052907%" id="linearGradient-60">
            <stop stop-color="#46CBD3" offset="0%"></stop>
            <stop stop-color="#696FF1" offset="100%"></stop>
        </linearGradient>
        <linearGradient x1="70.0359375%" y1="26.180349%" x2="30.4330081%" y2="70.9490733%" id="linearGradient-61">
            <stop stop-color="#46CBD3" offset="0%"></stop>
            <stop stop-color="#696FF1" offset="100%"></stop>
        </linearGradient>
        <polygon id="path-62" points="0 0.103866667 11.8296621 0.103866667 11.8296621 17.2599322 0 17.2599322"></polygon>
        <polygon id="path-64" points="0.00012137931 0.102994536 10.3992414 0.102994536 10.3992414 12.6114525 0.00012137931 12.6114525"></polygon>
        <polygon id="path-66" points="0.00797922753 0.0931866296 2.98017931 0.0931866296 2.98017931 5.60655738 0.00797922753 5.60655738"></polygon>
        <linearGradient x1="105.447519%" y1="47.7254864%" x2="-4.14975725%" y2="52.0004052%" id="linearGradient-68">
            <stop stop-color="#46CBD3" offset="0%"></stop>
            <stop stop-color="#696FF1" offset="100%"></stop>
        </linearGradient>
    </defs>
    <g id="Product" stroke="none" stroke-width="1" fill="none" fill-rule="evenodd">
        <g id="Mobile-Copy" transform="translate(-14.000000, -996.000000)">
            <g id="Group-18" transform="translate(14.000000, 996.000000)">
                <path d="M101.25,-11.75 L195.25,-11.75 C198.011424,-11.75 200.25,-9.51142375 200.25,-6.75 L200.25,279.75 C200.25,282.511424 198.011424,284.75 195.25,284.75 L101.25,284.75 C98.4885763,284.75 96.25,282.511424 96.25,279.75 L96.25,-6.75 C96.25,-9.51142375 98.4885763,-11.75 101.25,-11.75 Z" id="Rectangle-Copy-15" fill="url(#linearGradient-1)" transform="translate(148.250000, 136.500000) rotate(90.000000) translate(-148.250000, -136.500000) "></path>
                <g id="Group-41" transform="translate(12.500000, 0.000000)">
                    <rect id="Rectangle-Copy-74" stroke="#FAAD13" stroke-width="0.5" fill="#0B1C28" x="0.25" y="0.25" width="34.5" height="34.5" rx="17.25"></rect>
                    <rect id="Rectangle-Copy-70" stroke="#FAAD13" stroke-width="0.5" fill="#0B1C28" x="18.75" y="0.25" width="34.5" height="34.5" rx="17.25"></rect>
                    <rect id="Rectangle-Copy-33" stroke="#FAAD13" stroke-width="0.5" fill="#0B1C28" x="35.75" y="0.25" width="34.5" height="34.5" rx="17.25"></rect>
                    <text id="App-Copy-8" font-family="'Avenir-Black', 'Arial', sans-serif" font-size="8" font-weight="700" line-spacing="10" fill="#FAAD13">
                        <tspan x="45" y="20.5">App</tspan>
                    </text>
                    <path d="M53.5,35 L53.5,41.25 C53.5,44.0114237 55.7385763,46.25 58.5,46.25 L85.5,46.25 C88.2614237,46.25 90.5,48.4885763 90.5,51.25 L90.5,57.5 L90.5,57.5" id="Path-6" stroke="#FAAD13" stroke-width="0.5"></path>
                    <path d="M65.0333333,43.9290535 L65.0333333,48.5709783 C65.0333333,48.8895831 64.7873232,49.0967656 64.5782772,48.9540994 L61.1736,46.6298909 C60.9419945,46.4718058 60.9421731,46.0210846 61.1738976,45.8634052 L64.5786343,43.5456889 C64.7876209,43.4034285 65.0333333,43.610611 65.0333333,43.9290535" id="Fill-3-Copy-4" fill="#FAAD13" opacity="0.601074219" transform="translate(63.016667, 46.250000) scale(-1, 1) translate(-63.016667, -46.250000) "></path>
                    <path d="M85.0333333,43.9290535 L85.0333333,48.5709783 C85.0333333,48.8895831 84.7873232,49.0967656 84.5782772,48.9540994 L81.1736,46.6298909 C80.9419945,46.4718058 80.9421731,46.0210846 81.1738976,45.8634052 L84.5786343,43.5456889 C84.7876209,43.4034285 85.0333333,43.610611 85.0333333,43.9290535" id="Fill-3-Copy-4" fill="#FAAD13" opacity="0.601074219" transform="translate(83.016667, 46.250000) scale(-1, 1) translate(-83.016667, -46.250000) "></path>
                </g>
                <rect id="Rectangle-Copy-31" stroke="#49C2D6" stroke-width="0.5" fill="#0B1C28" x="114.25" y="0.25" width="34.5" height="34.5" rx="17.25"></rect>
                <rect id="Rectangle-Copy-66" stroke="#49C2D6" stroke-width="0.5" fill="#0B1C28" x="140.25" y="0.25" width="34.5" height="34.5" rx="17.25"></rect>
                <rect id="Rectangle-Copy-31" stroke="#49C2D6" stroke-width="0.5" fill="#0B1C28" x="127.25" y="0.25" width="34.5" height="34.5" rx="17.25"></rect>
                <rect id="Rectangle-Copy-90" stroke="#6D64F5" stroke-width="0.5" fill="#0B1C28" x="241.25" y="0.25" width="34.5" height="34.5" rx="17.25"></rect>
                <rect id="Rectangle-Copy-87" stroke="#6D64F5" stroke-width="0.5" fill="#0B1C28" x="224.25" y="0.25" width="34.5" height="34.5" rx="17.25"></rect>
                <rect id="Rectangle-Copy-28" stroke="#6D64F5" stroke-width="0.5" fill="#0B1C28" x="206.25" y="0.25" width="34.5" height="34.5" rx="17.25"></rect>
                <text id="App" font-family="'Avenir-Black', 'Arial', sans-serif" font-size="8" font-weight="700" line-spacing="10" fill="#6D64F5">
                    <tspan x="215" y="20.5">App</tspan>
                </text>
                <path d="M186.5,35 L186.5,41.25 C186.5,44.0114237 188.738576,46.25 191.5,46.25 L218.5,46.25 C221.261424,46.25 223.5,48.4885763 223.5,51.25 L223.5,57.5 L223.5,57.5" id="Path-6" stroke="#6D64F5" stroke-width="0.5" transform="translate(205.000000, 46.250000) scale(-1, 1) translate(-205.000000, -46.250000) "></path>
                <path d="M214.5,43.9290535 L214.5,48.5709783 C214.5,48.8895831 214.25399,49.0967656 214.044944,48.9540994 L210.640267,46.6298909 C210.408661,46.4718058 210.40884,46.0210846 210.640564,45.8634052 L214.045301,43.5456889 C214.254288,43.4034285 214.5,43.610611 214.5,43.9290535" id="Fill-3-Copy-4" fill="#6D64F5" opacity="0.601074219"></path>
                <path d="M195.5,43.9290535 L195.5,48.5709783 C195.5,48.8895831 195.25399,49.0967656 195.044944,48.9540994 L191.640267,46.6298909 C191.408661,46.4718058 191.40884,46.0210846 191.640564,45.8634052 L195.045301,43.5456889 C195.254288,43.4034285 195.5,43.610611 195.5,43.9290535" id="Fill-3-Copy-4" fill="#6D64F5" opacity="0.601074219"></path>
                <path d="M167.671165,269.5 L119.5,269.5 C118.257359,269.5 117.132359,268.99632 116.318019,268.181981 C115.50368,267.367641 115,266.242641 115,265 L115,239 C115,237.757359 115.50368,236.632359 116.318019,235.818019 C117.132359,235.00368 118.257359,234.5 119.5,234.5 L169.5,234.5 C170.742641,234.5 171.867641,235.00368 172.681981,235.818019 C173.49632,236.632359 174,237.757359 174,239 L174,260.230469 L174,265 C174,266.242641 173.49632,267.367641 172.681981,268.181981 C171.867641,268.99632 170.742641,269.5 169.5,269.5 L167.671165,269.5 Z" id="Rectangle-Copy-17" stroke="#49C2D6" fill="#0B1C28"></path>
                <g id="Group-17" transform="translate(133.000000, 243.000000)">
                    <path d="M0,15.74173 C0.363522233,15.2136221 0.655505685,14.6432718 0.975908652,14.0899423 C2.56704052,11.3418627 4.15265353,8.59058536 5.73857601,5.83946271 C5.81222949,5.71170383 5.89846802,5.60060467 6.0128166,5.50503051 C8.15753589,3.71171261 10.3003984,1.91617686 12.4441377,0.121672666 C12.4936526,0.0802554761 12.5487896,0.0455434353 12.6119727,0 C12.6375554,0.124303147 12.5680282,0.198317677 12.5303762,0.279037356 C10.1558766,5.37175278 7.77864339,10.4632303 5.40857952,15.5580089 C5.32203152,15.744051 5.21939116,15.796248 5.0226724,15.7954323 C3.34844827,15.7883049 1.67422413,15.7923796 0,15.7931017 L0,15.74173 Z" id="Fill-1" fill="#0187D8"></path>
                    <g id="Group-5" transform="translate(5.518853, 1.130798)">
                        <mask id="mask-3" fill="white">
                            <use xlink:href="#path-2"></use>
                        </mask>
                        <g id="Clip-4"></g>
                        <path d="M17.5360433,16.6081487 L0.0273002722,16.6081487 L0.0226582459,16.575345 C3.54574986,15.9525914 7.06889305,15.3298378 10.5925004,14.706981 C10.5915205,14.5961913 10.510646,14.5482237 10.4580364,14.4855048 C8.70087474,12.3902489 6.94355834,10.2951477 5.18123886,8.20422435 C5.08117741,8.08559479 5.05311894,7.9919806 5.10789485,7.8424042 C6.03330857,5.31363461 6.95289397,2.78269874 7.87412987,0.252381809 C7.89445163,0.19652276 7.91900279,0.142211053 7.95943999,0.0436453624 C11.1568677,5.57420701 14.337223,11.0752144 17.5360433,16.6081487" id="Fill-3" fill="#0187D8" mask="url(#mask-3)"></path>
                    </g>
                </g>
                <rect id="Rectangle-Copy-23" stroke="#FAAD13" fill="#0B1C28" x="48" y="234.5" width="59" height="35" rx="5"></rect>
                <rect id="Rectangle-Copy-22" stroke="#6D64F5" fill="#0B1C28" x="182" y="234.5" width="59" height="35" rx="5"></rect>
                <g id="Group-20" transform="translate(200.500000, 242.500000)">
                    <g id="Group-44" transform="translate(1.951420, 0.000000)">
                        <mask id="mask-5" fill="white">
                            <use xlink:href="#path-4"></use>
                        </mask>
                        <g id="Clip-43"></g>
                        <path d="M0.0117706458,5.82623288 C0.188674755,5.36731115 0.47170411,4.96543444 0.711529941,4.54099804 C1.40722074,3.3098591 2.12086458,2.08888063 2.8194184,0.859356164 C3.14280978,0.290133072 3.60976086,0.00654403131 4.27307593,0.00800782779 C7.28817378,0.0146164384 10.3032932,0.0134540117 13.3183695,0.00614934628 C13.9583714,0.00462818004 14.4413166,0.24602544 14.7611131,0.806767123 C15.3110701,1.77106458 15.8650955,2.73308023 16.4157413,3.69696869 C16.441164,3.74144227 16.4503342,3.79519374 16.4671679,3.8447045 C16.2970231,3.85051663 16.1268783,3.86046184 15.9566904,3.86134442 C14.6973949,3.86797456 13.4380779,3.87283953 12.1787824,3.87824266 C12.1001679,3.86982583 12.0215965,3.8541546 11.942982,3.85409002 C9.8935593,3.85249706 7.84411507,3.85520939 5.79469237,3.84819178 C5.58388415,3.84748141 5.46152798,3.91171624 5.35482153,4.09953425 C4.57181957,5.47793542 3.78199374,6.852591 2.98276086,8.22162818 C2.72429315,8.66438356 2.52084697,9.14205479 2.17902896,9.53411546 C2.13543796,9.46906262 2.08805832,9.40618395 2.04881566,9.338591 C1.36920509,8.16815656 0.690606262,6.9971409 0.0117706458,5.82623288" id="Fill-42" fill="#4A89F6" mask="url(#mask-5)"></path>
                    </g>
                    <path d="M1.96319101,5.82623288 C2.64202663,6.9971409 3.32062545,8.16815656 4.00023602,9.338591 C4.03947868,9.40618395 4.08685833,9.46906262 4.13047085,9.53407241 C4.14840236,9.58319569 4.15950999,9.63630137 4.18523406,9.68094716 C5.21350804,11.466047 6.24636714,13.2485636 7.26854913,15.0371507 C7.39869786,15.2649002 7.55960784,15.3326869 7.81280158,15.3289198 C8.77720667,15.3145401 9.74193465,15.3185871 10.706555,15.3213425 C11.8030031,15.3244638 12.8994513,15.333591 13.995921,15.340135 C13.9868583,15.3915401 13.9912497,15.4507378 13.9667742,15.493274 C13.5536607,16.2113953 13.1287292,16.922865 12.7239249,17.6455714 C12.4483221,18.1375793 12.1240482,18.6032818 11.9086548,19.1283757 C11.793553,19.1725695 11.6732419,19.1552407 11.5551264,19.1553053 C9.79628886,19.1562309 8.03747281,19.155499 6.27863524,19.1558219 C6.01250412,19.155865 5.75007555,19.138407 5.5028231,19.025953 C5.19036714,18.8838356 4.96541606,18.6544716 4.79552956,18.3574286 C3.28013426,15.7076125 1.76411469,13.0581409 0.241335825,10.4125656 C-0.0881044884,9.84028571 -0.0782238621,9.29665753 0.258470854,8.72995303 C0.744365179,7.91205675 1.20664502,7.0801683 1.67843954,6.25391977 C1.76361958,6.10474168 1.84442976,5.95293738 1.96319101,5.82623288" id="Fill-45" fill="#FCC003"></path>
                    <path d="M11.9086591,19.1283822 C12.1240525,18.6032667 12.4483264,18.1375857 12.7239292,17.6455779 C13.1287335,16.9228714 13.5536435,16.2114018 13.966757,15.4932804 C13.991254,15.4507227 13.9868626,15.3915466 13.9959037,15.3401415 C14.1582129,15.2506777 14.2141386,15.078165 14.2978979,14.9332706 C15.2559957,13.2763822 16.1992188,11.6108186 17.1704693,9.9617227 C17.3386121,9.67623933 17.3168705,9.48058571 17.1590818,9.21139785 C16.2646161,7.68556223 15.386209,6.15023346 14.5085123,4.61464638 C14.3718626,4.37555245 14.2021483,4.15133327 14.1302071,3.87824912 C15.3895026,3.87284599 16.6488196,3.86798102 17.9081151,3.86132935 C18.0783029,3.86044677 18.2484478,3.85050157 18.4185926,3.84471096 C18.8095339,4.4104683 19.1183949,5.02487534 19.4635065,5.61775597 C20.0681405,6.65655636 20.6611288,7.70213757 21.2618881,8.74319824 C21.3751816,8.93958376 21.4629018,9.14259941 21.5092482,9.36559159 C21.6026082,9.81478337 21.3959761,10.2028186 21.1754165,10.5377051 C20.9969624,10.8086151 20.8434145,11.0944644 20.6750564,11.3692061 C20.2222266,12.108208 19.7875652,12.8596523 19.3770994,13.6230221 C18.6251601,15.0214429 17.8365613,16.3988108 17.0473166,17.7760495 C16.9291366,17.9822726 16.8089546,18.1873978 16.6937883,18.3952785 C16.4360525,18.8604429 16.0237139,19.1252178 15.5128059,19.1389517 C14.3120622,19.1712628 13.1098333,19.1882902 11.9086591,19.1283822" id="Fill-47" fill="#ED4936"></path>
                    <path d="M13.5976521,9.65877495 C13.6892685,8.01581409 12.3291648,6.75464579 10.7945679,6.71200196 C9.2622959,6.66944423 7.87844854,8.04222701 7.87838397,9.5836047 C7.87831939,11.221636 9.32941528,12.4496536 10.7613096,12.4536028 C12.2976716,12.4577906 13.6641472,11.12382 13.5976521,9.65877495 M14.1301941,3.87824266 C14.202157,4.15132681 14.3718712,4.37554599 14.508521,4.61463992 C15.3862176,6.15024853 16.2646031,7.68555577 17.1590689,9.21141292 C17.3168575,9.48060078 17.3385992,9.6762544 17.1704779,9.96171624 C16.1992059,11.6108337 15.2559828,13.2763973 14.2979065,14.9332642 C14.2141256,15.0781585 14.1582215,15.2506928 13.9959123,15.340135 C12.8994642,15.333591 11.8030161,15.3244638 10.7065464,15.3213425 C9.74194757,15.3185871 8.77719806,15.3145401 7.81279297,15.3289198 C7.55959923,15.3326869 7.39868925,15.2649002 7.26854052,15.0371507 C6.24635853,13.2485636 5.21352095,11.466047 4.18522545,9.68094716 C4.15950138,9.63630137 4.14841528,9.58319569 4.13048377,9.53407241 C4.47228025,9.14205479 4.67572643,8.66438356 4.93419414,8.22162818 C5.73342702,6.852591 6.52323132,5.47793542 7.30625481,4.09953425 C7.41293974,3.91171624 7.5352959,3.84748141 7.74610412,3.84818596 C9.79552682,3.85520939 11.844971,3.85249706 13.8944153,3.85409002 C13.9730082,3.8541546 14.0516012,3.86982583 14.1301941,3.87824266" id="Fill-49" fill="#FFFFFF"></path>
                </g>
                <text id="App-Copy-4" font-family="'Avenir-Black', 'Arial', sans-serif" font-size="8" font-weight="700" line-spacing="10" fill="#49C2D6">
                    <tspan x="136" y="20.5">App</tspan>
                </text>
                <g id="Group-12" transform="translate(64.000000, 244.000000)">
                    <path d="M11.4753414,6.50647241 C11.8300655,5.00254138 12.1838586,3.50078276 12.5385828,1.99933448 C12.6496862,1.52792069 12.7589276,1.05619655 12.8774793,0.586955172 C12.9457552,0.316334483 13.0531345,0.235024138 13.3349276,0.229437931 C13.6126862,0.223851724 13.8907552,0.225403448 14.1685138,0.2313 C14.409031,0.236575862 14.5216862,0.320989655 14.5846862,0.556851724 C14.6694103,0.875265517 14.7411,1.19740345 14.8171345,1.5183 C15.2137552,3.19788621 15.6100655,4.87778276 16.0076172,6.56202414 C16.0554103,6.54340345 16.0464103,6.49747241 16.0547897,6.46612759 C16.4666172,4.87716207 16.8772034,3.28788621 17.2874793,1.69861034 C17.3734448,1.36592069 17.4575483,1.03261034 17.5450655,0.700231034 C17.6496517,0.301127586 17.7467897,0.227265517 18.1567552,0.227265517 C18.396031,0.227265517 18.6353069,0.226644828 18.8745828,0.227575862 C19.0759966,0.228506897 19.1389966,0.297403448 19.1241,0.499437931 C19.1132379,0.648093103 19.0576862,0.785886207 19.0139276,0.926472414 C18.3187552,3.15567931 17.6226517,5.38457586 16.9262379,7.61347241 C16.9014103,7.69354138 16.8725483,7.77298966 16.8415138,7.85119655 C16.7772724,8.01257586 16.6509621,8.09419655 16.4833759,8.10102414 C16.1494448,8.11436897 15.8148931,8.11436897 15.4809621,8.10040345 C15.3009621,8.09264483 15.1864448,7.98619655 15.1389621,7.81954138 C15.0744103,7.59392069 15.0216517,7.36488621 14.9667207,7.13616207 C14.5573759,5.43454138 14.1486517,3.73261034 13.7393069,2.03067931 C13.7352724,2.01423103 13.7278241,1.99933448 13.7126172,1.95836897 C13.6341,2.28547241 13.5608586,2.58867931 13.4882379,2.89188621 C13.1089966,4.47433448 12.7309966,6.05740345 12.3498931,7.63954138 C12.2552379,8.03305862 12.1630655,8.10071379 11.7580655,8.10071379 C11.5330655,8.10071379 11.3077552,8.10133448 11.0824448,8.10071379 C10.764031,8.09947241 10.6538586,8.02778276 10.5567207,7.72271379 C10.3913069,7.20505862 10.2358241,6.6843 10.0778586,6.16416207 C9.52978966,4.36292069 8.98234138,2.56136897 8.43458276,0.759817241 C8.40603103,0.665782759 8.37872069,0.571127586 8.36847931,0.473368966 C8.35234138,0.318196552 8.42713448,0.229127586 8.58292759,0.228506897 C8.9028931,0.226644828 9.22316897,0.230058621 9.54313448,0.23067931 C9.72654828,0.230989655 9.84851379,0.318196552 9.91244483,0.488575862 C10.0291345,0.7983 10.0912034,1.12292069 10.1725138,1.44226552 C10.5970655,3.10385172 11.0182034,4.76667931 11.4402724,6.42888621 C11.4471,6.45588621 11.4511345,6.48381724 11.4753414,6.50647241" id="Fill-1" fill="#FFFFFF"></path>
                    <g id="Group-5" transform="translate(0.000000, 10.369769)">
                        <mask id="mask-7" fill="white">
                            <use xlink:href="#path-6"></use>
                        </mask>
                        <g id="Clip-4"></g>
                        <path d="M13.4913724,5.58586552 C10.9782,5.58276207 8.72447586,5.19731379 6.54275172,4.40903793 C4.48951034,3.66700345 2.61409655,2.60748621 0.916510345,1.23421034 C0.651475862,1.01945172 0.393268966,0.796624138 0.137855172,0.571003448 C0.129786207,0.563865517 0.121717241,0.557037931 0.114268966,0.549589655 C-0.00676551724,0.431658621 -0.0337655172,0.295417241 0.0435103448,0.192693103 C0.116441379,0.0955551724 0.256406897,0.0763137931 0.398234483,0.152658621 C0.694924138,0.313106897 0.986958621,0.481934483 1.2852,0.638968966 C3.08830345,1.58831379 4.98078621,2.3076931 6.95364828,2.81603793 C7.94395862,3.07083103 8.94606207,3.26758966 9.95902759,3.41034828 C11.3686138,3.60865862 12.7847172,3.69152069 14.2076483,3.66141724 C15.1576138,3.64124483 16.1026138,3.56117586 17.0438897,3.4326931 C19.1443034,3.14624483 21.1817172,2.61803793 23.1555103,1.84527931 C23.3547517,1.76707241 23.5518207,1.68327931 23.7504414,1.60321034 C23.8497517,1.56286552 23.9515448,1.54548621 24.0595448,1.56938276 C24.3612,1.63517586 24.4698207,1.95545172 24.2646828,2.18665862 C24.1514069,2.3139 24.0030621,2.39862414 23.8646483,2.49452069 C22.5310966,3.41686552 21.0734069,4.0841069 19.536269,4.58500345 C18.3110276,4.98441724 17.0578552,5.26217586 15.7801655,5.42696897 C14.9565103,5.5331069 14.129131,5.59238276 13.4913724,5.58586552" id="Fill-3" fill="#FE9A01" mask="url(#mask-7)"></path>
                    </g>
                    <path d="M4.67655517,4.49953448 C4.31034828,4.49022414 4.02607241,4.4982931 3.74614138,4.55912069 C3.2679,4.66339655 2.89300345,4.89956897 2.73038276,5.38774138 C2.64627931,5.63881034 2.64721034,5.89794828 2.67917586,6.15894828 C2.73938276,6.64867241 3.06431379,7.02077586 3.5496931,7.1027069 C4.17162414,7.2072931 4.7619,7.09432759 5.29383103,6.75015517 C5.67276207,6.50498276 5.93438276,6.16701724 6.01538276,5.70801724 C6.07093448,5.39456897 6.07714138,5.07956897 6.07621034,4.76332759 C6.0759,4.70746552 6.05107241,4.69412069 6.00327931,4.68294828 C5.53993448,4.57494828 5.0706931,4.51412069 4.67655517,4.49953448 M6.15379655,7.08253448 C5.99396897,7.25601724 5.83693448,7.42081034 5.65972759,7.56574138 C5.00117586,8.10481034 4.24083103,8.32981034 3.39762414,8.30032759 C2.98517586,8.28574138 2.58731379,8.20753448 2.22421034,8.00363793 C1.54548621,7.62253448 1.19634828,7.02698276 1.12031379,6.26446552 C1.06879655,5.75115517 1.12683103,5.2515 1.37758966,4.79187931 C1.7199,4.16498276 2.26424483,3.78946552 2.93738276,3.59053448 C3.51648621,3.41953448 4.10862414,3.41332759 4.70448621,3.47167241 C5.13183103,3.51356897 5.55265862,3.59177586 5.9706931,3.68674138 C6.00358966,3.69418966 6.0579,3.72832759 6.05665862,3.64701724 C6.04983103,3.23643103 6.08055517,2.8242931 6.00017586,2.41681034 C5.8571069,1.69308621 5.49214138,1.36505172 4.75879655,1.26418966 C3.94414138,1.15215517 3.17231379,1.31322414 2.41445172,1.59036207 C2.25648621,1.64808621 2.10100345,1.7145 1.94055517,1.76415517 C1.73479655,1.82777586 1.63765862,1.7567069 1.6299,1.54163793 C1.6236931,1.36598276 1.63052069,1.19032759 1.62896897,1.01467241 C1.62741724,0.825362069 1.71772759,0.698431034 1.88221034,0.611224138 C2.15624483,0.465672414 2.44455517,0.357672414 2.74031379,0.267051724 C3.60555517,0.00232758621 4.48538276,-0.0575689655 5.37762414,0.0876724138 C5.82296897,0.160293103 6.24255517,0.305844828 6.6041069,0.586086207 C7.10903793,0.9765 7.34086552,1.51898276 7.44948621,2.12725862 C7.50007241,2.41153448 7.51434828,2.69922414 7.51403793,2.98815517 C7.51279655,3.88474138 7.51031379,4.78101724 7.5159,5.67760345 C7.51714138,5.88708621 7.54072759,6.09687931 7.56741724,6.30512069 C7.60931379,6.63067241 7.75983103,6.91867241 7.90600345,7.20667241 C8.02052069,7.43167241 7.98917586,7.56543103 7.7796931,7.7085 C7.61117586,7.82332759 7.44141724,7.93598276 7.27072759,8.0477069 C7.04293448,8.19636207 6.88621034,8.1737069 6.70527931,7.97198276 C6.52776207,7.7742931 6.38934828,7.55146552 6.27079655,7.31498276 C6.23324483,7.24018966 6.1956931,7.1657069 6.15379655,7.08253448" id="Fill-6" fill="#FFFFFF"></path>
                    <path d="M22.797031,0.00226551724 C23.3925828,-0.000527586207 23.9707552,0.103437931 24.5324793,0.298334483 C24.6249621,0.330610345 24.7134103,0.374368966 24.8015483,0.416886207 C25.0665828,0.543817241 25.2022034,0.746472414 25.1758241,1.04874828 C25.164031,1.18157586 25.1845138,1.31564483 25.164031,1.44878276 C25.1398241,1.60923103 25.0473414,1.66943793 24.8875138,1.63281724 C24.7528241,1.6020931 24.6324103,1.53505862 24.505169,1.48540345 C23.7535138,1.19243793 22.9807552,1.11764483 22.1875138,1.26878276 C22.0804448,1.28895517 21.9786517,1.32743793 21.8787207,1.37119655 C21.5419966,1.51861034 21.3542379,1.77247241 21.3275483,2.14023103 C21.3027207,2.48285172 21.4262379,2.75781724 21.7102034,2.95674828 C22.0165138,3.17119655 22.3681345,3.2823 22.7182034,3.39805862 C23.2274793,3.56626552 23.7494793,3.69692069 24.2451,3.90516207 C24.7332724,4.1103 25.1438586,4.40823103 25.3936862,4.89392069 C25.8533069,5.78771379 25.5978931,6.94343793 24.7947207,7.61067931 C24.3549621,7.97595517 23.8385483,8.17054138 23.2858241,8.26581724 C22.2629276,8.44271379 21.2710655,8.29592069 20.3071345,7.93064483 C20.1985138,7.88967931 20.0985828,7.83071379 19.9998931,7.76926552 C19.8391345,7.66933448 19.7643414,7.52254138 19.7603069,7.3385069 C19.7565828,7.18023103 19.7562724,7.02195517 19.7599966,6.86398966 C19.7655828,6.6365069 19.8819621,6.55116207 20.1004448,6.62192069 C20.3639276,6.70726552 20.6115828,6.83543793 20.8784793,6.91271379 C21.5581345,7.10916207 22.248031,7.18892069 22.9525138,7.08992069 C23.2225138,7.05205862 23.4773069,6.97012759 23.7094448,6.82023103 C24.2655828,6.46085172 24.3332379,5.54316207 23.6421,5.17881724 C23.3764448,5.03885172 23.0949621,4.94419655 22.8113069,4.85202414 C22.2976862,4.68536897 21.7701,4.5603 21.2729276,4.34585172 C20.6084793,4.05971379 20.1352034,3.59047241 19.9297552,2.88536897 C19.6889276,2.06078276 19.980031,1.19647241 20.6578241,0.660506897 C21.1959621,0.234713793 21.8166517,0.0447827586 22.4913414,0.00319655172 C22.5928241,-0.00332068966 22.6949276,0.00226551724 22.797031,0.00226551724" id="Fill-8" fill="#FFFFFF"></path>
                    <path d="M24.8470138,9.94298276 C25.3137724,9.95322414 25.7650138,9.9827069 26.2057034,10.1049828 C26.6262207,10.2219828 26.7221172,10.337431 26.7211929,10.7725345 C26.7196345,11.5428103 26.5200828,12.2711897 26.2233931,12.9753621 C25.9450138,13.6363966 25.5688759,14.232569 25.0285655,14.7151552 C24.9655655,14.7713276 24.9025655,14.8268793 24.8203241,14.855431 C24.7501862,14.8796379 24.6812897,14.8892586 24.6226345,14.8337069 C24.5677034,14.7812586 24.5658414,14.7129828 24.5903586,14.6471897 C24.6629793,14.4535345 24.7399448,14.2617414 24.8141172,14.0687069 C25.0462552,13.4663276 25.2697034,12.8605345 25.4037724,12.2268103 C25.4552897,11.9831897 25.4999793,11.7380172 25.4608759,11.4857069 C25.4348069,11.3178103 25.348531,11.2036034 25.1930483,11.136569 C24.9494276,11.0310517 24.6902897,11.0068448 24.430531,10.9953621 C23.8002207,10.967431 23.1730138,11.0180172 22.5470483,11.0866034 C22.3481172,11.1083276 22.1494966,11.1340862 21.9505655,11.1555 C21.863669,11.1651207 21.7727379,11.1589138 21.730531,11.0695345 C21.6892552,10.9829483 21.7317724,10.9038103 21.7926,10.8398793 C21.9154966,10.7107759 22.0728414,10.6288448 22.2264621,10.5447414 C22.7760828,10.2443276 23.3700828,10.085431 23.9870483,10.0016379 C24.2766,9.96222414 24.5680138,9.95074138 24.8470138,9.94298276" id="Fill-10" fill="#FE9A01"></path>
                </g>
                <path d="M130,160 L130,203.672252 C130,207.814388 126.642136,211.172252 122.5,211.172252 L84.5,211.172252 C80.3578644,211.172252 77,214.530116 77,218.672252 L77,234.5 L77,234.5" id="Path-4" stroke="url(#linearGradient-8)" stroke-width="0.5"></path>
                <path d="M213,160 L213,203.672252 C213,207.814388 209.642136,211.172252 205.5,211.172252 L167.5,211.172252 C163.357864,211.172252 160,214.530116 160,218.672252 L160,234.5 L160,234.5" id="Path-4-Copy-3" stroke="url(#linearGradient-9)" stroke-width="0.5" transform="translate(186.500000, 197.250000) scale(-1, 1) translate(-186.500000, -197.250000) "></path>
                <path d="M174,183 C174,184.242641 173.49632,185.367641 172.681981,186.181981 C171.867641,186.99632 170.742641,187.5 169.5,187.5 L119.5,187.5 C118.257359,187.5 117.132359,186.99632 116.318019,186.181981 C115.50368,185.367641 115,184.242641 115,183 L115,77 C115,75.7573593 115.50368,74.6323593 116.318019,73.8180195 C117.132359,73.0036797 118.257359,72.5 119.5,72.5 L153.545461,72.5 L169.5,72.5 C170.742641,72.5 171.867641,73.0036797 172.681981,73.8180195 C173.49632,74.6323593 174,75.7573593 174,77 L174,183 Z" id="Rectangle-Copy-38" stroke="url(#linearGradient-11)" fill="url(#linearGradient-10)" transform="translate(144.500000, 130.000000) rotate(90.000000) translate(-144.500000, -130.000000) "></path>
                <text id="Internal-Cloud-Platf" font-family="Avenir-Light, Avenir" font-size="8" font-weight="300" line-spacing="16" fill="#FFFFFF">
                    <tspan x="103.47" y="138.5">Internal Cloud Platform</tspan>
                </text>
                <g id="Group-5-Copy-6" opacity="0.603376116" transform="translate(145.250000, 175.750000) rotate(-90.000000) translate(-145.250000, -175.750000) translate(143.250000, 172.750000)">
                    <mask id="mask-13" fill="white">
                        <use xlink:href="#path-12"></use>
                    </mask>
                    <g id="Clip-4"></g>
                    <path d="M4,0.429053493 L4,5.0709783 C4,5.38958314 3.75602305,5.59676555 3.54870463,5.4540994 L0.172165243,3.1298909 C-0.0575260937,2.97180577 -0.0573489994,2.52108461 0.1724604,2.36340524 L3.54905882,0.0456889333 C3.75631821,-0.0965714546 4,0.110610959 4,0.429053493" id="Fill-3" fill="#4AC0D6" mask="url(#mask-13)"></path>
                </g>
                <g id="Group-5-Copy-15" opacity="0.603376116" transform="translate(145.250000, 194.750000) rotate(-90.000000) translate(-145.250000, -194.750000) translate(143.250000, 191.750000)">
                    <mask id="mask-15" fill="white">
                        <use xlink:href="#path-14"></use>
                    </mask>
                    <g id="Clip-4"></g>
                    <path d="M4,0.429053493 L4,5.0709783 C4,5.38958314 3.75602305,5.59676555 3.54870463,5.4540994 L0.172165243,3.1298909 C-0.0575260937,2.97180577 -0.0573489994,2.52108461 0.1724604,2.36340524 L3.54905882,0.0456889333 C3.75631821,-0.0965714546 4,0.110610959 4,0.429053493" id="Fill-3" fill="#4AC0D6" mask="url(#mask-15)"></path>
                </g>
                <g id="Group-5-Copy-15" opacity="0.603376116" transform="translate(145.250000, 214.250000) rotate(-90.000000) translate(-145.250000, -214.250000) translate(143.250000, 211.250000)">
                    <mask id="mask-17" fill="white">
                        <use xlink:href="#path-16"></use>
                    </mask>
                    <g id="Clip-4"></g>
                    <path d="M4,0.429053493 L4,5.0709783 C4,5.38958314 3.75602305,5.59676555 3.54870463,5.4540994 L0.172165243,3.1298909 C-0.0575260937,2.97180577 -0.0573489994,2.52108461 0.1724604,2.36340524 L3.54905882,0.0456889333 C3.75631821,-0.0965714546 4,0.110610959 4,0.429053493" id="Fill-3" fill="#4AC0D6" mask="url(#mask-17)"></path>
                </g>
                <g id="Group-5-Copy-15" opacity="0.603376116" transform="translate(145.250000, 232.750000) rotate(-90.000000) translate(-145.250000, -232.750000) translate(143.250000, 229.750000)">
                    <mask id="mask-19" fill="white">
                        <use xlink:href="#path-18"></use>
                    </mask>
                    <g id="Clip-4"></g>
                    <path d="M4,0.429053493 L4,5.0709783 C4,5.38958314 3.75602305,5.59676555 3.54870463,5.4540994 L0.172165243,3.1298909 C-0.0575260937,2.97180577 -0.0573489994,2.52108461 0.1724604,2.36340524 L3.54905882,0.0456889333 C3.75631821,-0.0965714546 4,0.110610959 4,0.429053493" id="Fill-3" fill="#4AC0D6" mask="url(#mask-19)"></path>
                </g>
                <g id="Group-5-Copy-16" opacity="0.603376116" transform="translate(144.750000, 95.750000) rotate(-90.000000) translate(-144.750000, -95.750000) translate(142.750000, 92.750000)">
                    <mask id="mask-21" fill="white">
                        <use xlink:href="#path-20"></use>
                    </mask>
                    <g id="Clip-4"></g>
                    <path d="M4,0.429053493 L4,5.0709783 C4,5.38958314 3.75602305,5.59676555 3.54870463,5.4540994 L0.172165243,3.1298909 C-0.0575260937,2.97180577 -0.0573489994,2.52108461 0.1724604,2.36340524 L3.54905882,0.0456889333 C3.75631821,-0.0965714546 4,0.110610959 4,0.429053493" id="Fill-3" fill="#4AC0D6" mask="url(#mask-21)"></path>
                </g>
                <g id="Group-5-Copy-17" opacity="0.603376116" transform="translate(103.250000, 95.750000) rotate(-90.000000) translate(-103.250000, -95.750000) translate(101.250000, 92.750000)">
                    <mask id="mask-23" fill="white">
                        <use xlink:href="#path-22"></use>
                    </mask>
                    <g id="Clip-4"></g>
                    <path d="M4,0.429053493 L4,5.0709783 C4,5.38958314 3.75602305,5.59676555 3.54870463,5.4540994 L0.172165243,3.1298909 C-0.0575260937,2.97180577 -0.0573489994,2.52108461 0.1724604,2.36340524 L3.54905882,0.0456889333 C3.75631821,-0.0965714546 4,0.110610959 4,0.429053493" id="Fill-3" fill="#FAAD13" mask="url(#mask-23)"></path>
                </g>
                <g id="Group-5-Copy-18" opacity="0.603376116" transform="translate(187.250000, 95.750000) rotate(-90.000000) translate(-187.250000, -95.750000) translate(185.250000, 92.750000)">
                    <mask id="mask-25" fill="white">
                        <use xlink:href="#path-24"></use>
                    </mask>
                    <g id="Clip-4"></g>
                    <path d="M4,0.429053493 L4,5.0709783 C4,5.38958314 3.75602305,5.59676555 3.54870463,5.4540994 L0.172165243,3.1298909 C-0.0575260937,2.97180577 -0.0573489994,2.52108461 0.1724604,2.36340524 L3.54905882,0.0456889333 C3.75631821,-0.0965714546 4,0.110610959 4,0.429053493" id="Fill-3" fill="#6D64F5" mask="url(#mask-25)"></path>
                </g>
                <g id="Group-5" transform="translate(74.000000, 172.500000)" opacity="0.603376116">
                    <g id="Group-5-Copy-6" transform="translate(56.266667, 21.766667) rotate(-90.000000) translate(-56.266667, -21.766667) translate(53.766667, 18.766667)">
                        <mask id="mask-27" fill="white">
                            <use xlink:href="#path-26"></use>
                        </mask>
                        <g id="Clip-4"></g>
                        <path d="M4.03333333,0.429053493 L4.03333333,5.0709783 C4.03333333,5.38958314 3.78732325,5.59676555 3.57827717,5.4540994 L0.173599953,3.1298909 C-0.0580054778,2.97180577 -0.0578269077,2.52108461 0.17389757,2.36340524 L3.57863431,0.0456889333 C3.78762086,-0.0965714546 4.03333333,0.110610959 4.03333333,0.429053493" id="Fill-3" fill="#FAAD13" mask="url(#mask-27)"></path>
                    </g>
                    <g id="Group-5-Copy-8" transform="translate(37.000000, 36.000000)">
                        <mask id="mask-29" fill="white">
                            <use xlink:href="#path-28"></use>
                        </mask>
                        <g id="Clip-4"></g>
                        <path d="M4.03333333,0.429053493 L4.03333333,5.0709783 C4.03333333,5.38958314 3.78732325,5.59676555 3.57827717,5.4540994 L0.173599953,3.1298909 C-0.0580054778,2.97180577 -0.0578269077,2.52108461 0.17389757,2.36340524 L3.57863431,0.0456889333 C3.78762086,-0.0965714546 4.03333333,0.110610959 4.03333333,0.429053493" id="Fill-3" fill="#FAAD13" mask="url(#mask-29)"></path>
                    </g>
                    <g id="Group-5-Copy-8" transform="translate(18.000000, 36.000000)">
                        <mask id="mask-31" fill="white">
                            <use xlink:href="#path-30"></use>
                        </mask>
                        <g id="Clip-4"></g>
                        <path d="M4.03333333,0.429053493 L4.03333333,5.0709783 C4.03333333,5.38958314 3.78732325,5.59676555 3.57827717,5.4540994 L0.173599953,3.1298909 C-0.0580054778,2.97180577 -0.0578269077,2.52108461 0.17389757,2.36340524 L3.57863431,0.0456889333 C3.78762086,-0.0965714546 4.03333333,0.110610959 4.03333333,0.429053493" id="Fill-3" fill="#FAAD13" mask="url(#mask-31)"></path>
                    </g>
                    <g id="Group-5-Copy-6" transform="translate(56.266667, 2.766667) rotate(-90.000000) translate(-56.266667, -2.766667) translate(53.766667, -0.233333)">
                        <mask id="mask-33" fill="white">
                            <use xlink:href="#path-32"></use>
                        </mask>
                        <g id="Clip-4"></g>
                        <path d="M4.03333333,0.429053493 L4.03333333,5.0709783 C4.03333333,5.38958314 3.78732325,5.59676555 3.57827717,5.4540994 L0.173599953,3.1298909 C-0.0580054778,2.97180577 -0.0578269077,2.52108461 0.17389757,2.36340524 L3.57863431,0.0456889333 C3.78762086,-0.0965714546 4.03333333,0.110610959 4.03333333,0.429053493" id="Fill-3" fill="#FAAD13" mask="url(#mask-33)"></path>
                    </g>
                    <g id="Group-5-Copy-6" transform="translate(3.266667, 51.766667) rotate(-90.000000) translate(-3.266667, -51.766667) translate(0.766667, 48.766667)">
                        <mask id="mask-35" fill="white">
                            <use xlink:href="#path-34"></use>
                        </mask>
                        <g id="Clip-4"></g>
                        <path d="M4.03333333,0.429053493 L4.03333333,5.0709783 C4.03333333,5.38958314 3.78732325,5.59676555 3.57827717,5.4540994 L0.173599953,3.1298909 C-0.0580054778,2.97180577 -0.0578269077,2.52108461 0.17389757,2.36340524 L3.57863431,0.0456889333 C3.78762086,-0.0965714546 4.03333333,0.110610959 4.03333333,0.429053493" id="Fill-3" fill="#FAAD13" mask="url(#mask-35)"></path>
                    </g>
                </g>
                <g id="Group-5-Copy" transform="translate(186.000000, 200.000000) scale(-1, 1) translate(-186.000000, -200.000000) translate(156.000000, 172.500000)" opacity="0.603376116">
                    <g id="Group-5-Copy-6" transform="translate(56.266667, 21.766667) rotate(-90.000000) translate(-56.266667, -21.766667) translate(53.766667, 18.766667)">
                        <mask id="mask-37" fill="white">
                            <use xlink:href="#path-36"></use>
                        </mask>
                        <g id="Clip-4"></g>
                        <path d="M4.03333333,0.429053493 L4.03333333,5.0709783 C4.03333333,5.38958314 3.78732325,5.59676555 3.57827717,5.4540994 L0.173599953,3.1298909 C-0.0580054778,2.97180577 -0.0578269077,2.52108461 0.17389757,2.36340524 L3.57863431,0.0456889333 C3.78762086,-0.0965714546 4.03333333,0.110610959 4.03333333,0.429053493" id="Fill-3" fill="#4A459C" mask="url(#mask-37)"></path>
                    </g>
                    <g id="Group-5-Copy-8" transform="translate(37.000000, 36.000000)">
                        <mask id="mask-39" fill="white">
                            <use xlink:href="#path-38"></use>
                        </mask>
                        <g id="Clip-4"></g>
                        <path d="M4.03333333,0.429053493 L4.03333333,5.0709783 C4.03333333,5.38958314 3.78732325,5.59676555 3.57827717,5.4540994 L0.173599953,3.1298909 C-0.0580054778,2.97180577 -0.0578269077,2.52108461 0.17389757,2.36340524 L3.57863431,0.0456889333 C3.78762086,-0.0965714546 4.03333333,0.110610959 4.03333333,0.429053493" id="Fill-3" fill="#4A459C" mask="url(#mask-39)"></path>
                    </g>
                    <g id="Group-5-Copy-8" transform="translate(18.000000, 36.000000)">
                        <mask id="mask-41" fill="white">
                            <use xlink:href="#path-40"></use>
                        </mask>
                        <g id="Clip-4"></g>
                        <path d="M4.03333333,0.429053493 L4.03333333,5.0709783 C4.03333333,5.38958314 3.78732325,5.59676555 3.57827717,5.4540994 L0.173599953,3.1298909 C-0.0580054778,2.97180577 -0.0578269077,2.52108461 0.17389757,2.36340524 L3.57863431,0.0456889333 C3.78762086,-0.0965714546 4.03333333,0.110610959 4.03333333,0.429053493" id="Fill-3" fill="#4A459C" mask="url(#mask-41)"></path>
                    </g>
                    <g id="Group-5-Copy-6" transform="translate(56.266667, 2.766667) rotate(-90.000000) translate(-56.266667, -2.766667) translate(53.766667, -0.233333)">
                        <mask id="mask-43" fill="white">
                            <use xlink:href="#path-42"></use>
                        </mask>
                        <g id="Clip-4"></g>
                        <path d="M4.03333333,0.429053493 L4.03333333,5.0709783 C4.03333333,5.38958314 3.78732325,5.59676555 3.57827717,5.4540994 L0.173599953,3.1298909 C-0.0580054778,2.97180577 -0.0578269077,2.52108461 0.17389757,2.36340524 L3.57863431,0.0456889333 C3.78762086,-0.0965714546 4.03333333,0.110610959 4.03333333,0.429053493" id="Fill-3" fill="#4A459C" mask="url(#mask-43)"></path>
                    </g>
                    <g id="Group-5-Copy-6" transform="translate(3.266667, 51.766667) rotate(-90.000000) translate(-3.266667, -51.766667) translate(0.766667, 48.766667)">
                        <mask id="mask-45" fill="white">
                            <use xlink:href="#path-44"></use>
                        </mask>
                        <g id="Clip-4"></g>
                        <path d="M4.03333333,0.429053493 L4.03333333,5.0709783 C4.03333333,5.38958314 3.78732325,5.59676555 3.57827717,5.4540994 L0.173599953,3.1298909 C-0.0580054778,2.97180577 -0.0578269077,2.52108461 0.17389757,2.36340524 L3.57863431,0.0456889333 C3.78762086,-0.0965714546 4.03333333,0.110610959 4.03333333,0.429053493" id="Fill-3" fill="#4A459C" mask="url(#mask-45)"></path>
                    </g>
                </g>
                <g id="Logo-white" transform="translate(115.500000, 114.000000)">
                    <path d="M7.46666667,5.67699145 L7.43793636,8.56344833 C7.43793636,11.3376174 4.83969725,11.9 3.93515601,11.9 C2.05424776,11.9 0.466666667,10.7223935 0.466666667,8.56344833 L0.466666667,5.51327773 C0.466666667,4.83860735 0.845257955,4.43333333 1.45786222,4.43333333 C2.08529503,4.43333333 2.46434971,4.83860735 2.46434971,5.51327773 L2.46434971,8.33179578 C2.46434971,9.4263659 3.00234785,10.0255487 3.93515601,10.0255487 C4.92774174,10.0255487 5.46852023,9.51600741 5.46852023,8.33179578 L5.46852023,5.67699145 C5.46852023,5.00232108 5.84757492,4.59799065 6.47454433,4.59799065 C7.08761199,4.59799065 7.46666667,5.00232108 7.46666667,5.67699145" id="Fill-1" fill="#FFFFFF"></path>
                    <path d="M41.5333333,5.51240232 L41.504603,8.56370932 C41.504603,11.3375819 38.9063639,11.9 38.0027495,11.9 C36.1213778,11.9 34.5333333,10.7223191 34.5333333,8.56370932 L34.5333333,5.51240232 C34.5333333,4.83768931 34.9119246,4.43333333 35.5249923,4.43333333 C36.1524251,4.43333333 36.5310164,4.83768931 36.5310164,5.51240232 L36.5310164,8.3315703 C36.5310164,9.42620958 37.0690145,10.0254302 38.0027495,10.0254302 C38.9944084,10.0254302 39.5351869,9.51585677 39.5351869,8.3315703 L39.5351869,5.51240232 C39.5351869,4.83768931 39.914705,4.43333333 40.5416744,4.43333333 C41.154742,4.43333333 41.5333333,4.83768931 41.5333333,5.51240232" id="Fill-3" fill="#FFFFFF"></path>
                    <g id="Group-7" transform="translate(8.633333, 4.666667)">
                        <mask id="mask-47" fill="white">
                            <use xlink:href="#path-46"></use>
                        </mask>
                        <g id="Clip-6"></g>
                        <path d="M7.69234667,3.77416356 C7.69234667,5.99313244 6.34088,7.42864059 4.29921333,7.42864059 C3.37428,7.42864059 2.62528,7.10968948 2.12548,6.55848356 L2.09654667,6.55848356 L2.09654667,8.9795917 C2.09654667,9.63209541 1.71434667,10.0386554 1.08341333,10.0386554 C0.46648,10.0386554 0.08428,9.63209541 0.08428,8.9795917 L0.08428,1.25130133 C0.08428,0.598341333 0.46648,0.207751704 1.08341333,0.207751704 C1.62614667,0.207751704 1.99388,0.497499852 2.08161333,1.00490133 L2.11101333,1.00490133 C2.60988,0.439093926 3.35934667,0.120142815 4.29921333,0.120142815 C6.34088,0.120142815 7.69234667,1.55565096 7.69234667,3.77416356 M5.63621333,3.77416356 C5.63621333,2.672208 4.91614667,1.933008 3.88808,1.933008 C2.84508,1.933008 2.09654667,2.70141096 2.09654667,3.77416356 C2.09654667,4.84737244 2.84508,5.61577541 3.88808,5.61577541 C4.91614667,5.61577541 5.63621333,4.86197393 5.63621333,3.77416356" id="Fill-5" fill="#FFFFFF" mask="url(#mask-47)"></path>
                    </g>
                    <path d="M24.9666667,8.21439278 C24.9666667,10.4522637 23.6402364,11.9 21.6368503,11.9 C20.714395,11.9 19.9792704,11.5783319 19.4891874,10.9934391 L19.4603321,10.9934391 C19.373766,11.5047026 19.012845,11.8116448 18.4943647,11.8116448 C17.8746616,11.8116448 17.5,11.402542 17.5,10.74448 L17.5,2.46762502 C17.5,1.80910286 17.8746616,1.4 18.4943647,1.4 C19.0998691,1.4 19.4749888,1.80910286 19.4749888,2.46762502 L19.4749888,5.42154096 L19.5033861,5.42154096 C19.9792704,4.85091379 20.714395,4.52924574 21.6368503,4.52924574 C23.6402364,4.52924574 24.9666667,5.97698207 24.9666667,8.21439278 M22.9486239,8.21439278 C22.9486239,7.10305036 22.2418967,6.35755358 21.2337914,6.35755358 C20.2101133,6.35755358 19.4749888,7.13250208 19.4749888,8.21439278 C19.4749888,9.29674366 20.2101133,10.0716922 21.2337914,10.0716922 C22.2418967,10.0716922 22.9486239,9.31146952 22.9486239,8.21439278" id="Fill-8" fill="#FFFFFF"></path>
                    <path d="M29.3924864,4.43333333 C31.6137708,4.43333333 33.1333333,5.94428904 33.1333333,8.16666667 C33.1333333,10.3741259 31.6137708,11.9 29.3924864,11.9 C27.1853185,11.9 25.6666667,10.3741259 25.6666667,8.16666667 C25.6666667,5.94428904 27.1853185,4.43333333 29.3924864,4.43333333 M29.3924864,10.0482517 C30.42435,10.0482517 31.1265272,9.27855478 31.1265272,8.16666667 C31.1265272,7.04125874 30.42435,6.28508159 29.3924864,6.28508159 C28.3747393,6.28508159 27.6725621,7.04125874 27.6725621,8.16666667 C27.6725621,9.27855478 28.3747393,10.0482517 29.3924864,10.0482517" id="Fill-10" fill="#FFFFFF"></path>
                    <path d="M49.7,7.76186444 L49.7,10.8054299 C49.7,11.4801003 49.3237252,11.9 48.7001316,11.9 C48.0912757,11.9 47.7145404,11.4801003 47.7145404,10.8054299 L47.7145404,8.00200935 C47.7145404,6.89234172 47.2212843,6.30778466 46.2651688,6.30778466 C45.2648398,6.30778466 44.684999,7.01217827 44.684999,8.1968617 L44.684999,10.8054299 C44.684999,11.4801003 44.3087243,11.9 43.6851306,11.9 C43.0762748,11.9 42.7,11.4801003 42.7,10.8054299 L42.7,5.61754497 C42.7,4.94334639 43.0762748,4.52391845 43.6851306,4.52391845 C44.2064807,4.52391845 44.5689387,4.82350984 44.6711823,5.33352289 L44.6997368,5.33352289 C45.1782551,4.74802224 45.8736956,4.43333333 46.78744,4.43333333 C48.6858543,4.43333333 49.7,5.60291925 49.7,7.76186444" id="Fill-12" fill="#FFFFFF"></path>
                    <path d="M58.1,2.46721161 L58.1,10.7444293 C58.1,11.4025202 57.7253844,11.8121012 57.1052993,11.8121012 C56.5859666,11.8121012 56.2255479,11.5051455 56.1394504,10.9933994 L56.1110566,10.9933994 C55.6210337,11.5783178 54.8855414,11.9 53.9631992,11.9 C51.9596009,11.9 50.6333333,10.4526604 50.6333333,8.21423124 C50.6333333,5.97672248 51.9596009,4.52892269 53.9631992,4.52892269 C54.8855414,4.52892269 55.6210337,4.85106504 56.0954858,5.42125701 L56.1252535,5.42125701 L56.1252535,2.46721161 C56.1252535,1.80866059 56.4998692,1.4 57.1052993,1.4 C57.7253844,1.4 58.1,1.80866059 58.1,2.46721161 M56.1252535,8.21423124 C56.1252535,7.13275333 55.3902192,6.35731066 54.3666667,6.35731066 C53.3577691,6.35731066 52.6520445,7.10284011 52.6520445,8.21423124 C52.6520445,9.31135607 53.3577691,10.071612 54.3666667,10.071612 C55.3902192,10.071612 56.1252535,9.29662956 56.1252535,8.21423124" id="Fill-14" fill="#FFFFFF"></path>
                    <path d="M3.26666667,1.63308575 C3.26666667,2.53479865 2.53590568,3.26666667 1.63258307,3.26666667 C0.730760986,3.26666667 0,2.53479865 0,1.63308575 C0,0.731372846 0.730760986,0 1.63258307,0 C2.53590568,0 3.26666667,0.731372846 3.26666667,1.63308575" id="Fill-16" fill="#FFFFFF"></path>
                </g>
                <g id="Group-31" transform="translate(12.500000, 75.000000)">
                    <path d="M48.5,124.5 L5,124.5 C3.75735931,124.5 2.63235931,123.99632 1.81801948,123.181981 C1.00367966,122.367641 0.5,121.242641 0.5,120 L0.5,70 C0.5,68.7573593 1.00367966,67.6323593 1.81801948,66.8180195 C2.63235931,66.0036797 3.75735931,65.5 5,65.5 L48.5,65.5 C49.7426407,65.5 50.8676407,66.0036797 51.6819805,66.8180195 C52.4963203,67.6323593 53,68.7573593 53,70 L53,104.767818 L53,120 C53,121.242641 52.4963203,122.367641 51.6819805,123.181981 C50.8676407,123.99632 49.7426407,124.5 48.5,124.5 Z" id="Rectangle-Copy-29" stroke-opacity="0.35" stroke="#C8C3FF" fill="#1B3549"></path>
                    <path d="M48.5,59.5 L5,59.5 C3.75735931,59.5 2.63235931,58.9963203 1.81801948,58.1819805 C1.00367966,57.3676407 0.5,56.2426407 0.5,55 L0.5,5 C0.5,3.75735931 1.00367966,2.63235931 1.81801948,1.81801948 C2.63235931,1.00367966 3.75735931,0.5 5,0.5 L48.5,0.5 C49.7426407,0.5 50.8676407,1.00367966 51.6819805,1.81801948 C52.4963203,2.63235931 53,3.75735931 53,5 L53,39.7678176 L53,55 C53,56.2426407 52.4963203,57.3676407 51.6819805,58.1819805 C50.8676407,58.9963203 49.7426407,59.5 48.5,59.5 Z" id="Rectangle-Copy-52" stroke-opacity="0.35" stroke="#C8C3FF" fill="#1B3549"></path>
                    <g id="Group-32-Copy-2" transform="translate(18.000000, 10.000000)">
                        <path d="M13.9963656,8.34227778 C13.9963656,12.2975521 11.5352615,15.2088021 8.49928576,15.2088021 C5.4633691,15.2088021 3.00226493,12.2975521 3.00226493,8.34227778 C3.00226493,4.38694444 5.4633691,1.18055556 8.49928576,1.18055556 C11.5352615,1.18055556 13.9963656,4.38694444 13.9963656,8.34227778" id="Fill-1" fill="#263B67"></path>
                        <path d="M12.3933955,9.39007986 C12.3933955,9.39007986 13.1107601,6.77627083 12.0856837,4.72334375 L11.034458,4.51828125 L11.5729094,8.01828125 L12.3933955,9.39007986 Z" id="Fill-3" fill="#2FD3BC"></path>
                        <g id="Group-7" transform="translate(0.000000, 11.792983)">
                            <mask id="mask-49" fill="white">
                                <use xlink:href="#path-48"></use>
                            </mask>
                            <g id="Clip-6"></g>
                            <path d="M16.8432458,6.33505 C16.4124611,4.29558125 14.8036,0.0645291667 8.87561736,0.00207777778 L8.87791944,0.000129861111 L8.74374931,0.000129861111 L8.25488125,0.000129861111 L8.12071111,0.000129861111 L8.12307222,0.00207777778 C2.19497153,0.0645291667 0.586169444,4.29558125 0.155325694,6.33505 C0.0551555556,6.67268889 -3.54166667e-05,7.03447014 -3.54166667e-05,7.41118542 L-3.54166667e-05,7.41968542 C-3.54166667e-05,9.25515417 1.29007569,10.7430674 2.88140556,10.7430674 L14.117166,10.7430674 C15.7085549,10.7430674 16.9986069,9.25515417 16.9986069,7.41968542 L16.9986069,7.41118542 C16.9986069,7.03447014 16.943416,6.67268889 16.8432458,6.33505" id="Fill-5" fill="#6553C0" mask="url(#mask-49)"></path>
                        </g>
                        <polygon id="Fill-8" fill="#BC821B" points="6.33584097 12.5246615 6.16277153 15.2362205 10.8358236 15.2362205 10.605084 12.6400608"></polygon>
                        <path d="M14.7562892,15.4475163 C14.8013274,15.3482316 14.8270045,15.2383219 14.8270045,15.1221552 C14.8270045,14.686058 14.4734281,14.3324816 14.0372719,14.3324816 L2.96129965,14.3324816 C2.5251434,14.3324816 2.17156701,14.686058 2.17156701,15.1221552 C2.17156701,15.2383219 2.1972441,15.3482316 2.24228229,15.4475163 L3.45117118,21.010058 L3.47507743,21.010058 C3.56019549,21.354308 3.8702684,21.6098392 4.24078576,21.6098392 L12.9077163,21.6098392 L12.9077163,21.5982698 C13.2192059,21.5465615 13.4685983,21.3130476 13.5435045,21.010058 L13.5474594,21.010058 L14.7562892,15.4475163 Z" id="Fill-10" fill="#E6E9EE"></path>
                        <path d="M10.2685076,17.6208247 C10.2685076,18.0881476 9.47641389,18.4669878 8.49926806,18.4669878 C7.52218125,18.4669878 6.7300875,18.0881476 6.7300875,17.6208247 C6.7300875,17.1535017 7.52218125,16.7746615 8.49926806,16.7746615 C9.47641389,16.7746615 10.2685076,17.1535017 10.2685076,17.6208247" id="Fill-12" fill="#CED5E1"></path>
                        <path d="M3.90624583,6.33239375 C3.23315208,7.89007778 4.367725,10.1208556 4.09855833,11.3515847 C3.82927361,12.5823729 2.75237083,13.8515882 2.75237083,13.8515882 C2.75237083,13.8515882 4.48312431,13.9285014 5.79088472,12.3900604" id="Fill-14" fill="#2FD3BC"></path>
                        <path d="M12.2477267,6.90958507 C12.0397719,6.65157465 11.9120358,6.32503299 11.9031226,5.99264757 C11.9026503,5.97724132 11.9015288,5.96230729 11.9008205,5.94707812 C11.8367753,5.61250868 11.7564385,5.28750174 11.7236191,4.94130382 C11.712876,4.82826562 11.7250948,4.71499132 11.7537233,4.60460937 C11.7067372,4.29075868 11.7147649,3.97171354 11.7878413,3.64853646 C11.814817,3.52930035 11.8577302,3.41944965 11.9133934,3.31916146 C11.0691781,2.27578646 9.85226146,1.62081424 8.49928576,1.62081424 C5.95028924,1.62081424 3.88396285,3.94550521 3.88396285,6.81313368 C3.88396285,9.68076215 5.95028924,12.0054531 8.49928576,12.0054531 C9.82847326,12.0054531 11.0260288,11.3729705 11.8680601,10.3614115 C11.8221955,10.2240538 11.7943934,10.0786094 11.7877233,9.92856076 C11.768008,9.4879184 11.9913691,9.08446354 12.3256434,8.81753993 C12.322751,8.33374826 12.2985497,7.85090104 12.2720462,7.36787674 C12.2636642,7.21511285 12.2554594,7.06234896 12.2477267,6.90958507" id="Fill-16" fill="#2FD3BC"></path>
                        <path d="M12.4403167,8.81328993 C12.4403167,11.5200087 10.6758583,13.7143073 8.49926806,13.7143073 C6.32273681,13.7143073 4.55827847,11.5200087 4.55827847,8.81328993 C4.55827847,6.10651215 6.32273681,3.91227257 8.49926806,3.91227257 C10.6758583,3.91227257 12.4403167,6.10651215 12.4403167,8.81328993" id="Fill-18" fill="#FAAD13"></path>
                        <path d="M12.1110538,5.89003368 C12.1110538,5.89003368 11.418717,6.50545729 11.3802899,7.27464826 C11.3802899,7.27464826 10.8802656,6.00543299 9.88033507,5.89003368 C9.88033507,5.89003368 9.84184896,7.1208809 8.95719965,7.15930799 C8.95719965,7.15930799 8.88034549,4.96695729 6.57265451,5.1977559 C6.57265451,5.1977559 6.84182118,7.35162049 5.22646701,7.31313437 C5.22646701,7.31313437 5.61109201,6.65928368 5.18803993,6.1593184 C5.18803993,6.1593184 4.76492882,6.39005799 4.68801563,7.31313437 L4.14956424,7.23622118 L4.07259201,5.12084271 L7.23718924,2.58241215 L11.2756337,3.39003021 L12.1110538,5.89003368 Z" id="Fill-20" fill="#2FD3BC"></path>
                        <g id="Group-24" transform="translate(2.951389, 0.046455)">
                            <mask id="mask-51" fill="white">
                                <use xlink:href="#path-50"></use>
                            </mask>
                            <g id="Clip-23"></g>
                            <path d="M5.54790278,3.50996285 C8.21306597,3.50996285 10.4470313,5.66518507 11.0432708,8.56498368 C11.0443333,8.49810521 11.0449826,8.43104965 11.0449826,8.36381701 C11.0449826,3.75156354 8.58387847,0.0125670139 5.54790278,0.0125670139 C2.51198611,0.0125670139 0.0508819444,3.75156354 0.0508819444,8.36381701 C0.0508819444,8.43104965 0.05153125,8.49810521 0.0525347222,8.56498368 C0.648833333,5.66518507 2.88279861,3.50996285 5.54790278,3.50996285" id="Fill-22" fill="#6553C0" mask="url(#mask-51)"></path>
                        </g>
                        <path d="M6.93395764,8.01866389 C6.43233958,8.01866389 6.02428056,8.42672292 6.02428056,8.92828194 C6.02428056,9.42984097 6.43233958,9.8379 6.93395764,9.8379 C7.43551667,9.8379 7.84357569,9.42984097 7.84357569,8.92828194 C7.84357569,8.42672292 7.43551667,8.01866389 6.93395764,8.01866389 M6.93395764,10.1330389 C6.2696,10.1330389 5.72914167,9.59258056 5.72914167,8.92828194 C5.72914167,8.26398333 6.2696,7.723525 6.93395764,7.723525 C7.59825625,7.723525 8.13871458,8.26398333 8.13871458,8.92828194 C8.13871458,9.59258056 7.59825625,10.1330389 6.93395764,10.1330389" id="Fill-25" fill="#263B67"></path>
                        <path d="M10.0646788,8.01866389 C9.56311979,8.01866389 9.15506076,8.42672292 9.15506076,8.92828194 C9.15506076,9.42984097 9.56311979,9.8379 10.0646788,9.8379 C10.5662378,9.8379 10.9742969,9.42984097 10.9742969,8.92828194 C10.9742969,8.42672292 10.5662378,8.01866389 10.0646788,8.01866389 M10.0646788,10.1330389 C9.40038021,10.1330389 8.85992188,9.59258056 8.85992188,8.92828194 C8.85992188,8.26398333 9.40038021,7.723525 10.0646788,7.723525 C10.7289774,7.723525 11.2694358,8.26398333 11.2694358,8.92828194 C11.2694358,9.59258056 10.7289774,10.1330389 10.0646788,10.1330389" id="Fill-27" fill="#263B67"></path>
                        <mask id="mask-53" fill="white">
                            <use xlink:href="#path-52"></use>
                        </mask>
                        <g id="Clip-30"></g>
                        <polygon id="Fill-29" fill="#263B67" mask="url(#mask-53)" points="7.99112153 9.075875 9.00746181 9.075875 9.00746181 8.78073611 7.99112153 8.78073611"></polygon>
                        <path d="M3.95639583,8.35126771 C3.95639583,8.35126771 3.90551389,10.4119274 3.09146181,11.2005976 C3.09146181,11.2005976 4.10904167,10.7426601 4.49065625,9.87766701 C4.87227083,9.01273299 3.95639583,8.35126771 3.95639583,8.35126771" id="Fill-31" fill="#2FD3BC" mask="url(#mask-53)"></path>
                    </g>
                    <text id="Operator" font-family="'Avenir-Black', 'Arial', sans-serif" font-size="7" font-weight="700" line-spacing="10" fill="#D3E7F7">
                        <tspan x="11.336" y="111">Operator</tspan>
                    </text>
                    <text id="Developer-Copy" font-family="'Avenir-Black', 'Arial', sans-serif" font-size="7" font-weight="700" line-spacing="10" fill="#D3E7F7">
                        <tspan x="9.446" y="46">Developer</tspan>
                    </text>
                    <g id="Group-30" transform="translate(18.000000, 76.500000)">
                        <path d="M3.91558993,7.51456667 C3.91558993,7.51456667 3.68290243,9.02260833 2.24162118,9.28427847 C2.24162118,9.28427847 3.68437813,11.2708583 7.25366979,11.3595181 L7.20237465,8.24538958 L3.91558993,7.51456667 Z" id="Fill-1" fill="#6553C0"></path>
                        <path d="M13.2363889,7.51456667 C13.2363889,7.51456667 13.4690764,9.02260833 14.9103576,9.28427847 C14.9103576,9.28427847 13.4675417,11.2708583 9.89830903,11.3595181 L9.94954514,8.24538958 L13.2363889,7.51456667 Z" id="Fill-3" fill="#6553C0"></path>
                        <g id="Group-7" transform="translate(0.000000, 9.808351)">
                            <mask id="mask-55" fill="white">
                                <use xlink:href="#path-54"></use>
                            </mask>
                            <g id="Clip-6"></g>
                            <path d="M16.8432517,6.33505 C16.412467,4.29558125 14.8036059,0.0645291667 8.87562326,0.00207777778 L8.87792535,0.000129861111 L8.74369618,0.000129861111 L8.25488715,0.000129861111 L8.12071701,0.000129861111 L8.12307813,0.00207777778 C2.19497743,0.0645291667 0.586175347,4.29558125 0.155331597,6.33505 C0.0551614583,6.67268889 -2.95138889e-05,7.03447014 -2.95138889e-05,7.41118542 L-2.95138889e-05,7.41968542 C-2.95138889e-05,9.25515417 1.2900816,10.7430674 2.88141146,10.7430674 L14.1171719,10.7430674 C15.7085608,10.7430674 16.9986128,9.25515417 16.9986128,7.41968542 L16.9986128,7.41118542 C16.9986128,7.03447014 16.9434219,6.67268889 16.8432517,6.33505" id="Fill-5" fill="#2FD3BC" mask="url(#mask-55)"></path>
                        </g>
                        <polygon id="Fill-8" fill="#BC821B" points="6.33584687 10.5400295 6.16277743 13.2515885 10.8358295 13.2515885 10.6050309 10.6554288"></polygon>
                        <path d="M12.4403226,6.31141528 C12.4403226,9.30382847 10.6568573,11.7296931 8.45695104,11.7296931 C6.25692674,11.7296931 4.47346146,9.30382847 4.47346146,6.31141528 C4.47346146,3.31906111 6.25692674,0.893196528 8.45695104,0.893196528 C10.6568573,0.893196528 12.4403226,3.31906111 12.4403226,6.31141528" id="Fill-10" fill="#FAAD13"></path>
                        <g id="Group-14" transform="translate(4.545139, 0.009740)">
                            <mask id="mask-57" fill="white">
                                <use xlink:href="#path-56"></use>
                            </mask>
                            <g id="Clip-13"></g>
                            <path d="M6.82933681,1.42727396 C6.82933681,1.42727396 6.12785069,0.0692809028 3.97251042,0.0508642361 L3.97251042,0.0492704861 C3.95899306,0.0492704861 3.94624306,0.0499788194 3.93290278,0.0500378472 C3.93148611,0.0500378472 3.93024653,0.0499788194 3.92877083,0.0499788194 L3.92877083,0.0501559028 C1.77343056,0.0685725694 1.07200347,1.42656562 1.07200347,1.42656562 C-0.940666667,3.12166632 0.53921875,7.53352049 0.53921875,7.53352049 C0.53921875,7.53352049 0.716774306,3.49241979 1.663875,2.96276354 C1.93292361,2.81230174 2.16838542,2.76897535 2.38684722,2.78361424 C1.96834028,3.66348229 1.85530208,5.08829479 1.85530208,5.08829479 C1.85530208,5.08829479 2.52396875,3.30553785 2.94182639,3.07184687 C3.00711111,3.03530868 3.06761458,3.01429479 3.12528472,3.00266632 C3.33512847,3.09108993 3.54774653,3.17886424 3.78120139,3.21227396 L3.95580556,0.883451042 L4.10136806,3.21581562 C4.34249653,3.18458993 4.56101736,3.09398229 4.77670486,3.00313854 C4.83407986,3.01476701 4.89440625,3.03572187 4.95945486,3.07214201 C5.3773125,3.30583299 6.04597917,5.08864896 6.04597917,5.08864896 C6.04597917,5.08864896 5.93282292,3.66419062 5.51461111,2.78426354 C5.73301389,2.76968368 5.96841667,2.8130691 6.23740625,2.96341285 C7.18450694,3.49318715 7.3620625,7.53422882 7.3620625,7.53422882 C7.3620625,7.53422882 8.84194792,3.12237465 6.82933681,1.42727396" id="Fill-12" fill="#6553C0" mask="url(#mask-57)"></path>
                        </g>
                        <path d="M14.7562951,13.4628844 C14.8013333,13.3635997 14.8270104,13.2536899 14.8270104,13.1375233 C14.8270104,12.701426 14.473434,12.3478497 14.0372778,12.3478497 L2.96130556,12.3478497 C2.52514931,12.3478497 2.17157292,12.701426 2.17157292,13.1375233 C2.17157292,13.2536899 2.19725,13.3635997 2.24228819,13.4628844 L3.45117708,19.025426 L3.47508333,19.025426 C3.56020139,19.369676 3.87027431,19.6252073 4.24079167,19.6252073 L12.9077222,19.6252073 L12.9077222,19.6136378 C13.2192118,19.5619295 13.4686042,19.3284156 13.5435104,19.025426 L13.5474653,19.025426 L14.7562951,13.4628844 Z" id="Fill-15" fill="#0D2436"></path>
                        <path d="M10.5822698,9.80391181 C10.5236552,9.80391181 10.4727733,9.76023125 10.4653358,9.70049514 L10.3243184,8.57247431 C10.3204226,8.54148472 10.3289816,8.51031806 10.3479885,8.48564444 L11.1469885,7.45159583 C11.1870094,7.39994653 11.2610892,7.39056111 11.3126205,7.43034583 C11.3642108,7.47024861 11.3737142,7.5443875 11.3338705,7.59597778 L10.5646205,8.59148125 L10.699558,9.67121736 C10.7076448,9.73591181 10.6617802,9.79493958 10.5970858,9.80296736 C10.5921274,9.80361667 10.5871691,9.80391181 10.5822698,9.80391181" id="Fill-17" fill="#BC821B"></path>
                        <path d="M8.49929757,14.7900295 C7.52215174,14.7900295 6.73005799,15.1688698 6.73005799,15.6361927 C6.73005799,16.1035156 7.52215174,16.4823559 8.49929757,16.4823559 C9.4764434,16.4823559 10.2685372,16.1035156 10.2685372,15.6361927 C10.2685372,15.1688698 9.4764434,14.7900295 8.49929757,14.7900295 M8.49929757,15.203224 C8.89596424,15.203224 9.28076632,15.2758872 9.5550684,15.4026198 C9.79684618,15.5143594 9.85410313,15.6200781 9.85534271,15.6361337 C9.85410313,15.6523073 9.79690521,15.757967 9.55512743,15.8697066 C9.28076632,15.9964392 8.89596424,16.0691615 8.49929757,16.0691615 C8.1026309,16.0691615 7.71782882,15.9964392 7.44352674,15.8697066 C7.20174896,15.757967 7.14449201,15.6523073 7.14325243,15.6361927 C7.14449201,15.6200781 7.20174896,15.5143594 7.44352674,15.4026198 C7.71782882,15.2758872 8.1026309,15.203224 8.49929757,15.203224" id="Fill-19" fill="#D3E7F7"></path>
                        <path d="M11.9684427,9.83250486 L9.77024826,9.83250486 L9.77024826,9.41931042 L11.8060573,9.41931042 L12.3445677,7.20281736 L12.7461337,7.30039028 L12.1691962,9.67466458 C12.1467066,9.76733819 12.0637135,9.83250486 11.9684427,9.83250486" id="Fill-21" fill="#1A826E"></path>
                        <mask id="mask-59" fill="white">
                            <use xlink:href="#path-58"></use>
                        </mask>
                        <g id="Clip-24"></g>
                        <polygon id="Fill-23" fill="#2FD3BC" mask="url(#mask-59)" points="7.82454514 9.95922569 9.76980556 9.95922569 9.76980556 9.32833681 7.82454514 9.32833681"></polygon>
                        <path d="M7.97211458,9.81165625 L9.62223611,9.81165625 L9.62223611,9.47590625 L7.97211458,9.47590625 L7.97211458,9.81165625 Z M9.76980556,10.1067951 L7.82454514,10.1067951 C7.74308681,10.1067951 7.67697569,10.0407431 7.67697569,9.95922569 L7.67697569,9.32827778 C7.67697569,9.24676042 7.74308681,9.18070833 7.82454514,9.18070833 L9.76980556,9.18070833 C9.85132292,9.18070833 9.917375,9.24676042 9.917375,9.32827778 L9.917375,9.95922569 C9.917375,10.0407431 9.85132292,10.1067951 9.76980556,10.1067951 L9.76980556,10.1067951 Z" id="Fill-25" fill="#2FD3BC" mask="url(#mask-59)"></path>
                        <path d="M13.0726222,6.85632431 L12.4256188,6.80101528 C12.4274486,6.77923403 12.5947924,4.57377917 11.3298861,3.19937639 C10.6472889,2.45769236 9.65892778,2.08168542 8.39213264,2.08168542 C7.12758056,2.08168542 6.16288958,2.45314722 5.52485833,3.18568194 C4.34324028,4.54237639 4.62958403,6.72303958 4.63265347,6.74487986 L3.98960486,6.83519236 C3.97537917,6.73431389 3.65692431,4.34545972 5.03238958,2.76251181 C5.79927847,1.87986944 6.92966042,1.43237986 8.39213264,1.43237986 C9.84988264,1.43237986 11.0000979,1.88010556 11.8107854,2.76310208 C13.2684764,4.35083125 13.0812403,6.7547375 13.0726222,6.85632431" id="Fill-26" fill="#2FD3BC" mask="url(#mask-59)"></path>
                        <path d="M12.738283,5.5551809 C13.3383594,5.5551809 13.8248073,6.10797604 13.8248073,6.78986493 C13.8248073,7.47181285 13.3383594,8.02460799 12.738283,8.02460799 L12.3432101,8.02460799 L12.3432101,5.5551809 L12.738283,5.5551809 Z" id="Fill-27" fill="#1A826E" mask="url(#mask-59)"></path>
                        <path d="M4.24364271,5.5551809 C3.64356632,5.5551809 3.1571184,6.10797604 3.1571184,6.78986493 C3.1571184,7.47181285 3.64356632,8.02460799 4.24364271,8.02460799 L4.63871563,8.02460799 L4.63871563,5.5551809 L4.24364271,5.5551809 Z" id="Fill-28" fill="#209E89" mask="url(#mask-59)"></path>
                        <path d="M6.46837014,9.80391181 C6.46347083,9.80391181 6.4585125,9.80361667 6.45355417,9.80296736 C6.38885972,9.79493958 6.34299514,9.73591181 6.35108194,9.67121736 L6.48601944,8.59148125 L5.71676944,7.59597778 C5.67692569,7.5443875 5.68642917,7.47024861 5.73801944,7.43034583 C5.78955069,7.39056111 5.86368958,7.39994653 5.90365139,7.45159583 L6.70265139,8.48564444 C6.72165833,8.51031806 6.73021736,8.54148472 6.72632153,8.57247431 L6.58530417,9.70049514 C6.57786667,9.76023125 6.52698472,9.80391181 6.46837014,9.80391181" id="Fill-29" fill="#BC821B" mask="url(#mask-59)"></path>
                    </g>
                </g>
                <path d="M272.706466,181 L228,181 C226.757359,181 225.632359,180.49632 224.818019,179.681981 C224.00368,178.867641 223.5,177.742641 223.5,176.5 L223.5,164 C223.5,162.757359 224.00368,161.632359 224.818019,160.818019 C225.632359,160.00368 226.757359,159.5 228,159.5 L271.5,159.5 C272.742641,159.5 273.867641,160.00368 274.681981,160.818019 C275.49632,161.632359 276,162.757359 276,164 L276,173.912932 L276,177.706466 C276,178.61595 275.631359,179.439334 275.035346,180.035346 C274.439334,180.631359 273.61595,181 272.706466,181 Z" id="Rectangle-Copy-78" stroke="url(#linearGradient-60)" fill="#1B3549"></path>
                <path d="M274.681981,179.681981 C273.867641,180.49632 272.742641,181 271.5,181 L228,181 C226.757359,181 225.632359,180.49632 224.818019,179.681981 C224.00368,178.867641 223.5,177.742641 223.5,176.5 L223.5,97.5 C223.5,96.2573593 224.00368,95.1323593 224.818019,94.3180195 C225.632359,93.5036797 226.757359,93 228,93 L271.5,93 C272.742641,93 273.867641,93.5036797 274.681981,94.3180195 C275.49632,95.1323593 276,96.2573593 276,97.5 L276,151.488929 L276,176.5 C276,177.742641 275.49632,178.867641 274.681981,179.681981 Z" id="Rectangle-Copy-82" stroke="url(#linearGradient-61)" fill="#1B3549"></path>
                <g id="Crossplane-Icon" transform="translate(243.500000, 124.500000)">
                    <g id="Group-3" transform="translate(0.000000, 2.181158)">
                        <mask id="mask-63" fill="white">
                            <use xlink:href="#path-62"></use>
                        </mask>
                        <g id="Clip-2"></g>
                        <path d="M2.05690345,17.2599322 C1.90048966,17.2107191 1.7600069,17.1278667 1.62304138,17.0412765 C0.816144828,16.5317027 0.296006897,15.8140634 0.0789724138,14.8798448 C0.0243517241,14.6443694 -6.20689655e-05,14.4051563 -6.20689655e-05,14.1630361 C0.000765517241,12.9819213 0.000351724138,11.8010142 0.00055862069,10.6196918 C0.00055862069,10.591659 0.00366206897,10.5634186 0.00531724138,10.5349705 C0.0340758621,10.5088066 0.0638689655,10.4836809 0.0913862069,10.456271 C3.50124828,7.03440219 6.91090345,3.61211803 10.3205586,0.18983388 C10.3480759,0.162216393 10.3731103,0.132522404 10.3991793,0.103866667 C10.5175241,0.216620765 10.6106276,0.350347541 10.7055931,0.481997814 C11.2433172,1.2291235 11.5878,2.05847869 11.7444207,2.96611803 C11.8004897,3.29109071 11.8259379,3.61938579 11.8267655,3.94871913 C11.8294552,5.07480656 11.8292483,6.20068634 11.8296621,7.32677377 C11.8296621,7.37266448 11.8255241,7.41834754 11.8234552,7.4644459 C11.789731,7.49559344 11.7549724,7.52549508 11.7224897,7.55809617 C8.53028276,10.7615169 5.33828276,13.965353 2.14628276,17.1691891 C2.11628276,17.1990907 2.08669655,17.2296153 2.05690345,17.2599322" id="Fill-1" fill="#FFCE24" mask="url(#mask-63)"></path>
                    </g>
                    <g id="Group-6" transform="translate(0.000000, 0.104656)">
                        <mask id="mask-65" fill="white">
                            <use xlink:href="#path-64"></use>
                        </mask>
                        <g id="Clip-5"></g>
                        <path d="M10.3992414,2.18034863 C10.3731724,2.20900437 10.347931,2.23869836 10.3206207,2.26631585 C6.91096552,5.68880765 3.50131034,9.11088415 0.0912413793,12.532753 C0.0639310345,12.5601628 0.034137931,12.5852885 0.00537931034,12.6114525 C0.00393103448,12.5690918 0.000827586207,12.5267311 0.000827586207,12.4843705 C0.000620689655,10.5094087 0.000620689655,8.5348623 0.000827586207,6.5601082 C0.000827586207,6.33688415 -0.00165517241,6.11324481 0.00268965517,5.89002077 C0.0169655172,5.13770383 0.17337931,4.41549617 0.465310345,3.72298251 C0.787655172,2.95820656 1.24986207,2.28936503 1.85234483,1.72123388 C2.67186207,0.947944262 3.63268966,0.445222951 4.73648276,0.220130055 C5.03089655,0.160119126 5.3277931,0.12564918 5.6277931,0.110698361 C6.71482759,0.0562939891 7.73710345,0.289485246 8.69731034,0.799059016 C9.32524138,1.13213005 9.86937931,1.57338689 10.3431724,2.10351803 C10.364069,2.12698251 10.3806207,2.1546 10.3992414,2.18034863" id="Fill-4" fill="#F57F78" mask="url(#mask-65)"></path>
                    </g>
                    <path d="M2.05690345,19.4410907 C2.08669655,19.4107738 2.11628276,19.3802492 2.14628276,19.3503475 C5.33828276,16.1465115 8.53028276,12.9426754 11.7224897,9.73925464 C11.7549724,9.70665355 11.789731,9.67675191 11.8234552,9.64560437 C11.8255241,9.68443497 11.8296621,9.72305792 11.8296621,9.76209617 C11.829869,11.9528066 11.8338,14.1437246 11.8286276,16.3346426 C11.8246966,18.0026973 10.6344207,19.3679978 9.06904138,19.6668066 C8.87807586,19.703353 8.68483448,19.7207956 8.48993793,19.7197574 C8.14028276,19.7183038 7.79042069,19.7191344 7.44076552,19.7197574 C7.40228276,19.7197574 7.36297241,19.7141508 7.32511034,19.7268175 C7.29097241,19.7137355 7.25538621,19.7187191 7.22042069,19.7185115 C6.40938621,19.7183038 5.59835172,19.7174732 4.78731724,19.7191344 C4.64311034,19.7195497 4.49869655,19.7104131 4.35448966,19.7268175 C4.31662759,19.7143585 4.27752414,19.7197574 4.23883448,19.7195497 C3.93490345,19.7191344 3.63097241,19.7189268 3.32704138,19.7195497 C2.91945517,19.7201727 2.5278,19.6375279 2.14876552,19.4905115 C2.11648966,19.4780525 2.08069655,19.470577 2.05690345,19.4410907" id="Fill-7" fill="#28D1BA"></path>
                    <g id="Group-11" transform="translate(4.344828, 19.623781)">
                        <mask id="mask-67" fill="white">
                            <use xlink:href="#path-66"></use>
                        </mask>
                        <g id="Clip-10"></g>
                        <path d="M0.00976551724,0.103036066 C0.153765517,0.086631694 0.298386207,0.095768306 0.442593103,0.0953530055 C1.25362759,0.0936918033 2.06445517,0.0945224044 2.87548966,0.0947300546 C2.91066207,0.0949377049 2.94604138,0.0901617486 2.98017931,0.103036066 C2.97955862,0.145604372 2.97831724,0.188172678 2.97831724,0.230533333 C2.97728276,1.5314623 2.97273103,2.83239126 2.97707586,4.13290492 C2.97955862,4.81109071 2.47845517,5.45771366 1.75907586,5.58354973 C0.974110345,5.72101421 0.252041379,5.23012896 0.0579724138,4.48944044 C0.0267310345,4.36941858 0.00955862069,4.24565902 0.00935172414,4.12231475 C0.00728275862,2.79335301 0.00811034483,1.46418361 0.00831724138,0.134806557 C0.00831724138,0.124424044 0.00935172414,0.11383388 0.00976551724,0.103036066" id="Fill-9" fill="#F8D281" mask="url(#mask-67)"></path>
                    </g>
                </g>
                <text id="Crossplane" font-family="'Avenir-Black', 'Arial', sans-serif" font-size="7" font-weight="700" line-spacing="10" fill="#D3E7F7">
                    <tspan x="231.6025" y="160.5">Crossplane</tspan>
                </text>
                <path d="M202.5,101 L204.639785,101 C209.058063,101 212.639785,104.581722 212.639785,109 L212.639785,111 C212.639785,115.418278 216.221507,119 220.639785,119 L223,119 L223,119" id="Path-5-Copy-2" stroke="#FFFFFF" stroke-width="0.5" transform="translate(212.750000, 110.000000) scale(1, -1) translate(-212.750000, -110.000000) "></path>
                <path d="M207.5,117.32179 L207.5,120.803234 C207.5,121.042187 207.317017,121.197574 207.161528,121.090575 L204.629124,119.347418 C204.456855,119.228854 204.456988,118.890813 204.629345,118.772554 L207.161794,117.034267 C207.317239,116.927571 207.5,117.082958 207.5,117.32179" id="Fill-3" fill="#FFFFFF" opacity="0.59891183" transform="translate(206.000000, 119.062500) scale(-1, 1) translate(-206.000000, -119.062500) "></path>
                <path d="M221,99.3217901 L221,102.803234 C221,103.042187 220.817017,103.197574 220.661528,103.090575 L218.129124,101.347418 C217.956855,101.228854 217.956988,100.890813 218.129345,100.772554 L220.661794,99.0342667 C220.817239,98.9275714 221,99.0829582 221,99.3217901" id="Fill-3" fill="#FFFFFF" opacity="0.59891183" transform="translate(219.500000, 101.062500) scale(-1, 1) translate(-219.500000, -101.062500) "></path>
                <path d="M214,107.82179 L214,111.303234 C214,111.542187 213.817017,111.697574 213.661528,111.590575 L211.129124,109.847418 C210.956855,109.728854 210.956988,109.390813 211.129345,109.272554 L213.661794,107.534267 C213.817239,107.427571 214,107.582958 214,107.82179" id="Fill-3-Copy-6" fill="#FFFFFF" opacity="0.59891183" transform="translate(212.500000, 109.562500) scale(-1, 1) rotate(90.000000) translate(-212.500000, -109.562500) "></path>
                <path d="M214,151.32179 L214,154.803234 C214,155.042187 213.817017,155.197574 213.661528,155.090575 L211.129124,153.347418 C210.956855,153.228854 210.956988,152.890813 211.129345,152.772554 L213.661794,151.034267 C213.817239,150.927571 214,151.082958 214,151.32179" id="Fill-3-Copy-6" fill="#FFFFFF" opacity="0.59891183" transform="translate(212.500000, 153.062500) scale(-1, 1) rotate(90.000000) translate(-212.500000, -153.062500) "></path>
                <path d="M207,142.32179 L207,145.803234 C207,146.042187 206.817017,146.197574 206.661528,146.090575 L204.129124,144.347418 C203.956855,144.228854 203.956988,143.890813 204.129345,143.772554 L206.661794,142.034267 C206.817239,141.927571 207,142.082958 207,142.32179" id="Fill-3" fill="#FFFFFF" opacity="0.59891183"></path>
                <path d="M221,160.32179 L221,163.803234 C221,164.042187 220.817017,164.197574 220.661528,164.090575 L218.129124,162.347418 C217.956855,162.228854 217.956988,161.890813 218.129345,161.772554 L220.661794,160.034267 C220.817239,159.927571 221,160.082958 221,160.32179" id="Fill-3-Copy-5" fill="#FFFFFF" opacity="0.59891183"></path>
                <path d="M202.5,144 L204.639785,144 C209.058063,144 212.639785,147.581722 212.639785,152 L212.639785,154 C212.639785,158.418278 216.221507,162 220.639785,162 L223,162 L223,162" id="Path-5-Copy-3" stroke="#FFFFFF" stroke-width="0.5"></path>
                <line x1="144.75" y1="160" x2="144.75" y2="234.5" id="Path-2" stroke="#49C2D6" stroke-width="0.5"></line>
                <line x1="144.25" y1="35" x2="144.25" y2="57.5" id="Path-7" stroke="#49C2D6" stroke-width="0.5"></line>
                <path d="M189.740678,90 L91.5,90 C90.3954305,90 89.3954305,89.5522847 88.6715729,88.8284271 C87.9477153,88.1045695 87.5,87.1045695 87.5,86 L87.5,60 C87.5,58.8954305 87.9477153,57.8954305 88.6715729,57.1715729 C89.3954305,56.4477153 90.3954305,56 91.5,56 L198,56 C199.104569,56 200.104569,56.4477153 200.828427,57.1715729 C201.552285,57.8954305 202,58.8954305 202,60 L202,81.2304688 L202,86 C202,87.1045695 201.552285,88.1045695 200.828427,88.8284271 C200.104569,89.5522847 199.104569,90 198,90 L189.740678,90 Z" id="Rectangle-Copy-18" stroke="url(#linearGradient-68)" stroke-width="2" fill="#1B3549"></path>
                <text id="Internal-Cloud-API" font-family="'Avenir-Black', 'Arial', sans-serif" font-size="9" font-weight="700" line-spacing="16" fill="#FFFFFF">
                    <tspan x="105.7575" y="75">Internal Cloud API</tspan>
                </text>
                <path d="M146.5,39.4290535 L146.5,44.0709783 C146.5,44.3895831 146.256023,44.5967656 146.048705,44.4540994 L142.672165,42.1298909 C142.442474,41.9718058 142.442651,41.5210846 142.67246,41.3634052 L146.049059,39.0456889 C146.256318,38.9034285 146.5,39.110611 146.5,39.4290535" id="Fill-3-Copy-4" fill="#49C2D6" opacity="0.601074219" transform="translate(144.500000, 41.750000) rotate(-90.000000) translate(-144.500000, -41.750000) "></path>
                <line x1="144.75" y1="90.5" x2="144.75" y2="99.5" id="Path-2-Copy" stroke="#49C2D6" stroke-width="0.5"></line>
                <line x1="102.75" y1="90.5" x2="102.75" y2="99.5" id="Path-2-Copy-2" stroke="#FAAD13" stroke-width="0.5"></line>
                <line x1="186.75" y1="90.5" x2="186.75" y2="99.5" id="Path-2-Copy-3" stroke="#6D64F5" stroke-width="0.5"></line>
                <text id="Power-by" font-family="'Avenir-Roman', 'Arial', sans-serif" font-size="6.5" font-weight="400" line-spacing="9" fill="#FFFFFF">
                    <tspan x="235.90175" y="113.5">Power by</tspan>
                </text>
            </g>
        </g>
    </g>
</svg>