<?xml version="1.0" encoding="UTF-8"?>
<svg width="110px" height="78px" viewBox="0 0 110 78" version="1.1" xmlns="http://www.w3.org/2000/svg" xmlns:xlink="http://www.w3.org/1999/xlink">
    <!-- Generator: Sketch 63.1 (92452) - https://sketch.com -->
    <title>Group 8</title>
    <desc>Created with Sketch.</desc>
    <defs>
        <polygon id="path-1" points="0 0.276191198 109.917959 0.276191198 109.917959 77.6733791 0 77.6733791"></polygon>
    </defs>
    <g id="Customer" stroke="none" stroke-width="1" fill="none" fill-rule="evenodd">
        <g id="Customer-Overview" transform="translate(-1034.000000, -1117.000000)">
            <g id="Group-8" transform="translate(1034.000000, 1117.000000)">
                <g id="Group-3" transform="translate(0.000000, 0.050259)">
                    <mask id="mask-2" fill="white">
                        <use xlink:href="#path-1"></use>
                    </mask>
                    <g id="Clip-2"></g>
                    <path d="M54.8941006,69.7250652 L91.8752544,69.7250652 C94.2506686,69.7250652 96.6260828,69.7261908 99.001497,69.7206427 C99.1954615,69.71999 99.3930059,69.6860485 99.5817633,69.6387264 C99.7396036,69.5995632 99.8870296,69.5189523 100.038686,69.4553121 C100.110284,69.4249607 100.196852,69.4083163 100.248923,69.3570778 C100.409367,69.2000987 100.654751,69.2004251 100.798923,68.9768686 C100.964574,68.7203498 101.296201,68.5646762 101.439722,68.3019565 C101.599189,68.0095381 101.817237,67.7213623 101.808124,67.3427849 C101.804219,67.1649188 101.914219,66.9860736 101.95913,66.8042912 C101.977355,66.7308603 101.969938,66.6456803 101.954899,66.5702912 C101.921053,66.3999314 101.838391,66.2328351 101.838065,66.0641071 C101.831556,62.212082 101.833183,58.3603833 101.833183,54.5083582 C101.833183,40.183446 101.833183,25.8588603 101.832858,11.5336218 C101.832858,10.8750276 101.875166,10.2063163 101.479751,9.62180586 C101.346645,9.42533724 101.221024,9.21907782 101.059278,9.04904435 C100.882237,8.86301925 100.679811,8.69331213 100.464692,8.55297741 C100.263243,8.42047531 100.039663,8.27198159 99.8108757,8.24163013 C99.2696627,8.1695046 98.7203136,8.14404854 98.173568,8.1345841 C97.2480059,8.11924519 96.3221183,8.1313205 95.3962308,8.1313205 L87.570284,8.13066778 C86.3746036,8.13034142 85.1792485,8.13066778 83.9838935,8.13066778 L77.6689822,8.13066778 L70.7083905,8.13066778 C67.9919112,8.13034142 65.2757574,8.13034142 62.5596036,8.13034142 C57.8191893,8.13034142 53.0791006,8.13034142 48.3383609,8.13066778 C45.8916746,8.13066778 43.4446627,8.1313205 40.9979763,8.1313205 C38.4256686,8.1313205 35.8536864,8.13066778 33.2817041,8.13034142 C31.0781243,8.13034142 28.8751953,8.13034142 26.6716154,8.13066778 L16.6850473,8.13066778 C15.3087456,8.13066778 13.9327692,8.11924519 12.5567929,8.13425774 C11.7672663,8.14306946 10.9783905,8.19300251 10.1895148,8.22661757 C10.1276805,8.22890209 10.055432,8.22988117 10.0072663,8.26153808 C9.63723669,8.50173891 9.26362722,8.73802343 8.90921893,9.0007431 C8.77806509,9.09799833 8.68889349,9.25791464 8.59288757,9.39694393 C8.36702959,9.72265105 8.13173373,10.0405255 8.12522485,10.4703414 C8.12294675,10.6328686 8.02336095,10.7914795 7.99439645,10.9566176 C7.97031361,11.0923833 7.97063905,11.2366343 7.98691124,11.3740318 C8.00643787,11.5385172 8.08584615,11.6990862 8.08584615,11.8616134 C8.09007692,30.0111364 8.0884497,48.1609858 8.09398225,66.3108351 C8.09398225,66.8959983 8.0126213,67.4912787 8.38297633,68.0441322 C8.54211834,68.2817222 8.64788757,68.5506427 8.88155621,68.739605 C9.00099408,68.8358812 9.09634911,68.9612033 9.20765089,69.067923 C9.39347929,69.2464418 9.56173373,69.4530276 9.85398225,69.4605339 C9.922,69.4624921 10.0056391,69.4810946 10.0538047,69.5241741 C10.3004911,69.7451197 10.5992485,69.7250652 10.894426,69.7250652 C25.5608757,69.7250652 40.2276509,69.7250652 54.8941006,69.7250652 M-0.000130177515,68.2014377 L-0.000130177515,9.74451715 C0.224100592,9.70209038 0.227680473,9.51410711 0.247532544,9.34896904 C0.27812426,9.08983933 0.250136095,8.81634979 0.321408284,8.57125356 C0.438893491,8.16917824 0.620491124,7.78635816 0.766615385,7.39211548 C0.882147929,7.07881004 0.984988166,6.76093556 1.09433728,6.44534561 C1.09954438,6.42902762 1.11191124,6.41466778 1.12167456,6.39998159 C1.27040237,6.18099414 1.46989941,5.98093556 1.5567929,5.73942929 C1.71560947,5.30112803 2.03486982,4.98260084 2.29001775,4.61773054 C2.46120118,4.37393975 2.66753254,4.1533205 2.87028402,3.93302762 C3.16936686,3.60666778 3.46291716,3.27182259 3.78998817,2.97516151 C4.10729586,2.68763849 4.44998817,2.42165523 4.80830178,2.18798159 C5.16368639,1.95593975 5.55291716,1.77611548 5.92717751,1.57344603 C5.95842012,1.55647531 5.98901183,1.53852552 6.01992899,1.52220753 C6.29525444,1.37730377 6.55984024,1.20563849 6.84818343,1.09532887 C7.21886391,0.953362343 7.60874556,0.86198159 7.98951479,0.747102929 C8.03182249,0.734374895 8.06924852,0.706960669 8.11057988,0.691948117 C8.24010651,0.644952301 8.36670414,0.582943933 8.50046154,0.558466946 C8.75528402,0.512776569 9.04785799,0.553245188 9.262,0.439345607 C9.53504734,0.294441841 9.8015858,0.289546444 10.0827692,0.279429289 C10.2262899,0.273881172 10.3701361,0.27714477 10.5143077,0.27714477 C40.1267633,0.27714477 69.7388935,0.27714477 99.3510237,0.27779749 C99.6481538,0.27779749 99.9449586,0.282366527 100.241763,0.289546444 C100.311408,0.291178243 100.382355,0.304558996 100.449396,0.324466946 C100.683716,0.39365523 100.913479,0.481446025 101.151379,0.535948117 C101.332651,0.577395816 101.527917,0.560751464 101.708864,0.603830962 C101.902503,0.650174059 102.086379,0.737638494 102.275462,0.80388954 C102.601231,0.918768201 102.929929,1.02548787 103.253095,1.14656736 C103.406053,1.20433305 103.549249,1.28853389 103.697,1.36000669 C103.907237,1.46248368 104.127237,1.54896904 104.326083,1.6703749 C104.540876,1.80189791 104.735491,1.96670962 104.938893,2.11683515 C105.053775,2.2016887 105.164751,2.29241674 105.283538,2.37041674 C105.474899,2.49606527 105.693923,2.58875146 105.861527,2.73985607 C106.189899,3.03488536 106.498746,3.35308619 106.801083,3.67585607 C107.129781,4.02701925 107.444485,4.39188954 107.757562,4.75741255 C107.817769,4.82757992 107.821349,4.97183096 107.889367,5.00675146 C108.142888,5.13794812 108.175107,5.41241674 108.313095,5.61475983 C108.456941,5.826241 108.553272,6.07035816 108.671083,6.29978912 C108.812976,6.57556318 108.983509,6.83991464 109.090905,7.12809038 C109.236053,7.51776402 109.332385,7.92506109 109.449544,8.32452552 C109.45703,8.35030795 109.456053,8.38718661 109.473302,8.40056736 C109.683864,8.56570544 109.632769,8.80427448 109.649041,9.02260921 C109.670195,9.30001506 109.652621,9.58427448 109.877503,9.80456736 C109.912976,9.83916151 109.904515,9.92434142 109.905817,9.98602343 C109.912,10.2562494 109.917959,10.5268017 109.917959,10.797354 C109.917959,25.059605 109.917959,39.3215297 109.917959,53.5834544 C109.916556,58.3372117 109.911024,63.0912954 109.905817,67.8450527 C109.905817,67.9331699 109.917959,68.0689356 109.870343,68.1005925 C109.616822,68.2712787 109.686467,68.5313874 109.654574,68.7637556 C109.626586,68.9680569 109.628864,69.1814962 109.56768,69.375354 C109.447592,69.7562159 109.290402,70.1256552 109.153716,70.5012954 C109.036231,70.8227598 108.925254,71.1461824 108.811024,71.4689523 C108.805166,71.4849439 108.788893,71.4970192 108.77913,71.5120318 C108.633006,71.7444 108.461172,71.9653456 108.347592,72.2133791 C108.172503,72.5952201 107.932,72.9264753 107.669041,73.2466343 C107.449692,73.5132703 107.236527,73.7854544 107.014574,74.0504586 C106.826467,74.2743414 106.649101,74.5132368 106.431704,74.7057891 C106.158006,74.9476218 105.848183,75.1486594 105.554308,75.3679732 C105.257503,75.5895715 104.964278,75.8157389 104.662917,76.0314628 C104.515817,76.1365506 104.36058,76.2354377 104.198183,76.3140904 C103.93197,76.4430025 103.654367,76.5484167 103.385225,76.6721071 C103.075402,76.8144 102.781852,77.0408937 102.458686,77.0957222 C101.944485,77.1831866 101.480728,77.4951866 100.933982,77.4259983 C100.834722,77.4135967 100.71984,77.4602661 100.625136,77.5069356 C100.562651,77.537287 100.523598,77.6165925 100.474456,77.6733791 L9.44815385,77.6733791 C9.31342012,77.59081 9.18812426,77.4707096 9.04134911,77.4341573 C8.84478107,77.3845506 8.63128994,77.4018477 8.42560947,77.3842243 C8.34717751,77.3770444 8.26776923,77.3590946 8.19356805,77.3329858 C8.03768047,77.2784837 7.88732544,77.2099481 7.73111243,77.1564251 C7.37995858,77.0363247 7.02359763,76.929605 6.67537278,76.8019983 C6.48043195,76.7305255 6.29069822,76.6394711 6.11072781,76.5360151 C5.87445562,76.4005757 5.65087574,76.2429439 5.42013609,76.0977138 C5.0924142,75.8917808 4.74321302,75.7129356 4.43859763,75.4763247 C4.06694083,75.1878226 3.73205917,74.8523247 3.38188166,74.5364084 C3.27383432,74.4388268 3.16253254,74.3438561 3.06164497,74.2394209 C2.84327219,74.0132536 2.61188166,73.7958979 2.41954438,73.5481908 C2.17350888,73.2312954 1.95676331,72.8909021 1.73513609,72.5554042 C1.59779882,72.347513 1.46078698,72.1373372 1.35046154,71.9147598 C1.21930769,71.6510611 1.12265089,71.370718 1.00093491,71.1021238 C0.859692308,70.7907766 0.631230769,70.4973791 0.576556213,70.1733038 C0.486733728,69.64199 0.183745562,69.157672 0.244278107,68.595354 C0.25404142,68.5052787 0.209130178,68.3995381 0.16291716,68.31599 C0.134278107,68.263446 0.0561715976,68.2386427 -0.000130177515,68.2014377" id="Fill-1" fill="#D3E7F7" mask="url(#mask-2)"></path>
                </g>
                <path d="M74.1750503,33.7040937 L74.1750503,33.7031146 C75.0114408,33.7031146 75.8481568,33.7047464 76.6845473,33.7008301 C76.7795769,33.7001774 76.8772101,33.6766795 76.9686598,33.6482862 C77.1102278,33.6039013 77.2501686,33.4955498 77.3855533,33.5040351 C77.8821805,33.5334075 78.3062337,33.2651397 78.7778018,33.2014996 C78.8279201,33.194646 78.8738077,33.1548301 78.9213225,33.1297004 C79.2165,32.9743531 79.5165592,32.8268385 79.8055533,32.6600686 C80.0001686,32.5478008 80.1944586,32.4260686 80.3620621,32.2775749 C80.5950799,32.0716418 80.8069438,31.8409054 81.0191331,31.6131063 C81.1623284,31.4593908 81.309429,31.3040435 81.4204053,31.1278092 C81.5622988,30.9032736 81.6667663,30.6549138 81.7933639,30.4199347 C81.9326538,30.1617841 82.1220621,29.9212569 82.2115592,29.647441 C82.3462929,29.2355749 82.4377426,28.8047799 82.5051095,28.3756167 C82.6714112,27.3175582 82.4009675,26.2937674 82.2222988,25.2644285 C82.2128609,25.2122109 82.1959379,25.1466126 82.1588373,25.1169138 C81.9111746,24.9181607 82.0742219,24.499441 81.7455237,24.3476837 C81.7292515,23.928964 81.3178905,23.7579515 81.1629793,23.4218008 C81.1050503,23.2971314 80.9631568,23.2021607 80.8427426,23.1179598 C80.6546361,22.9864368 80.4564408,22.8679682 80.2546657,22.7576586 C79.8299615,22.524964 79.4156716,22.2615916 78.9678609,22.08601 C78.5750503,21.9322946 78.1451391,21.863759 77.7259675,21.7896753 C77.4714704,21.7446377 77.2039556,21.7802109 76.9465296,21.7459431 C76.5621805,21.6943782 76.182713,21.5608971 75.7996657,21.5540435 C74.4240148,21.5302192 73.0473876,21.5426209 71.6710858,21.5462109 C71.3531272,21.54719 71.2096065,21.6933992 71.2092811,22.0119264 C71.2076538,25.7454828 71.2073284,29.4790393 71.2092811,33.2122695 C71.2092811,33.5869305 71.3355533,33.7031146 71.7192515,33.7037674 C72.5377426,33.7047464 73.3562337,33.7040937 74.1750503,33.7040937 M71.1679497,49.6389389 C71.1679497,51.6411565 71.1672988,53.6437004 71.1682751,55.6455916 C71.1686006,56.0502778 71.1881272,56.0708385 71.5985118,56.0682276 C72.1104349,56.0652904 72.6226834,56.052236 73.134932,56.0473406 C74.894932,56.0310226 76.6552574,56.0196 78.4152574,55.9974075 C78.6088964,55.9947967 78.8044882,55.9445372 78.9948728,55.8985205 C79.1536893,55.8596837 79.3040444,55.7869054 79.4615592,55.7418678 C79.8501391,55.6312318 80.2514112,55.5535582 80.6286006,55.4128971 C80.970642,55.284964 81.2876243,55.0911063 81.6153462,54.9246628 C81.6456124,54.9096502 81.6732751,54.8864787 81.6980089,54.8626544 C81.8441331,54.7236251 81.9658491,54.5206293 82.1396361,54.4556837 C82.5806124,54.2898929 82.6974467,53.8300519 83.0241923,53.5679849 C83.1270325,53.4857423 83.2240148,53.3790226 83.283571,53.2631649 C83.4648432,52.9097172 83.6555533,52.5565958 83.7876834,52.1838929 C83.9175355,51.8190226 84.0412041,51.4329389 84.0587781,51.0510979 C84.099784,50.1519766 84.077003,49.2502444 84.0763521,48.3491649 C84.0763521,48.2695331 84.059429,48.1863113 84.0333935,48.1105958 C83.8771805,47.6598929 83.7268254,47.2062527 83.5517367,46.7630561 C83.4658195,46.5453741 83.3424763,46.339441 83.2142515,46.1419933 C83.0847249,45.9425874 82.9386006,45.7513406 82.7810858,45.5731481 C82.5536006,45.3156502 82.3183047,45.0633741 82.0683639,44.8287213 C81.9342811,44.7030728 81.7601686,44.6214828 81.6065592,44.516395 C81.3286302,44.3264536 81.1170917,44.0190226 80.7259083,44.0294661 C80.6852278,44.0304452 80.6451982,43.9648469 80.6009379,43.9367799 C80.5186006,43.8839096 80.4391923,43.8134159 80.3487189,43.789918 C79.9236893,43.6805874 79.4950799,43.5869222 79.0687485,43.4828134 C79.0004053,43.466169 78.9392219,43.4234159 78.8728314,43.3982862 C78.767713,43.3581439 78.6629201,43.2954828 78.5551982,43.2896084 C77.7656716,43.2468552 76.9754941,43.1943113 76.185642,43.1861523 C74.6654941,43.1701607 73.1450207,43.1815833 71.6245473,43.1815833 C71.1764112,43.1815833 71.1682751,43.1890895 71.1679497,43.6326126 C71.1677372,45.6348301 71.1679497,47.6367213 71.1679497,49.6389389 M59.0695769,38.8873406 L59.0695769,14.0451565 C59.0695769,13.5947799 59.0695769,13.592169 59.5046953,13.592169 C67.0357899,13.5944536 74.5665592,13.5967381 82.0973284,13.6026126 C82.4422988,13.6029389 82.7788077,13.6261105 83.1159675,13.7765623 C83.3476834,13.8803448 83.6493698,13.8147464 83.9146065,13.8574996 C84.1638964,13.8979682 84.4066775,13.9815163 84.6520621,14.0467883 C84.6696361,14.051031 84.6852574,14.0621272 84.7025059,14.0657172 C85.2030385,14.1750477 85.7042219,14.2801356 86.2031272,14.3953406 C86.3001095,14.4172067 86.3892811,14.4739933 86.4797544,14.52001 C86.5096953,14.535349 86.5288964,14.5826711 86.5585118,14.5885456 C86.8533639,14.6472904 87.121855,14.7605372 87.3981568,14.8861858 C87.7333639,15.0385958 88.0675947,15.1815414 88.3852278,15.3731146 C88.7546065,15.5960184 89.1464408,15.7800854 89.5213521,15.9941774 C89.6258195,16.0539013 89.6990444,16.1658427 89.7960266,16.2418845 C90.0742811,16.4611983 90.3655533,16.6648469 90.635997,16.8932987 C90.8996065,17.1162025 91.1589852,17.3482444 91.3910266,17.6021523 C91.6139556,17.8456167 91.7984822,18.1240017 92.0022101,18.3850895 C92.1415,18.563282 92.2928314,18.7326628 92.4236598,18.9164033 C92.541145,19.0812151 92.6410562,19.2590812 92.7438964,19.4336837 C92.9163817,19.7277339 93.1038373,20.0152569 93.250287,20.3217088 C93.3846953,20.6033573 93.4686598,20.9091565 93.5835414,21.2009222 C93.7365,21.5905958 93.8988964,21.9760268 94.054784,22.3647213 C94.0743107,22.4130226 94.0808195,22.4688301 94.0843994,22.5217004 C94.1019734,22.7886628 94.0860266,23.0608469 94.2816183,23.2857088 C94.3294586,23.3405372 94.3525651,23.4384452 94.3476834,23.5138343 C94.3112337,24.1025874 94.5139852,24.6603364 94.5618254,25.234077 C94.6093402,25.8114075 94.6330976,26.4154996 94.5143107,26.9752067 C94.4192811,27.4213406 94.3987781,27.8606209 94.3509379,28.3041439 C94.3362929,28.4389305 94.2516775,28.5649054 94.2119734,28.6983866 C94.1667367,28.8498176 94.1208491,29.0038594 94.1016479,29.1595331 C94.0743107,29.3801523 94.112713,29.6180686 93.883926,29.7649305 C93.8709083,29.7730895 93.8627722,29.7943029 93.8575651,29.8106209 C93.7589556,30.1386126 93.6828018,30.4754159 93.5562041,30.7919849 C93.4367663,31.0902778 93.2639556,31.367031 93.1145769,31.6529222 C93.1064408,31.6685874 93.0927722,31.6819682 93.0865888,31.6982862 C92.9079201,32.1799933 92.645287,32.6075247 92.3110562,32.9998092 C92.162003,33.1744117 92.0936598,33.415918 91.9621805,33.609123 C91.8648728,33.7517423 91.7252574,33.8656418 91.6051686,33.9925958 C91.3828905,34.2269222 91.1664704,34.4667967 90.937358,34.6939431 C90.7134527,34.9158678 90.4778314,35.1257172 90.2451391,35.3385038 C90.0192811,35.5447632 89.8012337,35.7614661 89.5600799,35.9484703 C89.3524467,36.1093657 89.113571,36.2291397 88.8955237,36.3773071 C88.6774763,36.5258008 88.4675651,36.6866962 88.2543994,36.8420435 C88.2400799,36.8521607 88.2296657,36.8697841 88.2140444,36.8759849 C87.9676834,36.9738929 87.7174172,37.0626628 87.4749615,37.1690561 C87.1576538,37.3087381 86.8465296,37.4627799 86.5324763,37.6099682 C86.4602278,37.6435833 86.3837485,37.668713 86.3167071,37.7101607 C86.2704941,37.7388803 86.2372988,37.7888134 86.1982456,37.8289556 C86.2408787,37.8674661 86.2773284,37.9232736 86.3274467,37.9408971 C86.4019734,37.9673322 86.488216,37.9591732 86.5656716,37.9803866 C86.7580089,38.0326042 86.9483935,38.0926544 87.1391036,38.1507464 C87.1648136,38.1585791 87.1879201,38.1742444 87.2136302,38.182077 C87.6093698,38.2998929 88.0119438,38.3991063 88.3988964,38.5404201 C88.7210858,38.658236 89.0247249,38.826964 89.3381272,38.970236 C89.5893698,39.0844619 89.8458195,39.1888971 90.0954349,39.3076921 C90.2848432,39.3977674 90.4722988,39.4946962 90.6503166,39.6059849 C90.9035118,39.7645958 91.1703757,39.9140686 91.3893994,40.1138008 C91.6806716,40.378805 92.0676243,40.5064117 92.3133343,40.8461523 C92.4828905,41.0798259 92.7754645,41.2195079 92.9883047,41.4270728 C93.2066775,41.6401858 93.3983639,41.880713 93.594932,42.1153657 C93.831855,42.3996251 94.0970917,42.668872 94.2816183,42.9847883 C94.4088669,43.2021439 94.6666183,43.3330142 94.683216,43.6306544 C94.6893994,43.7429222 94.815997,43.8463782 94.8817367,43.9576669 C95.0324172,44.2109222 95.1791923,44.4671146 95.3279201,44.7216753 C95.3415888,44.7448469 95.3624172,44.7657339 95.3705533,44.7905372 C95.4831568,45.1341941 95.591855,45.4794828 95.7054349,45.8231397 C95.8466775,46.2493657 95.9918254,46.6749389 96.1353462,47.1011649 C96.1467367,47.1351063 96.1591036,47.1700268 96.1630089,47.2052736 C96.3140148,48.5041858 96.5929201,49.7949389 96.4542811,51.1131063 C96.419784,51.4430561 96.2918846,51.7619096 96.2414408,52.0912067 C96.2004349,52.3568636 96.2287485,52.632964 96.1936006,52.8996 C96.1604053,53.1512234 96.0845769,53.3972987 96.0269734,53.6456586 C96.0211154,53.6717674 96.0097249,53.6965707 96.0035414,53.7226795 C95.8870325,54.2105874 95.7942811,54.706328 95.6462041,55.1844452 C95.5449911,55.510805 95.368926,55.8143197 95.2228018,56.1263197 C95.1147544,56.3570561 94.9966183,56.5832234 94.8898728,56.8142862 C94.7577426,57.1005038 94.6936302,57.4131565 94.4189556,57.6327967 C94.2734822,57.7493071 94.2155533,57.9722109 94.106855,58.1399598 C93.9984822,58.3073824 93.8907604,58.4797004 93.7563521,58.6252569 C93.3733047,59.0403866 92.9860266,59.4525791 92.5824763,59.8468218 C92.3413225,60.0824536 92.0663225,60.2821858 91.8072692,60.4992151 C91.698571,60.5899431 91.5967071,60.6898092 91.4841036,60.7743364 C91.1869734,60.9972402 90.8966775,61.2315665 90.5826243,61.4270561 C90.335287,61.5810979 90.0570325,61.6848803 89.7921213,61.8105289 C89.7384231,61.8359849 89.6808195,61.8545874 89.629074,61.8842862 C89.5226538,61.9453155 89.4201391,62.012872 89.3143698,62.0755331 C89.2349615,62.1218762 89.1519734,62.1616921 89.0741923,62.210646 C89.0452278,62.2285958 89.0315592,62.2772234 89.0025947,62.2883197 C88.7106716,62.4002611 88.4167959,62.5066544 88.123571,62.6156586 C87.7558195,62.7530561 87.3896953,62.8940435 87.0209675,63.0271983 C86.9057604,63.068646 86.7807899,63.0820268 86.664932,63.12119 C86.4862633,63.1815665 86.3131272,63.2589138 86.1341331,63.3186377 C86.0338964,63.3525791 85.9281272,63.3754243 85.8233343,63.3868469 C85.5349911,63.417851 85.2424172,63.3832569 84.985642,63.5963699 C84.8863817,63.6782862 84.6920917,63.6449975 84.5414112,63.6632736 C84.2537189,63.6975414 83.9598432,63.6492402 83.6887485,63.8352653 C83.5631272,63.9217506 83.3584231,63.8946628 83.1891923,63.9152234 C82.5343994,63.9961607 81.8792811,64.0790561 81.2231864,64.1541188 C81.0188077,64.1772904 80.8118254,64.1857757 80.6058195,64.1867548 C76.7912929,64.2066628 72.9767663,64.2295079 69.1625651,64.2402778 C66.0946065,64.2490895 63.0263225,64.2419096 59.9580385,64.2419096 C59.8141923,64.2419096 59.6703462,64.2425623 59.5261746,64.2406042 C59.0887781,64.2353824 59.0695769,64.2167799 59.0695769,63.7837004 C59.0695769,55.4846962 59.0695769,47.1863448 59.0695769,38.8873406" id="Fill-4" fill="#D3E7F7"></path>
                <path d="M27.3406953,38.8968377 L27.3293047,38.8968377 C27.3293047,40.4473732 27.328003,41.9982351 27.3296302,43.5487707 C27.3312574,45.2977331 27.3371154,47.0473481 27.3371154,48.7963105 C27.3371154,51.0870301 27.3315828,53.3774234 27.3322337,55.6681431 C27.3322337,56.003641 27.3908136,56.0685866 27.7282988,56.0651343 C29.6158728,56.0460678 31.5037722,56.0196326 33.3913462,55.990913 C33.5042751,55.9892812 33.6201331,55.9559925 33.7294822,55.9217247 C33.9026183,55.867549 34.069571,55.7934653 34.2423817,55.7386368 C34.5853994,55.6302854 34.9306953,55.5300929 35.2743639,55.4243523 C35.2977959,55.4171724 35.3143935,55.3891054 35.3365237,55.375072 C35.4377367,55.3124109 35.5373225,55.2471389 35.6421154,55.1916577 C35.7032988,55.1590218 35.7820562,55.1557582 35.8393343,55.1182268 C36.049571,54.9795238 36.2536243,54.8313565 36.4602811,54.6880845 C36.6877663,54.5301264 36.9253402,54.3862017 37.140784,54.2138837 C37.3819379,54.0200259 37.6139793,53.8121347 37.8297485,53.5905364 C38.055932,53.3584946 38.2769083,53.1156828 38.4653402,52.8526368 C38.7009615,52.5230134 38.9056657,52.1702184 39.1165533,51.8226452 C39.2734172,51.5644946 39.4293047,51.3047121 39.5659911,51.0351389 C39.6893343,50.7929799 39.7811095,50.5348293 39.896642,50.2884276 C40.027145,50.00939 40.2058136,49.7469967 40.2949852,49.4558837 C40.376997,49.1889213 40.4420858,48.925549 40.5488314,48.6602184 C40.7310799,48.2065782 40.7720858,47.6961515 40.8710207,47.209549 C40.8941272,47.0949967 40.8759024,46.9523774 40.9380621,46.869482 C41.1522041,46.5848962 41.1001331,46.2549464 41.1382101,45.9396828 C41.1648964,45.7161264 41.1281213,45.4586285 41.2277071,45.2755406 C41.4138609,44.9338418 41.3696006,44.5807205 41.3940089,44.2282519 C41.4268787,43.7520929 41.3774112,43.2550469 41.4994527,42.8040176 C41.6328846,42.3108879 41.6270266,41.8282017 41.6293047,41.3376828 C41.6355201,40.0576996 41.6403698,38.77739 41.6270266,37.4977331 C41.6201923,36.8332644 41.6325592,36.1766285 41.4880621,35.5056326 C41.3406361,34.8212561 41.4148373,34.0885782 41.3881509,33.3767874 C41.3803402,33.1610636 41.4272041,32.9068293 41.3305473,32.7384276 C41.1372337,32.4012979 41.1886538,32.0452393 41.1320266,31.6970134 C41.0314645,31.0811724 40.9631213,30.452277 40.7789201,29.860913 C40.6965828,29.5959088 40.614571,29.343959 40.5953698,29.0688377 C40.5924408,29.0257582 40.5748669,28.9820259 40.5569675,28.9418837 C40.4027071,28.5910469 40.2360799,28.2447791 40.0941864,27.8890469 C39.9773521,27.5963021 39.8898077,27.2921347 39.7876183,26.9935155 C39.7762278,26.9602268 39.7619083,26.9262854 39.7420562,26.896913 C39.5965828,26.68021 39.444926,26.4674234 39.3036834,26.2481096 C39.0973521,25.928277 38.9092456,25.5957163 38.6905473,25.2846954 C38.5906361,25.1424025 38.4324704,25.0425364 38.3081509,24.9155824 C38.1948964,24.800051 38.0969379,24.6691808 37.9823817,24.5543021 C37.8398373,24.4107038 37.6891568,24.2749381 37.5384763,24.1398251 C37.4252219,24.0383272 37.3096893,23.9387874 37.1892751,23.8461013 C36.9809911,23.6855322 36.7697781,23.5288795 36.5569379,23.3741849 C36.4358728,23.2857414 36.3180621,23.1862017 36.1839793,23.1245197 C35.9285059,23.0070301 35.6619675,22.9133649 35.4009615,22.8089297 C35.3850148,22.8027289 35.3739497,22.7851054 35.3583284,22.7769464 C35.2209911,22.7090636 35.085932,22.6353063 34.9440385,22.5778669 C34.8538905,22.541641 34.7494231,22.541641 34.6576479,22.5070469 C34.2957544,22.3703021 33.9468787,22.1839506 33.5742456,22.0961598 C33.0922633,21.9832393 32.569926,22.070051 32.1103994,21.8194067 C30.6003402,21.8008042 29.0896302,21.782528 27.5789201,21.7638921 C27.3895118,21.761641 27.3312574,21.876846 27.3312574,22.0439423 C27.330932,22.3236326 27.3289793,22.6026703 27.3293047,22.8823607 C27.3332101,25.4795322 27.3384172,28.0767038 27.3403698,30.6742017 C27.3423225,33.4149715 27.3406953,36.1560678 27.3406953,38.8968377 L27.3406953,38.8968377 Z M15.1066124,39.0188962 C15.1066124,36.6655155 15.109216,34.3118084 15.1059615,31.9584276 C15.1030325,30.0019004 15.0883876,28.0453732 15.0890174,26.088846 C15.0890174,23.5004862 15.1014053,20.9124527 15.1059615,18.3240929 C15.1088905,16.962846 15.1059615,15.6012728 15.1069379,14.2400259 C15.1072633,13.8216326 15.2787722,13.6465554 15.6891568,13.6465554 C22.1401036,13.6465554 28.5910503,13.6444192 35.0416716,13.6538837 C35.4110503,13.6545364 35.7788018,13.7671305 36.1491568,13.802051 C36.6409024,13.8483941 37.1534763,13.7984611 37.6230917,13.9214987 C38.1005178,14.0464946 38.6046302,14.0282184 39.0521154,14.1900929 C39.4088018,14.319005 39.7570266,14.3601264 40.1176183,14.4074485 C40.1827071,14.4159339 40.2435651,14.4619506 40.3053994,14.4929548 C40.3961982,14.5379925 40.4814645,14.6104444 40.5768195,14.6274151 C40.8114645,14.6685364 41.0529438,14.6577665 41.2472337,14.8447707 C41.309068,14.9038418 41.4317604,14.9084109 41.5287426,14.9195071 C41.6966716,14.9397414 41.8714349,14.9247289 41.9759024,15.1074904 C41.9957544,15.1427372 42.0725592,15.1453481 42.123003,15.1626452 C42.4227367,15.2661013 42.741997,15.3336577 43.0156953,15.484436 C43.2099852,15.591482 43.3993935,15.6711138 43.6063757,15.7455238 C43.8455769,15.8313565 44.0401923,16.035005 44.2634467,16.1730552 C44.4535059,16.2908711 44.6601627,16.3819255 44.8528254,16.4961515 C45.0591568,16.6191891 45.2671154,16.7435322 45.4581509,16.8890887 C45.8187426,17.16421 46.1653402,17.4579339 46.5220266,17.738277 C46.8035355,17.9592226 47.098713,18.1628711 47.3727367,18.3923021 C47.4990089,18.498369 47.5852515,18.6511054 47.6965533,18.776754 C47.8085059,18.9030552 47.9367308,19.015323 48.0438018,19.1452142 C48.3764053,19.5499004 48.7005473,19.9614402 49.0321746,20.3671054 C49.1053994,20.4562017 49.2101923,20.5204946 49.2775592,20.6135071 C49.5079734,20.9310552 49.7276479,21.256436 49.9522041,21.5788795 C49.9727071,21.6072728 50.0042751,21.6291389 50.0211982,21.659164 C50.2789497,22.1085615 50.5461391,22.5530636 50.7879438,23.0106201 C50.9317899,23.2831305 50.9815828,23.6228711 51.1719675,23.8490385 C51.4049852,24.126118 51.2861982,24.5539757 51.6236834,24.7621933 C51.6539497,24.7811222 51.6484172,24.8630385 51.6536243,24.9162351 C51.6685947,25.0754987 51.6523225,25.2474904 51.8410799,25.3290803 C51.8612574,25.3375657 51.8762278,25.3711808 51.8827367,25.3959841 C51.979068,25.7409464 52.0685651,26.0885197 52.170429,26.4321766 C52.2098077,26.5653314 52.2742456,26.6916326 52.3308728,26.8192393 C52.3448669,26.8512226 52.3858728,26.8730887 52.3936834,26.905072 C52.500429,27.3414151 52.5996893,27.77939 52.7080621,28.2150803 C52.7542751,28.4011054 52.8154586,28.5828879 52.870784,28.7666285 C52.8893343,28.827005 52.9176479,28.8850971 52.9283876,28.9464527 C53.0419675,29.5773063 53.114216,30.2186033 53.2740089,30.8373816 C53.464068,31.5739757 53.3648077,32.3559339 53.5538905,33.058913 C53.8877959,34.3020176 53.684068,35.5447958 53.7914645,36.7813732 C53.8048077,36.9354151 53.8656657,37.0852142 53.8988609,37.238277 C53.9200148,37.3335741 53.9424704,37.4308293 53.9434467,37.5277582 C53.9476775,38.0505866 53.9636243,38.5743941 53.9408432,39.0965699 C53.8998373,40.0537833 53.8272633,41.0096912 53.7823521,41.9665782 C53.7514349,42.6238669 53.8223817,43.2958418 53.7088018,43.9361598 C53.5786243,44.6707958 53.5525888,45.4106536 53.4468195,46.1390887 C53.3703402,46.6658335 53.3296598,47.2164025 53.1796302,47.7176912 C53.0546598,48.1354318 53.0702811,48.577323 52.9150444,48.9588377 C52.7715237,49.3126117 52.7611095,49.6686703 52.6732396,50.018528 C52.5707249,50.4251724 52.3875,50.8112561 52.2413757,51.2071305 C52.216642,51.2737079 52.2046006,51.3451808 52.182145,51.4127372 C52.1216124,51.5954987 52.0575,51.7776075 51.9959911,51.960369 C51.9761391,52.0194402 51.944571,52.0788377 51.9429438,52.1382351 C51.9374112,52.3392728 51.9224408,52.5243188 51.7463757,52.6715071 C51.6848669,52.723072 51.6982101,52.8575322 51.6611095,52.9476075 C51.6044822,53.0866368 51.5345118,53.2210971 51.4684467,53.35621 C51.4570562,53.3793816 51.4300444,53.3956996 51.4215828,53.4188711 C51.3236243,53.6969297 51.2448669,53.9831473 51.1273817,54.2520678 C51.0125,54.5144611 50.8569379,54.759231 50.7238314,55.0137916 C50.5874704,55.2739004 50.4621746,55.54021 50.320932,55.7973816 C50.2141864,55.9925448 50.0924704,56.1792226 49.9730325,56.3665531 C49.7354586,56.7392561 49.4985355,57.111959 49.2534763,57.4791138 C49.1796006,57.5890971 49.0777367,57.6794987 48.9914941,57.7816494 C48.6312278,58.2101598 48.2803994,58.647482 47.9093935,59.066528 C47.6500148,59.3589464 47.3727367,59.637005 47.0860207,59.9026619 C46.9467308,60.0322268 46.7586243,60.1069632 46.609571,60.2277163 C46.3306657,60.4535573 46.0722633,60.7055071 45.7894527,60.9254736 C45.6104586,61.0648293 45.3989201,61.1614318 45.2078846,61.2861013 C44.9738905,61.4385113 44.7506361,61.6091975 44.5130621,61.7557331 C44.3210503,61.8738753 44.114068,61.9681933 43.9139201,62.0732812 C43.621997,62.2253649 43.3326775,62.3816912 43.0378254,62.5279004 C42.8425592,62.6248293 42.6440385,62.7175155 42.4399852,62.7938837 C42.1223521,62.9123523 41.7975592,63.010913 41.4782988,63.126118 C41.3344527,63.1780092 41.1974408,63.249482 41.0575,63.3131222 C41.0337426,63.3242184 41.0151923,63.3490218 40.9904586,63.3545699 C40.544926,63.4596577 40.0984172,63.5598502 39.6532101,63.6668962 C39.483003,63.7080176 39.3183284,63.7772059 39.1464941,63.8091891 C38.8396006,63.8663021 38.5196893,63.8705448 38.2225592,63.9570301 C37.3588314,64.2086536 36.4606065,64.1335908 35.5910207,64.2647874 C33.7301331,64.546436 31.8679438,64.3731389 30.0086834,64.3878251 C25.2676183,64.4256828 20.5262278,64.3940259 15.7848373,64.4083858 C15.3275888,64.4096912 15.0922929,64.1714485 15.0971746,63.7135657 C15.1183284,61.5680762 15.1066124,59.4222603 15.1066124,57.2764444 L15.1066124,50.6497079 L15.1066124,42.67021 L15.1066124,39.0188962 Z" id="Fill-6" fill="#D3E7F7"></path>
            </g>
        </g>
    </g>
</svg>