<?xml version="1.0" encoding="UTF-8"?>
<svg width="90px" height="21px" viewBox="0 0 90 21" version="1.1" xmlns="http://www.w3.org/2000/svg" xmlns:xlink="http://www.w3.org/1999/xlink">
    <!-- Generator: Sketch 63.1 (92452) - https://sketch.com -->
    <title>Group 37</title>
    <desc>Created with Sketch.</desc>
    <g id="Home" stroke="none" stroke-width="1" fill="none" fill-rule="evenodd">
        <g id="Home-v2" transform="translate(-651.000000, -5238.000000)" fill="#D3E7F7">
            <g id="Group-37" transform="translate(651.000000, 5238.000000)">
                <path d="M71.09778,6.64524 C71.22708,6.48324 71.32908,6.34554 71.44128,6.21654 C71.85768,5.73714 72.39048,5.50524 73.02048,5.47464 C73.72908,5.43984 74.39208,5.55864 74.95878,6.02244 C75.18588,6.20814 75.37848,6.42624 75.53538,6.67284 C75.60018,6.77454 75.63018,6.77514 75.70398,6.67794 C76.06908,6.19614 76.50498,5.79744 77.09598,5.61624 C77.87658,5.37654 78.65808,5.40564 79.41498,5.70474 C80.13078,5.98734 80.48028,6.57684 80.64738,7.29624 C80.75418,7.75614 80.77398,8.22504 80.77608,8.69394 C80.78118,9.95904 80.77788,11.22444 80.7853946,12.48924 C80.78628,12.63804 80.74578,12.68004 80.59848,12.67584 C80.24838,12.66504 79.89768,12.66534 79.54758,12.67584 C79.40598,12.67974 79.36968,12.63924 79.37148,12.49794 C79.38378,11.36364 79.39128,10.22904 79.39158,9.09444 C79.39188,8.58954 79.35858,8.08734 79.19508,7.60164 C78.83388,6.52584 77.61018,6.10164 76.65678,6.72744 C76.26588,6.98424 76.10598,7.38054 76.01658,7.81584 C75.94698,8.15514 75.93828,8.49924 75.93858,8.84394 C75.93978,10.06194 75.93678,11.27934 75.94218,12.49704 C75.94278,12.63504 75.91008,12.68034 75.76608,12.67614 C75.41598,12.66474 75.06528,12.66474 74.71518,12.67614 C74.57478,12.68034 74.55138,12.63264 74.55198,12.50484 C74.55648,11.31684 74.55528,10.12884 74.55318,8.94084 C74.55198,8.37174 74.47878,7.81704 74.19378,7.30944 C73.63218,6.30954 72.54168,6.32754 71.88018,6.69954 C71.49888,6.91404 71.31378,7.27854 71.20668,7.68624 C71.12628,7.99194 71.09748,8.30484 71.09778,8.62104 C71.09838,9.91014 71.09538,11.19894 71.10108,12.48804 C71.10198,12.63174 71.07168,12.68154 70.91868,12.67644 C70.56888,12.66384 70.21788,12.66774 69.86778,12.67494 C69.74988,12.67734 69.70458,12.65484 69.70458,12.52254 C69.70758,10.28304 69.70518,8.04384 69.7012752,5.80464 C69.70098,5.70384 69.71448,5.65524 69.83388,5.65794 C70.21368,5.66604 70.59378,5.66574 70.97388,5.66034 C71.08098,5.65884 71.10168,5.69964 71.09958,5.79534 C71.09448,6.06774 71.09778,6.34044 71.09778,6.64524" id="Fill-1"></path>
                <path d="M37.32798,7.97442 C37.93938,7.97442 38.55078,7.97262 39.16218,7.97652 C39.26508,7.97712 39.30228,7.96842 39.27858,7.84362 C39.14298,7.12332 38.67408,6.63012 37.95798,6.47352 C37.71318,6.41982 37.46538,6.39792 37.21548,6.40962 C36.33228,6.45132 35.64078,6.99012 35.41638,7.79982 C35.37828,7.93752 35.39028,7.98042 35.54718,7.97832 C36.14058,7.96932 36.73428,7.97442 37.32798,7.97442 L37.32798,7.97442 Z M40.88028,11.02812 C40.64418,11.47242 40.40658,11.91612 40.17288,12.36192 C40.13748,12.42942 40.07838,12.44592 40.01838,12.46932 C39.40728,12.70722 38.76888,12.79602 38.11848,12.80202 C37.01628,12.81192 35.98878,12.56172 35.09148,11.89032 C33.91758,11.01132 33.40428,9.55122 33.79278,8.08242 C34.18278,6.60732 35.18058,5.76372 36.65988,5.47872 C37.43268,5.32962 38.19618,5.37732 38.93088,5.68482 C40.15098,6.19542 40.92768,7.39572 40.90668,8.72112 C40.90458,8.84742 40.85778,8.86452 40.75008,8.86392 C40.04898,8.86002 39.34818,8.86182 38.64738,8.86182 L35.52888,8.86182 C35.29968,8.86182 35.30448,8.86152 35.32458,9.09732 C35.47968,10.92162 36.83958,11.81412 38.38338,11.79702 C39.26808,11.78712 40.08198,11.56362 40.80078,11.03322 C40.81788,11.02062 40.83888,11.01282 40.85808,11.00262 L40.88028,11.02812 Z" id="Fill-3"></path>
                <path d="M66.35973,11.67639 C66.31833,11.72889 66.30333,11.74509 66.29163,11.76339 C65.74173,12.62379 64.92513,12.90879 63.94953,12.84519 C63.70683,12.82959 63.46593,12.79899 63.23013,12.73269 C62.33253,12.47919 61.86663,11.84049 61.65573,10.97289 C61.54983,10.53729 61.52313,10.09269 61.52103,9.64689 C61.51443,8.37009 61.51563,7.09299 61.5078076,5.81589 C61.50693,5.68659 61.53273,5.64249 61.67103,5.64639 C62.02113,5.65779 62.37213,5.65779 62.72223,5.64639 C62.86893,5.64189 62.90973,5.67969 62.90883,5.83029 C62.90193,7.01229 62.90343,8.19459 62.90583,9.37659 C62.90673,9.82269 62.93373,10.26669 63.08133,10.69389 C63.29163,11.30199 63.76323,11.63469 64.40193,11.68509 C65.66073,11.78409 66.33723,10.83099 66.35283,9.81669 C66.37293,8.49249 66.36093,7.16739 66.35523,5.84289 C66.35433,5.69049 66.38433,5.63919 66.54693,5.64579 C66.89673,5.66019 67.24743,5.65389 67.59783,5.64819 C67.70733,5.64639 67.75053,5.66829 67.75053,5.79249 C67.74663,8.03199 67.74693,10.27119 67.74993,12.51039 C67.74993,12.61719 67.72713,12.65409 67.61373,12.65199 C67.24563,12.64449 66.87693,12.64299 66.50913,12.65229 C66.37563,12.65589 66.35343,12.60609 66.35733,12.48849 C66.36543,12.23349 66.35973,11.97819 66.35973,11.67639" id="Fill-5"></path>
                <path d="M51.47121,6.57024 C51.70191,6.33684 51.90561,6.10614 52.15491,5.92104 C52.80381,5.43924 53.53431,5.38464 54.29361,5.53164 C54.90831,5.65074 55.45551,5.90874 55.85691,6.41184 C56.22591,6.87444 56.29881,7.42884 56.30361,7.99164 C56.31651,9.42894 56.31291,10.86624 56.31711,12.30354 C56.31831,12.66744 56.32131,12.66744 55.96371,12.66744 C55.67271,12.66744 55.38141,12.66084 55.09071,12.67044 C54.95811,12.67494 54.92061,12.63774 54.92121,12.50244 C54.92691,11.33844 54.92481,10.17414 54.92511,9.01014 C54.92541,8.51634 54.90291,8.02644 54.74961,7.55034 C54.53481,6.88374 54.06531,6.54534 53.38671,6.48174 C53.06721,6.45174 52.74561,6.45654 52.43361,6.55434 C51.87591,6.72954 51.53361,7.20384 51.49671,7.88904 C51.44001,8.94564 51.47871,10.00314 51.47451,11.06034 C51.47241,11.54124 51.47751,12.02244 51.49071,12.50334 C51.49461,12.64074 51.45261,12.67374 51.32121,12.67044 C50.97111,12.66174 50.62041,12.66114 50.27031,12.67074 C50.13111,12.67434 50.09031,12.63534 50.09091,12.49314 C50.09511,11.26404 50.09241,10.03434 50.08911,8.80464 C50.08641,7.81314 50.08341,6.82104 50.0716699,5.82894 C50.07021,5.68584 50.11041,5.65104 50.24841,5.65434 C50.61051,5.66364 50.97291,5.66094 51.33501,5.65314 C51.44631,5.65104 51.47691,5.68494 51.47361,5.79354 C51.46611,6.05214 51.47121,6.31134 51.47121,6.57024" id="Fill-7"></path>
                <path d="M43.57878,6.63291 C43.77528,6.37941 43.94958,6.17751 44.15718,6.00711 C44.86758,5.42301 45.67908,5.38011 46.53138,5.56791 C46.76928,5.62041 46.99578,5.70861 47.21358,5.81841 C47.98308,6.20691 48.35388,6.85341 48.38898,7.69341 C48.45648,9.31401 48.39708,10.93581 48.42858,12.55671 C48.43098,12.67401 48.37308,12.67611 48.28668,12.67551 C47.91858,12.67281 47.55048,12.66831 47.18238,12.67731 C47.04888,12.68091 47.02968,12.62841 47.02998,12.51291 C47.03388,11.34861 47.03478,10.18461 47.03208,9.02061 C47.03088,8.58081 47.00838,8.14251 46.89858,7.71351 C46.70268,6.94581 46.21038,6.53241 45.42078,6.48081 C45.17148,6.46461 44.92218,6.46850944 44.67648,6.52401 C44.07798,6.65901 43.71498,7.07181 43.61808,7.71561 C43.58448,7.94001 43.57848,8.16471 43.57878,8.39031 C43.58058,9.75081 43.57938,11.11071 43.58658,12.47061 C43.58748,12.62421 43.56228,12.68691 43.38918,12.67881 C43.04538,12.66351 42.70008,12.66741 42.35598,12.67761 C42.22098,12.68181 42.18948,12.64251 42.19008,12.51021 C42.19488,11.03751 42.19398,9.56421 42.19248,8.09151 C42.19158,7.33731 42.18948,6.58311 42.17958,5.82891 C42.17778,5.69571 42.21108,5.65611 42.34668,5.65941 C42.71448,5.66781 43.08288,5.66361 43.45098,5.65671 C43.55298,5.65491 43.58328,5.68701 43.58088,5.78781 C43.57458,6.05301 43.57878,6.31881 43.57878,6.63291" id="Fill-9"></path>
                <path d="M32.11182,7.91289 C32.11932,9.26589 32.09322,10.87479 32.13702,12.48309 C32.14062,12.62139 32.10792,12.66819 31.96392,12.66369 C31.61412,12.65349 31.26342,12.65259 30.91362,12.66399 C30.76212,12.66909 30.72762,12.62019 30.72792,12.47469 C30.73122,10.26039 30.72942,8.04579 30.72732,5.83179 C30.72642,4.82229 30.72432,3.81309 30.71682,2.80389 C30.71592,2.67669 30.73812,2.62749 30.87942,2.63139 C31.23522,2.64099 31.59162,2.63859 31.94742,2.62749 C32.08182,2.62329 32.11542,2.66139 32.11482,2.79489 C32.11032,4.41579 32.11182,6.03639 32.11182,7.91289" id="Fill-11"></path>
                <path d="M28.65816,7.66095 C28.66056,9.27045 28.64556,10.87995 28.68396,12.48945 C28.68756,12.63405 28.65576,12.68325 28.50306,12.67815 C28.15296,12.66645 27.80226,12.66645 27.45216,12.67815 C27.30486,12.68295 27.27816,12.63105 27.27846,12.49755 C27.28086,11.03055 27.27786,9.56385 27.27546,8.09685 C27.27276,6.34455 27.27096,4.59255 27.2628509,2.84055 C27.26226,2.69715 27.29106,2.64525 27.44436,2.65005 C27.79416,2.65995 28.14516,2.65665 28.49496,2.64525 C28.63116,2.64105 28.66176,2.68275 28.66116,2.81475 C28.65666,4.42995 28.65816,6.04545 28.65816,7.66095" id="Fill-13"></path>
                <path d="M23.7669,9.1671 C23.7669,8.0565 23.769,6.9459 23.7639,5.8353 C23.7636,5.7069 23.7879,5.6595 23.9277,5.664 C24.2601,5.6751 24.5928,5.6748 24.9252,5.664 C25.0719,5.6595 25.1151,5.6994 25.1139,5.8497 C25.107,6.8418 25.1106,7.8336 25.1106,8.8254 C25.11,10.0488 25.107,11.2725 25.1115,12.4959 C25.1118,12.6327 25.0812,12.681 24.9357,12.6759 C24.5976,12.6645 24.2586,12.6666 23.9205,12.6753 C23.7948,12.6783 23.7624,12.6414 23.7629919,12.5169 C23.7678,11.4003 23.766,10.2837 23.766,9.1671 L23.7669,9.1671 Z" id="Fill-15"></path>
                <path d="M59.6856,9.18762 C59.6856,10.28562 59.6829,11.38362 59.6886,12.48162 C59.6895,12.62922 59.6673,12.69012 59.4987,12.68202 C59.1552,12.66642 58.8105,12.67392 58.4664,12.67992 C58.365,12.68142 58.3374,12.65142 58.3374,12.55032 C58.3413,10.30662 58.3422,8.06322 58.3398,5.81952 C58.3395,5.70672 58.3752,5.67972 58.4814,5.68122 C58.8315,5.68722 59.1819,5.68902 59.5317,5.68092 C59.6571,5.67792 59.6907,5.71632 59.6901079,5.84022 C59.6856,6.95622 59.6874,8.07192 59.6874,9.18762 L59.6856,9.18762 Z" id="Fill-17"></path>
                <path d="M23.4402559,3.75861 C23.44146,3.25641 23.86506,2.85321 24.38916,2.85530183 C24.87636,2.85741 25.26846,3.28401 25.2654771,3.80931 C25.26276,4.32891 24.85986,4.76181 24.38046,4.76001559 C23.85216,4.75821 23.43876,4.31781 23.4402559,3.75861" id="Fill-19"></path>
                <path d="M59.8408828,3.80343 C59.84208,4.32993 59.45238,4.76043 58.97058,4.76493 C58.43208,4.77033 58.01388,4.33173 58.0156742,3.76323 C58.01718,3.26553 58.42788,2.87313 58.95108,2.86923 C59.44818,2.86533 59.83968,3.27633 59.8408828,3.80343" id="Fill-21"></path>
                <path d="M66.48072,16.89972 C66.34722,16.83432 66.23832,16.77942 66.12792,16.72782 C65.85672,16.60032 65.57292,16.55292 65.27892,16.61802 C64.68942,16.74822 64.33242,17.29812 64.41132,17.94342 C64.52592,18.88092 65.33562,19.38522 66.29712,19.11462 C66.44832,19.07202 66.59502,19.01352 66.74772,18.96102 C66.65562,19.49352 66.46212,19.66842 65.88552,19.74732 C65.00082,19.86852 64.08912,19.40652 63.75912,18.67002 C63.27042,17.58042 63.99912,16.28952 65.20212,16.09782 C65.60382,16.03362 65.99472,16.09992 66.38952,16.13892 C66.45762,16.14552 66.48162,16.17762 66.48102,16.24212 C66.47982,16.45392 66.48072,16.66572 66.48072,16.89972" id="Fill-23"></path>
                <path d="M89.63976,14.18067 C59.79186,14.17587 29.94396,14.17587 0.09606,14.18007 C0.05826,14.18007 0.02676,14.17827 6e-05,14.17407 L6e-05,14.58717 C0.02796,14.58717 0.06186,14.58807 0.10416,14.58807 C19.57506,14.58747 39.04626,14.58747 58.51746,14.58747 C58.89756,14.58747 59.27766,14.59467 59.65776,14.58417 C59.80386,14.57997 59.84646,14.61717 59.84586,14.76867 C59.84016,16.32507 59.84526,17.88177 59.83836,19.43787 C59.83746,19.60377 59.88336,19.65477 60.04656,19.67907 C60.63126,19.76667 61.21236,19.83117 61.79346,19.66227 C62.98746,19.31547 63.53016,17.90487 62.87556,16.84227 C62.48226,16.20387 61.81356,16.06767 61.18566,16.14747 C61.12626,16.15467 61.09296,16.18887 61.06536,16.23957 C60.96666,16.42167 60.86466,16.60137 60.74976,16.80687 C60.85626,16.77777 60.93816,16.75497 61.02006,16.73307 C61.73466,16.54107 62.30886,16.92627 62.39886,17.66127 C62.42196,17.85027 62.42586,18.04167 62.38776,18.22917 C62.22936,19.01457 61.45806,19.43937 60.69786,19.16787 C60.56856,19.12197 60.51726,19.05807 60.51786,18.91197 C60.52416,17.53947 60.52536,16.16697 60.51696,14.79477 C60.51576,14.61447 60.57336,14.58417 60.73776,14.58417 C66.02406,14.58837 71.31066,14.58747 76.59726,14.58747 L89.62356,14.58747 C89.82606,14.58747 89.85186,14.58777 89.85516,14.73657 L89.85516,14.04477 C89.84046,14.15037 89.78766,14.18067 89.63976,14.18067" id="Fill-27"></path>
                <path d="M21.35943,9.60774 C21.20883,8.50854 21.06303,7.40844 20.91573,6.30894 C20.80293,5.46774 20.68713,4.62714 20.58033,3.78564 C20.54013,3.46794 20.51703,3.14784 20.49633,2.82774 C20.48943,2.72604 20.45313,2.70144 20.35713,2.70204 C19.75113,2.70594 19.14543,2.70384 18.53943,2.70414 C18.48243,2.70414 18.42123,2.68944 18.41253,2.78274 C18.35463,3.40284 18.06663,3.95004 17.84733,4.51704 C17.14683,6.32994 16.43403,8.13804 15.72603,9.94764 C15.71553,9.97464 15.70353,10.00104 15.68613,10.04274 C15.61473,9.97644 15.59973,9.89394 15.56943,9.82284 C14.66673,7.70844 13.76613,5.59314 12.86433,3.47814 C12.50283,2.63004 12.04233,1.84644 11.36313,1.20894 C10.91073,0.78474 10.39923,0.46104 9.79383,0.30024 L8.58213,0.30024 C8.88753,0.36384 9.18063,0.47604 9.45303,0.65514 C10.07913,1.06734 10.34493,1.69404 10.47303,2.39964 C10.58673,3.02334 10.51263,3.64194 10.42773,4.26084 C10.27743,5.36004 10.12533,6.45894 9.97803,7.55844 C9.75603,9.21654 9.55233,10.87704 9.24423,12.52254 C9.21963,12.65514 9.25773,12.67134 9.37173,12.66924 C9.69243,12.66384 10.01343,12.65904 10.33383,12.67134 C10.48203,12.67674 10.52673,12.62454 10.53573,12.48534 C10.57503,11.88684 10.64283,11.29074 10.72053,10.69644 C10.85673,9.65514 10.99503,8.61384 11.13243,7.57284 C11.26893,6.53784 11.40543,5.50224 11.54253,4.46694 C11.55183,4.39764 11.56533,4.32864 11.58393,4.21794 C11.86623,4.88934 12.13173,5.52234 12.39903,6.15414 C13.14663,7.92234 13.89333,9.69114 14.64423,11.45814 C14.86413,11.97594 15.20163,12.40464 15.64533,12.75474 C15.77583,12.85734 15.80223,12.81924 15.85173,12.69204 C16.81173,10.22424 17.77563,7.75704 18.73863,5.28984 C18.87393,4.94334 19.00953,4.59684 19.17363,4.25214 C19.21983,4.63314 19.26633,5.01384 19.31163,5.39454 C19.43793,6.46134 19.57113,7.52694 19.68813,8.59464 C19.82973,9.88674 20.03493,11.17194 20.09913,12.47154 C20.10633,12.61914 20.14233,12.67644 20.30403,12.67164 C20.74323,12.65934 21.18333,12.66144 21.62253,12.67104 C21.76653,12.67404 21.79293,12.62754 21.77043,12.49734 C21.60453,11.53824 21.49143,10.57164 21.35943,9.60774" id="Fill-30"></path>
                <path d="M67.5297,17.17422 C67.5297,18.41532 67.5273,19.65612 67.5327,20.89722 L68.2047,20.89722 L68.2047,20.89362 C68.2113,19.92552 68.2077,18.95682 68.208,17.98872 C68.208,17.86392 68.2074,17.73912 68.2125,17.61432 C68.2329,17.12862 68.4474,16.81992 68.8644,16.67262 C69.2856,16.52412 69.7623,16.64442 70.0527,16.97262 C70.4454,17.41722 70.5063,18.24312 70.1832,18.74172 C69.9099,19.16322 69.3294,19.34502 68.7702,19.18302 C68.6682,19.15362 68.5671,19.12092 68.4654,19.09002 C68.4579,19.09782 68.4504,19.10532 68.4423,19.11222 C68.5479,19.27002 68.6553,19.42632 68.7576,19.58622 C68.7963,19.64652 68.8479,19.67502 68.9142,19.69122 C69.75,19.89162 70.6017,19.48512 70.9617,18.71262 C71.3514,17.87712 71.1363,16.90902 70.4481,16.40082 C69.8235,15.93972 68.9568,15.98022 68.3604,16.49862 C68.3121,16.54062 68.265,16.58322 68.1867,16.65282 C68.1867,16.50342 68.1828,16.38732 68.1879,16.27152 C68.1918,16.18602 68.1582,16.15692 68.0742,16.15992 C67.9317,16.16472 67.7889,16.16652 67.6467,16.15932 C67.5498,16.15452 67.5267,16.19292 67.5279,16.28292 C67.5327,16.58022 67.5297,16.87722 67.5297,17.17422" id="Fill-35"></path>
            </g>
        </g>
    </g>
</svg>