<?xml version="1.0" encoding="UTF-8"?>
<svg width="182px" height="59px" viewBox="0 0 182 59" version="1.1" xmlns="http://www.w3.org/2000/svg" xmlns:xlink="http://www.w3.org/1999/xlink">
    <!-- Generator: Sketch 63.1 (92452) - https://sketch.com -->
    <title>Group 16</title>
    <desc>Created with Sketch.</desc>
    <defs>
        <polygon id="path-1" points="0.072142544 0.0992479728 21.9888889 0.0992479728 21.9888889 31.8045706 0.072142544 31.8045706"></polygon>
    </defs>
    <g id="Customer" stroke="none" stroke-width="1" fill="none" fill-rule="evenodd">
        <g id="Customer-Overview" transform="translate(-255.000000, -1396.000000)">
            <g id="Group-16" transform="translate(255.000000, 1396.000000)">
                <path d="M37.4112354,24.6036228 C37.419546,23.0597942 36.3504424,21.9636406 34.8198204,21.9468886 C33.2676404,21.9301366 32.1622401,22.9852919 32.1358424,24.5092826 C32.1081249,26.1104207 33.193947,27.2237672 34.780664,27.2209072 C36.3176654,27.2180362 37.4026075,26.1386346 37.4112354,24.6036228 M13.6016336,27.2209017 C15.161073,27.2499973 16.2787922,26.2098306 16.3194886,24.6917912 C16.3621647,23.091094 15.2825021,21.9563667 13.7074441,21.9468886 C12.156364,21.9376309 11.0639425,22.9982967 11.0450242,24.5311043 C11.0258859,26.0846315 12.0789309,27.192247 13.6016336,27.2209017 M42.6812516,13.9537621 C42.6504543,15.5139019 43.6907405,16.6351835 45.2059639,16.6753001 C46.8140189,16.7180618 47.944057,15.6468157 47.9563759,14.068381 C47.9684748,12.5199235 46.9059706,11.4220065 45.3753486,11.4015074 C43.8211888,11.3810082 42.7111689,12.4321959 42.6812516,13.9537621 M34.858097,11.4015074 C33.2979976,11.3708689 32.1763188,12.4108151 32.1360624,13.925989 C32.0931663,15.5341806 33.1642497,16.6640586 34.7423874,16.6753001 C36.2939075,16.6863211 37.3883088,15.6283004 37.4107468,14.096154 C37.4334048,12.5443902 36.3792598,11.431705 34.858097,11.4015074 M24.1710206,16.6753001 C25.7249605,16.6957992 26.8336605,15.6450524 26.8651177,14.1223841 C26.8972348,12.5657711 25.8534289,11.441624 24.3386455,11.4017278 C22.7312504,11.359407 21.6012123,12.4315347 21.5904333,14.0095286 C21.5798743,15.561072 22.6390787,16.6552418 24.1710206,16.6753001 M11.0450242,13.9718366 C11.0208263,15.5282292 12.0681519,16.6417961 13.5877749,16.6753001 C15.1890105,16.7105674 16.314649,15.6294025 16.3203896,14.0503065 C16.325868,12.5080208 15.2536847,11.4156143 13.7213028,11.4015074 C12.1702227,11.3874004 11.068782,12.4452008 11.0450242,13.9718366 M32.1362824,40.4038405 C32.1362824,42.1229039 32.1279231,43.842408 32.1387022,45.5616918 C32.1490412,47.2199189 33.1842679,48.3013043 34.747007,48.311068 C36.3205251,48.3207014 37.3993078,47.2463695 37.4052473,45.6132703 C37.4175662,42.1381129 37.4175662,38.6627351 37.4052473,35.1875777 C37.3990878,33.557344 36.3170054,32.4823508 34.7437073,32.4930708 C33.1820681,32.5041725 32.1488213,33.5857783 32.1387022,35.2455484 C32.1281431,36.9648322 32.1362824,38.6843364 32.1362824,40.4038405 M11.0456841,40.3590951 C11.0456841,42.0785992 11.0388647,43.797883 11.0474439,45.5173872 C11.0560232,47.2415202 12.1013689,48.3259915 13.7215228,48.3111563 C15.2792024,48.2962346 16.3113493,47.2117634 16.3157489,45.5482461 C16.3245481,42.1094582 16.3252081,38.6706703 16.315309,35.2321027 C16.3102494,33.5780636 15.2627039,32.4988824 13.697325,32.4931304 C12.1242469,32.4876409 11.0615227,33.5619729 11.0485438,35.2012438 C11.035345,36.9205276 11.0456841,38.6400317 11.0456841,40.3590951 M42.6816915,35.1298274 C42.6816915,38.5329071 42.6799317,41.9364277 42.6825714,45.3395074 C42.6838913,47.1901621 43.6623631,48.3004226 45.2910962,48.3110784 C46.9405075,48.3215831 47.9526362,47.2196985 47.9532962,45.3935106 C47.9561559,38.5503204 47.9561559,31.7073506 47.9532962,24.8643809 C47.9526362,23.0379725 46.9400676,21.9367492 45.2902163,21.9476883 C43.6619231,21.9585709 42.6838913,23.0692723 42.6825714,24.9201474 C42.6799317,28.3232271 42.6816915,31.7265272 42.6816915,35.1298274 M26.8637978,35.1860348 C26.8637978,31.7095548 26.8686374,28.2332953 26.861598,24.756595 C26.8578583,23.0265106 25.8162523,21.9378513 24.2015979,21.9477031 C22.6386388,21.9574688 21.5954928,23.0386338 21.593953,24.6984038 C21.5869136,31.6511433 21.5869136,38.6041031 21.593953,45.557063 C21.5954928,47.2179351 22.636219,48.2999818 24.1980782,48.3110859 C25.8142724,48.3220239 26.8576384,47.2346871 26.861378,45.5054844 C26.8686374,42.0658148 26.8637978,38.6259248 26.8637978,35.1860348 M29.3874103,58.8566221 C20.784426,58.8566221 12.1816617,58.8566221 3.57845742,58.8566221 C1.44223004,58.8559432 0.500714936,57.9215786 0.500714936,55.8000266 C0.5,38.4844145 0.5,21.168582 0.500934916,3.85274958 C0.500934916,1.8129737 1.46796772,0.857448693 3.52940184,0.857448693 C20.8449205,0.856622114 38.1606592,0.856622114 55.4763978,0.857448693 C57.5323325,0.857448693 58.4989253,1.81650044 58.4991453,3.85826011 C58.5,21.1740926 58.5,38.489925 58.4993653,55.8057575 C58.4991453,57.9224603 57.5547704,58.8566221 55.4159033,58.8566221 C46.7396656,58.8566221 38.0636479,58.8566221 29.3874103,58.8566221" id="Fill-1" fill="#D3E7F7"></path>
                <path d="M74.7327383,30.2373621 C74.7327383,31.1232673 74.6770519,32.0138482 74.7429222,32.8948553 C74.9643677,35.8533648 77.2416598,38.1659805 79.8840554,38.1686546 C82.5268844,38.171324 84.8468622,35.8656103 85.025622,32.9055422 C85.1343947,31.1036746 85.1372115,29.2824368 85.0215051,27.481237 C84.8405785,24.6656658 82.659925,22.4011414 80.1653042,22.262656 C77.6405652,22.1223896 75.4768126,23.9881564 74.855595,26.8170864 C74.606848,27.9507958 74.7466057,29.0974186 74.7327383,30.2373621 M74.696553,42.1161518 C74.696553,43.5620098 74.7076036,44.8484538 74.6937361,46.1346751 C74.6761852,47.775793 73.6112098,48.8692036 72.0671581,48.8566221 C70.5785761,48.8440447 69.5086171,47.7577587 69.5068837,46.1798721 C69.4969165,37.310355 69.4988666,28.4406152 69.5058003,19.5706528 C69.5068837,18.3436551 70.16667,17.4038697 71.2249284,17.0251502 C72.2873035,16.6450948 73.3572625,16.9396544 74.141639,17.8852286 C74.4085871,18.2069509 74.5359941,18.4857027 75.0536393,18.1869129 C80.9609481,14.77866 88.3967078,18.1860223 89.8850731,25.3676661 C90.719069,29.3913103 90.9322808,33.6064293 89.0525939,37.5207547 C86.4216823,42.9991627 80.6339801,45.0129886 75.2620841,42.3857751 C75.1370606,42.3247704 75.0109536,42.2657694 74.696553,42.1161518" id="Fill-3" fill="#D3E7F7"></path>
                <path d="M110.93561,29.8121221 L110.908059,29.8121221 C110.908059,30.6382271 110.865973,31.4669313 110.915652,32.2897874 C111.089853,35.1631773 113.201528,37.4478537 115.783307,37.5960068 C118.410427,37.7469756 120.745982,35.7791822 121.156646,32.8622561 C121.436713,30.873236 121.437797,28.8337487 121.154259,26.844512 C120.750104,24.0103264 118.54059,22.082387 115.986578,22.1224576 C113.462721,22.1618785 111.304622,24.2163111 110.953616,27.0143249 C110.838422,27.9333505 110.93561,28.8788011 110.93561,29.8121221 M126.465987,29.9035265 C126.57489,32.2211258 126.470543,34.4969217 125.427939,36.6447081 C123.347069,40.930534 119.27102,43.3141957 114.865659,42.7833138 C110.542084,42.2619623 106.661714,38.7916281 105.969898,34.2606132 C105.3987,30.5182318 105.04661,26.6545555 106.758468,23.0328193 C108.789008,18.7368133 112.972658,16.3665807 117.336584,16.9418651 C121.687927,17.5156334 125.314263,21.0145585 126.256208,25.5009543 C126.563609,26.964724 126.428457,28.4362912 126.465987,29.9035265" id="Fill-5" fill="#D3E7F7"></path>
                <g id="Group-9" transform="translate(159.500000, 16.856622)">
                    <mask id="mask-2" fill="white">
                        <use xlink:href="#path-1"></use>
                    </mask>
                    <g id="Clip-8"></g>
                    <path d="M11.2963333,14.0827145 C11.7152222,13.7962593 11.7761111,13.3336938 11.943,12.9503559 C13.551,9.25623172 15.131,5.55019034 16.7394444,1.85650759 C17.2865556,0.600121379 18.2318889,0.0479558621 19.5361111,0.135569655 C20.6272222,0.208617931 21.509,0.930493793 21.8694444,2.02599724 C22.0885556,2.69203862 21.9876667,3.32608 21.7181111,3.94886621 C18.5774444,11.2040386 15.5174444,18.4949628 12.2616667,25.6989352 C10.4954444,29.6064662 7.23344444,31.6293076 2.893,31.8021076 C1.29722222,31.8654455 0.112777778,30.6995421 0.073,29.1869352 C0.037,27.8115972 1.13855556,26.6593766 2.62833333,26.5143834 C5.58744444,26.2263834 7.69455556,24.3134455 8.26388889,21.4330041 C8.353,20.9827972 8.12855556,20.6482317 7.975,20.2915972 C5.73033333,15.0811145 3.47322222,9.87636966 1.219,4.67030069 C1.11722222,4.43504552 1.00811111,4.20265931 0.915,3.96431448 C0.299666667,2.39101793 0.885666667,0.88790069 2.33788889,0.307045517 C3.75077778,-0.25792 5.21344444,0.351624828 5.87788889,1.86202483 C7.48477778,5.51399724 9.05322222,9.18230069 10.6436667,12.8411145 C10.8261111,13.2606455 10.9247778,13.729611 11.2963333,14.0827145" id="Fill-7" fill="#D3E7F7" mask="url(#mask-2)"></path>
                </g>
                <path d="M137.70305,27.3000513 C137.703483,28.8180938 137.677677,30.3363592 137.708688,31.8537328 C137.776131,35.1598058 139.699656,37.2383356 142.900689,37.5056484 C144.554878,37.6436523 145.534423,38.6908318 145.499075,40.2822236 C145.464378,41.8317015 144.370766,42.8441014 142.718095,42.8566221 C137.25589,42.8971627 132.51582,38.1055974 132.505844,32.5098642 C132.495001,26.2898809 132.502158,20.0698977 132.504326,13.8501374 C132.504977,11.9894262 133.485606,10.8610942 135.091869,10.8566221 C136.703337,10.8521763 137.695243,11.9809543 137.702399,13.8273968 C137.711941,16.1895146 137.711941,16.1895146 139.98027,16.1895146 C140.990609,16.1895146 142.001381,16.166997 143.011286,16.1953112 C144.457292,16.2363333 145.494087,17.357977 145.499075,18.8421315 C145.504063,20.3311909 144.475291,21.4811488 143.039261,21.5154825 C141.560727,21.5504851 140.079807,21.5569506 138.601924,21.5090171 C137.918172,21.4869454 137.65816,21.6563847 137.684834,22.4135109 C137.742518,24.0405741 137.702616,25.6709816 137.70305,27.3000513" id="Fill-10" fill="#D3E7F7"></path>
                <path d="M95.5077345,26.783686 C95.5077345,22.4567201 95.5052362,18.1299769 95.5087754,13.803011 C95.510441,11.9723373 96.4833141,10.8435926 98.0332907,10.8566221 C99.5364244,10.8694332 100.499513,11.9992917 100.499513,13.755785 C100.499929,22.5202078 100.501178,31.2850761 100.496806,40.0497217 C100.495973,41.3669246 99.8895151,42.3170126 98.8408607,42.7061812 C97.8627828,43.0688408 96.7749887,42.7623177 96.0989949,41.9322994 C95.6434745,41.373162 95.4975332,40.7229142 95.5,39.986234 C95.5154375,35.5855332 95.5077345,31.1846096 95.5077345,26.783686" id="Fill-12" fill="#D3E7F7"></path>
                <path d="M155.499528,26.9145737 C155.499111,31.24513 155.501613,35.5756863 155.498069,39.9057967 C155.49661,41.7391042 154.523192,42.8687855 152.971436,42.8566221 C151.465756,42.8442611 150.502971,41.7241666 150.502345,39.9559602 C150.499218,31.2210516 150.499218,22.4861429 150.502345,13.7512343 C150.502971,11.9848114 151.468883,10.8665006 152.976648,10.8566221 C154.529029,10.8464352 155.500154,11.9850344 155.499945,13.8120993 C155.49932,18.1796651 155.499737,22.5472309 155.499528,26.9145737" id="Fill-14" fill="#D3E7F7"></path>
            </g>
        </g>
    </g>
</svg>