<?xml version="1.0" encoding="UTF-8"?>
<svg width="166px" height="64px" viewBox="0 0 166 64" version="1.1" xmlns="http://www.w3.org/2000/svg" xmlns:xlink="http://www.w3.org/1999/xlink">
    <!-- Generator: Sketch 63.1 (92452) - https://sketch.com -->
    <title>Group 13</title>
    <desc>Created with Sketch.</desc>
    <defs>
        <polygon id="path-1" points="7.89223455e-05 0.15659067 55.9733951 0.15659067 55.9733951 38.295082 7.89223455e-05 38.295082"></polygon>
        <polygon id="path-3" points="0.242374594 0.0887866173 30.54742 0.0887866173 30.54742 32.3927422 0.242374594 32.3927422"></polygon>
    </defs>
    <g id="Customer" stroke="none" stroke-width="1" fill="none" fill-rule="evenodd">
        <g id="Customer-Overview" transform="translate(-637.000000, -1393.000000)">
            <g id="Group-13" transform="translate(637.000000, 1393.000000)">
                <g id="Group-3" transform="translate(0.000000, 25.580590)">
                    <mask id="mask-2" fill="white">
                        <use xlink:href="#path-1"></use>
                    </mask>
                    <g id="Clip-2"></g>
                    <path d="M7.89223455e-05,8.10990164 C2.48665895,6.67881967 4.97613281,5.25245902 7.45929287,3.81560656 C9.44813597,2.66439344 11.4317176,1.504 13.4116162,0.337836066 C13.728884,0.151344262 13.9819616,0.0700327869 14.3526336,0.284065574 C22.4287572,4.95580328 30.5138254,9.61180328 38.5967889,14.2717377 C38.6736067,14.3158033 38.7430583,14.3729836 38.8325036,14.4359344 C38.7659458,14.6523279 38.5731122,14.6927213 38.427632,14.7766557 C35.1234165,16.6830164 31.8118349,18.5762623 28.5189315,20.5025574 C28.1145861,20.7388852 27.8375686,20.6984918 27.4668967,20.4849836 C23.664155,18.2932459 19.8477334,16.1251148 16.0518317,13.9215738 C15.5672485,13.6403934 15.212361,13.6430164 14.753033,13.940459 C13.9909062,14.4343607 13.1869506,14.8645246 12.2940758,15.383082 C13.4663357,16.055082 14.5352073,16.6691148 15.6053943,17.2807869 C19.5362532,19.527082 23.4718475,21.7649836 27.3916574,24.0291148 C27.8478285,24.292459 28.1693055,24.2811803 28.6244244,24.0167869 C37.5047667,18.8535082 46.3961582,13.7096393 55.2880758,8.5655082 C55.4777525,8.45586885 55.6461201,8.27462295 55.9639141,8.30688525 L55.9639141,8.90360656 C55.9639141,13.1916066 55.9578634,17.4798689 55.9733951,21.7676066 C55.9747002,22.2302951 55.8502659,22.4928525 55.4222437,22.7375738 C46.5040187,27.8347541 37.5934228,32.9460984 28.697033,38.0815738 C28.1493119,38.3976393 27.7799553,38.3425574 27.2706431,38.0495738 C18.3095369,32.8886557 9.33790777,27.7455738 0.367593978,22.6001311 C0.249999683,22.532459 0.122934707,22.4815738 7.89223455e-05,22.4228197 L7.89223455e-05,8.10990164 Z" id="Fill-1" fill="#D3E7F7" mask="url(#mask-2)"></path>
                </g>
                <path d="M7.89223455e-05,15.799082 C0.312874485,15.8638689 0.508075753,15.623082 0.733004437,15.4940328 C9.56257338,10.4251803 18.3905639,5.3544918 27.2038222,0.258098361 C27.792846,-0.0823606557 28.2090298,-0.0883934426 28.8019997,0.25442623 C37.6744498,5.38596721 46.5611059,10.4931148 55.4532865,15.5900328 C55.8521074,15.8184918 55.9791724,16.066623 55.977594,16.5109508 C55.9612834,20.845377 55.9581265,25.1803279 55.9810477,29.5147541 C55.9839078,30.0052459 55.801071,30.2457705 55.4033024,30.4763279 C51.1472834,32.9411148 46.8994197,35.4200656 42.6541867,37.9026885 C42.2995623,38.1099016 42.0212295,38.2085246 41.5989949,37.9640656 C33.564174,33.3117377 25.5167255,28.6801311 17.4724339,24.0440656 C17.3735179,23.9868852 17.2790742,23.922623 17.1877873,23.864918 C17.183052,23.6382951 17.3779902,23.611541 17.5034767,23.5391475 C20.828212,21.6212459 24.1595242,19.7156721 27.4774197,17.7870164 C27.8667699,17.560918 28.1466811,17.5624918 28.5389252,17.7888525 C32.3600821,19.9952787 36.1999173,22.1699672 40.0181803,24.3803279 C40.4627762,24.6376393 40.7789918,24.6326557 41.1993848,24.3643279 C41.9915021,23.8594098 42.8207128,23.4116721 43.7135876,22.8944262 C42.6207762,22.2657049 41.5968903,21.672918 40.5690583,21.0864262 C36.5771661,18.8086557 32.5792231,16.5405902 28.5975908,14.2449836 C28.160361,13.992918 27.8549315,13.9926557 27.418491,14.2462951 C18.5355179,19.405377 9.64228494,24.5476721 0.749315055,29.6891803 C0.518598732,29.8226885 0.313926783,30.0482623 7.89223455e-05,29.9745574 L7.89223455e-05,15.799082 Z" id="Fill-4" fill="#D3E7F7"></path>
                <path d="M83.7155889,31.6059541 C83.726375,32.4765115 83.7679407,33.3441836 83.9068441,34.2073967 C84.5774209,38.3849705 87.5288536,42.8114623 93.0452624,43.4047738 C97.6701119,43.9023475 101.725405,42.2884459 104.163842,37.9938885 C105.546036,35.5595279 105.845678,32.9092984 105.6439,30.1517902 C105.276911,25.1277902 101.642274,19.7803803 94.7541943,19.704577 C90.9448758,19.6628721 87.8534875,21.0651016 85.7162704,24.2960525 C84.2498932,26.5124459 83.6950691,28.9824787 83.7155889,31.6059541 M83.9386761,42.4363803 L83.9386761,43.1687082 L83.9386761,58.7828721 C83.9386761,59.6492328 83.938413,59.6492328 83.037646,59.6494951 C81.9553575,59.6494951 80.8722799,59.6311344 79.7905176,59.6578885 C79.3314526,59.6694295 79.1872878,59.5112656 79.2159629,59.0635279 C79.2520041,58.4927738 79.2246444,57.9175607 79.2246444,57.3444459 L79.2246444,16.8303475 C79.2246444,15.9367082 79.2249074,15.9367082 80.1519819,15.9367082 C81.2111198,15.9367082 82.2715731,15.9603148 83.3296586,15.9259541 C83.8047712,15.9102164 83.9623528,16.0327082 83.9505144,16.5273967 C83.9165778,17.9249049 83.9386761,19.3239869 83.9386761,20.7191344 C84.1438742,20.8151344 84.1791261,20.6331016 84.2501563,20.5381508 C86.6667585,17.3030033 89.9609772,15.7552 93.9449772,15.5020852 C97.4678076,15.2775607 100.80254,15.8567082 103.715037,17.944577 C107.655893,20.7692328 109.800476,24.6643148 110.309789,29.4527738 C110.717028,33.2846426 110.189827,36.9646426 108.208087,40.328577 C105.398451,45.0981508 101.17479,47.5458885 95.6228662,47.7329049 C92.3507458,47.8430689 89.3135509,47.1768393 86.6830691,45.119659 C85.6828599,44.3374951 84.846283,43.3982164 83.9386761,42.4363803" id="Fill-6" fill="#D3E7F7"></path>
                <g id="Group-10" transform="translate(135.220285, 15.351082)">
                    <mask id="mask-4" fill="white">
                        <use xlink:href="#path-3"></use>
                    </mask>
                    <g id="Clip-9"></g>
                    <path d="M30.5475515,22.0607213 C29.8130475,24.4565246 28.6052726,26.4756721 26.8595103,28.1714098 C24.1314279,30.8208525 20.7980111,32.1076721 17.0484105,32.3474098 C12.8847306,32.613377 9.0325309,31.7378361 5.78855943,28.9551475 C2.5864168,26.2083934 0.835129952,22.698623 0.382641838,18.5339016 C-0.0172313788,14.853377 0.393954041,11.2914098 2.18654358,7.99619672 C5.24057528,2.38308197 10.4944358,-0.215737705 16.7106228,0.117114754 C20.1892567,0.303081967 23.3429937,1.33101639 26.046084,3.57416393 C28.0759667,5.25888525 29.4789429,7.37298361 30.3804992,9.83777049 C30.567019,10.3481967 30.446794,10.4520656 29.9337987,10.4394754 C28.6676212,10.4087869 27.3998653,10.4085246 26.1339509,10.4402623 C25.6530507,10.4523279 25.4202298,10.2967869 25.2058241,9.85481967 C23.8228415,7.00209836 21.6406387,5.02334426 18.4545436,4.52183607 C11.5241094,3.43068852 6.40941521,7.49547541 5.24846751,13.4810492 C4.41267987,17.7897705 5.23899683,21.7409836 8.40536133,24.9958033 C10.3986767,27.0448525 12.9173518,27.9332459 15.7206735,28.1008525 C20.1987274,28.368918 23.3729842,26.4292459 25.3050032,22.4232131 C25.3918177,22.2430164 25.4483788,22.053377 25.7296054,22.0552131 C27.3122615,22.0667541 28.8957068,22.0607213 30.5475515,22.0607213" id="Fill-8" fill="#D3E7F7" mask="url(#mask-4)"></path>
                </g>
                <path d="M124.828685,33.6904918 C124.828685,37.9798033 124.817373,42.2688525 124.842102,46.5579016 C124.845259,47.1328525 124.691623,47.2973115 124.11549,47.2731803 C122.988742,47.2257049 121.857785,47.2372459 120.729985,47.2697705 C120.252768,47.2831475 120.099132,47.1506885 120.108603,46.6609836 C120.138593,45.0331803 120.119915,43.4043279 120.119915,41.7757377 C120.119915,34.7800656 120.113075,27.7843934 120.132543,20.7889836 C120.134121,20.2297705 120.010213,20.0485246 119.422242,20.0624262 C117.695421,20.103082 115.966758,20.0655738 114.239148,20.0852459 C113.831383,20.0897049 113.66433,20.0005246 113.677747,19.5567213 C113.708527,18.548459 113.713525,17.5378361 113.676432,16.5298361 C113.657753,16.0180984 113.867687,15.9310164 114.322016,15.9370492 C116.003326,15.9601311 117.68595,15.9218361 119.36647,15.9596066 C119.946023,15.9727213 120.14517,15.8625574 120.137804,15.2246557 C120.098869,11.9682623 120.136226,8.71081967 120.104657,5.45416393 C120.098869,4.86295082 120.274603,4.72681967 120.83653,4.74963934 C121.94039,4.7947541 123.04846,4.79108197 124.15311,4.75068852 C124.688203,4.73127869 124.846837,4.8744918 124.842365,5.42504918 C124.814742,8.68196721 124.842628,11.9391475 124.815532,15.1958033 C124.811059,15.768918 124.905503,15.981377 125.551351,15.9648525 C127.508362,15.9139672 129.467478,15.9596066 131.425541,15.9365246 C131.885921,15.9312787 132.081912,16.0220328 132.061392,16.5314098 C132.021931,17.5160656 132.021405,18.5046557 132.061655,19.4893115 C132.082175,19.9937049 131.899075,20.0925902 131.432907,20.087082 C129.451693,20.0629508 127.469953,20.0999344 125.489528,20.0624262 C124.924707,20.0516721 124.814742,20.2318689 124.81711,20.754623 C124.837367,25.0662295 124.828685,29.378623 124.828685,33.6904918" id="Fill-11" fill="#D3E7F7"></path>
            </g>
        </g>
    </g>
</svg>