<?xml version="1.0" encoding="UTF-8"?>
<svg width="20px" height="19px" viewBox="0 0 20 19" version="1.1" xmlns="http://www.w3.org/2000/svg" xmlns:xlink="http://www.w3.org/1999/xlink">
    <!-- Generator: Sketch 51 (57462) - http://www.bohemiancoding.com/sketch -->
    <title>iconspace_Podium_25px</title>
    <desc>Created with Sketch.</desc>
    <defs></defs>
    <g id="Page-1" stroke="none" stroke-width="1" fill="none" fill-rule="evenodd">
        <g id="Business-Icon-Solid-Color" transform="translate(-328.000000, -278.000000)">
            <g id="iconspace_Podium_25px" transform="translate(325.000000, 275.000000)">
                <polygon id="path" points="0 0 25 0 25 25 0 25"></polygon>
                <path d="M6,8.5 L6,9.5 C6,9.77614237 5.77614237,10 5.5,10 C5.22385763,10 5,9.77614237 5,9.5 L5,8.5 C5,6.73665767 6.30401026,5.27788325 8.000307,5.03540053 C8.00010261,5.02362488 8,5.01182442 8,5 C8,3.8954305 8.8954305,3 10,3 C11.1045695,3 12,3.8954305 12,5 C12,6.1045695 11.1045695,7 10,7 C9.26390504,7 8.62068888,6.60233856 8.2734614,6.01012555 C6.99890627,6.12460502 6,7.19564898 6,8.5 Z M17.1711646,19 L17.9552138,15.8638034 C17.984959,15.7448225 18,15.6226427 18,15.5 C18,14.6715729 17.3284271,14 16.5,14 L9.50035483,14 C9.37771212,14 9.2555323,14.015041 9.13655139,14.0447862 C8.33285903,14.2457093 7.84421799,15.0601111 8.04514108,15.8638034 L8.82919022,19 L7.22758109,19 C5.7378752,19 4.41530488,18.0359947 3.94421852,16.6067972 L3.07651904,13.9743416 C2.81746889,13.1884267 3.23747217,12.3389467 4.01462264,12.0769751 C4.16586664,12.0259918 4.32424925,12 4.48367443,12 L21.516728,12 C22.3359165,12 23,12.6715729 23,13.5 C23,13.6612231 22.974298,13.8213919 22.9238834,13.9743416 L22.0561839,16.6067972 C21.5850975,18.0359947 20.2625272,19 18.7728213,19 L17.1711646,19 Z M9.50035483,15 L16.5,15 C16.7761424,15 17,15.2238576 17,15.5 C17,15.5408809 16.9949863,15.5816075 16.9850713,15.6212678 L15.6744373,20.8638034 C15.5074997,21.5315539 14.9075251,22 14.2192236,22 L11.7811312,22 C11.0928298,22 10.4928551,21.5315539 10.3259175,20.8638034 L9.01528358,15.6212678 C8.94830922,15.3533704 9.11118956,15.0819031 9.37908702,15.0149287 C9.41874732,15.0050137 9.45947393,15 9.50035483,15 Z" id="path" fill="#3B5AFB" fill-rule="nonzero"></path>
                <path d="M23,11.49469 C22.5864371,11.1840691 22.0733015,11 21.516728,11 L4.48367443,11 C4.21560186,11 3.94933041,11.0436972 3.6951906,11.1293659 C3.43871466,11.215822 3.20563113,11.3402561 3,11.4943477 L3,10.5 C3,9.67157288 3.67157288,9 4.5,9 L21.5,9 C22.3284271,9 23,9.67157288 23,10.5 L23,11.49469 Z" id="path" fill="#44D5E9"></path>
            </g>
        </g>
    </g>
</svg>