<?xml version="1.0" encoding="UTF-8"?>
<svg width="20px" height="20px" viewBox="0 0 20 20" version="1.1" xmlns="http://www.w3.org/2000/svg" xmlns:xlink="http://www.w3.org/1999/xlink">
    <!-- Generator: Sketch 51 (57462) - http://www.bohemiancoding.com/sketch -->
    <title>User 1 Approve</title>
    <desc>Created with Sketch.</desc>
    <defs></defs>
    <g id="Page-1" stroke="none" stroke-width="1" fill="none" fill-rule="evenodd">
        <g id="User-Solid-Color" transform="translate(-178.000000, -28.000000)">
            <g id="User-1-Approve" transform="translate(175.000000, 25.000000)">
                <polygon id="Path" points="0 0 25 0 25 25 0 25"></polygon>
                <path d="M10.5,12 C8.01471863,12 6,9.98528137 6,7.5 C6,5.01471863 8.01471863,3 10.5,3 C12.9852814,3 15,5.01471863 15,7.5 C15,9.98528137 12.9852814,12 10.5,12 Z M10.5,13 C14.6421356,13 18,16.3578644 18,20.5 L18,22.5 C18,22.7761424 17.7761424,23 17.5,23 L3.5,23 C3.22385763,23 3,22.7761424 3,22.5 L3,20.5 C3,16.3578644 6.35786438,13 10.5,13 Z" id="Path" fill="#3B5AFB" fill-rule="nonzero"></path>
                <path d="M21.15,9.30004414 C21.3985281,8.96867329 21.8686292,8.901516 22.2,9.15004414 C22.5313708,9.39857228 22.5985281,9.86867329 22.35,10.2000441 L19.35,14.2000441 C19.0761528,14.5651737 18.5424019,14.6031063 18.2196699,14.2803742 L16.2196699,12.2803742 C15.9267767,11.987481 15.9267767,11.5126073 16.2196699,11.2197141 C16.5125631,10.9268208 16.9874369,10.9268208 17.2803301,11.2197141 L18.6688544,12.6082383 L21.15,9.30004414 Z" id="Path" fill="#44D5E9" fill-rule="nonzero"></path>
            </g>
        </g>
    </g>
</svg>