<?xml version="1.0" encoding="UTF-8"?>
<svg width="21px" height="20px" viewBox="0 0 21 20" version="1.1" xmlns="http://www.w3.org/2000/svg" xmlns:xlink="http://www.w3.org/1999/xlink">
    <!-- Generator: Sketch 51 (57462) - http://www.bohemiancoding.com/sketch -->
    <title>iconspace_get-love_25px</title>
    <desc>Created with Sketch.</desc>
    <defs></defs>
    <g id="Page-1" stroke="none" stroke-width="1" fill="none" fill-rule="evenodd">
        <g id="Business-Icon-Solid-Color" transform="translate(-177.000000, -278.000000)">
            <g id="iconspace_get-love_25px" transform="translate(175.000000, 275.000000)">
                <polygon id="path" points="0 0 25 0 25 25 0 25"></polygon>
                <g id="Donation" transform="translate(2.000000, 3.000000)" fill-rule="nonzero">
                    <path d="M11.2891189,11.4263782 C11.9111129,10.0751176 11.3378596,8.96177513 9.75438422,8.27220827 L7.13099225,7.18899744 C6.28108294,6.83809804 5.30725713,6.98270806 4.59579835,7.56546563 L2.18318734,9.541641 C1.96965112,9.71654903 1.93823726,10.0315669 2.11302252,10.2452531 C2.22954603,10.3877106 2.19187185,12.3059595 2,16 L2,17 L4.91899347,17 L10.8721759,18.6915048 C11.6231733,18.9048892 12.4306806,18.7546894 13.0549122,18.2855165 C16.9774462,15.3371189 19.5983372,13.3462417 19.9952469,12.9771874 C20.9574499,12.0825125 21.3362715,11.0877739 20.6506664,10.1072061 C20.0964941,9.31461638 19.1619067,9.23006297 18.0035568,9.75448491 L12.3697616,12.6197818 L10.7856096,12.1160193 C10.9898629,11.939882 11.1583023,11.7105728 11.2891189,11.4263782 Z" id="path" fill="#3B5AFB"></path>
                    <path d="M1.75,8.25 L1.5,8.25 C1.08578644,8.25 0.75,7.91421356 0.75,7.5 C0.75,7.08578644 1.08578644,6.75 1.5,6.75 L2.5,6.75 C2.91421356,6.75 3.25,7.08578644 3.25,7.5 L3.25,18.5 C3.25,18.9142136 2.91421356,19.25 2.5,19.25 L1.5,19.25 C1.08578644,19.25 0.75,18.9142136 0.75,18.5 C0.75,18.0857864 1.08578644,17.75 1.5,17.75 L1.75,17.75 L1.75,8.25 Z M19.1672619,0.843333015 C20.2775794,1.96777704 20.2775794,3.790861 19.1672619,4.91530502 L16.5606602,7.55507046 C15.9748737,8.14830985 15.0251263,8.14830985 14.4393398,7.55507046 L11.8327381,4.91530502 C10.7224206,3.790861 10.7224206,1.96777704 11.8327381,0.843333015 C12.8316815,-0.168319923 14.389031,-0.269797122 15.5,0.538901417 C16.610969,-0.269797122 18.1683185,-0.168319923 19.1672619,0.843333015 Z" id="path" fill="#44D5E9"></path>
                </g>
            </g>
        </g>
    </g>
</svg>