<?xml version="1.0" encoding="UTF-8"?>
<svg width="21px" height="20px" viewBox="0 0 21 20" version="1.1" xmlns="http://www.w3.org/2000/svg" xmlns:xlink="http://www.w3.org/1999/xlink">
    <!-- Generator: Sketch 51 (57462) - http://www.bohemiancoding.com/sketch -->
    <title>iconspace_Trophy_25px</title>
    <desc>Created with Sketch.</desc>
    <defs></defs>
    <g id="Page-1" stroke="none" stroke-width="1" fill="none" fill-rule="evenodd">
        <g id="Sport-Icon-Solid-Color" transform="translate(-27.000000, -178.000000)">
            <g id="iconspace_Trophy_25px" transform="translate(25.000000, 175.000000)">
                <polygon id="path" points="0 0 25 0 25 25 0 25"></polygon>
                <path d="M14,16.6585886 L14,19 L16,19 C16.5522847,19 17,19.4477153 17,20 L17,22 C17,22.5522847 16.5522847,23 16,23 L8,23 C7.44771525,23 7,22.5522847 7,22 L7,20 C7,19.4477153 7.44771525,19 8,19 L10,19 L10,16.6585886 C7.66961525,15.8349158 6,13.6124377 6,11 L6,3 L18,3 L18,11 C18,13.6124377 16.3303847,15.8349158 14,16.6585886 Z" id="path" fill="#3B5AFB"></path>
                <path d="M19,5.50750732 L19,4.00750732 L21.2547607,4.00750732 C21.6689743,4.00750732 22.0047607,4.34329376 22.0047607,4.75750732 L22.0047607,7.75750732 C22.0047607,9.76466839 20.7598259,11.4810593 19,12.1766364 L19,10.4996405 C19.9047346,9.92261812 20.5047607,8.91013453 20.5047607,7.75750732 L20.5047607,5.50750732 L19,5.50750732 Z M5.00476074,5.50750732 L3.5,5.50750732 L3.5,7.75750732 C3.5,8.91013453 4.10002612,9.92261812 5.00476074,10.4996405 L5.00476074,12.1766364 C3.24493485,11.4810593 2,9.76466839 2,7.75750732 L2,4.75750732 C2,4.34329376 2.33578644,4.00750732 2.75,4.00750732 L5.00476074,4.00750732 L5.00476074,5.50750732 Z" id="path" fill="#44D5E9" fill-rule="nonzero"></path>
            </g>
        </g>
    </g>
</svg>