<?xml version="1.0" encoding="UTF-8"?>
<svg width="21px" height="20px" viewBox="0 0 21 20" version="1.1" xmlns="http://www.w3.org/2000/svg" xmlns:xlink="http://www.w3.org/1999/xlink">
    <!-- Generator: Sketch 51 (57462) - http://www.bohemiancoding.com/sketch -->
    <title>Group</title>
    <desc>Created with Sketch.</desc>
    <defs></defs>
    <g id="Page-1" stroke="none" stroke-width="1" fill="none" fill-rule="evenodd">
        <g id="User-Solid-Color" transform="translate(-277.000000, -128.000000)">
            <g id="Group" transform="translate(275.000000, 125.000000)">
                <polygon id="Path" points="0 0 25 0 25 25 0 25"></polygon>
                <path d="M12.5,8 C11.1192881,8 10,6.88071187 10,5.5 C10,4.11928813 11.1192881,3 12.5,3 C13.8807119,3 15,4.11928813 15,5.5 C15,6.88071187 13.8807119,8 12.5,8 Z M12,8 L13,8 C14.6568542,8 16,9.34314575 16,11 L16,12.5 C16,13.3284271 15.3284271,14 14.5,14 L10.5,14 C9.67157288,14 9,13.3284271 9,12.5 L9,11 C9,9.34314575 10.3431458,8 12,8 Z" id="Path" fill="#44D5E9" fill-rule="nonzero"></path>
                <path d="M19.5,17 C18.1192881,17 17,15.8807119 17,14.5 C17,13.1192881 18.1192881,12 19.5,12 C20.8807119,12 22,13.1192881 22,14.5 C22,15.8807119 20.8807119,17 19.5,17 Z M19,17 L20,17 C21.6568542,17 23,18.3431458 23,20 L23,21.5 C23,22.3284271 22.3284271,23 21.5,23 L17.5,23 C16.6715729,23 16,22.3284271 16,21.5 L16,20 C16,18.3431458 17.3431458,17 19,17 Z" id="Path" fill="#3B5AFB" fill-rule="nonzero"></path>
                <path d="M5.5,17 C4.11928813,17 3,15.8807119 3,14.5 C3,13.1192881 4.11928813,12 5.5,12 C6.88071187,12 8,13.1192881 8,14.5 C8,15.8807119 6.88071187,17 5.5,17 Z M5,17 L6,17 C7.65685425,17 9,18.3431458 9,20 L9,21.5 C9,22.3284271 8.32842712,23 7.5,23 L3.5,23 C2.67157288,23 2,22.3284271 2,21.5 L2,20 C2,18.3431458 3.34314575,17 5,17 Z" id="Path" fill="#3B5AFB" fill-rule="nonzero"></path>
            </g>
        </g>
    </g>
</svg>