<?xml version="1.0" encoding="UTF-8"?>
<svg width="21px" height="21px" viewBox="0 0 21 21" version="1.1" xmlns="http://www.w3.org/2000/svg" xmlns:xlink="http://www.w3.org/1999/xlink">
    <!-- Generator: Sketch 51 (57462) - http://www.bohemiancoding.com/sketch -->
    <title>iconspace_Crop_25px</title>
    <desc>Created with Sketch.</desc>
    <defs></defs>
    <g id="Page-1" stroke="none" stroke-width="1" fill="none" fill-rule="evenodd">
        <g id="Design-Interface-Solid-Color" transform="translate(-128.000000, -127.000000)">
            <g id="iconspace_Crop_25px" transform="translate(125.000000, 125.000000)">
                <polygon id="Path" points="0 0 25 0 25 25 0 25"></polygon>
                <path d="M21.7506734,3.21404487 C22.0364195,2.92865171 22.4997054,2.92865171 22.7854515,3.21404487 C23.0711976,3.49943803 23.0711976,3.96215177 22.7854515,4.24754493 L20.8342553,6.19633133 C20.5485092,6.48172449 20.0852233,6.48172449 19.7994772,6.19633133 C19.5137312,5.91093817 19.5137312,5.44822443 19.7994772,5.16283127 L21.7506734,3.21404487 Z M16.9082451,8.05278168 C17.2123658,7.7870047 17.6746256,7.81778396 17.9407313,8.12152909 C18.2068369,8.42527422 18.1760196,8.88696312 17.8718989,9.1527401 L10.0671141,15.9734925 C9.76299333,16.2392695 9.30073352,16.2084902 9.03462788,15.9047451 C8.76852224,15.601 8.79933956,15.1393111 9.10346029,14.8735341 L16.9082451,8.05278168 Z M6.14110385,17.8299429 C6.42684992,17.5445497 6.89013583,17.5445497 7.1758819,17.8299429 C7.46162797,18.115336 7.46162797,18.5780498 7.1758819,18.8634429 L4.2490876,21.7866225 C3.96334153,22.0720157 3.50005562,22.0720157 3.21430955,21.7866225 C2.92856348,21.5012294 2.92856348,21.0385156 3.21430955,20.7531225 L6.14110385,17.8299429 Z" id="Path" fill="#44D5E9" fill-rule="nonzero"></path>
                <path d="M10,15 L23.5,15 C23.7761424,15 24,15.2238576 24,15.5 L24,18.5 C24,18.7761424 23.7761424,19 23.5,19 L6.5,19 C6.22385763,19 6,18.7761424 6,18.5 L6,2.5 C6,2.22385763 6.22385763,2 6.5,2 L9.5,2 C9.77614237,2 10,2.22385763 10,2.5 L10,15 Z M21,20.0099487 L21,22.5 C21,22.7761424 20.7761424,23 20.5,23 L17.5,23 C17.2238576,23 17,22.7761424 17,22.5 L17,20.0099487 L21,20.0099487 Z M17,9 L10.9882812,9 L10.9882812,5 L20.5,5 C20.7761424,5 21,5.22385763 21,5.5 L21,14.0095215 L17,14.0095215 L17,9 Z M4.97857666,9 L3.5,9 C3.22385763,9 3,8.77614237 3,8.5 L3,5.5 C3,5.22385763 3.22385763,5 3.5,5 L4.97857666,5 L4.97857666,9 Z" id="Path" fill="#3B5AFB" fill-rule="nonzero"></path>
            </g>
        </g>
    </g>
</svg>