<?xml version="1.0" encoding="UTF-8"?>
<svg width="261px" height="324px" viewBox="0 0 261 324" version="1.1" xmlns="http://www.w3.org/2000/svg" xmlns:xlink="http://www.w3.org/1999/xlink">
    <!-- Generator: Sketch 62 (91390) - https://sketch.com -->
    <title>Cards/Horizontal/Data/Card 2 Copy 6</title>
    <desc>Created with Sketch.</desc>
    <defs>
        <rect id="path-1" x="0" y="0" width="210.671988" height="273.599985" rx="8"></rect>
        <filter x="-20.4%" y="-12.1%" width="140.9%" height="131.5%" filterUnits="objectBoundingBox" id="filter-2">
            <feMorphology radius="0.541149847" operator="dilate" in="SourceAlpha" result="shadowSpreadOuter1"></feMorphology>
            <feOffset dx="0" dy="10" in="shadowSpreadOuter1" result="shadowOffsetOuter1"></feOffset>
            <feGaussianBlur stdDeviation="12.5" in="shadowOffsetOuter1" result="shadowBlurOuter1"></feGaussianBlur>
            <feComposite in="shadowBlurOuter1" in2="SourceAlpha" operator="out" result="shadowBlurOuter1"></feComposite>
            <feColorMatrix values="0 0 0 0 0.192156863   0 0 0 0 0.250980392   0 0 0 0 0.466666667  0 0 0 0.1 0" type="matrix" in="shadowBlurOuter1"></feColorMatrix>
        </filter>
        <rect id="path-3" x="0.764964166" y="0.020422874" width="60" height="28" rx="14"></rect>
        <filter x="-40.0%" y="-75.0%" width="200.0%" height="314.3%" filterUnits="objectBoundingBox" id="filter-4">
            <feMorphology radius="5.5" operator="erode" in="SourceAlpha" result="shadowSpreadOuter1"></feMorphology>
            <feOffset dx="6" dy="9" in="shadowSpreadOuter1" result="shadowOffsetOuter1"></feOffset>
            <feGaussianBlur stdDeviation="14" in="shadowOffsetOuter1" result="shadowBlurOuter1"></feGaussianBlur>
            <feColorMatrix values="0 0 0 0 0.743069384   0 0 0 0 0.813890002   0 0 0 0 1  0 0 0 0.716959173 0" type="matrix" in="shadowBlurOuter1"></feColorMatrix>
        </filter>
    </defs>
    <g id="*Images" stroke="none" stroke-width="1" fill="none" fill-rule="evenodd">
        <g id="Artboard" transform="translate(-349.000000, -2526.000000)">
            <g id="Cards/Horizontal/Data/Card-2-Copy-6" transform="translate(374.000000, 2541.000000)">
                <g id="Cards/Horizontal/Data/Card">
                    <g id="Group-9">
                        <g id="Stacked-Group-2">
                            <g id="Rectangle-21-Copy-2">
                                <use fill="black" fill-opacity="1" filter="url(#filter-2)" xlink:href="#path-1"></use>
                                <rect stroke="#D2DCEA" stroke-width="0.541149847" fill="#FFFFFF" fill-rule="evenodd" x="-0.270574924" y="-0.270574924" width="211.213138" height="274.141135" rx="8"></rect>
                            </g>
                        </g>
                        <g id="Button" transform="translate(24.235036, 216.979577)">
                            <g id="BG">
                                <use fill="black" fill-opacity="1" filter="url(#filter-4)" xlink:href="#path-3"></use>
                                <use fill="#5A53C0" fill-rule="evenodd" xlink:href="#path-3"></use>
                            </g>
                            <text id="Backup" font-family="'Avenir-Black', 'Arial Black', sans-serif" font-size="10.0004492" font-weight="700" line-spacing="14.286356" fill="#FFFFFF">
                                <tspan x="13.6291945" y="17.0204229">Backup</tspan>
                            </text>
                        </g>
                    </g>
                    <g id="Text" transform="translate(25.596227, 132.148793)" fill="#D2DCEA" opacity="0.717754546">
                        <rect id="Rectangle" x="0" y="0" width="132.61735" height="8.33370764" rx="4.16685382"></rect>
                        <rect id="Rectangle" x="0" y="19.4813945" width="151.481025" height="8.33370764" rx="4.16685382"></rect>
                        <rect id="Rectangle" x="0" y="38.962789" width="138.905242" height="8.33370764" rx="4.16685382"></rect>
                        <rect id="Rectangle" x="0" y="58.4441835" width="124.042953" height="8.33370764" rx="4.16685382"></rect>
                    </g>
                    <g id="Application-Icons/No-Icon/48x48" transform="translate(25.000000, 27.000000)">
                        <rect id="Rectangle-Copy-13" stroke="#D2DCEA" stroke-width="0.857181358" fill="#FAFAFA" fill-rule="nonzero" x="0.428590679" y="0.428590679" width="52.7166535" height="52.7166535" rx="10.2861763"></rect>
                        <g id="Group" transform="translate(10.000000, 17.000000)">
                            <path d="M9.49564301,8.11749881 C9.49564301,8.55495869 9.53939378,8.9096559 9.61595762,9.16976718 C9.70345915,9.42987846 9.81283606,9.71363622 9.96596374,10.0210405 C10.0206522,10.1156264 10.0425276,10.2102123 10.0425276,10.292975 C10.0425276,10.4112074 9.97690143,10.5294398 9.83471144,10.6476722 L9.14563689,11.1442483 C9.04719767,11.2151877 8.94864907,11.2506574 8.86125692,11.2506574 C8.75188001,11.2506574 8.64250309,11.1915412 8.53312618,11.0851321 C8.3799985,10.9077835 8.24874621,10.7186116 8.1393693,10.5294398 C8.02999238,10.3284447 7.92061547,10.1038031 7.80030087,9.83186862 C6.94705157,10.9196067 5.87526721,11.4634757 4.58461964,11.4634757 C3.66585357,11.4634757 2.93302826,11.179718 2.39708139,10.6122025 C1.86113452,10.0446869 1.58769224,9.28799958 1.58769224,8.34214037 C1.58769224,7.33716497 1.9157136,6.52136141 2.58302214,5.90655292 C3.25022131,5.29174444 4.1361743,4.9843402 5.2627565,4.9843402 C5.63452862,4.9843402 6.01745719,5.01980992 6.42215177,5.07892612 C6.82684635,5.13804232 7.24247861,5.23262824 7.67998626,5.3390374 L7.67998626,4.47594088 C7.67998626,3.57737463 7.5049832,2.95074291 7.16591477,2.58422247 C6.81590865,2.21770203 6.22527333,2.04035343 5.3830711,2.04035343 C5.00025191,2.04035343 4.60649502,2.08764639 4.20180045,2.19405555 C3.79710587,2.30046471 3.40334898,2.43052035 3.02052979,2.59604571 C2.84552673,2.67880839 2.71427443,2.72610135 2.6377106,2.74974783 C2.56114676,2.77339431 2.5064583,2.78521755 2.46259816,2.78521755 C2.30957986,2.78521755 2.23301602,2.66698515 2.23301602,2.41869711 L2.23301602,1.83935835 C2.23301602,1.6501865 2.2548914,1.50830762 2.30957986,1.42554494 C2.36426831,1.34278226 2.46259816,1.26001958 2.61583521,1.1772569 C2.99854503,0.964438581 3.45803744,0.787089981 3.99398431,0.6452111 C4.52993118,0.491508979 5.09869113,0.420569539 5.70026415,0.420569539 C7.00184941,0.420569539 7.95342854,0.73979702 8.56593926,1.37825198 C9.16751227,2.01670695 9.47376763,2.98621263 9.47376763,4.28676904 L9.47376763,8.11749881 L9.49564301,8.11749881 Z M5.05494036,9.9146313 C5.41588417,9.9146313 5.7876563,9.84369186 6.18152256,9.70181298 C6.57527945,9.5599341 6.92528557,9.29982282 7.22060323,8.94512562 C7.39560629,8.72048406 7.52674921,8.47219601 7.59248473,8.18843825 C7.65811088,7.90468049 7.70186165,7.56180653 7.70186165,7.15981637 L7.70186165,6.66324029 C7.3846686,6.58047761 7.04560017,6.50953817 6.69559405,6.46224521 C6.34558793,6.41495225 6.0065195,6.39130577 5.66745107,6.39130577 C4.93462576,6.39130577 4.39867889,6.54500789 4.03773508,6.86423537 C3.67679126,7.18346285 3.5017882,7.63274597 3.5017882,8.22390797 C3.5017882,8.77960026 3.6330405,9.19341366 3.90648278,9.47717142 C4.16898737,9.77275242 4.55180657,9.9146313 5.05494036,9.9146313 Z M13.8379064,11.1915412 C13.641028,11.1915412 13.5097757,11.1560715 13.4222742,11.0733088 C13.3347726,11.0023694 13.2582088,10.836844 13.1925827,10.6122025 L10.6222252,1.4728379 C10.5564897,1.2363731 10.523786,1.08267098 10.523786,0.999908302 C10.523786,0.810736461 10.6111781,0.7043273 10.7862906,0.7043273 L11.8581843,0.7043273 C12.0658911,0.7043273 12.2081904,0.73979702 12.2847543,0.822559701 C12.3722558,0.893499141 12.437882,1.0590245 12.5035081,1.28366606 L14.3410402,9.11065098 L16.0472107,1.28366606 C16.1020085,1.04720126 16.1675253,0.893499141 16.2551362,0.822559701 C16.3426377,0.75162026 16.495656,0.7043273 16.6926439,0.7043273 L17.5676592,0.7043273 C17.7753659,0.7043273 17.9176653,0.73979702 18.0051668,0.822559701 C18.0926683,0.893499141 18.1692322,1.0590245 18.2129829,1.28366606 L19.9410288,9.2052369 L21.8333587,1.28366606 C21.8989849,1.04720126 21.9755487,0.893499141 22.0521126,0.822559701 C22.1396141,0.75162026 22.2818041,0.7043273 22.4786825,0.7043273 L23.4958878,0.7043273 C23.6708909,0.7043273 23.7693301,0.798913221 23.7693301,0.999908302 C23.7693301,1.0590245 23.7583924,1.1181407 23.7474547,1.18908014 C23.7364076,1.26001958 23.7146416,1.3546055 23.6708909,1.48466114 L21.0349073,10.6240257 C20.9691718,10.8604905 20.8926079,11.0141926 20.8051064,11.0851321 C20.7177142,11.1560715 20.5755243,11.2033645 20.3895835,11.2033645 L19.4488327,11.2033645 C19.2411259,11.2033645 19.0989359,11.1678947 19.011325,11.0851321 C18.9238235,11.0023694 18.8472597,10.8486673 18.8036183,10.6122025 L17.1082761,2.98621263 L15.4238717,10.6003792 C15.3690738,10.836844 15.3035571,10.9905461 15.2160555,11.0733088 C15.128554,11.1560715 14.9754263,11.1915412 14.7785479,11.1915412 L13.8379064,11.1915412 Z M27.8928397,11.5107687 C27.3240798,11.5107687 26.7553198,11.4398293 26.2084352,11.2979504 C25.6615507,11.1560715 25.2349807,11.0023694 24.9506008,10.8250208 C24.7755977,10.7186116 24.6551737,10.6003792 24.6115323,10.4939701 C24.5677816,10.3875609 24.5459062,10.2693285 24.5459062,10.1629193 L24.5459062,9.5599341 C24.5459062,9.31164606 24.6334077,9.19341366 24.7974731,9.19341366 C24.8630992,9.19341366 24.928616,9.2052369 24.9942421,9.22888338 C25.0599777,9.25252986 25.1583075,9.29982282 25.2677938,9.34711578 C25.6395659,9.52446438 26.0443699,9.66634326 26.4708305,9.76092918 C26.9084475,9.8555151 27.3349081,9.90280806 27.7725251,9.90280806 C28.4615996,9.90280806 28.9975465,9.77275242 29.3693186,9.51264114 C29.7413095,9.25252986 29.938188,8.87418618 29.938188,8.38943333 C29.938188,8.05838261 29.8397487,7.78644809 29.6427609,7.56180653 C29.4459919,7.33716497 29.0741104,7.13616989 28.5380541,6.94699805 L26.9521983,6.41495225 C26.1537468,6.14301772 25.5631115,5.74102756 25.2021677,5.20898176 C24.8412238,4.6887592 24.6551737,4.10942044 24.6551737,3.49461195 C24.6551737,2.99803587 24.7537223,2.56057599 24.9506008,2.18223231 C25.1473698,1.80388863 25.4099838,1.4728379 25.7381145,1.21272662 C26.0662453,0.940792101 26.4381268,0.73979702 26.8756344,0.59791814 C27.3131421,0.456039259 27.7725251,0.396923059 28.2537835,0.396923059 C28.4943033,0.396923059 28.7459796,0.408746299 28.9864994,0.444216019 C29.2381757,0.479685739 29.4677579,0.526978699 29.6974494,0.57427166 C29.9162032,0.63338786 30.1240193,0.69250406 30.3210072,0.763443501 C30.5177762,0.834382941 30.6710133,0.905322381 30.7803902,0.976261821 C30.9335179,1.07084774 31.0428948,1.16543366 31.1085209,1.27184282 C31.1741471,1.36642874 31.2069601,1.49648438 31.2069601,1.66200974 L31.2069601,2.21770203 C31.2069601,2.46599007 31.1194586,2.59604571 30.9553933,2.59604571 C30.8678917,2.59604571 30.7257017,2.54875275 30.539761,2.45416683 C29.9163126,2.14676259 29.2163003,1.99306047 28.4397243,1.99306047 C27.8162759,1.99306047 27.3240798,2.09946963 26.9850113,2.32411119 C26.6459429,2.54875275 26.4709398,2.89162671 26.4709398,3.37637955 C26.4709398,3.70743027 26.5803167,3.99118803 26.7990706,4.2158296 C27.0178244,4.44047116 27.422519,4.66511272 28.0022166,4.8661078 L29.5553688,5.3981536 C30.3428825,5.67008812 30.9116425,6.0484318 31.2507109,6.53318465 C31.5897793,7.01793749 31.7538447,7.57362977 31.7538447,8.18843825 C31.7538447,8.69683758 31.6554055,9.15794394 31.4694647,9.5599341 C31.2725863,9.96192426 31.0100817,10.3166215 30.6710133,10.6003792 C30.3319448,10.8959602 29.9272503,11.1087785 29.4569295,11.2624807 C28.9647334,11.428006 28.450662,11.5107687 27.8928397,11.5107687 L27.8928397,11.5107687 Z" id="Fill-1" fill="#252F3E"></path>
                            <path d="M30.1434687,16.6753721 C26.4951782,19.5244491 21.1946225,21.0369221 16.6371425,21.0369221 C10.2498619,21.0369221 4.49465597,18.539583 0.147756683,14.3890757 C-0.1961141,14.060787 0.114489597,13.6152523 0.524783662,13.8731934 C5.22653187,16.7574443 11.025983,18.5044092 17.0252585,18.5044092 C21.072754,18.5044092 25.5194546,17.6133398 29.6113062,15.7843027 C30.2212028,15.4911878 30.7423871,16.2063882 30.1434687,16.6753721 Z M31.6627765,14.846335 C31.1969264,14.2132067 28.5800265,14.5414954 27.3935004,14.6939152 C27.0385406,14.7408136 26.9830955,14.4125249 27.3047882,14.1663083 C29.3895256,12.6186616 32.8159246,13.0641962 33.2152406,13.5800785 C33.6144456,14.1076854 33.1043503,17.7305858 31.1525703,19.4658261 C30.8532774,19.7354919 30.5649627,19.5947967 30.6979201,19.2430588 C31.1414813,18.0823237 32.1285157,15.4677386 31.6627765,14.846335 L31.6627765,14.846335 Z" id="Fill-2" fill="#FF9900"></path>
                        </g>
                    </g>
                    <text id="My-Stack" font-family="'Avenir-Black', 'Arial Black', sans-serif" font-size="15.1521957" font-weight="700" line-spacing="14.8816208" fill="#505A72">
                        <tspan x="25.0011229" y="115.599757">My Control Plane</tspan>
                    </text>
                </g>
                <g id="Group-20-Copy-3" transform="translate(60.000000, 12.000000)">
                    <g id="Button/solid-Copy-3" transform="translate(0.000000, -0.000000)">
                        <rect id="Rectangle" stroke="#2FD3BC" stroke-width="0.5" fill="#2FD3BC" x="0" y="0" width="172.199998" height="32.5843596" rx="16.2921798"></rect>
                        <g id="Group" transform="translate(133.931346, 7.912756)">
                            <polygon id="Path" points="0 0 17.032838 0 17.032838 17.0005354 0 17.0005354"></polygon>
                            <polyline id="Path" stroke="#FFFFFF" stroke-width="1.47708675" stroke-linecap="round" stroke-linejoin="round" points="3.70279088 8.86984457 7.15872903 12.5656131 14.0706053 5.174076"></polyline>
                        </g>
                    </g>
                    <text id="Backup-Successfull-Copy" font-family="'Avenir-Black', 'Arial Black', sans-serif" font-size="11.9888431" font-weight="700" line-spacing="17.1269188" fill="#FFFFFF">
                        <tspan x="21.4735719" y="19.2921795">Backup Successfull</tspan>
                    </text>
                </g>
            </g>
        </g>
    </g>
</svg>