<?xml version="1.0" encoding="UTF-8"?>
<svg width="340px" height="209px" viewBox="0 0 340 209" version="1.1" xmlns="http://www.w3.org/2000/svg" xmlns:xlink="http://www.w3.org/1999/xlink">
    <!-- Generator: Sketch 62 (91390) - https://sketch.com -->
    <title>Group 3 Copy</title>
    <desc>Created with Sketch.</desc>
    <defs>
        <rect id="path-1" x="0" y="0" width="290" height="78.3018868" rx="2.93632075"></rect>
        <filter x="-12.8%" y="-34.5%" width="125.5%" height="194.5%" filterUnits="objectBoundingBox" id="filter-2">
            <feMorphology radius="1.5" operator="erode" in="SourceAlpha" result="shadowSpreadOuter1"></feMorphology>
            <feOffset dx="0" dy="10" in="shadowSpreadOuter1" result="shadowOffsetOuter1"></feOffset>
            <feGaussianBlur stdDeviation="12.5" in="shadowOffsetOuter1" result="shadowBlurOuter1"></feGaussianBlur>
            <feComposite in="shadowBlurOuter1" in2="SourceAlpha" operator="out" result="shadowBlurOuter1"></feComposite>
            <feColorMatrix values="0 0 0 0 0.192156863   0 0 0 0 0.250980392   0 0 0 0 0.466666667  0 0 0 0.112243226 0" type="matrix" in="shadowBlurOuter1"></feColorMatrix>
        </filter>
        <polygon id="path-3" points="3.15198273e-06 0.0293449592 12.9881861 0.0293449592 12.9881861 13.0176824 3.15198273e-06 13.0176824"></polygon>
        <rect id="path-5" x="0" y="0" width="22.3160377" height="22.3160377" rx="5.54964623"></rect>
        <rect id="path-7" x="0" y="0" width="290" height="78.3018868" rx="2.93632075"></rect>
        <filter x="-14.8%" y="-42.1%" width="129.7%" height="209.8%" filterUnits="objectBoundingBox" id="filter-8">
            <feMorphology radius="0.5" operator="dilate" in="SourceAlpha" result="shadowSpreadOuter1"></feMorphology>
            <feOffset dx="0" dy="10" in="shadowSpreadOuter1" result="shadowOffsetOuter1"></feOffset>
            <feGaussianBlur stdDeviation="12.5" in="shadowOffsetOuter1" result="shadowBlurOuter1"></feGaussianBlur>
            <feComposite in="shadowBlurOuter1" in2="SourceAlpha" operator="out" result="shadowBlurOuter1"></feComposite>
            <feColorMatrix values="0 0 0 0 0.192156863   0 0 0 0 0.250980392   0 0 0 0 0.466666667  0 0 0 0.127076049 0" type="matrix" in="shadowBlurOuter1"></feColorMatrix>
        </filter>
        <polygon id="path-9" points="3.15198273e-06 0.0293449592 12.9881861 0.0293449592 12.9881861 13.0176824 3.15198273e-06 13.0176824"></polygon>
        <rect id="path-11" x="0" y="0" width="22.3160377" height="22.3160377" rx="5.54964623"></rect>
    </defs>
    <g id="*Images" stroke="none" stroke-width="1" fill="none" fill-rule="evenodd">
        <g id="Artboard" transform="translate(-291.000000, -3167.000000)">
            <g id="Group-3-Copy" transform="translate(316.000000, 3178.000000)">
                <g id="Group-2">
                    <g id="Rectangle-21-Copy-2">
                        <use fill="black" fill-opacity="1" filter="url(#filter-2)" xlink:href="#path-1"></use>
                        <rect stroke="#D2DCEA" stroke-width="0.5" fill="#FFFFFF" fill-rule="evenodd" x="-0.25" y="-0.25" width="290.5" height="78.8018868" rx="2.93632075"></rect>
                    </g>
                    <rect id="Rectangle" fill="#DFE6F0" x="21.9459459" y="19.1839623" width="34.0945946" height="5.48113208" rx="2.74056604"></rect>
                    <rect id="Rectangle" fill="#DFE6F0" x="136.77027" y="19.1839623" width="34.0945946" height="5.48113208" rx="2.74056604"></rect>
                    <g id="Application-Icons/Cockroach-DB/24x24" transform="translate(245.060900, 34.844340)">
                        <g id="Group-Copy-7">
                            <rect id="Rectangle-Copy-13" stroke="#D8D8D8" stroke-width="0.924941038" fill="#F9F9F9" fill-rule="nonzero" x="0.462470519" y="0.462470519" width="21.3910967" height="21.3910967" rx="5.54964623"></rect>
                            <g id="Asset-1-Copy-7" transform="translate(4.649175, 3.719340)" fill-rule="nonzero">
                                <path d="M4.16417738,5.57900943 C6.06534215,6.87962273 7.17450426,11.2102187 6.07071774,13.0176887 C4.15700994,11.6995426 3.04963969,7.37532216 4.16417738,5.57900943 Z" id="Shape" fill="#84C441"></path>
                                <path d="M10.8700772,0.929834906 C11.2622157,0.993570592 11.6543541,1.04429899 12.0464925,1.12624488 C12.3641246,1.18998056 12.6791425,1.3018432 13.0176887,1.39939782 C12.9209452,1.60018737 12.8140599,1.79598021 12.6974423,1.98602627 C12.6316138,2.03515592 12.5463819,2.05057675 12.4673878,2.02764958 C11.6840477,1.77008625 10.857915,1.66627612 10.0348224,1.72197843 C9.06172558,1.78213834 8.11628897,2.0681225 7.27416784,2.55704599 C7.23793864,2.58165336 7.20303378,2.60813801 7.16959759,2.63639042 C7.72258703,3.11453905 8.20333682,3.66960108 8.59698147,4.28441315 C10.2622627,6.87676463 9.9851515,10.4251514 7.90812496,12.710531 C7.49637961,13.1631844 6.9931353,13.5364934 6.54086898,13.9475236 L6.44675576,13.9475236 C6.35787104,13.8733821 6.27160059,13.7979398 6.18533014,13.7277005 C4.32659399,12.2968994 3.34755505,10.4017383 3.32533387,8.06693101 C3.29319344,6.25824975 3.98053959,4.51019483 5.23766227,3.20350795 C5.42196733,3.01100016 5.6206508,2.82499602 5.83109842,2.62078168 C5.09982003,2.17534283 4.28344772,1.8860947 3.4338255,1.77140611 C2.46054705,1.62720922 1.46670027,1.71776543 0.535922518,2.03545395 C0.481815145,2.06566951 0.416728604,2.0693674 0.359516843,2.04547644 C0.302305082,2.02158548 0.259361517,1.97277549 0.243125825,1.91318549 C0.172540908,1.76750392 0.0823490699,1.63222818 0,1.49174952 L0,1.39809709 C0.398674068,1.28883591 0.793426753,1.16526673 1.19602221,1.07421575 C1.49796879,1.00527715 1.81037241,0.976661124 2.11101187,0.929834906 L2.8756818,0.929834906 C2.95149523,0.94154146 3.02861579,0.958450928 3.10442922,0.964954569 C4.23945103,1.0453695 5.33709332,1.40275785 6.30035741,2.0055372 C6.4239337,2.10217502 6.59878944,2.09891253 6.7186384,1.99773283 C7.286498,1.62653088 7.91505508,1.35670752 8.57606742,1.20038639 C9.08323312,1.08332084 9.6034701,1.01828443 10.1171714,0.929834906 L10.8700772,0.929834906 Z M4.40371455,6.22770121 C3.59068087,7.6988249 4.40371455,11.2224978 5.79449884,12.2982001 C6.59968974,10.8231742 5.79057745,7.28909549 4.40371455,6.22770121 Z M6.49511949,3.08514167 C5.93309061,3.52620675 5.45422148,4.06306759 5.0808069,4.67072945 C6.01544667,4.88257844 6.9862394,4.88035459 7.91988912,4.66422581 C7.54152548,4.05972058 7.06028844,3.5253811 6.49773375,3.08514167 L6.49511949,3.08514167 Z" id="Shape" fill="#132849"></path>
                                <path d="M1.85966981,0.771082605 C1.58990289,0.802833065 1.3155442,0.822236124 1.05610878,0.868979857 C0.696802207,0.930716863 0.35012302,1.0145028 0,1.08858721 L0,0.771082605 L1.85966981,0.771082605 Z" id="Shape" fill="#FFFFFF"></path>
                                <path d="M8.07273218,6.50884434 C6.80545037,7.48430431 6.0649087,10.7322513 6.80067269,12.0878538 C8.07631545,11.0992442 8.81446828,7.85607889 8.07273218,6.50884434 Z" id="Shape" fill="#338D42"></path>
                            </g>
                        </g>
                    </g>
                    <g id="Application-Icons/Redis/24x24" transform="translate(218.137927, 34.844340)">
                        <rect id="Rectangle-Copy-13" fill="#D82C20" fill-rule="nonzero" x="0" y="0" width="22.3160377" height="22.3160377" rx="5.54964623"></rect>
                        <g id="Group-2-Copy-2" stroke-width="1" fill-rule="evenodd" transform="translate(5.579009, 5.579009)">
                            <circle id="Oval" fill="#FFFFFF" cx="2.32458726" cy="8.8334316" r="2.32458726"></circle>
                            <polygon id="Triangle" fill="#FFFFFF" points="8.8334316 6.50884434 11.1580189 11.1580189 6.50884434 11.1580189"></polygon>
                            <polygon id="Star" fill="#FFFFFF" points="2.78950472 4.18425708 1.14987498 5.04626144 1.4630164 3.2205069 0.136528079 1.92750035 1.96968985 1.66112636 2.78950472 0 3.60931958 1.66112636 5.44248136 1.92750035 4.11599304 3.2205069 4.42913445 5.04626144"></polygon>
                            <g id="Group" transform="translate(6.508844, 0.000000)">
                                <rect id="Rectangle" fill="#AD2115" x="0" y="0" width="4.64917453" height="4.64917453"></rect>
                                <rect id="Rectangle-Copy" fill="#7A0C00" x="1.85966981" y="1.85966981" width="2.78950472" height="2.78950472"></rect>
                            </g>
                        </g>
                    </g>
                    <g id="Application-Icons/Wordpress/24x24" transform="translate(191.214954, 34.844340)">
                        <rect id="Rectangle-Copy-13" stroke="#D8D8D8" stroke-width="0.924941038" fill="#FAFAFA" fill-rule="nonzero" x="0.462470519" y="0.462470519" width="21.3910967" height="21.3910967" rx="5.54964623"></rect>
                        <g id="Group-6" stroke-width="1" fill-rule="evenodd" transform="translate(4.649175, 4.649175)">
                            <g id="Group-3">
                                <mask id="mask-4" fill="white">
                                    <use xlink:href="#path-3"></use>
                                </mask>
                                <g id="Clip-2"></g>
                                <path d="M6.49409621,0.0293386553 C2.9075181,0.0293386553 3.15198273e-06,2.93688513 3.15198273e-06,6.52352628 C3.15198273e-06,10.1101359 2.9075181,13.0176824 6.49409621,13.0176824 C10.0806743,13.0176824 12.9881893,10.1101359 12.9881893,6.52352628 C12.9881893,2.93688513 10.0806743,0.0293386553 6.49409621,0.0293386553 M6.49409621,0.41898676 C7.3183397,0.41898676 8.11777708,0.580336756 8.87012383,0.898560933 C9.23171929,1.05152665 9.58054922,1.24086626 9.90687399,1.46131593 C10.2302044,1.67974833 10.5342762,1.93061464 10.810579,2.20698048 C11.0869448,2.48328329 11.3378111,2.78735506 11.5562435,3.11068545 C11.7766932,3.43701023 11.9660328,3.78584015 12.1189985,4.14746713 C12.4371912,4.89981389 12.5985412,5.69925127 12.5985412,6.52352628 C12.5985412,7.34780128 12.4371912,8.14720714 12.1189985,8.8995539 C11.9660328,9.26118088 11.7766932,9.61001081 11.5562435,9.9363671 C11.3378111,10.259666 11.0869448,10.5637377 10.810579,10.8400405 C10.5342762,11.1164064 10.2302044,11.3672727 9.90687399,11.5857366 C9.58054922,11.8061863 9.23171929,11.9955259 8.87012383,12.1484601 C8.11777708,12.4666843 7.3183397,12.6280343 6.49409621,12.6280343 C5.66985273,12.6280343 4.87041535,12.4666843 4.11810011,12.1484601 C3.75647313,11.9955259 3.4076432,11.8061863 3.08131843,11.5857366 C2.75798804,11.3672727 2.45391627,11.1164064 2.17761346,10.8400405 C1.90124762,10.5637377 1.65038131,10.259666 1.43194891,9.9363671 C1.21149923,9.61001081 1.02215963,9.26118088 0.86919391,8.8995539 C0.551001253,8.14720714 0.389651257,7.34780128 0.389651257,6.52352628 C0.389651257,5.69925127 0.551001253,4.89981389 0.86919391,4.14746713 C1.02215963,3.78584015 1.21149923,3.43701023 1.43194891,3.11068545 C1.65038131,2.78735506 1.90124762,2.48328329 2.17761346,2.20698048 C2.45391627,1.93061464 2.75798804,1.67974833 3.08131843,1.46131593 C3.4076432,1.24086626 3.75647313,1.05152665 4.11810011,0.898560933 C4.87041535,0.580336756 5.66985273,0.41898676 6.49409621,0.41898676" id="Fill-1" fill="#32373C" mask="url(#mask-4)"></path>
                            </g>
                            <path d="M11.4046328,3.8322306 C11.4285485,4.00990575 11.442131,4.20054586 11.442131,4.40587308 C11.442131,4.97178208 11.3361028,5.60820225 11.0177581,6.40406864 L9.3138,11.3307523 C10.9724288,10.363742 12.0878538,8.56681192 12.0878538,6.50863313 C12.0878538,5.53866589 11.8399888,4.62679725 11.4046328,3.8322306 L11.4046328,3.8322306 Z M6.60687904,6.99665491 L4.93268555,11.8605284 C5.43267226,12.007627 5.96125377,12.0878538 6.50884434,12.0878538 C7.15853137,12.0878538 7.7817682,11.9757183 8.3616579,11.7715608 C8.34671061,11.747678 8.33293311,11.722333 8.32159267,11.6946484 L6.60687904,6.99665491 Z M10.2751379,6.22727082 C10.2751379,5.53756111 10.0274029,5.06019724 9.81521645,4.68869761 C9.53238781,4.22894529 9.26720346,3.83993159 9.26720346,3.38021177 C9.26720346,2.86746234 9.65602786,2.39006598 10.2040733,2.39006598 C10.2288014,2.39006598 10.2522621,2.3930554 10.2763077,2.3945826 C9.28371046,1.48511849 7.9612656,0.929834906 6.50884434,0.929834906 C4.55968578,0.929834906 2.84500464,1.92995623 1.84740329,3.44435419 C1.9784195,3.44848088 2.10183209,3.45111286 2.20649558,3.45111286 C2.78989465,3.45111286 3.69339308,3.38021177 3.69339308,3.38021177 C3.993996,3.36260022 4.02954454,3.80444855 3.72907161,3.83993159 C3.72907161,3.83993159 3.4267465,3.87534965 3.09062754,3.89296119 L5.12215864,9.93606085 L6.34325441,6.27445157 L5.47410223,3.89296119 C5.17349932,3.87534965 4.88891599,3.83993159 4.88891599,3.83993159 C4.5882156,3.82219007 4.6234717,3.36260022 4.92433456,3.38021177 C4.92433456,3.38021177 5.8454773,3.45111286 6.39365276,3.45111286 C6.97705182,3.45111286 7.88074522,3.38021177 7.88074522,3.38021177 C8.18147811,3.36260022 8.21686419,3.80444855 7.91626127,3.83993159 C7.91626127,3.83993159 7.61364372,3.87534965 7.27778471,3.89296119 L9.29401109,9.89001738 L9.86954659,8.06634509 C10.1252427,7.26930893 10.2751379,6.70463469 10.2751379,6.22727082 L10.2751379,6.22727082 Z M0.929834906,6.50863313 C0.929834906,8.7168025 2.2130269,10.6253156 4.07425642,11.5295158 L1.41292468,4.23817348 C1.1033534,4.93197739 0.929834906,5.69980178 0.929834906,6.50863313 L0.929834906,6.50863313 Z" id="Fill-4" fill="#32373C"></path>
                        </g>
                    </g>
                    <g id="Application-Icons/CoreStorage/24x24" transform="translate(164.291981, 34.844340)">
                        <mask id="mask-6" fill="white">
                            <use xlink:href="#path-5"></use>
                        </mask>
                        <use id="Mask" fill="#0D43DC" fill-rule="nonzero" xlink:href="#path-5"></use>
                        <g id="Group-4-Copy-2" stroke-width="1" fill-rule="evenodd" mask="url(#mask-6)">
                            <g transform="translate(4.649175, 1.859670)">
                                <path d="M5.55187426,8.46757068 L9.27886733,8.37397916 C10.300207,8.34833148 11.148958,9.15549932 11.1746056,10.176839 C11.1824008,10.487257 11.1119307,10.7946431 10.9696909,11.0706648 L8.95236903,14.985351 C8.64406565,15.5836249 8.03515282,15.9672465 7.36240426,15.9870459 L3.60842563,16.0975277 C2.58720615,16.1275828 1.73497973,15.3240853 1.70492464,14.3028658 C1.6956428,13.9874847 1.76718182,13.6749708 1.91274044,13.395035 L3.95704784,9.46345852 C4.26774134,8.86593818 4.87861713,8.48447738 5.55187426,8.46757068 Z" id="Rectangle-Copy-3" fill="#2A6FFE" transform="translate(6.429534, 12.242908) rotate(30.000000) translate(-6.429534, -12.242908) "></path>
                                <path d="M5.55187426,5.40787147 L9.27886733,5.31427995 C10.300207,5.28863227 11.148958,6.09580012 11.1746056,7.1171398 C11.1824008,7.42755784 11.1119307,7.73494393 10.9696909,8.01096556 L8.95236903,11.9256518 C8.64406565,12.5239257 8.03515282,12.9075473 7.36240426,12.9273467 L3.60842563,13.0378285 C2.58720615,13.0678836 1.73497973,12.2643861 1.70492464,11.2431666 C1.6956428,10.9277855 1.76718182,10.6152716 1.91274044,10.3353358 L3.95704784,6.40375932 C4.26774134,5.80623898 4.87861713,5.42477817 5.55187426,5.40787147 Z" id="Rectangle-Copy-2" fill="#12B3F9" transform="translate(6.429534, 9.183209) rotate(30.000000) translate(-6.429534, -9.183209) "></path>
                                <path d="M5.55187426,2.61236221 L9.27886733,2.51877069 C10.300207,2.49312301 11.148958,3.30029086 11.1746056,4.32163054 C11.1824008,4.63204858 11.1119307,4.93943467 10.9696909,5.2154563 L8.95236903,9.13014254 C8.64406565,9.72841644 8.03515282,10.1120381 7.36240426,10.1318375 L3.60842563,10.2423192 C2.58720615,10.2723743 1.73497973,9.4688768 1.70492464,8.44765731 C1.6956428,8.13227625 1.76718182,7.81976234 1.91274044,7.53982654 L3.95704784,3.60825006 C4.26774134,3.01072972 4.87861713,2.62926891 5.55187426,2.61236221 Z" id="Rectangle" fill="#5EEBFC" transform="translate(6.429534, 6.387699) rotate(30.000000) translate(-6.429534, -6.387699) "></path>
                            </g>
                        </g>
                    </g>
                    <g id="Application-Icons/AWS/65x65" transform="translate(137.162162, 34.844340)">
                        <rect id="Rectangle-Copy-13" stroke="#D8D8DA" stroke-width="0.783018868" fill="#FAFAFA" fill-rule="nonzero" x="0.391509434" y="0.391509434" width="21.554819" height="21.5330189" rx="6.26415094"></rect>
                        <g id="Group" transform="translate(3.918919, 6.829665)">
                            <path d="M4.24119888,3.38456666 C4.24119888,3.5763415 4.26074002,3.7318346 4.29493702,3.84586288 C4.3340193,3.95989116 4.38287215,4.08428565 4.45126614,4.21904634 C4.47569257,4.26051117 4.48546314,4.301976 4.48546314,4.33825773 C4.48546314,4.39008876 4.45615143,4.4419198 4.39264272,4.49375084 L4.08486976,4.71144119 C4.04090219,4.74253981 3.99688577,4.75808912 3.95785234,4.75808912 C3.90899949,4.75808912 3.86014664,4.7321736 3.81129379,4.68552567 C3.74289979,4.60777912 3.68427637,4.52484946 3.63542352,4.4419198 C3.58657067,4.35380704 3.53771782,4.25532807 3.48397968,4.13611669 C3.10287859,4.61296222 2.62416949,4.85138499 2.04770584,4.85138499 C1.63734189,4.85138499 1.31002778,4.7269905 1.07064881,4.47820153 C0.831269838,4.22941255 0.709137709,3.89769392 0.709137709,3.48304563 C0.709137709,3.04248182 0.855647411,2.68484767 1.15369866,2.41532629 C1.45170105,2.1458049 1.84740915,2.0110442 2.35059352,2.0110442 C2.51664437,2.0110442 2.6876782,2.02659351 2.86843375,2.05250903 C3.0491893,2.07842455 3.23483014,2.11988938 3.43024154,2.16653731 L3.43024154,1.78817075 C3.43024154,1.39425487 3.35207698,1.11955038 3.20063314,0.958874169 C3.04430402,0.798197957 2.78049862,0.720451403 2.40433166,0.720451403 C2.23334668,0.720451403 2.05747641,0.741183817 1.87672086,0.78783175 C1.69596531,0.834479682 1.52009505,0.891493822 1.34911007,0.964057273 C1.2709455,1.000339 1.21232208,1.02107141 1.17812508,1.03143762 C1.14392809,1.04180383 1.11950166,1.04698693 1.09991167,1.04698693 C1.03156653,1.04698693 0.997369534,0.995155895 0.997369534,0.886310719 L0.997369534,0.632338641 C0.997369534,0.549408983 1.0071401,0.48721174 1.03156653,0.450930015 C1.05599296,0.414648289 1.09991167,0.378366564 1.16835451,0.342084839 C1.33929064,0.248788974 1.54452147,0.171042419 1.78390044,0.108845176 C2.02327942,0.0414648289 2.27731425,0.0103662072 2.54600493,0.0103662072 C3.12735386,0.0103662072 3.55237367,0.150310005 3.82594964,0.4301976 C4.09464033,0.710085196 4.23142831,1.13509969 4.23142831,1.70524109 L4.23142831,3.38456666 L4.24119888,3.38456666 Z M2.25777311,4.17239841 C2.41898752,4.17239841 2.58503836,4.14129979 2.76095748,4.07910255 C2.93682774,4.0169053 3.09315687,3.90287702 3.22505957,3.74738392 C3.30322413,3.64890495 3.3617987,3.54005977 3.39115926,3.41566528 C3.42047097,3.2912708 3.44001211,3.14096079 3.44001211,2.96473527 L3.44001211,2.74704492 C3.29833884,2.71076319 3.146895,2.67966457 2.99056588,2.65893216 C2.83423675,2.63819974 2.68279291,2.62783353 2.53134907,2.62783353 C2.20403497,2.62783353 1.964656,2.69521388 1.80344159,2.83515768 C1.64222717,2.97510148 1.56406261,3.17205941 1.56406261,3.43121459 C1.56406261,3.67482046 1.62268603,3.85622909 1.74481816,3.98062358 C1.86206501,4.11020117 2.03304999,4.17239841 2.25777311,4.17239841 Z M6.18065709,4.7321736 C6.09272196,4.7321736 6.03409853,4.71662429 5.99501625,4.68034257 C5.95593397,4.64924394 5.92173698,4.57668049 5.89242526,4.47820153 L4.74438325,0.471662429 C4.71502269,0.368000357 4.70041569,0.30062001 4.70041569,0.264338284 C4.70041569,0.181408627 4.73944911,0.134760694 4.81766253,0.134760694 L5.29642048,0.134760694 C5.38919204,0.134760694 5.4527496,0.150310005 5.4869466,0.18659173 C5.52602888,0.217690352 5.55534059,0.290253803 5.5846523,0.388732771 L6.40538021,3.81994737 L7.16743584,0.388732771 C7.19191112,0.285070699 7.22117398,0.217690352 7.26030511,0.18659173 C7.29938739,0.155493109 7.36773253,0.134760694 7.45571652,0.134760694 L7.84653933,0.134760694 C7.93931089,0.134760694 8.00286845,0.150310005 8.04195074,0.18659173 C8.08103302,0.217690352 8.11523001,0.290253803 8.13477115,0.388732771 L8.90659736,3.8614122 L9.75180054,0.388732771 C9.78111225,0.285070699 9.81530925,0.217690352 9.84950625,0.18659173 C9.88858853,0.155493109 9.95209723,0.134760694 10.0400324,0.134760694 L10.4943639,0.134760694 C10.5725284,0.134760694 10.616496,0.176225523 10.616496,0.264338284 C10.616496,0.290253803 10.6116107,0.316169321 10.6067254,0.347267942 C10.6017913,0.378366564 10.5920696,0.419831393 10.5725284,0.476845533 L9.39517473,4.48338463 C9.36581416,4.5870467 9.33161717,4.65442705 9.29253488,4.68552567 C9.25350146,4.71662429 9.18999275,4.73735671 9.1069429,4.73735671 L8.68675952,4.73735671 C8.59398796,4.73735671 8.53047925,4.7218074 8.49134812,4.68552567 C8.45226584,4.64924394 8.41806884,4.5818636 8.39857655,4.47820153 L7.64135735,1.13509969 L6.88902344,4.47301842 C6.86454816,4.57668049 6.8352853,4.64406084 6.79620302,4.68034257 C6.75712074,4.71662429 6.68872675,4.7321736 6.60079161,4.7321736 L6.18065709,4.7321736 Z M12.4582485,4.8721174 C12.2042137,4.8721174 11.9501789,4.84101878 11.7059146,4.77882154 C11.4616503,4.71662429 11.2711242,4.64924394 11.1441068,4.57149739 C11.0659423,4.52484946 11.0121553,4.47301842 10.992663,4.42637049 C10.9731218,4.37972256 10.9633513,4.32789152 10.9633513,4.28124359 L10.9633513,4.0169053 C10.9633513,3.90806013 11.0024335,3.85622909 11.0757128,3.85622909 C11.1050245,3.85622909 11.1342874,3.8614122 11.1635991,3.8717784 C11.1929597,3.88214461 11.2368784,3.90287702 11.2857801,3.92360944 C11.4518309,4.00135599 11.6326353,4.06355324 11.8231126,4.10501807 C12.0185729,4.14648289 12.2090501,4.16721531 12.4045104,4.16721531 C12.7122833,4.16721531 12.9516623,4.11020117 13.1177132,3.99617289 C13.2838617,3.88214461 13.3717968,3.71628529 13.3717968,3.50377805 C13.3717968,3.35865114 13.3278293,3.23943976 13.2398453,3.14096079 C13.151959,3.04248182 12.9858593,2.95436906 12.7464315,2.8714394 L12.038114,2.63819974 C11.6814882,2.51898836 11.4176828,2.34276284 11.2564684,2.10952317 C11.095254,1.88146661 11.0121553,1.62749454 11.0121553,1.35797315 C11.0121553,1.1402828 11.0561717,0.948507962 11.1441068,0.782648646 C11.2319931,0.61678933 11.3492888,0.471662429 11.4958473,0.35763415 C11.6424059,0.238422766 11.8085056,0.150310005 12.003917,0.0881127615 C12.1993284,0.0259155181 12.4045104,0 12.6194629,0 C12.7268904,0 12.8393008,0.00518310362 12.9467282,0.0207324145 C13.0591386,0.0362817253 13.1616807,0.0570141398 13.2642717,0.0777465543 C13.3619774,0.103662072 13.4547978,0.12957759 13.5427818,0.160676212 C13.6306681,0.191774834 13.699111,0.222873456 13.7479638,0.253972077 C13.8163578,0.295436906 13.8652106,0.336901735 13.8945224,0.383549668 C13.9238341,0.425014497 13.9384899,0.482028636 13.9384899,0.554592087 L13.9384899,0.798197957 C13.9384899,0.907043133 13.8994076,0.964057273 13.8261284,0.964057273 C13.7870461,0.964057273 13.7235374,0.943324858 13.6404875,0.901860029 C13.3620263,0.767099335 13.049368,0.699718988 12.7025128,0.699718988 C12.4240515,0.699718988 12.2042137,0.746366921 12.0527699,0.84484589 C11.901326,0.943324858 11.8231615,1.09363486 11.8231615,1.30614211 C11.8231615,1.45126901 11.8720143,1.5756635 11.96972,1.67414247 C12.0674257,1.77262144 12.2481813,1.87110041 12.5071014,1.95921317 L13.2008119,2.19245283 C13.5525524,2.31166421 13.8065872,2.47752353 13.9580311,2.69003078 C14.1094749,2.90253803 14.1827542,3.1461439 14.1827542,3.41566528 C14.1827542,3.63853874 14.1387866,3.84067978 14.0557368,4.0169053 C13.9678016,4.19313083 13.8505548,4.34862394 13.699111,4.47301842 C13.5476671,4.60259601 13.3669116,4.69589188 13.1568443,4.76327222 C12.9370065,4.83583568 12.7073981,4.8721174 12.4582485,4.8721174 L12.4582485,4.8721174 Z" id="Fill-1" fill="#252F3E"></path>
                            <path d="M13.4634848,7.13619005 C11.8339874,8.38517607 9.466511,9.04821803 7.43092701,9.04821803 C4.57806837,9.04821803 2.00752386,7.95342781 0.0659950547,6.13391732 C-0.0875937416,5.99000123 0.0511364159,5.79468655 0.234392961,5.90776347 C2.33441391,7.17216907 4.92472041,7.93800823 7.6042778,7.93800823 C9.41207885,7.93800823 11.3981836,7.54737886 13.2257961,6.74556068 C13.4982045,6.61706417 13.7309899,6.93059564 13.4634848,7.13619005 Z M14.1420789,6.33437186 C13.9340084,6.05681942 12.7651783,6.2007355 12.2352202,6.26755368 C12.0766785,6.28811312 12.0519141,6.14419704 12.1955972,6.03625997 C13.1267386,5.35779843 14.6571288,5.55311312 14.835482,5.77926697 C15.0137857,6.01056067 14.7859532,7.59877746 13.9141969,8.35947677 C13.7805187,8.47769355 13.6517438,8.41601523 13.7111288,8.26181942 C13.909244,7.75297327 14.3500998,6.60678445 14.1420789,6.33437186 L14.1420789,6.33437186 Z" id="Fill-2" fill="#FF9900"></path>
                        </g>
                    </g>
                    <text id="Title" font-family="Avenir-Roman, Avenir" font-size="9.39622642" font-weight="normal" line-spacing="14.6816038" fill="#505A72">
                        <tspan x="21.9245283" y="43.8443396">Maribel’s Control Plane</tspan>
                    </text>
                    <text id="Column-Title" font-family="Avenir-Roman, Avenir" font-size="5.48113208" font-weight="normal" line-spacing="7.83018868" fill="#8D98A7">
                        <tspan x="21.9245283" y="55.1132075">Development</tspan>
                    </text>
                </g>
                <g id="Group-2" transform="translate(0.000000, 84.698113)">
                    <g id="Rectangle-21-Copy-2">
                        <use fill="black" fill-opacity="1" filter="url(#filter-8)" xlink:href="#path-7"></use>
                        <rect stroke="#D2DCEA" stroke-width="0.5" fill="#FFFFFF" fill-rule="evenodd" x="-0.25" y="-0.25" width="290.5" height="78.8018868" rx="2.93632075"></rect>
                    </g>
                    <rect id="Rectangle" fill="#DFE6F0" x="21.9459459" y="19.1839623" width="34.0945946" height="5.48113208" rx="2.74056604"></rect>
                    <rect id="Rectangle" fill="#DFE6F0" x="136.77027" y="19.1839623" width="34.0945946" height="5.48113208" rx="2.74056604"></rect>
                    <g id="Application-Icons/Cockroach-DB/24x24" transform="translate(218.020360, 34.844340)">
                        <g id="Group-Copy-7">
                            <rect id="Rectangle-Copy-13" stroke="#D8D8D8" stroke-width="0.924941038" fill="#F9F9F9" fill-rule="nonzero" x="0.462470519" y="0.462470519" width="21.3910967" height="21.3910967" rx="5.54964623"></rect>
                            <g id="Asset-1-Copy-7" transform="translate(4.649175, 3.719340)" fill-rule="nonzero">
                                <path d="M4.16417738,5.57900943 C6.06534215,6.87962273 7.17450426,11.2102187 6.07071774,13.0176887 C4.15700994,11.6995426 3.04963969,7.37532216 4.16417738,5.57900943 Z" id="Shape" fill="#84C441"></path>
                                <path d="M10.8700772,0.929834906 C11.2622157,0.993570592 11.6543541,1.04429899 12.0464925,1.12624488 C12.3641246,1.18998056 12.6791425,1.3018432 13.0176887,1.39939782 C12.9209452,1.60018737 12.8140599,1.79598021 12.6974423,1.98602627 C12.6316138,2.03515592 12.5463819,2.05057675 12.4673878,2.02764958 C11.6840477,1.77008625 10.857915,1.66627612 10.0348224,1.72197843 C9.06172558,1.78213834 8.11628897,2.0681225 7.27416784,2.55704599 C7.23793864,2.58165336 7.20303378,2.60813801 7.16959759,2.63639042 C7.72258703,3.11453905 8.20333682,3.66960108 8.59698147,4.28441315 C10.2622627,6.87676463 9.9851515,10.4251514 7.90812496,12.710531 C7.49637961,13.1631844 6.9931353,13.5364934 6.54086898,13.9475236 L6.44675576,13.9475236 C6.35787104,13.8733821 6.27160059,13.7979398 6.18533014,13.7277005 C4.32659399,12.2968994 3.34755505,10.4017383 3.32533387,8.06693101 C3.29319344,6.25824975 3.98053959,4.51019483 5.23766227,3.20350795 C5.42196733,3.01100016 5.6206508,2.82499602 5.83109842,2.62078168 C5.09982003,2.17534283 4.28344772,1.8860947 3.4338255,1.77140611 C2.46054705,1.62720922 1.46670027,1.71776543 0.535922518,2.03545395 C0.481815145,2.06566951 0.416728604,2.0693674 0.359516843,2.04547644 C0.302305082,2.02158548 0.259361517,1.97277549 0.243125825,1.91318549 C0.172540908,1.76750392 0.0823490699,1.63222818 0,1.49174952 L0,1.39809709 C0.398674068,1.28883591 0.793426753,1.16526673 1.19602221,1.07421575 C1.49796879,1.00527715 1.81037241,0.976661124 2.11101187,0.929834906 L2.8756818,0.929834906 C2.95149523,0.94154146 3.02861579,0.958450928 3.10442922,0.964954569 C4.23945103,1.0453695 5.33709332,1.40275785 6.30035741,2.0055372 C6.4239337,2.10217502 6.59878944,2.09891253 6.7186384,1.99773283 C7.286498,1.62653088 7.91505508,1.35670752 8.57606742,1.20038639 C9.08323312,1.08332084 9.6034701,1.01828443 10.1171714,0.929834906 L10.8700772,0.929834906 Z M4.40371455,6.22770121 C3.59068087,7.6988249 4.40371455,11.2224978 5.79449884,12.2982001 C6.59968974,10.8231742 5.79057745,7.28909549 4.40371455,6.22770121 Z M6.49511949,3.08514167 C5.93309061,3.52620675 5.45422148,4.06306759 5.0808069,4.67072945 C6.01544667,4.88257844 6.9862394,4.88035459 7.91988912,4.66422581 C7.54152548,4.05972058 7.06028844,3.5253811 6.49773375,3.08514167 L6.49511949,3.08514167 Z" id="Shape" fill="#132849"></path>
                                <path d="M1.85966981,0.771082605 C1.58990289,0.802833065 1.3155442,0.822236124 1.05610878,0.868979857 C0.696802207,0.930716863 0.35012302,1.0145028 0,1.08858721 L0,0.771082605 L1.85966981,0.771082605 Z" id="Shape" fill="#FFFFFF"></path>
                                <path d="M8.07273218,6.50884434 C6.80545037,7.48430431 6.0649087,10.7322513 6.80067269,12.0878538 C8.07631545,11.0992442 8.81446828,7.85607889 8.07273218,6.50884434 Z" id="Shape" fill="#338D42"></path>
                            </g>
                        </g>
                    </g>
                    <g id="Application-Icons/Redis/24x24" transform="translate(191.097387, 34.844340)">
                        <rect id="Rectangle-Copy-13" fill="#D82C20" fill-rule="nonzero" x="0" y="0" width="22.3160377" height="22.3160377" rx="5.54964623"></rect>
                        <g id="Group-2-Copy-2" stroke-width="1" fill-rule="evenodd" transform="translate(5.579009, 5.579009)">
                            <circle id="Oval" fill="#FFFFFF" cx="2.32458726" cy="8.8334316" r="2.32458726"></circle>
                            <polygon id="Triangle" fill="#FFFFFF" points="8.8334316 6.50884434 11.1580189 11.1580189 6.50884434 11.1580189"></polygon>
                            <polygon id="Star" fill="#FFFFFF" points="2.78950472 4.18425708 1.14987498 5.04626144 1.4630164 3.2205069 0.136528079 1.92750035 1.96968985 1.66112636 2.78950472 0 3.60931958 1.66112636 5.44248136 1.92750035 4.11599304 3.2205069 4.42913445 5.04626144"></polygon>
                            <g id="Group" transform="translate(6.508844, 0.000000)">
                                <rect id="Rectangle" fill="#AD2115" x="0" y="0" width="4.64917453" height="4.64917453"></rect>
                                <rect id="Rectangle-Copy" fill="#7A0C00" x="1.85966981" y="1.85966981" width="2.78950472" height="2.78950472"></rect>
                            </g>
                        </g>
                    </g>
                    <g id="Application-Icons/Wordpress/24x24" transform="translate(164.174414, 34.844340)">
                        <rect id="Rectangle-Copy-13" stroke="#D8D8D8" stroke-width="0.924941038" fill="#FAFAFA" fill-rule="nonzero" x="0.462470519" y="0.462470519" width="21.3910967" height="21.3910967" rx="5.54964623"></rect>
                        <g id="Group-6" stroke-width="1" fill-rule="evenodd" transform="translate(4.649175, 4.649175)">
                            <g id="Group-3">
                                <mask id="mask-10" fill="white">
                                    <use xlink:href="#path-9"></use>
                                </mask>
                                <g id="Clip-2"></g>
                                <path d="M6.49409621,0.0293386553 C2.9075181,0.0293386553 3.15198273e-06,2.93688513 3.15198273e-06,6.52352628 C3.15198273e-06,10.1101359 2.9075181,13.0176824 6.49409621,13.0176824 C10.0806743,13.0176824 12.9881893,10.1101359 12.9881893,6.52352628 C12.9881893,2.93688513 10.0806743,0.0293386553 6.49409621,0.0293386553 M6.49409621,0.41898676 C7.3183397,0.41898676 8.11777708,0.580336756 8.87012383,0.898560933 C9.23171929,1.05152665 9.58054922,1.24086626 9.90687399,1.46131593 C10.2302044,1.67974833 10.5342762,1.93061464 10.810579,2.20698048 C11.0869448,2.48328329 11.3378111,2.78735506 11.5562435,3.11068545 C11.7766932,3.43701023 11.9660328,3.78584015 12.1189985,4.14746713 C12.4371912,4.89981389 12.5985412,5.69925127 12.5985412,6.52352628 C12.5985412,7.34780128 12.4371912,8.14720714 12.1189985,8.8995539 C11.9660328,9.26118088 11.7766932,9.61001081 11.5562435,9.9363671 C11.3378111,10.259666 11.0869448,10.5637377 10.810579,10.8400405 C10.5342762,11.1164064 10.2302044,11.3672727 9.90687399,11.5857366 C9.58054922,11.8061863 9.23171929,11.9955259 8.87012383,12.1484601 C8.11777708,12.4666843 7.3183397,12.6280343 6.49409621,12.6280343 C5.66985273,12.6280343 4.87041535,12.4666843 4.11810011,12.1484601 C3.75647313,11.9955259 3.4076432,11.8061863 3.08131843,11.5857366 C2.75798804,11.3672727 2.45391627,11.1164064 2.17761346,10.8400405 C1.90124762,10.5637377 1.65038131,10.259666 1.43194891,9.9363671 C1.21149923,9.61001081 1.02215963,9.26118088 0.86919391,8.8995539 C0.551001253,8.14720714 0.389651257,7.34780128 0.389651257,6.52352628 C0.389651257,5.69925127 0.551001253,4.89981389 0.86919391,4.14746713 C1.02215963,3.78584015 1.21149923,3.43701023 1.43194891,3.11068545 C1.65038131,2.78735506 1.90124762,2.48328329 2.17761346,2.20698048 C2.45391627,1.93061464 2.75798804,1.67974833 3.08131843,1.46131593 C3.4076432,1.24086626 3.75647313,1.05152665 4.11810011,0.898560933 C4.87041535,0.580336756 5.66985273,0.41898676 6.49409621,0.41898676" id="Fill-1" fill="#32373C" mask="url(#mask-10)"></path>
                            </g>
                            <path d="M11.4046328,3.8322306 C11.4285485,4.00990575 11.442131,4.20054586 11.442131,4.40587308 C11.442131,4.97178208 11.3361028,5.60820225 11.0177581,6.40406864 L9.3138,11.3307523 C10.9724288,10.363742 12.0878538,8.56681192 12.0878538,6.50863313 C12.0878538,5.53866589 11.8399888,4.62679725 11.4046328,3.8322306 L11.4046328,3.8322306 Z M6.60687904,6.99665491 L4.93268555,11.8605284 C5.43267226,12.007627 5.96125377,12.0878538 6.50884434,12.0878538 C7.15853137,12.0878538 7.7817682,11.9757183 8.3616579,11.7715608 C8.34671061,11.747678 8.33293311,11.722333 8.32159267,11.6946484 L6.60687904,6.99665491 Z M10.2751379,6.22727082 C10.2751379,5.53756111 10.0274029,5.06019724 9.81521645,4.68869761 C9.53238781,4.22894529 9.26720346,3.83993159 9.26720346,3.38021177 C9.26720346,2.86746234 9.65602786,2.39006598 10.2040733,2.39006598 C10.2288014,2.39006598 10.2522621,2.3930554 10.2763077,2.3945826 C9.28371046,1.48511849 7.9612656,0.929834906 6.50884434,0.929834906 C4.55968578,0.929834906 2.84500464,1.92995623 1.84740329,3.44435419 C1.9784195,3.44848088 2.10183209,3.45111286 2.20649558,3.45111286 C2.78989465,3.45111286 3.69339308,3.38021177 3.69339308,3.38021177 C3.993996,3.36260022 4.02954454,3.80444855 3.72907161,3.83993159 C3.72907161,3.83993159 3.4267465,3.87534965 3.09062754,3.89296119 L5.12215864,9.93606085 L6.34325441,6.27445157 L5.47410223,3.89296119 C5.17349932,3.87534965 4.88891599,3.83993159 4.88891599,3.83993159 C4.5882156,3.82219007 4.6234717,3.36260022 4.92433456,3.38021177 C4.92433456,3.38021177 5.8454773,3.45111286 6.39365276,3.45111286 C6.97705182,3.45111286 7.88074522,3.38021177 7.88074522,3.38021177 C8.18147811,3.36260022 8.21686419,3.80444855 7.91626127,3.83993159 C7.91626127,3.83993159 7.61364372,3.87534965 7.27778471,3.89296119 L9.29401109,9.89001738 L9.86954659,8.06634509 C10.1252427,7.26930893 10.2751379,6.70463469 10.2751379,6.22727082 L10.2751379,6.22727082 Z M0.929834906,6.50863313 C0.929834906,8.7168025 2.2130269,10.6253156 4.07425642,11.5295158 L1.41292468,4.23817348 C1.1033534,4.93197739 0.929834906,5.69980178 0.929834906,6.50863313 L0.929834906,6.50863313 Z" id="Fill-4" fill="#32373C"></path>
                        </g>
                    </g>
                    <g id="Application-Icons/CoreStorage/24x24" transform="translate(137.251441, 34.844340)">
                        <mask id="mask-12" fill="white">
                            <use xlink:href="#path-11"></use>
                        </mask>
                        <use id="Mask" fill="#0D43DC" fill-rule="nonzero" xlink:href="#path-11"></use>
                        <g id="Group-4-Copy-2" stroke-width="1" fill-rule="evenodd" mask="url(#mask-12)">
                            <g transform="translate(4.649175, 1.859670)">
                                <path d="M5.55187426,8.46757068 L9.27886733,8.37397916 C10.300207,8.34833148 11.148958,9.15549932 11.1746056,10.176839 C11.1824008,10.487257 11.1119307,10.7946431 10.9696909,11.0706648 L8.95236903,14.985351 C8.64406565,15.5836249 8.03515282,15.9672465 7.36240426,15.9870459 L3.60842563,16.0975277 C2.58720615,16.1275828 1.73497973,15.3240853 1.70492464,14.3028658 C1.6956428,13.9874847 1.76718182,13.6749708 1.91274044,13.395035 L3.95704784,9.46345852 C4.26774134,8.86593818 4.87861713,8.48447738 5.55187426,8.46757068 Z" id="Rectangle-Copy-3" fill="#2A6FFE" transform="translate(6.429534, 12.242908) rotate(30.000000) translate(-6.429534, -12.242908) "></path>
                                <path d="M5.55187426,5.40787147 L9.27886733,5.31427995 C10.300207,5.28863227 11.148958,6.09580012 11.1746056,7.1171398 C11.1824008,7.42755784 11.1119307,7.73494393 10.9696909,8.01096556 L8.95236903,11.9256518 C8.64406565,12.5239257 8.03515282,12.9075473 7.36240426,12.9273467 L3.60842563,13.0378285 C2.58720615,13.0678836 1.73497973,12.2643861 1.70492464,11.2431666 C1.6956428,10.9277855 1.76718182,10.6152716 1.91274044,10.3353358 L3.95704784,6.40375932 C4.26774134,5.80623898 4.87861713,5.42477817 5.55187426,5.40787147 Z" id="Rectangle-Copy-2" fill="#12B3F9" transform="translate(6.429534, 9.183209) rotate(30.000000) translate(-6.429534, -9.183209) "></path>
                                <path d="M5.55187426,2.61236221 L9.27886733,2.51877069 C10.300207,2.49312301 11.148958,3.30029086 11.1746056,4.32163054 C11.1824008,4.63204858 11.1119307,4.93943467 10.9696909,5.2154563 L8.95236903,9.13014254 C8.64406565,9.72841644 8.03515282,10.1120381 7.36240426,10.1318375 L3.60842563,10.2423192 C2.58720615,10.2723743 1.73497973,9.4688768 1.70492464,8.44765731 C1.6956428,8.13227625 1.76718182,7.81976234 1.91274044,7.53982654 L3.95704784,3.60825006 C4.26774134,3.01072972 4.87861713,2.62926891 5.55187426,2.61236221 Z" id="Rectangle" fill="#5EEBFC" transform="translate(6.429534, 6.387699) rotate(30.000000) translate(-6.429534, -6.387699) "></path>
                            </g>
                        </g>
                    </g>
                    <text id="Title" font-family="Avenir-Roman, Avenir" font-size="9.39622642" font-weight="normal" line-spacing="14.6816038" fill="#505A72">
                        <tspan x="21.9245283" y="43.8443396">Phil’s Control Plane</tspan>
                    </text>
                    <text id="Column-Title" font-family="Avenir-Roman, Avenir" font-size="5.48113208" font-weight="normal" line-spacing="7.83018868" fill="#8D98A7">
                        <tspan x="21.9245283" y="55.1132075">Development</tspan>
                    </text>
                </g>
            </g>
        </g>
    </g>
</svg>