<?xml version="1.0" encoding="UTF-8"?>
<svg width="1278px" height="540px" viewBox="0 0 1278 540" version="1.1" xmlns="http://www.w3.org/2000/svg" xmlns:xlink="http://www.w3.org/1999/xlink">
    <!-- Generator: Sketch 63.1 (92452) - https://sketch.com -->
    <title>Group 13</title>
    <desc>Created with Sketch.</desc>
    <defs>
        <linearGradient x1="47.9381578%" y1="18.0549006%" x2="52.4209375%" y2="80.8205742%" id="linearGradient-1">
            <stop stop-color="#0D2436" offset="0%"></stop>
            <stop stop-color="#1B3549" offset="23.9681472%"></stop>
            <stop stop-color="#1B3549" offset="76.183266%"></stop>
            <stop stop-color="#0D2436" offset="100%"></stop>
        </linearGradient>
        <linearGradient x1="188.444733%" y1="16.1324686%" x2="4.56205966%" y2="53.4668289%" id="linearGradient-2">
            <stop stop-color="#FFFCF0" offset="0%"></stop>
            <stop stop-color="#FAAD13" offset="100%"></stop>
        </linearGradient>
        <linearGradient x1="189.027823%" y1="6.90198873%" x2="0%" y2="63.1059616%" id="linearGradient-3">
            <stop stop-color="#F8F7FF" offset="0%"></stop>
            <stop stop-color="#6D64F5" offset="100%"></stop>
        </linearGradient>
        <linearGradient x1="45.1618871%" y1="-16.1273549%" x2="54.004984%" y2="107.75482%" id="linearGradient-4">
            <stop stop-color="#3DE2CB" offset="0%"></stop>
            <stop stop-color="#6D64F5" offset="100%"></stop>
        </linearGradient>
        <polygon id="path-5" points="0 0 8 0 8 11 0 11"></polygon>
        <polygon id="path-7" points="0 0 8 0 8 11 0 11"></polygon>
        <polygon id="path-9" points="0 0 8 0 8 11 0 11"></polygon>
        <polygon id="path-11" points="0 0 8 0 8 11 0 11"></polygon>
        <polygon id="path-13" points="0 0 8 0 8 11 0 11"></polygon>
        <polygon id="path-15" points="0 0 8 0 8 11 0 11"></polygon>
        <polygon id="path-17" points="0 0 8 0 8 11 0 11"></polygon>
        <polygon id="path-19" points="0 0 8.06666667 0 8.06666667 11 0 11"></polygon>
        <polygon id="path-21" points="0 0 8.06666667 0 8.06666667 11 0 11"></polygon>
        <polygon id="path-23" points="0 0 8.06666667 0 8.06666667 11 0 11"></polygon>
        <polygon id="path-25" points="0 0 8.06666667 0 8.06666667 11 0 11"></polygon>
        <polygon id="path-27" points="0 0 8.06666667 0 8.06666667 11 0 11"></polygon>
        <polygon id="path-29" points="0 0 8.06666667 0 8.06666667 11 0 11"></polygon>
        <polygon id="path-31" points="0 0 8.06666667 0 8.06666667 11 0 11"></polygon>
        <polygon id="path-33" points="0 0 8.06666667 0 8.06666667 11 0 11"></polygon>
        <polygon id="path-35" points="0 0 8.06666667 0 8.06666667 11 0 11"></polygon>
        <linearGradient x1="105.447519%" y1="49.2837153%" x2="-4.14975725%" y2="50.6299631%" id="linearGradient-37">
            <stop stop-color="#46CBD3" offset="0%"></stop>
            <stop stop-color="#696FF1" offset="100%"></stop>
        </linearGradient>
        <linearGradient x1="105.447519%" y1="49.6486144%" x2="-4.14975725%" y2="50.3090391%" id="linearGradient-38">
            <stop stop-color="#46CBD3" offset="0%"></stop>
            <stop stop-color="#696FF1" offset="100%"></stop>
        </linearGradient>
        <polygon id="path-39" points="0.16856 0.24028563 15.3846933 0.24028563 15.3846933 20.077037 0.16856 20.077037"></polygon>
        <linearGradient x1="139.717742%" y1="76.4364919%" x2="0%" y2="0%" id="linearGradient-41">
            <stop stop-color="#3DE2CB" offset="0%"></stop>
            <stop stop-color="#6D64F5" offset="100%"></stop>
        </linearGradient>
        <circle id="path-42" cx="1174.5" cy="303.5" r="16.5"></circle>
        <linearGradient x1="105.447519%" y1="44.3778299%" x2="-4.14975725%" y2="54.9446255%" id="linearGradient-43">
            <stop stop-color="#46CBD3" offset="0%"></stop>
            <stop stop-color="#696FF1" offset="100%"></stop>
        </linearGradient>
        <path d="M954,200 L1181,200 C1186.52285,200 1191,204.477153 1191,210 L1191,273.534228 C1191,276.081574 1190.02786,278.532898 1188.282,280.387875 L1153.96127,316.853647 C1152.07152,318.861513 1149.43657,320 1146.67927,320 L954,320 C948.477153,320 944,315.522847 944,310 L944,210 C944,204.477153 948.477153,200 954,200 Z" id="path-44"></path>
        <filter x="-4.3%" y="-8.8%" width="108.5%" height="117.5%" filterUnits="objectBoundingBox" id="filter-45">
            <feMorphology radius="1.5" operator="dilate" in="SourceAlpha" result="shadowSpreadOuter1"></feMorphology>
            <feOffset dx="0" dy="0" in="shadowSpreadOuter1" result="shadowOffsetOuter1"></feOffset>
            <feGaussianBlur stdDeviation="2" in="shadowOffsetOuter1" result="shadowBlurOuter1"></feGaussianBlur>
            <feComposite in="shadowBlurOuter1" in2="SourceAlpha" operator="out" result="shadowBlurOuter1"></feComposite>
            <feColorMatrix values="0 0 0 0 0.42745098   0 0 0 0 0.392156863   0 0 0 0 0.960784314  0 0 0 0.5 0" type="matrix" in="shadowBlurOuter1"></feColorMatrix>
        </filter>
        <polygon id="path-46" points="0 0.1558 17.7444931 0.1558 17.7444931 25.8898984 0 25.8898984"></polygon>
        <polygon id="path-48" points="0.000182068966 0.154491803 15.5988621 0.154491803 15.5988621 18.9171787 0.000182068966 18.9171787"></polygon>
        <polygon id="path-50" points="0.0119688413 0.139779944 4.47026897 0.139779944 4.47026897 8.40983607 0.0119688413 8.40983607"></polygon>
        <circle id="path-52" cx="348.5" cy="242.5" r="16.5"></circle>
        <polygon id="path-53" points="0 0 17 0 17 23 0 23"></polygon>
        <polygon id="path-55" points="0 0 17 0 17 23 0 23"></polygon>
        <linearGradient x1="105.447519%" y1="47.7254864%" x2="-4.14975725%" y2="52.0004052%" id="linearGradient-57">
            <stop stop-color="#46CBD3" offset="0%"></stop>
            <stop stop-color="#696FF1" offset="100%"></stop>
        </linearGradient>
    </defs>
    <g id="Product" stroke="none" stroke-width="1" fill="none" fill-rule="evenodd">
        <g id="Product-v1" transform="translate(-81.000000, -1324.000000)">
            <g id="Group-13" transform="translate(81.000000, 1324.000000)">
                <path d="M545,-366 L733,-366 C738.522847,-366 743,-361.522847 743,-356 L743,902 C743,907.522847 738.522847,912 733,912 L545,912 C539.477153,912 535,907.522847 535,902 L535,-356 C535,-361.522847 539.477153,-366 545,-366 Z" id="Rectangle-Copy-15" fill="url(#linearGradient-1)" transform="translate(639.000000, 273.000000) rotate(90.000000) translate(-639.000000, -273.000000) "></path>
                <rect id="Rectangle-Copy-24" stroke="#6D64F5" fill="#0B1C28" x="828.5" y="0.5" width="69" height="69" rx="34.5"></rect>
                <rect id="Rectangle-Copy-30" stroke="#49C2D6" fill="#0B1C28" x="544.5" y="0.5" width="69" height="69" rx="34.5"></rect>
                <rect id="Rectangle-Copy-33" stroke="#FAAD13" fill="#0B1C28" x="260.5" y="0.5" width="69" height="69" rx="34.5"></rect>
                <rect id="Rectangle-Copy-27" stroke="#6D64F5" fill="#0B1C28" x="888.5" y="0.5" width="69" height="69" rx="34.5"></rect>
                <rect id="Rectangle-Copy-31" stroke="#49C2D6" fill="#0B1C28" x="604.5" y="0.5" width="69" height="69" rx="34.5"></rect>
                <rect id="Rectangle-Copy-34" stroke="#FAAD13" fill="#0B1C28" x="320.5" y="0.5" width="69" height="69" rx="34.5"></rect>
                <rect id="Rectangle-Copy-28" stroke="#6D64F5" fill="#0B1C28" x="948.5" y="0.5" width="69" height="69" rx="34.5"></rect>
                <rect id="Rectangle-Copy-32" stroke="#49C2D6" fill="#0B1C28" x="664.5" y="0.5" width="69" height="69" rx="34.5"></rect>
                <rect id="Rectangle-Copy-35" stroke="#FAAD13" fill="#0B1C28" x="380.5" y="0.5" width="69" height="69" rx="34.5"></rect>
                <path d="M746,469 L533,469 C530.514719,469 528.264719,470.007359 526.636039,471.636039 C525.007359,473.264719 524,475.514719 524,478 L524,530 C524,532.485281 525.007359,534.735281 526.636039,536.363961 C528.264719,537.992641 530.514719,539 533,539 L746,539 C748.485281,539 750.735281,537.992641 752.363961,536.363961 C753.992641,534.735281 755,532.485281 755,530 L755,478 C755,475.514719 753.992641,473.264719 752.363961,471.636039 C750.735281,470.007359 748.485281,469 746,469 Z" id="Rectangle-Copy-17" stroke="#49C2D6" stroke-width="2" fill="#0B1C28"></path>
                <rect id="Rectangle-Copy-23" stroke="#FAAD13" stroke-width="2" fill="#0B1C28" x="231" y="469" width="231" height="70" rx="10"></rect>
                <rect id="Rectangle-Copy-22" stroke="#6D64F5" stroke-width="2" fill="#0B1C28" x="817" y="469" width="231" height="70" rx="10"></rect>
                <text id="Azure" font-family="Avenir-Black, Avenir" font-size="18" font-weight="700" line-spacing="32" fill="#FFFFFF">
                    <tspan x="614.498" y="504">Azure</tspan>
                </text>
                <text id="App" font-family="Avenir-Black, Avenir" font-size="16" font-weight="700" line-spacing="32" fill="#6D64F5">
                    <tspan x="966.992" y="34">App</tspan>
                </text>
                <text id="App-Copy-3" font-family="Avenir-Black, Avenir" font-size="16" font-weight="700" line-spacing="32" fill="#49C2D6">
                    <tspan x="682.992" y="34">App</tspan>
                </text>
                <text id="App-Copy-6" font-family="Avenir-Black, Avenir" font-size="16" font-weight="700" line-spacing="32" fill="#FAAD13">
                    <tspan x="398.992" y="34">App</tspan>
                </text>
                <text id="App-Copy" font-family="Avenir-Black, Avenir" font-size="16" font-weight="700" line-spacing="32" fill="#6D64F5">
                    <tspan x="906.992" y="34">App</tspan>
                </text>
                <text id="App-Copy-4" font-family="Avenir-Black, Avenir" font-size="16" font-weight="700" line-spacing="32" fill="#49C2D6">
                    <tspan x="622.992" y="34">App</tspan>
                </text>
                <text id="App-Copy-7" font-family="Avenir-Black, Avenir" font-size="16" font-weight="700" line-spacing="32" fill="#FAAD13">
                    <tspan x="338.992" y="34">App</tspan>
                </text>
                <text id="App-Copy-2" font-family="Avenir-Black, Avenir" font-size="16" font-weight="700" line-spacing="32" fill="#6D64F5">
                    <tspan x="845.992" y="34">App</tspan>
                </text>
                <text id="App-Copy-5" font-family="Avenir-Black, Avenir" font-size="16" font-weight="700" line-spacing="32" fill="#49C2D6">
                    <tspan x="561.992" y="34">App</tspan>
                </text>
                <text id="App-Copy-8" font-family="Avenir-Black, Avenir" font-size="16" font-weight="700" line-spacing="32" fill="#FAAD13">
                    <tspan x="277.992" y="34">App</tspan>
                </text>
                <text id="On-prem" font-family="Avenir-Black, Avenir" font-size="18" font-weight="700" line-spacing="32" fill="#FFFFFF">
                    <tspan x="895.015" y="504">On-prem</tspan>
                </text>
                <text id="AWS" font-family="Avenir-Black, Avenir" font-size="18" font-weight="700" line-spacing="32" fill="#FFFFFF">
                    <tspan x="325.39" y="504">AWS</tspan>
                </text>
                <path d="M611,320 L611,407.344504 C611,415.628775 604.284271,422.344504 596,422.344504 L361,422.344504 C352.715729,422.344504 346,429.060233 346,437.344504 L346,469 L346,469" id="Path-4" stroke="url(#linearGradient-2)"></path>
                <path d="M933,320 L933,407.344504 C933,415.628775 926.284271,422.344504 918,422.344504 L683,422.344504 C674.715729,422.344504 668,429.060233 668,437.344504 L668,469 L668,469" id="Path-4-Copy-2" stroke="url(#linearGradient-3)" transform="translate(800.500000, 394.500000) scale(-1, 1) translate(-800.500000, -394.500000) "></path>
                <circle id="Oval-Copy-3" fill="#FFFFFF" cx="834.5" cy="303.5" r="16.5"></circle>
                <path d="M835.558059,313.660966 L844.669555,304.312704 C845.110148,303.865449 845.110148,303.134551 844.669555,302.682506 L835.558059,293.339034 C835.12218,292.886989 834.409751,292.886989 833.969203,293.339034 L832.928685,294.406595 C832.478754,294.86343 832.488091,295.608793 832.947451,296.056001 L838.595255,301.576484 L825.124874,301.576484 C824.501515,301.576484 824,302.091034 824,302.730593 L824,304.269407 C824,304.908966 824.501515,305.423516 825.124874,305.423516 L838.595255,305.423516 L832.947451,310.943999 C832.492806,311.391207 832.483423,312.13657 832.928685,312.593405 L833.969203,313.660966 C834.405082,314.113011 835.117511,314.113011 835.558059,313.660966 Z" id="arrow-right-copy" fill="#0B1C28" fill-rule="nonzero"></path>
                <path d="M589,48 L653.084643,48 C655.65615,48 658.128823,48.9906217 659.989028,50.7660894 L695.904385,85.0453994 C697.88142,86.9323747 699,89.5463003 699,92.2793101 L699,462 C699,467.522847 694.522847,472 689,472 L589,472 C583.477153,472 579,467.522847 579,462 L579,58 C579,52.4771525 583.477153,48 589,48 Z" id="Rectangle-Copy-38" stroke="#FFFFFF" stroke-width="2" fill="url(#linearGradient-4)" transform="translate(639.000000, 260.000000) rotate(90.000000) translate(-639.000000, -260.000000) "></path>
                <text id="Internal-Cloud-Platf" font-family="Avenir-Light, Avenir" font-size="16" font-weight="300" line-spacing="32" fill="#FFFFFF">
                    <tspan x="556.94" y="277">Internal Cloud Platform</tspan>
                </text>
                <g id="Group-5-Copy-6" opacity="0.603376116" transform="translate(640.000000, 351.500000) rotate(-90.000000) translate(-640.000000, -351.500000) translate(636.000000, 346.000000)">
                    <mask id="mask-6" fill="white">
                        <use xlink:href="#path-5"></use>
                    </mask>
                    <g id="Clip-4"></g>
                    <path d="M8,0.858106985 L8,10.1419566 C8,10.7791663 7.51204611,11.1935311 7.09740927,10.9081988 L0.344330486,6.2597818 C-0.115052187,5.94361153 -0.114697999,5.04216921 0.3449208,4.72681047 L7.09811765,0.0913778667 C7.51263642,-0.193142909 8,0.221221917 8,0.858106985" id="Fill-3" fill="#4AC0D6" mask="url(#mask-6)"></path>
                </g>
                <g id="Group-5-Copy-15" opacity="0.603376116" transform="translate(640.000000, 389.500000) rotate(-90.000000) translate(-640.000000, -389.500000) translate(636.000000, 384.000000)">
                    <mask id="mask-8" fill="white">
                        <use xlink:href="#path-7"></use>
                    </mask>
                    <g id="Clip-4"></g>
                    <path d="M8,0.858106985 L8,10.1419566 C8,10.7791663 7.51204611,11.1935311 7.09740927,10.9081988 L0.344330486,6.2597818 C-0.115052187,5.94361153 -0.114697999,5.04216921 0.3449208,4.72681047 L7.09811765,0.0913778667 C7.51263642,-0.193142909 8,0.221221917 8,0.858106985" id="Fill-3" fill="#4AC0D6" mask="url(#mask-8)"></path>
                </g>
                <g id="Group-5-Copy-15" opacity="0.603376116" transform="translate(640.000000, 428.500000) rotate(-90.000000) translate(-640.000000, -428.500000) translate(636.000000, 423.000000)">
                    <mask id="mask-10" fill="white">
                        <use xlink:href="#path-9"></use>
                    </mask>
                    <g id="Clip-4"></g>
                    <path d="M8,0.858106985 L8,10.1419566 C8,10.7791663 7.51204611,11.1935311 7.09740927,10.9081988 L0.344330486,6.2597818 C-0.115052187,5.94361153 -0.114697999,5.04216921 0.3449208,4.72681047 L7.09811765,0.0913778667 C7.51263642,-0.193142909 8,0.221221917 8,0.858106985" id="Fill-3" fill="#4AC0D6" mask="url(#mask-10)"></path>
                </g>
                <g id="Group-5-Copy-15" opacity="0.603376116" transform="translate(640.000000, 465.500000) rotate(-90.000000) translate(-640.000000, -465.500000) translate(636.000000, 460.000000)">
                    <mask id="mask-12" fill="white">
                        <use xlink:href="#path-11"></use>
                    </mask>
                    <g id="Clip-4"></g>
                    <path d="M8,0.858106985 L8,10.1419566 C8,10.7791663 7.51204611,11.1935311 7.09740927,10.9081988 L0.344330486,6.2597818 C-0.115052187,5.94361153 -0.114697999,5.04216921 0.3449208,4.72681047 L7.09811765,0.0913778667 C7.51263642,-0.193142909 8,0.221221917 8,0.858106985" id="Fill-3" fill="#4AC0D6" mask="url(#mask-12)"></path>
                </g>
                <g id="Group-5-Copy-16" opacity="0.603376116" transform="translate(639.000000, 191.500000) rotate(-90.000000) translate(-639.000000, -191.500000) translate(635.000000, 186.000000)">
                    <mask id="mask-14" fill="white">
                        <use xlink:href="#path-13"></use>
                    </mask>
                    <g id="Clip-4"></g>
                    <path d="M8,0.858106985 L8,10.1419566 C8,10.7791663 7.51204611,11.1935311 7.09740927,10.9081988 L0.344330486,6.2597818 C-0.115052187,5.94361153 -0.114697999,5.04216921 0.3449208,4.72681047 L7.09811765,0.0913778667 C7.51263642,-0.193142909 8,0.221221917 8,0.858106985" id="Fill-3" fill="#4AC0D6" mask="url(#mask-14)"></path>
                </g>
                <g id="Group-5-Copy-17" opacity="0.603376116" transform="translate(556.000000, 191.500000) rotate(-90.000000) translate(-556.000000, -191.500000) translate(552.000000, 186.000000)">
                    <mask id="mask-16" fill="white">
                        <use xlink:href="#path-15"></use>
                    </mask>
                    <g id="Clip-4"></g>
                    <path d="M8,0.858106985 L8,10.1419566 C8,10.7791663 7.51204611,11.1935311 7.09740927,10.9081988 L0.344330486,6.2597818 C-0.115052187,5.94361153 -0.114697999,5.04216921 0.3449208,4.72681047 L7.09811765,0.0913778667 C7.51263642,-0.193142909 8,0.221221917 8,0.858106985" id="Fill-3" fill="#FAAD13" mask="url(#mask-16)"></path>
                </g>
                <g id="Group-5-Copy-18" opacity="0.603376116" transform="translate(724.000000, 191.500000) rotate(-90.000000) translate(-724.000000, -191.500000) translate(720.000000, 186.000000)">
                    <mask id="mask-18" fill="white">
                        <use xlink:href="#path-17"></use>
                    </mask>
                    <g id="Clip-4"></g>
                    <path d="M8,0.858106985 L8,10.1419566 C8,10.7791663 7.51204611,11.1935311 7.09740927,10.9081988 L0.344330486,6.2597818 C-0.115052187,5.94361153 -0.114697999,5.04216921 0.3449208,4.72681047 L7.09811765,0.0913778667 C7.51263642,-0.193142909 8,0.221221917 8,0.858106985" id="Fill-3" fill="#6D64F5" mask="url(#mask-18)"></path>
                </g>
                <g id="Group-5" transform="translate(340.000000, 347.000000)" opacity="0.603376116">
                    <g id="Group-5-Copy-6" transform="translate(271.033333, 42.500000) rotate(-90.000000) translate(-271.033333, -42.500000) translate(267.000000, 37.000000)">
                        <mask id="mask-20" fill="white">
                            <use xlink:href="#path-19"></use>
                        </mask>
                        <g id="Clip-4"></g>
                        <path d="M8.06666667,0.858106985 L8.06666667,10.1419566 C8.06666667,10.7791663 7.57464649,11.1935311 7.15655435,10.9081988 L0.347199907,6.2597818 C-0.116010956,5.94361153 -0.115653815,5.04216921 0.34779514,4.72681047 L7.15726863,0.0913778667 C7.57524173,-0.193142909 8.06666667,0.221221917 8.06666667,0.858106985" id="Fill-3" fill="#FAAD13" mask="url(#mask-20)"></path>
                    </g>
                    <g id="Group-5-Copy-8" transform="translate(233.000000, 70.000000)">
                        <mask id="mask-22" fill="white">
                            <use xlink:href="#path-21"></use>
                        </mask>
                        <g id="Clip-4"></g>
                        <path d="M8.06666667,0.858106985 L8.06666667,10.1419566 C8.06666667,10.7791663 7.57464649,11.1935311 7.15655435,10.9081988 L0.347199907,6.2597818 C-0.116010956,5.94361153 -0.115653815,5.04216921 0.34779514,4.72681047 L7.15726863,0.0913778667 C7.57524173,-0.193142909 8.06666667,0.221221917 8.06666667,0.858106985" id="Fill-3" fill="#FAAD13" mask="url(#mask-22)"></path>
                    </g>
                    <g id="Group-5-Copy-8" transform="translate(195.000000, 70.000000)">
                        <mask id="mask-24" fill="white">
                            <use xlink:href="#path-23"></use>
                        </mask>
                        <g id="Clip-4"></g>
                        <path d="M8.06666667,0.858106985 L8.06666667,10.1419566 C8.06666667,10.7791663 7.57464649,11.1935311 7.15655435,10.9081988 L0.347199907,6.2597818 C-0.116010956,5.94361153 -0.115653815,5.04216921 0.34779514,4.72681047 L7.15726863,0.0913778667 C7.57524173,-0.193142909 8.06666667,0.221221917 8.06666667,0.858106985" id="Fill-3" fill="#FAAD13" mask="url(#mask-24)"></path>
                    </g>
                    <g id="Group-5-Copy-8" transform="translate(157.000000, 70.000000)">
                        <mask id="mask-26" fill="white">
                            <use xlink:href="#path-25"></use>
                        </mask>
                        <g id="Clip-4"></g>
                        <path d="M8.06666667,0.858106985 L8.06666667,10.1419566 C8.06666667,10.7791663 7.57464649,11.1935311 7.15655435,10.9081988 L0.347199907,6.2597818 C-0.116010956,5.94361153 -0.115653815,5.04216921 0.34779514,4.72681047 L7.15726863,0.0913778667 C7.57524173,-0.193142909 8.06666667,0.221221917 8.06666667,0.858106985" id="Fill-3" fill="#FAAD13" mask="url(#mask-26)"></path>
                    </g>
                    <g id="Group-5-Copy-8" transform="translate(119.000000, 70.000000)">
                        <mask id="mask-28" fill="white">
                            <use xlink:href="#path-27"></use>
                        </mask>
                        <g id="Clip-4"></g>
                        <path d="M8.06666667,0.858106985 L8.06666667,10.1419566 C8.06666667,10.7791663 7.57464649,11.1935311 7.15655435,10.9081988 L0.347199907,6.2597818 C-0.116010956,5.94361153 -0.115653815,5.04216921 0.34779514,4.72681047 L7.15726863,0.0913778667 C7.57524173,-0.193142909 8.06666667,0.221221917 8.06666667,0.858106985" id="Fill-3" fill="#FAAD13" mask="url(#mask-28)"></path>
                    </g>
                    <g id="Group-5-Copy-8" transform="translate(81.000000, 70.000000)">
                        <mask id="mask-30" fill="white">
                            <use xlink:href="#path-29"></use>
                        </mask>
                        <g id="Clip-4"></g>
                        <path d="M8.06666667,0.858106985 L8.06666667,10.1419566 C8.06666667,10.7791663 7.57464649,11.1935311 7.15655435,10.9081988 L0.347199907,6.2597818 C-0.116010956,5.94361153 -0.115653815,5.04216921 0.34779514,4.72681047 L7.15726863,0.0913778667 C7.57524173,-0.193142909 8.06666667,0.221221917 8.06666667,0.858106985" id="Fill-3" fill="#FAAD13" mask="url(#mask-30)"></path>
                    </g>
                    <g id="Group-5-Copy-8" transform="translate(43.000000, 70.000000)">
                        <mask id="mask-32" fill="white">
                            <use xlink:href="#path-31"></use>
                        </mask>
                        <g id="Clip-4"></g>
                        <path d="M8.06666667,0.858106985 L8.06666667,10.1419566 C8.06666667,10.7791663 7.57464649,11.1935311 7.15655435,10.9081988 L0.347199907,6.2597818 C-0.116010956,5.94361153 -0.115653815,5.04216921 0.34779514,4.72681047 L7.15726863,0.0913778667 C7.57524173,-0.193142909 8.06666667,0.221221917 8.06666667,0.858106985" id="Fill-3" fill="#FAAD13" mask="url(#mask-32)"></path>
                    </g>
                    <g id="Group-5-Copy-6" transform="translate(271.033333, 4.500000) rotate(-90.000000) translate(-271.033333, -4.500000) translate(267.000000, -1.000000)">
                        <mask id="mask-34" fill="white">
                            <use xlink:href="#path-33"></use>
                        </mask>
                        <g id="Clip-4"></g>
                        <path d="M8.06666667,0.858106985 L8.06666667,10.1419566 C8.06666667,10.7791663 7.57464649,11.1935311 7.15655435,10.9081988 L0.347199907,6.2597818 C-0.116010956,5.94361153 -0.115653815,5.04216921 0.34779514,4.72681047 L7.15726863,0.0913778667 C7.57524173,-0.193142909 8.06666667,0.221221917 8.06666667,0.858106985" id="Fill-3" fill="#FAAD13" mask="url(#mask-34)"></path>
                    </g>
                    <g id="Group-5-Copy-6" transform="translate(6.033333, 118.500000) rotate(-90.000000) translate(-6.033333, -118.500000) translate(2.000000, 113.000000)">
                        <mask id="mask-36" fill="white">
                            <use xlink:href="#path-35"></use>
                        </mask>
                        <g id="Clip-4"></g>
                        <path d="M8.06666667,0.858106985 L8.06666667,10.1419566 C8.06666667,10.7791663 7.57464649,11.1935311 7.15655435,10.9081988 L0.347199907,6.2597818 C-0.116010956,5.94361153 -0.115653815,5.04216921 0.34779514,4.72681047 L7.15726863,0.0913778667 C7.57524173,-0.193142909 8.06666667,0.221221917 8.06666667,0.858106985" id="Fill-3" fill="#FAAD13" mask="url(#mask-36)"></path>
                    </g>
                </g>
                <path d="M590,334 L437,334 C434.514719,334 432.264719,335.007359 430.636039,336.636039 C429.007359,338.264719 428,340.514719 428,343 L428,353 C428,355.485281 429.007359,357.735281 430.636039,359.363961 C432.264719,360.992641 434.514719,362 437,362 L591.858724,362 C593.830733,362 595.616052,361.200685 596.908369,359.908369 C598.200685,358.616052 599,356.830733 599,354.858724 L599,343 C599,340.514719 597.992641,338.264719 596.363961,336.636039 C594.735281,335.007359 592.485281,334 590,334 Z" id="Rectangle-Copy-19" stroke="url(#linearGradient-37)" stroke-width="2" fill="#0B1C28"></path>
                <text id="Identity,-policy,-mo" font-family="Avenir-Medium, Avenir" font-size="11" font-weight="400" line-spacing="18" fill="#FFFFFF">
                    <tspan x="447.4775" y="350">Identity, policy, monitoring</tspan>
                </text>
                <g id="Group-8" opacity="0.604468936" transform="translate(662.000000, 347.000000)" fill="#6D64F5">
                    <path d="M10.0666667,37.858107 L10.0666667,47.1419566 C10.0666667,47.7791663 9.57464649,48.1935311 9.15655435,47.9081988 L2.34719991,43.2597818 C1.88398904,42.9436115 1.88434618,42.0421692 2.34779514,41.7268105 L9.15726863,37.0913779 C9.57524173,36.8068571 10.0666667,37.2212219 10.0666667,37.858107" id="Fill-3" transform="translate(6.033333, 42.500000) scale(-1, 1) rotate(-90.000000) translate(-6.033333, -42.500000) "></path>
                    <path d="M44.0666667,70.858107 L44.0666667,80.1419566 C44.0666667,80.7791663 43.5746465,81.1935311 43.1565543,80.9081988 L36.3471999,76.2597818 C35.883989,75.9436115 35.8843462,75.0421692 36.3477951,74.7268105 L43.1572686,70.0913779 C43.5752417,69.8068571 44.0666667,70.2212219 44.0666667,70.858107" id="Fill-3" transform="translate(40.033333, 75.500000) scale(-1, 1) translate(-40.033333, -75.500000) "></path>
                    <path d="M82.0666667,70.858107 L82.0666667,80.1419566 C82.0666667,80.7791663 81.5746465,81.1935311 81.1565543,80.9081988 L74.3471999,76.2597818 C73.883989,75.9436115 73.8843462,75.0421692 74.3477951,74.7268105 L81.1572686,70.0913779 C81.5752417,69.8068571 82.0666667,70.2212219 82.0666667,70.858107" id="Fill-3" transform="translate(78.033333, 75.500000) scale(-1, 1) translate(-78.033333, -75.500000) "></path>
                    <path d="M120.066667,70.858107 L120.066667,80.1419566 C120.066667,80.7791663 119.574646,81.1935311 119.156554,80.9081988 L112.3472,76.2597818 C111.883989,75.9436115 111.884346,75.0421692 112.347795,74.7268105 L119.157269,70.0913779 C119.575242,69.8068571 120.066667,70.2212219 120.066667,70.858107" id="Fill-3" transform="translate(116.033333, 75.500000) scale(-1, 1) translate(-116.033333, -75.500000) "></path>
                    <path d="M158.066667,70.858107 L158.066667,80.1419566 C158.066667,80.7791663 157.574646,81.1935311 157.156554,80.9081988 L150.3472,76.2597818 C149.883989,75.9436115 149.884346,75.0421692 150.347795,74.7268105 L157.157269,70.0913779 C157.575242,69.8068571 158.066667,70.2212219 158.066667,70.858107" id="Fill-3" transform="translate(154.033333, 75.500000) scale(-1, 1) translate(-154.033333, -75.500000) "></path>
                    <path d="M196.066667,70.858107 L196.066667,80.1419566 C196.066667,80.7791663 195.574646,81.1935311 195.156554,80.9081988 L188.3472,76.2597818 C187.883989,75.9436115 187.884346,75.0421692 188.347795,74.7268105 L195.157269,70.0913779 C195.575242,69.8068571 196.066667,70.2212219 196.066667,70.858107" id="Fill-3" transform="translate(192.033333, 75.500000) scale(-1, 1) translate(-192.033333, -75.500000) "></path>
                    <path d="M234.066667,70.858107 L234.066667,80.1419566 C234.066667,80.7791663 233.574646,81.1935311 233.156554,80.9081988 L226.3472,76.2597818 C225.883989,75.9436115 225.884346,75.0421692 226.347795,74.7268105 L233.157269,70.0913779 C233.575242,69.8068571 234.066667,70.2212219 234.066667,70.858107" id="Fill-3" transform="translate(230.033333, 75.500000) scale(-1, 1) translate(-230.033333, -75.500000) "></path>
                    <path d="M10.0666667,-0.141893015 L10.0666667,9.1419566 C10.0666667,9.77916628 9.57464649,10.1935311 9.15655435,9.90819881 L2.34719991,5.2597818 C1.88398904,4.94361153 1.88434618,4.04216921 2.34779514,3.72681047 L9.15726863,-0.908622133 C9.57524173,-1.19314291 10.0666667,-0.778778083 10.0666667,-0.141893015" id="Fill-3" transform="translate(6.033333, 4.500000) scale(-1, 1) rotate(-90.000000) translate(-6.033333, -4.500000) "></path>
                    <path d="M275.066667,113.858107 L275.066667,123.141957 C275.066667,123.779166 274.574646,124.193531 274.156554,123.908199 L267.3472,119.259782 C266.883989,118.943612 266.884346,118.042169 267.347795,117.72681 L274.157269,113.091378 C274.575242,112.806857 275.066667,113.221222 275.066667,113.858107" id="Fill-3" transform="translate(271.033333, 118.500000) scale(-1, 1) rotate(-90.000000) translate(-271.033333, -118.500000) "></path>
                </g>
                <path d="M845,334 L692,334 C689.514719,334 687.264719,335.007359 685.636039,336.636039 C684.007359,338.264719 683,340.514719 683,343 L683,353 C683,355.485281 684.007359,357.735281 685.636039,359.363961 C687.264719,360.992641 689.514719,362 692,362 L846.858724,362 C848.830733,362 850.616052,361.200685 851.908369,359.908369 C853.200685,358.616052 854,356.830733 854,354.858724 L854,343 C854,340.514719 852.992641,338.264719 851.363961,336.636039 C849.735281,335.007359 847.485281,334 845,334 Z" id="Rectangle-Copy-36" stroke="url(#linearGradient-37)" stroke-width="2" fill="#0B1C28"></path>
                <path d="M1181,334 L954,334 C951.514719,334 949.264719,335.007359 947.636039,336.636039 C946.007359,338.264719 945,340.514719 945,343 L945,353 C945,355.485281 946.007359,357.735281 947.636039,359.363961 C949.264719,360.992641 951.514719,362 954,362 L1182.85872,362 C1184.83073,362 1186.61605,361.200685 1187.90837,359.908369 C1189.20069,358.616052 1190,356.830733 1190,354.858724 L1190,343 C1190,340.514719 1188.99264,338.264719 1187.36396,336.636039 C1185.73528,335.007359 1183.48528,334 1181,334 Z" id="Rectangle-Copy-37" stroke="url(#linearGradient-38)" stroke-width="2" fill="#0B1C28"></path>
                <text id="Storage,-compute,-ne" font-family="Avenir-Medium, Avenir" font-size="11" font-weight="400" line-spacing="18" fill="#FFFFFF">
                    <tspan x="693.38" y="350">Storage, compute, networking</tspan>
                </text>
                <text id="Upbound-power-by-Cro" font-family="Avenir-Medium, Avenir" font-size="11" font-weight="400" line-spacing="18" fill="#FFFFFF">
                    <tspan x="990.461" y="350">Upbound power by Crossplane</tspan>
                </text>
                <g id="Logo-white" transform="translate(581.000000, 228.000000)">
                    <path d="M14.9333333,11.3539829 L14.8758727,17.1268967 C14.8758727,22.6752348 9.6793945,23.8 7.87031202,23.8 C4.10849552,23.8 0.933333333,21.4447871 0.933333333,17.1268967 L0.933333333,11.0265555 C0.933333333,9.67721471 1.69051591,8.86666667 2.91572444,8.86666667 C4.17059005,8.86666667 4.92869941,9.67721471 4.92869941,11.0265555 L4.92869941,16.6635916 C4.92869941,18.8527318 6.00469571,20.0510974 7.87031202,20.0510974 C9.85548347,20.0510974 10.9370405,19.0320148 10.9370405,16.6635916 L10.9370405,11.3539829 C10.9370405,10.0046422 11.6951498,9.1959813 12.9490887,9.1959813 C14.175224,9.1959813 14.9333333,10.0046422 14.9333333,11.3539829" id="Fill-1" fill="#FFFFFF"></path>
                    <path d="M83.0666667,11.0248046 L83.0092061,17.1274186 C83.0092061,22.6751638 77.8127278,23.8 76.0054989,23.8 C72.2427556,23.8 69.0666667,21.4446382 69.0666667,17.1274186 L69.0666667,11.0248046 C69.0666667,9.67537862 69.8238492,8.86666667 71.0499846,8.86666667 C72.3048502,8.86666667 73.0620327,9.67537862 73.0620327,11.0248046 L73.0620327,16.6631406 C73.0620327,18.8524192 74.138029,20.0508605 76.0054989,20.0508605 C77.9888168,20.0508605 79.0703738,19.0317135 79.0703738,16.6631406 L79.0703738,11.0248046 C79.0703738,9.67537862 79.8294099,8.86666667 81.0833488,8.86666667 C82.3094841,8.86666667 83.0666667,9.67537862 83.0666667,11.0248046" id="Fill-3" fill="#FFFFFF"></path>
                    <g id="Group-7" transform="translate(17.266667, 9.333333)">
                        <mask id="mask-40" fill="white">
                            <use xlink:href="#path-39"></use>
                        </mask>
                        <g id="Clip-6"></g>
                        <path d="M15.3846933,7.54832711 C15.3846933,11.9862649 12.68176,14.8572812 8.59842667,14.8572812 C6.74856,14.8572812 5.25056,14.219379 4.25096,13.1169671 L4.19309333,13.1169671 L4.19309333,17.9591834 C4.19309333,19.2641908 3.42869333,20.0773108 2.16682667,20.0773108 C0.93296,20.0773108 0.16856,19.2641908 0.16856,17.9591834 L0.16856,2.50260267 C0.16856,1.19668267 0.93296,0.415503407 2.16682667,0.415503407 C3.25229333,0.415503407 3.98776,0.994999704 4.16322667,2.00980267 L4.22202667,2.00980267 C5.21976,0.878187852 6.71869333,0.24028563 8.59842667,0.24028563 C12.68176,0.24028563 15.3846933,3.11130193 15.3846933,7.54832711 M11.2724267,7.54832711 C11.2724267,5.344416 9.83229333,3.866016 7.77616,3.866016 C5.69016,3.866016 4.19309333,5.40282193 4.19309333,7.54832711 C4.19309333,9.69474489 5.69016,11.2315508 7.77616,11.2315508 C9.83229333,11.2315508 11.2724267,9.72394785 11.2724267,7.54832711" id="Fill-5" fill="#FFFFFF" mask="url(#mask-40)"></path>
                    </g>
                    <path d="M49.9333333,16.4287856 C49.9333333,20.9045273 47.2804727,23.8 43.2737006,23.8 C41.4287899,23.8 39.9585409,23.1566639 38.9783748,21.9868782 L38.9206641,21.9868782 C38.747532,23.0094053 38.0256901,23.6232897 36.9887294,23.6232897 C35.7493232,23.6232897 35,22.8050839 35,21.48896 L35,4.93525003 C35,3.61820572 35.7493232,2.8 36.9887294,2.8 C38.1997383,2.8 38.9499775,3.61820572 38.9499775,4.93525003 L38.9499775,10.8430819 L39.0067722,10.8430819 C39.9585409,9.70182758 41.4287899,9.05849148 43.2737006,9.05849148 C47.2804727,9.05849148 49.9333333,11.9539641 49.9333333,16.4287856 M45.8972478,16.4287856 C45.8972478,14.2061007 44.4837934,12.7151072 42.4675827,12.7151072 C40.4202266,12.7151072 38.9499775,14.2650042 38.9499775,16.4287856 C38.9499775,18.5934873 40.4202266,20.1433843 42.4675827,20.1433843 C44.4837934,20.1433843 45.8972478,18.622939 45.8972478,16.4287856" id="Fill-8" fill="#FFFFFF"></path>
                    <path d="M58.7849729,8.86666667 C63.2275416,8.86666667 66.2666667,11.8885781 66.2666667,16.3333333 C66.2666667,20.7482517 63.2275416,23.8 58.7849729,23.8 C54.3706369,23.8 51.3333333,20.7482517 51.3333333,16.3333333 C51.3333333,11.8885781 54.3706369,8.86666667 58.7849729,8.86666667 M58.7849729,20.0965035 C60.8487,20.0965035 62.2530544,18.5571096 62.2530544,16.3333333 C62.2530544,14.0825175 60.8487,12.5701632 58.7849729,12.5701632 C56.7494786,12.5701632 55.3451241,14.0825175 55.3451241,16.3333333 C55.3451241,18.5571096 56.7494786,20.0965035 58.7849729,20.0965035" id="Fill-10" fill="#FFFFFF"></path>
                    <path d="M99.4,15.5237289 L99.4,21.6108598 C99.4,22.9602005 98.6474505,23.8 97.4002632,23.8 C96.1825515,23.8 95.4290809,22.9602005 95.4290809,21.6108598 L95.4290809,16.0040187 C95.4290809,13.7846834 94.4425686,12.6155693 92.5303375,12.6155693 C90.5296796,12.6155693 89.369998,14.0243565 89.369998,16.3937234 L89.369998,21.6108598 C89.369998,22.9602005 88.6174485,23.8 87.3702612,23.8 C86.1525495,23.8 85.4,22.9602005 85.4,21.6108598 L85.4,11.2350899 C85.4,9.88669278 86.1525495,9.04783689 87.3702612,9.04783689 C88.4129614,9.04783689 89.1378775,9.64701967 89.3423646,10.6670458 L89.3994736,10.6670458 C90.3565103,9.49604448 91.7473913,8.86666667 93.5748799,8.86666667 C97.3717087,8.86666667 99.4,11.2058385 99.4,15.5237289" id="Fill-12" fill="#FFFFFF"></path>
                    <path d="M116.2,4.93442321 L116.2,21.4888587 C116.2,22.8050403 115.450769,23.6242023 114.210599,23.6242023 C113.171933,23.6242023 112.451096,23.010291 112.278901,21.9867987 L112.222113,21.9867987 C111.242067,23.1566357 109.771083,23.8 107.926398,23.8 C103.919202,23.8 101.266667,20.9053208 101.266667,16.4284625 C101.266667,11.953445 103.919202,9.05784537 107.926398,9.05784537 C109.771083,9.05784537 111.242067,9.70213008 112.190972,10.842514 L112.250507,10.842514 L112.250507,4.93442321 C112.250507,3.61732118 112.999738,2.8 114.210599,2.8 C115.450769,2.8 116.2,3.61732118 116.2,4.93442321 M112.250507,16.4284625 C112.250507,14.2655067 110.780438,12.7146213 108.733333,12.7146213 C106.715538,12.7146213 105.304089,14.2056802 105.304089,16.4284625 C105.304089,18.6227121 106.715538,20.1432241 108.733333,20.1432241 C110.780438,20.1432241 112.250507,18.5932591 112.250507,16.4284625" id="Fill-14" fill="#FFFFFF"></path>
                    <path d="M6.53333333,3.26617149 C6.53333333,5.06959729 5.07181136,6.53333333 3.26516613,6.53333333 C1.46152197,6.53333333 0,5.06959729 0,3.26617149 C0,1.46274569 1.46152197,0 3.26516613,0 C5.07181136,0 6.53333333,1.46274569 6.53333333,3.26617149" id="Fill-16" fill="#FFFFFF"></path>
                </g>
                <g id="Oval-Copy-3">
                    <use fill="url(#linearGradient-41)" xlink:href="#path-42"></use>
                    <use fill="#FFFFFF" xlink:href="#path-42"></use>
                </g>
                <path d="M1175.55806,313.660966 L1184.66955,304.312704 C1185.11015,303.865449 1185.11015,303.134551 1184.66955,302.682506 L1175.55806,293.339034 C1175.12218,292.886989 1174.40975,292.886989 1173.9692,293.339034 L1172.92869,294.406595 C1172.47875,294.86343 1172.48809,295.608793 1172.94745,296.056001 L1178.59525,301.576484 L1165.12487,301.576484 C1164.50152,301.576484 1164,302.091034 1164,302.730593 L1164,304.269407 C1164,304.908966 1164.50152,305.423516 1165.12487,305.423516 L1178.59525,305.423516 L1172.94745,310.943999 C1172.49281,311.391207 1172.48342,312.13657 1172.92869,312.593405 L1173.9692,313.660966 C1174.40508,314.113011 1175.11751,314.113011 1175.55806,313.660966 Z" id="arrow-right-copy" fill="#0B1C28" fill-rule="nonzero"></path>
                <g id="Rectangle-Copy-11">
                    <use fill="black" fill-opacity="1" filter="url(#filter-45)" xlink:href="#path-44"></use>
                    <path stroke="url(#linearGradient-43)" stroke-width="2" d="M1181,201 L954,201 C951.514719,201 949.264719,202.007359 947.636039,203.636039 C946.007359,205.264719 945,207.514719 945,210 L945,310 C945,312.485281 946.007359,314.735281 947.636039,316.363961 C949.264719,317.992641 951.514719,319 954,319 L1146.67927,319 C1149.16084,319 1151.53229,317.975361 1153.23307,316.168282 L1187.5538,279.70251 C1189.12508,278.033031 1190,275.82684 1190,273.534228 L1190,210 C1190,207.514719 1188.99264,205.264719 1187.36396,203.636039 C1185.73528,202.007359 1183.48528,201 1181,201 Z" stroke-linejoin="square" fill="#1B3549" fill-rule="evenodd"></path>
                </g>
                <text id="Crossplane" font-family="Avenir-Black, Avenir" font-size="18" font-weight="700" line-spacing="22" fill="#FFFFFF">
                    <tspan x="1009" y="265">Crossplane</tspan>
                </text>
                <g id="Crossplane-Icon" transform="translate(976.000000, 241.000000)">
                    <g id="Group-3" transform="translate(0.000000, 3.271738)">
                        <mask id="mask-47" fill="white">
                            <use xlink:href="#path-46"></use>
                        </mask>
                        <g id="Clip-2"></g>
                        <path d="M3.08535517,25.8898984 C2.85073448,25.8160787 2.64001034,25.6918 2.43456207,25.5619148 C1.22421724,24.7975541 0.444010345,23.7210951 0.118458621,22.3197672 C0.0365275862,21.9665541 -9.31034483e-05,21.6077344 -9.31034483e-05,21.2445541 C0.00114827586,19.472882 0.000527586207,17.7015213 0.000837931034,15.9295377 C0.000837931034,15.8874885 0.00549310345,15.8451279 0.00797586207,15.8024557 C0.0511137931,15.7632098 0.0958034483,15.7255213 0.13707931,15.6844066 C5.25187241,10.5516033 10.3663552,5.41817705 15.4808379,0.28475082 C15.5221138,0.24332459 15.5596655,0.198783607 15.598769,0.1558 C15.7762862,0.324931148 15.9159414,0.525521311 16.0583897,0.722996721 C16.8649759,1.84368525 17.3817,3.08771803 17.616631,4.44917705 C17.7007345,4.93663607 17.7389069,5.42907869 17.7401483,5.92307869 C17.7441828,7.61220984 17.7438724,9.30102951 17.7444931,10.9901607 C17.7444931,11.0589967 17.7382862,11.1275213 17.7351828,11.1966689 C17.6845966,11.2433902 17.6324586,11.2882426 17.5837345,11.3371443 C12.7954241,16.1422754 8.00742414,20.9480295 3.21942414,25.7537836 C3.17442414,25.7986361 3.13004483,25.844423 3.08535517,25.8898984" id="Fill-1" fill="#FFCE24" mask="url(#mask-47)"></path>
                    </g>
                    <g id="Group-6" transform="translate(0.000000, 0.156984)">
                        <mask id="mask-49" fill="white">
                            <use xlink:href="#path-48"></use>
                        </mask>
                        <g id="Clip-5"></g>
                        <path d="M15.5988621,3.27052295 C15.5597586,3.31350656 15.5218966,3.35804754 15.480931,3.39947377 C10.3664483,8.53321148 5.25196552,13.6663262 0.136862069,18.7991295 C0.0958965517,18.8402443 0.0512068966,18.8779328 0.00806896552,18.9171787 C0.00589655172,18.8536377 0.00124137931,18.7900967 0.00124137931,18.7265557 C0.000931034483,15.7641131 0.000931034483,12.8022934 0.00124137931,9.8401623 C0.00124137931,9.50532623 -0.00248275862,9.16986721 0.00403448276,8.83503115 C0.0254482759,7.70655574 0.260068966,6.62324426 0.697965517,5.58447377 C1.18148276,4.43730984 1.8747931,3.43404754 2.77851724,2.58185082 C4.0077931,1.42191639 5.44903448,0.667834426 7.10472414,0.330195082 C7.54634483,0.240178689 7.99168966,0.18847377 8.44168966,0.166047541 C10.0722414,0.0844409836 11.6056552,0.434227869 13.0459655,1.19858852 C13.9878621,1.69819508 14.804069,2.36008033 15.5147586,3.15527705 C15.5461034,3.19047377 15.570931,3.2319 15.5988621,3.27052295" id="Fill-4" fill="#F57F78" mask="url(#mask-49)"></path>
                    </g>
                    <path d="M3.08535517,29.1616361 C3.13004483,29.1161607 3.17442414,29.0703738 3.21942414,29.0255213 C8.00742414,24.2197672 12.7954241,19.4140131 17.5837345,14.608882 C17.6324586,14.5599803 17.6845966,14.5151279 17.7351828,14.4684066 C17.7382862,14.5266525 17.7444931,14.5845869 17.7444931,14.6431443 C17.7448034,17.9292098 17.7507,21.2155869 17.7429414,24.5019639 C17.7370448,27.0040459 15.951631,29.0519967 13.6035621,29.5002098 C13.3171138,29.5550295 13.0272517,29.5811934 12.7349069,29.5796361 C12.2104241,29.5774557 11.685631,29.5787016 11.1611483,29.5796361 C11.1034241,29.5796361 11.0444586,29.5712262 10.9876655,29.5902262 C10.9364586,29.5706033 10.8830793,29.5780787 10.830631,29.5777672 C9.61407931,29.5774557 8.39752759,29.5762098 7.18097586,29.5787016 C6.96466552,29.5793246 6.74804483,29.5656197 6.53173448,29.5902262 C6.47494138,29.5715377 6.41628621,29.5796361 6.35825172,29.5793246 C5.90235517,29.5787016 5.44645862,29.5783902 4.99056207,29.5793246 C4.37918276,29.580259 3.7917,29.4562918 3.22314828,29.2357672 C3.17473448,29.2170787 3.12104483,29.2058656 3.08535517,29.1616361" id="Fill-7" fill="#28D1BA"></path>
                    <g id="Group-11" transform="translate(6.517241, 29.435672)">
                        <mask id="mask-51" fill="white">
                            <use xlink:href="#path-50"></use>
                        </mask>
                        <g id="Clip-10"></g>
                        <path d="M0.0146482759,0.154554098 C0.230648276,0.129947541 0.44757931,0.143652459 0.663889655,0.143029508 C1.88044138,0.140537705 3.09668276,0.141783607 4.31323448,0.142095082 C4.3659931,0.142406557 4.41906207,0.135242623 4.47026897,0.154554098 C4.46933793,0.218406557 4.46747586,0.282259016 4.46747586,0.3458 C4.46592414,2.29719344 4.45909655,4.24858689 4.46561379,6.19935738 C4.46933793,7.21663607 3.71768276,8.18657049 2.63861379,8.37532459 C1.46116552,8.58152131 0.378062069,7.84519344 0.0869586207,6.73416066 C0.0400965517,6.55412787 0.014337931,6.36848852 0.0140275862,6.18347213 C0.0109241379,4.19002951 0.0121655172,2.19627541 0.0124758621,0.202209836 C0.0124758621,0.186636066 0.0140275862,0.17075082 0.0146482759,0.154554098" id="Fill-9" fill="#F8D281" mask="url(#mask-51)"></path>
                    </g>
                </g>
                <circle id="Oval-Copy-3" fill="#FFFFFF" cx="348.5" cy="389.5" r="16.5"></circle>
                <path d="M349.558059,399.660966 L358.669555,390.312704 C359.110148,389.865449 359.110148,389.134551 358.669555,388.682506 L349.558059,379.339034 C349.12218,378.886989 348.409751,378.886989 347.969203,379.339034 L346.928685,380.406595 C346.478754,380.86343 346.488091,381.608793 346.947451,382.056001 L352.595255,387.576484 L339.124874,387.576484 C338.501515,387.576484 338,388.091034 338,388.730593 L338,390.269407 C338,390.908966 338.501515,391.423516 339.124874,391.423516 L352.595255,391.423516 L346.947451,396.943999 C346.492806,397.391207 346.483423,398.13657 346.928685,398.593405 L347.969203,399.660966 C348.405082,400.113011 349.117511,400.113011 349.558059,399.660966 Z" id="arrow-right-copy" fill="#0B1C28" fill-rule="nonzero"></path>
                <path d="M355,287 L99,287 C96.5147186,287 94.2647186,288.007359 92.636039,289.636039 C91.0073593,291.264719 90,293.514719 90,296 L90,396 C90,398.485281 91.0073593,400.735281 92.636039,402.363961 C94.2647186,403.992641 96.5147186,405 99,405 L320.096021,405 C322.767147,405 325.327253,403.931356 327.205664,402.032281 L361.109643,367.755323 C362.961393,365.883202 364,363.356256 364,360.723042 L364,296 C364,293.514719 362.992641,291.264719 361.363961,289.636039 C359.735281,288.007359 357.485281,287 355,287 Z" id="Rectangle-Copy-21" stroke-opacity="0.35" stroke="#C8C3FF" stroke-width="2" fill="#1B3549"></path>
                <g id="Oval-Copy-3">
                    <use fill="url(#linearGradient-41)" xlink:href="#path-52"></use>
                    <use fill="#FFFFFF" xlink:href="#path-52"></use>
                </g>
                <path d="M349.558059,252.660966 L358.669555,243.312704 C359.110148,242.865449 359.110148,242.134551 358.669555,241.682506 L349.558059,232.339034 C349.12218,231.886989 348.409751,231.886989 347.969203,232.339034 L346.928685,233.406595 C346.478754,233.86343 346.488091,234.608793 346.947451,235.056001 L352.595255,240.576484 L339.124874,240.576484 C338.501515,240.576484 338,241.091034 338,241.730593 L338,243.269407 C338,243.908966 338.501515,244.423516 339.124874,244.423516 L352.595255,244.423516 L346.947451,249.943999 C346.492806,250.391207 346.483423,251.13657 346.928685,251.593405 L347.969203,252.660966 C348.405082,253.113011 349.117511,253.113011 349.558059,252.660966 Z" id="arrow-right-copy" fill="#0B1C28" fill-rule="nonzero"></path>
                <path d="M355,140 L99,140 C96.5147186,140 94.2647186,141.007359 92.636039,142.636039 C91.0073593,144.264719 90,146.514719 90,149 L90,249 C90,251.485281 91.0073593,253.735281 92.636039,255.363961 C94.2647186,256.992641 96.5147186,258 99,258 L320.412003,258 C322.79972,258 325.089578,257.051179 326.777533,255.362392 L361.36553,220.757336 C363.052398,219.069636 364,216.781123 364,214.394944 L364,149 C364,146.514719 362.992641,144.264719 361.363961,142.636039 C359.735281,141.007359 357.485281,140 355,140 Z" id="Rectangle-Copy-29" stroke-opacity="0.35" stroke="#C8C3FF" stroke-width="2" fill="#1B3549"></path>
                <text id="Operator" font-family="Avenir-Black, Avenir" font-size="18" font-weight="700" line-spacing="20" fill="#D3E7F7">
                    <tspan x="158" y="354">Operator</tspan>
                </text>
                <text id="Developer" font-family="Avenir-Black, Avenir" font-size="18" font-weight="700" line-spacing="20" fill="#D3E7F7">
                    <tspan x="158" y="205">Developer</tspan>
                </text>
                <g id="Group-4-Copy" transform="translate(113.000000, 331.000000)">
                    <rect id="Rectangle-Copy-25" fill="#6D64F5" opacity="0.602143787" x="0" y="0" width="23" height="23" rx="11.5"></rect>
                    <g id="Group-5-Copy-3" opacity="0.603376116" transform="translate(18.500000, 21.500000) rotate(-90.000000) translate(-18.500000, -21.500000) translate(10.000000, 10.000000)">
                        <mask id="mask-54" fill="white">
                            <use xlink:href="#path-53"></use>
                        </mask>
                        <g id="Clip-4"></g>
                        <path d="M17,1.7942237 L17,21.2059093 C17,22.5382568 15.963098,23.404656 15.0819947,22.808052 L0.731702283,13.0886347 C-0.244485898,12.4275514 -0.243733247,10.5427174 0.732956701,9.88333099 L15.0835,0.191062812 C15.9643524,-0.403844265 17,0.462554918 17,1.7942237" id="Fill-3" fill="#4AC0D6" mask="url(#mask-54)"></path>
                    </g>
                </g>
                <g id="Group-4-Copy-2" transform="translate(113.000000, 184.000000)">
                    <rect id="Rectangle-Copy-25" fill="#6D64F5" opacity="0.602143787" x="0" y="0" width="23" height="23" rx="11.5"></rect>
                    <g id="Group-5-Copy-3" opacity="0.603376116" transform="translate(18.500000, 21.500000) rotate(-90.000000) translate(-18.500000, -21.500000) translate(10.000000, 10.000000)">
                        <mask id="mask-56" fill="white">
                            <use xlink:href="#path-55"></use>
                        </mask>
                        <g id="Clip-4"></g>
                        <path d="M17,1.7942237 L17,21.2059093 C17,22.5382568 15.963098,23.404656 15.0819947,22.808052 L0.731702283,13.0886347 C-0.244485898,12.4275514 -0.243733247,10.5427174 0.732956701,9.88333099 L15.0835,0.191062812 C15.9643524,-0.403844265 17,0.462554918 17,1.7942237" id="Fill-3" fill="#4AC0D6" mask="url(#mask-56)"></path>
                    </g>
                </g>
                <path d="M851,215 L881,215 C889.836556,215 897,222.163444 897,231 L897,235 C897,243.836556 904.163444,251 913,251 L944,251 L944,251" id="Path-5-Copy" stroke="#FFFFFF" transform="translate(897.500000, 233.000000) scale(1, -1) translate(-897.500000, -233.000000) "></path>
                <path d="M873,245.858107 L873,255.141957 C873,255.779166 872.512046,256.193531 872.097409,255.908199 L865.34433,251.259782 C864.884948,250.943612 864.885302,250.042169 865.344921,249.72681 L872.098118,245.091378 C872.512636,244.806857 873,245.221222 873,245.858107" id="Fill-3" fill="#FFFFFF" opacity="0.59891183" transform="translate(869.000000, 250.500000) scale(-1, 1) translate(-869.000000, -250.500000) "></path>
                <path d="M901,229.858107 L901,239.141957 C901,239.779166 900.512046,240.193531 900.097409,239.908199 L893.34433,235.259782 C892.884948,234.943612 892.885302,234.042169 893.344921,233.72681 L900.098118,229.091378 C900.512636,228.806857 901,229.221222 901,229.858107" id="Fill-3-Copy-6" fill="#FFFFFF" opacity="0.59891183" transform="translate(897.000000, 234.500000) scale(-1, 1) rotate(90.000000) translate(-897.000000, -234.500000) "></path>
                <path d="M901,280.858107 L901,290.141957 C901,290.779166 900.512046,291.193531 900.097409,290.908199 L893.34433,286.259782 C892.884948,285.943612 892.885302,285.042169 893.344921,284.72681 L900.098118,280.091378 C900.512636,279.806857 901,280.221222 901,280.858107" id="Fill-3-Copy-6" fill="#FFFFFF" opacity="0.59891183" transform="translate(897.000000, 285.500000) scale(-1, 1) rotate(90.000000) translate(-897.000000, -285.500000) "></path>
                <path d="M927,210.858107 L927,220.141957 C927,220.779166 926.512046,221.193531 926.097409,220.908199 L919.34433,216.259782 C918.884948,215.943612 918.885302,215.042169 919.344921,214.72681 L926.098118,210.091378 C926.512636,209.806857 927,210.221222 927,210.858107" id="Fill-3-Copy-5" fill="#FFFFFF" opacity="0.59891183" transform="translate(923.000000, 215.500000) scale(-1, 1) translate(-923.000000, -215.500000) "></path>
                <path d="M873,261.858107 L873,271.141957 C873,271.779166 872.512046,272.193531 872.097409,271.908199 L865.34433,267.259782 C864.884948,266.943612 864.885302,266.042169 865.344921,265.72681 L872.098118,261.091378 C872.512636,260.806857 873,261.221222 873,261.858107" id="Fill-3" fill="#FFFFFF" opacity="0.59891183"></path>
                <path d="M927,298.858107 L927,308.141957 C927,308.779166 926.512046,309.193531 926.097409,308.908199 L919.34433,304.259782 C918.884948,303.943612 918.885302,303.042169 919.344921,302.72681 L926.098118,298.091378 C926.512636,297.806857 927,298.221222 927,298.858107" id="Fill-3-Copy-5" fill="#FFFFFF" opacity="0.59891183"></path>
                <path d="M851,267 L881,267 C889.836556,267 897,274.163444 897,283 L897,287 C897,295.836556 904.163444,303 913,303 L944,303 L944,303" id="Path-5-Copy" stroke="#FFFFFF"></path>
                <line x1="639.5" y1="320" x2="639.5" y2="469" id="Path-2" stroke="#49C2D6"></line>
                <g id="Group-4" transform="translate(294.000000, 70.000000)" stroke="#FAAD13">
                    <path d="M0,3.55271368e-15 L0,12.5 C6.76353751e-16,18.0228475 4.4771525,22.5 10,22.5 L252,22.5 C257.522847,22.5 262,26.9771525 262,32.5 L262,45 L262,45" id="Path-6"></path>
                    <path d="M61,3.55271368e-15 L61,12.5 C61,18.0228475 65.4771525,22.5 71,22.5 L252,22.5 C257.522847,22.5 262,26.9771525 262,32.5 L262,45 L262,45" id="Path-6-Copy"></path>
                    <path d="M121,3.55271368e-15 L121,12.5 C121,18.0228475 125.477153,22.5 131,22.5 L252,22.5 C257.522847,22.5 262,26.9771525 262,32.5 L262,45 L262,45" id="Path-6-Copy-2"></path>
                </g>
                <g id="Group-4-Copy-3" transform="translate(854.000000, 92.500000) scale(-1, 1) translate(-854.000000, -92.500000) translate(723.000000, 70.000000)" stroke="#6D64F5">
                    <path d="M0,3.55271368e-15 L0,12.5 C6.76353751e-16,18.0228475 4.4771525,22.5 10,22.5 L252,22.5 C257.522847,22.5 262,26.9771525 262,32.5 L262,45 L262,45" id="Path-6"></path>
                    <path d="M61,3.55271368e-15 L61,12.5 C61,18.0228475 65.4771525,22.5 71,22.5 L252,22.5 C257.522847,22.5 262,26.9771525 262,32.5 L262,45 L262,45" id="Path-6-Copy"></path>
                    <path d="M121,3.55271368e-15 L121,12.5 C121,18.0228475 125.477153,22.5 131,22.5 L252,22.5 C257.522847,22.5 262,26.9771525 262,32.5 L262,45 L262,45" id="Path-6-Copy-2"></path>
                </g>
                <g id="Group-9" opacity="0.57547433" transform="translate(855.000000, 92.500000) scale(-1, 1) translate(-855.000000, -92.500000) translate(734.000000, 87.000000)" fill="#6D64F5">
                    <path d="M68.0666667,0.858106985 L68.0666667,10.1419566 C68.0666667,10.7791663 67.5746465,11.1935311 67.1565543,10.9081988 L60.3471999,6.2597818 C59.883989,5.94361153 59.8843462,5.04216921 60.3477951,4.72681047 L67.1572686,0.0913778667 C67.5752417,-0.193142909 68.0666667,0.221221917 68.0666667,0.858106985" id="Fill-3-Copy" opacity="0.601074219" transform="translate(64.033333, 5.500000) scale(-1, 1) translate(-64.033333, -5.500000) "></path>
                    <path d="M8.06666667,0.858106985 L8.06666667,10.1419566 C8.06666667,10.7791663 7.57464649,11.1935311 7.15655435,10.9081988 L0.347199907,6.2597818 C-0.116010956,5.94361153 -0.115653815,5.04216921 0.34779514,4.72681047 L7.15726863,0.0913778667 C7.57524173,-0.193142909 8.06666667,0.221221917 8.06666667,0.858106985" id="Fill-3-Copy" opacity="0.601074219" transform="translate(4.033333, 5.500000) scale(-1, 1) translate(-4.033333, -5.500000) "></path>
                    <path d="M127.066667,0.858106985 L127.066667,10.1419566 C127.066667,10.7791663 126.574646,11.1935311 126.156554,10.9081988 L119.3472,6.2597818 C118.883989,5.94361153 118.884346,5.04216921 119.347795,4.72681047 L126.157269,0.0913778667 C126.575242,-0.193142909 127.066667,0.221221917 127.066667,0.858106985" id="Fill-3-Copy-2" opacity="0.601074219" transform="translate(123.033333, 5.500000) scale(-1, 1) translate(-123.033333, -5.500000) "></path>
                    <path d="M165.066667,0.858106985 L165.066667,10.1419566 C165.066667,10.7791663 164.574646,11.1935311 164.156554,10.9081988 L157.3472,6.2597818 C156.883989,5.94361153 156.884346,5.04216921 157.347795,4.72681047 L164.157269,0.0913778667 C164.575242,-0.193142909 165.066667,0.221221917 165.066667,0.858106985" id="Fill-3-Copy-3" opacity="0.601074219" transform="translate(161.033333, 5.500000) scale(-1, 1) translate(-161.033333, -5.500000) "></path>
                    <path d="M203.066667,0.858106985 L203.066667,10.1419566 C203.066667,10.7791663 202.574646,11.1935311 202.156554,10.9081988 L195.3472,6.2597818 C194.883989,5.94361153 194.884346,5.04216921 195.347795,4.72681047 L202.157269,0.0913778667 C202.575242,-0.193142909 203.066667,0.221221917 203.066667,0.858106985" id="Fill-3-Copy-4" opacity="0.601074219" transform="translate(199.033333, 5.500000) scale(-1, 1) translate(-199.033333, -5.500000) "></path>
                    <path d="M241.066667,0.858106985 L241.066667,10.1419566 C241.066667,10.7791663 240.574646,11.1935311 240.156554,10.9081988 L233.3472,6.2597818 C232.883989,5.94361153 232.884346,5.04216921 233.347795,4.72681047 L240.157269,0.0913778667 C240.575242,-0.193142909 241.066667,0.221221917 241.066667,0.858106985" id="Fill-3-Copy-4" opacity="0.601074219" transform="translate(237.033333, 5.500000) scale(-1, 1) translate(-237.033333, -5.500000) "></path>
                </g>
                <g id="Group-9" opacity="0.57547433" transform="translate(303.000000, 87.000000)" fill="#FAAD13">
                    <path d="M68.0666667,0.858106985 L68.0666667,10.1419566 C68.0666667,10.7791663 67.5746465,11.1935311 67.1565543,10.9081988 L60.3471999,6.2597818 C59.883989,5.94361153 59.8843462,5.04216921 60.3477951,4.72681047 L67.1572686,0.0913778667 C67.5752417,-0.193142909 68.0666667,0.221221917 68.0666667,0.858106985" id="Fill-3-Copy" opacity="0.601074219" transform="translate(64.033333, 5.500000) scale(-1, 1) translate(-64.033333, -5.500000) "></path>
                    <path d="M8.06666667,0.858106985 L8.06666667,10.1419566 C8.06666667,10.7791663 7.57464649,11.1935311 7.15655435,10.9081988 L0.347199907,6.2597818 C-0.116010956,5.94361153 -0.115653815,5.04216921 0.34779514,4.72681047 L7.15726863,0.0913778667 C7.57524173,-0.193142909 8.06666667,0.221221917 8.06666667,0.858106985" id="Fill-3-Copy" opacity="0.601074219" transform="translate(4.033333, 5.500000) scale(-1, 1) translate(-4.033333, -5.500000) "></path>
                    <path d="M127.066667,0.858106985 L127.066667,10.1419566 C127.066667,10.7791663 126.574646,11.1935311 126.156554,10.9081988 L119.3472,6.2597818 C118.883989,5.94361153 118.884346,5.04216921 119.347795,4.72681047 L126.157269,0.0913778667 C126.575242,-0.193142909 127.066667,0.221221917 127.066667,0.858106985" id="Fill-3-Copy-2" opacity="0.601074219" transform="translate(123.033333, 5.500000) scale(-1, 1) translate(-123.033333, -5.500000) "></path>
                    <path d="M165.066667,0.858106985 L165.066667,10.1419566 C165.066667,10.7791663 164.574646,11.1935311 164.156554,10.9081988 L157.3472,6.2597818 C156.883989,5.94361153 156.884346,5.04216921 157.347795,4.72681047 L164.157269,0.0913778667 C164.575242,-0.193142909 165.066667,0.221221917 165.066667,0.858106985" id="Fill-3-Copy-3" opacity="0.601074219" transform="translate(161.033333, 5.500000) scale(-1, 1) translate(-161.033333, -5.500000) "></path>
                    <path d="M203.066667,0.858106985 L203.066667,10.1419566 C203.066667,10.7791663 202.574646,11.1935311 202.156554,10.9081988 L195.3472,6.2597818 C194.883989,5.94361153 194.884346,5.04216921 195.347795,4.72681047 L202.157269,0.0913778667 C202.575242,-0.193142909 203.066667,0.221221917 203.066667,0.858106985" id="Fill-3-Copy-4" opacity="0.601074219" transform="translate(199.033333, 5.500000) scale(-1, 1) translate(-199.033333, -5.500000) "></path>
                    <path d="M241.066667,0.858106985 L241.066667,10.1419566 C241.066667,10.7791663 240.574646,11.1935311 240.156554,10.9081988 L233.3472,6.2597818 C232.883989,5.94361153 232.884346,5.04216921 233.347795,4.72681047 L240.157269,0.0913778667 C240.575242,-0.193142909 241.066667,0.221221917 241.066667,0.858106985" id="Fill-3-Copy-4" opacity="0.601074219" transform="translate(237.033333, 5.500000) scale(-1, 1) translate(-237.033333, -5.500000) "></path>
                </g>
                <line x1="638.5" y1="70" x2="638.5" y2="115" id="Path-7" stroke="#49C2D6"></line>
                <path d="M746,112 L533,112 C530.790861,112 528.790861,112.895431 527.343146,114.343146 C525.895431,115.790861 525,117.790861 525,120 L525,172 C525,174.209139 525.895431,176.209139 527.343146,177.656854 C528.790861,179.104569 530.790861,180 533,180 L746,180 C748.209139,180 750.209139,179.104569 751.656854,177.656854 C753.104569,176.209139 754,174.209139 754,172 L754,120 C754,117.790861 753.104569,115.790861 751.656854,114.343146 C750.209139,112.895431 748.209139,112 746,112 Z" id="Rectangle-Copy-18" stroke="url(#linearGradient-57)" stroke-width="4" fill="#1B3549"></path>
                <text id="Internal-Cloud-API" font-family="Avenir-Black, Avenir" font-size="18" font-weight="700" line-spacing="32" fill="#FFFFFF">
                    <tspan x="561.515" y="148">Internal Cloud API</tspan>
                </text>
                <path d="M578,70 L578,82.3882531 C578,87.9111006 582.477153,92.3882531 588,92.3882531 L628.859377,92.3882531 C634.238202,92.3882531 638.653449,96.6430017 638.852526,102.018141 L639,106 L639,106" id="Path-8" stroke="#49C2D6"></path>
                <path d="M597,87.858107 L597,97.1419566 C597,97.7791663 596.512046,98.1935311 596.097409,97.9081988 L589.34433,93.2597818 C588.884948,92.9436115 588.885302,92.0421692 589.344921,91.7268105 L596.098118,87.0913779 C596.512636,86.8068571 597,87.2212219 597,87.858107" id="Fill-3-Copy-4" fill="#49C2D6" opacity="0.601074219" transform="translate(593.000000, 92.500000) scale(-1, 1) translate(-593.000000, -92.500000) "></path>
                <path d="M643,78.858107 L643,88.1419566 C643,88.7791663 642.512046,89.1935311 642.097409,88.9081988 L635.34433,84.2597818 C634.884948,83.9436115 634.885302,83.0421692 635.344921,82.7268105 L642.098118,78.0913779 C642.512636,77.8068571 643,78.2212219 643,78.858107" id="Fill-3-Copy-4" fill="#49C2D6" opacity="0.601074219" transform="translate(639.000000, 83.500000) rotate(-90.000000) translate(-639.000000, -83.500000) "></path>
                <path d="M689,87.858107 L689,97.1419566 C689,97.7791663 688.512046,98.1935311 688.097409,97.9081988 L681.34433,93.2597818 C680.884948,92.9436115 680.885302,92.0421692 681.344921,91.7268105 L688.098118,87.0913779 C688.512636,86.8068571 689,87.2212219 689,87.858107" id="Fill-3-Copy-4" fill="#49C2D6" opacity="0.601074219"></path>
                <path d="M638,70 L638,82.3882531 C638,87.9111006 642.477153,92.3882531 648,92.3882531 L688.859377,92.3882531 C694.238202,92.3882531 698.653449,96.6430017 698.852526,102.018141 L699,106 L699,106" id="Path-8" stroke="#49C2D6" transform="translate(668.500000, 88.000000) scale(-1, 1) translate(-668.500000, -88.000000) "></path>
                <line x1="639.5" y1="181" x2="639.5" y2="199" id="Path-2-Copy" stroke="#49C2D6"></line>
                <line x1="555.5" y1="181" x2="555.5" y2="199" id="Path-2-Copy-2" stroke="#FAAD13"></line>
                <line x1="723.5" y1="181" x2="723.5" y2="199" id="Path-2-Copy-3" stroke="#6D64F5"></line>
            </g>
        </g>
    </g>
</svg>