<?xml version="1.0" encoding="utf-8"?>
<!-- Generator: Adobe Illustrator 25.2.1, SVG Export Plug-In . SVG Version: 6.00 Build 0)  -->
<svg version="1.1" id="Layer_1" xmlns="http://www.w3.org/2000/svg" xmlns:xlink="http://www.w3.org/1999/xlink" x="0px" y="0px"
	 viewBox="0 0 71.2 17.1" style="enable-background:new 0 0 71.2 17.1;" xml:space="preserve">
<style type="text/css">
	.st0{fill:#D3E7F7;}
	.st1{fill:#0155A1;}
	.st2{fill:#FBA702;}
	.st3{fill:#FCFEFF;}
	.st4{fill:#036ED4;}
	.st5{fill:#006CD3;}
	.st6{fill:#050306;}
	.st7{fill:#03B1AE;}
	.st8{fill:#00AD39;}
	.st9{fill:#FF495C;}
	.st10{fill:#017EAE;}
	.st11{fill:#CA4929;}
	.st12{fill:#F59001;}
	.st13{fill:#CDD0D2;}
	.st14{fill:#0863FF;}
	.st15{fill:#F14D02;}
	.st16{fill:#FED853;}
	.st17{fill:#2C323B;}
	.st18{fill:#EE5B65;}
	.st19{fill:#32B3E8;}
	.st20{fill:#2A8AC6;}
	.st21{fill:#D6445D;}
	.st22{fill:#960A2C;}
	.st23{fill:#010101;}
	.st24{fill:#D72B11;}
	.st25{fill:#E41231;}
	.st26{fill:#F01523;}
	.st27{fill:#93DD01;}
	.st28{fill:#249633;}
	.st29{fill:#242424;}
	.st30{fill:#C80126;}
	.st31{fill:#020202;}
	.st32{fill:#959798;}
	.st33{fill:#EE1818;}
	.st34{fill:#242021;}
	.st35{fill:#002A3B;}
	.st36{fill:#205053;}
	.st37{fill:#235153;}
	.st38{fill:#15AA9E;}
	.st39{fill:#09AC9D;}
	.st40{fill:#05716B;}
	.st41{fill:#F49200;}
	.st42{fill:#E25100;}
	.st43{fill:#0223FE;}
	.st44{fill:#04CBFE;}
	.st45{fill:#F47264;}
	.st46{fill:#F24731;}
	.st47{fill:#F8A197;}
	.st48{fill:#233240;}
	.st49{fill:#FE6D52;}
	.st50{fill:#124FFF;}
	.st51{fill:#F56D58;}
	.st52{fill:#75C4E2;}
	.st53{fill:#E0044D;}
	.st54{fill:#3B267C;}
	.st55{fill:#DD1937;}
	.st56{fill:#01B3FE;}
	.st57{fill:#454545;}
	.st58{fill:#AB56B3;}
	.st59{fill:#031A28;}
	.st60{fill:#53CD8E;}
	.st61{fill:#1B0E65;}
	.st62{fill:#060250;}
	.st63{fill:#02AA47;}
	.st64{fill:#060605;}
	.st65{fill:#221E5D;}
	.st66{fill:#F2574D;}
	.st67{fill:#FE6F05;}
	.st68{fill:#D2D1D0;}
</style>
<g id="g892" transform="matrix(0.98088537,0,0,0.98088537,-0.06878252,0.57343883)">
	<g id="g24" transform="matrix(0.27507669,0,0,0.27507669,17.423016,21.087515)">
		<path id="path4" class="st9" d="M33.7-39.9c-2.3,1.8-5.1,2.8-8.3,2.8c-7.6,0-12.7-6.1-12.7-13c0-7.9,5.6-14.1,13.4-14.1
			c2.8,0,5.5,0.8,7.5,2.3l-0.8,2.5c-1.8-1.4-4.3-2.3-6.8-2.3c-6.2,0-10.5,4.9-10.5,11c0,6.7,4.2,11.2,10.2,11.2c3.4,0,6-1.3,8.3-3.4
			L33.7-39.9z"/>
		<path id="path6" class="st9" d="M49-37.7l-0.3-3.2c-1.2,2.1-3.9,3.8-6.2,3.8c-3.4,0-5.6-1.9-5.6-6.3v-4.9c0-2-0.1-4.4-0.2-6.1
			c1,0,2-0.1,2.8-0.1c-0.1,1-0.1,2.7-0.1,4.1v6.4c0,3.2,1.2,4.7,3.7,4.7c2.3,0,5.4-2.6,5.4-4.6v-4.4c0-2-0.1-4.4-0.2-6.1
			c1,0,2.1-0.1,2.8-0.1c-0.1,1-0.1,2.7-0.1,4.1v6.6c0,2.1,0.1,4.6,0.2,6.2C51.3-37.7,49-37.7,49-37.7z"/>
		<path id="path8" class="st9" d="M55.7-37.7c0.1-1.6,0.2-3.9,0.2-6.1v-13.9c0-2.5-0.1-4.5-0.2-6.2c1-0.1,2-0.2,2.8-0.4
			c-0.1,0.6-0.1,2.8-0.1,4.2v18.6c0,1.3,0.1,2.7,0.1,3.6h-2.8V-37.7z"/>
		<path id="path10" class="st9" d="M71.2-38.2c-0.7,0.6-1.9,0.9-3.1,0.9c-2.8,0-4.1-1.7-4.1-4.5v-10.5h-3l0.7-2.2h2.3l0.3-3.7
			l2.3-0.6v4.3h4.7C71-53.9,71-53.3,71-52.3h-4.5V-42c0,1.8,0.8,2.5,2.2,2.5c1,0,2-0.4,2.7-0.8L71.2-38.2z"/>
		<path id="path12" class="st9" d="M87.1-37.7l-0.3-3.2c-1.2,2.1-3.9,3.8-6.2,3.8c-3.4,0-5.6-1.9-5.6-6.3v-4.9c0-2-0.1-4.4-0.2-6.1
			c1,0,2-0.1,2.8-0.1c-0.1,1-0.1,2.7-0.1,4.1v6.4c0,3.2,1.2,4.7,3.7,4.7c2.3,0,5.4-2.6,5.4-4.6v-4.4c0-2-0.1-4.4-0.2-6.1
			c1,0,2.1-0.1,2.8-0.1c-0.1,1-0.1,2.7-0.1,4.1v6.6c0,2.1,0.1,4.6,0.2,6.2C89.4-37.7,87.1-37.7,87.1-37.7z"/>
		<path id="path14" class="st9" d="M102.8-51.9c-2.8-0.3-5.6,1.8-5.6,4.5v5.9c0,1.3,0.1,2.7,0.1,3.8h-2.8c0.1-1.6,0.2-4.1,0.2-6.3
			v-4.7c0-2.1-0.1-4.1-0.3-5.6c0.8-0.1,1.7-0.2,2.5-0.4l0.3,3.8c1.2-2.2,3-3.7,5.9-4.1L102.8-51.9z"/>
		<path id="path16" class="st9" d="M117.8-45.8l-11,0.3c0.1,3.9,2.3,6.1,5.9,6.1c2.6,0,4.5-1.1,6.1-2.5l-0.1,2.6
			c-1.7,1.2-3.7,2.1-6.3,2.1c-5.3,0-8.1-3.8-8.1-8.4c0-5.2,3.3-9.4,8.3-9.4c4.7,0,6.9,3.6,6.9,8.1L117.8-45.8z M117-47.7
			c-0.3-3.2-1.8-5-4.7-5c-3,0-5.1,2.3-5.6,5.3L117-47.7z"/>
		<path id="path18" class="st9" d="M137.7-56.3c1.6-3.5,2.5-5.6,3.3-7.6l0.7-0.2l8.9,19.4c1.2,2.6,2.5,5.5,3.3,7l-3,0.3l-3.8-8.5
			h-11.4l-0.6,1.4c-1,2.5-2.2,5.4-2.8,6.9h-3L137.7-56.3z M136.7-48.3h9.4l-4.7-10.8L136.7-48.3z"/>
		<path id="path20" class="st9" d="M178.7-37.7c0.1-1.6,0.2-4.1,0.2-6.3v-4.5c0-2.7-1-4.2-3.3-4.2c-2.7,0-5.2,2.6-5.2,4.7v6.5
			c0,1.3,0.1,2.8,0.1,3.8h-2.8c0.1-1.6,0.2-4.1,0.2-6.3v-4.5c0-2.7-1-4.2-3.2-4.2c-2.7,0-5.2,2.6-5.2,4.7v6.5c0,1.3,0.1,2.7,0.1,3.8
			h-2.8c0.1-1.6,0.2-4.1,0.2-6.3v-4.2c0-2.1-0.1-4.7-0.2-6.3c1,0,1.7-0.1,2.5-0.1l0.2,3.3c1.3-1.8,3.6-3.6,6-3.6
			c2.6,0,4.4,1.4,4.8,3.7c1-1.7,3.3-3.7,6.1-3.7c3.2,0,5.2,2,5.2,5.9v7.5c0,1.3,0.1,2.8,0.1,3.8C181.7-37.7,178.7-37.7,178.7-37.7z"
			/>
		<path id="path22" class="st9" d="M192.3-37.2c-1.8,0-3.6-0.6-4.5-1.5v5c0,1.2,0.1,2.6,0.1,3.6c-0.1,0-2.8,0.3-2.8,0.3
			c0.1-1,0.2-4.1,0.2-5.7v-12.7c0-2.1-0.1-4.7-0.3-6.3c1,0,1.7-0.1,2.5-0.1l0.2,2.5c1.2-1.4,3.2-2.8,5.7-2.8c4.5,0,7.3,3.6,7.3,8.3
			C200.8-40.9,196.6-37.2,192.3-37.2z M192.8-52.7c-2.1,0-3.8,1.2-5,2.8v8.7c1,1,2.4,1.8,4.5,1.8c3.6,0,5.9-3.2,5.9-7
			C198.2-50.6,195.9-52.7,192.8-52.7z"/>
	</g>
	<path id="path26" class="st9" d="M17.5,7.8c-0.1-0.5-0.2-0.7-0.3-0.7h0c-0.1,0-0.2,0.4-0.2,0.7c0.1,0.9,0.2,2-0.5,3.6
		c-0.3,0.8-0.9,1.6-1.7,2.3c-1,0.9-1.8,1.1-2,1.1c-0.1,0-0.1,0-0.1-0.1c0,0,0-0.1,0-0.1l0.2-0.1c0.4-0.3,0.5-0.4,1-0.8
		c0.7-0.6,1.7-2.1,1.9-2.6c0.2-0.6,0.4-1.5,0.3-2.1c0-0.4-0.1-0.6-0.1-0.6c-0.1,0-0.2,0.2-0.3,0.6c-0.1,0.3-0.2,0.7-0.3,1
		c-0.3,1-0.6,1.4-0.9,1.7c-0.1,0.1-0.1,0.1-0.2,0.2c-0.5,0.7-1.2,1-1.4,1c-0.1,0-0.1,0-0.1-0.1c0-0.1,0-0.1,0.1-0.2
		c0.2-0.2,0.9-0.9,1.3-2c0.1-0.2,0-0.4,0-0.4c0,0-0.1,0-0.2,0.3c-0.2,0.6-0.3,0.6-0.6,1.1c-0.5,0.7-1.2,1.3-1.6,1.5
		c-0.6,0.3-1.2,0.4-1.9,0.4c-0.4,0-0.8-0.1-1.3-0.2c-1-0.2-2.1-1.2-2.2-1.3c-0.3-0.3-0.6-0.7-0.8-1.1c-0.5-0.9-0.8-1.9-0.7-2.7
		C4.8,7.6,5,6.9,5.6,6.2c0.6-0.7,1.1-1.2,2.1-1.5c0.5-0.2,1.1-0.3,1.7-0.3c0.8,0,1.6,0.2,2.1,0.5c0.8,0.6,1.1,0.8,1.9,1.6
		c0.3,0.3,0.8,0.5,1.4,0.5c0.4,0,0.8-0.1,1.1-0.3c0.7-0.4,1.1-0.9,1.2-1.6c0.2-1.4-1.1-2.8-1.1-2.8C15.5,2,15.3,1.8,15,1.5
		c0-0.4-0.4-0.6-0.4-0.6c-2.2-1.5-4.1-1.5-5-1.5c-1,0-1.9,0.2-2.8,0.4C4.6,0.3,2.8,1.6,1.5,3.6C0.5,4.7,0.2,6.4,0.1,7.7
		C0,9.2,0.5,11.3,0.9,11.6C1.2,11.9,1.4,12,1.5,12c0.2,0.4,0.4,0.8,0.5,0.9C2,12.9,2,13,2.1,13.1c0.4,0.5,0.8,1.1,1.2,1.5
		c0.8,0.7,1.6,1.1,2.6,1.6c1,0.4,1.8,0.6,2.7,0.7c0.4,0,0.6,0,0.8,0c0.8,0,1.3-0.1,2.2-0.3c0.8-0.2,1.8-0.7,2.5-1.1
		c0.3-0.2,1.3-1.1,1.6-1.5c0.4-0.4,1-1.3,1.3-2.3C17.8,9.7,17.6,8.5,17.5,7.8L17.5,7.8z"/>
</g>
</svg>
