<?xml version="1.0" encoding="utf-8"?>
<!-- Generator: Adobe Illustrator 25.2.1, SVG Export Plug-In . SVG Version: 6.00 Build 0)  -->
<svg version="1.1" id="Layer_1" xmlns="http://www.w3.org/2000/svg" xmlns:xlink="http://www.w3.org/1999/xlink" x="0px" y="0px"
	 viewBox="0 0 66 12.4" style="enable-background:new 0 0 66 12.4;" xml:space="preserve">
<style type="text/css">
	.st0{fill:#D3E7F7;}
	.st1{fill:#0155A1;}
	.st2{fill:#FBA702;}
	.st3{fill:#FCFEFF;}
	.st4{fill:#036ED4;}
	.st5{fill:#006CD3;}
	.st6{fill:#050306;}
	.st7{fill:#03B1AE;}
	.st8{fill:#00AD39;}
	.st9{fill:#FF495C;}
	.st10{fill:#017EAE;}
	.st11{fill:#CA4929;}
	.st12{fill:#F59001;}
	.st13{fill:#CDD0D2;}
	.st14{fill:#0863FF;}
	.st15{fill:#F14D02;}
	.st16{fill:#FED853;}
	.st17{fill:#2C323B;}
	.st18{fill:#EE5B65;}
	.st19{fill:#32B3E8;}
	.st20{fill:#2A8AC6;}
	.st21{fill:#D6445D;}
	.st22{fill:#960A2C;}
	.st23{fill:#010101;}
	.st24{fill:#D72B11;}
	.st25{fill:#E41231;}
	.st26{fill:#F01523;}
	.st27{fill:#93DD01;}
	.st28{fill:#249633;}
	.st29{fill:#242424;}
	.st30{fill:#C80126;}
	.st31{fill:#020202;}
	.st32{fill:#959798;}
	.st33{fill:#EE1818;}
	.st34{fill:#242021;}
	.st35{fill:#002A3B;}
	.st36{fill:#205053;}
	.st37{fill:#235153;}
	.st38{fill:#15AA9E;}
	.st39{fill:#09AC9D;}
	.st40{fill:#05716B;}
	.st41{fill:#F49200;}
	.st42{fill:#E25100;}
	.st43{fill:#0223FE;}
	.st44{fill:#04CBFE;}
	.st45{fill:#F47264;}
	.st46{fill:#F24731;}
	.st47{fill:#F8A197;}
	.st48{fill:#233240;}
	.st49{fill:#FE6D52;}
	.st50{fill:#124FFF;}
	.st51{fill:#F56D58;}
	.st52{fill:#75C4E2;}
	.st53{fill:#E0044D;}
	.st54{fill:#3B267C;}
	.st55{fill:#DD1937;}
	.st56{fill:#01B3FE;}
	.st57{fill:#454545;}
	.st58{fill:#AB56B3;}
	.st59{fill:#031A28;}
	.st60{fill:#53CD8E;}
	.st61{fill:#1B0E65;}
	.st62{fill:#060250;}
	.st63{fill:#02AA47;}
	.st64{fill:#060605;}
	.st65{fill:#221E5D;}
	.st66{fill:#F2574D;}
	.st67{fill:#FE6F05;}
	.st68{fill:#D2D1D0;}
</style>
<g>
	<g>
		<path class="st26" d="M43.1,0c0,0.1,0,0.1,0,0.2c0,2.9,0,5.7,0,8.6c0,0.1,0,0.1,0,0.2c-0.6,0-1.2,0-1.9,0c0-0.1,0-0.1,0-0.2
			c0-2.1,0-4.3,0-6.4c0-0.1,0-0.1,0-0.2c0,0.1-0.1,0.1-0.1,0.2c-0.5,2.2-1.1,4.3-1.6,6.5C39.4,9,39.4,9,39.3,9c-0.6,0-1.2,0-1.8,0
			c-0.1,0-0.2,0-0.2-0.1c-0.5-2-1-4-1.4-6c0-0.2-0.1-0.4-0.1-0.5c0,0,0-0.1-0.1-0.1c0,0,0,0,0,0c0,2.3,0,4.5,0,6.8
			c-0.1,0-0.1,0-0.1,0c-0.5,0-1.1,0-1.6,0c-0.1,0-0.2,0-0.2-0.2c0-1.4,0-2.8,0-4.2c0-1.5,0-3,0-4.5c0-0.1,0-0.1,0-0.2
			c1.1,0,2.1,0,3.2,0c0,0,0,0.1,0,0.1c0.4,1.9,0.9,3.7,1.3,5.6c0.1,0.3,0.1,0.5,0.2,0.8c0,0,0,0.1,0.1,0.1c0,0,0,0,0.1-0.1
			c0,0,0-0.1,0-0.1C39,4.2,39.5,2.1,40,0C41,0,42,0,43.1,0z"/>
		<path class="st26" d="M54.2,0c0,0.2,0,0.4,0,0.7c0,0.7,0,1.4,0,2.1c0,0,0,0.1,0,0.2c0,0,0.1,0,0.1,0c0.6-0.5,1.3-0.6,2-0.6
			c1.3,0,2.5,0.9,2.9,2.2c0.5,1.5,0,3.1-1.2,4c-1.2,0.9-2.8,0.7-3.7,0c0,0,0,0-0.1,0c0,0.2,0,0.3,0,0.5c-0.6,0-1.2,0-1.8,0
			c0-0.1,0-0.1,0-0.2c0-2.9,0-5.7,0-8.6c0-0.1,0-0.1,0-0.2C53,0,53.6,0,54.2,0z M57.5,5.7c0-0.9-0.7-1.7-1.6-1.7
			c-0.9,0-1.7,0.7-1.7,1.6c0,0.9,0.7,1.7,1.6,1.7C56.7,7.3,57.5,6.6,57.5,5.7z"/>
		<path class="st26" d="M5.9,0c0,0.5,0,0.9,0,1.4c0,0.1,0,0.2,0,0.3c-1.3,0-2.6,0-3.9,0c0,0.6,0,1.2,0,1.9c1.2,0,2.5,0,3.7,0
			c0,0.5,0,1.1,0,1.6c-0.1,0-0.1,0-0.2,0c-1.1,0-2.3,0-3.4,0C2,5.1,2,5.2,2,5.3c0,0.6,0,1.2,0,1.9c0,0,0,0.1,0,0.1
			c1.3,0,2.6,0,3.9,0c0,0.6,0,1.1,0,1.7C5.9,9,5.8,9,5.7,9C3.9,9,2,9,0.2,9C0.1,9,0.1,9,0,9c0-3,0-6,0-9C2,0,4,0,5.9,0z"/>
		<path class="st26" d="M66,0c0,0.1,0,0.1,0,0.2c0,2.9,0,5.7,0,8.6c0,0.1,0,0.1,0,0.2c-0.6,0-1.3,0-1.9,0c0-0.1,0-0.1,0-0.2
			c0-2.9,0-5.7,0-8.6c0-0.1,0-0.1,0-0.2C64.7,0,65.3,0,66,0z"/>
		<path class="st26" d="M62.5,0c0,0.4,0,0.8,0,1.3c0,0.1,0,0.3,0,0.4c-0.7,0-1.3,0-1.9,0c0-0.6,0-1.1,0-1.7C61.2,0,61.9,0,62.5,0z"
			/>
		<path class="st26" d="M13.2,8.9c-0.2,0.2-0.4,0.5-0.5,0.7c-0.4,0.5-0.8,1.1-1.3,1.6c-0.1,0.1-0.1,0.1-0.2,0.1c-0.7,0-1.3,0-2,0
			c0,0-0.1,0-0.1,0c1-1.2,1.9-2.4,2.9-3.6c-0.4-0.4-0.9-0.8-1.3-1.2c0,0,0,0,0,0c0,0-0.1,0.1-0.1,0.1C10,7.3,9.3,8.1,8.7,8.9
			C8.7,9,8.6,9,8.5,9C7.8,9,7.1,9,6.4,9c1-1.3,2-2.6,3.1-3.8C8.6,4.2,7.7,3.3,6.8,2.4c0.1,0,0.1,0,0.2,0c0.8,0,1.6,0,2.4,0
			c0.1,0,0.2,0,0.2,0.1c0.3,0.4,0.7,0.7,1,1c0,0,0,0.1,0.1,0.1c0.1-0.1,0.1-0.1,0.1-0.2c0.7-0.9,1.4-1.7,2-2.6c0,0,0.1-0.1,0.1-0.1
			c0.7,0,1.4,0,2.2,0c-1.1,1.4-2.2,2.7-3.2,4.1c0.4,0.4,0.8,0.8,1.3,1.3c0,0,0.1-0.1,0.1-0.1c0.9-1.2,1.8-2.3,2.7-3.5
			c0.1-0.1,0.1-0.1,0.2-0.1c0.6,0,1.3,0,1.9,0c0,0,0.1,0,0.2,0c-1.3,1.7-2.6,3.3-3.9,5c1.7,1.7,3.3,3.3,5,5c-0.1,0-0.1,0-0.1,0
			c-0.8,0-1.6,0-2.4,0c-0.1,0-0.2,0-0.2-0.1c-1.1-1.1-2.2-2.2-3.2-3.3C13.3,9,13.2,8.9,13.2,8.9z"/>
		<path class="st26" d="M21.3,9.1c-1.6,0-3-1.1-3.4-2.6c-0.5-1.9,0.8-3.9,2.7-4.2c1.5-0.2,2.7,0.2,3.5,1.4c1.4,2,0.3,4.8-2.1,5.3
			C21.8,9.1,21.5,9.1,21.3,9.1z M19.6,5.7c0,0.9,0.7,1.7,1.6,1.7c0.9,0,1.6-0.7,1.6-1.7c0-0.9-0.7-1.7-1.6-1.7
			C20.3,4,19.6,4.7,19.6,5.7z"/>
		<path class="st26" d="M47.7,9.1c-1.7,0-3.1-1.1-3.4-2.7c-0.4-1.8,0.8-3.7,2.6-4.1c1.5-0.3,2.9,0.2,3.7,1.4c1.4,2,0.3,4.8-2.1,5.3
			C48.3,9.1,48,9.1,47.7,9.1z M47.7,4c-0.9,0-1.6,0.7-1.6,1.7c0,0.9,0.7,1.7,1.6,1.7c0.9,0,1.6-0.7,1.6-1.7C49.4,4.8,48.7,4,47.7,4z
			"/>
		<path class="st26" d="M32.1,9c-0.6,0-1.3,0-1.9,0c0-0.1,0-0.1,0-0.2c0-1.1,0-2.3,0-3.4c0-0.2,0-0.4-0.1-0.6
			c-0.1-0.6-0.6-0.9-1.2-0.9c-0.7,0-1.1,0.5-1.1,1.1c0,0.2,0,0.3,0,0.5c0,1.1,0,2.1,0,3.2c0,0.1,0,0.1,0,0.2c-0.6,0-1.3,0-1.9,0
			c0,0,0-0.1,0-0.1c0-2.1,0-4.2,0-6.3c0-0.1,0-0.2,0.2-0.2c0.5,0,1,0,1.5,0c0.1,0,0.2,0,0.1,0.1c0,0.1,0,0.3,0,0.5
			c0.1-0.1,0.1-0.1,0.1-0.1c0.8-0.7,1.8-0.9,2.8-0.5c0.9,0.3,1.3,1,1.5,1.9c0,0.2,0,0.3,0,0.5c0,1.3,0,2.6,0,3.9
			C32.1,8.9,32.1,8.9,32.1,9z"/>
		<path class="st26" d="M60.6,2.4c0.1,0,0.1,0,0.1,0c0.5,0,1.1,0,1.6,0c0.1,0,0.2,0,0.2,0.1c0,2.1,0,4.2,0,6.3c0,0.1,0,0.1-0.1,0.1
			c-0.6,0-1.1,0-1.7,0c0,0-0.1,0-0.1,0C60.6,6.8,60.6,4.6,60.6,2.4z"/>
	</g>
</g>
</svg>
