<?xml version="1.0" encoding="utf-8"?>
<!-- Generator: Adobe Illustrator 25.2.1, SVG Export Plug-In . SVG Version: 6.00 Build 0)  -->
<svg version="1.1" id="Layer_1" xmlns="http://www.w3.org/2000/svg" xmlns:xlink="http://www.w3.org/1999/xlink" x="0px" y="0px"
	 viewBox="0 0 53.6 14.2" style="enable-background:new 0 0 53.6 14.2;" xml:space="preserve">
<style type="text/css">
	.st0{fill:#D3E7F7;}
	.st1{fill:#0155A1;}
	.st2{fill:#FBA702;}
	.st3{fill:#FCFEFF;}
	.st4{fill:#036ED4;}
	.st5{fill:#006CD3;}
	.st6{fill:#050306;}
	.st7{fill:#03B1AE;}
	.st8{fill:#00AD39;}
	.st9{fill:#FF495C;}
	.st10{fill:#017EAE;}
	.st11{fill:#CA4929;}
	.st12{fill:#F59001;}
	.st13{fill:#CDD0D2;}
	.st14{fill:#0863FF;}
	.st15{fill:#F14D02;}
	.st16{fill:#FED853;}
	.st17{fill:#2C323B;}
	.st18{fill:#EE5B65;}
	.st19{fill:#32B3E8;}
	.st20{fill:#2A8AC6;}
	.st21{fill:#D6445D;}
	.st22{fill:#960A2C;}
	.st23{fill:#010101;}
	.st24{fill:#D72B11;}
	.st25{fill:#E41231;}
	.st26{fill:#F01523;}
	.st27{fill:#93DD01;}
	.st28{fill:#249633;}
	.st29{fill:#242424;}
	.st30{fill:#C80126;}
	.st31{fill:#020202;}
	.st32{fill:#959798;}
	.st33{fill:#EE1818;}
	.st34{fill:#242021;}
	.st35{fill:#002A3B;}
	.st36{fill:#205053;}
	.st37{fill:#235153;}
	.st38{fill:#15AA9E;}
	.st39{fill:#09AC9D;}
	.st40{fill:#05716B;}
	.st41{fill:#F49200;}
	.st42{fill:#E25100;}
	.st43{fill:#0223FE;}
	.st44{fill:#04CBFE;}
	.st45{fill:#F47264;}
	.st46{fill:#F24731;}
	.st47{fill:#F8A197;}
	.st48{fill:#233240;}
	.st49{fill:#FE6D52;}
	.st50{fill:#124FFF;}
	.st51{fill:#F56D58;}
	.st52{fill:#75C4E2;}
	.st53{fill:#E0044D;}
	.st54{fill:#3B267C;}
	.st55{fill:#DD1937;}
	.st56{fill:#01B3FE;}
	.st57{fill:#454545;}
	.st58{fill:#AB56B3;}
	.st59{fill:#031A28;}
	.st60{fill:#53CD8E;}
	.st61{fill:#1B0E65;}
	.st62{fill:#060250;}
	.st63{fill:#02AA47;}
	.st64{fill:#060605;}
	.st65{fill:#221E5D;}
	.st66{fill:#F2574D;}
	.st67{fill:#FE6F05;}
	.st68{fill:#D2D1D0;}
</style>
<g>
	<path d="M16.8,3.1c-1.5,0-2.6,0.5-3.4,1.4c-0.7,0.9-1.1,2-1.1,3.3c0,1.3,0.4,2.4,1.1,3.3s1.9,1.4,3.4,1.4c1.5,0,2.6-0.4,3.4-1.4
		c0.7-0.9,1.1-2,1.1-3.3c0-1.3-0.4-2.4-1.1-3.3C19.4,3.6,18.3,3.1,16.8,3.1z M18.3,9.8c-0.3,0.5-0.9,0.7-1.5,0.7
		c-0.7,0-1.2-0.2-1.6-0.7c-0.4-0.5-0.5-1.2-0.5-2c0-0.9,0.2-1.6,0.5-2c0.4-0.5,0.9-0.7,1.6-0.7c0.7,0,1.2,0.2,1.5,0.7
		c0.4,0.5,0.5,1.1,0.5,2C18.8,8.7,18.7,9.3,18.3,9.8z"/>
	<path d="M38.1,4.5c-0.3-0.4-0.6-0.7-1-1c-0.4-0.3-0.9-0.4-1.4-0.4c-1.2,0-2.1,0.4-2.8,1.3c-0.7,0.8-1,2-1,3.5
		c0,1.3,0.3,2.4,1.1,3.2c0.7,0.8,1.6,1.2,2.6,1.2c0.6,0,1.1-0.1,1.6-0.3c0.5-0.3,0.8-0.7,1.1-1.1v1.2h2.2V0.3h-2.3V4.5z M37.6,9.8
		c-0.3,0.5-0.8,0.7-1.5,0.7c-0.7,0-1.1-0.2-1.4-0.7c-0.3-0.5-0.5-1.1-0.5-1.9c0-0.7,0.2-1.4,0.5-1.9c0.3-0.5,0.8-0.8,1.5-0.8
		c0.4,0,0.8,0.1,1.2,0.4c0.5,0.5,0.8,1.2,0.8,2.3C38.1,8.7,38,9.3,37.6,9.8z"/>
	<path d="M6.1,7.8h2.8c-0.1,0.7-0.4,1.4-1,1.9c-0.5,0.5-1.2,0.7-2,0.7c-0.8,0-1.7-0.3-2.3-0.9c-0.7-0.6-1-1.6-1-3.1s0.3-2.5,0.9-3.3
		C4,2.4,4.9,2,5.8,2c0.5,0,0.9,0.1,1.4,0.3C7.9,2.6,8.4,3.2,8.6,4v0H11c-0.1-1.1-0.7-2.2-1.6-2.9C8.5,0.4,7.3,0,5.8,0
		C4,0,2.6,0.6,1.6,1.7C0.5,2.9,0,4.4,0,6.4c0,1.9,0.5,3.4,1.6,4.5c1,1.1,2.3,1.6,3.9,1.6c1,0,1.8-0.2,2.4-0.6
		c0.4-0.2,0.8-0.6,1.3-1.2l0.2,1.5H11V5.8h-5V7.8z"/>
	<path d="M53.4,13.9c-0.1-0.1-0.3-0.3-0.3-0.5c0-0.1-0.9-1.8-1.6-3.3c0.8-1.3,1.6-2.5,1.7-2.5c0.1-0.2,0.3-0.3,0.5-0.4V7
		c-0.4,0-1.3,0-1.5,0.2c-0.2,0.2-0.2,0.2-0.4,0.6c-0.1,0.1-0.4,0.6-0.8,1.3c-0.3-0.7-0.6-1.2-0.6-1.3c-0.1-0.3-0.3-0.6-0.4-0.8
		c-0.2-0.3-0.5-0.4-0.8-0.5c0.7-0.3,1.2-0.7,1.5-1.1c0.3-0.4,0.4-1,0.4-1.8c0-1.1-0.3-1.9-1-2.4c-0.7-0.5-1.7-0.7-3-0.7h-4.6v11.9
		l1.1,0V6.9h3.5c0.3,0,0.5,0,0.8,0.1c0.2,0,0.5,0.1,0.7,0.2c0.2,0.1,0.4,0.2,0.5,0.4c0.1,0.1,0.7,1.2,1.3,2.5c-1,1.5-2,3.2-2.1,3.3
		c-0.1,0.2-0.2,0.3-0.3,0.5c-0.1,0.1-0.2,0.1-0.3,0.2v0.1l1.2,0c0.2-0.2,0.4-0.5,0.5-0.8c0.1-0.2,0.7-1.1,1.4-2.3
		c0.6,1.1,1,2.1,1.1,2.3c0.1,0.3,0.3,0.6,0.5,0.8l1.2,0v-0.1C53.5,14,53.4,14,53.4,13.9z M48,5.8c-0.4,0.1-0.8,0.1-1.2,0.1h-3.5V1.3
		h3.6c0.4,0,0.7,0,1.1,0.1c0.3,0.1,0.6,0.2,0.9,0.3c0.3,0.2,0.5,0.4,0.6,0.7c0.2,0.3,0.3,0.7,0.2,1.1c0,0.4-0.1,0.7-0.2,1.1
		c-0.2,0.3-0.4,0.5-0.6,0.7C48.7,5.5,48.3,5.7,48,5.8z"/>
	<path d="M26.6,3.1c-1.5,0-2.6,0.5-3.4,1.4c-0.7,0.9-1.1,2-1.1,3.3c0,1.3,0.4,2.4,1.1,3.3c0.7,0.9,1.9,1.4,3.4,1.4
		c1.5,0,2.6-0.4,3.4-1.4c0.7-0.9,1.1-2,1.1-3.3c0-1.3-0.4-2.4-1.1-3.3C29.2,3.6,28.1,3.1,26.6,3.1z M28.1,9.8
		c-0.4,0.5-0.9,0.7-1.5,0.7c-0.7,0-1.2-0.2-1.6-0.7c-0.4-0.5-0.5-1.2-0.5-2c0-0.9,0.2-1.6,0.5-2c0.4-0.5,0.9-0.7,1.6-0.7
		c0.7,0,1.2,0.2,1.5,0.7c0.4,0.5,0.5,1.1,0.5,2C28.6,8.7,28.5,9.3,28.1,9.8z"/>
</g>
</svg>
