<?xml version="1.0" encoding="utf-8"?>
<!-- Generator: Adobe Illustrator 25.2.1, SVG Export Plug-In . SVG Version: 6.00 Build 0)  -->
<svg version="1.1" id="Layer_1" xmlns="http://www.w3.org/2000/svg" xmlns:xlink="http://www.w3.org/1999/xlink" x="0px" y="0px"
	 viewBox="0 0 62.1 18.3" style="enable-background:new 0 0 62.1 18.3;" xml:space="preserve">
<style type="text/css">
	.st0{fill:#D3E7F7;}
	.st1{fill:#0155A1;}
	.st2{fill:#FBA702;}
	.st3{fill:#FCFEFF;}
	.st4{fill:#036ED4;}
	.st5{fill:#006CD3;}
	.st6{fill:#050306;}
	.st7{fill:#03B1AE;}
	.st8{fill:#00AD39;}
	.st9{fill:#FF495C;}
	.st10{fill:#017EAE;}
	.st11{fill:#CA4929;}
	.st12{fill:#F59001;}
	.st13{fill:#CDD0D2;}
	.st14{fill:#0863FF;}
	.st15{fill:#F14D02;}
	.st16{fill:#FED853;}
	.st17{fill:#2C323B;}
	.st18{fill:#EE5B65;}
	.st19{fill:#32B3E8;}
	.st20{fill:#2A8AC6;}
	.st21{fill:#D6445D;}
	.st22{fill:#960A2C;}
	.st23{fill:#010101;}
	.st24{fill:#D72B11;}
	.st25{fill:#E41231;}
	.st26{fill:#F01523;}
	.st27{fill:#93DD01;}
	.st28{fill:#249633;}
	.st29{fill:#242424;}
	.st30{fill:#C80126;}
	.st31{fill:#020202;}
	.st32{fill:#959798;}
	.st33{fill:#EE1818;}
	.st34{fill:#242021;}
	.st35{fill:#002A3B;}
	.st36{fill:#205053;}
	.st37{fill:#235153;}
	.st38{fill:#15AA9E;}
	.st39{fill:#09AC9D;}
	.st40{fill:#05716B;}
	.st41{fill:#F49200;}
	.st42{fill:#E25100;}
	.st43{fill:#0223FE;}
	.st44{fill:#04CBFE;}
	.st45{fill:#F47264;}
	.st46{fill:#F24731;}
	.st47{fill:#F8A197;}
	.st48{fill:#233240;}
	.st49{fill:#FE6D52;}
	.st50{fill:#124FFF;}
	.st51{fill:#F56D58;}
	.st52{fill:#75C4E2;}
	.st53{fill:#E0044D;}
	.st54{fill:#3B267C;}
	.st55{fill:#DD1937;}
	.st56{fill:#01B3FE;}
	.st57{fill:#454545;}
	.st58{fill:#AB56B3;}
	.st59{fill:#031A28;}
	.st60{fill:#53CD8E;}
	.st61{fill:#1B0E65;}
	.st62{fill:#060250;}
	.st63{fill:#02AA47;}
	.st64{fill:#060605;}
	.st65{fill:#221E5D;}
	.st66{fill:#F2574D;}
	.st67{fill:#FE6F05;}
	.st68{fill:#D2D1D0;}
</style>
<g>
	<path class="st30" d="M12.5,3c1-1.4,2.3-2.4,3.9-2.8c4-1.1,8.2,1.8,8.5,6c0.1,1.8-0.6,3.4-1.7,4.7c-0.9,1.1-2,2.1-3,3
		c-1.4,1.4-2.9,2.7-4.3,4.1c0,0,0,0-0.1,0.1c-0.2,0.2-0.4,0.3-0.7,0.2c-0.3-0.1-0.3-0.4-0.3-0.6c0-1.5,0-2.9,0-4.4
		c0-1.2-0.8-2.1-2-2.3c-1.4-0.3-2.7,0.8-2.8,2.2c0,1.5,0,3,0,4.5c0,0.3-0.1,0.5-0.3,0.6c-0.3,0.1-0.5,0-0.6-0.2
		C9,18,8.9,17.9,8.8,17.8c-1.8-1.7-3.6-3.4-5.3-5c-0.8-0.7-1.5-1.5-2.2-2.4c-2.7-3.5-1-8,2.3-9.7c3-1.5,6.6-0.7,8.6,2
		C12.3,2.9,12.4,2.9,12.5,3z M14.5,7c0-1.1-0.9-2-2-2c-1.1,0-2,0.9-2,2c0,1.1,0.9,2.1,2.1,2C13.6,9,14.5,8.1,14.5,7z M2.6,6.5
		c0,0.4,0.1,0.8,0.1,1.2c0.4,1.8,1.6,3.2,2.9,4.4c0.2,0.2,0.5,0.1,0.6-0.1c0.2-0.2,0.2-0.4,0-0.6c-0.1-0.1-0.2-0.2-0.3-0.3
		c-0.7-0.6-1.3-1.3-1.8-2.1C3.1,7,3.3,5,4.8,3.5c0.2-0.2,0.4-0.4,0.7-0.6c0.2-0.2,0.3-0.4,0.1-0.6C5.4,2.1,5.1,2,4.9,2.1
		C4.8,2.2,4.7,2.3,4.6,2.3C3.3,3.4,2.7,4.8,2.6,6.5z M22.3,6.5c0-0.1,0-0.3,0-0.4c0-0.1,0-0.3-0.1-0.4c-0.3-1.4-1-2.6-2.2-3.5
		c-0.3-0.2-0.6-0.1-0.7,0.1c-0.1,0.2-0.1,0.5,0.2,0.7c1.8,1.4,2.3,3.5,1.4,5.5c-0.5,1.1-1.3,2-2.2,2.8c-0.3,0.3-0.3,0.5-0.1,0.7
		c0.2,0.2,0.5,0.2,0.8,0c0.5-0.5,1-1,1.5-1.6C21.7,9.2,22.3,8,22.3,6.5z M6.4,6.7c0,0.2,0,0.4,0.1,0.6c0.3,1.4,1,2.4,2.2,3.2
		c0.3,0.2,0.5,0.1,0.7-0.1C9.4,10,9.4,9.8,9.1,9.6C9,9.5,8.9,9.5,8.8,9.4c-1-0.8-1.6-1.8-1.4-3.1c0.1-0.9,0.6-1.6,1.4-2.1
		C9,4.1,9.2,3.9,9.1,3.6C9,3.3,8.7,3.2,8.3,3.4C7.1,4.1,6.4,5.2,6.4,6.7z M18.5,6.7c0-0.3,0-0.6-0.1-1c-0.3-1-0.9-1.8-1.9-2.4
		c-0.3-0.2-0.5-0.1-0.7,0.1c-0.1,0.2-0.1,0.5,0.2,0.7c0.1,0,0.1,0.1,0.2,0.1c1,0.7,1.5,1.6,1.3,2.8c-0.2,1.1-0.8,1.9-1.7,2.5
		c-0.3,0.2-0.4,0.4-0.2,0.7c0.1,0.2,0.4,0.3,0.7,0.1C17.7,9.5,18.4,8.3,18.5,6.7z"/>
	<path class="st31" d="M37.8,4.9c0,1.3,0,2.5,0,3.8C37.8,9,37.7,9,37.5,9c-0.6,0-1.1,0-1.7,0c-0.2,0-0.3,0-0.3-0.3
		c0-0.9,0-1.7,0-2.6c0-0.2-0.1-0.3-0.3-0.3c-0.8,0-1.6,0-2.4,0c-0.2,0-0.3,0.1-0.3,0.3c0,0.9,0,1.7,0,2.6c0,0.2,0,0.3-0.3,0.3
		c-0.6,0-1.2,0-1.8,0c-0.2,0-0.2-0.1-0.2-0.2c0-2.6,0-5.1,0-7.7c0-0.2,0-0.2,0.2-0.2c0.6,0,1.2,0,1.9,0c0.2,0,0.2,0.1,0.2,0.2
		c0,0.9,0,1.7,0,2.6c0,0.2,0,0.3,0.2,0.3c0.8,0,1.6,0,2.5,0c0.2,0,0.2-0.1,0.2-0.2c0-0.9,0-1.7,0-2.6c0-0.2,0-0.3,0.3-0.3
		c0.6,0,1.2,0,1.8,0c0.2,0,0.2,0.1,0.2,0.2C37.8,2.3,37.8,3.6,37.8,4.9z"/>
	<path class="st31" d="M45.3,3.8c0.9-1.1,2.1-1.5,3.5-1.2c1.2,0.2,2.1,0.9,2.5,2.1c0.1,0.4,0.2,0.7,0.2,1.1c0,1,0,1.9,0,2.9
		C51.5,9,51.4,9,51.2,9c-0.5,0-1,0-1.5,0c-0.3,0-0.4,0-0.4-0.3c0-0.1,0-0.1,0-0.2C49,8.7,48.6,9,48.1,9.1c-0.7,0.1-1.3,0.1-2-0.2
		c-0.7-0.3-1.1-0.8-1.1-1.6C45,6.6,45.3,6,46,5.6c0.5-0.3,1.1-0.4,1.6-0.4c0.5,0,1,0,1.5,0c0.2,0,0.2-0.1,0.2-0.2
		c-0.2-0.7-1-1-1.8-0.8c-0.3,0.1-0.6,0.3-0.8,0.5c-0.1,0.1-0.2,0.1-0.3,0C46,4.4,45.7,4.1,45.3,3.8z M48.6,6.4
		C48.6,6.4,48.6,6.4,48.6,6.4c-0.2,0-0.5,0-0.7,0c0,0-0.1,0-0.1,0c-0.3,0.1-0.5,0.2-0.5,0.5c0,0.3,0.1,0.6,0.4,0.7
		c0.7,0.3,1.6-0.2,1.7-1c0-0.1,0-0.2-0.2-0.2C49,6.5,48.8,6.4,48.6,6.4z"/>
	<path class="st31" d="M40.6,6.4c0.3,0.9,1,1.2,1.9,1c0.2-0.1,0.4-0.1,0.5-0.3c0.2-0.3,0.4-0.2,0.7,0c0.2,0.2,0.4,0.4,0.7,0.6
		c0.2,0.1,0.2,0.2,0,0.4c-0.7,0.7-1.5,1-2.4,1.1c-1.4,0.1-2.7-0.6-3.3-1.8c-0.8-1.8,0-4,1.8-4.6c2.1-0.7,4.1,0.6,4.3,2.8
		c0,0.3,0.2,0.7,0,0.9c-0.1,0.1-0.5,0-0.8,0C42.8,6.4,41.7,6.4,40.6,6.4z M40.5,5.3c0.7,0,1.4,0,2,0c0.2,0,0.1-0.1,0.1-0.2
		c-0.1-0.5-0.6-0.9-1.1-0.9C41,4.2,40.6,4.6,40.5,5.3z"/>
	<path class="st31" d="M61.6,7c0,0.5,0,1.1,0,1.6c0,0.1-0.1,0.2-0.2,0.2c-0.8,0.3-1.7,0.4-2.5,0.1c-0.7-0.3-1-0.9-1-1.6
		c0-0.9,0-1.7,0-2.6c0-0.2,0-0.3-0.3-0.3c-0.1,0-0.2,0-0.2,0c-0.2,0-0.2,0-0.2-0.2c0-0.5,0-0.9,0-1.4c0-0.2,0.1-0.2,0.2-0.2
		c0.5,0,0.5,0,0.5-0.5c0-0.3,0-0.6,0-0.9c0-0.1,0-0.2,0.2-0.2c0.6,0,1.2,0,1.9,0c0.2,0,0.2,0.1,0.2,0.2c0,0.4,0,0.7,0,1.1
		c0,0.2,0,0.3,0.3,0.3c0.3,0,0.7,0,1,0c0.2,0,0.2,0,0.2,0.2c0,0.5,0,0.9,0,1.4c0,0.2-0.1,0.2-0.2,0.2c-0.4,0-0.7,0-1.1,0
		c-0.1,0-0.2,0-0.2,0.2c0,0.7,0,1.3,0,2c0,0.4,0.2,0.6,0.7,0.6c0.1,0,0.3,0,0.4-0.1C61.4,7.1,61.5,7.1,61.6,7z"/>
	<path class="st31" d="M54.5,3.8c0.4-0.7,0.9-1.2,1.7-1.2c0.2,0,0.3,0,0.3,0.2c0,0.6,0,1.3,0,1.9c0,0.1,0,0.2-0.2,0.2
		c-1.3,0-1.8,0.9-1.8,1.9c0,0.6,0,1.3,0,1.9c0,0.2,0,0.2-0.2,0.2c-0.6,0-1.2,0-1.8,0c-0.2,0-0.2-0.1-0.2-0.2c0-2,0-3.9,0-5.9
		c0-0.2,0.1-0.2,0.2-0.2c0.6,0,1.2,0,1.8,0c0.2,0,0.2,0.1,0.2,0.2C54.5,3.2,54.5,3.5,54.5,3.8z"/>
	<path class="st32" d="M43.1,14.4c0-1,0-2.1,0-3.1c0-0.5,0.1-0.7,0.7-0.7c0.9,0,1.8,0,2.6,0c1.9,0.2,3.3,1.7,3.4,3.6
		c0,1.9-1.3,3.6-3.3,3.8c-1,0.1-2,0-3,0.1c-0.3,0-0.4-0.2-0.4-0.6c0-0.9,0-1.8,0-2.7C43.1,14.7,43.1,14.6,43.1,14.4z M43.9,14.4
		c0,0.9,0,1.8,0,2.7c0,0.1,0,0.3,0.2,0.3c0.8,0,1.6,0.1,2.4-0.1c1.4-0.3,2.3-1.4,2.3-2.7c0-1.5-0.8-2.7-2.2-3
		c-0.8-0.2-1.6-0.1-2.4-0.1c-0.2,0-0.3,0-0.3,0.3C43.9,12.6,43.9,13.5,43.9,14.4z"/>
	<path class="st32" d="M58.2,18.3c-2.2,0-3.8-1.7-3.8-3.9c0-2.2,1.7-3.9,3.9-3.9c2.2,0,3.8,1.7,3.8,3.9
		C62.1,16.7,60.4,18.3,58.2,18.3z M61.2,14.4c0-0.2,0-0.4-0.1-0.7c-0.3-1.1-1-1.9-2.1-2.2c-1.1-0.3-2.1,0-2.9,0.8
		c-0.7,0.7-0.8,1.6-0.8,2.6c0.1,1.8,1.9,3.1,3.6,2.7C60.3,17.2,61.2,16,61.2,14.4z"/>
	<path class="st32" d="M30.8,15.1c0.6,0.8,1.2,1.5,1.7,2.2c0.1,0.1,0.1,0.2,0.2,0.2c0.2,0.2,0.1,0.4-0.1,0.6c-0.2,0.2-0.4,0.1-0.6,0
		c-0.2-0.1-0.3-0.3-0.4-0.5c-0.6-0.7-1.1-1.4-1.7-2.2c-0.1-0.1-0.2-0.2-0.4-0.2c-0.5,0-1.1,0-1.6,0c-0.3,0-0.3,0.1-0.3,0.3
		c0,0.7,0,1.5,0,2.2c0,0.2-0.1,0.3-0.2,0.4c-0.2,0.1-0.3,0-0.4-0.1c-0.1-0.1-0.2-0.3-0.2-0.4c0-0.6,0-1.1,0-1.7c0-1.6,0-3.2,0-4.8
		c0-0.5,0.1-0.6,0.6-0.6c0.9,0,1.8,0,2.7,0c0.6,0,1.1,0.1,1.6,0.4c0.7,0.4,1.1,1.1,1.1,1.9c0,0.8-0.4,1.4-1.1,1.8
		C31.4,14.9,31.1,15,30.8,15.1z M27.6,13c0,0.4,0,0.8,0,1.2c0,0.2,0.1,0.3,0.3,0.3c0.7,0,1.4,0,2.1,0c0.3,0,0.5,0,0.8-0.1
		c0.8-0.3,1.1-0.8,1.1-1.6c0-0.6-0.5-1.2-1.3-1.3c-0.9-0.1-1.9,0-2.8-0.1c-0.2,0-0.1,0.1-0.1,0.2C27.6,12.1,27.6,12.6,27.6,13z"/>
	<path class="st32" d="M37.8,10.6c0.3,0,0.4,0.1,0.6,0.4c0.8,1.8,1.6,3.6,2.5,5.3c0.2,0.4,0.4,0.8,0.6,1.3c0.1,0.3,0.1,0.6-0.2,0.7
		c-0.2,0.1-0.5,0-0.6-0.3c-0.2-0.5-0.4-1-0.7-1.5c-0.1-0.2-0.2-0.2-0.3-0.2c-1.2,0-2.4,0-3.7,0c-0.2,0-0.3,0.1-0.4,0.2
		c-0.2,0.5-0.4,1-0.7,1.5c-0.2,0.3-0.5,0.4-0.7,0.1c-0.1-0.2-0.1-0.4,0-0.6c0.4-0.8,0.7-1.5,1.1-2.3c0.6-1.4,1.3-2.8,1.9-4.2
		C37.3,10.8,37.4,10.6,37.8,10.6z M37.8,11.6c0,0.1-0.1,0.1-0.1,0.1c-0.5,1.2-1.1,2.3-1.6,3.5c-0.1,0.2,0,0.2,0.2,0.2c1,0,2,0,3,0
		c0.2,0,0.2-0.1,0.1-0.2c-0.4-0.8-0.8-1.7-1.1-2.5C38.1,12.3,37.9,12,37.8,11.6z"/>
	<path class="st31" d="M26.9,6.5c0-0.7,0-1.4,0-2.1c0-0.7,0.5-1.2,1.2-1.2c0.7,0,1.2,0.5,1.2,1.2c0,1.5,0,3,0,4.5
		c0,0.1,0,0.2-0.2,0.2c-0.7,0-1.3,0-2,0c-0.2,0-0.2,0-0.2-0.2C26.9,8,26.9,7.3,26.9,6.5z"/>
	<path class="st32" d="M51.6,14.4c0-1.1,0-2.1,0-3.2c0-0.1,0-0.2,0-0.3c0.1-0.2,0.2-0.3,0.4-0.3c0.2,0,0.3,0.1,0.4,0.3
		c0.1,0.1,0,0.2,0,0.4c0,2.1,0,4.3,0,6.4c0,0.1,0,0.2,0,0.2c-0.1,0.2-0.2,0.4-0.5,0.4c-0.2,0-0.4-0.2-0.4-0.4c0-0.1,0-0.2,0-0.2
		C51.6,16.5,51.6,15.5,51.6,14.4z"/>
	<path class="st31" d="M29.3,1.4c0,0.7-0.5,1.2-1.2,1.2c-0.6,0-1.2-0.5-1.2-1.2c0-0.6,0.5-1.2,1.2-1.2C28.8,0.2,29.3,0.7,29.3,1.4z"
		/>
</g>
</svg>
