<?xml version="1.0" encoding="utf-8"?>
<!-- Generator: Adobe Illustrator 25.2.1, SVG Export Plug-In . SVG Version: 6.00 Build 0)  -->
<svg version="1.1" id="Layer_1" xmlns="http://www.w3.org/2000/svg" xmlns:xlink="http://www.w3.org/1999/xlink" x="0px" y="0px"
	 viewBox="0 0 61.2 9.3" style="enable-background:new 0 0 61.2 9.3;" xml:space="preserve">
<style type="text/css">
	.st0{fill:#960A2C;}
</style>
<path id="M_1_" class="st0" d="M5.7,8.9c0,0-1.2-1.6-1.8-2.3v2.7H8V6.7C7.5,7.3,6.3,8.9,6.3,8.9H5.7z M0,0v9.3h2.4V3.9h1.3
	c0,0,1.8,2.4,2.3,3c0.4-0.6,2.1-3,2.1-3h1.1V0C9.3,0,0,0,0,0z"/>
<path id="a_3_" class="st0" d="M15.4,7.4L14.1,5l-1.3,2.4H15.4z M13.7,4.3h0.9l3,5h-1l-0.7-1.2h-3.5l-0.6,1.2h-1L13.7,4.3L13.7,4.3z
	"/>
<path id="n_3_" class="st0" d="M19.9,6.2v3.1H19v-5h0.7l3.7,3.3C23.6,7.8,23.8,8,24,8.3c0-0.4,0-0.7,0-1v-3h0.9v5h-0.7L20.5,6
	c-0.2-0.2-0.4-0.4-0.6-0.7C19.9,5.6,19.9,5.9,19.9,6.2"/>
<path id="d_1_" class="st0" d="M28.6,5v3.5h1.8c1.5,0,2.3-0.4,2.3-1.8c0-1.3-0.8-1.7-2.3-1.7C30.4,5,28.6,5,28.6,5z M32.5,4.7
	c0.7,0.4,1.1,1.2,1.1,2.1c0,1.7-1,2.5-3.1,2.5h-2.9v-5h2.9C31.4,4.3,32.1,4.4,32.5,4.7"/>
<path id="i_1_" class="st0" d="M35.9,4.3h1v5h-1V4.3z"/>
<g transform="translate(138.83713,0)">
	<path id="a_2_" class="st0" d="M-95.5,7.4L-96.9,5l-1.3,2.4H-95.5z M-97.3,4.3h0.9l3,5h-1l-0.7-1.2h-3.5l-0.6,1.2h-1L-97.3,4.3
		L-97.3,4.3z"/>
</g>
<g transform="translate(138.83749,0)">
	<path id="n_2_" class="st0" d="M-91,6.2v3.1h-0.9v-5h0.7l3.7,3.3c0.2,0.2,0.4,0.4,0.6,0.7C-87,8-87,7.7-87,7.4v-3h0.9v5h-0.7
		L-90.5,6c-0.2-0.2-0.4-0.4-0.6-0.7C-91.1,5.6-91,5.9-91,6.2"/>
</g>
<path id="t_1_" class="st0" d="M57.2,9.3h-1V5h-2.4V4.3h5.7V5h-2.4v4.3H57.2z"/>
<path id="_x28_R_x29__1_" class="st0" d="M60.5,3.5L60.5,3.5l-0.1,0.3h0.1c0.1,0,0.1,0,0.2,0l0.1-0.1C60.7,3.6,60.7,3.5,60.5,3.5
	 M60.5,3.4c0.2,0,0.3,0.1,0.3,0.2c0,0.1,0,0.1-0.1,0.1l-0.1,0.1l0.2,0.4h-0.1l-0.2-0.3h-0.2v0.3h-0.1V3.4H60.5L60.5,3.4z M61.1,3.9
	c0-0.2-0.1-0.3-0.2-0.4c-0.1-0.1-0.3-0.2-0.4-0.2c-0.2,0-0.3,0.1-0.4,0.2c-0.1,0.1-0.2,0.3-0.2,0.4c0,0.2,0.1,0.3,0.2,0.4
	c0.1,0.1,0.3,0.2,0.4,0.2c0.2,0,0.3-0.1,0.4-0.2C61.1,4.2,61.1,4,61.1,3.9 M60.5,3.2c0.2,0,0.4,0.1,0.5,0.2c0.1,0.1,0.2,0.3,0.2,0.5
	c0,0.2-0.1,0.4-0.2,0.5c-0.1,0.1-0.3,0.2-0.5,0.2S60.1,4.5,60,4.4s-0.2-0.3-0.2-0.5c0-0.2,0.1-0.4,0.2-0.5
	C60.1,3.2,60.3,3.2,60.5,3.2"/>
</svg>
